<svg width="170" height="113" viewBox="0 0 170 113" fill="none" xmlns="http://www.w3.org/2000/svg">
<g clip-path="url(#clip0_213_15386)">
<g opacity="0.5">
<path d="M12.5308 96.918L15.8053 100.172" stroke="#32A1DF" stroke-width="0.5" stroke-miterlimit="10"/>
<path d="M15.8053 96.918L12.5308 100.172" stroke="#32A1DF" stroke-width="0.5" stroke-miterlimit="10"/>
<path d="M26.6934 96.918L29.9679 100.172" stroke="#32A1DF" stroke-width="0.5" stroke-miterlimit="10"/>
<path d="M29.9679 96.918L26.6934 100.172" stroke="#32A1DF" stroke-width="0.5" stroke-miterlimit="10"/>
<path d="M40.8613 96.918L44.1359 100.172" stroke="#32A1DF" stroke-width="0.5" stroke-miterlimit="10"/>
<path d="M44.1359 96.918L40.8613 100.172" stroke="#32A1DF" stroke-width="0.5" stroke-miterlimit="10"/>
<path d="M55.0293 96.918L58.3039 100.172" stroke="#32A1DF" stroke-width="0.5" stroke-miterlimit="10"/>
<path d="M58.3039 96.918L55.0293 100.172" stroke="#32A1DF" stroke-width="0.5" stroke-miterlimit="10"/>
<path d="M69.1973 96.918L72.4718 100.172" stroke="#32A1DF" stroke-width="0.5" stroke-miterlimit="10"/>
<path d="M72.4718 96.918L69.1973 100.172" stroke="#32A1DF" stroke-width="0.5" stroke-miterlimit="10"/>
<path d="M83.3599 96.918L86.6344 100.172" stroke="#32A1DF" stroke-width="0.5" stroke-miterlimit="10"/>
<path d="M86.6344 96.918L83.3599 100.172" stroke="#32A1DF" stroke-width="0.5" stroke-miterlimit="10"/>
<path d="M97.5278 96.918L100.802 100.172" stroke="#32A1DF" stroke-width="0.5" stroke-miterlimit="10"/>
<path d="M100.802 96.918L97.5278 100.172" stroke="#32A1DF" stroke-width="0.5" stroke-miterlimit="10"/>
<path d="M111.696 96.918L114.971 100.172" stroke="#32A1DF" stroke-width="0.5" stroke-miterlimit="10"/>
<path d="M114.971 96.918L111.696 100.172" stroke="#32A1DF" stroke-width="0.5" stroke-miterlimit="10"/>
<path d="M125.864 96.918L129.139 100.172" stroke="#32A1DF" stroke-width="0.5" stroke-miterlimit="10"/>
<path d="M129.139 96.918L125.864 100.172" stroke="#32A1DF" stroke-width="0.5" stroke-miterlimit="10"/>
<path d="M140.027 96.918L143.301 100.172" stroke="#32A1DF" stroke-width="0.5" stroke-miterlimit="10"/>
<path d="M143.301 96.918L140.027 100.172" stroke="#32A1DF" stroke-width="0.5" stroke-miterlimit="10"/>
<path d="M154.195 96.918L157.469 100.172" stroke="#32A1DF" stroke-width="0.5" stroke-miterlimit="10"/>
<path d="M157.469 96.918L154.195 100.172" stroke="#32A1DF" stroke-width="0.5" stroke-miterlimit="10"/>
<path d="M12.5308 82.8389L15.8053 86.093" stroke="#32A1DF" stroke-width="0.5" stroke-miterlimit="10"/>
<path d="M15.8053 82.8389L12.5308 86.093" stroke="#32A1DF" stroke-width="0.5" stroke-miterlimit="10"/>
<path d="M26.6934 82.8389L29.9679 86.093" stroke="#32A1DF" stroke-width="0.5" stroke-miterlimit="10"/>
<path d="M29.9679 82.8389L26.6934 86.093" stroke="#32A1DF" stroke-width="0.5" stroke-miterlimit="10"/>
<path d="M40.8613 82.8389L44.1359 86.093" stroke="#32A1DF" stroke-width="0.5" stroke-miterlimit="10"/>
<path d="M44.1359 82.8389L40.8613 86.093" stroke="#32A1DF" stroke-width="0.5" stroke-miterlimit="10"/>
<path d="M55.0293 82.8389L58.3039 86.093" stroke="#32A1DF" stroke-width="0.5" stroke-miterlimit="10"/>
<path d="M58.3039 82.8389L55.0293 86.093" stroke="#32A1DF" stroke-width="0.5" stroke-miterlimit="10"/>
<path d="M69.1973 82.8389L72.4718 86.093" stroke="#32A1DF" stroke-width="0.5" stroke-miterlimit="10"/>
<path d="M72.4718 82.8389L69.1973 86.093" stroke="#32A1DF" stroke-width="0.5" stroke-miterlimit="10"/>
<path d="M83.3599 82.8389L86.6344 86.093" stroke="#32A1DF" stroke-width="0.5" stroke-miterlimit="10"/>
<path d="M86.6344 82.8389L83.3599 86.093" stroke="#32A1DF" stroke-width="0.5" stroke-miterlimit="10"/>
<path d="M97.5278 82.8389L100.802 86.093" stroke="#32A1DF" stroke-width="0.5" stroke-miterlimit="10"/>
<path d="M100.802 82.8389L97.5278 86.093" stroke="#32A1DF" stroke-width="0.5" stroke-miterlimit="10"/>
<path d="M111.696 82.8389L114.971 86.093" stroke="#32A1DF" stroke-width="0.5" stroke-miterlimit="10"/>
<path d="M114.971 82.8389L111.696 86.093" stroke="#32A1DF" stroke-width="0.5" stroke-miterlimit="10"/>
<path d="M125.864 82.8389L129.139 86.093" stroke="#32A1DF" stroke-width="0.5" stroke-miterlimit="10"/>
<path d="M129.139 82.8389L125.864 86.093" stroke="#32A1DF" stroke-width="0.5" stroke-miterlimit="10"/>
<path d="M140.027 82.8389L143.301 86.093" stroke="#32A1DF" stroke-width="0.5" stroke-miterlimit="10"/>
<path d="M143.301 82.8389L140.027 86.093" stroke="#32A1DF" stroke-width="0.5" stroke-miterlimit="10"/>
<path d="M154.195 82.8389L157.469 86.093" stroke="#32A1DF" stroke-width="0.5" stroke-miterlimit="10"/>
<path d="M157.469 82.8389L154.195 86.093" stroke="#32A1DF" stroke-width="0.5" stroke-miterlimit="10"/>
<path d="M12.5308 68.7646L15.8053 72.0188" stroke="#32A1DF" stroke-width="0.5" stroke-miterlimit="10"/>
<path d="M15.8053 68.7646L12.5308 72.0188" stroke="#32A1DF" stroke-width="0.5" stroke-miterlimit="10"/>
<path d="M26.6934 68.7646L29.9679 72.0188" stroke="#32A1DF" stroke-width="0.5" stroke-miterlimit="10"/>
<path d="M29.9679 68.7646L26.6934 72.0188" stroke="#32A1DF" stroke-width="0.5" stroke-miterlimit="10"/>
<path d="M40.8613 68.7646L44.1359 72.0188" stroke="#32A1DF" stroke-width="0.5" stroke-miterlimit="10"/>
<path d="M44.1359 68.7646L40.8613 72.0188" stroke="#32A1DF" stroke-width="0.5" stroke-miterlimit="10"/>
<path d="M55.0293 68.7646L58.3039 72.0188" stroke="#32A1DF" stroke-width="0.5" stroke-miterlimit="10"/>
<path d="M58.3039 68.7646L55.0293 72.0188" stroke="#32A1DF" stroke-width="0.5" stroke-miterlimit="10"/>
<path d="M69.1973 68.7646L72.4718 72.0188" stroke="#32A1DF" stroke-width="0.5" stroke-miterlimit="10"/>
<path d="M72.4718 68.7646L69.1973 72.0188" stroke="#32A1DF" stroke-width="0.5" stroke-miterlimit="10"/>
<path d="M83.3599 68.7646L86.6344 72.0188" stroke="#32A1DF" stroke-width="0.5" stroke-miterlimit="10"/>
<path d="M86.6344 68.7646L83.3599 72.0188" stroke="#32A1DF" stroke-width="0.5" stroke-miterlimit="10"/>
<path d="M97.5278 68.7646L100.802 72.0188" stroke="#32A1DF" stroke-width="0.5" stroke-miterlimit="10"/>
<path d="M100.802 68.7646L97.5278 72.0188" stroke="#32A1DF" stroke-width="0.5" stroke-miterlimit="10"/>
<path d="M111.696 68.7646L114.971 72.0188" stroke="#32A1DF" stroke-width="0.5" stroke-miterlimit="10"/>
<path d="M114.971 68.7646L111.696 72.0188" stroke="#32A1DF" stroke-width="0.5" stroke-miterlimit="10"/>
<path d="M125.864 68.7646L129.139 72.0188" stroke="#32A1DF" stroke-width="0.5" stroke-miterlimit="10"/>
<path d="M129.139 68.7646L125.864 72.0188" stroke="#32A1DF" stroke-width="0.5" stroke-miterlimit="10"/>
<path d="M140.027 68.7646L143.301 72.0188" stroke="#32A1DF" stroke-width="0.5" stroke-miterlimit="10"/>
<path d="M143.301 68.7646L140.027 72.0188" stroke="#32A1DF" stroke-width="0.5" stroke-miterlimit="10"/>
<path d="M154.195 68.7646L157.469 72.0188" stroke="#32A1DF" stroke-width="0.5" stroke-miterlimit="10"/>
<path d="M157.469 68.7646L154.195 72.0188" stroke="#32A1DF" stroke-width="0.5" stroke-miterlimit="10"/>
<path d="M12.5308 54.6855L15.8053 57.9397" stroke="#32A1DF" stroke-width="0.5" stroke-miterlimit="10"/>
<path d="M15.8053 54.6855L12.5308 57.9397" stroke="#32A1DF" stroke-width="0.5" stroke-miterlimit="10"/>
<path d="M26.6934 54.6855L29.9679 57.9397" stroke="#32A1DF" stroke-width="0.5" stroke-miterlimit="10"/>
<path d="M29.9679 54.6855L26.6934 57.9397" stroke="#32A1DF" stroke-width="0.5" stroke-miterlimit="10"/>
<path d="M40.8613 54.6855L44.1359 57.9397" stroke="#32A1DF" stroke-width="0.5" stroke-miterlimit="10"/>
<path d="M44.1359 54.6855L40.8613 57.9397" stroke="#32A1DF" stroke-width="0.5" stroke-miterlimit="10"/>
<path d="M55.0293 54.6855L58.3039 57.9397" stroke="#32A1DF" stroke-width="0.5" stroke-miterlimit="10"/>
<path d="M58.3039 54.6855L55.0293 57.9397" stroke="#32A1DF" stroke-width="0.5" stroke-miterlimit="10"/>
<path d="M69.1973 54.6855L72.4718 57.9397" stroke="#32A1DF" stroke-width="0.5" stroke-miterlimit="10"/>
<path d="M72.4718 54.6855L69.1973 57.9397" stroke="#32A1DF" stroke-width="0.5" stroke-miterlimit="10"/>
<path d="M83.3599 54.6855L86.6344 57.9397" stroke="#32A1DF" stroke-width="0.5" stroke-miterlimit="10"/>
<path d="M86.6344 54.6855L83.3599 57.9397" stroke="#32A1DF" stroke-width="0.5" stroke-miterlimit="10"/>
<path d="M97.5278 54.6855L100.802 57.9397" stroke="#32A1DF" stroke-width="0.5" stroke-miterlimit="10"/>
<path d="M100.802 54.6855L97.5278 57.9397" stroke="#32A1DF" stroke-width="0.5" stroke-miterlimit="10"/>
<path d="M111.696 54.6855L114.971 57.9397" stroke="#32A1DF" stroke-width="0.5" stroke-miterlimit="10"/>
<path d="M114.971 54.6855L111.696 57.9397" stroke="#32A1DF" stroke-width="0.5" stroke-miterlimit="10"/>
<path d="M125.864 54.6855L129.139 57.9397" stroke="#32A1DF" stroke-width="0.5" stroke-miterlimit="10"/>
<path d="M129.139 54.6855L125.864 57.9397" stroke="#32A1DF" stroke-width="0.5" stroke-miterlimit="10"/>
<path d="M140.027 54.6855L143.301 57.9397" stroke="#32A1DF" stroke-width="0.5" stroke-miterlimit="10"/>
<path d="M143.301 54.6855L140.027 57.9397" stroke="#32A1DF" stroke-width="0.5" stroke-miterlimit="10"/>
<path d="M154.195 54.6855L157.469 57.9397" stroke="#32A1DF" stroke-width="0.5" stroke-miterlimit="10"/>
<path d="M157.469 54.6855L154.195 57.9397" stroke="#32A1DF" stroke-width="0.5" stroke-miterlimit="10"/>
<path d="M12.5308 40.6055L15.8053 43.8596" stroke="#32A1DF" stroke-width="0.5" stroke-miterlimit="10"/>
<path d="M15.8053 40.6055L12.5308 43.8596" stroke="#32A1DF" stroke-width="0.5" stroke-miterlimit="10"/>
<path d="M26.6934 40.6055L29.9679 43.8596" stroke="#32A1DF" stroke-width="0.5" stroke-miterlimit="10"/>
<path d="M29.9679 40.6055L26.6934 43.8596" stroke="#32A1DF" stroke-width="0.5" stroke-miterlimit="10"/>
<path d="M40.8613 40.6055L44.1359 43.8596" stroke="#32A1DF" stroke-width="0.5" stroke-miterlimit="10"/>
<path d="M44.1359 40.6055L40.8613 43.8596" stroke="#32A1DF" stroke-width="0.5" stroke-miterlimit="10"/>
<path d="M55.0293 40.6055L58.3039 43.8596" stroke="#32A1DF" stroke-width="0.5" stroke-miterlimit="10"/>
<path d="M58.3039 40.6055L55.0293 43.8596" stroke="#32A1DF" stroke-width="0.5" stroke-miterlimit="10"/>
<path d="M69.1973 40.6055L72.4718 43.8596" stroke="#32A1DF" stroke-width="0.5" stroke-miterlimit="10"/>
<path d="M72.4718 40.6055L69.1973 43.8596" stroke="#32A1DF" stroke-width="0.5" stroke-miterlimit="10"/>
<path d="M83.3599 40.6055L86.6344 43.8596" stroke="#32A1DF" stroke-width="0.5" stroke-miterlimit="10"/>
<path d="M86.6344 40.6055L83.3599 43.8596" stroke="#32A1DF" stroke-width="0.5" stroke-miterlimit="10"/>
<path d="M97.5278 40.6055L100.802 43.8596" stroke="#32A1DF" stroke-width="0.5" stroke-miterlimit="10"/>
<path d="M100.802 40.6055L97.5278 43.8596" stroke="#32A1DF" stroke-width="0.5" stroke-miterlimit="10"/>
<path d="M111.696 40.6055L114.971 43.8596" stroke="#32A1DF" stroke-width="0.5" stroke-miterlimit="10"/>
<path d="M114.971 40.6055L111.696 43.8596" stroke="#32A1DF" stroke-width="0.5" stroke-miterlimit="10"/>
<path d="M125.864 40.6055L129.139 43.8596" stroke="#32A1DF" stroke-width="0.5" stroke-miterlimit="10"/>
<path d="M129.139 40.6055L125.864 43.8596" stroke="#32A1DF" stroke-width="0.5" stroke-miterlimit="10"/>
<path d="M140.027 40.6055L143.301 43.8596" stroke="#32A1DF" stroke-width="0.5" stroke-miterlimit="10"/>
<path d="M143.301 40.6055L140.027 43.8596" stroke="#32A1DF" stroke-width="0.5" stroke-miterlimit="10"/>
<path d="M154.195 40.6055L157.469 43.8596" stroke="#32A1DF" stroke-width="0.5" stroke-miterlimit="10"/>
<path d="M157.469 40.6055L154.195 43.8596" stroke="#32A1DF" stroke-width="0.5" stroke-miterlimit="10"/>
<path d="M12.5308 26.5264L15.8053 29.7805" stroke="#32A1DF" stroke-width="0.5" stroke-miterlimit="10"/>
<path d="M15.8053 26.5264L12.5308 29.7805" stroke="#32A1DF" stroke-width="0.5" stroke-miterlimit="10"/>
<path d="M26.6934 26.5264L29.9679 29.7805" stroke="#32A1DF" stroke-width="0.5" stroke-miterlimit="10"/>
<path d="M29.9679 26.5264L26.6934 29.7805" stroke="#32A1DF" stroke-width="0.5" stroke-miterlimit="10"/>
<path d="M40.8613 26.5264L44.1359 29.7805" stroke="#32A1DF" stroke-width="0.5" stroke-miterlimit="10"/>
<path d="M44.1359 26.5264L40.8613 29.7805" stroke="#32A1DF" stroke-width="0.5" stroke-miterlimit="10"/>
<path d="M55.0293 26.5264L58.3039 29.7805" stroke="#32A1DF" stroke-width="0.5" stroke-miterlimit="10"/>
<path d="M58.3039 26.5264L55.0293 29.7805" stroke="#32A1DF" stroke-width="0.5" stroke-miterlimit="10"/>
<path d="M69.1973 26.5264L72.4718 29.7805" stroke="#32A1DF" stroke-width="0.5" stroke-miterlimit="10"/>
<path d="M72.4718 26.5264L69.1973 29.7805" stroke="#32A1DF" stroke-width="0.5" stroke-miterlimit="10"/>
<path d="M83.3599 26.5264L86.6344 29.7805" stroke="#32A1DF" stroke-width="0.5" stroke-miterlimit="10"/>
<path d="M86.6344 26.5264L83.3599 29.7805" stroke="#32A1DF" stroke-width="0.5" stroke-miterlimit="10"/>
<path d="M97.5278 26.5264L100.802 29.7805" stroke="#32A1DF" stroke-width="0.5" stroke-miterlimit="10"/>
<path d="M100.802 26.5264L97.5278 29.7805" stroke="#32A1DF" stroke-width="0.5" stroke-miterlimit="10"/>
<path d="M111.696 26.5264L114.971 29.7805" stroke="#32A1DF" stroke-width="0.5" stroke-miterlimit="10"/>
<path d="M114.971 26.5264L111.696 29.7805" stroke="#32A1DF" stroke-width="0.5" stroke-miterlimit="10"/>
<path d="M125.864 26.5264L129.139 29.7805" stroke="#32A1DF" stroke-width="0.5" stroke-miterlimit="10"/>
<path d="M129.139 26.5264L125.864 29.7805" stroke="#32A1DF" stroke-width="0.5" stroke-miterlimit="10"/>
<path d="M140.027 26.5264L143.301 29.7805" stroke="#32A1DF" stroke-width="0.5" stroke-miterlimit="10"/>
<path d="M143.301 26.5264L140.027 29.7805" stroke="#32A1DF" stroke-width="0.5" stroke-miterlimit="10"/>
<path d="M154.195 26.5264L157.469 29.7805" stroke="#32A1DF" stroke-width="0.5" stroke-miterlimit="10"/>
<path d="M157.469 26.5264L154.195 29.7805" stroke="#32A1DF" stroke-width="0.5" stroke-miterlimit="10"/>
<path d="M26.6934 12.4521L29.9679 15.7063" stroke="#32A1DF" stroke-width="0.5" stroke-miterlimit="10"/>
<path d="M29.9679 12.4521L26.6934 15.7063" stroke="#32A1DF" stroke-width="0.5" stroke-miterlimit="10"/>
<path d="M40.8613 12.4521L44.1359 15.7063" stroke="#32A1DF" stroke-width="0.5" stroke-miterlimit="10"/>
<path d="M44.1359 12.4521L40.8613 15.7063" stroke="#32A1DF" stroke-width="0.5" stroke-miterlimit="10"/>
<path d="M55.0293 12.4521L58.3039 15.7063" stroke="#32A1DF" stroke-width="0.5" stroke-miterlimit="10"/>
<path d="M58.3039 12.4521L55.0293 15.7063" stroke="#32A1DF" stroke-width="0.5" stroke-miterlimit="10"/>
<path d="M69.1973 12.4521L72.4718 15.7063" stroke="#32A1DF" stroke-width="0.5" stroke-miterlimit="10"/>
<path d="M72.4718 12.4521L69.1973 15.7063" stroke="#32A1DF" stroke-width="0.5" stroke-miterlimit="10"/>
<path d="M83.3599 12.4521L86.6344 15.7063" stroke="#32A1DF" stroke-width="0.5" stroke-miterlimit="10"/>
<path d="M86.6344 12.4521L83.3599 15.7063" stroke="#32A1DF" stroke-width="0.5" stroke-miterlimit="10"/>
<path d="M97.5278 12.4521L100.802 15.7063" stroke="#32A1DF" stroke-width="0.5" stroke-miterlimit="10"/>
<path d="M100.802 12.4521L97.5278 15.7063" stroke="#32A1DF" stroke-width="0.5" stroke-miterlimit="10"/>
<path d="M111.696 12.4521L114.971 15.7063" stroke="#32A1DF" stroke-width="0.5" stroke-miterlimit="10"/>
<path d="M114.971 12.4521L111.696 15.7063" stroke="#32A1DF" stroke-width="0.5" stroke-miterlimit="10"/>
<path d="M125.864 12.4521L129.139 15.7063" stroke="#32A1DF" stroke-width="0.5" stroke-miterlimit="10"/>
<path d="M129.139 12.4521L125.864 15.7063" stroke="#32A1DF" stroke-width="0.5" stroke-miterlimit="10"/>
<path d="M140.027 12.4521L143.301 15.7063" stroke="#32A1DF" stroke-width="0.5" stroke-miterlimit="10"/>
<path d="M143.301 12.4521L140.027 15.7063" stroke="#32A1DF" stroke-width="0.5" stroke-miterlimit="10"/>
<path d="M154.195 12.4521L157.469 15.7063" stroke="#32A1DF" stroke-width="0.5" stroke-miterlimit="10"/>
<path d="M157.469 12.4521L154.195 15.7063" stroke="#32A1DF" stroke-width="0.5" stroke-miterlimit="10"/>
</g>
<path d="M0.5 27.8523L28.0244 0.5H169.5V112.125H0.5V27.8523Z" stroke="#32A1DF"/>
<g clip-path="url(#clip1_213_15386)">
<path d="M63.4932 68.7399V43.8841L85.158 31.4541L106.818 43.8841V68.7399L85.158 81.1699L63.4932 68.7399Z" fill="white"/>
<path d="M85.1537 32.1932L106.17 44.2518V68.3688L85.1537 80.4273L64.1377 68.3731V44.256L85.1537 32.1932ZM85.1537 30.7158L62.8486 43.513V69.1118L85.1537 81.909L107.459 69.1118V43.513L85.1537 30.7158Z" fill="#32A1DF"/>
<path d="M85.1538 74.7773V55.9893" stroke="#32A1DF" stroke-linecap="round" stroke-linejoin="round"/>
<path d="M101.529 46.5957L85.1538 55.9897" stroke="#32A1DF" stroke-linecap="round" stroke-linejoin="round"/>
<path d="M68.7827 46.5957L85.1538 55.9897" stroke="#32A1DF" stroke-linecap="round" stroke-linejoin="round"/>
</g>
</g>
<defs>
<clipPath id="clip0_213_15386">
<rect width="170" height="112.625" fill="white"/>
</clipPath>
<clipPath id="clip1_213_15386">
<rect width="44.6144" height="51.1932" fill="white" transform="translate(62.8486 30.7158)"/>
</clipPath>
</defs>
</svg>
