<svg width="86" height="86" viewBox="0 0 86 86" fill="none" xmlns="http://www.w3.org/2000/svg">
<g clip-path="url(#clip0_314_3883)">
<path d="M0.738394 18.1893C1.1462 18.1893 1.47679 17.8596 1.47679 17.453C1.47679 17.0464 1.1462 16.7168 0.738394 16.7168C0.33059 16.7168 0 17.0464 0 17.453C0 17.8596 0.33059 18.1893 0.738394 18.1893Z" fill="#32A1DF"/>
<path d="M17.6442 0C17.2378 0 16.9058 0.33102 16.9058 0.736234C16.9058 1.14145 17.2378 1.47247 17.6442 1.47247C18.0506 1.47247 18.3826 1.14145 18.3826 0.736234C18.3826 0.33102 18.0506 0 17.6442 0Z" fill="#32A1DF"/>
<path d="M9.19249 18.1893C9.6003 18.1893 9.93089 17.8596 9.93089 17.453C9.93089 17.0464 9.6003 16.7168 9.19249 16.7168C8.78469 16.7168 8.4541 17.0464 8.4541 17.453C8.4541 17.8596 8.78469 18.1893 9.19249 18.1893Z" fill="#32A1DF"/>
<path d="M17.6442 16.7168C17.2378 16.7168 16.9058 17.0478 16.9058 17.453C16.9058 17.8582 17.2378 18.1893 17.6442 18.1893C18.0506 18.1893 18.3826 17.8582 18.3826 17.453C18.3826 17.0478 18.0506 16.7168 17.6442 16.7168Z" fill="#32A1DF"/>
<path d="M17.6442 8.35742C17.2378 8.35742 16.9058 8.68844 16.9058 9.09366C16.9058 9.49887 17.2378 9.82989 17.6442 9.82989C18.0506 9.82989 18.3826 9.49887 18.3826 9.09366C18.3826 8.68844 18.0506 8.35742 17.6442 8.35742Z" fill="#32A1DF"/>
<path d="M26.0958 9.82989C26.5036 9.82989 26.8342 9.50027 26.8342 9.09366C26.8342 8.68704 26.5036 8.35742 26.0958 8.35742C25.688 8.35742 25.3574 8.68704 25.3574 9.09366C25.3574 9.50027 25.688 9.82989 26.0958 9.82989Z" fill="#32A1DF"/>
<path d="M34.547 9.82989C34.9548 9.82989 35.2854 9.50027 35.2854 9.09366C35.2854 8.68704 34.9548 8.35742 34.547 8.35742C34.1392 8.35742 33.8086 8.68704 33.8086 9.09366C33.8086 9.50027 34.1392 9.82989 34.547 9.82989Z" fill="#32A1DF"/>
<path d="M42.9986 8.35742C42.5922 8.35742 42.2603 8.68844 42.2603 9.09366C42.2603 9.49887 42.5922 9.82989 42.9986 9.82989C43.4051 9.82989 43.737 9.49887 43.737 9.09366C43.737 8.68844 43.4051 8.35742 42.9986 8.35742Z" fill="#32A1DF"/>
<path d="M51.4498 9.82989C51.8576 9.82989 52.1882 9.50027 52.1882 9.09366C52.1882 8.68704 51.8576 8.35742 51.4498 8.35742C51.042 8.35742 50.7114 8.68704 50.7114 9.09366C50.7114 9.50027 51.042 9.82989 51.4498 9.82989Z" fill="#32A1DF"/>
<path d="M59.9044 9.82989C60.3122 9.82989 60.6428 9.50027 60.6428 9.09366C60.6428 8.68704 60.3122 8.35742 59.9044 8.35742C59.4966 8.35742 59.166 8.68704 59.166 9.09366C59.166 9.50027 59.4966 9.82989 59.9044 9.82989Z" fill="#32A1DF"/>
<path d="M68.3556 8.35742C67.9492 8.35742 67.6172 8.68844 67.6172 9.09366C67.6172 9.49887 67.9492 9.82989 68.3556 9.82989C68.762 9.82989 69.094 9.49887 69.094 9.09366C69.094 8.68844 68.762 8.35742 68.3556 8.35742Z" fill="#32A1DF"/>
<path d="M76.8072 9.82989C77.215 9.82989 77.5456 9.50027 77.5456 9.09366C77.5456 8.68704 77.215 8.35742 76.8072 8.35742C76.3994 8.35742 76.0688 8.68704 76.0688 9.09366C76.0688 9.50027 76.3994 9.82989 76.8072 9.82989Z" fill="#32A1DF"/>
<path d="M85.2589 9.82989C85.6667 9.82989 85.9973 9.50027 85.9973 9.09366C85.9973 8.68704 85.6667 8.35742 85.2589 8.35742C84.8511 8.35742 84.5205 8.68704 84.5205 9.09366C84.5205 9.50027 84.8511 9.82989 85.2589 9.82989Z" fill="#32A1DF"/>
<path d="M26.0958 1.47247C26.5036 1.47247 26.8342 1.14284 26.8342 0.736234C26.8342 0.329623 26.5036 0 26.0958 0C25.688 0 25.3574 0.329623 25.3574 0.736234C25.3574 1.14284 25.688 1.47247 26.0958 1.47247Z" fill="#32A1DF"/>
<path d="M34.547 1.47247C34.9548 1.47247 35.2854 1.14284 35.2854 0.736234C35.2854 0.329623 34.9548 0 34.547 0C34.1392 0 33.8086 0.329623 33.8086 0.736234C33.8086 1.14284 34.1392 1.47247 34.547 1.47247Z" fill="#32A1DF"/>
<path d="M42.9986 0C42.5922 0 42.2603 0.33102 42.2603 0.736234C42.2603 1.14145 42.5922 1.47247 42.9986 1.47247C43.4051 1.47247 43.737 1.14145 43.737 0.736234C43.737 0.33102 43.4051 0 42.9986 0Z" fill="#32A1DF"/>
<path d="M51.4498 1.47247C51.8576 1.47247 52.1882 1.14284 52.1882 0.736234C52.1882 0.329623 51.8576 0 51.4498 0C51.042 0 50.7114 0.329623 50.7114 0.736234C50.7114 1.14284 51.042 1.47247 51.4498 1.47247Z" fill="#32A1DF"/>
<path d="M59.9044 1.47247C60.3122 1.47247 60.6428 1.14284 60.6428 0.736234C60.6428 0.329623 60.3122 0 59.9044 0C59.4966 0 59.166 0.329623 59.166 0.736234C59.166 1.14284 59.4966 1.47247 59.9044 1.47247Z" fill="#32A1DF"/>
<path d="M68.3556 0C67.9492 0 67.6172 0.33102 67.6172 0.736234C67.6172 1.14145 67.9492 1.47247 68.3556 1.47247C68.762 1.47247 69.094 1.14145 69.094 0.736234C69.094 0.33102 68.762 0 68.3556 0Z" fill="#32A1DF"/>
<path d="M76.8072 1.47247C77.215 1.47247 77.5456 1.14284 77.5456 0.736234C77.5456 0.329623 77.215 0 76.8072 0C76.3994 0 76.0688 0.329623 76.0688 0.736234C76.0688 1.14284 76.3994 1.47247 76.8072 1.47247Z" fill="#32A1DF"/>
<path d="M85.2589 1.47247C85.6667 1.47247 85.9973 1.14284 85.9973 0.736234C85.9973 0.329623 85.6667 0 85.2589 0C84.8511 0 84.5205 0.329623 84.5205 0.736234C84.5205 1.14284 84.8511 1.47247 85.2589 1.47247Z" fill="#32A1DF"/>
<path d="M9.19249 9.82989C9.6003 9.82989 9.93089 9.50027 9.93089 9.09366C9.93089 8.68704 9.6003 8.35742 9.19249 8.35742C8.78469 8.35742 8.4541 8.68704 8.4541 9.09366C8.4541 9.50027 8.78469 9.82989 9.19249 9.82989Z" fill="#32A1DF"/>
<path d="M26.0958 18.1893C26.5036 18.1893 26.8342 17.8596 26.8342 17.453C26.8342 17.0464 26.5036 16.7168 26.0958 16.7168C25.688 16.7168 25.3574 17.0464 25.3574 17.453C25.3574 17.8596 25.688 18.1893 26.0958 18.1893Z" fill="#32A1DF"/>
<path d="M34.547 18.1893C34.9548 18.1893 35.2854 17.8596 35.2854 17.453C35.2854 17.0464 34.9548 16.7168 34.547 16.7168C34.1392 16.7168 33.8086 17.0464 33.8086 17.453C33.8086 17.8596 34.1392 18.1893 34.547 18.1893Z" fill="#32A1DF"/>
<path d="M42.9986 16.7168C42.5922 16.7168 42.2603 17.0478 42.2603 17.453C42.2603 17.8582 42.5922 18.1893 42.9986 18.1893C43.4051 18.1893 43.737 17.8582 43.737 17.453C43.737 17.0478 43.4051 16.7168 42.9986 16.7168Z" fill="#32A1DF"/>
<path d="M51.4498 18.1893C51.8576 18.1893 52.1882 17.8596 52.1882 17.453C52.1882 17.0464 51.8576 16.7168 51.4498 16.7168C51.042 16.7168 50.7114 17.0464 50.7114 17.453C50.7114 17.8596 51.042 18.1893 51.4498 18.1893Z" fill="#32A1DF"/>
<path d="M59.9044 18.1893C60.3122 18.1893 60.6428 17.8596 60.6428 17.453C60.6428 17.0464 60.3122 16.7168 59.9044 16.7168C59.4966 16.7168 59.166 17.0464 59.166 17.453C59.166 17.8596 59.4966 18.1893 59.9044 18.1893Z" fill="#32A1DF"/>
<path d="M68.3556 16.7168C67.9492 16.7168 67.6172 17.0478 67.6172 17.453C67.6172 17.8582 67.9492 18.1893 68.3556 18.1893C68.762 18.1893 69.094 17.8582 69.094 17.453C69.094 17.0478 68.762 16.7168 68.3556 16.7168Z" fill="#32A1DF"/>
<path d="M76.8072 18.1893C77.215 18.1893 77.5456 17.8596 77.5456 17.453C77.5456 17.0464 77.215 16.7168 76.8072 16.7168C76.3994 16.7168 76.0688 17.0464 76.0688 17.453C76.0688 17.8596 76.3994 18.1893 76.8072 18.1893Z" fill="#32A1DF"/>
<path d="M85.2589 18.1893C85.6667 18.1893 85.9973 17.8596 85.9973 17.453C85.9973 17.0464 85.6667 16.7168 85.2589 16.7168C84.8511 16.7168 84.5205 17.0464 84.5205 17.453C84.5205 17.8596 84.8511 18.1893 85.2589 18.1893Z" fill="#32A1DF"/>
<path d="M0.738394 26.5467C1.1462 26.5467 1.47679 26.2171 1.47679 25.8105C1.47679 25.4038 1.1462 25.0742 0.738394 25.0742C0.33059 25.0742 0 25.4038 0 25.8105C0 26.2171 0.33059 26.5467 0.738394 26.5467Z" fill="#32A1DF"/>
<path d="M9.19249 26.5467C9.6003 26.5467 9.93089 26.2171 9.93089 25.8105C9.93089 25.4038 9.6003 25.0742 9.19249 25.0742C8.78469 25.0742 8.4541 25.4038 8.4541 25.8105C8.4541 26.2171 8.78469 26.5467 9.19249 26.5467Z" fill="#32A1DF"/>
<path d="M17.6442 25.0742C17.2378 25.0742 16.9058 25.4052 16.9058 25.8105C16.9058 26.2157 17.2378 26.5467 17.6442 26.5467C18.0506 26.5467 18.3826 26.2157 18.3826 25.8105C18.3826 25.4052 18.0506 25.0742 17.6442 25.0742Z" fill="#32A1DF"/>
<path d="M26.0958 26.5467C26.5036 26.5467 26.8342 26.2171 26.8342 25.8105C26.8342 25.4038 26.5036 25.0742 26.0958 25.0742C25.688 25.0742 25.3574 25.4038 25.3574 25.8105C25.3574 26.2171 25.688 26.5467 26.0958 26.5467Z" fill="#32A1DF"/>
<path d="M34.547 26.5467C34.9548 26.5467 35.2854 26.2171 35.2854 25.8105C35.2854 25.4038 34.9548 25.0742 34.547 25.0742C34.1392 25.0742 33.8086 25.4038 33.8086 25.8105C33.8086 26.2171 34.1392 26.5467 34.547 26.5467Z" fill="#32A1DF"/>
<path d="M42.9986 25.0742C42.5922 25.0742 42.2603 25.4052 42.2603 25.8105C42.2603 26.2157 42.5922 26.5467 42.9986 26.5467C43.4051 26.5467 43.737 26.2157 43.737 25.8105C43.737 25.4052 43.4051 25.0742 42.9986 25.0742Z" fill="#32A1DF"/>
<path d="M51.4498 26.5467C51.8576 26.5467 52.1882 26.2171 52.1882 25.8105C52.1882 25.4038 51.8576 25.0742 51.4498 25.0742C51.042 25.0742 50.7114 25.4038 50.7114 25.8105C50.7114 26.2171 51.042 26.5467 51.4498 26.5467Z" fill="#32A1DF"/>
<path d="M59.9044 26.5467C60.3122 26.5467 60.6428 26.2171 60.6428 25.8105C60.6428 25.4038 60.3122 25.0742 59.9044 25.0742C59.4966 25.0742 59.166 25.4038 59.166 25.8105C59.166 26.2171 59.4966 26.5467 59.9044 26.5467Z" fill="#32A1DF"/>
<path d="M68.3556 25.0742C67.9492 25.0742 67.6172 25.4052 67.6172 25.8105C67.6172 26.2157 67.9492 26.5467 68.3556 26.5467C68.762 26.5467 69.094 26.2157 69.094 25.8105C69.094 25.4052 68.762 25.0742 68.3556 25.0742Z" fill="#32A1DF"/>
<path d="M76.8072 26.5467C77.215 26.5467 77.5456 26.2171 77.5456 25.8105C77.5456 25.4038 77.215 25.0742 76.8072 25.0742C76.3994 25.0742 76.0688 25.4038 76.0688 25.8105C76.0688 26.2171 76.3994 26.5467 76.8072 26.5467Z" fill="#32A1DF"/>
<path d="M85.2589 26.5467C85.6667 26.5467 85.9973 26.2171 85.9973 25.8105C85.9973 25.4038 85.6667 25.0742 85.2589 25.0742C84.8511 25.0742 84.5205 25.4038 84.5205 25.8105C84.5205 26.2171 84.8511 26.5467 85.2589 26.5467Z" fill="#32A1DF"/>
<path d="M0.738394 34.9061C1.1462 34.9061 1.47679 34.5764 1.47679 34.1698C1.47679 33.7632 1.1462 33.4336 0.738394 33.4336C0.33059 33.4336 0 33.7632 0 34.1698C0 34.5764 0.33059 34.9061 0.738394 34.9061Z" fill="#32A1DF"/>
<path d="M9.19249 34.9061C9.6003 34.9061 9.93089 34.5764 9.93089 34.1698C9.93089 33.7632 9.6003 33.4336 9.19249 33.4336C8.78469 33.4336 8.4541 33.7632 8.4541 34.1698C8.4541 34.5764 8.78469 34.9061 9.19249 34.9061Z" fill="#32A1DF"/>
<path d="M17.6442 33.4336C17.2378 33.4336 16.9058 33.7646 16.9058 34.1698C16.9058 34.575 17.2378 34.9061 17.6442 34.9061C18.0506 34.9061 18.3826 34.575 18.3826 34.1698C18.3826 33.7646 18.0506 33.4336 17.6442 33.4336Z" fill="#32A1DF"/>
<path d="M26.0958 34.9061C26.5036 34.9061 26.8342 34.5764 26.8342 34.1698C26.8342 33.7632 26.5036 33.4336 26.0958 33.4336C25.688 33.4336 25.3574 33.7632 25.3574 34.1698C25.3574 34.5764 25.688 34.9061 26.0958 34.9061Z" fill="#32A1DF"/>
<path d="M34.547 34.9061C34.9548 34.9061 35.2854 34.5764 35.2854 34.1698C35.2854 33.7632 34.9548 33.4336 34.547 33.4336C34.1392 33.4336 33.8086 33.7632 33.8086 34.1698C33.8086 34.5764 34.1392 34.9061 34.547 34.9061Z" fill="#32A1DF"/>
<path d="M42.9986 33.4336C42.5922 33.4336 42.2603 33.7646 42.2603 34.1698C42.2603 34.575 42.5922 34.9061 42.9986 34.9061C43.4051 34.9061 43.737 34.575 43.737 34.1698C43.737 33.7646 43.4051 33.4336 42.9986 33.4336Z" fill="#32A1DF"/>
<path d="M51.4498 34.9061C51.8576 34.9061 52.1882 34.5764 52.1882 34.1698C52.1882 33.7632 51.8576 33.4336 51.4498 33.4336C51.042 33.4336 50.7114 33.7632 50.7114 34.1698C50.7114 34.5764 51.042 34.9061 51.4498 34.9061Z" fill="#32A1DF"/>
<path d="M59.9044 34.9061C60.3122 34.9061 60.6428 34.5764 60.6428 34.1698C60.6428 33.7632 60.3122 33.4336 59.9044 33.4336C59.4966 33.4336 59.166 33.7632 59.166 34.1698C59.166 34.5764 59.4966 34.9061 59.9044 34.9061Z" fill="#32A1DF"/>
<path d="M68.3556 33.4336C67.9492 33.4336 67.6172 33.7646 67.6172 34.1698C67.6172 34.575 67.9492 34.9061 68.3556 34.9061C68.762 34.9061 69.094 34.575 69.094 34.1698C69.094 33.7646 68.762 33.4336 68.3556 33.4336Z" fill="#32A1DF"/>
<path d="M76.8072 34.9061C77.215 34.9061 77.5456 34.5764 77.5456 34.1698C77.5456 33.7632 77.215 33.4336 76.8072 33.4336C76.3994 33.4336 76.0688 33.7632 76.0688 34.1698C76.0688 34.5764 76.3994 34.9061 76.8072 34.9061Z" fill="#32A1DF"/>
<path d="M85.2589 34.9061C85.6667 34.9061 85.9973 34.5764 85.9973 34.1698C85.9973 33.7632 85.6667 33.4336 85.2589 33.4336C84.8511 33.4336 84.5205 33.7632 84.5205 34.1698C84.5205 34.5764 84.8511 34.9061 85.2589 34.9061Z" fill="#32A1DF"/>
<path d="M0.738394 43.2635C1.1462 43.2635 1.47679 42.9339 1.47679 42.5272C1.47679 42.1206 1.1462 41.791 0.738394 41.791C0.33059 41.791 0 42.1206 0 42.5272C0 42.9339 0.33059 43.2635 0.738394 43.2635Z" fill="#32A1DF"/>
<path d="M9.19249 43.2635C9.6003 43.2635 9.93089 42.9339 9.93089 42.5272C9.93089 42.1206 9.6003 41.791 9.19249 41.791C8.78469 41.791 8.4541 42.1206 8.4541 42.5272C8.4541 42.9339 8.78469 43.2635 9.19249 43.2635Z" fill="#32A1DF"/>
<path d="M17.6442 41.791C17.2378 41.791 16.9058 42.122 16.9058 42.5272C16.9058 42.9325 17.2378 43.2635 17.6442 43.2635C18.0506 43.2635 18.3826 42.9325 18.3826 42.5272C18.3826 42.122 18.0506 41.791 17.6442 41.791Z" fill="#32A1DF"/>
<path d="M26.0958 43.2635C26.5036 43.2635 26.8342 42.9339 26.8342 42.5272C26.8342 42.1206 26.5036 41.791 26.0958 41.791C25.688 41.791 25.3574 42.1206 25.3574 42.5272C25.3574 42.9339 25.688 43.2635 26.0958 43.2635Z" fill="#32A1DF"/>
<path d="M34.547 43.2635C34.9548 43.2635 35.2854 42.9339 35.2854 42.5272C35.2854 42.1206 34.9548 41.791 34.547 41.791C34.1392 41.791 33.8086 42.1206 33.8086 42.5272C33.8086 42.9339 34.1392 43.2635 34.547 43.2635Z" fill="#32A1DF"/>
<path d="M42.9986 41.791C42.5922 41.791 42.2603 42.122 42.2603 42.5272C42.2603 42.9325 42.5922 43.2635 42.9986 43.2635C43.4051 43.2635 43.737 42.9325 43.737 42.5272C43.737 42.122 43.4051 41.791 42.9986 41.791Z" fill="#32A1DF"/>
<path d="M51.4498 43.2635C51.8576 43.2635 52.1882 42.9339 52.1882 42.5272C52.1882 42.1206 51.8576 41.791 51.4498 41.791C51.042 41.791 50.7114 42.1206 50.7114 42.5272C50.7114 42.9339 51.042 43.2635 51.4498 43.2635Z" fill="#32A1DF"/>
<path d="M59.9044 43.2635C60.3122 43.2635 60.6428 42.9339 60.6428 42.5272C60.6428 42.1206 60.3122 41.791 59.9044 41.791C59.4966 41.791 59.166 42.1206 59.166 42.5272C59.166 42.9339 59.4966 43.2635 59.9044 43.2635Z" fill="#32A1DF"/>
<path d="M68.3556 41.791C67.9492 41.791 67.6172 42.122 67.6172 42.5272C67.6172 42.9325 67.9492 43.2635 68.3556 43.2635C68.762 43.2635 69.094 42.9325 69.094 42.5272C69.094 42.122 68.762 41.791 68.3556 41.791Z" fill="#32A1DF"/>
<path d="M76.8072 43.2635C77.215 43.2635 77.5456 42.9339 77.5456 42.5272C77.5456 42.1206 77.215 41.791 76.8072 41.791C76.3994 41.791 76.0688 42.1206 76.0688 42.5272C76.0688 42.9339 76.3994 43.2635 76.8072 43.2635Z" fill="#32A1DF"/>
<path d="M85.2589 43.2635C85.6667 43.2635 85.9973 42.9339 85.9973 42.5272C85.9973 42.1206 85.6667 41.791 85.2589 41.791C84.8511 41.791 84.5205 42.1206 84.5205 42.5272C84.5205 42.9339 84.8511 43.2635 85.2589 43.2635Z" fill="#32A1DF"/>
<path d="M0.738394 51.6229C1.1462 51.6229 1.47679 51.2932 1.47679 50.8866C1.47679 50.48 1.1462 50.1504 0.738394 50.1504C0.33059 50.1504 0 50.48 0 50.8866C0 51.2932 0.33059 51.6229 0.738394 51.6229Z" fill="#32A1DF"/>
<path d="M9.19249 51.6229C9.6003 51.6229 9.93089 51.2932 9.93089 50.8866C9.93089 50.48 9.6003 50.1504 9.19249 50.1504C8.78469 50.1504 8.4541 50.48 8.4541 50.8866C8.4541 51.2932 8.78469 51.6229 9.19249 51.6229Z" fill="#32A1DF"/>
<path d="M17.6442 50.1504C17.2378 50.1504 16.9058 50.4814 16.9058 50.8866C16.9058 51.2918 17.2378 51.6229 17.6442 51.6229C18.0506 51.6229 18.3826 51.2918 18.3826 50.8866C18.3826 50.4814 18.0506 50.1504 17.6442 50.1504Z" fill="#32A1DF"/>
<path d="M26.0958 51.6229C26.5036 51.6229 26.8342 51.2932 26.8342 50.8866C26.8342 50.48 26.5036 50.1504 26.0958 50.1504C25.688 50.1504 25.3574 50.48 25.3574 50.8866C25.3574 51.2932 25.688 51.6229 26.0958 51.6229Z" fill="#32A1DF"/>
<path d="M34.547 51.6229C34.9548 51.6229 35.2854 51.2932 35.2854 50.8866C35.2854 50.48 34.9548 50.1504 34.547 50.1504C34.1392 50.1504 33.8086 50.48 33.8086 50.8866C33.8086 51.2932 34.1392 51.6229 34.547 51.6229Z" fill="#32A1DF"/>
<path d="M42.9986 50.1504C42.5922 50.1504 42.2603 50.4814 42.2603 50.8866C42.2603 51.2918 42.5922 51.6229 42.9986 51.6229C43.4051 51.6229 43.737 51.2918 43.737 50.8866C43.737 50.4814 43.4051 50.1504 42.9986 50.1504Z" fill="#32A1DF"/>
<path d="M51.4498 51.6229C51.8576 51.6229 52.1882 51.2932 52.1882 50.8866C52.1882 50.48 51.8576 50.1504 51.4498 50.1504C51.042 50.1504 50.7114 50.48 50.7114 50.8866C50.7114 51.2932 51.042 51.6229 51.4498 51.6229Z" fill="#32A1DF"/>
<path d="M59.9044 51.6229C60.3122 51.6229 60.6428 51.2932 60.6428 50.8866C60.6428 50.48 60.3122 50.1504 59.9044 50.1504C59.4966 50.1504 59.166 50.48 59.166 50.8866C59.166 51.2932 59.4966 51.6229 59.9044 51.6229Z" fill="#32A1DF"/>
<path d="M68.3556 50.1504C67.9492 50.1504 67.6172 50.4814 67.6172 50.8866C67.6172 51.2918 67.9492 51.6229 68.3556 51.6229C68.762 51.6229 69.094 51.2918 69.094 50.8866C69.094 50.4814 68.762 50.1504 68.3556 50.1504Z" fill="#32A1DF"/>
<path d="M76.8072 51.6229C77.215 51.6229 77.5456 51.2932 77.5456 50.8866C77.5456 50.48 77.215 50.1504 76.8072 50.1504C76.3994 50.1504 76.0688 50.48 76.0688 50.8866C76.0688 51.2932 76.3994 51.6229 76.8072 51.6229Z" fill="#32A1DF"/>
<path d="M85.2589 51.6229C85.6667 51.6229 85.9973 51.2932 85.9973 50.8866C85.9973 50.48 85.6667 50.1504 85.2589 50.1504C84.8511 50.1504 84.5205 50.48 84.5205 50.8866C84.5205 51.2932 84.8511 51.6229 85.2589 51.6229Z" fill="#32A1DF"/>
<path d="M0.738394 58.5078C0.331991 58.5078 0 58.8388 0 59.244C0 59.6493 0.331991 59.9803 0.738394 59.9803C1.1448 59.9803 1.47679 59.6493 1.47679 59.244C1.47679 58.8388 1.1448 58.5078 0.738394 58.5078Z" fill="#32A1DF"/>
<path d="M9.19249 58.5078C8.78609 58.5078 8.4541 58.8388 8.4541 59.244C8.4541 59.6493 8.78609 59.9803 9.19249 59.9803C9.5989 59.9803 9.93089 59.6493 9.93089 59.244C9.93089 58.8388 9.5989 58.5078 9.19249 58.5078Z" fill="#32A1DF"/>
<path d="M17.6442 58.5078C17.2378 58.5078 16.9058 58.8388 16.9058 59.244C16.9058 59.6493 17.2378 59.9803 17.6442 59.9803C18.0506 59.9803 18.3826 59.6493 18.3826 59.244C18.3826 58.8388 18.0506 58.5078 17.6442 58.5078Z" fill="#32A1DF"/>
<path d="M26.0958 58.5078C25.6894 58.5078 25.3574 58.8388 25.3574 59.244C25.3574 59.6493 25.6894 59.9803 26.0958 59.9803C26.5022 59.9803 26.8342 59.6493 26.8342 59.244C26.8342 58.8388 26.5022 58.5078 26.0958 58.5078Z" fill="#32A1DF"/>
<path d="M34.547 58.5078C34.1406 58.5078 33.8086 58.8388 33.8086 59.244C33.8086 59.6493 34.1406 59.9803 34.547 59.9803C34.9534 59.9803 35.2854 59.6493 35.2854 59.244C35.2854 58.8388 34.9534 58.5078 34.547 58.5078Z" fill="#32A1DF"/>
<path d="M42.9986 58.5078C42.5922 58.5078 42.2603 58.8388 42.2603 59.244C42.2603 59.6493 42.5922 59.9803 42.9986 59.9803C43.4051 59.9803 43.737 59.6493 43.737 59.244C43.737 58.8388 43.4051 58.5078 42.9986 58.5078Z" fill="#32A1DF"/>
<path d="M51.4498 58.5078C51.0434 58.5078 50.7114 58.8388 50.7114 59.244C50.7114 59.6493 51.0434 59.9803 51.4498 59.9803C51.8562 59.9803 52.1882 59.6493 52.1882 59.244C52.1882 58.8388 51.8562 58.5078 51.4498 58.5078Z" fill="#32A1DF"/>
<path d="M59.9044 58.5078C59.498 58.5078 59.166 58.8388 59.166 59.244C59.166 59.6493 59.498 59.9803 59.9044 59.9803C60.3108 59.9803 60.6428 59.6493 60.6428 59.244C60.6428 58.8388 60.3108 58.5078 59.9044 58.5078Z" fill="#32A1DF"/>
<path d="M68.3556 58.5078C67.9492 58.5078 67.6172 58.8388 67.6172 59.244C67.6172 59.6493 67.9492 59.9803 68.3556 59.9803C68.762 59.9803 69.094 59.6493 69.094 59.244C69.094 58.8388 68.762 58.5078 68.3556 58.5078Z" fill="#32A1DF"/>
<path d="M76.8072 58.5078C76.4008 58.5078 76.0688 58.8388 76.0688 59.244C76.0688 59.6493 76.4008 59.9803 76.8072 59.9803C77.2136 59.9803 77.5456 59.6493 77.5456 59.244C77.5456 58.8388 77.2136 58.5078 76.8072 58.5078Z" fill="#32A1DF"/>
<path d="M85.2589 58.5078C84.8525 58.5078 84.5205 58.8388 84.5205 59.244C84.5205 59.6493 84.8525 59.9803 85.2589 59.9803C85.6653 59.9803 85.9973 59.6493 85.9973 59.244C85.9973 58.8388 85.6653 58.5078 85.2589 58.5078Z" fill="#32A1DF"/>
<path d="M0.738394 68.3377C1.1462 68.3377 1.47679 68.0081 1.47679 67.6015C1.47679 67.1949 1.1462 66.8652 0.738394 66.8652C0.33059 66.8652 0 67.1949 0 67.6015C0 68.0081 0.33059 68.3377 0.738394 68.3377Z" fill="#32A1DF"/>
<path d="M9.19249 68.3377C9.6003 68.3377 9.93089 68.0081 9.93089 67.6015C9.93089 67.1949 9.6003 66.8652 9.19249 66.8652C8.78469 66.8652 8.4541 67.1949 8.4541 67.6015C8.4541 68.0081 8.78469 68.3377 9.19249 68.3377Z" fill="#32A1DF"/>
<path d="M17.6442 66.8633C17.2378 66.8633 16.9058 67.1943 16.9058 67.5995C16.9058 68.0047 17.2378 68.3357 17.6442 68.3357C18.0506 68.3357 18.3826 68.0047 18.3826 67.5995C18.3826 67.1943 18.0506 66.8633 17.6442 66.8633Z" fill="#32A1DF"/>
<path d="M26.0958 68.3377C26.5036 68.3377 26.8342 68.0081 26.8342 67.6015C26.8342 67.1949 26.5036 66.8652 26.0958 66.8652C25.688 66.8652 25.3574 67.1949 25.3574 67.6015C25.3574 68.0081 25.688 68.3377 26.0958 68.3377Z" fill="#32A1DF"/>
<path d="M34.547 68.3377C34.9548 68.3377 35.2854 68.0081 35.2854 67.6015C35.2854 67.1949 34.9548 66.8652 34.547 66.8652C34.1392 66.8652 33.8086 67.1949 33.8086 67.6015C33.8086 68.0081 34.1392 68.3377 34.547 68.3377Z" fill="#32A1DF"/>
<path d="M42.9986 66.8633C42.5922 66.8633 42.2603 67.1943 42.2603 67.5995C42.2603 68.0047 42.5922 68.3357 42.9986 68.3357C43.4051 68.3357 43.737 68.0047 43.737 67.5995C43.737 67.1943 43.4051 66.8633 42.9986 66.8633Z" fill="#32A1DF"/>
<path d="M51.4498 68.3377C51.8576 68.3377 52.1882 68.0081 52.1882 67.6015C52.1882 67.1949 51.8576 66.8652 51.4498 66.8652C51.042 66.8652 50.7114 67.1949 50.7114 67.6015C50.7114 68.0081 51.042 68.3377 51.4498 68.3377Z" fill="#32A1DF"/>
<path d="M59.9044 68.3377C60.3122 68.3377 60.6428 68.0081 60.6428 67.6015C60.6428 67.1949 60.3122 66.8652 59.9044 66.8652C59.4966 66.8652 59.166 67.1949 59.166 67.6015C59.166 68.0081 59.4966 68.3377 59.9044 68.3377Z" fill="#32A1DF"/>
<path d="M68.3556 66.8633C67.9492 66.8633 67.6172 67.1943 67.6172 67.5995C67.6172 68.0047 67.9492 68.3357 68.3556 68.3357C68.762 68.3357 69.094 68.0047 69.094 67.5995C69.094 67.1943 68.762 66.8633 68.3556 66.8633Z" fill="#32A1DF"/>
<path d="M76.8072 68.3377C77.215 68.3377 77.5456 68.0081 77.5456 67.6015C77.5456 67.1949 77.215 66.8652 76.8072 66.8652C76.3994 66.8652 76.0688 67.1949 76.0688 67.6015C76.0688 68.0081 76.3994 68.3377 76.8072 68.3377Z" fill="#32A1DF"/>
<path d="M85.2589 68.3377C85.6667 68.3377 85.9973 68.0081 85.9973 67.6015C85.9973 67.1949 85.6667 66.8652 85.2589 66.8652C84.8511 66.8652 84.5205 67.1949 84.5205 67.6015C84.5205 68.0081 84.8511 68.3377 85.2589 68.3377Z" fill="#32A1DF"/>
<path d="M0.738394 76.6971C1.1462 76.6971 1.47679 76.3675 1.47679 75.9608C1.47679 75.5542 1.1462 75.2246 0.738394 75.2246C0.33059 75.2246 0 75.5542 0 75.9608C0 76.3675 0.33059 76.6971 0.738394 76.6971Z" fill="#32A1DF"/>
<path d="M9.19249 76.6971C9.6003 76.6971 9.93089 76.3675 9.93089 75.9608C9.93089 75.5542 9.6003 75.2246 9.19249 75.2246C8.78469 75.2246 8.4541 75.5542 8.4541 75.9608C8.4541 76.3675 8.78469 76.6971 9.19249 76.6971Z" fill="#32A1DF"/>
<path d="M17.6442 75.2207C17.2378 75.2207 16.9058 75.5517 16.9058 75.9569C16.9058 76.3621 17.2378 76.6932 17.6442 76.6932C18.0506 76.6932 18.3826 76.3621 18.3826 75.9569C18.3826 75.5517 18.0506 75.2207 17.6442 75.2207Z" fill="#32A1DF"/>
<path d="M26.0958 76.6971C26.5036 76.6971 26.8342 76.3675 26.8342 75.9608C26.8342 75.5542 26.5036 75.2246 26.0958 75.2246C25.688 75.2246 25.3574 75.5542 25.3574 75.9608C25.3574 76.3675 25.688 76.6971 26.0958 76.6971Z" fill="#32A1DF"/>
<path d="M34.547 76.6971C34.9548 76.6971 35.2854 76.3675 35.2854 75.9608C35.2854 75.5542 34.9548 75.2246 34.547 75.2246C34.1392 75.2246 33.8086 75.5542 33.8086 75.9608C33.8086 76.3675 34.1392 76.6971 34.547 76.6971Z" fill="#32A1DF"/>
<path d="M42.9986 75.2207C42.5922 75.2207 42.2603 75.5517 42.2603 75.9569C42.2603 76.3621 42.5922 76.6932 42.9986 76.6932C43.4051 76.6932 43.737 76.3621 43.737 75.9569C43.737 75.5517 43.4051 75.2207 42.9986 75.2207Z" fill="#32A1DF"/>
<path d="M51.4498 76.6971C51.8576 76.6971 52.1882 76.3675 52.1882 75.9608C52.1882 75.5542 51.8576 75.2246 51.4498 75.2246C51.042 75.2246 50.7114 75.5542 50.7114 75.9608C50.7114 76.3675 51.042 76.6971 51.4498 76.6971Z" fill="#32A1DF"/>
<path d="M59.9044 76.6971C60.3122 76.6971 60.6428 76.3675 60.6428 75.9608C60.6428 75.5542 60.3122 75.2246 59.9044 75.2246C59.4966 75.2246 59.166 75.5542 59.166 75.9608C59.166 76.3675 59.4966 76.6971 59.9044 76.6971Z" fill="#32A1DF"/>
<path d="M68.3556 75.2207C67.9492 75.2207 67.6172 75.5517 67.6172 75.9569C67.6172 76.3621 67.9492 76.6932 68.3556 76.6932C68.762 76.6932 69.094 76.3621 69.094 75.9569C69.094 75.5517 68.762 75.2207 68.3556 75.2207Z" fill="#32A1DF"/>
<path d="M76.8072 76.6971C77.215 76.6971 77.5456 76.3675 77.5456 75.9608C77.5456 75.5542 77.215 75.2246 76.8072 75.2246C76.3994 75.2246 76.0688 75.5542 76.0688 75.9608C76.0688 76.3675 76.3994 76.6971 76.8072 76.6971Z" fill="#32A1DF"/>
<path d="M85.2589 76.6971C85.6667 76.6971 85.9973 76.3675 85.9973 75.9608C85.9973 75.5542 85.6667 75.2246 85.2589 75.2246C84.8511 75.2246 84.5205 75.5542 84.5205 75.9608C84.5205 76.3675 84.8511 76.6971 85.2589 76.6971Z" fill="#32A1DF"/>
<path d="M0.738394 85.0545C1.1462 85.0545 1.47679 84.7249 1.47679 84.3183C1.47679 83.9117 1.1462 83.582 0.738394 83.582C0.33059 83.582 0 83.9117 0 84.3183C0 84.7249 0.33059 85.0545 0.738394 85.0545Z" fill="#32A1DF"/>
<path d="M9.19249 85.0545C9.6003 85.0545 9.93089 84.7249 9.93089 84.3183C9.93089 83.9117 9.6003 83.582 9.19249 83.582C8.78469 83.582 8.4541 83.9117 8.4541 84.3183C8.4541 84.7249 8.78469 85.0545 9.19249 85.0545Z" fill="#32A1DF"/>
<path d="M17.6442 83.5801C17.2378 83.5801 16.9058 83.9111 16.9058 84.3163C16.9058 84.7215 17.2378 85.0525 17.6442 85.0525C18.0506 85.0525 18.3826 84.7215 18.3826 84.3163C18.3826 83.9111 18.0506 83.5801 17.6442 83.5801Z" fill="#32A1DF"/>
<path d="M26.0958 85.0545C26.5036 85.0545 26.8342 84.7249 26.8342 84.3183C26.8342 83.9117 26.5036 83.582 26.0958 83.582C25.688 83.582 25.3574 83.9117 25.3574 84.3183C25.3574 84.7249 25.688 85.0545 26.0958 85.0545Z" fill="#32A1DF"/>
<path d="M34.547 85.0545C34.9548 85.0545 35.2854 84.7249 35.2854 84.3183C35.2854 83.9117 34.9548 83.582 34.547 83.582C34.1392 83.582 33.8086 83.9117 33.8086 84.3183C33.8086 84.7249 34.1392 85.0545 34.547 85.0545Z" fill="#32A1DF"/>
<path d="M42.9986 83.5801C42.5922 83.5801 42.2603 83.9111 42.2603 84.3163C42.2603 84.7215 42.5922 85.0525 42.9986 85.0525C43.4051 85.0525 43.737 84.7215 43.737 84.3163C43.737 83.9111 43.4051 83.5801 42.9986 83.5801Z" fill="#32A1DF"/>
<path d="M51.4498 85.0545C51.8576 85.0545 52.1882 84.7249 52.1882 84.3183C52.1882 83.9117 51.8576 83.582 51.4498 83.582C51.042 83.582 50.7114 83.9117 50.7114 84.3183C50.7114 84.7249 51.042 85.0545 51.4498 85.0545Z" fill="#32A1DF"/>
<path d="M59.9044 85.0545C60.3122 85.0545 60.6428 84.7249 60.6428 84.3183C60.6428 83.9117 60.3122 83.582 59.9044 83.582C59.4966 83.582 59.166 83.9117 59.166 84.3183C59.166 84.7249 59.4966 85.0545 59.9044 85.0545Z" fill="#32A1DF"/>
<path d="M68.3556 83.5801C67.9492 83.5801 67.6172 83.9111 67.6172 84.3163C67.6172 84.7215 67.9492 85.0525 68.3556 85.0525C68.762 85.0525 69.094 84.7215 69.094 84.3163C69.094 83.9111 68.762 83.5801 68.3556 83.5801Z" fill="#32A1DF"/>
<path d="M76.8072 85.0545C77.215 85.0545 77.5456 84.7249 77.5456 84.3183C77.5456 83.9117 77.215 83.582 76.8072 83.582C76.3994 83.582 76.0688 83.9117 76.0688 84.3183C76.0688 84.7249 76.3994 85.0545 76.8072 85.0545Z" fill="#32A1DF"/>
<path d="M85.2589 85.0545C85.6667 85.0545 85.9973 84.7249 85.9973 84.3183C85.9973 83.9117 85.6667 83.582 85.2589 83.582C84.8511 83.582 84.5205 83.9117 84.5205 84.3183C84.5205 84.7249 84.8511 85.0545 85.2589 85.0545Z" fill="#32A1DF"/>
</g>
<defs>
<clipPath id="clip0_314_3883">
<rect width="86" height="85.0549" fill="white"/>
</clipPath>
</defs>
</svg>
