<svg width="57" height="56" viewBox="0 0 57 56" fill="none" xmlns="http://www.w3.org/2000/svg">
<path d="M44.1707 55.5H0.5V0.5H55.5559V44.1261L44.1707 55.5Z" stroke="#32A1DF"/>
<g clip-path="url(#clip0_398_3552)">
<path d="M37 25.4216C37 20.5992 32.9735 16.6796 27.9943 16.6796C23.0151 16.6796 19 20.5882 19 25.4216C19 30.255 23.0265 34.1636 28.0057 34.1636V39.6796L34.913 31.0257C34.9698 30.9596 35.0265 30.8826 35.0832 30.8055L35.1626 30.7064C36.3081 29.2421 37 27.4144 37 25.4216ZM27.9943 28.1301C26.5539 28.1301 25.3856 26.996 25.3856 25.5977C25.3856 24.1995 26.5539 23.0654 27.9943 23.0654C29.4348 23.0654 30.603 24.1995 30.603 25.5977C30.603 26.996 29.4348 28.1301 27.9943 28.1301Z" stroke="#32A1DF" stroke-width="1.25" stroke-linecap="round" stroke-linejoin="round"/>
</g>
<defs>
<clipPath id="clip0_398_3552">
<rect width="24" height="24" fill="white" transform="translate(16 15.6796)"/>
</clipPath>
</defs>
</svg>
