<svg width="808" height="18" viewBox="0 0 808 18" fill="none" xmlns="http://www.w3.org/2000/svg">
<g opacity="0.2" clip-path="url(#clip0_342_6021)">
<path d="M808.09 1.65009C808.09 0.790088 807.39 0.0900879 806.53 0.0900878C806.46 0.0900878 806.4 0.100088 806.33 0.110088L806.33 0.0900878C805.47 0.0900878 804.77 0.790088 804.77 1.65009C804.77 2.51009 805.47 3.21009 806.33 3.21009L806.33 3.19009C806.4 3.19009 806.46 3.21009 806.53 3.21009C807.39 3.21009 808.09 2.51009 808.09 1.65009ZM790.2 1.65009C790.2 0.790087 789.5 0.0900871 788.64 0.090087C788.57 0.090087 788.51 0.100087 788.44 0.110087L788.44 0.090087C787.58 0.090087 786.88 0.790087 786.88 1.65009C786.88 2.51009 787.58 3.21009 788.44 3.21009L788.44 3.19009C788.51 3.19009 788.57 3.21009 788.64 3.21009C789.5 3.21009 790.2 2.51009 790.2 1.65009ZM772.31 1.65009C772.31 0.790086 771.61 0.0900863 770.75 0.0900863C770.68 0.0900863 770.62 0.100086 770.55 0.110086L770.55 0.0900862C769.69 0.0900862 768.99 0.790086 768.99 1.65009C768.99 2.51009 769.69 3.21009 770.55 3.21009L770.55 3.19009C770.62 3.19009 770.68 3.21009 770.75 3.21009C771.61 3.21009 772.31 2.51009 772.31 1.65009ZM754.42 1.65009C754.42 0.790085 753.72 0.0900855 752.86 0.0900855C752.79 0.0900855 752.73 0.100085 752.66 0.110085L752.66 0.0900855C751.8 0.0900854 751.1 0.790085 751.1 1.65009C751.1 2.51009 751.8 3.21009 752.66 3.21009L752.66 3.19009C752.73 3.19009 752.79 3.21009 752.86 3.21009C753.72 3.21009 754.42 2.51009 754.42 1.65009ZM736.53 1.65008C736.53 0.790085 735.83 0.0900847 734.97 0.0900847C734.9 0.0900847 734.84 0.100085 734.77 0.110085L734.77 0.0900847C733.91 0.0900846 733.21 0.790085 733.21 1.65008C733.21 2.51008 733.91 3.21008 734.77 3.21008L734.77 3.19008C734.84 3.19008 734.9 3.21008 734.97 3.21008C735.83 3.21008 736.53 2.51008 736.53 1.65008ZM718.64 1.65008C718.64 0.790084 717.94 0.090084 717.08 0.0900839C717.01 0.0900839 716.95 0.100084 716.88 0.110084L716.88 0.0900839C716.02 0.0900839 715.32 0.790084 715.32 1.65008C715.32 2.51008 716.02 3.21008 716.88 3.21008L716.88 3.19008C716.95 3.19008 717.01 3.21008 717.08 3.21008C717.94 3.21008 718.64 2.51008 718.64 1.65008ZM700.75 1.65008C700.75 0.790083 700.05 0.0900832 699.19 0.0900831C699.12 0.0900831 699.06 0.100083 698.99 0.110083L698.99 0.0900831C698.13 0.0900831 697.43 0.790083 697.43 1.65008C697.43 2.51008 698.13 3.21008 698.99 3.21008L698.99 3.19008C699.06 3.19008 699.12 3.21008 699.19 3.21008C700.05 3.21008 700.75 2.51008 700.75 1.65008ZM682.86 1.65008C682.86 0.790082 682.16 0.0900824 681.3 0.0900823C681.23 0.0900823 681.17 0.100082 681.1 0.110082L681.1 0.0900823C680.24 0.0900823 679.54 0.790082 679.54 1.65008C679.54 2.51008 680.24 3.21008 681.1 3.21008L681.1 3.19008C681.17 3.19008 681.23 3.21008 681.3 3.21008C682.16 3.21008 682.86 2.51008 682.86 1.65008ZM664.97 1.65008C664.97 0.790082 664.27 0.0900816 663.41 0.0900816C663.34 0.0900816 663.28 0.100082 663.21 0.110082L663.21 0.0900816C662.35 0.0900815 661.65 0.790081 661.65 1.65008C661.65 2.51008 662.35 3.21008 663.21 3.21008L663.21 3.19008C663.28 3.19008 663.34 3.21008 663.41 3.21008C664.27 3.21008 664.97 2.51008 664.97 1.65008ZM647.08 1.65008C647.08 0.790081 646.38 0.0900808 645.52 0.0900808C645.45 0.0900808 645.39 0.100081 645.32 0.110081L645.32 0.0900808C644.46 0.0900807 643.76 0.790081 643.76 1.65008C643.76 2.51008 644.46 3.21008 645.32 3.21008L645.32 3.19008C645.39 3.19008 645.45 3.21008 645.52 3.21008C646.38 3.21008 647.08 2.51008 647.08 1.65008ZM629.19 1.65008C629.19 0.79008 628.49 0.09008 627.63 0.09008C627.56 0.09008 627.5 0.10008 627.43 0.11008L627.43 0.09008C626.57 0.09008 625.87 0.79008 625.87 1.65008C625.87 2.51008 626.57 3.21008 627.43 3.21008L627.43 3.19008C627.5 3.19008 627.56 3.21008 627.63 3.21008C628.49 3.21008 629.19 2.51008 629.19 1.65008ZM611.3 1.65008C611.3 0.790079 610.6 0.0900793 609.74 0.0900792C609.67 0.0900792 609.61 0.100079 609.54 0.110079L609.54 0.0900792C608.68 0.0900792 607.98 0.790079 607.98 1.65008C607.98 2.51008 608.68 3.21008 609.54 3.21008L609.54 3.19008C609.61 3.19008 609.67 3.21008 609.74 3.21008C610.6 3.21008 611.3 2.51008 611.3 1.65008ZM593.41 1.65008C593.41 0.790078 592.71 0.0900785 591.85 0.0900784C591.78 0.0900784 591.72 0.100078 591.65 0.110078L591.65 0.0900784C590.79 0.0900784 590.09 0.790078 590.09 1.65008C590.09 2.51008 590.79 3.21008 591.65 3.21008L591.65 3.19008C591.72 3.19008 591.78 3.21008 591.85 3.21008C592.71 3.21008 593.41 2.51008 593.41 1.65008ZM575.52 1.65008C575.52 0.790078 574.82 0.0900777 573.96 0.0900777C573.89 0.0900777 573.83 0.100078 573.76 0.110078L573.76 0.0900776C572.9 0.0900776 572.2 0.790078 572.2 1.65008C572.2 2.51008 572.9 3.21008 573.76 3.21008L573.76 3.19008C573.83 3.19008 573.89 3.21008 573.96 3.21008C574.82 3.21008 575.52 2.51008 575.52 1.65008ZM557.63 1.65008C557.63 0.790077 556.93 0.0900769 556.07 0.0900769C556 0.0900769 555.94 0.100077 555.87 0.110077L555.87 0.0900769C555.01 0.0900768 554.31 0.790077 554.31 1.65008C554.31 2.51008 555.01 3.21008 555.87 3.21008L555.87 3.19008C555.94 3.19008 556 3.21008 556.07 3.21008C556.93 3.21008 557.63 2.51008 557.63 1.65008ZM539.74 1.65008C539.74 0.790076 539.04 0.0900761 538.18 0.0900761C538.11 0.0900761 538.05 0.100076 537.98 0.110076L537.98 0.0900761C537.12 0.090076 536.42 0.790076 536.42 1.65008C536.42 2.51008 537.12 3.21008 537.98 3.21008L537.98 3.19008C538.05 3.19008 538.11 3.21008 538.18 3.21008C539.04 3.21008 539.74 2.51008 539.74 1.65008ZM521.85 1.65008C521.85 0.790075 521.15 0.0900753 520.29 0.0900753C520.22 0.0900753 520.16 0.100075 520.09 0.110075L520.09 0.0900753C519.23 0.0900753 518.53 0.790075 518.53 1.65008C518.53 2.51008 519.23 3.21008 520.09 3.21008L520.09 3.19008C520.16 3.19008 520.22 3.21008 520.29 3.21008C521.15 3.21008 521.85 2.51008 521.85 1.65008ZM503.96 1.65007C503.96 0.790075 503.26 0.0900746 502.4 0.0900745C502.33 0.0900745 502.27 0.100075 502.2 0.110075L502.2 0.0900745C501.34 0.0900745 500.64 0.790074 500.64 1.65007C500.64 2.51007 501.34 3.21007 502.2 3.21007L502.2 3.19007C502.27 3.19007 502.33 3.21007 502.4 3.21007C503.26 3.21007 503.96 2.51007 503.96 1.65007ZM486.07 1.65007C486.07 0.790074 485.37 0.0900738 484.51 0.0900737C484.44 0.0900737 484.38 0.100074 484.31 0.110074L484.31 0.0900737C483.45 0.0900737 482.75 0.790074 482.75 1.65007C482.75 2.51007 483.45 3.21007 484.31 3.21007L484.31 3.19007C484.38 3.19007 484.44 3.21007 484.51 3.21007C485.37 3.21007 486.07 2.51007 486.07 1.65007ZM468.18 1.65007C468.18 0.790073 467.48 0.090073 466.62 0.090073C466.55 0.090073 466.49 0.100073 466.42 0.110073L466.42 0.090073C465.56 0.0900729 464.86 0.790073 464.86 1.65007C464.86 2.51007 465.56 3.21007 466.42 3.21007L466.42 3.19007C466.49 3.19007 466.55 3.21007 466.62 3.21007C467.48 3.21007 468.18 2.51007 468.18 1.65007ZM450.29 1.65007C450.29 0.790072 449.59 0.0900722 448.73 0.0900722C448.66 0.0900722 448.6 0.100072 448.53 0.110072L448.53 0.0900722C447.67 0.0900721 446.97 0.790072 446.97 1.65007C446.97 2.51007 447.67 3.21007 448.53 3.21007L448.53 3.19007C448.6 3.19007 448.66 3.21007 448.73 3.21007C449.59 3.21007 450.29 2.51007 450.29 1.65007ZM432.4 1.65007C432.4 0.790071 431.7 0.0900714 430.84 0.0900714C430.77 0.0900714 430.71 0.100071 430.64 0.110071L430.64 0.0900714C429.78 0.0900714 429.08 0.790071 429.08 1.65007C429.08 2.51007 429.78 3.21007 430.64 3.21007L430.64 3.19007C430.71 3.19007 430.77 3.21007 430.84 3.21007C431.7 3.21007 432.4 2.51007 432.4 1.65007ZM414.51 1.65007C414.51 0.790071 413.81 0.0900707 412.95 0.0900706C412.88 0.0900706 412.82 0.100071 412.75 0.110071L412.75 0.0900706C411.89 0.0900706 411.19 0.79007 411.19 1.65007C411.19 2.51007 411.89 3.21007 412.75 3.21007L412.75 3.19007C412.82 3.19007 412.88 3.21007 412.95 3.21007C413.81 3.21007 414.51 2.51007 414.51 1.65007ZM396.62 1.65007C396.62 0.79007 395.92 0.0900699 395.06 0.0900698C394.99 0.0900698 394.93 0.10007 394.86 0.11007L394.86 0.0900698C394 0.0900698 393.3 0.79007 393.3 1.65007C393.3 2.51007 394 3.21007 394.86 3.21007L394.86 3.19007C394.93 3.19007 394.99 3.21007 395.06 3.21007C395.92 3.21007 396.62 2.51007 396.62 1.65007ZM378.73 1.65007C378.73 0.790069 378.03 0.0900691 377.17 0.0900691C377.1 0.0900691 377.04 0.100069 376.97 0.110069L376.97 0.090069C376.11 0.090069 375.41 0.790069 375.41 1.65007C375.41 2.51007 376.11 3.21007 376.97 3.21007L376.97 3.19007C377.04 3.19007 377.1 3.21007 377.17 3.21007C378.03 3.21007 378.73 2.51007 378.73 1.65007ZM360.84 1.65007C360.84 0.790068 360.14 0.0900683 359.28 0.0900683C359.21 0.0900683 359.15 0.100068 359.08 0.110068L359.08 0.0900683C358.22 0.0900682 357.52 0.790068 357.52 1.65007C357.52 2.51007 358.22 3.21007 359.08 3.21007L359.08 3.19007C359.15 3.19007 359.21 3.21007 359.28 3.21007C360.14 3.21007 360.84 2.51007 360.84 1.65007ZM342.95 1.65007C342.95 0.790067 342.25 0.0900675 341.39 0.0900675C341.32 0.0900675 341.26 0.100067 341.19 0.110067L341.19 0.0900675C340.33 0.0900674 339.63 0.790067 339.63 1.65007C339.63 2.51007 340.33 3.21007 341.19 3.21007L341.19 3.19007C341.26 3.19007 341.32 3.21007 341.39 3.21007C342.25 3.21007 342.95 2.51007 342.95 1.65007ZM325.06 1.65007C325.06 0.790067 324.36 0.0900667 323.5 0.0900667C323.43 0.0900667 323.37 0.100067 323.3 0.110067L323.3 0.0900667C322.44 0.0900667 321.74 0.790067 321.74 1.65007C321.74 2.51007 322.44 3.21007 323.3 3.21007L323.3 3.19007C323.37 3.19007 323.43 3.21007 323.5 3.21007C324.36 3.21007 325.06 2.51007 325.06 1.65007ZM307.17 1.65007C307.17 0.790066 306.47 0.090066 305.61 0.0900659C305.54 0.0900659 305.48 0.100066 305.41 0.110066L305.41 0.0900659C304.55 0.0900659 303.85 0.790066 303.85 1.65007C303.85 2.51007 304.55 3.21007 305.41 3.21007L305.41 3.19007C305.48 3.19007 305.54 3.21007 305.61 3.21007C306.47 3.21007 307.17 2.51007 307.17 1.65007ZM289.28 1.65007C289.28 0.790065 288.58 0.0900652 287.72 0.0900651C287.65 0.0900651 287.59 0.100065 287.52 0.110065L287.52 0.0900651C286.66 0.0900651 285.96 0.790065 285.96 1.65007C285.96 2.51007 286.66 3.21006 287.52 3.21007L287.52 3.19007C287.59 3.19007 287.65 3.21007 287.72 3.21007C288.58 3.21007 289.28 2.51007 289.28 1.65007ZM271.39 1.65006C271.39 0.790064 270.69 0.0900644 269.83 0.0900644C269.76 0.0900644 269.7 0.100064 269.63 0.110064L269.63 0.0900644C268.77 0.0900643 268.07 0.790064 268.07 1.65006C268.07 2.51006 268.77 3.21006 269.63 3.21006L269.63 3.19006C269.7 3.19006 269.76 3.21006 269.83 3.21006C270.69 3.21006 271.39 2.51006 271.39 1.65006ZM253.5 1.65006C253.5 0.790064 252.8 0.0900636 251.94 0.0900636C251.87 0.0900636 251.81 0.100064 251.74 0.110064L251.74 0.0900636C250.88 0.0900635 250.18 0.790063 250.18 1.65006C250.18 2.51006 250.88 3.21006 251.74 3.21006L251.74 3.19006C251.81 3.19006 251.87 3.21006 251.94 3.21006C252.8 3.21006 253.5 2.51006 253.5 1.65006ZM235.61 1.65006C235.61 0.790063 234.91 0.0900628 234.05 0.0900628C233.98 0.0900628 233.92 0.100063 233.85 0.110063L233.85 0.0900628C232.99 0.0900628 232.29 0.790063 232.29 1.65006C232.29 2.51006 232.99 3.21006 233.85 3.21006L233.85 3.19006C233.92 3.19006 233.98 3.21006 234.05 3.21006C234.91 3.21006 235.61 2.51006 235.61 1.65006ZM217.72 1.65006C217.72 0.790062 217.02 0.0900621 216.16 0.090062C216.09 0.090062 216.03 0.100062 215.96 0.110062L215.96 0.090062C215.1 0.090062 214.4 0.790062 214.4 1.65006C214.4 2.51006 215.1 3.21006 215.96 3.21006L215.96 3.19006C216.03 3.19006 216.09 3.21006 216.16 3.21006C217.02 3.21006 217.72 2.51006 217.72 1.65006ZM199.83 1.65006C199.83 0.790061 199.13 0.0900613 198.27 0.0900612C198.2 0.0900612 198.14 0.100061 198.07 0.110061L198.07 0.0900612C197.21 0.0900612 196.51 0.790061 196.51 1.65006C196.51 2.51006 197.21 3.21006 198.07 3.21006L198.07 3.19006C198.14 3.19006 198.2 3.21006 198.27 3.21006C199.13 3.21006 199.83 2.51006 199.83 1.65006ZM181.94 1.65006C181.94 0.79006 181.24 0.0900605 180.38 0.0900605C180.31 0.0900604 180.25 0.10006 180.18 0.11006L180.18 0.0900604C179.32 0.0900604 178.62 0.79006 178.62 1.65006C178.62 2.51006 179.32 3.21006 180.18 3.21006L180.18 3.19006C180.25 3.19006 180.31 3.21006 180.38 3.21006C181.24 3.21006 181.94 2.51006 181.94 1.65006ZM164.05 1.65006C164.05 0.79006 163.35 0.0900597 162.49 0.0900597C162.42 0.0900597 162.36 0.10006 162.29 0.11006L162.29 0.0900597C161.43 0.0900596 160.73 0.79006 160.73 1.65006C160.73 2.51006 161.43 3.21006 162.29 3.21006L162.29 3.19006C162.36 3.19006 162.42 3.21006 162.49 3.21006C163.35 3.21006 164.05 2.51006 164.05 1.65006ZM146.16 1.65006C146.16 0.790059 145.46 0.0900589 144.6 0.0900589C144.53 0.0900589 144.47 0.100059 144.4 0.110059L144.4 0.0900589C143.54 0.0900588 142.84 0.790059 142.84 1.65006C142.84 2.51006 143.54 3.21006 144.4 3.21006L144.4 3.19006C144.47 3.19006 144.53 3.21006 144.6 3.21006C145.46 3.21006 146.16 2.51006 146.16 1.65006ZM128.27 1.65006C128.27 0.790058 127.57 0.0900581 126.71 0.0900581C126.64 0.0900581 126.58 0.100058 126.51 0.110058L126.51 0.0900581C125.65 0.0900581 124.95 0.790058 124.95 1.65006C124.95 2.51006 125.65 3.21006 126.51 3.21006L126.51 3.19006C126.58 3.19006 126.64 3.21006 126.71 3.21006C127.57 3.21006 128.27 2.51006 128.27 1.65006ZM110.38 1.65006C110.38 0.790057 109.68 0.0900574 108.82 0.0900573C108.75 0.0900573 108.69 0.100057 108.62 0.110057L108.62 0.0900573C107.76 0.0900573 107.06 0.790057 107.06 1.65006C107.06 2.51006 107.76 3.21006 108.62 3.21006L108.62 3.19006C108.69 3.19006 108.75 3.21006 108.82 3.21006C109.68 3.21006 110.38 2.51006 110.38 1.65006ZM92.4899 1.65006C92.4899 0.790057 91.7899 0.0900566 90.9299 0.0900565C90.8599 0.0900565 90.7999 0.100057 90.7299 0.110057L90.7299 0.0900565C89.8699 0.0900565 89.1699 0.790056 89.1699 1.65006C89.1699 2.51006 89.8699 3.21006 90.7299 3.21006L90.7299 3.19006C90.7999 3.19006 90.8599 3.21006 90.9299 3.21006C91.7899 3.21006 92.4899 2.51006 92.4899 1.65006ZM74.5999 1.65006C74.5999 0.790056 73.8999 0.0900558 73.0399 0.0900558C72.9699 0.0900558 72.9098 0.100056 72.8398 0.110056L72.8398 0.0900558C71.9798 0.0900557 71.2798 0.790056 71.2798 1.65006C71.2798 2.51006 71.9798 3.21006 72.8398 3.21006L72.8398 3.19006C72.9098 3.19006 72.9699 3.21006 73.0399 3.21006C73.8999 3.21006 74.5999 2.51006 74.5999 1.65006ZM56.7098 1.65005C56.7098 0.790055 56.0098 0.090055 55.1498 0.090055C55.0798 0.090055 55.0198 0.100055 54.9498 0.110055L54.9498 0.090055C54.0898 0.0900549 53.3898 0.790055 53.3898 1.65005C53.3898 2.51005 54.0898 3.21005 54.9498 3.21005L54.9498 3.19005C55.0198 3.19005 55.0798 3.21005 55.1498 3.21005C56.0098 3.21005 56.7098 2.51006 56.7098 1.65005ZM38.8198 1.65005C38.8198 0.790054 38.1198 0.0900542 37.2598 0.0900542C37.1898 0.0900542 37.1298 0.100054 37.0598 0.110054L37.0598 0.0900542C36.1998 0.0900542 35.4998 0.790054 35.4998 1.65005C35.4998 2.51005 36.1998 3.21005 37.0598 3.21005L37.0598 3.19005C37.1298 3.19005 37.1898 3.21005 37.2598 3.21005C38.1198 3.21005 38.8198 2.51005 38.8198 1.65005ZM20.9299 1.65005C20.9299 0.790053 20.2299 0.0900535 19.3699 0.0900534C19.2999 0.0900534 19.2399 0.100053 19.1699 0.110053L19.1699 0.0900534C18.3099 0.0900534 17.6099 0.790053 17.6099 1.65005C17.6099 2.51005 18.3099 3.21005 19.1699 3.21005L19.1699 3.19005C19.2399 3.19005 19.2999 3.21005 19.3699 3.21005C20.2299 3.21005 20.9299 2.51005 20.9299 1.65005ZM3.03986 1.65005C3.03986 0.790053 2.33986 0.0900527 1.47986 0.0900526C1.40986 0.0900526 1.34985 0.100053 1.27985 0.110053L1.27985 0.0900526C0.419846 0.0900526 -0.280151 0.790052 -0.280151 1.65005C-0.280151 2.51005 0.419846 3.21005 1.27985 3.21005L1.27985 3.19005C1.34985 3.19005 1.40986 3.21005 1.47986 3.21005C2.33986 3.21005 3.03986 2.51005 3.03986 1.65005Z" fill="url(#paint0_linear_342_6021)"/>
</g>
<defs>
<linearGradient id="paint0_linear_342_6021" x1="808.09" y1="404.09" x2="-0.280169" y2="404.09" gradientUnits="userSpaceOnUse">
<stop stop-color="#32A1DF"/>
<stop offset="1" stop-color="#32A1DF" stop-opacity="0"/>
</linearGradient>
<clipPath id="clip0_342_6021">
<rect width="18" height="808" fill="white" transform="translate(808) rotate(90)"/>
</clipPath>
</defs>
</svg>
