<svg width="180" height="18" viewBox="0 0 180 18" fill="none" xmlns="http://www.w3.org/2000/svg">
<g clip-path="url(#clip0_328_3085)">
<path d="M138.37 15.1677L128.325 0H125.002L136.354 17.1429H140.397L151.739 0H148.406L138.361 15.1677H138.37ZM115.288 0L103.936 17.1429H107.269L117.305 1.98447L127.35 17.1429H130.683L119.321 0H115.288ZM154.892 17.1335H180V14.3944H157.685V9.95031H180V7.21118H154.892V17.1522V17.1335ZM75.6848 17.1335H100.803V14.3944H78.4873V9.95031H100.803V7.21118H75.6848V17.1522V17.1335ZM16.3981 0H0V2.73913H16.3981C19.6644 2.73913 22.3154 5.34783 22.3154 8.56211C22.3154 11.7764 19.6644 14.3851 16.3981 14.3851H0V17.1242H16.3981C21.1982 17.1242 25.0989 13.2857 25.0989 8.56211C25.0989 3.83851 21.2077 0 16.3981 0ZM180 0H154.892V2.73913H180V0ZM100.793 0H75.6754V2.73913H100.793V0ZM32.6257 17.1429V0H29.8422V17.1429H32.6257ZM64.7118 17.1429H61.6348L55.0831 3.26087L48.5315 17.1429H45.4544L37.3596 0H40.4366L46.9882 13.882L53.5399 0H56.6169L63.1685 13.882L69.7296 0H72.8066L64.7118 17.1335V17.1429Z" fill="white"/>
</g>
<defs>
<clipPath id="clip0_328_3085">
<rect width="180" height="17.1429" fill="white"/>
</clipPath>
</defs>
</svg>
