<svg width="210" height="20" viewBox="0 0 210 20" fill="none" xmlns="http://www.w3.org/2000/svg">
<g clip-path="url(#clip0_229_2543)">
<path d="M161.432 17.6958L149.713 0.000183105H145.836L159.08 20.0002H163.796L177.029 0.000183105H173.141L161.421 17.6958H161.432ZM134.503 0.000183105L121.259 20.0002H125.147L136.856 2.3154L148.575 20.0002H152.463L139.208 0.000183105H134.503ZM180.707 19.9893H210V16.7937H183.965V11.6089H210V8.41323H180.707V20.0111V19.9893ZM88.299 19.9893H117.603V16.7937H91.5685V11.6089H117.603V8.41323H88.299V20.0111V19.9893ZM19.1311 0.000183105H0V3.19584H19.1311C22.9418 3.19584 26.0346 6.23931 26.0346 9.98931C26.0346 13.7393 22.9418 16.7828 19.1311 16.7828H0V19.9784H19.1311C24.7312 19.9784 29.282 15.5002 29.282 9.98931C29.282 4.47844 24.7423 0.000183105 19.1311 0.000183105ZM210 0.000183105H180.707V3.19584H210V0.000183105ZM117.592 0.000183105H88.2879V3.19584H117.592V0.000183105ZM38.0633 20.0002V0.000183105H34.8159V20.0002H38.0633ZM75.4971 20.0002H71.9072L64.2636 3.80453L56.62 20.0002H53.0302L43.5862 0.000183105H47.176L54.8196 16.1958L62.4632 0.000183105H66.053L73.6966 16.1958L81.3513 0.000183105H84.9411L75.4971 19.9893V20.0002Z" fill="#32A1DF"/>
</g>
<defs>
<clipPath id="clip0_229_2543">
<rect width="210" height="20" fill="white"/>
</clipPath>
</defs>
</svg>
