<svg width="87" height="86" viewBox="0 0 87 86" fill="none" xmlns="http://www.w3.org/2000/svg">
<g clip-path="url(#clip0_274_3380)">
<path d="M0.74698 18.3912C1.15953 18.3912 1.49396 18.0579 1.49396 17.6468C1.49396 17.2356 1.15953 16.9023 0.74698 16.9023C0.334434 16.9023 0 17.2356 0 17.6468C0 18.0579 0.334434 18.3912 0.74698 18.3912Z" fill="white"/>
<path d="M17.8495 0C17.4384 0 17.1025 0.334698 17.1025 0.744414C17.1025 1.15413 17.4384 1.48883 17.8495 1.48883C18.2606 1.48883 18.5965 1.15413 18.5965 0.744414C18.5965 0.334698 18.2606 0 17.8495 0Z" fill="white"/>
<path d="M9.29971 18.3912C9.71226 18.3912 10.0467 18.0579 10.0467 17.6468C10.0467 17.2356 9.71226 16.9023 9.29971 16.9023C8.88717 16.9023 8.55273 17.2356 8.55273 17.6468C8.55273 18.0579 8.88717 18.3912 9.29971 18.3912Z" fill="white"/>
<path d="M17.8495 16.9023C17.4384 16.9023 17.1025 17.237 17.1025 17.6468C17.1025 18.0565 17.4384 18.3912 17.8495 18.3912C18.2606 18.3912 18.5965 18.0565 18.5965 17.6468C18.5965 17.237 18.2606 16.9023 17.8495 16.9023Z" fill="white"/>
<path d="M17.8495 8.45117C17.4384 8.45117 17.1025 8.78587 17.1025 9.19559C17.1025 9.6053 17.4384 9.94 17.8495 9.94C18.2606 9.94 18.5965 9.6053 18.5965 9.19559C18.5965 8.78587 18.2606 8.45117 17.8495 8.45117Z" fill="white"/>
<path d="M26.3993 9.94C26.8119 9.94 27.1463 9.60671 27.1463 9.19559C27.1463 8.78446 26.8119 8.45117 26.3993 8.45117C25.9868 8.45117 25.6523 8.78446 25.6523 9.19559C25.6523 9.60671 25.9868 9.94 26.3993 9.94Z" fill="white"/>
<path d="M34.9486 9.94C35.3612 9.94 35.6956 9.60671 35.6956 9.19559C35.6956 8.78446 35.3612 8.45117 34.9486 8.45117C34.5361 8.45117 34.2017 8.78446 34.2017 9.19559C34.2017 9.60671 34.5361 9.94 34.9486 9.94Z" fill="white"/>
<path d="M43.4984 8.45117C43.0873 8.45117 42.7515 8.78587 42.7515 9.19559C42.7515 9.6053 43.0873 9.94 43.4984 9.94C43.9096 9.94 44.2454 9.6053 44.2454 9.19559C44.2454 8.78587 43.9096 8.45117 43.4984 8.45117Z" fill="white"/>
<path d="M52.0483 9.94C52.4608 9.94 52.7952 9.60671 52.7952 9.19559C52.7952 8.78446 52.4608 8.45117 52.0483 8.45117C51.6357 8.45117 51.3013 8.78446 51.3013 9.19559C51.3013 9.60671 51.6357 9.94 52.0483 9.94Z" fill="white"/>
<path d="M60.601 9.94C61.0135 9.94 61.348 9.60671 61.348 9.19559C61.348 8.78446 61.0135 8.45117 60.601 8.45117C60.1884 8.45117 59.854 8.78446 59.854 9.19559C59.854 9.60671 60.1884 9.94 60.601 9.94Z" fill="white"/>
<path d="M69.1508 8.45117C68.7397 8.45117 68.4038 8.78587 68.4038 9.19559C68.4038 9.6053 68.7397 9.94 69.1508 9.94C69.5619 9.94 69.8978 9.6053 69.8978 9.19559C69.8978 8.78587 69.5619 8.45117 69.1508 8.45117Z" fill="white"/>
<path d="M77.7006 9.94C78.1131 9.94 78.4476 9.60671 78.4476 9.19559C78.4476 8.78446 78.1131 8.45117 77.7006 8.45117C77.288 8.45117 76.9536 8.78446 76.9536 9.19559C76.9536 9.60671 77.288 9.94 77.7006 9.94Z" fill="white"/>
<path d="M86.2499 9.94C86.6625 9.94 86.9969 9.60671 86.9969 9.19559C86.9969 8.78446 86.6625 8.45117 86.2499 8.45117C85.8374 8.45117 85.5029 8.78446 85.5029 9.19559C85.5029 9.60671 85.8374 9.94 86.2499 9.94Z" fill="white"/>
<path d="M26.3993 1.48883C26.8119 1.48883 27.1463 1.15554 27.1463 0.744414C27.1463 0.333285 26.8119 0 26.3993 0C25.9868 0 25.6523 0.333285 25.6523 0.744414C25.6523 1.15554 25.9868 1.48883 26.3993 1.48883Z" fill="white"/>
<path d="M34.9486 1.48883C35.3612 1.48883 35.6956 1.15554 35.6956 0.744414C35.6956 0.333285 35.3612 0 34.9486 0C34.5361 0 34.2017 0.333285 34.2017 0.744414C34.2017 1.15554 34.5361 1.48883 34.9486 1.48883Z" fill="white"/>
<path d="M43.4984 0C43.0873 0 42.7515 0.334698 42.7515 0.744414C42.7515 1.15413 43.0873 1.48883 43.4984 1.48883C43.9096 1.48883 44.2454 1.15413 44.2454 0.744414C44.2454 0.334698 43.9096 0 43.4984 0Z" fill="white"/>
<path d="M52.0483 1.48883C52.4608 1.48883 52.7952 1.15554 52.7952 0.744414C52.7952 0.333285 52.4608 0 52.0483 0C51.6357 0 51.3013 0.333285 51.3013 0.744414C51.3013 1.15554 51.6357 1.48883 52.0483 1.48883Z" fill="white"/>
<path d="M60.601 1.48883C61.0135 1.48883 61.348 1.15554 61.348 0.744414C61.348 0.333285 61.0135 0 60.601 0C60.1884 0 59.854 0.333285 59.854 0.744414C59.854 1.15554 60.1884 1.48883 60.601 1.48883Z" fill="white"/>
<path d="M69.1508 0C68.7397 0 68.4038 0.334698 68.4038 0.744414C68.4038 1.15413 68.7397 1.48883 69.1508 1.48883C69.5619 1.48883 69.8978 1.15413 69.8978 0.744414C69.8978 0.334698 69.5619 0 69.1508 0Z" fill="white"/>
<path d="M77.7006 1.48883C78.1131 1.48883 78.4476 1.15554 78.4476 0.744414C78.4476 0.333285 78.1131 0 77.7006 0C77.288 0 76.9536 0.333285 76.9536 0.744414C76.9536 1.15554 77.288 1.48883 77.7006 1.48883Z" fill="white"/>
<path d="M86.2499 1.48883C86.6625 1.48883 86.9969 1.15554 86.9969 0.744414C86.9969 0.333285 86.6625 0 86.2499 0C85.8374 0 85.5029 0.333285 85.5029 0.744414C85.5029 1.15554 85.8374 1.48883 86.2499 1.48883Z" fill="white"/>
<path d="M9.29971 9.94C9.71226 9.94 10.0467 9.60671 10.0467 9.19559C10.0467 8.78446 9.71226 8.45117 9.29971 8.45117C8.88717 8.45117 8.55273 8.78446 8.55273 9.19559C8.55273 9.60671 8.88717 9.94 9.29971 9.94Z" fill="white"/>
<path d="M26.3993 18.3912C26.8119 18.3912 27.1463 18.0579 27.1463 17.6468C27.1463 17.2356 26.8119 16.9023 26.3993 16.9023C25.9868 16.9023 25.6523 17.2356 25.6523 17.6468C25.6523 18.0579 25.9868 18.3912 26.3993 18.3912Z" fill="white"/>
<path d="M34.9486 18.3912C35.3612 18.3912 35.6956 18.0579 35.6956 17.6468C35.6956 17.2356 35.3612 16.9023 34.9486 16.9023C34.5361 16.9023 34.2017 17.2356 34.2017 17.6468C34.2017 18.0579 34.5361 18.3912 34.9486 18.3912Z" fill="white"/>
<path d="M43.4984 16.9023C43.0873 16.9023 42.7515 17.237 42.7515 17.6468C42.7515 18.0565 43.0873 18.3912 43.4984 18.3912C43.9096 18.3912 44.2454 18.0565 44.2454 17.6468C44.2454 17.237 43.9096 16.9023 43.4984 16.9023Z" fill="white"/>
<path d="M52.0483 18.3912C52.4608 18.3912 52.7952 18.0579 52.7952 17.6468C52.7952 17.2356 52.4608 16.9023 52.0483 16.9023C51.6357 16.9023 51.3013 17.2356 51.3013 17.6468C51.3013 18.0579 51.6357 18.3912 52.0483 18.3912Z" fill="white"/>
<path d="M60.601 18.3912C61.0135 18.3912 61.348 18.0579 61.348 17.6468C61.348 17.2356 61.0135 16.9023 60.601 16.9023C60.1884 16.9023 59.854 17.2356 59.854 17.6468C59.854 18.0579 60.1884 18.3912 60.601 18.3912Z" fill="white"/>
<path d="M69.1508 16.9023C68.7397 16.9023 68.4038 17.237 68.4038 17.6468C68.4038 18.0565 68.7397 18.3912 69.1508 18.3912C69.5619 18.3912 69.8978 18.0565 69.8978 17.6468C69.8978 17.237 69.5619 16.9023 69.1508 16.9023Z" fill="white"/>
<path d="M77.7006 18.3912C78.1131 18.3912 78.4476 18.0579 78.4476 17.6468C78.4476 17.2356 78.1131 16.9023 77.7006 16.9023C77.288 16.9023 76.9536 17.2356 76.9536 17.6468C76.9536 18.0579 77.288 18.3912 77.7006 18.3912Z" fill="white"/>
<path d="M86.2499 18.3912C86.6625 18.3912 86.9969 18.0579 86.9969 17.6468C86.9969 17.2356 86.6625 16.9023 86.2499 16.9023C85.8374 16.9023 85.5029 17.2356 85.5029 17.6468C85.5029 18.0579 85.8374 18.3912 86.2499 18.3912Z" fill="white"/>
<path d="M0.74698 26.8423C1.15953 26.8423 1.49396 26.5091 1.49396 26.0979C1.49396 25.6868 1.15953 25.3535 0.74698 25.3535C0.334434 25.3535 0 25.6868 0 26.0979C0 26.5091 0.334434 26.8423 0.74698 26.8423Z" fill="white"/>
<path d="M9.29971 26.8423C9.71226 26.8423 10.0467 26.5091 10.0467 26.0979C10.0467 25.6868 9.71226 25.3535 9.29971 25.3535C8.88717 25.3535 8.55273 25.6868 8.55273 26.0979C8.55273 26.5091 8.88717 26.8423 9.29971 26.8423Z" fill="white"/>
<path d="M17.8495 25.3535C17.4384 25.3535 17.1025 25.6882 17.1025 26.0979C17.1025 26.5076 17.4384 26.8423 17.8495 26.8423C18.2606 26.8423 18.5965 26.5076 18.5965 26.0979C18.5965 25.6882 18.2606 25.3535 17.8495 25.3535Z" fill="white"/>
<path d="M26.3993 26.8423C26.8119 26.8423 27.1463 26.5091 27.1463 26.0979C27.1463 25.6868 26.8119 25.3535 26.3993 25.3535C25.9868 25.3535 25.6523 25.6868 25.6523 26.0979C25.6523 26.5091 25.9868 26.8423 26.3993 26.8423Z" fill="white"/>
<path d="M34.9486 26.8423C35.3612 26.8423 35.6956 26.5091 35.6956 26.0979C35.6956 25.6868 35.3612 25.3535 34.9486 25.3535C34.5361 25.3535 34.2017 25.6868 34.2017 26.0979C34.2017 26.5091 34.5361 26.8423 34.9486 26.8423Z" fill="white"/>
<path d="M43.4984 25.3535C43.0873 25.3535 42.7515 25.6882 42.7515 26.0979C42.7515 26.5076 43.0873 26.8423 43.4984 26.8423C43.9096 26.8423 44.2454 26.5076 44.2454 26.0979C44.2454 25.6882 43.9096 25.3535 43.4984 25.3535Z" fill="white"/>
<path d="M52.0483 26.8423C52.4608 26.8423 52.7952 26.5091 52.7952 26.0979C52.7952 25.6868 52.4608 25.3535 52.0483 25.3535C51.6357 25.3535 51.3013 25.6868 51.3013 26.0979C51.3013 26.5091 51.6357 26.8423 52.0483 26.8423Z" fill="white"/>
<path d="M60.601 26.8423C61.0135 26.8423 61.348 26.5091 61.348 26.0979C61.348 25.6868 61.0135 25.3535 60.601 25.3535C60.1884 25.3535 59.854 25.6868 59.854 26.0979C59.854 26.5091 60.1884 26.8423 60.601 26.8423Z" fill="white"/>
<path d="M69.1508 25.3535C68.7397 25.3535 68.4038 25.6882 68.4038 26.0979C68.4038 26.5076 68.7397 26.8423 69.1508 26.8423C69.5619 26.8423 69.8978 26.5076 69.8978 26.0979C69.8978 25.6882 69.5619 25.3535 69.1508 25.3535Z" fill="white"/>
<path d="M77.7006 26.8423C78.1131 26.8423 78.4476 26.5091 78.4476 26.0979C78.4476 25.6868 78.1131 25.3535 77.7006 25.3535C77.288 25.3535 76.9536 25.6868 76.9536 26.0979C76.9536 26.5091 77.288 26.8423 77.7006 26.8423Z" fill="white"/>
<path d="M86.2499 26.8423C86.6625 26.8423 86.9969 26.5091 86.9969 26.0979C86.9969 25.6868 86.6625 25.3535 86.2499 25.3535C85.8374 25.3535 85.5029 25.6868 85.5029 26.0979C85.5029 26.5091 85.8374 26.8423 86.2499 26.8423Z" fill="white"/>
<path d="M0.74698 35.2935C1.15953 35.2935 1.49396 34.9602 1.49396 34.5491C1.49396 34.138 1.15953 33.8047 0.74698 33.8047C0.334434 33.8047 0 34.138 0 34.5491C0 34.9602 0.334434 35.2935 0.74698 35.2935Z" fill="white"/>
<path d="M9.29971 35.2935C9.71226 35.2935 10.0467 34.9602 10.0467 34.5491C10.0467 34.138 9.71226 33.8047 9.29971 33.8047C8.88717 33.8047 8.55273 34.138 8.55273 34.5491C8.55273 34.9602 8.88717 35.2935 9.29971 35.2935Z" fill="white"/>
<path d="M17.8495 33.8047C17.4384 33.8047 17.1025 34.1394 17.1025 34.5491C17.1025 34.9588 17.4384 35.2935 17.8495 35.2935C18.2606 35.2935 18.5965 34.9588 18.5965 34.5491C18.5965 34.1394 18.2606 33.8047 17.8495 33.8047Z" fill="white"/>
<path d="M26.3993 35.2935C26.8119 35.2935 27.1463 34.9602 27.1463 34.5491C27.1463 34.138 26.8119 33.8047 26.3993 33.8047C25.9868 33.8047 25.6523 34.138 25.6523 34.5491C25.6523 34.9602 25.9868 35.2935 26.3993 35.2935Z" fill="white"/>
<path d="M34.9486 35.2935C35.3612 35.2935 35.6956 34.9602 35.6956 34.5491C35.6956 34.138 35.3612 33.8047 34.9486 33.8047C34.5361 33.8047 34.2017 34.138 34.2017 34.5491C34.2017 34.9602 34.5361 35.2935 34.9486 35.2935Z" fill="white"/>
<path d="M43.4984 33.8047C43.0873 33.8047 42.7515 34.1394 42.7515 34.5491C42.7515 34.9588 43.0873 35.2935 43.4984 35.2935C43.9096 35.2935 44.2454 34.9588 44.2454 34.5491C44.2454 34.1394 43.9096 33.8047 43.4984 33.8047Z" fill="white"/>
<path d="M52.0483 35.2935C52.4608 35.2935 52.7952 34.9602 52.7952 34.5491C52.7952 34.138 52.4608 33.8047 52.0483 33.8047C51.6357 33.8047 51.3013 34.138 51.3013 34.5491C51.3013 34.9602 51.6357 35.2935 52.0483 35.2935Z" fill="white"/>
<path d="M60.601 35.2935C61.0135 35.2935 61.348 34.9602 61.348 34.5491C61.348 34.138 61.0135 33.8047 60.601 33.8047C60.1884 33.8047 59.854 34.138 59.854 34.5491C59.854 34.9602 60.1884 35.2935 60.601 35.2935Z" fill="white"/>
<path d="M69.1508 33.8047C68.7397 33.8047 68.4038 34.1394 68.4038 34.5491C68.4038 34.9588 68.7397 35.2935 69.1508 35.2935C69.5619 35.2935 69.8978 34.9588 69.8978 34.5491C69.8978 34.1394 69.5619 33.8047 69.1508 33.8047Z" fill="white"/>
<path d="M77.7006 35.2935C78.1131 35.2935 78.4476 34.9602 78.4476 34.5491C78.4476 34.138 78.1131 33.8047 77.7006 33.8047C77.288 33.8047 76.9536 34.138 76.9536 34.5491C76.9536 34.9602 77.288 35.2935 77.7006 35.2935Z" fill="white"/>
<path d="M86.2499 35.2935C86.6625 35.2935 86.9969 34.9602 86.9969 34.5491C86.9969 34.138 86.6625 33.8047 86.2499 33.8047C85.8374 33.8047 85.5029 34.138 85.5029 34.5491C85.5029 34.9602 85.8374 35.2935 86.2499 35.2935Z" fill="white"/>
<path d="M0.74698 43.7447C1.15953 43.7447 1.49396 43.4114 1.49396 43.0003C1.49396 42.5891 1.15953 42.2559 0.74698 42.2559C0.334434 42.2559 0 42.5891 0 43.0003C0 43.4114 0.334434 43.7447 0.74698 43.7447Z" fill="white"/>
<path d="M9.29971 43.7447C9.71226 43.7447 10.0467 43.4114 10.0467 43.0003C10.0467 42.5891 9.71226 42.2559 9.29971 42.2559C8.88717 42.2559 8.55273 42.5891 8.55273 43.0003C8.55273 43.4114 8.88717 43.7447 9.29971 43.7447Z" fill="white"/>
<path d="M17.8495 42.2559C17.4384 42.2559 17.1025 42.5906 17.1025 43.0003C17.1025 43.41 17.4384 43.7447 17.8495 43.7447C18.2606 43.7447 18.5965 43.41 18.5965 43.0003C18.5965 42.5906 18.2606 42.2559 17.8495 42.2559Z" fill="white"/>
<path d="M26.3993 43.7447C26.8119 43.7447 27.1463 43.4114 27.1463 43.0003C27.1463 42.5891 26.8119 42.2559 26.3993 42.2559C25.9868 42.2559 25.6523 42.5891 25.6523 43.0003C25.6523 43.4114 25.9868 43.7447 26.3993 43.7447Z" fill="white"/>
<path d="M34.9486 43.7447C35.3612 43.7447 35.6956 43.4114 35.6956 43.0003C35.6956 42.5891 35.3612 42.2559 34.9486 42.2559C34.5361 42.2559 34.2017 42.5891 34.2017 43.0003C34.2017 43.4114 34.5361 43.7447 34.9486 43.7447Z" fill="white"/>
<path d="M43.4984 42.2559C43.0873 42.2559 42.7515 42.5906 42.7515 43.0003C42.7515 43.41 43.0873 43.7447 43.4984 43.7447C43.9096 43.7447 44.2454 43.41 44.2454 43.0003C44.2454 42.5906 43.9096 42.2559 43.4984 42.2559Z" fill="white"/>
<path d="M52.0483 43.7447C52.4608 43.7447 52.7952 43.4114 52.7952 43.0003C52.7952 42.5891 52.4608 42.2559 52.0483 42.2559C51.6357 42.2559 51.3013 42.5891 51.3013 43.0003C51.3013 43.4114 51.6357 43.7447 52.0483 43.7447Z" fill="white"/>
<path d="M60.601 43.7447C61.0135 43.7447 61.348 43.4114 61.348 43.0003C61.348 42.5891 61.0135 42.2559 60.601 42.2559C60.1884 42.2559 59.854 42.5891 59.854 43.0003C59.854 43.4114 60.1884 43.7447 60.601 43.7447Z" fill="white"/>
<path d="M69.1508 42.2559C68.7397 42.2559 68.4038 42.5906 68.4038 43.0003C68.4038 43.41 68.7397 43.7447 69.1508 43.7447C69.5619 43.7447 69.8978 43.41 69.8978 43.0003C69.8978 42.5906 69.5619 42.2559 69.1508 42.2559Z" fill="white"/>
<path d="M77.7006 43.7447C78.1131 43.7447 78.4476 43.4114 78.4476 43.0003C78.4476 42.5891 78.1131 42.2559 77.7006 42.2559C77.288 42.2559 76.9536 42.5891 76.9536 43.0003C76.9536 43.4114 77.288 43.7447 77.7006 43.7447Z" fill="white"/>
<path d="M86.2499 43.7447C86.6625 43.7447 86.9969 43.4114 86.9969 43.0003C86.9969 42.5891 86.6625 42.2559 86.2499 42.2559C85.8374 42.2559 85.5029 42.5891 85.5029 43.0003C85.5029 43.4114 85.8374 43.7447 86.2499 43.7447Z" fill="white"/>
<path d="M0.74698 52.1959C1.15953 52.1959 1.49396 51.8626 1.49396 51.4514C1.49396 51.0403 1.15953 50.707 0.74698 50.707C0.334434 50.707 0 51.0403 0 51.4514C0 51.8626 0.334434 52.1959 0.74698 52.1959Z" fill="white"/>
<path d="M9.29971 52.1959C9.71226 52.1959 10.0467 51.8626 10.0467 51.4514C10.0467 51.0403 9.71226 50.707 9.29971 50.707C8.88717 50.707 8.55273 51.0403 8.55273 51.4514C8.55273 51.8626 8.88717 52.1959 9.29971 52.1959Z" fill="white"/>
<path d="M17.8495 50.707C17.4384 50.707 17.1025 51.0417 17.1025 51.4514C17.1025 51.8612 17.4384 52.1959 17.8495 52.1959C18.2606 52.1959 18.5965 51.8612 18.5965 51.4514C18.5965 51.0417 18.2606 50.707 17.8495 50.707Z" fill="white"/>
<path d="M26.3993 52.1959C26.8119 52.1959 27.1463 51.8626 27.1463 51.4514C27.1463 51.0403 26.8119 50.707 26.3993 50.707C25.9868 50.707 25.6523 51.0403 25.6523 51.4514C25.6523 51.8626 25.9868 52.1959 26.3993 52.1959Z" fill="white"/>
<path d="M34.9486 52.1959C35.3612 52.1959 35.6956 51.8626 35.6956 51.4514C35.6956 51.0403 35.3612 50.707 34.9486 50.707C34.5361 50.707 34.2017 51.0403 34.2017 51.4514C34.2017 51.8626 34.5361 52.1959 34.9486 52.1959Z" fill="white"/>
<path d="M43.4984 50.707C43.0873 50.707 42.7515 51.0417 42.7515 51.4514C42.7515 51.8612 43.0873 52.1959 43.4984 52.1959C43.9096 52.1959 44.2454 51.8612 44.2454 51.4514C44.2454 51.0417 43.9096 50.707 43.4984 50.707Z" fill="white"/>
<path d="M52.0483 52.1959C52.4608 52.1959 52.7952 51.8626 52.7952 51.4514C52.7952 51.0403 52.4608 50.707 52.0483 50.707C51.6357 50.707 51.3013 51.0403 51.3013 51.4514C51.3013 51.8626 51.6357 52.1959 52.0483 52.1959Z" fill="white"/>
<path d="M60.601 52.1959C61.0135 52.1959 61.348 51.8626 61.348 51.4514C61.348 51.0403 61.0135 50.707 60.601 50.707C60.1884 50.707 59.854 51.0403 59.854 51.4514C59.854 51.8626 60.1884 52.1959 60.601 52.1959Z" fill="white"/>
<path d="M69.1508 50.707C68.7397 50.707 68.4038 51.0417 68.4038 51.4514C68.4038 51.8612 68.7397 52.1959 69.1508 52.1959C69.5619 52.1959 69.8978 51.8612 69.8978 51.4514C69.8978 51.0417 69.5619 50.707 69.1508 50.707Z" fill="white"/>
<path d="M77.7006 52.1959C78.1131 52.1959 78.4476 51.8626 78.4476 51.4514C78.4476 51.0403 78.1131 50.707 77.7006 50.707C77.288 50.707 76.9536 51.0403 76.9536 51.4514C76.9536 51.8626 77.288 52.1959 77.7006 52.1959Z" fill="white"/>
<path d="M86.2499 52.1959C86.6625 52.1959 86.9969 51.8626 86.9969 51.4514C86.9969 51.0403 86.6625 50.707 86.2499 50.707C85.8374 50.707 85.5029 51.0403 85.5029 51.4514C85.5029 51.8626 85.8374 52.1959 86.2499 52.1959Z" fill="white"/>
<path d="M0.74698 59.1582C0.335851 59.1582 0 59.4929 0 59.9026C0 60.3123 0.335851 60.647 0.74698 60.647C1.15811 60.647 1.49396 60.3123 1.49396 59.9026C1.49396 59.4929 1.15811 59.1582 0.74698 59.1582Z" fill="white"/>
<path d="M9.29971 59.1582C8.88859 59.1582 8.55273 59.4929 8.55273 59.9026C8.55273 60.3123 8.88859 60.647 9.29971 60.647C9.71084 60.647 10.0467 60.3123 10.0467 59.9026C10.0467 59.4929 9.71084 59.1582 9.29971 59.1582Z" fill="white"/>
<path d="M17.8495 59.1582C17.4384 59.1582 17.1025 59.4929 17.1025 59.9026C17.1025 60.3123 17.4384 60.647 17.8495 60.647C18.2606 60.647 18.5965 60.3123 18.5965 59.9026C18.5965 59.4929 18.2606 59.1582 17.8495 59.1582Z" fill="white"/>
<path d="M26.3993 59.1582C25.9882 59.1582 25.6523 59.4929 25.6523 59.9026C25.6523 60.3123 25.9882 60.647 26.3993 60.647C26.8105 60.647 27.1463 60.3123 27.1463 59.9026C27.1463 59.4929 26.8105 59.1582 26.3993 59.1582Z" fill="white"/>
<path d="M34.9486 59.1582C34.5375 59.1582 34.2017 59.4929 34.2017 59.9026C34.2017 60.3123 34.5375 60.647 34.9486 60.647C35.3598 60.647 35.6956 60.3123 35.6956 59.9026C35.6956 59.4929 35.3598 59.1582 34.9486 59.1582Z" fill="white"/>
<path d="M43.4984 59.1582C43.0873 59.1582 42.7515 59.4929 42.7515 59.9026C42.7515 60.3123 43.0873 60.647 43.4984 60.647C43.9096 60.647 44.2454 60.3123 44.2454 59.9026C44.2454 59.4929 43.9096 59.1582 43.4984 59.1582Z" fill="white"/>
<path d="M52.0483 59.1582C51.6371 59.1582 51.3013 59.4929 51.3013 59.9026C51.3013 60.3123 51.6371 60.647 52.0483 60.647C52.4594 60.647 52.7952 60.3123 52.7952 59.9026C52.7952 59.4929 52.4594 59.1582 52.0483 59.1582Z" fill="white"/>
<path d="M60.601 59.1582C60.1899 59.1582 59.854 59.4929 59.854 59.9026C59.854 60.3123 60.1899 60.647 60.601 60.647C61.0121 60.647 61.348 60.3123 61.348 59.9026C61.348 59.4929 61.0121 59.1582 60.601 59.1582Z" fill="white"/>
<path d="M69.1508 59.1582C68.7397 59.1582 68.4038 59.4929 68.4038 59.9026C68.4038 60.3123 68.7397 60.647 69.1508 60.647C69.5619 60.647 69.8978 60.3123 69.8978 59.9026C69.8978 59.4929 69.5619 59.1582 69.1508 59.1582Z" fill="white"/>
<path d="M77.7006 59.1582C77.2895 59.1582 76.9536 59.4929 76.9536 59.9026C76.9536 60.3123 77.2895 60.647 77.7006 60.647C78.1117 60.647 78.4476 60.3123 78.4476 59.9026C78.4476 59.4929 78.1117 59.1582 77.7006 59.1582Z" fill="white"/>
<path d="M86.2499 59.1582C85.8388 59.1582 85.5029 59.4929 85.5029 59.9026C85.5029 60.3123 85.8388 60.647 86.2499 60.647C86.661 60.647 86.9969 60.3123 86.9969 59.9026C86.9969 59.4929 86.661 59.1582 86.2499 59.1582Z" fill="white"/>
<path d="M0.74698 69.0982C1.15953 69.0982 1.49396 68.7649 1.49396 68.3538C1.49396 67.9427 1.15953 67.6094 0.74698 67.6094C0.334434 67.6094 0 67.9427 0 68.3538C0 68.7649 0.334434 69.0982 0.74698 69.0982Z" fill="white"/>
<path d="M9.29971 69.0982C9.71226 69.0982 10.0467 68.7649 10.0467 68.3538C10.0467 67.9427 9.71226 67.6094 9.29971 67.6094C8.88717 67.6094 8.55273 67.9427 8.55273 68.3538C8.55273 68.7649 8.88717 69.0982 9.29971 69.0982Z" fill="white"/>
<path d="M17.8495 67.6055C17.4384 67.6055 17.1025 67.9402 17.1025 68.3499C17.1025 68.7596 17.4384 69.0943 17.8495 69.0943C18.2606 69.0943 18.5965 68.7596 18.5965 68.3499C18.5965 67.9402 18.2606 67.6055 17.8495 67.6055Z" fill="white"/>
<path d="M26.3993 69.0982C26.8119 69.0982 27.1463 68.7649 27.1463 68.3538C27.1463 67.9427 26.8119 67.6094 26.3993 67.6094C25.9868 67.6094 25.6523 67.9427 25.6523 68.3538C25.6523 68.7649 25.9868 69.0982 26.3993 69.0982Z" fill="white"/>
<path d="M34.9491 69.0982C35.3617 69.0982 35.6961 68.7649 35.6961 68.3538C35.6961 67.9427 35.3617 67.6094 34.9491 67.6094C34.5366 67.6094 34.2021 67.9427 34.2021 68.3538C34.2021 68.7649 34.5366 69.0982 34.9491 69.0982Z" fill="white"/>
<path d="M43.4984 67.6055C43.0873 67.6055 42.7515 67.9402 42.7515 68.3499C42.7515 68.7596 43.0873 69.0943 43.4984 69.0943C43.9096 69.0943 44.2454 68.7596 44.2454 68.3499C44.2454 67.9402 43.9096 67.6055 43.4984 67.6055Z" fill="white"/>
<path d="M52.0483 69.0982C52.4608 69.0982 52.7952 68.7649 52.7952 68.3538C52.7952 67.9427 52.4608 67.6094 52.0483 67.6094C51.6357 67.6094 51.3013 67.9427 51.3013 68.3538C51.3013 68.7649 51.6357 69.0982 52.0483 69.0982Z" fill="white"/>
<path d="M60.601 69.0982C61.0135 69.0982 61.348 68.7649 61.348 68.3538C61.348 67.9427 61.0135 67.6094 60.601 67.6094C60.1884 67.6094 59.854 67.9427 59.854 68.3538C59.854 68.7649 60.1884 69.0982 60.601 69.0982Z" fill="white"/>
<path d="M69.1508 67.6055C68.7397 67.6055 68.4038 67.9402 68.4038 68.3499C68.4038 68.7596 68.7397 69.0943 69.1508 69.0943C69.5619 69.0943 69.8978 68.7596 69.8978 68.3499C69.8978 67.9402 69.5619 67.6055 69.1508 67.6055Z" fill="white"/>
<path d="M77.7001 69.0982C78.1126 69.0982 78.4471 68.7649 78.4471 68.3538C78.4471 67.9427 78.1126 67.6094 77.7001 67.6094C77.2876 67.6094 76.9531 67.9427 76.9531 68.3538C76.9531 68.7649 77.2876 69.0982 77.7001 69.0982Z" fill="white"/>
<path d="M86.2499 69.0982C86.6625 69.0982 86.9969 68.7649 86.9969 68.3538C86.9969 67.9427 86.6625 67.6094 86.2499 67.6094C85.8374 67.6094 85.5029 67.9427 85.5029 68.3538C85.5029 68.7649 85.8374 69.0982 86.2499 69.0982Z" fill="white"/>
<path d="M0.74698 77.5494C1.15953 77.5494 1.49396 77.2161 1.49396 76.805C1.49396 76.3938 1.15953 76.0605 0.74698 76.0605C0.334434 76.0605 0 76.3938 0 76.805C0 77.2161 0.334434 77.5494 0.74698 77.5494Z" fill="white"/>
<path d="M9.29971 77.5494C9.71226 77.5494 10.0467 77.2161 10.0467 76.805C10.0467 76.3938 9.71226 76.0605 9.29971 76.0605C8.88717 76.0605 8.55273 76.3938 8.55273 76.805C8.55273 77.2161 8.88717 77.5494 9.29971 77.5494Z" fill="white"/>
<path d="M17.8495 76.0566C17.4384 76.0566 17.1025 76.3913 17.1025 76.8011C17.1025 77.2108 17.4384 77.5455 17.8495 77.5455C18.2606 77.5455 18.5965 77.2108 18.5965 76.8011C18.5965 76.3913 18.2606 76.0566 17.8495 76.0566Z" fill="white"/>
<path d="M26.3993 77.5494C26.8119 77.5494 27.1463 77.2161 27.1463 76.805C27.1463 76.3938 26.8119 76.0605 26.3993 76.0605C25.9868 76.0605 25.6523 76.3938 25.6523 76.805C25.6523 77.2161 25.9868 77.5494 26.3993 77.5494Z" fill="white"/>
<path d="M34.9486 77.5494C35.3612 77.5494 35.6956 77.2161 35.6956 76.805C35.6956 76.3938 35.3612 76.0605 34.9486 76.0605C34.5361 76.0605 34.2017 76.3938 34.2017 76.805C34.2017 77.2161 34.5361 77.5494 34.9486 77.5494Z" fill="white"/>
<path d="M43.4984 76.0566C43.0873 76.0566 42.7515 76.3913 42.7515 76.8011C42.7515 77.2108 43.0873 77.5455 43.4984 77.5455C43.9096 77.5455 44.2454 77.2108 44.2454 76.8011C44.2454 76.3913 43.9096 76.0566 43.4984 76.0566Z" fill="white"/>
<path d="M52.0483 77.5494C52.4608 77.5494 52.7952 77.2161 52.7952 76.805C52.7952 76.3938 52.4608 76.0605 52.0483 76.0605C51.6357 76.0605 51.3013 76.3938 51.3013 76.805C51.3013 77.2161 51.6357 77.5494 52.0483 77.5494Z" fill="white"/>
<path d="M60.601 77.5494C61.0135 77.5494 61.348 77.2161 61.348 76.805C61.348 76.3938 61.0135 76.0605 60.601 76.0605C60.1884 76.0605 59.854 76.3938 59.854 76.805C59.854 77.2161 60.1884 77.5494 60.601 77.5494Z" fill="white"/>
<path d="M69.1508 76.0566C68.7397 76.0566 68.4038 76.3913 68.4038 76.8011C68.4038 77.2108 68.7397 77.5455 69.1508 77.5455C69.5619 77.5455 69.8978 77.2108 69.8978 76.8011C69.8978 76.3913 69.5619 76.0566 69.1508 76.0566Z" fill="white"/>
<path d="M77.7006 77.5494C78.1131 77.5494 78.4476 77.2161 78.4476 76.805C78.4476 76.3938 78.1131 76.0605 77.7006 76.0605C77.288 76.0605 76.9536 76.3938 76.9536 76.805C76.9536 77.2161 77.288 77.5494 77.7006 77.5494Z" fill="white"/>
<path d="M86.2499 77.5494C86.6625 77.5494 86.9969 77.2161 86.9969 76.805C86.9969 76.3938 86.6625 76.0605 86.2499 76.0605C85.8374 76.0605 85.5029 76.3938 85.5029 76.805C85.5029 77.2161 85.8374 77.5494 86.2499 77.5494Z" fill="white"/>
<path d="M0.74698 86.0005C1.15953 86.0005 1.49396 85.6673 1.49396 85.2561C1.49396 84.845 1.15953 84.5117 0.74698 84.5117C0.334434 84.5117 0 84.845 0 85.2561C0 85.6673 0.334434 86.0005 0.74698 86.0005Z" fill="white"/>
<path d="M9.29971 86.0005C9.71226 86.0005 10.0467 85.6673 10.0467 85.2561C10.0467 84.845 9.71226 84.5117 9.29971 84.5117C8.88717 84.5117 8.55273 84.845 8.55273 85.2561C8.55273 85.6673 8.88717 86.0005 9.29971 86.0005Z" fill="white"/>
<path d="M17.8495 84.5078C17.4384 84.5078 17.1025 84.8425 17.1025 85.2522C17.1025 85.6619 17.4384 85.9966 17.8495 85.9966C18.2606 85.9966 18.5965 85.6619 18.5965 85.2522C18.5965 84.8425 18.2606 84.5078 17.8495 84.5078Z" fill="white"/>
<path d="M26.3993 86.0005C26.8119 86.0005 27.1463 85.6673 27.1463 85.2561C27.1463 84.845 26.8119 84.5117 26.3993 84.5117C25.9868 84.5117 25.6523 84.845 25.6523 85.2561C25.6523 85.6673 25.9868 86.0005 26.3993 86.0005Z" fill="white"/>
<path d="M34.9486 86.0005C35.3612 86.0005 35.6956 85.6673 35.6956 85.2561C35.6956 84.845 35.3612 84.5117 34.9486 84.5117C34.5361 84.5117 34.2017 84.845 34.2017 85.2561C34.2017 85.6673 34.5361 86.0005 34.9486 86.0005Z" fill="white"/>
<path d="M43.4984 84.5078C43.0873 84.5078 42.7515 84.8425 42.7515 85.2522C42.7515 85.6619 43.0873 85.9966 43.4984 85.9966C43.9096 85.9966 44.2454 85.6619 44.2454 85.2522C44.2454 84.8425 43.9096 84.5078 43.4984 84.5078Z" fill="white"/>
<path d="M52.0483 86.0005C52.4608 86.0005 52.7952 85.6673 52.7952 85.2561C52.7952 84.845 52.4608 84.5117 52.0483 84.5117C51.6357 84.5117 51.3013 84.845 51.3013 85.2561C51.3013 85.6673 51.6357 86.0005 52.0483 86.0005Z" fill="white"/>
<path d="M60.601 86.0005C61.0135 86.0005 61.348 85.6673 61.348 85.2561C61.348 84.845 61.0135 84.5117 60.601 84.5117C60.1884 84.5117 59.854 84.845 59.854 85.2561C59.854 85.6673 60.1884 86.0005 60.601 86.0005Z" fill="white"/>
<path d="M69.1508 84.5078C68.7397 84.5078 68.4038 84.8425 68.4038 85.2522C68.4038 85.6619 68.7397 85.9966 69.1508 85.9966C69.5619 85.9966 69.8978 85.6619 69.8978 85.2522C69.8978 84.8425 69.5619 84.5078 69.1508 84.5078Z" fill="white"/>
<path d="M77.7006 86.0005C78.1131 86.0005 78.4476 85.6673 78.4476 85.2561C78.4476 84.845 78.1131 84.5117 77.7006 84.5117C77.288 84.5117 76.9536 84.845 76.9536 85.2561C76.9536 85.6673 77.288 86.0005 77.7006 86.0005Z" fill="white"/>
<path d="M86.2499 86.0005C86.6625 86.0005 86.9969 85.6673 86.9969 85.2561C86.9969 84.845 86.6625 84.5117 86.2499 84.5117C85.8374 84.5117 85.5029 84.845 85.5029 85.2561C85.5029 85.6673 85.8374 86.0005 86.2499 86.0005Z" fill="white"/>
</g>
<defs>
<clipPath id="clip0_274_3380">
<rect width="87" height="86" fill="white"/>
</clipPath>
</defs>
</svg>
