<svg width="270" height="180" fill="none" xmlns="http://www.w3.org/2000/svg"><g clip-path="url(#clip0_675_12552)"><path d="M19.9 154.9l5.2 5.2m0-5.2l-5.2 5.2m22.5-5.2l5.2 5.2m0-5.2l-5.2 5.2m22.5-5.2l5.2 5.2m0-5.2l-5.2 5.2m22.5-5.2l5.2 5.2m0-5.2l-5.2 5.2m22.5-5.2l5.2 5.2m0-5.2l-5.2 5.2m22.5-5.2l5.2 5.2m0-5.2l-5.2 5.2m22.5-5.2l5.2 5.2m0-5.2l-5.2 5.2m22.5-5.2l5.2 5.2m0-5.2l-5.2 5.2m22.5-5.2l5.2 5.2m0-5.2l-5.2 5.2m22.5-5.2l5.2 5.2m0-5.2l-5.2 5.2m22.5-5.2l5.2 5.2m0-5.2l-5.2 5.2m-225-27.7l5.2 5.2m0-5.2l-5.2 5.2m22.5-5.2l5.2 5.2m0-5.2l-5.2 5.2m22.5-5.2l5.2 5.2m0-5.2l-5.2 5.2m22.5-5.2l5.2 5.2m0-5.2l-5.2 5.2m22.5-5.2l5.2 5.2m0-5.2l-5.2 5.2m22.5-5.2l5.2 5.2m0-5.2l-5.2 5.2m22.5-5.2l5.2 5.2m0-5.2l-5.2 5.2m22.5-5.2l5.2 5.2m0-5.2l-5.2 5.2m22.5-5.2l5.2 5.2m0-5.2l-5.2 5.2m22.5-5.2l5.2 5.2m0-5.2l-5.2 5.2m22.5-5.2l5.2 5.2m0-5.2l-5.2 5.2m-225-27.7l5.2 5.2m0-5.2l-5.2 5.2m22.5-5.2l5.2 5.2m0-5.2l-5.2 5.2m22.5-5.2l5.2 5.2m0-5.2l-5.2 5.2m22.5-5.2l5.2 5.2m0-5.2l-5.2 5.2m22.5-5.2l5.2 5.2m0-5.2l-5.2 5.2m22.5-5.2l5.2 5.2m0-5.2l-5.2 5.2m22.5-5.2l5.2 5.2m0-5.2l-5.2 5.2m22.5-5.2l5.2 5.2m0-5.2l-5.2 5.2m22.5-5.2l5.2 5.2m0-5.2l-5.2 5.2m22.5-5.2l5.2 5.2m0-5.2l-5.2 5.2m22.5-5.2l5.2 5.2m0-5.2l-5.2 5.2m-225-27.7l5.2 5.2m0-5.2l-5.2 5.2m22.5-5.2l5.2 5.2m0-5.2l-5.2 5.2m22.5-5.2l5.2 5.2m0-5.2l-5.2 5.2m22.5-5.2l5.2 5.2m0-5.2l-5.2 5.2m22.5-5.2l5.2 5.2m0-5.2l-5.2 5.2m22.5-5.2l5.2 5.2m0-5.2l-5.2 5.2m22.5-5.2l5.2 5.2m0-5.2l-5.2 5.2m22.5-5.2l5.2 5.2m0-5.2l-5.2 5.2m22.5-5.2l5.2 5.2m0-5.2l-5.2 5.2m22.5-5.2l5.2 5.2m0-5.2l-5.2 5.2m22.5-5.2l5.2 5.2m0-5.2l-5.2 5.2m-225-27.7l5.2 5.2m0-5.2l-5.2 5.2m22.5-5.2l5.2 5.2m0-5.2l-5.2 5.2m22.5-5.2l5.2 5.2m0-5.2l-5.2 5.2m22.5-5.2l5.2 5.2m0-5.2l-5.2 5.2m22.5-5.2l5.2 5.2m0-5.2l-5.2 5.2m22.5-5.2l5.2 5.2m0-5.2l-5.2 5.2m22.5-5.2l5.2 5.2m0-5.2l-5.2 5.2m22.5-5.2l5.2 5.2m0-5.2l-5.2 5.2m22.5-5.2l5.2 5.2m0-5.2l-5.2 5.2m22.5-5.2l5.2 5.2m0-5.2l-5.2 5.2m22.5-5.2l5.2 5.2m0-5.2l-5.2 5.2m-225-27.7l5.2 5.2m0-5.2l-5.2 5.2m22.5-5.2l5.2 5.2m0-5.2l-5.2 5.2m22.5-5.2l5.2 5.2m0-5.2l-5.2 5.2m22.5-5.2l5.2 5.2m0-5.2l-5.2 5.2m22.5-5.2l5.2 5.2m0-5.2l-5.2 5.2m22.5-5.2l5.2 5.2m0-5.2l-5.2 5.2m22.5-5.2l5.2 5.2m0-5.2l-5.2 5.2m22.5-5.2l5.2 5.2m0-5.2l-5.2 5.2m22.5-5.2l5.2 5.2m0-5.2l-5.2 5.2m22.5-5.2l5.2 5.2m0-5.2l-5.2 5.2m22.5-5.2l5.2 5.2m0-5.2l-5.2 5.2M42.4 19.9l5.2 5.2m0-5.2l-5.2 5.2m22.5-5.2l5.2 5.2m0-5.2l-5.2 5.2m22.5-5.2l5.2 5.2m0-5.2l-5.2 5.2m22.5-5.2l5.2 5.2m0-5.2l-5.2 5.2m22.5-5.2l5.2 5.2m0-5.2l-5.2 5.2m22.5-5.2l5.2 5.2m0-5.2l-5.2 5.2m22.5-5.2l5.2 5.2m0-5.2l-5.2 5.2m22.5-5.2l5.2 5.2m0-5.2l-5.2 5.2m22.5-5.2l5.2 5.2m0-5.2l-5.2 5.2m22.5-5.2l5.2 5.2m0-5.2l-5.2 5.2" opacity=".5" stroke="#32A1DF" stroke-width=".5" stroke-miterlimit="10"/><path d="M.5 44.39L44.39.5H269.5v179H.5V44.39z" stroke="#32A1DF"/><path d="M142.1 88.82c-2.18-2.87-4.17-3.93-4.82-4.23-.56-1.38-4.02-9.81-7.29-16.37-1.38-2.78-3.02-5.56-4.85-8.31a.21.21 0 00-.04-.06 89.502 89.502 0 00-3.43-4.78s0-.01-.01-.02c-1.9-2.46-3.96-4.87-6.15-7.19-5.56-5.87-11.72-9.8-15.41-12.16l-.48-.31c-3.66-2.34-10.68-5.44-16.68-7.37-5.69-1.83-14.94-2.15-23.85 2.43-8.19 4.21-13.85 9.46-20.18 18.73-4.82 7.06-6.91 15.03-6.38 24.36.18 3.2.73 6.21 1.61 9.45 0 .02 0 .04.02.06.54 1.98 1.2 4.05 1.97 6.3 0 .02.01.03.02.05.61 1.76 1.28 3.63 2.02 5.67 2.85 7.79 5.82 12.36 8.7 16.79l.8 1.24c3.73 5.78 6.65 10.58 7.82 12.85 1.34 2.6 3.75 10.64 3.78 10.74l.06.17c1.37 3.78 3.81 7.53 6.89 10.57 5.52 5.46 12.96 8.43 19.47 8.43 2.98 0 5.77-.62 8.09-1.91h.02c.05-.02.33-.14.76-.35.05-.01.11-.03.21-.06.3.02 1.22.09 2.51.09 2.98 0 7.92-.34 11.74-2.31 5.82-2.99 6.99-7.53 7.16-8.31.71-.98 1.29-2.07 1.75-3.24.58.12 1.68.31 3.17.31 2.31 0 5.54-.45 9.08-2.27 2.01-1.03 3.57-2.13 4.83-3.3h.02c.05-.04 2.89-2.38 5.9-6.4.28-.21 6.76-5.36 8.29-13.81 1.48-8.17-.63-13.42-2.67-17.08-1.27-3.73-3.03-6.56-4.43-8.4h-.02zm93.34 39.93c-1.09-6-1.58-8.86-1.58-8.86l-.25-1.2c-.91-4.95-5.97-12.39-7.45-14.07-1.75-1.99-3.92-2.63-5.24-2.58-1.4.06-2.97.23-8.05 1.85-2.72.87-5.5 2.23-8.31 4.05a.42.42 0 00-.14.09c-3.16 2.06-6.37 4.69-9.61 7.91-7.74 3.59-13.89 9.42-18.8 17.84-1.11 1.9-1.91 3.75-2.42 5.58-.02.05-.03.09-.04.14-1 3.69-.81 7.28.59 10.84 2.22 5.66 8.82 10.04 16.06 10.65 1.08.09 2.14.14 3.18.14 5.82 0 10.87-1.43 14.74-4.2 4.2-3.01 7.3-6.24 7.85-6.83.84-.31 5.65-2.19 11.28-7.02 6.1-5.24 8.38-12.23 8.47-12.52.03-.08.03-.16.01-.25l-.29-1.53v-.03zm-43.26-33c.11 0 .22 0 .33-.01 1.13-.08 2.16-.61 2.9-1.47l1.34-1.56c.73.53 1.57.9 2.46 1.05l9.51 1.81h.03c.62.15 1.26.23 1.9.23 2.24 0 4.47-.94 6.04-2.77l.04-.05c.08-.03.15-.07.2-.13L228.5 79.4c.06-.06.09-.14.1-.22l.04-.05a7.969 7.969 0 001.33-8.2v-.02l-3.22-9.16a6.03 6.03 0 00-1.41-2.29l1.34-1.56a4.258 4.258 0 00-.45-6l-36.37-31.29c-.86-.74-1.95-1.1-3.09-1.02-1.13.08-2.16.61-2.9 1.47l-31.29 36.37a4.258 4.258 0 00.45 6l36.37 31.29c.78.67 1.75 1.03 2.77 1.03h.01z" fill="#fff"/><path d="M92.326 149.195c3.735-5.293.23-14.194-7.83-19.881-8.058-5.687-17.62-6.007-21.355-.714-3.735 5.293-.23 14.194 7.83 19.882 8.058 5.687 17.62 6.006 21.355.713z" stroke="#32A1DF" stroke-linecap="round" stroke-linejoin="round"/><path d="M93.23 153.42s5.46-2.15 7.19-7.61c1.73-5.46.33-9.62-2.12-13.35-2.45-3.73-5.72-7.93-10.71-10.87-4.99-2.94-9.1-4.19-11.84-5.43-2.74-1.24-7.28-4.42-10.47-7.87-3.19-3.46-7.38-9.2-10.1-14.84-2.72-5.64-5.26-12.76-6.17-16.3-.91-3.54-2.81-11.78-2.23-17.23.58-5.45 1.56-11.11 7.66-14.95s12.74-3.87 20.33-2c7.59 1.87 13.74 4.78 18.98 8.33s10.34 7.85 13.39 11.56c3.05 3.7 4.74 5.49 7.07 9.51s3.98 7.34 3.98 7.34" stroke="#32A1DF" stroke-linecap="round" stroke-linejoin="round"/><path d="M59.53 100.9s1.12-1.4 4.12-2.94 7.34-3.18 12.84-2.87c5.5.31 8.34 1.13 12.6 2.73s7.36 3.23 10.97 5.82c3.61 2.59 8.31 6.34 11.65 10.24 3.34 3.9 6.26 9.62 6.72 13.73.46 4.11.11 10.83-3.1 15.13 0 0 2.82-9.81-8.84-22.53-13.21-14.42-31.53-21.63-45.16-16.79" stroke="#32A1DF" stroke-linecap="round" stroke-linejoin="round"/><path d="M119.99 89.73c-4.71-1.91-9.57 4.55-10.86 14.41-.3 2.3-.38 4.59-.27 6.76 1.01.98 1.97 1.98 2.84 3 2.83 3.31 5.36 7.93 6.35 11.76 3.72-.94 7.08-6.67 8.12-14.61 1.29-9.87-1.47-19.41-6.18-21.31v-.01z" stroke="#32A1DF" stroke-linecap="round" stroke-linejoin="round"/><path d="M123.45 80.28c-8.31-3.49-17.88 5.87-21.39 20.92-.27 1.14-.49 2.28-.67 3.42 3.37 2.52 7.37 5.83 10.31 9.27 3.34 3.9 6.26 9.62 6.72 13.73.22 1.94.25 4.46-.11 7.04 5.9-2.48 11.36-10.24 13.82-20.81 3.51-15.05-.38-30.08-8.69-33.57h.01z" stroke="#32A1DF" stroke-linecap="round" stroke-linejoin="round"/><path d="M122.68 91.88c-3.52 1.3-6.63 6.87-7.63 14.46-.68 5.18-.24 10.27 1.02 14.21.58 1.16 1.08 2.33 1.47 3.46.31.55.64 1.05.99 1.49 3.52-1.3 6.63-6.87 7.63-14.46 1.02-7.78-.49-15.37-3.48-19.16zm-28.69 61.19s4.5-1.1 7.24-4.31c2.74-3.21 4.96-9.03 2.41-16.06-2.55-7.03-9.19-12.97-13.48-15.28-4.29-2.31-10.92-5.77-20.03-4.79" stroke="#32A1DF" stroke-linecap="round" stroke-linejoin="round"/><path d="M94.33 152.97s8.4.76 14.07-2.16c6.1-3.14 6.91-8.06 6.91-8.06m1.92-3.62s5.61 1.64 12.33-1.82c6.2-3.19 7.98-6.89 9.94-11.69 1.95-4.8 3.78-9.85 4.08-15.89.31-6.05-.27-11.6-2.6-17.05-2.33-5.45-4.86-8.38-5.71-9.12-3.21-2.04-8.35-4.5-14.14-3.9" stroke="#32A1DF" stroke-linecap="round" stroke-linejoin="round"/><path d="M134.33 134.06s10.09-8.17 12.39-20.66c2.3-12.49-2.83-20.99-5.38-24.34-2.55-3.35-4.81-4.15-4.81-4.15s-3.77-9.33-7.35-16.53c-3.58-7.2-8.66-14.17-14.41-20.24-5.75-6.08-12.05-9.99-15.79-12.39-3.74-2.4-10.9-5.5-16.56-7.31-5.66-1.81-14.83-2.04-23.47 2.4-8.64 4.44-14.12 9.97-19.99 18.56-5.87 8.59-6.68 17.18-6.29 24.05.39 6.87 2.52 12.92 5.61 21.39 3.09 8.46 6.36 13.15 9.45 17.92 3.09 4.77 6.47 10.22 7.85 12.9 1.38 2.68 3.81 10.8 3.81 10.8l.06.17c1.34 3.69 3.71 7.36 6.77 10.39 8.82 8.73 22.41 10.85 29.07 4.95 7.94-7.02 5.37-17.11-3.87-25.41a31.951 31.951 0 00-9.7-5.97s-4.23-1.6-7.4-3.27-6.65-3.3-11.17-8.52c-4.53-5.21-7.05-8.67-10.63-15.63-3.58-6.96-6.62-16.24-7.43-22.18-.82-5.94-1.66-14.15-.03-21a32.554 32.554 0 0110.67-17.36" stroke="#32A1DF" stroke-linecap="round" stroke-linejoin="round"/><path d="M140.23 127.65s6.59-5.15 8.11-13.51c1.52-8.36-.85-13.6-2.66-16.83M47.89 53.73s3.64-11.83 14.36-17.34c10.72-5.51 21.04-2.27 27.52 1.17s11.32 6.79 18.93 14.48c7.61 7.7 15.32 18.38 18.6 28.03m-91.07 9.1l10.9-9.37 2.62-.14m-1.66-6.46l-2.77-.58-11.08 10.19" stroke="#32A1DF" stroke-linecap="round" stroke-linejoin="round"/><path d="M109.04 65.12l6.71-5.07 5.17-4.72m-8.26 14.51l6.61-5.04 5.1-4.67m76.279 78.62c2.29 1.45 9.14 6.23 14.28 8.45m1.75 1.4s-8.57 4.06-13.78 4.86m-6.809-38.17s-6 6.62-11.56 13.9c-5.56 7.28-7.65 8.88-9.49 9.29" stroke="#32A1DF" stroke-linecap="round" stroke-linejoin="round"/><path d="M226.77 103.89s-9.781.49-22.381 9c-8.13 5.49-14.91 15.58-14.91 15.58s1.35 2.18 4.33 4.9c2.09 1.91 5.19 4.19 6.84 5.38.68.49 1.6.5 2.29.03l31.161-21.06" stroke="#32A1DF" stroke-linecap="round" stroke-linejoin="round"/><path d="M189.48 128.47s-5.86 8-8.6 13.64c-.5 1.03-.36 2.27.35 3.17 2.55 3.23 5.52 5.92 9.13 7.2 4.38 1.55 5.97.97 13.56-1.43 0 0 11.69-3.01 19.96-8.6 8.28-5.59 12.05-14.63 12.05-14.63l.29 1.53s-2.26 7.09-8.32 12.3c-6.06 5.21-11.24 6.97-11.24 6.97s-3.23 3.54-7.86 6.85c-4.63 3.31-10.84 4.54-17.59 3.97-6.75-.57-13.41-4.66-15.63-10.33-2.22-5.67-1.2-10.93 1.83-16.13 3.03-5.2 8.57-13.02 18.66-17.67 6.72-6.7 12.73-10.33 17.92-11.99 5.19-1.66 6.65-1.77 7.91-1.82 1.26-.05 3.24.59 4.84 2.41 1.6 1.82 6.48 9.17 7.34 13.83m-16.94-15.38s2.4.24 4.65 2.43m-10.121-.63l2.42 3.33m-8.36-.16s.15 1.83.81 4.17" stroke="#32A1DF" stroke-linecap="round" stroke-linejoin="round"/><path d="M196.54 119.76l10.82 6.65c.66.41 1.5.4 2.16-.03l22.27-14.69m-2.598 7.236l-1.573-2.329a1.001 1.001 0 00-1.389-.269l-8.402 5.676a1 1 0 00-.269 1.389l1.573 2.328a1 1 0 001.388.269l8.403-5.676a1 1 0 00.269-1.388zM189.27 65.43a7.82 7.82 0 100-15.64 7.82 7.82 0 000 15.64z" stroke="#32A1DF" stroke-linecap="round" stroke-linejoin="round"/><path d="M189.27 83.38c14.232 0 25.77-11.538 25.77-25.77s-11.538-25.77-25.77-25.77c-14.233 0-25.77 11.538-25.77 25.77s11.537 25.77 25.77 25.77z" stroke="#32A1DF" stroke-linecap="round" stroke-linejoin="round"/><path d="M186.59 49.39s-2.95-8.25-4.01-13.16a.297.297 0 00-.35-.23c-3.38.66-9.33 3.15-13.22 9.6a.31.31 0 00.08.4c1.22.86 7.19 5.03 13.18 8.11 1.27-2.84 4.31-4.73 4.31-4.73l.01.01zm7.48 1.02s4.65-7.42 7.86-11.29c.1-.13.09-.31-.03-.42-2.61-2.25-8.24-5.38-15.72-4.45-.16.02-.27.16-.26.31.08 1.49.5 8.76 1.78 15.38 3.01-.76 6.38.46 6.38.46l-.01.01zm11.22-9.69c-1.13.98-6.58 5.81-10.98 10.91 2.46 1.9 3.58 5.3 3.58 5.3s8.71-.94 13.73-.81c.16 0 .3-.12.31-.29.15-3.44-.87-9.8-6.23-15.1a.306.306 0 00-.41-.01zm-8.21 17.14c.03 3.11-1.95 6.1-1.95 6.1s6.12 6.26 9.13 10.29c.1.13.28.16.41.06 2.8-2.01 7.17-6.75 8.01-14.24a.3.3 0 00-.24-.33c-1.47-.28-8.63-1.57-15.37-1.88h.01zm-9.17 8.28s-1.13 8.68-2.44 13.54c-.04.16.05.32.21.37 3.31.96 9.73 1.46 16.15-2.51.13-.08.18-.25.11-.39-.69-1.32-4.1-7.76-8.03-13.24-2.42 1.94-5.99 2.24-5.99 2.24l-.01-.01zm-6.19-4.33s-7.53 4.48-12.14 6.46c-.15.06-.22.24-.16.39 1.3 3.19 4.88 8.55 11.96 11.13.15.05.31-.02.38-.16.61-1.36 3.56-8.02 5.43-14.49-3.03-.7-5.47-3.32-5.47-3.32v-.01zm-14.41 3.51c1.45-.36 8.5-2.17 14.75-4.7-1.32-2.81-.77-6.35-.77-6.35s-8.18-3.14-12.59-5.55a.294.294 0 00-.4.11c-1.71 2.99-3.7 9.12-1.35 16.28.05.15.2.23.36.2v.01z" stroke="#32A1DF" stroke-linecap="round" stroke-linejoin="round"/><path d="M194.24 50.15c-.11.17-.16.26-.16.26s-3.37-1.22-6.38-.46c-.07-.37-.14-.74-.21-1.12-.34.07-.67.16-1 .26.07.19.1.29.1.29s-3.04 1.89-4.31 4.73c-.34-.17-.67-.35-1.01-.53-.1.19-.18.38-.27.58.19.07.29.11.29.11s-.55 3.54.77 6.35c-.35.14-.7.28-1.06.42.13.32.28.63.45.93l.27-.16s2.44 2.62 5.47 3.32c-.11.36-.21.73-.33 1.09.33.09.67.17 1.01.22.03-.2.04-.31.04-.31s3.57-.3 5.99-2.24l.66.93c.27-.2.54-.42.79-.66l-.22-.22s1.98-2.99 1.95-6.1l1.14.06c.01-.34 0-.69-.02-1.03l-.31.03s-1.13-3.4-3.58-5.3c.25-.29.5-.57.75-.86-.27-.22-.54-.43-.82-.62v.03z" stroke="#32A1DF" stroke-linecap="round" stroke-linejoin="round"/><path d="M183.896 21.347l-31.287 36.362a3.75 3.75 0 00.397 5.288l36.362 31.288a3.75 3.75 0 005.288-.397l31.288-36.362a3.75 3.75 0 00-.397-5.289L189.185 20.95a3.75 3.75 0 00-5.289.397z" stroke="#32A1DF" stroke-linecap="round" stroke-linejoin="round"/><path d="M155.29 61.34a1.18 1.18 0 100-2.36 1.18 1.18 0 000 2.36zm31.43-36.54a1.18 1.18 0 100-2.36 1.18 1.18 0 000 2.36zm36.54 31.43a1.18 1.18 0 100-2.36 1.18 1.18 0 000 2.36zm-31.44 36.54a1.18 1.18 0 100-2.36 1.18 1.18 0 000 2.36zm33.203-16.1l-11.57 13.446 2.744 2.362 11.57-13.448-2.744-2.36zM212.31 88.14l1.14 1.96 11.56-13.45-2.11-.82-10.59 12.31zm10.08-26.5c.35.3.61.69.75 1.13l1.02 2.91 2.95 2.54c.91.79 1.59 1.75 2.02 2.79l-3.22-9.17c-.31-.94-.87-1.77-1.62-2.42l-1.91 2.22h.01z" stroke="#32A1DF" stroke-linecap="round" stroke-linejoin="round"/><path d="M227.9 78.74l-.2.23-2.22-1.91.2-.23c1.63-1.9 1.42-4.77-.48-6.4l-5.96-5.13 1.91-2.22 5.96 5.13c3.12 2.68 3.47 7.41.79 10.53zm-22.48 14.7l-2.95-2.54-2.99-.57h-.03c-.45-.08-.88-.28-1.23-.58l-1.91 2.22c.75.64 1.66 1.07 2.63 1.24l9.51 1.81c-1.09-.27-2.13-.8-3.03-1.58z" stroke="#32A1DF" stroke-linecap="round" stroke-linejoin="round"/><path d="M216.14 92.42l-.2.23c-2.68 3.12-7.41 3.47-10.53.79l-5.96-5.13 1.91-2.22 5.96 5.13c1.9 1.63 4.77 1.42 6.4-.48l.2-.23 2.22 1.91z" stroke="#32A1DF" stroke-linecap="round" stroke-linejoin="round"/><path d="M141.73 88.75c-2.18-2.87-4.17-3.93-4.82-4.23-.56-1.38-4.02-9.81-7.29-16.37-1.38-2.78-3.02-5.56-4.85-8.31a.21.21 0 00-.04-.06A89.502 89.502 0 00121.3 55s0-.01-.01-.02c-1.9-2.46-3.96-4.87-6.15-7.19-5.56-5.87-11.72-9.8-15.41-12.16l-.48-.31c-3.66-2.34-10.68-5.44-16.68-7.37-5.69-1.83-14.94-2.15-23.85 2.43-8.19 4.21-13.85 9.46-20.18 18.73-4.82 7.06-6.91 15.03-6.38 24.36.18 3.2.73 6.21 1.61 9.45 0 .02 0 .04.02.06.54 1.98 1.2 4.05 1.97 6.3 0 .02.01.03.02.05.61 1.76 1.28 3.63 2.02 5.67 2.85 7.79 5.82 12.36 8.7 16.79l.8 1.24c3.73 5.78 6.65 10.58 7.82 12.85 1.34 2.6 3.75 10.64 3.78 10.74l.06.17c1.37 3.78 3.81 7.53 6.89 10.57 5.52 5.46 12.96 8.43 19.47 8.43 2.98 0 5.77-.62 8.09-1.91h.02c.05-.02.33-.14.76-.35.05-.01.11-.03.21-.06.3.02 1.22.09 2.51.09 2.98 0 7.92-.34 11.74-2.31 5.82-2.99 6.99-7.53 7.16-8.31.71-.98 1.29-2.07 1.75-3.24.58.12 1.68.31 3.17.31 2.31 0 5.54-.45 9.08-2.27 2.01-1.03 3.57-2.13 4.83-3.3h.02c.05-.04 2.89-2.38 5.9-6.4.28-.21 6.76-5.36 8.29-13.81 1.48-8.17-.63-13.42-2.67-17.08-1.27-3.73-3.03-6.56-4.43-8.4h-.02zm94.7 38.96c-1.09-6-1.58-8.86-1.58-8.86l-.25-1.2c-.91-4.95-5.97-12.39-7.45-14.07-1.75-1.99-3.92-2.63-5.24-2.58-1.4.06-2.97.23-8.05 1.85-2.72.87-5.5 2.23-8.31 4.05a.42.42 0 00-.14.09c-3.16 2.06-6.37 4.69-9.61 7.91-7.74 3.59-13.89 9.42-18.8 17.84-1.11 1.9-1.91 3.75-2.42 5.58-.02.05-.03.09-.04.14-1 3.69-.81 7.28.59 10.84 2.22 5.66 8.82 10.04 16.06 10.65 1.08.09 2.14.14 3.18.14 5.82 0 10.87-1.43 14.74-4.2 4.2-3.01 7.3-6.24 7.85-6.83.84-.31 5.65-2.19 11.28-7.02 6.1-5.24 8.38-12.23 8.47-12.52.03-.08.03-.16.01-.25l-.29-1.53v-.03zM191.8 95.68c.11 0 .22 0 .33-.01 1.13-.08 2.16-.61 2.9-1.47l1.34-1.56c.73.53 1.57.9 2.46 1.05l9.51 1.81h.03c.62.15 1.26.23 1.9.23 2.24 0 4.47-.94 6.04-2.77l.04-.05c.08-.03.15-.07.2-.13l11.57-13.45c.06-.06.09-.14.1-.22l.04-.05a7.969 7.969 0 001.33-8.2v-.02l-3.22-9.16a6.03 6.03 0 00-1.41-2.29l1.34-1.56a4.258 4.258 0 00-.45-6l-36.37-31.29c-.86-.74-1.95-1.1-3.09-1.02-1.13.08-2.16.61-2.9 1.47L152.2 57.36a4.258 4.258 0 00.45 6l36.37 31.29c.78.67 1.75 1.03 2.77 1.03h.01z" stroke="#32A1DF" stroke-width="1.5" stroke-miterlimit="10"/></g><defs><clipPath id="clip0_675_12552"><path fill="#fff" d="M0 0h270v180H0z"/></clipPath></defs></svg>