<svg width="270" height="180" fill="none" xmlns="http://www.w3.org/2000/svg"><g clip-path="url(#clip0_675_12857)"><path d="M19.9 154.9l5.2 5.2m0-5.2l-5.2 5.2m22.5-5.2l5.2 5.2m0-5.2l-5.2 5.2m22.5-5.2l5.2 5.2m0-5.2l-5.2 5.2m22.5-5.2l5.2 5.2m0-5.2l-5.2 5.2m22.5-5.2l5.2 5.2m0-5.2l-5.2 5.2m22.5-5.2l5.2 5.2m0-5.2l-5.2 5.2m22.5-5.2l5.2 5.2m0-5.2l-5.2 5.2m22.5-5.2l5.2 5.2m0-5.2l-5.2 5.2m22.5-5.2l5.2 5.2m0-5.2l-5.2 5.2m22.5-5.2l5.2 5.2m0-5.2l-5.2 5.2m22.5-5.2l5.2 5.2m0-5.2l-5.2 5.2m-225-27.7l5.2 5.2m0-5.2l-5.2 5.2m22.5-5.2l5.2 5.2m0-5.2l-5.2 5.2m22.5-5.2l5.2 5.2m0-5.2l-5.2 5.2m22.5-5.2l5.2 5.2m0-5.2l-5.2 5.2m22.5-5.2l5.2 5.2m0-5.2l-5.2 5.2m22.5-5.2l5.2 5.2m0-5.2l-5.2 5.2m22.5-5.2l5.2 5.2m0-5.2l-5.2 5.2m22.5-5.2l5.2 5.2m0-5.2l-5.2 5.2m22.5-5.2l5.2 5.2m0-5.2l-5.2 5.2m22.5-5.2l5.2 5.2m0-5.2l-5.2 5.2m22.5-5.2l5.2 5.2m0-5.2l-5.2 5.2m-225-27.7l5.2 5.2m0-5.2l-5.2 5.2m22.5-5.2l5.2 5.2m0-5.2l-5.2 5.2m22.5-5.2l5.2 5.2m0-5.2l-5.2 5.2m22.5-5.2l5.2 5.2m0-5.2l-5.2 5.2m22.5-5.2l5.2 5.2m0-5.2l-5.2 5.2m22.5-5.2l5.2 5.2m0-5.2l-5.2 5.2m22.5-5.2l5.2 5.2m0-5.2l-5.2 5.2m22.5-5.2l5.2 5.2m0-5.2l-5.2 5.2m22.5-5.2l5.2 5.2m0-5.2l-5.2 5.2m22.5-5.2l5.2 5.2m0-5.2l-5.2 5.2m22.5-5.2l5.2 5.2m0-5.2l-5.2 5.2m-225-27.7l5.2 5.2m0-5.2l-5.2 5.2m22.5-5.2l5.2 5.2m0-5.2l-5.2 5.2m22.5-5.2l5.2 5.2m0-5.2l-5.2 5.2m22.5-5.2l5.2 5.2m0-5.2l-5.2 5.2m22.5-5.2l5.2 5.2m0-5.2l-5.2 5.2m22.5-5.2l5.2 5.2m0-5.2l-5.2 5.2m22.5-5.2l5.2 5.2m0-5.2l-5.2 5.2m22.5-5.2l5.2 5.2m0-5.2l-5.2 5.2m22.5-5.2l5.2 5.2m0-5.2l-5.2 5.2m22.5-5.2l5.2 5.2m0-5.2l-5.2 5.2m22.5-5.2l5.2 5.2m0-5.2l-5.2 5.2m-225-27.7l5.2 5.2m0-5.2l-5.2 5.2m22.5-5.2l5.2 5.2m0-5.2l-5.2 5.2m22.5-5.2l5.2 5.2m0-5.2l-5.2 5.2m22.5-5.2l5.2 5.2m0-5.2l-5.2 5.2m22.5-5.2l5.2 5.2m0-5.2l-5.2 5.2m22.5-5.2l5.2 5.2m0-5.2l-5.2 5.2m22.5-5.2l5.2 5.2m0-5.2l-5.2 5.2m22.5-5.2l5.2 5.2m0-5.2l-5.2 5.2m22.5-5.2l5.2 5.2m0-5.2l-5.2 5.2m22.5-5.2l5.2 5.2m0-5.2l-5.2 5.2m22.5-5.2l5.2 5.2m0-5.2l-5.2 5.2m-225-27.7l5.2 5.2m0-5.2l-5.2 5.2m22.5-5.2l5.2 5.2m0-5.2l-5.2 5.2m22.5-5.2l5.2 5.2m0-5.2l-5.2 5.2m22.5-5.2l5.2 5.2m0-5.2l-5.2 5.2m22.5-5.2l5.2 5.2m0-5.2l-5.2 5.2m22.5-5.2l5.2 5.2m0-5.2l-5.2 5.2m22.5-5.2l5.2 5.2m0-5.2l-5.2 5.2m22.5-5.2l5.2 5.2m0-5.2l-5.2 5.2m22.5-5.2l5.2 5.2m0-5.2l-5.2 5.2m22.5-5.2l5.2 5.2m0-5.2l-5.2 5.2m22.5-5.2l5.2 5.2m0-5.2l-5.2 5.2M42.4 19.9l5.2 5.2m0-5.2l-5.2 5.2m22.5-5.2l5.2 5.2m0-5.2l-5.2 5.2m22.5-5.2l5.2 5.2m0-5.2l-5.2 5.2m22.5-5.2l5.2 5.2m0-5.2l-5.2 5.2m22.5-5.2l5.2 5.2m0-5.2l-5.2 5.2m22.5-5.2l5.2 5.2m0-5.2l-5.2 5.2m22.5-5.2l5.2 5.2m0-5.2l-5.2 5.2m22.5-5.2l5.2 5.2m0-5.2l-5.2 5.2m22.5-5.2l5.2 5.2m0-5.2l-5.2 5.2m22.5-5.2l5.2 5.2m0-5.2l-5.2 5.2" opacity=".5" stroke="#32A1DF" stroke-width=".5" stroke-miterlimit="10"/><mask id="mask0_675_12857" style="mask-type:luminance" maskUnits="userSpaceOnUse" x="0" y="0" width="270" height="180"><path d="M.5 44.39L44.39.5H269.5v179H.5V44.39z" fill="#fff"/></mask><g mask="url(#mask0_675_12857)"><path d="M271.01 122.54V44.66c0-.25-.19-.46-.44-.5l-119.8-15.58V25.7c0-.41-.18-.64-.34-.75-.46-.35-1.15-.19-2.32.14-2.44.67-15.08 3.19-32.25 3.19-19.74 0-26.63-1.27-27.81-1.52-.98-.21-1.7-.15-2.14.19-.29.22-.4.52-.41.74v2.97h-6.17c-.52 0-5.17-.04-6.34.34-.88.28-1.7 1.56-2.65 3.05-.44.69-.89 1.4-1.33 1.95-1.54.23-2.37 1.17-3.12 2.5-.64 1.14-1.1 3.58-1.86 7.62-.2 1.08-.42 2.26-.67 3.55-.45 2.31-1.01 5.38-1.59 8.64-.08-.16-.18-.3-.31-.4a.927.927 0 00-.68-.18h-4.86c-.58 0-1.08.19-1.43.55-.59.61-.58 1.46-.58 1.54v17.05c0 .07-.26 1.62 1.51 2.74.31.2.6.38.86.56.86.57 1.53 1 2.21 1.16-.22 2.1-.4 3.83-.49 4.73l-.5-.21a.493.493 0 00-.69.46v18.23c.01.06.2 1.41 1.06 2.85.58.96 1.47 1.35 2.11 1.5-.1.19-.25.45-.44.77-.47.79-.58.82-1.23.99-.12.03-.26.07-.42.11-1.17.34-1.63.88-1.68.95-.04.05-.07.11-.09.18v.08c0 .01-.01.02-.01.03 0 .04-.14 4.2 0 9.27.13 4.5.43 8.16.5 8.96-.83 1.44-.81 3.15-.78 4.81 0 .3.01.6.01.89 0 1.78.26 7.1.74 8.86.46 1.7 1.83 3.66 1.89 3.74.01.02.02.03.04.04.09.11.22.17.37.18.06 0 1.97.05 5.23.11.35 1.61 1.85 7.43 5.35 7.43h7.81c.57 0 3.13-.41 4.97-7.17 6.09.06 12.96.11 20.08.11 14.11 0 25.87-.11 32.86-.2.19 1.14.77 4.15 1.81 5.79 1.12 1.77 2.44 1.95 2.9 1.95.11 0 .18-.01.17-.01.06 0 5.44 0 8.22-.13h.02c2.83-.14 3.94-6.39 4.2-8.21.55-.03 1.65-.09 3.33-.16 1.16 4.53 2.81 4.71 3.15 4.7h6.38c.85 0 1.24-.33 1.6-.83.73.81 1.45.82 1.54.82h6.58c2.68 0 3.37-6.36 3.53-8.55h1.33s.03.01.04.01h.02c.27 0 .49-.21.5-.48 0-.16.06-1.46.11-3.34l25.83.3c.25.85.74 1.97.74 1.97s.26.5.37.75c.23.51 2.33 4.96 4.86 4.96h14.19c.13-.03 3.3-.58 4.78-2.96.19-.31.35-.57.49-.79.71 1.01 2.16 2.69 3.95 2.69h6.45c.12-.01 3.07-.32 4.73-3.88.81-1.75 1.04-3 1.11-3.66h1.35c1.23 7.89 5.94 9.24 6.14 9.3.04 0 .08.02.12.02.12 0 11.68.18 13.46.18.24 0 .47-.03.68-.06.04 0 .08-.01.12-.02.32-.07.56-.15.66-.18h.04c.19-.07.32-.26.32-.47v-26.18l.01-.02z" fill="#fff"/><path d="M270.5 122.54V44.66L150.29 29.03v-.01h-.02V25.7c0-.66-.71-.49-2.03-.13-1.31.36-13.84 3.21-32.38 3.21-18.54 0-26.01-1.12-27.92-1.53-1.9-.41-1.94.45-1.94.45v3.47h-6.68s-5.05-.05-6.18.31-2.54 3.41-3.86 5c-1.41.14-2.18.91-2.95 2.27-.77 1.36-1.31 5.02-2.47 11.02-.59 3.06-1.4 7.5-2.15 11.93-.02-.1-.22-1.15-.22-2.37 0-1.22-.64-1.09-.64-1.09h-4.91c-1.55 0-1.5 1.59-1.5 1.59v17.14s-.23 1.28 1.28 2.23c1.5.95 2.43 1.72 3.35 1.72v-.04c-.36 3.37-.61 5.92-.61 5.92l-1.12-.48v18.16s.17 1.29.99 2.66c.82 1.36 2.42 1.36 2.42 1.36s-.08.29-.75 1.43c-.68 1.13-.88 1.03-1.94 1.33-1.06.3-1.43.78-1.43.78s-.14 4.13 0 9.24.51 9.09.51 9.09h-.01c-1 1.59-.77 3.68-.77 5.59 0 1.91.28 7.09.72 8.72.45 1.64 1.82 3.59 1.82 3.59s2.07.06 5.62.12c0 0 1.33 7.42 4.94 7.42h7.77s2.72.24 4.63-7.16c0 0 12.42.1 20.46.1 14.47 0 26.38-.12 33.29-.21.02.11.6 4.12 1.81 6.03 1.23 1.94 2.66 1.7 2.66 1.7s5.41 0 8.21-.13c2.79-.16 3.78-8.18 3.78-8.18h.05c.27-.02 1.6-.1 4.1-.2 1.12 4.78 2.76 4.71 2.76 4.71h6.38c.86 0 1.04-.38 1.58-1.2.73 1.21 1.56 1.19 1.56 1.19h6.58c2.59 0 3.06-8.55 3.06-8.55h1.84v-.07l.03.08s.07-1.56.12-3.82l26.73.3c.38 1.57 1.15 3.02 1.15 3.02s2.12 4.66 4.4 4.66h14.11s3.06-.51 4.43-2.73c.54-.88.79-1.29.9-1.48.14.25 1.83 3.13 3.96 3.13h6.4s2.77-.25 4.32-3.59c1.14-2.47 1.1-3.9 1.09-3.95h2.26c1.09 8.04 5.84 9.32 5.84 9.32s11.66.18 13.45.18h.04c.2 0 .38-.02.54-.05.07-.01.13-.03.2-.04.28-.06.46-.12.5-.14.01 0 .03 0 .04-.01v-26.17l.01-.01z" fill="#fff"/><path d="M134.36 29.55s-6.34 1.32-18.95 1.6c-7.5.16-20.92 0-29.49 0m58.36 100.49c-.31 2.68-1 7.68-1 12.36s-1.19 4.44-1.19 4.44-16.6.3-39.78.3-43.43-.48-43.43-.48-1.37-1.95-1.82-3.59c-.45-1.64-.72-6.82-.72-8.72 0-1.9-.23-4 .77-5.59m58.36-2.5s-18.32 2.27-21.18 2.27c-2.86 0-20.9-2.27-20.9-2.27" stroke="#32A1DF" stroke-linecap="round" stroke-linejoin="round"/><path d="M120.52 144.05h10.13s1.46.13 1-1.5c-.46-1.64-1.59-5.5-1.59-5.5s-.5-1.73-3-1.41c-2.49.32-8.91 1.32-8.91 1.32l2.36 7.09h.01zm-50.86-.21l1.33-6.99-7.6-1.29s-1.91-.24-2.52 1.12c-.61 1.36-1.06 6.1-1.06 6.1s-.24 1.06 1.64 1.06h8.21zm3.32 0l1.23-7.02s.36-3.86 5.19-3.86h30.36s3.5 0 5 4.18c1.49 4.18 2.18 6.71 2.18 6.71H72.99l-.01-.01zM116 129.37s3.89-.8 5.19-3.11c1.29-2.31 2.46-7.37 2.46-7.37s.41-2.05 2.86-2.52c2.46-.48 6.89-1.29 6.89-1.29s0 8.27-1.29 11.46c-1.06 2.59-2.52 4.13-7.67 5.25-4.7 1.02-7.51 1.24-7.51 1.24l-1-3.65h.08l-.01-.01zm6.82-7.37s8.49-1.92 10.38-1.91m-74.68-5.04s3.68.64 5.14 1.28c1.46.64 2.41.95 2.91 3.82.5 2.86 1.09 5.37 2.32 6.78 1.23 1.41 4.09 2.38 4.09 2.38l-.92 3.66s-7.43-1.59-9.66-2.41c-2.23-.82-3.09-3.45-3.32-6.55-.09-1.15-.17-2.58-.26-3.95-.16-2.6-.29-5.01-.29-5.01h-.02.01zm.29 5l8.02 1.52" stroke="#32A1DF" stroke-linecap="round" stroke-linejoin="round"/><path d="M57.12 130.37s-.37-3.98-.51-9.09c-.14-5.11 0-9.24 0-9.24s.37-.48 1.43-.78c1.06-.31 1.27-.2 1.94-1.33.68-1.13.75-1.43.75-1.43s-1.6 0-2.42-1.36c-.82-1.36-.99-2.65-.99-2.65V86.33l1.12.48s.71-7.27 1.48-13.5c.77-6.22 2.77-17.52 3.93-23.52 1.16-5.99 1.7-9.66 2.47-11.02.77-1.36 1.54-2.13 2.95-2.27 1.32-1.59 2.73-4.63 3.86-5 1.13-.36 6.18-.31 6.18-.31h6.68v-3.47s.04-.86 1.94-.45 9.37 1.53 27.92 1.53c18.55 0 31.07-2.84 32.38-3.21 1.31-.36 2.03-.52 2.03.13v3.32l120.23 15.63v104.05s-.6.25-1.32.25c-1.8 0-13.45-.18-13.45-.18s-4.75-1.28-5.84-9.32h-3.06s-.28.19-.28-.98c-1.42 0-23.52.66-23.52.66l-.1-8.04-6.68-.04-.07 9.44-36.18-.41-.03 3.82h-1.84s-.48 8.55-3.06 8.55h-6.57s-.83.02-1.56-1.19c-.54.82-.72 1.2-1.58 1.2h-6.38s-1.64.07-2.76-4.71c-2.83.1-4.16.2-4.16.2s-.99 8.04-3.79 8.18c-2.8.14-8.21.13-8.21.13s-1.43.24-2.65-1.7c-1.23-1.94-1.81-6.04-1.81-6.04m-71.08-.15s1.33 7.42 4.94 7.42h7.77s2.72.24 4.63-7.17m-8.66-.1s.31 2.37 1.25 4.41" stroke="#32A1DF" stroke-linecap="round" stroke-linejoin="round"/><path d="M94.26 110.85c3.76 0 6.81-3.17 6.81-7.09s-3.05-7.09-6.81-7.09-6.81 3.17-6.81 7.09 3.05 7.09 6.81 7.09zm-23.47 11.47l21.19 2.5c2.02.24 4.06.24 6.09.02l20.7-2.32" stroke="#32A1DF" stroke-linecap="round" stroke-linejoin="round"/><path d="M98.07 124.84l10.72-1.2.47-2.39-11.81 1.32c-2.03.23-4.06.22-6.09-.02l-11.04-1.29.41 2.24 11.26 1.32c2.02.24 4.06.24 6.09.02h-.01zm1.36-6.13l10.46-.7.56-2.87-10.88.73c-3.62.25-7.25.23-10.86-.04l-9.5-.69.52 2.89 8.83.65c3.62.27 7.24.28 10.86.04l.01-.01zm-30.75-7.47l20.43 1.42c3.57.25 7.16.26 10.73.03l22.25-1.45" stroke="#32A1DF" stroke-linecap="round" stroke-linejoin="round"/><path d="M69.82 117.3l18.74 1.38c3.62.27 7.24.28 10.86.04l21.04-1.42M67.28 99.74l21.48-.13c-.82 1.16-1.29 2.6-1.29 4.15 0 3.91 3.05 7.09 6.81 7.09s6.81-3.17 6.81-7.09c0-1.58-.5-3.03-1.34-4.21l24.11-.14" stroke="#32A1DF" stroke-linecap="round" stroke-linejoin="round"/><path d="M98.13 109.61a6.59 6.59 0 01-7.72 0H78.2l.42 2.33 10.49.72c3.57.25 7.16.26 10.73.03l11.22-.72.46-2.35H98.14l-.01-.01zm2.59-3.58l22.46-.15m-55.22.37l19.87-.13m-31.23 5.92s5.69 1.51 9.88 2.33m91.16-9c-8.64.28-17.32 5.48-17.32 5.48s-.72.34-3.32.84c-2.6.49-5.59 1.05-9 1.41-3.41.36-4.83 1.09-4.83 1.09m-64.65.86l-1.97-.38m76.85.41s3.75-.99 6.24-1.4m-81.2-26.89s1.94 1.5 2.17 3.36c.23 1.86 1.5 15.97 1.5 15.97m-3.53-20.69c2.4-.28 5.25.58 6.27 2.48 1.21 2.26 1.87 6.53 2.42 11.83m-5.16 6.37s-3.59 0-4.8-1.64m9.17 9.9s2.31-.9 2.31-2.81m54.39 2.63s-.8-1.22-1.1-2.63m17.55 2.12s2.65-1.88 4.51-2.6m-16.94-5.21l2.36-14.86s.23-3.23 3.45-4.27c3.23-1.05 4.99-1.05 4.99-1.05" stroke="#32A1DF" stroke-linecap="round" stroke-linejoin="round"/><path d="M123.85 99.4s.84-7.16 1.75-9.71c.91-2.55 2.47-5.45 12.4-5.04l-.15-26.42s-.35-4.02 2.1-3.88c2.45.14 5.52.28 8.53.95 3.01.68 4.16 1.29 7.97 1.29" stroke="#32A1DF" stroke-linecap="round" stroke-linejoin="round"/><path d="M65.3 52.01v.02s1.93-.63 6.97-.78c5.03-.15 38.45-.75 44.76-.92 6.31-.17 12.1 0 17.32.65M61.71 81.25s3.32-.31 14-.31 37.09-.54 44.63-.54h13.13" stroke="#32A1DF" stroke-linecap="round" stroke-linejoin="round"/><path d="M63.86 49.76s1.21-1.25 2.88-1.88c3-1.14 3.43 2.49 4.42 3.26m50.43-.95c.64-.13 2.37-2.48 2.96-2.96.59-.48 1.91-.84 4.45-.39 2.54.45 3.93.69 5.5 1.29 1.57.61 1.43.95 1.43 1.77 0 .82-.57 4.7-.66 12.88-.09 8.18-.1 21.82-.1 21.82m-.82-33.64h1.51m-2.39 29.41h1.73m-73.5.87l-2.7.18m4.23-28.31c.71-.86 2.07-1.09 2.07-1.09m-.45 35.89l61.99-.55M70.67 44.8s-.24-8.43 1.25-12.19m53.43 11.29s1.84-8.45 3.96-11.79c2.11-3.34 8.66-3.06 13.09-1.7s5.66 1.7 7.91 1.7c.07-1.84-.02-3.09-.02-3.09m-15.56 79.03c.95 1.94 2.39 2.89 4.91 3.03v18.26l.24 2.78s-.34 10.73-.65 13.84c-.51 1.46-1.23 2.55-1.23 2.55" stroke="#32A1DF" stroke-linecap="round" stroke-linejoin="round"/><path d="M135.95 49.42s.35-7.47 1.07-10.06c.83-3 2.46-4.67 6.34-4.61 3.88.06 11.66 1.36 11.66 1.36l2.39 18.14-.95 2.32.82 46.77-1.09.41m-5.88-71.64l2.79 3.72" stroke="#32A1DF" stroke-linecap="round" stroke-linejoin="round"/><path d="M152.61 56.28v19.05s.9 6.37.9 13.91v14.8" stroke="#32A1DF" stroke-linecap="round" stroke-linejoin="round"/><path d="M153.86 118.59h3.79v-13.22l-1.48-1.62s-2.18-.07-8.93 1.57c-6.76 1.64-12.51 2.72-12.51 2.72m3.26-22.35s.28.48.28 2.22v15.85s.17.09-1.26.55c-1.44.47-9.82 1.56-9.82 1.56m9.33-1.43s-.07 2.22.88 3.08m4.51-48.87v19.77s-.1 1.74 1.5 1.74 2.27.04 3.59-.65c1.31-.69 3.04-1.8 3.04-2.65V58.19s.05-1.5-1.91-1.5h-4.96s-1.27.28-1.27 1.95l.01.01z" stroke="#32A1DF" stroke-linecap="round" stroke-linejoin="round"/><path d="M143.49 80.58s-2.47 1.26-4.15 1.47c-1.68.22-1.56-2.37-1.56-2.37V57.84s-.05-.52.9-.52c.95 0 3.17.38 3.17.38m-.57 26.91c1.6-.64 11.25-3.49 11.25-9.2m.47 43.47s-1.16-8.38-4.7-7.8c-4.41.72-5.62 12.58-5.62 12.58s0 .46-.68.85c-.69.39-1.57.77-1.57.77" stroke="#32A1DF" stroke-linecap="round" stroke-linejoin="round"/><path d="M152.14 119.54c-.75.86-.89.92-.89.92s-.77-1.74-2.09-1.75c-1.51-.02-3.02 2.13-3.43 4.72-.41 2.59-.83 5.26-.83 5.26" stroke="#32A1DF" stroke-linecap="round" stroke-linejoin="round"/><path d="M152.11 147.97c.39-2.51.62-5.44.62-8.57 0-9.29-1.98-16.8-4.43-16.8-1.9 0-3.52 4.51-4.15 10.86m4.13 22.69c-1.35 0-2.56-2.29-3.37-5.9m3.4-27.66h-2.4" stroke="#32A1DF" stroke-linecap="round" stroke-linejoin="round"/><path d="M149.33 123.05h2.13s.54.05.91 1.16c.37 1.11.68 11.36.36 16.38m-.59-21.05s.68-.95 1.71-.95m-1.29 7.05h17.54m-.96 19.09c-3.04.31-16.82 1.81-16.82 1.81" stroke="#32A1DF" stroke-linecap="round" stroke-linejoin="round"/><path d="M152.7 127.86h16.44s-.41 3.87-1.36 7.74c-.95 3.86-1.32 6.22-3.14 6.36-1.82.13-10.79.96-10.79.96m26.16-2.83s.11-5.45-.23-10.23-1.81-7.62-3.17-7.62c-1.91 0-2.89 3.33-3.41 8.65-.51 5.32-.37 12.37-.37 13.02 0 .65-.45.65-.45.65l-3.25.17m-2.18 6.54s-.39-.8-.79-2.12c-.32-1.06-.64-2.45-.76-4.02" stroke="#32A1DF" stroke-linecap="round" stroke-linejoin="round"/><path d="M172.64 124.51c.77-3.5 2.53-4.63 3.53-4.63s2.97 1.41 3.61 6.23c.73 5.59.22 17.81.22 17.81" stroke="#32A1DF" stroke-linecap="round" stroke-linejoin="round"/><path d="M174.97 123.35s.92-.12 1.91 2.61c.99 2.73 1.88 13.42 1.26 17.97M59.05 80.92c-.92 0-1.85-.77-3.35-1.72s-1.28-2.23-1.28-2.23V59.83s-.05-1.59 1.5-1.59h4.91s.64-.18.64 1.09.23 2.39.23 2.39m95.35 63.92s.36-3.94 1.28-5.43c.91-1.49.83-1.5 2.28-1.5m-2.97-.12l112.87.92m-47.57 11.59v-10.77l29.76.33v17.66l-6.14.16m-23.6-5.74l29.74-.48m-36.44-1.2v-12m-3.27-.02v21.43m-4.99-.06v-21.35m-5.36 11.01v-11.04M182.41 122l18.27 8.07m-18.27-11.26v3.2m25.59 8.06h-27.92M208 143.41s2.12 4.66 4.4 4.66h14.11s3.06-.51 4.43-2.73c1.37-2.22.89-1.5.89-1.5s1.75 3.16 3.98 3.16h6.4s2.77-.25 4.32-3.59c1.16-2.51 1.09-3.96 1.09-3.96m-32.76 3.96s1.91 4.09 3.64 4.66" stroke="#32A1DF" stroke-linecap="round" stroke-linejoin="round"/><path d="M249.9 139.45h9.1l1.6-.18s.41-.24.41-1.36-.04-5.66.92-9.13c.95-3.47 2.11-6.17 3.21-6.24 1.09-.08 5.38 0 5.38 0" stroke="#32A1DF" stroke-linecap="round" stroke-linejoin="round"/><path d="M270.51 123.93c-.43-.16-.87-.25-1.32-.25-3.65 0-6.61 5.65-6.61 12.64s2.96 12.64 6.61 12.64c.45 0 .89-.09 1.32-.25v-24.78z" stroke="#32A1DF" stroke-linecap="round" stroke-linejoin="round"/><path d="M271.01 122.54V44.66c0-.25-.19-.46-.44-.5l-119.8-15.58V25.7c0-.41-.18-.64-.34-.75-.46-.35-1.15-.19-2.32.14-2.44.67-15.08 3.19-32.25 3.19-19.74 0-26.63-1.27-27.81-1.52-.98-.21-1.7-.15-2.14.19-.29.22-.4.52-.41.74v2.97h-6.17c-.52 0-5.17-.04-6.34.34-.88.28-1.7 1.56-2.65 3.05-.44.69-.89 1.4-1.33 1.95-1.54.23-2.37 1.17-3.12 2.5-.64 1.14-1.1 3.58-1.86 7.62-.2 1.08-.42 2.26-.67 3.55-.45 2.31-1.01 5.38-1.59 8.64-.08-.16-.18-.3-.31-.4a.927.927 0 00-.68-.18h-4.86c-.58 0-1.08.19-1.43.55-.59.61-.58 1.46-.58 1.54v17.05c0 .07-.26 1.62 1.51 2.74.31.2.6.38.86.56.86.57 1.53 1 2.21 1.16-.22 2.1-.4 3.83-.49 4.73l-.5-.21a.493.493 0 00-.69.46v18.23c.01.06.2 1.41 1.06 2.85.58.96 1.47 1.35 2.11 1.5-.1.19-.25.45-.44.77-.47.79-.58.82-1.23.99-.12.03-.26.07-.42.11-1.17.34-1.63.88-1.68.95-.04.05-.07.11-.09.18v.08c0 .01-.01.02-.01.03 0 .04-.14 4.2 0 9.27.13 4.5.43 8.16.5 8.96-.83 1.44-.81 3.15-.78 4.81 0 .3.01.6.01.89 0 1.78.26 7.1.74 8.86.46 1.7 1.83 3.66 1.89 3.74.01.02.02.03.04.04.09.11.22.17.37.18.06 0 1.97.05 5.23.11.35 1.61 1.85 7.43 5.35 7.43h7.81c.57 0 3.13-.41 4.97-7.17 6.09.06 12.96.11 20.08.11 14.11 0 25.87-.11 32.86-.2.19 1.14.77 4.15 1.81 5.79 1.12 1.77 2.44 1.95 2.9 1.95.11 0 .18-.01.17-.01.06 0 5.44 0 8.22-.13h.02c2.83-.14 3.94-6.39 4.2-8.21.55-.03 1.65-.09 3.33-.16 1.16 4.53 2.81 4.71 3.15 4.7h6.38c.85 0 1.24-.33 1.6-.83.73.81 1.45.82 1.54.82h6.58c2.68 0 3.37-6.36 3.53-8.55h1.33s.03.01.04.01h.02c.27 0 .49-.21.5-.48 0-.16.06-1.46.11-3.34l25.83.3c.25.85.74 1.97.74 1.97s.26.5.37.75c.23.51 2.33 4.96 4.86 4.96h14.19c.13-.03 3.3-.58 4.78-2.96.19-.31.35-.57.49-.79.71 1.01 2.16 2.69 3.95 2.69h6.45c.12-.01 3.07-.32 4.73-3.88.81-1.75 1.04-3 1.11-3.66h1.35c1.23 7.89 5.94 9.24 6.14 9.3.04 0 .08.02.12.02.12 0 11.68.18 13.46.18.24 0 .47-.03.68-.06.04 0 .08-.01.12-.02.32-.07.56-.15.66-.18h.04c.19-.07.32-.26.32-.47v-26.18l.01-.02z" stroke="#32A1DF" stroke-width="1.5" stroke-miterlimit="10"/></g><path d="M.5 44.39L44.39.5H269.5v179H.5V44.39z" stroke="#32A1DF"/></g><defs><clipPath id="clip0_675_12857"><path fill="#fff" d="M0 0h270v180H0z"/></clipPath></defs></svg>