<svg width="270" height="180" fill="none" xmlns="http://www.w3.org/2000/svg"><g clip-path="url(#clip0_684_4419)"><path d="M19.9 154.9l5.2 5.2m0-5.2l-5.2 5.2m22.5-5.2l5.2 5.2m0-5.2l-5.2 5.2m22.5-5.2l5.2 5.2m0-5.2l-5.2 5.2m22.5-5.2l5.2 5.2m0-5.2l-5.2 5.2m22.5-5.2l5.2 5.2m0-5.2l-5.2 5.2m22.5-5.2l5.2 5.2m0-5.2l-5.2 5.2m22.5-5.2l5.2 5.2m0-5.2l-5.2 5.2m22.5-5.2l5.2 5.2m0-5.2l-5.2 5.2m22.5-5.2l5.2 5.2m0-5.2l-5.2 5.2m22.5-5.2l5.2 5.2m0-5.2l-5.2 5.2m22.5-5.2l5.2 5.2m0-5.2l-5.2 5.2m-225-27.7l5.2 5.2m0-5.2l-5.2 5.2m22.5-5.2l5.2 5.2m0-5.2l-5.2 5.2m22.5-5.2l5.2 5.2m0-5.2l-5.2 5.2m22.5-5.2l5.2 5.2m0-5.2l-5.2 5.2m22.5-5.2l5.2 5.2m0-5.2l-5.2 5.2m22.5-5.2l5.2 5.2m0-5.2l-5.2 5.2m22.5-5.2l5.2 5.2m0-5.2l-5.2 5.2m22.5-5.2l5.2 5.2m0-5.2l-5.2 5.2m22.5-5.2l5.2 5.2m0-5.2l-5.2 5.2m22.5-5.2l5.2 5.2m0-5.2l-5.2 5.2m22.5-5.2l5.2 5.2m0-5.2l-5.2 5.2m-225-27.7l5.2 5.2m0-5.2l-5.2 5.2m22.5-5.2l5.2 5.2m0-5.2l-5.2 5.2m22.5-5.2l5.2 5.2m0-5.2l-5.2 5.2m22.5-5.2l5.2 5.2m0-5.2l-5.2 5.2m22.5-5.2l5.2 5.2m0-5.2l-5.2 5.2m22.5-5.2l5.2 5.2m0-5.2l-5.2 5.2m22.5-5.2l5.2 5.2m0-5.2l-5.2 5.2m22.5-5.2l5.2 5.2m0-5.2l-5.2 5.2m22.5-5.2l5.2 5.2m0-5.2l-5.2 5.2m22.5-5.2l5.2 5.2m0-5.2l-5.2 5.2m22.5-5.2l5.2 5.2m0-5.2l-5.2 5.2m-225-27.7l5.2 5.2m0-5.2l-5.2 5.2m22.5-5.2l5.2 5.2m0-5.2l-5.2 5.2m22.5-5.2l5.2 5.2m0-5.2l-5.2 5.2m22.5-5.2l5.2 5.2m0-5.2l-5.2 5.2m22.5-5.2l5.2 5.2m0-5.2l-5.2 5.2m22.5-5.2l5.2 5.2m0-5.2l-5.2 5.2m22.5-5.2l5.2 5.2m0-5.2l-5.2 5.2m22.5-5.2l5.2 5.2m0-5.2l-5.2 5.2m22.5-5.2l5.2 5.2m0-5.2l-5.2 5.2m22.5-5.2l5.2 5.2m0-5.2l-5.2 5.2m22.5-5.2l5.2 5.2m0-5.2l-5.2 5.2m-225-27.7l5.2 5.2m0-5.2l-5.2 5.2m22.5-5.2l5.2 5.2m0-5.2l-5.2 5.2m22.5-5.2l5.2 5.2m0-5.2l-5.2 5.2m22.5-5.2l5.2 5.2m0-5.2l-5.2 5.2m22.5-5.2l5.2 5.2m0-5.2l-5.2 5.2m22.5-5.2l5.2 5.2m0-5.2l-5.2 5.2m22.5-5.2l5.2 5.2m0-5.2l-5.2 5.2m22.5-5.2l5.2 5.2m0-5.2l-5.2 5.2m22.5-5.2l5.2 5.2m0-5.2l-5.2 5.2m22.5-5.2l5.2 5.2m0-5.2l-5.2 5.2m22.5-5.2l5.2 5.2m0-5.2l-5.2 5.2m-225-27.7l5.2 5.2m0-5.2l-5.2 5.2m22.5-5.2l5.2 5.2m0-5.2l-5.2 5.2m22.5-5.2l5.2 5.2m0-5.2l-5.2 5.2m22.5-5.2l5.2 5.2m0-5.2l-5.2 5.2m22.5-5.2l5.2 5.2m0-5.2l-5.2 5.2m22.5-5.2l5.2 5.2m0-5.2l-5.2 5.2m22.5-5.2l5.2 5.2m0-5.2l-5.2 5.2m22.5-5.2l5.2 5.2m0-5.2l-5.2 5.2m22.5-5.2l5.2 5.2m0-5.2l-5.2 5.2m22.5-5.2l5.2 5.2m0-5.2l-5.2 5.2m22.5-5.2l5.2 5.2m0-5.2l-5.2 5.2M42.4 19.9l5.2 5.2m0-5.2l-5.2 5.2m22.5-5.2l5.2 5.2m0-5.2l-5.2 5.2m22.5-5.2l5.2 5.2m0-5.2l-5.2 5.2m22.5-5.2l5.2 5.2m0-5.2l-5.2 5.2m22.5-5.2l5.2 5.2m0-5.2l-5.2 5.2m22.5-5.2l5.2 5.2m0-5.2l-5.2 5.2m22.5-5.2l5.2 5.2m0-5.2l-5.2 5.2m22.5-5.2l5.2 5.2m0-5.2l-5.2 5.2m22.5-5.2l5.2 5.2m0-5.2l-5.2 5.2m22.5-5.2l5.2 5.2m0-5.2l-5.2 5.2" opacity=".5" stroke="#32A1DF" stroke-width=".5" stroke-miterlimit="10"/><path d="M.5 44.39L44.39.5H269.5v179H.5V44.39z" stroke="#32A1DF"/><path d="M232.61 53.49a.553.553 0 00-.69-.35c-.45.15-4.4 1.48-5.44 3.11-.35.54-.44 1.01-.3 1.4-.45.16-.98.4-1.59.75-17.21.26-46.95 11.45-47.25 11.56-.14.05-.26.16-.31.31-.06.14-.05.3.01.44l.22.47c-.57.07-1.47.19-2.77.41-1.78.3-2.86.7-3.13 1.16-.08.14-.09.32-.03.47l.33.82-5.93 1.77c-.93-.25-5.98-1.57-12.83-2.38-4.28-.5-6.64-.34-8.54-.2-1.5.1-2.79.2-4.62-.07-3.85-.56-6.1.3-6.65.54-.2-.02-.92-.17-2.64-1.1-2.26-1.22-5.33-2.39-9.08-.56-2.49 1.22-6.34 2.13-9.43 2.87-1.01.24-1.93.46-2.69.66-2.42.65-3.44 1.48-3.83 1.91-.75 0-1.68-.12-2.18-.2-.24-1.5-.53-2.39-.54-2.42a.528.528 0 00-.45-.36c-.07 0-6.9-.93-21.52-9.1-5.15-2.87-8.79-5.4-11.72-7.43-5.54-3.84-8.64-5.99-14.6-5.63-1.27-3.85-3.35-6.82-3.44-6.95a.544.544 0 00-.76-.13c-.14.1-.22.26-.22.43l-12.6 66.54a.54.54 0 00.1.53c.15.17 3.65 4.1 10.79 7.81 5.44 2.82 7.4 4.02 10.37 5.84.91.56 1.91 1.17 3.12 1.9 5.17 3.1 7.69 3.62 7.79 3.64h.1c.12 0 .24-.04.33-.11l3.88-3.01c1.08.49 1.75.75 1.77.76.06.02.13.04.2.04.18 0 .36-.09.46-.25.04-.06 1.23-1.94 3.13-4.85.86.05 3.46.31 5.14 1.57 1.16.87 2.15 1.1 2.89 1.1.83 0 1.33-.3 1.36-.32.07-.04.13-.1.17-.16.04-.06 2.71-4.19 6.33-10.94.86.29 2.94.99 5.4 1.84-.14 1.06-.13 3.52 2.54 5.25.7.45 1.39.64 2.06.64 1.83 0 3.47-1.39 4.42-2.57-.3 1.08-.57 3.31.91 6.37.67 1.39 1.85 2.23 3.43 2.44.27.04.54.05.81.05 1.49 0 3.06-.5 4.34-1.16.43 1.5 1.69 2.34 4.07 2.74.58.1 1.13.14 1.63.14 1.26 0 2.24-.25 2.84-.46.07.29.17.59.31.88.42.86 1.34 2.01 3.35 2.61.72.21 1.39.3 1.99.3 1.2 0 2.15-.35 2.81-.72.97-.53 1.73-1.35 2.12-2.2.56.04 1.12.06 1.68.06.7 0 1.39-.04 2.07-.09h.02c.01 0 .03 0 .04-.01.43-.03.85-.08 1.26-.13h.1s.04 0 .1-.02c2.09-.29 3.89-.81 5.1-1.42 2.03-1.03 2.47-2.31 2.55-2.99.76-.31 2.58-1.13 3.93-2.46.93-.91 1.18-1.73 1.19-2.35.59.14 1.42.22 2.41.02 1.7-.35 2.72-2.23 3.54-3.75.21-.39.42-.77.62-1.1.66-1.06.69-2.33.6-3.17 1.44.37 4.36.75 6.79-1.22 2.55-2.07 3.03-4.62 1.4-7.41l2.08-1.69c.39-.06 1.5-.24 3.43-.76 3.02 7.35 4.85 9.09 5.49 9.49l3.91 6.53c.11.18.32.28.53.26l1.17-.14c.78-.09 2.41.31 3.2.53.6 1.13 3.58 6.57 7.45 10.75.14.15.34.21.53.16 9.03-2.26 31.37-15.02 32.32-15.56.26-.15.35-.48.2-.74l.52-60.93a.5.5 0 000-.32l.03.02z" fill="#fff"/><path d="M44.56 110.14s7.93 3.29 15.34 9.47c7.41 6.18 15.95 9.47 15.95 9.47s11.63-18.42 21-30.36c9.37-11.94 5.35-23.67 5.35-23.67s-6.79-.82-21.72-9.16C65.56 57.55 63.29 52.2 54.03 52.92c-1.24-4.01-3.5-7.2-3.5-7.2m8.03 14.29s1.24-2.16.82-3.5" stroke="#32A1DF" stroke-linecap="round" stroke-linejoin="round"/><path d="M57.33 53.94s-.1 2.78.51 5.04c1.34 4.91-3.81-6.07-3.81-6.07M37.91 112.4s3.5 3.98 10.64 7.68c7.14 3.7 8.37 4.67 13.52 7.75s7.62 3.57 7.62 3.57l4.13-3.21m5.33-4.24s3.56.04 5.76 1.69c2.2 1.65 3.64.75 3.64.75s5.01-7.68 10.7-19.56c5.69-11.88 7.55-20.1 6.45-28.82-1.17.07-2.91-.27-2.91-.27" stroke="#32A1DF" stroke-linecap="round" stroke-linejoin="round"/><path d="M105.7 78.02s.62-1.1 3.71-1.92c3.09-.82 8.85-1.92 12.21-3.57 3.36-1.65 6.18-.75 8.58.55 2.4 1.3 3.02 1.17 3.02 1.17s2.2-1.17 6.45-.55c4.25.62 5.56-.62 13.17.27s12.9 2.4 12.9 2.4l6.66-1.99-.55-1.37s.27-.48 2.74-.89c2.47-.41 3.5-.48 3.5-.48l-.55-1.16s29.92-11.32 47.21-11.53c1.99-1.17 3.09-1.1 3.09-1.1s-1.85.21-.89-1.3c.96-1.51 5.15-2.88 5.15-2.88M95.08 115.09s11.54 3.88 16.62 5.8c0 0 2.55-3.34 6.53-2.72 3.98.62 4.19 3.6 4.19 3.6s1.03-2.81 4.39-2.81c3.36 0 5.66 2.68 4.6 5.32 1.82-.79 6.04.31 4.77 6.86 4.77.79 9.81-.03 12.32-1.3s2.26-2.88 2.26-2.88 2.44-.86 4.08-2.47c1.64-1.61.82-2.81.82-2.81s1.2.72 3.05.34c1.85-.38 2.85-3.05 3.81-4.6.96-1.55.38-3.67.38-3.67s4.05 1.65 7.14-.86 2.31-5.15 1.03-7.1l2.57-2.09s1.24-.14 3.98-.89c3.64 8.99 5.56 9.74 5.56 9.74l3.98 6.66 1.17-.14c1.17-.14 3.64.62 3.64.62s3.16 6.18 7.48 10.84c9.06-2.26 32.18-15.51 32.18-15.51" stroke="#32A1DF" stroke-linecap="round" stroke-linejoin="round"/><path d="M172.4 74.39s1.44-.96 6.11 15.78 5.21 21.07 4.67 22.37c0 0 2.3-.27 5.28 0 2.98.27 5.14-1.88 5.14-1.88m-15.51-39.02s10.71 8.36 18.82 55.85m-4.96-7.82s1.85.57 3.35-.98m-63.9 5.58s-.96.21-1.68 1.89-.79 1.2-1.3 2.5-.38 4.29 3.19 5.35c3.57 1.06 5.97-1.16 6.42-2.65m-27.53-10.92s-1.34 2.49.65 6.61c1.99 4.12 8.27 1.51 9.95-.41 1.68-1.92 1.3-4.87 1.3-4.87" stroke="#32A1DF" stroke-linecap="round" stroke-linejoin="round"/><path d="M128.21 130.29s-1.92 1.02-4.8.54-3.62-1.55-3.76-3.02m-18.29-10.58s-.94 3.1 2.21 5.16c3.16 2.06 6.08-2.25 6.08-2.25m61.41-14.36s-5.8-4.02-10.67-6.21c-4.87-2.19-7-4.1-10.02-6.1-3.02-2-3.91-2.2-7.07-3.64s-5.97-2.95-8.65-5.97m17.97 11.17s2.21.91 7.35-1.08m11.88-1.72s2.47 7.36.55 12.46m2.05-7.32s.62 1.3 0 4.39m-8.71-25.38s1.65 1.03 1.92 3.43m-.65-3.81s.91.88 1.04 1.5m-87.21 43.88s.78 1.58 2.43 1.89c1.65.31 2.54.38 3.12.99" stroke="#32A1DF" stroke-linecap="round" stroke-linejoin="round"/><path d="M133.22 74.25s-4.67 2.74-8.37 3.84c-3.71 1.1-5.83.75-7.07 4.53-1.24 3.78-1.65 7-3.22 10.02-1.57 3.02-1.65 4.92-.96 5.82.69.9 1.99 1.73 6.04.36s5.76-2.13 7.07-5.83c1.31-3.7.89-4.19.89-4.19s1.78-.05 3.36-.69c1.58-.64 3.5-.14 5.19-.11 1.69.03 2.83-.45 2.83-.45m-12.91-2.39s1.64 1.97 1.52 3.64" stroke="#32A1DF" stroke-linecap="round" stroke-linejoin="round"/><path d="M116.31 90.56s1.88-.18 2.56 1.37c.68 1.55-.55 3.61-1.28 4.25-.73.64-1.97.59-3.61 0m36.77 30.77s-1.82.48-5.04-.62c-3.22-1.1-3.86-2.45-6.73-3.39-2.87-.93-5.86-2.5-5.86-2.5m22.53 1.22s-2.4-1.78-8.51-4.12c-6.11-2.33-8.51-3.22-8.51-3.22m24.26-.58s-4.79-2.44-10.27-4.91c-5.48-2.47-6.71-4.14-6.71-4.14s-1.1-1-1.58-1.9m0 1.9s.72.32 2.11.53m-13.84 4.26s2.57 3.05 6.18 3.05m-.31-1.84s.99.79.99 1.27m.48-.95l.58.95m18.7 6.99s.65-.55.99-2.13m.01 2.13s.21-.45.21-.96m3.39-13.03s-.31 3.05-2.61 4.53m3.43-2.48s-1.17 2.3-2.71 2.47m-19.81 21.88s1.45-.77 2.21-3.2m-.89 3.06s1.14-.18 1.94-1.64m-13.6-4.85s.14 1.6 2.24 2.13c.09 2.1-1.76 2.58-2.97 1.76-1.21-.82-1.21-1.19-1.21-1.19m-3.62-6.04s-2.31 1.94-2.54 2.7c-.23.76 1.9 3.11 4.37 2.2m-1.1-5.2s3.02 1.74 3.27 2.49c.25.75-1.42 2.45-1.42 2.45m-14.2-2.65s1.6 2.61 3.96 2.65c1.53.05 3.11-2.29 3.11-2.29s-1.85-1.05-3.53-2.79c-1.48.5-3.08 1.99-3.08 1.99m21.11 8.19s-.25 1.49-1.05 2.17" stroke="#32A1DF" stroke-linecap="round" stroke-linejoin="round"/><path d="M37.4 112.23a.54.54 0 00.1.53c.15.17 3.65 4.1 10.79 7.81 5.44 2.82 7.4 4.02 10.37 5.84.91.56 1.91 1.17 3.12 1.9 5.17 3.1 7.69 3.62 7.79 3.64h.1c.12 0 .24-.04.33-.11l3.88-3.01c1.08.49 1.75.75 1.77.76.06.02.13.04.2.04.18 0 .36-.09.46-.25.04-.06 1.23-1.94 3.13-4.85.86.05 3.46.31 5.14 1.57 1.16.87 2.15 1.1 2.89 1.1.83 0 1.33-.3 1.36-.32.07-.04.13-.1.17-.16.04-.06 2.71-4.19 6.33-10.94.86.29 2.94.99 5.4 1.84-.14 1.06-.13 3.52 2.54 5.25.7.45 1.39.64 2.06.64 1.83 0 3.47-1.39 4.42-2.57-.3 1.08-.57 3.31.91 6.37.67 1.39 1.85 2.23 3.43 2.44.27.04.54.05.81.05 1.49 0 3.06-.5 4.34-1.16.43 1.5 1.69 2.34 4.07 2.74.58.1 1.13.14 1.63.14 1.26 0 2.24-.25 2.84-.46.07.29.17.59.31.88.42.86 1.34 2.01 3.35 2.61.72.21 1.39.3 1.99.3 1.2 0 2.15-.35 2.81-.72.97-.53 1.73-1.35 2.12-2.2.56.04 1.12.06 1.68.06.7 0 1.39-.04 2.07-.09h.02c.01 0 .03 0 .04-.01.43-.03.85-.08 1.26-.13h.1s.04 0 .1-.02c2.09-.29 3.89-.81 5.1-1.42 2.03-1.03 2.47-2.31 2.55-2.99.76-.31 2.58-1.13 3.93-2.46.93-.91 1.18-1.73 1.19-2.35.59.14 1.42.22 2.41.02 1.7-.35 2.72-2.23 3.54-3.75.21-.39.42-.77.62-1.1.66-1.06.69-2.33.6-3.17 1.44.37 4.36.75 6.79-1.22 2.55-2.07 3.03-4.62 1.4-7.41l2.08-1.69c.39-.06 1.5-.24 3.43-.76 3.02 7.35 4.85 9.09 5.49 9.49l3.91 6.53c.11.18.32.28.53.26l1.17-.14c.78-.09 2.41.31 3.2.53.6 1.13 3.58 6.57 7.45 10.75.14.15.34.21.53.16 9.03-2.26 31.37-15.02 32.32-15.56.26-.15.35-.48.2-.74m.53-60.91a.5.5 0 000-.32.553.553 0 00-.69-.35c-.45.15-4.4 1.48-5.44 3.11-.35.54-.44 1.01-.3 1.4-.45.16-.98.4-1.59.75-17.21.26-46.95 11.45-47.25 11.56-.14.05-.26.16-.31.31-.06.14-.05.3.01.44l.22.47c-.57.07-1.47.19-2.77.41-1.78.3-2.86.7-3.13 1.16-.08.14-.09.32-.03.47l.33.82-5.93 1.77c-.93-.25-5.98-1.57-12.83-2.38-4.28-.5-6.64-.34-8.54-.2-1.5.1-2.79.2-4.62-.07-3.85-.56-6.1.3-6.65.54-.2-.02-.92-.17-2.64-1.1-2.26-1.22-5.33-2.39-9.08-.56-2.49 1.22-6.34 2.13-9.43 2.87-1.01.24-1.93.46-2.69.66-2.42.65-3.44 1.48-3.83 1.91-.75 0-1.68-.12-2.18-.2-.24-1.5-.53-2.39-.54-2.42a.528.528 0 00-.45-.36c-.07 0-6.9-.93-21.52-9.1-5.15-2.87-8.79-5.4-11.72-7.43-5.54-3.84-8.64-5.99-14.6-5.63-1.27-3.85-3.35-6.82-3.44-6.95a.544.544 0 00-.76-.13c-.14.1-.22.26-.22.43" stroke="#32A1DF" stroke-width="1.5" stroke-miterlimit="10"/></g><defs><clipPath id="clip0_684_4419"><path fill="#fff" d="M0 0h270v180H0z"/></clipPath></defs></svg>