<svg width="270" height="181" fill="none" xmlns="http://www.w3.org/2000/svg"><path d="M19.9 154.9l5.2 5.2m0-5.2l-5.2 5.2m22.5-5.2l5.2 5.2m0-5.2l-5.2 5.2m22.5-5.2l5.2 5.2m0-5.2l-5.2 5.2m22.5-5.2l5.2 5.2m0-5.2l-5.2 5.2m22.5-5.2l5.2 5.2m0-5.2l-5.2 5.2m22.5-5.2l5.2 5.2m0-5.2l-5.2 5.2m22.5-5.2l5.2 5.2m0-5.2l-5.2 5.2m22.5-5.2l5.2 5.2m0-5.2l-5.2 5.2m22.5-5.2l5.2 5.2m0-5.2l-5.2 5.2m22.5-5.2l5.2 5.2m0-5.2l-5.2 5.2m22.5-5.2l5.2 5.2m0-5.2l-5.2 5.2m-225-27.7l5.2 5.2m0-5.2l-5.2 5.2m22.5-5.2l5.2 5.2m0-5.2l-5.2 5.2m22.5-5.2l5.2 5.2m0-5.2l-5.2 5.2m22.5-5.2l5.2 5.2m0-5.2l-5.2 5.2m22.5-5.2l5.2 5.2m0-5.2l-5.2 5.2m22.5-5.2l5.2 5.2m0-5.2l-5.2 5.2m22.5-5.2l5.2 5.2m0-5.2l-5.2 5.2m22.5-5.2l5.2 5.2m0-5.2l-5.2 5.2m22.5-5.2l5.2 5.2m0-5.2l-5.2 5.2m22.5-5.2l5.2 5.2m0-5.2l-5.2 5.2m22.5-5.2l5.2 5.2m0-5.2l-5.2 5.2m-225-27.7l5.2 5.2m0-5.2l-5.2 5.2m22.5-5.2l5.2 5.2m0-5.2l-5.2 5.2m22.5-5.2l5.2 5.2m0-5.2l-5.2 5.2m22.5-5.2l5.2 5.2m0-5.2l-5.2 5.2m22.5-5.2l5.2 5.2m0-5.2l-5.2 5.2m22.5-5.2l5.2 5.2m0-5.2l-5.2 5.2m22.5-5.2l5.2 5.2m0-5.2l-5.2 5.2m22.5-5.2l5.2 5.2m0-5.2l-5.2 5.2m22.5-5.2l5.2 5.2m0-5.2l-5.2 5.2m22.5-5.2l5.2 5.2m0-5.2l-5.2 5.2m22.5-5.2l5.2 5.2m0-5.2l-5.2 5.2m-225-27.7l5.2 5.2m0-5.2l-5.2 5.2m22.5-5.2l5.2 5.2m0-5.2l-5.2 5.2m22.5-5.2l5.2 5.2m0-5.2l-5.2 5.2m22.5-5.2l5.2 5.2m0-5.2l-5.2 5.2m22.5-5.2l5.2 5.2m0-5.2l-5.2 5.2m22.5-5.2l5.2 5.2m0-5.2l-5.2 5.2m22.5-5.2l5.2 5.2m0-5.2l-5.2 5.2m22.5-5.2l5.2 5.2m0-5.2l-5.2 5.2m22.5-5.2l5.2 5.2m0-5.2l-5.2 5.2m22.5-5.2l5.2 5.2m0-5.2l-5.2 5.2m22.5-5.2l5.2 5.2m0-5.2l-5.2 5.2m-225-27.7l5.2 5.2m0-5.2l-5.2 5.2m22.5-5.2l5.2 5.2m0-5.2l-5.2 5.2m22.5-5.2l5.2 5.2m0-5.2l-5.2 5.2m22.5-5.2l5.2 5.2m0-5.2l-5.2 5.2m22.5-5.2l5.2 5.2m0-5.2l-5.2 5.2m22.5-5.2l5.2 5.2m0-5.2l-5.2 5.2m22.5-5.2l5.2 5.2m0-5.2l-5.2 5.2m22.5-5.2l5.2 5.2m0-5.2l-5.2 5.2m22.5-5.2l5.2 5.2m0-5.2l-5.2 5.2m22.5-5.2l5.2 5.2m0-5.2l-5.2 5.2m22.5-5.2l5.2 5.2m0-5.2l-5.2 5.2m-225-27.7l5.2 5.2m0-5.2l-5.2 5.2m22.5-5.2l5.2 5.2m0-5.2l-5.2 5.2m22.5-5.2l5.2 5.2m0-5.2l-5.2 5.2m22.5-5.2l5.2 5.2m0-5.2l-5.2 5.2m22.5-5.2l5.2 5.2m0-5.2l-5.2 5.2m22.5-5.2l5.2 5.2m0-5.2l-5.2 5.2m22.5-5.2l5.2 5.2m0-5.2l-5.2 5.2m22.5-5.2l5.2 5.2m0-5.2l-5.2 5.2m22.5-5.2l5.2 5.2m0-5.2l-5.2 5.2m22.5-5.2l5.2 5.2m0-5.2l-5.2 5.2m22.5-5.2l5.2 5.2m0-5.2l-5.2 5.2M42.4 19.9l5.2 5.2m0-5.2l-5.2 5.2m22.5-5.2l5.2 5.2m0-5.2l-5.2 5.2m22.5-5.2l5.2 5.2m0-5.2l-5.2 5.2m22.5-5.2l5.2 5.2m0-5.2l-5.2 5.2m22.5-5.2l5.2 5.2m0-5.2l-5.2 5.2m22.5-5.2l5.2 5.2m0-5.2l-5.2 5.2m22.5-5.2l5.2 5.2m0-5.2l-5.2 5.2m22.5-5.2l5.2 5.2m0-5.2l-5.2 5.2m22.5-5.2l5.2 5.2m0-5.2l-5.2 5.2m22.5-5.2l5.2 5.2m0-5.2l-5.2 5.2" opacity=".5" stroke="#32A1DF" stroke-width=".5" stroke-miterlimit="10"/><path d="M.5 44.39L44.39.5H269.5v179H.5V44.39z" stroke="#32A1DF"/><mask id="mask0_684_4192" style="mask-type:luminance" maskUnits="userSpaceOnUse" x="0" y="0" width="270" height="180"><path d="M.5 44.39L44.39.5H269.5v179H.5V44.39z" fill="#fff"/></mask><g mask="url(#mask0_684_4192)" stroke="#32A1DF"><path d="M197.97 26.51c-.96-3.65-2.61-7.72-3.21-8.77-.58-1.01-1.66-2.9-4.27-1.84-1.51.53-3 2.02-3.33 3.24-.62.09-1.2.42-1.63.93-.44.53-.68 1.19-.66 1.83l-.08.04c-.85.39-1.53.7-2.12 1.4-.75.88-.71 2.04-.35 2.48.03.04.11.13.22.26.58.67 2.36 2.72 3.26 4.13 1.1 1.74 2.13 4.44 2.55 6.72.41 2.25.73 5.96.27 9.1-.05.09-.13.16-.21.22-.52-.41-1.46-1.12-1.95-1.22-.64-.14-1.93.06-2.9 1.12-.71.79-.79 1.34-.85 1.82-.02.14-.04.28-.08.43-.02.07-.04.12-.05.17-.66-.57-2.21-1.71-4.24-1.93.04-2.05-.3-4.21-.93-5.73-.69-1.66-1.82-3.88-4.54-6.32-2.6-2.33-5.13-3.84-10.03-5.99-.94-.41-1.92-.8-2.92-1.17-.1-.05-.18-.07-.22-.08-3.67-1.33-7.69-2.36-12.04-3.06-3.58-.58-5.82-.94-10.35-.82-2.04.05-4.53.2-7.83.46-10.21.83-17.06 4.09-20.23 5.96-2.73 1.61-5.28 4.16-6.68 6.66-1.24 2.23-1.36 3.69-1.44 4.75l-.03.39c-.07.72-.06 2.39-.05 4.33v2.39c-.05-.03-.09-.06-.13-.08-.05-.4-.28-.83-.86-.98-.24-.06-.41-.11-.53-.15-.09-.3-.3-.74-.74-.9-.26-.09-.61-.23-.82-.32-.08-.13-.18-.26-.3-.41-.17-.21-.69-.73-1.38-1.16-.56-.35-1.23-.65-1.92-.65-1.61 0-3.21 1.46-4 3.65l-.19.53c-.91 2.48-3.04 8.29-4.12 16.8-1.19 9.36.64 16.49 1.84 19.91 1.05 3.01 2.31 6.21 4.4 9.34-.5 1.39-1.21 3.12-1.33 3.41-.06.11-.14.31-.11.58.05.44.34.88.89 1.36-.07.16-.15.32-.22.48-.76 1.63-1.54 3.32-.39 4.02.96.58 13.52 8.28 14.8 9.17 1.2.84 2.07 2.82 1.91 3.79-.05.28-.14.49-.25.54-.09.05-.24.01-.34-.03-1.55-.7-2.25.08-2.48.45-.31.5-1.16 2.27 1.05 3.84 1.41 1 4.58 2.88 5.32 3.31.58 1.44 4.98 12.04 12.79 22.45l-.1.12c-.8.94-1.49 1.76-1.49 2.53 0 .77 1.08 2.61 2.37 4.01.22.23.43.46.66.65.48 2.99-.55 6.65-1.12 7.64-1.09.94-2.34 2.65-3.66 4.46l-.68.93c-1.58 2.13-5.33 5.39-7.34 7.14-1.56 1.35-2.84 2.81-3.82 4.33a.5.5 0 00.15.69c.06.04.13.06.21.07l26.46.01h25.51c.1 0 .2-.03.29-.09a.51.51 0 00.13-.7c-1.1-1.59-2.69-3.11-4.23-4.59-1.44-1.38-2.92-2.81-3.98-4.26-2.27-3.12-5.1-7.43-5.46-7.98-.12-.41-.79-2.69-.81-4.73-.03-2.13.07-2.22 1.19-3.29l.38-.36c1.05-.98 1.95-1.82 1.92-2.99-.03-.93-.82-2.24-1.22-2.85.78-.97 3.36-4.26 5.84-8.49 2.9-4.93 3.17-5.44 3.18-5.47.07-.13 6.82-12.7 10.65-21.91 2.27-2.23 2.96-2.96 2.96-2.96.07-.06 1.62-1.4 1.18-3.19a3.483 3.483 0 00-2.35-2.55c-.11-.03-.23-.05-.35-.06.72-1.21 2.07-3.43 2.54-4.12.58-.84 2.78-3.28 6.22-6.68 3-2.96 10.35-9.68 11.02-10.29.48-.27 1.14-1.05.6-2.36-.38-.93-.74-1.83-.91-2.28.32-.39.82-1.18.54-2.02-.25-.74-1.08-2.42-1.4-3.07.65-1.03 3.24-5.19 4.73-8.66 1.65-3.84 3.62-9.8 4.38-13.29.77-3.51 1.3-7.9 1.36-11.2.06-3.43-.47-9.4-1.43-13.06l-.09.07z" fill="#fff" stroke-width="1.5" stroke-miterlimit="10"/><path d="M161.03 179.5c-2.09-3.02-5.98-5.79-8.2-8.84-2.46-3.37-5.51-8.06-5.51-8.06s-.83-2.6-.86-4.94c-.03-2.34.17-2.54 1.34-3.66 1.17-1.12 2.17-1.91 2.14-2.97-.03-1.06-1.34-2.89-1.34-2.89s3.06-3.66 6.03-8.71c2.97-5.05 3.17-5.46 3.17-5.46s6.81-12.66 10.67-21.96c2.36-2.31 3.06-3.06 3.06-3.06s1.39-1.18 1.01-2.69c-.38-1.51-1.54-2.06-2-2.19-.46-.13-1.13 0-1.13 0s2.36-3.96 3.04-4.95c.68-.99 3.11-3.62 6.28-6.75 3.17-3.13 11.08-10.35 11.08-10.35s.96-.45.43-1.76c-.54-1.31-1.03-2.57-1.03-2.57s.94-.88.64-1.76c-.3-.88-1.5-3.26-1.5-3.26s3.13-4.84 4.84-8.83 3.64-9.96 4.35-13.2c.71-3.24 1.29-7.59 1.35-11.1.06-3.51-.49-9.43-1.41-12.92-.92-3.49-2.55-7.59-3.13-8.59-.58-1.01-1.44-2.59-3.71-1.67-1.54.54-3.06 2.21-3.06 3.24-1.37-.04-2.44 1.33-2.19 2.59-1.05.49-1.76.75-2.36 1.46-.6.71-.54 1.61-.34 1.84.19.24 2.44 2.74 3.51 4.44 1.07 1.69 2.16 4.46 2.61 6.9.45 2.44.73 6.24.26 9.34-.21.47-.75.66-.75.66s-1.48-1.22-1.99-1.33c-.51-.11-1.61.06-2.42.96-.81.9-.64 1.35-.81 2.04-.17.69-.56.71-.56.71s-1.99-2.06-4.74-2.12c.11-2.01-.2-4.38-.87-6.01-.67-1.63-1.79-3.79-4.41-6.14-2.63-2.36-5.23-3.86-9.9-5.9-4.67-2.04-9.76-3.41-15-4.26-5.24-.84-7.53-1.22-18.14-.36s-17.4 4.35-20.02 5.89c-2.61 1.54-5.14 4.05-6.49 6.47-1.35 2.42-1.31 3.86-1.41 4.95-.11 1.09-.02 4.66-.04 7.7-.81-.75-1.14-.78-1.14-.78s.15-.66-.47-.81c-.62-.15-.84-.26-.84-.26s-.09-.66-.49-.8-1.03-.4-1.03-.4.03-.06-.31-.49c-.34-.43-1.66-1.63-2.91-1.63-1.25 0-2.76 1.17-3.53 3.31s-3.13 8.1-4.29 17.23c-1.16 9.13.59 16.17 1.81 19.69 1.23 3.51 2.51 6.54 4.49 9.44-.56 1.56-1.44 3.71-1.44 3.71s-.43.51.94 1.56c-.71 1.63-1.89 3.66-.96 4.22.92.56 13.51 8.27 14.83 9.19 1.31.91 2.31 3.09 2.11 4.29-.2 1.2-.97 1.03-1.29.89-.32-.14-1.34-.57-1.86.26-.51.83-.66 2.06.91 3.17 1.57 1.11 5.43 3.37 5.43 3.37s4.46 11.5 13.03 22.82c-.86 1.03-1.74 1.95-1.74 2.64 0 .69 1.44 3.09 3 4.41.6 3.3-.6 7.29-1.2 8.23-1.24 1.05-2.81 3.3-4.33 5.36-1.52 2.06-4.95 5.08-7.41 7.22-1.16 1.01-2.56 2.42-3.72 4.22m65.66-104.76c-.06-6.2-.51-11.17-.6-12.63-.09-1.46.77-4.29 2.2-6.11 0 0 2.16-.94 3.96-.6 1.67 1.54 3.04 4.03 3.39 7.54.35 3.51-.13 7.84-1.56 11.12-1.44 3.28-3.19 5.7-4.63 8.27-1.44 2.57-3.56 5.7-3.56 5.7s.86-7.09.8-13.29zm-80.11-5.05c.66-10.36 6.41-19.01 6.41-19.01l.43-.3s.13 1.39.45 1.69c.32.3.62.64 1.48 2.38-1.93 5.1-1.39 9-.46 12.2-2.9 1.19-4.36 3.99-4.36 3.99s-.19-.56-.54-.81c-.36-.26-1.01-.67-1.79-.66-.77.01-1.62.52-1.62.52zm7.51 31.17c-1.71-2.6-3.89-5.54-4.26-9.06-.37-3.51-.23-6.54 1.26-10.09 1.49-3.54 2.46-5.37 3.31-5.89-.17 2.83-.2 6.51.43 14.57s2.36 15.32 2.36 15.32-1.39-2.26-3.1-4.86v.01z" stroke-linecap="round" stroke-linejoin="round"/><path d="M176.4 55.99l-1.71.77s-.4.2-1.26-.39c-.86-.59-2.31-1.64-2.31-1.64s-1.2-.37-1-2.71c.2-2.34.17-3.43 2.03-4.2 1.86-.77 3.74-.72 5.67-.72m-75.31 28.72s.11-6.74.49-9.17m-1.47-16.27v-.93m66.94 62.56l-5.73 5.44s-.83.49-1.66.23-2.06-.86-1.66-2.37c.4-1.51 2.34-7.03 2.34-7.03s.2-.66 1.1-1.13c.9-.47 1.3-.7 1.3-.7s-.43-1.8.49-3.66c.91-1.86 3.71-6.06 5.86-9.29 2.14-3.23 3.49-5.48 3.49-5.48m-68.7 17.69s3.63 13.16 6.21 18.89" stroke-linecap="round" stroke-linejoin="round"/><path d="M101.521 45.82s.22-7.14 14.91-11.71c14.69-4.57 32.45-3.62 46.4 2 12.63 5.09 13.89 10.99 13.89 10.99" stroke-linecap="round" stroke-linejoin="round"/><path d="M130.894 65.013c5.769-9.048 4.873-19.936-2-24.318-6.874-4.382-17.123-.6-22.891 8.449-5.769 9.048-4.874 19.935 2 24.318 6.873 4.382 17.122.6 22.891-8.449z" stroke-linecap="round" stroke-linejoin="round"/><path d="M126.07 39.4s10.47 2.82 11.79 12.25c1.31 9.43-5.98 16.99-16.39 21.95" stroke-linecap="round" stroke-linejoin="round"/><path d="M128.364 63.4c4.742-7.437 4.146-16.296-1.33-19.788-5.477-3.491-13.76-.293-18.502 7.144-4.741 7.437-4.146 16.297 1.331 19.788 5.476 3.492 13.76.294 18.501-7.143z" stroke-linecap="round" stroke-linejoin="round"/><path d="M123.997 60.616c2.654-4.163 2.322-9.122-.742-11.076-3.065-1.953-7.7-.162-10.355 4.001-2.654 4.163-2.322 9.122.743 11.076 3.064 1.953 7.7.162 10.354-4.001zM189.22 77.7l-1.13-1.25s-.4-.49-1.26.46c-.33.36-2.83 3.48-6 7.48m7.53-11.7s-1.64-.99-2.61 0c-.61.63-4.82 7.79-9.03 14.36m10.87-67.44s6.87 5.59 7.16 17.36M185.4 22.2s8.4 7.62 6.51 22.77m-7.02 21.57s2.7-6.86 2.83-13.24c.13-6.39-2.04-5.96-2.51-5.68m-.61 12.43s.2-7.38-3.74-10.01c-3.94-2.63-8.26-1.08-8.83-.34m8.34 5.69s-2.01-2.48-5.36-1.49" stroke-linecap="round" stroke-linejoin="round"/><path d="M186.83 76.91s.93-1.09 1.27-1.44c.34-.35.26-.79 0-1.48l-.38-1.01m.79 4.66l.71 1.91s.36.78-.13 1.27c-.29.29-6.08 5.4-11.4 10.77m-18.33 24.1s.35.86 1.23.09 9.13-8.49 9.13-8.49 1.03-.79 1.07-1.82m-6.62.98s1.09-.49 2.05-.66c.96-.17 1.24-.13 1.82-.56m24.15-42.8c2.52-5.79 5.26-13.62 5.68-21.05.81-14.27-3.94-23.02-4.41-23.79-.47-.77-.9-1.54-2.81-1.22m-50.51 117.89s1.71-5.14 3.34-21.17 3.09-44.06 3.09-44.06" stroke-linecap="round" stroke-linejoin="round"/><path d="M140.14 134.26s3.8-5.6 5.91-12.2c2.11-6.6 2.83-11.63 3.14-17.72.31-6.09.6-9.71.09-16.72-.51-7-1.95-15.4-2.21-16.71-.26-1.31-.5-1.89-.5-1.89s-1.37 3.77-2.57 8.03c-1.2 4.26-3.51 12.43-4.23 17.12-.72 4.69-2.34 12.14-2.46 17.49-.11 5.34-.09 8.6.57 12.94.66 4.34 1.49 7.34 1.71 8.14.22.8.55 1.52.55 1.52zm14.41-42.72c.51-1.54 3.51-17.29 3.34-27.06-.17-9.77-.77-13.86-.34-15.03s.86-4.77 1.29-8.8c.43-4.03-.69-6.21-.69-6.21" stroke-linecap="round" stroke-linejoin="round"/><path d="M148.5 62.55s3.13 9.5 3.81 22.59c.69 13.09.51 27.49-2.51 37.2m-10.34 19.03s-8.23-16.77-2.7-46.33c3.61-19.36 7.59-30.48 9.29-34.69.15-.36.69-.23.64.16" stroke-linecap="round" stroke-linejoin="round"/><path d="M135.84 61.7s1.45 1.04 1.16 5.44c-.29 4.4-.7 22.66-.73 30.66m.66-49.49s1.16-3.46 1.33-8.39c.17-4.93 2.31-8.6 2.31-8.6m19.02-3.49s.92.17.96 2.32c.04 2.14 0 5.09 0 5.09m-22.349-4.01s-.91 0-.91-1.46v-5.8M117.97 79.54s-10.83 39.06 11.77 64.75c0-4.57.13-4.97-1.22-6.8s-5.86-9.06-9.29-23.46c-3.43-14.4.17-27.17-.13-29.14-.3-1.97-1.13-5.34-1.13-5.34v-.01z" stroke-linecap="round" stroke-linejoin="round"/><path d="M129.74 144.29s1.55-4.69 1.61-12.34c.06-7.66-2.4-19.09-4.8-28.63s-6.06-20.57-8.57-23.77m1.88 9.36s-1.59 21.2 8.66 48.57M108.75 73.9s-.95 33.01 8.19 53.24m-8.059-81.7s-.03-2.77-2.32-6.67m1.989-7.86v5.37s.05 1.13-.6 1.56m16.591 109.57s3.5-3.13 11.26-3.13 10.74 1.6 12.8 3.86" stroke-linecap="round" stroke-linejoin="round"/><path d="M146.23 146.21s5.15-7.84 9.18-16.42c4.03-8.57 3.96-9.77 3.96-9.77m-55.48-39.08s3.19 18.75 7.16 30.04 10.3 26.27 11.9 32.67M92.33 99.22s4.66 3.16 9.19 7.03m4.47 1.88s-6.87-9.45-9.16-13.39c-2.29-3.94-2.14-8.75-.46-13.8 1.68-5.05 4.19-7.58 6.24-8.55m-5.04-26s-1.24.63-2.09 2.63c-.73 1.71-4.16 9.26-4.67 15.89" stroke-linecap="round" stroke-linejoin="round"/><path d="M95.95 44.81s-.82.41-1.52 1.58c-.58.98-4.86 9.56-5.59 17.83-.25 2.88-.32 6.2-.12 9.68m4.11-2.18c.73-.39 1.02-1.66 1.86-2.04m4.4-22.09c.09.56-.3 1.34-.9 2.32-.6.98-3.2 6.74-4.01 10.38m.06 28.62s-1.8-7.11-1.63-11.7c.17-4.59 1.66-5.76 3.13-6.26m7.08-2.56s-5.53 2.72-7.08 10.57m73.55-19.54s-1.46.44-1.97 2.28c-.51 1.84-.17 7.15.73 15.21s-.97 19.29-.97 19.29m-4.13-5.43s.07 8.83-6.26 22.43c-3.31 7.1-8.74 18.14-11.91 23.3-3.17 5.15-3.42 8.16-3.42 8.16m5.96 17.94c-.57-.31-.46-.43-1-.14-.83-.86-1.29-.8-1.83-.43-1.51-1.06-1.89-1.09-2.51-.8-1.23-.97-1.6-.83-2.29-.51-1.46-.86-2.77-.67-3.54-.24-1.43-.65-2.15-.19-2.66.11-.75-.41-1.61.02-2.08.34-1.14-.75-1.95.04-1.95.04s-.58-.71-1.95.21c-1.18-.19-2.89 1.5-2.89 1.5m10.921 16.82l.42-17.44" stroke-linecap="round" stroke-linejoin="round"/><path d="M144.91 179.5c-.32-1.34-.97-3.43-2.24-6.46-2.57-6.13-3.09-10.63-3.09-10.63m2.39-1.18s.7 3.41 2.29 6.76c1.59 3.35 4.93 6.47 6 9.69m4.64 1.82c-.13-.36-.29-.74-.49-1.14-1.84-3.86-4.93-6.34-6.86-9.56-1.93-3.21-2.57-4.97-2.57-4.97m-11.5-3.24s-.76 2.44-1.16 6.09c-.4 3.65-1.2 5.6-2.57 8.4-.83 1.69-1.2 3.36-1.36 4.41m-4.69.01c.32-1.02.75-2.17 1.36-3.44 2.57-5.37 4.74-9.91 5.54-12.51m-1.15-2.57s-.88 3.15-3.79 7.69c-2.91 4.54-3.99 5.96-3.99 5.96m3.371-20.91s2.45-2.41 10.92-2.41c8.47 0 10.35 1.71 10.35 1.71" stroke-linecap="round" stroke-linejoin="round"/><path d="M135.96 159.84s-.76-.73-.28-3.17.3-3.04.28-3.81c-.02-.77-.94-.73 1.3-.99m3.78-.3s.12-.07 0 2.15c-.12 2.22-.09 2.52 0 4.11.09 1.59-.269 2.69-.269 2.69m-13.741-.68s.77-3.07.77-4.73c0-1.66.14-1.4.23-.8.09.6.23 4.61-.17 6.66m17.02-5.48s.08 4.63.91 6.5m-38.76-44.19l2.29 1.03" stroke-linecap="round" stroke-linejoin="round"/></g></svg>