<svg width="269" height="179" fill="none" xmlns="http://www.w3.org/2000/svg"><g clip-path="url(#clip0_675_12491)"><path d="M0 179V43.98L43.89 0H269v179H0z" fill="#DAE9F1"/><path d="M0 179v-58.184L269 84.5V179H0z" fill="#9CBED1"/><path opacity=".2" d="M121.57 101.81L60.53 179h68.12l-7.08-77.19z" fill="#fff"/><path opacity=".2" d="M121.57 101.81L230.06 179H269l-147.43-77.19z" fill="#fff"/><path opacity=".5" d="M82.12 0h95.82l-56.37 101.81L82.12 0zM269 3.27v25.65l-147.43 72.89L269 3.27z" fill="#fff"/><path opacity=".7" d="M269 42.49v42.25l-147.43 17.07L269 42.49z" fill="#fff"/><path opacity=".5" d="M73.57 0l48 101.81L55.48 0h18.09z" fill="#fff"/><path opacity=".5" d="M0 120.79V43.98l121.57 57.83L0 120.79z" fill="#EDF4F8"/><path d="M163.616 73.527c-1.592-12.651-22.576-19.661-50.356-18.377-28.077 1.304-45.356 14.272-45.356 14.272-18.06-.428-32.34 14.271-31.894 32.825.447 18.554 15.454 33.933 33.514 34.362 6.238.149 12.028-1.509 16.906-4.506l1.22 7.112 14.793 2.849 12.484-5.632 9.756-9.487 3.398-3.509 8.546.437 2.961-.884 1.908-3.668 10.306-11.618 9.589-16.925 2.681-12.503-.494-4.748h.038zm-16.562 12.661s-3.864 2.57-6.936 2.942c-.726 1.024-1.089 5.325-1.089 5.325l-.568-4.831s.41-4.218-7.038-4.218c-7.447 0-5.623 6.284-5.623 6.284l.875 6.321-18.535-10.194-8.537 5.642c-4.021-12.019-14.29-21.272-26.662-23.516l1.043.103L91.82 69.3l25.275-2.849 30.61 9.682-.671 10.045.019.01z" fill="#fff"/><path d="M73.918 69.739c2.821-1.36 5.623-2.765 8.481-4.06 9.692-4.394 19.941-6.209 30.508-6.535 7.866-.242 15.64.41 23.218 2.672 4.31 1.285 8.406 3.054 11.757 6.172 1.881 1.75 3.38 3.77 4.227 6.238.754 2.206.642 4.366-.326 6.47-1.033 2.262-2.681 4.003-4.729 5.492-2.337-2.83-5.12-4.97-8.314-6.59-5.529-2.812-11.459-3.91-17.594-4.125-9.924-.354-19.606.94-28.972 4.366-.307.112-.884.037-1.089-.177-4.701-4.97-10.398-8.183-17.092-9.607-.028-.102-.047-.205-.075-.307v-.01zM63.38 122.598c-7.131-1.527-13.583-8.872-14.765-16.767-1.34-8.965 2.84-17.669 10.473-21.905 7.28-4.04 16.069-2.849 21.273 1.192-12.903 9.188-17.568 22.101-16.981 37.48zm4.618 13.824c-10.976-.782-19.29-5.678-25.275-14.634.083.065.167.121.242.195 5.809 6.88 13.154 10.837 22.166 11.553 1.108.084 1.768.475 2.122 1.499.14.401.4.754.745 1.397v-.01zm-14.02-67.624c-1.08.522-.96 1.331-.596 2.262.559 1.415.53 1.415-.82 2.15-.595.327-1.172.671-1.759 1.016-.158.093-.307.27-.456.27-.857-.019-1.9.204-2.514-.205-.782-.512-.074-1.406.345-1.955a55.157 55.157 0 013.36-4.013c.745-.81 1.388-.642 2.449.475h-.01zm78.813 17.949c.689.168 1.416.242 2.049.521.996.438 1.135 1.369.409 2.179-1.182 1.33-4.766 1.917-6.321 1.033-1.024-.587-1.136-1.787-.056-2.402 1.173-.67 2.514-1.033 3.789-1.527.047.066.093.13.14.187l-.01.009z" fill="#40748F"/><path d="M54.61 72.094a209.13 209.13 0 01-.716-2.123c2.178-.735 4.273-1.089 6.554.15-2.03.688-3.891 1.321-5.828 1.973h-.01zm21.235 56.481c1.49-.876 2.784-1.695 4.143-2.393.428-.214 1.052-.205 1.555-.102 1.796.372 3.36 2.28 3.295 4.124-.018.633-.232 1.443-.66 1.843-1.136 1.052-2.43 1.927-3.79 2.97-.028-3.268-1.49-5.316-4.543-6.433v-.009zm65.679-9.915c-.391.67-.661 1.443-1.182 1.983-2.02 2.067-7.085 2.997-9.747 1.843-.261-.112-.41-.475-.493-.838 2.606.857 5.083.68 7.512-.251 1.304-.503 2.56-1.127 2.989-2.672.046-.158.335-.261.512-.382.139.103.279.214.409.317zm-46.044 4.552c.353-7.438 2.43-14.634 7.81-20.555 1.08-1.192 2.449-2.225 3.873-2.998 3.835-2.085 7.699-.959 10.008 2.737 1.498 2.393 2.187 5.065 2.346 7.829.484 8.37-1.62 16.004-6.861 22.641-1.388 1.76-3.082 3.184-5.139 4.115-3.454 1.564-6.778.735-9.05-2.299-1.833-2.458-2.531-5.325-2.82-8.314-.093-.921-.093-1.852-.158-3.165l-.01.009z" fill="#40748F"/><path d="M163.867 74.728c-.047-.4-.168-.8-.252-1.2.522 4.468-.921 8.266-3.742 11.618-2.616 3.11-5.949 5.213-9.691 6.703-2.262.893-4.515 1.796-6.787 2.662-.512.196-.8.419-.828 1.052-.159 3.826-.373 7.643-.568 11.469-.177 3.38-.345 6.75-.512 10.129-.065 0-.121 0-.186.009-.652-6.321-1.304-12.642-1.955-18.982-.475.568-.81 1.145-1.304 1.527-2.467 1.927-5.306 2.346-8.322 1.936-.27-.037-.494-.428-.773-.679.205-.13.242-.168.27-.168.279.038.568.075.847.112 2.337.298 4.645.047 6.6-1.266 1.024-.689 2.309-1.871 2.393-2.914.177-2.28-.335-4.618-.577-7.112-2.477 3.844-8.779 4.831-12.67 2.066.111 1.313.214 2.542.325 3.808-1.638-1.76-3.053-3.528-4.72-5.027-8.313-7.485-18.162-10.408-29.203-9.487-1.574.13-3.166.606-4.636 1.201-1.713.69-1.872 1.955-.596 3.287.26.279.596.484.95.763-15.901 8.285-22.018 33.16-15.78 47.423 0 0 .111 1.228 1.74 3.649 4.516 7.857 13.052 11.274 21.98 6.926.466-.223.996-.391 1.508-.428 1.536-.112 3.082-.028 4.599-.214 12.028-1.48 21.077-7.345 26.691-18.228.102-.186.232-.363.474-.745.093.875.196 1.508.224 2.141.065 1.573.94 2.56 2.346 3.007 3.286 1.033 6.367.549 9.123-1.555 1.043-.791 1.452-1.88 1.285-3.221a79.094 79.094 0 01-.494-4.906c-.018-.326.224-.847.494-.996 7.578-4.18 13.238-10.333 18.144-17.325 2.272-3.23 3.677-6.656 3.882-10.594.047-.922.233-1.834.354-2.756v-7.94c-.205-1.91-.4-3.818-.624-5.726l-.009-.019zm-42.628 54.07c-4.59 4.394-9.775 7.894-16.097 9.43-1.126.28-2.141.969-3.249 1.369-3.249 1.182-6.06.289-8.462-2.002-2.513-2.392-3.733-5.511-4.226-8.844-1.564-10.724 1.033-20.341 7.996-28.71.727-.875 1.592-1.648 2.495-2.337 3.51-2.7 7.28-3.928 11.535-1.675.065-.066.121-.13.186-.196-.959-1.648-1.908-3.296-2.932-5.046 2.82 1.015 5.362 2.346 7.671 4.106 4.235 3.22 7.484 7.261 9.626 12.139 3.388 7.727 1.778 15.715-4.553 21.766h.01z" fill="#40748F"/><path d="M122.088 146.834s-.037.754 1.508 1.266c1.546.512 6.182 1.965 10.511 2.849 4.329.884 10.147 2.532 15.174 2.616 5.027.084 6.908.41 12.084-4.841 2.439-2.476 4.403-8.332 9.086-9.468 4.683-1.135 8.434-.679 12.009-.53 3.575.149 7.876.27 7.783-3.389-.093-3.659-7.178-10.147-18.256-13.443-11.078-3.295-23.478-2.188-31.55 2.523-8.071 4.711-10.957 8.257-13.126 10.734-2.169 2.476-5.968 8.676-5.213 11.674l-.01.009z" fill="#fff"/><path d="M144.478 132.051c-.028.633-.317 1.145-.605 1.62-1.555 2.597-3.556 4.813-5.921 6.702-.289.233-.615.41-.95.578-.474.232-.67.177-1.014-.252-.596-.735-.671-1.61-.54-2.485.307-2.039 1.182-3.808 2.69-5.223 1.359-1.275 2.97-1.806 4.822-1.452.503.102.987.326 1.518.512z" fill="#40748F"/><path d="M190.225 135.951h-.019c-.382 3.026-4.385 2.914-7.755 2.775-3.584-.14-7.894-1.229-5.465-1.443 2.858-.261 5.707-.103 8.547-.103 1.154-.037 1.955-.8 1.256-.81-1.126-.037-2.243-.167-3.379-.251-4.571-.447-9.431-.372-14.029 1.117-2.076-5.39-11.06-7.708-16.078-8.937-5.828-1.303-11.888-1.294-17.8-.717 4.888-.316 9.831-.158 14.663.708 1.601.288 3.184.717 4.729 1.182 4.115 1.275 9.831 3.184 12.438 6.74.335.466.586.959.763 1.48-.158.056-.317.121-.456.177-.689.27-4.683 1.992-11.088 10.566-1.517 2.03-4.329 2.589-6.256 2.523-2.644-.139-5.26-.447-7.866-.754-2.421-.298-4.86-.577-7.252-1.005a80.565 80.565 0 01-10.185-2.653l-.075.139a75.462 75.462 0 0010.083 3.017l.549.111.549.112.559.102.558.103c4.264.707 10.217 1.625 14.574 1.988-.931.991-1.852.931-2.793.931-4.999-.503-10.57-1.216-14.89-2.109-4.32-.885-8.965-2.346-10.511-2.849-1.247-.41-1.461-.977-1.498-1.182.074.754.791 6.721 3.77 7.643 3.175.987 12.149 3.668 18.936 4.58 6.786.912 12.484 2.272 24.428-2.29 0 0 10.259-4.031 14.634-6.973 4.376-2.942 6.312-4.645 6.498-8.686.186-4.04-.139-5.241-.139-5.241v.009z" fill="#40748F"/><path d="M134.712 137.041c-.121.959-.252 1.917-.307 2.886-.028.605-.094 1.21.083 1.787.159.512.522 1.08 1.034 1.229.139.037.232.018.409-.028a3.59 3.59 0 00.745-.326c1.322-.763 2.467-1.843 3.51-2.951 1.787-1.974 3.761-3.929 5.222-6.144.391-.605.782-1.266.941-1.965.111-.54-.028-.977-.503-1.275-.884-.596-2.393-.419-3.379-.102a6.568 6.568 0 00-.894.363 4.997 4.997 0 011.704-.987c.744-.261 1.619-.41 2.439-.214.4.111.782.288 1.089.568 2.364 2.215-2.653 7.643-4.227 9.365-.893.95-1.796 1.955-2.802 2.784-1.015.837-2.737 2.103-4.105 2.085-1.136-.075-1.89-1.173-2.048-2.197-.131-.689.028-1.397.176-2.067.224-.959.531-1.89.894-2.802l.019-.009z" fill="#40748F"/><path d="M132.087 150.521l-.503-.158c.065-.196 1.555-4.748 3.1-7.271l.447.279c-1.518 2.467-3.035 7.113-3.054 7.159l.01-.009zm13.945-20.63l-.447-.279c.038-.056.848-1.304 2.17-2.132l.279.447c-1.22.763-2.002 1.964-2.011 1.973l.009-.009z" fill="#40748F"/></g><defs><clipPath id="clip0_675_12491"><path fill="#fff" d="M0 0h269v179H0z"/></clipPath></defs></svg>