<svg width="269" height="179" fill="none" xmlns="http://www.w3.org/2000/svg"><g clip-path="url(#clip0_671_11998)"><path d="M0 179V43.98L43.89 0H269v179H0z" fill="#DAE9F1"/><path d="M269 143.24l-269-.28V179h269v-35.76z" fill="#9CBED1"/><path opacity=".2" d="M26.42 142.99L60.53 179h68.12L26.42 142.99zm49.2 7.3L230.06 179H269L75.62 150.29z" fill="#fff"/><path opacity=".1" d="M82.12 0h95.82L26.42 142.99 82.12 0z" fill="#465E75"/><path opacity=".5" d="M269 3.27v25.65L26.42 142.99 269 3.27z" fill="#fff"/><path opacity=".7" d="M269 42.49v42.25L26.42 142.99 269 42.49z" fill="#fff"/><path opacity=".5" d="M73.57 0L26.42 142.99 55.48 0h18.09zM0 120.79V43.98l26.42 99.01L0 120.79z" fill="#fff"/><path d="M60.61 94.01v37.94l4.96-2.73 1.85 3.28-1.98 3.77v3.97l1.72 3.01h7.4l2.99-3.99h12.54l1.77 3.99h8.17l3.81-4.81h5.38l3.97 4.97h5.73l5.48-5.48h71.43l5.23-4.21s.58-3.06.77-3.38c.19-.32.52-11.27.52-11.27v-13.82l-.52-14.55-.83-16.09-2.17-7.79-2.11-4.15-2.71-5.12-.64-4.28-8.69-12.37-9.53-5.36-15.4-3.4-11.09-.94-5.97-.48-5.02-.17-3.51-.13s-9.78-1.03-17.59 2.81c-9.08 1.54-13.76 3.42-13.76 3.42L60.59 94.01h.02z" fill="#fff"/><path d="M192.15 85.92c.42-1.09.66-1.73.71-2.64-3.08 0-28.83-.11-56.69-1.57.62 1.48 1.43 2.96 1.68 3.41 2.78.15 39.37 2.13 53.62 2.65.25-.75.48-1.34.68-1.85zm-1.2 4.41h.01c-19.93 0-47.63-.66-51.63-.76l1.79 3.79c6.63.78 45.15 1.73 48.29 1.81.24-.57 1.01-2.44 1.54-4.84zm-2.38 7.23h-1.51c-9.1 0-39.79-.26-44.14-.3.42.77 1.29 2.37 1.94 3.63 3.3.46 38.99 1.48 41.97 1.57.22-.47.85-1.95 1.74-4.9zm-39.36 9.95c3.3.22 32.76.55 35.37.58.2-.39.77-1.54 1.58-3.65-2.61.05-7.21.07-13.69.07-10.38 0-22.54-.06-25.21-.08.39.65 1.15 1.89 1.95 3.08z" fill="#40748F"/><path d="M199.84 115.18c.27-.04 3.07-.47 3.23-3.52.16-3.11.3-20-.49-29.6l-.02-.27.26-.05c1.86-.36 4.11-1.87 4.35-4.94.25-3.28.3-9.14-.38-11.93-.61-2.5-1.02-3.03-3.99-3.03-.27 0-.57 0-.88.01.56 1.23 2.03 4.7 2.03 7.65v1.11c.04 4.08-.03 7.52-1.3 8.3l-.43.27-.02-.51c-.14-2.88-.77-7.86-2.12-12.46-1.17-3.98-2.83-7.83-7.05-9.01-3.91-1.09-14.06-2.39-22.07-3.11-4.21-.38-8.84-.71-13.32-1.02a838.9 838.9 0 01-10.13-.75c-3.2-.26-6.81-.4-10.16-.4-3.93 0-7 .2-8 .52-1.51.48-2.19 1.53-2.17 3.29.02 1.51.99 12.91 1.46 15.84.41 2.56 2.28 4.18 5.12 4.46 2.67.26 22.87 1.28 34.31 1.73 11.15.44 28.78.97 28.96.98h.33l-.05.34c-.14 1-3.56 24.57-10.83 32.15l-.09.09h-5.46c-14.59 0-47.73-.06-55.58-.66 3.01 1.68 9.96 3.51 25.77 3.9 18.89.46 47.84.62 48.72.62zm-2.39-17.39v.02s.49-3.66 1.17-6.03c.6-2.09.9-2.94 1.44-2.94.43 0 .74.44 1.04 2.68.53 4.03.49 6.21-1.22 6.92-.81.34-1.32.54-1.72.54-.24 0-.42-.08-.55-.23-.17-.2-.22-.51-.16-.96zm-2.77 10.66h.01s.78-2.11 1.31-3.31c.54-1.23.81-1.75 2.21-2.48.24-.13.52-.3.8-.48.7-.44 1.42-.89 1.98-.89.31 0 .5.14.6.26.24.27.31.72.22 1.42-.3 2.41-.81 4.79-2.51 5.85-.86.53-2.62 1.37-3.71 1.37-.44 0-.75-.13-.93-.4-.21-.31-.21-.75.02-1.34z" fill="#40748F"/><path d="M127.7 100.07c1.54 4.67 4.81 5.65 7.28 5.65.38 0 .76-.02 1.15-.07-3.62-1.24-6.22-3.65-6.47-6.12l-.04-.39.39.07c1.04.18 2.48.27 3.43.31-1.1-.83-3.04-2.38-3.9-3.58-1.24-1.73-.84-6.17-.83-6.36l.08-.83.47.69c.06.09 5.34 7.79 8.88 11.94L127.6 82.9c-.37 2.95-1.41 12.57.1 17.17zm-4.11-26.13l.04-.03.04-.05 1.6-.88-1.54-13.49c-.67 2.57-1 6.75-.8 10.85.15 3.13.58 3.54.66 3.6zm17.62-28.59h-.01c-.64 0-1.19 0-1.64.02-4.88.12-11.56.29-11.97.94 0 .76.21 1.19.59 1.19h.62c2.7-.01 16.91.04 31.74.94 14.69.9 24.96 3.12 31.09 4.45.63.14 1.21.26 1.76.38-.41-2.71-1.87-8.63-7.13-13.56-4.04-3.79-12.43-6.34-27.2-8.27-6.53-.85-15.56-1.03-21.98-1.03-1 0-1.97 0-2.9.01 7.59.43 18.42 1.29 27.79 2.95 16.64 2.95 20.37 6.77 22.56 10.11l.39.59-.69-.13c-10.88-2.07-23.06-3.12-36.19-3.12-5.56 0-10.23.2-13.46.39 6.72.34 18.98 1 27.16 1.66 11.71.94 22.84 3.69 24.62 5.1l-.26.53c-7.09-1.93-35.01-3.15-44.89-3.15zm-.87 79.93h.01c.13.45.2.9.27 1.33.19 1.14.33 1.78.97 1.83.41.03.74.04 1 .04.49 0 .74-.03.75-.04h.08l.08.02s.1.04.2.04.14-.04.15-.06c.04-.06.17-.31-.04-1.14-.45-1.74-1.34-4.52-1.58-5.26-1.49-.14-10.96-1.03-14.19-1.25.46 3.89 1.49 5.9 2.32 6.5.83.59 3.29 1.09 5.09 1.21l1.4.09c-.04-.8-.2-2.92-.64-4.99l-.08-.36h2.76c.1.04.98.33 1.45 2.04z" fill="#40748F"/><path d="M188.15 143.71v-.02h-1.4l.58-.52c1.91-1.74 2.33-3.9 2.34-3.92l.05-.25h3.92c1.72 0 4.3-.28 6.79-1.62 1.91-1.03 3.04-5.31 3.04-11.46 0-4.42-.85-7.3-1.1-8.05h-53.51c.75 3.88 3.54 9.08 5.27 10.42 1.1.85 4.1 1.26 9.17 1.26 1.71 0 3.69-.05 6.04-.14 7.26-.3 8.01-1.21 9.26-2.73 1.33-1.62 3.97-6.13 4-6.18l.09-.15h5.22l-.21.43c-.13.27-3.29 6.62-4.88 8.98-1.6 2.37-2.97 3-5.11 3.38-2.18.4-15.05.54-25.4.54-11.8 0-23.09-.46-27.8-.77-4.58-.3-5.6-4.4-6.15-6.6l-.05-.2c-.34-1.38-.47-4.35-.61-7.8-.08-1.95-.16-3.96-.29-5.82-.34-4.88-1.75-7.36-4.2-7.36s-4 2.22-4.02 2.24l-.54.77V74.97h3.92v.3c0 3.1 3.3 3.25 3.43 3.25h2.96v3.08c0 .56.49.7.47.71h1.24c.34 0 .58-.08.73-.23.17-.17.16-.4.16-.42v-3.67c0-1.4-1.65-1.47-1.71-1.48h-2.72c-1.41 0-2.49-.12-2.49-1.66v-.31l.51.02c1.95 0 2.26-1.5 2.27-1.52 0-.15.53-15.08.53-16.13 0-.98-.81-1.54-1.5-1.72-.22-.06-.41-.09-.58-.12-.52-.09-1.06-.17-1.06-1 0-1 1.86-1.17 2.25-1.19h4.08v-1.53h-4.5c-3.29 0-3.55 1.08-3.55 2.6v.3h-.3c-2.2 0-3.11.56-3.49 1.04-.42.52-.31 1.06-.29 1.17 0 0-.47 9.54-.71 14.75l-.58.1c-1.55-3.6-1.52-11.33-1.51-15.05v-.83c0-2.78 2.56-3.81 3.37-4.07-.04-1.35-.17-8.13 1.27-12.72 1.15-3.66 4.06-5.69 5.74-6.6h-13L61.47 91.95l-.87 2.06L103 37.93v72.88l-.17.08c-.37.18-37.39 18.32-38.32 18.87-.19.11-3.88 2.18-3.91 2.19.03.03 2.73-.11 2.86-.05l2.28-.06c-.27.42-.78 1.6-.78 4.63 0 5.86 2.42 7.49 2.44 7.51l.8.52-.95.04c-3.43.13-7.17.42-8.25.73 1.51.5 8.59.91 14.9 1.28 8.72.5 25.92.75 59.38.84 6.34.02 11.64.03 16.2.03 17.18 0 23.87-.13 36.02-.36l1.16-.02c18.77-.36 28.63-1.13 30.43-1.76-2.81-.81-22.13-1.57-28.94-1.57zM177.7 122.4c-.55 1.01-2.03 2.58-2.09 2.65l-.09.09h-.13c-.63 0-15.42-.09-17.85-.45l-.03-.59c.08-.02 8.17-2.05 19.93-2.14h.51l-.24.44h-.01zm11.29 7.84c.01-.11.29-2.61 1.53-3.88 1.05-1.08 2.45-1.46 3.42-1.46.19 0 .37.01.52.04l.34.06-.25.77c-.2.59-.67 1.97-.58 2.22.07.05.45.16 1.38.16.3 0 .52-.01.52-.01l.03-.02.07.03s.26-.17.42-.91l.04-.16c.32-1.46.64-2.98 1.74-2.98h2.43l-.03.33c-.02.18-.41 4.48-2.12 6.31l-.09.1h-.13c-3.4-.03-8.9-.27-8.95-.27h-.32l.03-.33zm-119.5 9.52c0 1.55-.74 1.88-1.37 1.88-1.08 0-1.99-1.74-2.12-4.06-.16-2.86.97-4.3 1.02-4.36l.69-.85-.16 1.08s-.28 1.98 0 3.8c.29 1.92.9 2.13 1.67 2.21l.27.03v.27zm3.67 1.38c-.21.24-.5.38-.82.38-.28 0-.72-.11-1.2-.66-1.17-1.31-1.5-6.61.17-8.12l.6-.54-.1.8c-.16 1.27-.38 4.81.56 5.87.17.19.36.28.59.28.07 0 .14 0 .21-.02l.31-.06.05.31c.11.71-.02 1.35-.37 1.76zm41.28-28.99c.63 0 1.05.12 1.07.12l.22.06v3.65l-.38-.11a5.09 5.09 0 00-1.42-.21c-2.78 0-4.29 2.53-4.31 2.56l-.55-.2c.86-5.1 3.73-5.87 5.37-5.87zm-38.82 16.74L88.61 124v4.88l-12.99 3.91v-3.9zm0 5.22l12.99-3.4v3.21l-12.99 2.79v-2.6zm3.11 9.74h-.01l.81-.58s1.27-.92 2.07-3.31l.07-.21h7.86v.31s-.06 1.73 1.1 2.94l.47.49-12.37.36zm16.41-6.79c-.44 2.16-1.48 3.62-2.6 3.62s-2.26-2.72-2.51-6.2c-.25-3.59 1.06-6.31 1.11-6.42l.17-.34.29.24c.08.06.33.33.32 1.17 0 .02-.24 2.37 0 4.69.29 2.85.85 2.88.88 2.88.24 0 1.01-.75 1.31-1.93l.51-2.01.36.73s.62 1.29.16 3.57zm.91-13.61l-.14.77-.41-.67s-.84-1.35-2.1-1.35c-1.44 0-2.73 1.97-2.75 2l-.55-.22c.83-4.19 2.96-4.52 3.59-4.52.75 0 1.43.36 1.8.93.85 1.35.56 3 .55 3.06h.01zm1.06 4.74h.01c0-.14.06-3.5.24-4.63.18-1.16.36-1.89 1.34-2.28.83-.33 7.85-2.96 7.85-2.96l.41-.15v8.01l-9.85 2.4v-.39zm.01 2.9l9.84-1.92v3.74l-9.84 1.15v-2.97zm5.66 12.03l.54-.51s1.23-1.18 1.46-3.3l.03-.27h3.84l.05.23s.43 1.83 2.29 3.32l.67.53h-8.88zm11.62-4.37h-.02c-.47.62-1.02.93-1.62.93-.96 0-1.79-.81-2.2-1.51-.64-1.07-1.33-3.51-1.33-7.15 0-3.64.47-6.46.47-6.48.07-.47.29-.57.47-.57.31 0 .56.37.72.68l.04.07v.08s-.09 1.93.04 4.73c.16 3.37 1.06 5.99 1.74 5.99 1.05-.02 1.44-1.23 2.22-3.96l.2-.68.59.06c.28 3.8-.14 6.28-1.32 7.81zm12.22 4.38l.34-.47s1.1-1.55 1.46-3.54l.04-.25h40.18v.31c0 .08-.02 1.93 2.05 3.41l.76.54h-44.83z" fill="#40748F"/></g><defs><clipPath id="clip0_671_11998"><path fill="#fff" d="M0 0h269v179H0z"/></clipPath></defs></svg>