<svg width="270" height="179" fill="none" xmlns="http://www.w3.org/2000/svg"><g clip-path="url(#clip0_675_12520)"><mask id="mask0_675_12520" style="mask-type:luminance" maskUnits="userSpaceOnUse" x="0" y="0" width="270" height="179"><path d="M269.59 0H0v179h269.59V0z" fill="#fff"/></mask><g mask="url(#mask0_675_12520)"><path d="M0 179V43.98L43.89 0H269v179H0z" fill="#DAE9F1"/><path d="M269 92.68L0 92v87h269V92.68z" fill="#9CBED1"/><path opacity=".4" d="M141.89 98.98L64.17 179h74.6l3.12-80.02zm0 0L29.83 179h25.35l86.71-80.02z" fill="#E9F6FE"/><path opacity=".5" d="M106.09 0h71.85l-36.05 98.98L106.09 0zM269 3.27v25.65L141.89 98.98 269 3.27z" fill="#fff"/><path opacity=".7" d="M269 42.49v42.25L141.89 98.98 269 42.49z" fill="#fff"/><path opacity=".5" d="M91.41 0l50.47 98.98L55.48 0h35.93z" fill="#fff"/><path opacity=".4" d="M141.89 98.98L207.51 179H269L141.89 98.98zm0 0L269 84.74v56.33L141.89 98.98zM0 135.16V80.62l141.89 18.36L0 135.16z" fill="#E9F6FE"/><path d="M72.5 63.61L59.32 96.86l4.72 2.92 18.32 13.66-.26 6.37 2.36 4.6 3.07 1.09h1.72l.49 5.3 5.32 4.37 5.42-1.06v4.22l4.98 3.77 4.79-.32 2.55 4.54 2.92.82 3.7-.32 5.55-2.36 9.96 2.79 3.49-2.49 6.3-.05 6.47-4.63 5.36.04 5.64-7.28 7.66-5.55.21-8.66 32.76-20.33-12.2-32-21.97 6.73-4.43.35-29.01-10.08-13.09 5.49-39.1-4.1-10.17-2.09-.35 1.01z" fill="#fff"/><path d="M131 108.97c.08-.25.08-.38.08-.38l-.08.38zm-47.28 7.66s.1 1.67.83 3.19 2.27 2.08 2.27 2.08l2.92-.02s-3.93-1.65-6.02-5.25zm12.98 7.4c.44-1.91 1.57-3.03 1.57-3.03s2.2.48 4.96 2.91c-.91-3.22-4.93-4.65-4.93-4.65s-2.77 2.08-2.71 4.99c1.4 2.59 4.69 3.48 4.69 3.48s-2.86-2.07-3.58-3.7zm10.6 6.97c.49-1.81 1.71-2.73 1.71-2.73s2.53.7 3.9 1.56c-1.46-2.27-4.19-3.22-4.19-3.22s-1.6.67-2.35 4.47c1.07 2.56 2.95 2.93 2.95 2.93s-1.85-1.76-2.03-3.01h.01z" fill="#41748F"/><path d="M188.16 61.16l7.92-3.99 11.42-3.95 17.13 41.27-17.87 9.02-18.6-42.35zM73.99 59.17l-9.36-2.21-10-2.47-15.19 41.87 17.28 8.56 17.27-45.75z" fill="#fff"/><path d="M158.49 71.39l10.9 3.8 20.69-10.32-22.29 8.01m34.5 24.05l-24.04 13.82-7.06 4.47-14.24-11.23 3.82.34s-4.15-1.61-6.62-3.24c4.96-.28 11.5-1.15 11.5-1.15s-11.16-.86-15.97-3.32c-2.58-2.29-12.32-10.09-12.32-10.09s-3.37-1.96-6.24-3.66c-.98 1.15-1.54 2.05-1.54 2.05l-3.39.85s-.37-1.07-3.45-2.07c.67 2.51.7 3.6.7 3.6s-3.25 6.57-7.4 9.45c-3.62.09-5.4-.13-8.73-2.91.87-1.64 1.68-4.77 2.34-7.3 0 0 3.12-.73 5.37-.52-.13 2.3-.83 4.4-3.26 6.7 3.45-1.15 4.98-4.47 5.17-8.49-4.79-.89-7.12.05-7.12.05s1.53-7.82 1.7-10.89c9.92-3.29 23.68-10.09 23.68-10.09l-26.09 9.01c-1.24 14.65-4.99 21.18-4.99 21.18s4.17 7.67 12.49 5.71c5.42-2.64 8.77-10.54 8.77-10.54l3.35-.15 2.07-.85 1.9.7 4.08.5 29.39 31.91c.58 3.27-1.3 6.48-4.43 7.58l-1.49.52s-8.99-6-21.95-18.7c5.05 7.11 6.88 10.61 19.82 22.25-1.67 2.59-3.46 4.37-3.46 4.37l-2.68 1.44-3.11-1.87s-17-12.99-20.64-15.63c4.43 6.18 9.47 10.68 17.28 17.06 0 0-2.83 3.43-5.23 4.74-3.28-.6-14.98-5.74-21.13-13.81 1.01 3.42 9.01 11.35 12.98 13.81-1.68 1.52-3.23.61-3.23.61l-6.57-2.73.2-4.65s-1.57-1.19-2.88-2.08c-1.31-.89-2.65-.38-2.65-.38l.31-3.98s-1.04-3.13-3.66-6.41c-2.29-.38-5.76.43-5.76.43l-.78-3.12s-2.72-4.56-7.73-5c-3.57 1.38-4.33 1.91-4.33 1.91l-16.14-9.26-12.19-9.47-7.4-1.63-1.22 2.34 6.99 3.26 16.54 12.54-.64 5.74s.71 3.57 4.09 5.69c2.58.5 3.66.22 3.66.22s-.5 3.41-.21 5.07c1.94 2.2 3.45 3.39 4.51 4.03.88.54 1.94.71 2.95.48l3.76-.84s-.09 2.06 0 3.2c.81 1.67 2.85 3.13 4.32 4.01.97.58 2.14.71 3.22.37.64-.2 1.5-.45 2.57-.73-.06 1.47.41 3.39.41 3.39s3.23 2.7 7.23 3.18c5.36-1.66 6.99-3.03 6.99-3.03s3.64 1.58 8.46 2.11c2.07.23 4.14-.5 5.6-1.98l.08-.08s1.92.11 4.34-.02c2.17-.11 4.26-.95 5.91-2.37 1.23-1.05 1.86-1.88 1.86-1.88s.52.1 1.54.16c2.71.16 5.37-.81 7.38-2.65 1.44-1.32 2.21-2.36 2.21-2.36l.18-2.96s1.86-.18 4.06-.89c2.6-1.82 5.46-5.29 5.46-5.29s.05-2.8-.52-5.59c1.81-.72 7.06-4.01 9.8-7.57 5.82-4.04 22.82-13.71 22.82-13.71l-1.42-3.7.05.02zM89.72 123.29c-1.32.96-1.89.2-1.89.2l-2.03-.38s-1.67-.83-2.74-3.63c-.03-4.17.24-3.8.24-3.8s.61-.67 3.06-.41c3.34 1.75 5.05 4.43 5.05 4.43s-.37 2.63-1.69 3.58v.01zm11.54 6.57c-1.38 2.49-3.1 2.01-3.1 2.01s-4.18-.01-5.55-1.08-1.2-4.67-1.2-4.67.09-.64 2.15-3.23 4.63-4.35 4.63-4.35 2.43-.29 3.87.97 2.31 3.78 2.31 3.78-.75 2.3-3.12 6.58h.01v-.01zm8.65 7.49c-2.32 2.62-4.1.43-4.1.43-1.8-1.21-3.27-3.77-3.27-3.77s-.25-.43 1.48-2.8c1.73-2.37 3.8-5.8 7.21-6.1 1.62 1.41 2.27 2.18 3.28 5.33-.6 1.55-.74 3.48-4.6 6.9v.01zm7.84 6.52c-2.14.27-4.08-1.02-4.08-1.02s-1.11-.96-1.65-2.33c.99-3.38 1.92-3.56 1.92-3.56s.35 2.77 3.15 3.54c-2.15-2.73-2.05-3.89-1.41-5.32 2.9.23 4.05 2.17 4.05 2.17l-1.2 3.94s.78 1.14-.78 2.57v.01z" fill="#41748F"/><path d="M208.89 52.11l-12.81 5.06 11.62-2.76 15.99 38.64-16.34 7.59-19.19-39.48 1.92 3.71 1.06 2.77 11.68 30.66.89 2.33 2.37 6.2 20.77-9.24-17.96-45.48zM55.93 101.04L41.2 94.88l14.23-39.5 9.2 1.59-10.78-3.87-16.98 44.5 20.77 9.24 2.36-6.2.9-2.33 13.09-39.13-18.06 41.87v-.01z" fill="#41748F"/><path d="M205.53 48.19c3.99-1.74 20.97-8.92 34.84-11.83 16.85-7.91 29.22-14.55 29.22-14.55v72.77l-38.81 14.72c-1.55.59-3.29-.19-3.87-1.75L205 49.46c-.19-.5.05-1.06.54-1.27h-.01zm-146.48.39L23.34 36.37 12.55 31.4 0 43.98v52.93l35.83 12.87 23.23-61.2h-.01z" fill="#41748F"/><path d="M269.59 89.12l-39.56 15.29L205 49.46l22.85 61.24 41.74-16.12v-5.46zM59.06 48.58l-23.23 61.2L0 96.91v-3.36l33.87 11.37 25.19-56.34z" fill="#41748F"/></g></g><defs><clipPath id="clip0_675_12520"><path fill="#fff" d="M0 0h269.59v179H0z"/></clipPath></defs></svg>