<svg width="269" height="179" fill="none" xmlns="http://www.w3.org/2000/svg"><g clip-path="url(#clip0_664_7992)"><path d="M0 179V43.98L43.89 0H269v179H0z" fill="#DAE9F1"/><path opacity=".7" d="M134.5 80.62L0 87.71v41.87l134.5-48.96zm0 0L269 120.79V71.88l-134.5 8.75v-.01z" fill="#fff"/><path opacity=".5" d="M129 0h64.5l-59 80.62L129 0zm140 3.27v25.65l-134.5 51.7L269 3.27zM106.85 0l27.65 80.62L55.48 0h51.37z" fill="#fff"/><path opacity=".7" d="M0 60.13V43.98l19.03-19.07L134.5 80.62 0 60.13z" fill="#fff"/><path d="M31.96 93.83l3.41 3.6 9.19-1.89 10.21 8.51 15.32-6.81 7.15 6.81 15.32 2.04 15.32 7.15 22.16-15.66 22.09 11.91 7.87-8.45 8.64 6.75 9.02-2.04 10.9 5.33h14.29l13.96-7.54 15.32 3.91 14.98-3.91 3.06-2.5 10.56 5.73 8.27 2.04V179H0v-71.89l31.96-13.28z" fill="#9CBED1"/><path d="M170.19 144.28l27.05-17.77 15.32 8.89 5.61-10.93 20.94 3.07 16.85-22.98L269 93.83V179H168.64l1.55-34.72z" fill="#8AB4CC"/><path d="M0 107.11l17.49-15.32C30.5 102 44.5 112 57.83 122.94l6.64-3.57 14.3 5.36 13.73-5.36 74.1 34.47L191 142.5l40.45 23.86h6.64L269 179.02H0v-71.91z" fill="#71A2BD"/><path d="M214 220c-2.967-.964-8.913-2.867-12.481-3.883-.836-8.378-13.736-17.187-13.736-17.187-3.406-6.914-5.502-16.428-4.639-24.17-.249-.209-11.632-9.812-13.579-13.538-8.547-.561-25.08-1.395-25.08-1.395s-1.254-1.081-1.019-2.267c.235-1.186-.314-2.306-.314-2.306s1.255-2.997 1.438-4.743c.17-1.746.784-5.342 1.437-15.219.654-9.877 1.582-20.119 1.582-20.119l2.431.092-.262 2.189c-.091.768-.261 1.42.066 1.472.326.052.797-.091.914-1.095.118-1.003 1.19.183.393 1.629-.798 1.447-1.477 2.02-1.477 2.02s.091.599 1.359.417c1.268-.183 2.575-2.932 2.575-2.932s.379-1.746.052-3.609c-.327-1.864-.353-6.515-.706-10.359l-.353-3.844s-2.313-14.177-4.339-22.138c-5.254-.625-8.795-2.072-10.024-3.844v-1.863s.405-1.238.941-1.98c.536-.743.719-1.004.928-1.447.209-.443.026-.951-.51-1.003.262-1.603.144-2.49.262-3.492.117-1.004-.052-4.17-3.594-4.678s-5.515 2.215-5.999 3.7c-.497 1.486.235 4.822.235 4.822s-.496.143-.17 1.068c.327.925.236 1.212.654 1.772.418.56.51.6.706 1.069.183.469.143 2.54.143 2.54s-1.372 1.069-1.751 1.33c-1.843.064-6.417.052-6.417.052s-3.228 3.583-4.744 4.351c-1.516.77-6.495 2.216-6.495 2.216s-1.948-3.036-2.797-5.447l-.837-2.41-.81-1.082s.105-1.225.039-2.059h9.332v-3.505h-1.987V64.8l-5.188-3.818V58.91c.862-.17 1.281-.587 1.281-.587h-1.281v-.456c2.77-1.146 3.476-3.765 3.633-6.332 2.392-.118 2.627-1.916 2.705-2.463.066-.56.262-.912.928-1.03.667-.117 1.189-.95.797-1.146-.392-.182-1.163-.326-1.372.182-.209.509-.418.378-.889.378-.47 0-.914.626-.209 1.212 0 2.137-1.738 2.15-1.934 2.137.026-1.134-.013-2.241-.013-3.18.98-1.185.693-2.345.693-2.345 0-.208-1.921-.39-4.392-.417L109.63 43h-.301l-.496 1.863c-2.484.026-4.392.209-4.392.417 0 0-.287 1.147.693 2.346 0 .938-.052 2.032-.013 3.179-.196 0-1.934 0-1.934-2.137.706-.586.261-1.212-.209-1.212-.471 0-.68.144-.889-.378-.209-.508-.98-.378-1.372-.182-.392.182.117 1.03.797 1.147.68.117.862.469.928 1.029.065.56.313 2.345 2.705 2.463.157 2.567.876 5.186 3.633 6.332v.456h-1.28s.418.417 1.28.587v2.071l-5.188 3.818v4.326h-1.987v3.505h1.425s.157 1.968 2.013 3.531c-1.19 1.186-1.242 1.812-1.242 1.812s2.013 3.583 3.241 6.658c1.242 3.075 2.666 4.587 2.666 4.587s9.92.208 12.141-.587c.157 6.216 1.151 10.62-.927 15.897-2.078 5.29-2.405 8.196-2.405 8.196s2.405.951 5.463.951v22.816s0 4.378.653 8.378c.654 4 .157 7.583 0 8.456 1.046 1.225 1.15 2.098 1.15 2.098s-.431.912-.901 1.186c-.471.274-.366 1.081-.366 1.081s1.045.626 1.254 1.043c.209.417-.418.834-.418.834s-.941.873-1.15 1.498c-2.627-.769-11.24.743-15.069 0-3.829-.743-8.874.834-8.874.834-3.79 13.18-13.322 21.674-25.694 32.028l-.745 7.075-4.012.469c-4.568 5.726-6.075 13.098-10.808 18.503h154.987L214 220zm-83.25-84.656c.405-3.453 1.842-7.61 3.097-10.997 1.255-3.388 2.248-5.942 2.248-5.942s1.96 11.245 2.457 15.649c.496 4.404-.131 11.727-.837 15.649-.562 3.101.549 5.03.549 5.03s-.339 1.224-.379 2.202c-.039.977 1.686 3.492 1.686 3.492s-7.606.247-8.338 0c-.065-1.329-.457-1.603-.457-1.603s.601-.495.248-1.889c-.353-1.395-.248-2.893-.248-2.893s.875-1.811.875-5.407c0-3.597-1.293-9.812-.888-13.265l-.013-.026z" fill="#41748F"/></g><defs><clipPath id="clip0_664_7992"><path fill="#fff" d="M0 0h269v179H0z"/></clipPath></defs></svg>