<svg width="170" height="113" fill="none" xmlns="http://www.w3.org/2000/svg"><g clip-path="url(#clip0_213_15386)"><path d="M12.53 96.918l3.275 3.254m0-3.254l-3.274 3.254m14.162-3.254l3.275 3.254m0-3.254l-3.275 3.254m14.168-3.254l3.275 3.254m0-3.254l-3.275 3.254m14.169-3.254l3.274 3.254m0-3.254l-3.275 3.254m14.168-3.254l3.275 3.254m0-3.254l-3.275 3.254m14.163-3.254l3.274 3.254m0-3.254l-3.274 3.254m14.168-3.254l3.274 3.254m0-3.254l-3.274 3.254m14.168-3.254l3.275 3.254m0-3.254l-3.275 3.254m14.168-3.254l3.275 3.254m0-3.254l-3.275 3.254m14.163-3.254l3.274 3.254m0-3.254l-3.274 3.254m14.168-3.254l3.274 3.254m0-3.254l-3.274 3.254M12.53 82.839l3.275 3.254m0-3.254l-3.274 3.254m14.162-3.254l3.275 3.254m0-3.254l-3.275 3.254m14.168-3.254l3.275 3.254m0-3.254l-3.275 3.254m14.169-3.254l3.274 3.254m0-3.254l-3.275 3.254m14.168-3.254l3.275 3.254m0-3.254l-3.275 3.254m14.163-3.254l3.274 3.254m0-3.254l-3.274 3.254m14.168-3.254l3.274 3.254m0-3.254l-3.274 3.254m14.168-3.254l3.275 3.254m0-3.254l-3.275 3.254m14.168-3.254l3.275 3.254m0-3.254l-3.275 3.254m14.163-3.254l3.274 3.254m0-3.254l-3.274 3.254m14.168-3.254l3.274 3.254m0-3.254l-3.274 3.254M12.53 68.765l3.275 3.254m0-3.254l-3.274 3.254m14.162-3.254l3.275 3.254m0-3.254l-3.275 3.254m14.168-3.254l3.275 3.254m0-3.254l-3.275 3.254m14.169-3.254l3.274 3.254m0-3.254l-3.275 3.254m14.168-3.254l3.275 3.254m0-3.254l-3.275 3.254m14.163-3.254l3.274 3.254m0-3.254l-3.274 3.254m14.168-3.254l3.274 3.254m0-3.254l-3.274 3.254m14.168-3.254l3.275 3.254m0-3.254l-3.275 3.254m14.168-3.254l3.275 3.254m0-3.254l-3.275 3.254m14.163-3.254l3.274 3.254m0-3.254l-3.274 3.254m14.168-3.254l3.274 3.254m0-3.254l-3.274 3.254M12.53 54.685l3.275 3.255m0-3.255l-3.274 3.255m14.162-3.255l3.275 3.255m0-3.255l-3.275 3.255m14.168-3.255l3.275 3.255m0-3.255L40.86 57.94m14.17-3.255l3.274 3.255m0-3.255l-3.275 3.255m14.168-3.255l3.275 3.255m0-3.255l-3.275 3.255m14.163-3.255l3.274 3.255m0-3.255L83.36 57.94m14.168-3.255l3.274 3.255m0-3.255l-3.274 3.255m14.168-3.255l3.275 3.255m0-3.255l-3.275 3.255m14.168-3.255l3.275 3.255m0-3.255l-3.275 3.255m14.163-3.255l3.274 3.255m0-3.255l-3.274 3.255m14.168-3.255l3.274 3.255m0-3.255l-3.274 3.255M12.53 40.605l3.275 3.255m0-3.255l-3.274 3.255m14.162-3.255l3.275 3.255m0-3.255l-3.275 3.255m14.168-3.255l3.275 3.255m0-3.255L40.86 43.86m14.17-3.255l3.274 3.255m0-3.255l-3.275 3.255m14.168-3.255l3.275 3.255m0-3.255l-3.275 3.255m14.163-3.255l3.274 3.255m0-3.255L83.36 43.86m14.168-3.255l3.274 3.255m0-3.255l-3.274 3.255m14.168-3.255l3.275 3.255m0-3.255l-3.275 3.255m14.168-3.255l3.275 3.255m0-3.255l-3.275 3.255m14.163-3.255l3.274 3.255m0-3.255l-3.274 3.255m14.168-3.255l3.274 3.255m0-3.255l-3.274 3.255M12.53 26.526l3.275 3.255m0-3.255l-3.274 3.255m14.162-3.255l3.275 3.255m0-3.255l-3.275 3.255m14.168-3.255l3.275 3.255m0-3.255l-3.275 3.255m14.169-3.255l3.274 3.255m0-3.255l-3.275 3.255m14.168-3.255l3.275 3.255m0-3.255l-3.275 3.255m14.163-3.255l3.274 3.255m0-3.255l-3.274 3.255m14.168-3.255l3.274 3.255m0-3.255l-3.274 3.255m14.168-3.255l3.275 3.255m0-3.255l-3.275 3.255m14.168-3.255l3.275 3.255m0-3.255l-3.275 3.255m14.163-3.255l3.274 3.255m0-3.255l-3.274 3.255m14.168-3.255l3.274 3.255m0-3.255l-3.274 3.255M26.693 12.452l3.275 3.254m0-3.254l-3.275 3.254m14.168-3.254l3.275 3.254m0-3.254l-3.275 3.254m14.169-3.254l3.274 3.254m0-3.254l-3.275 3.254m14.168-3.254l3.275 3.254m0-3.254l-3.275 3.254m14.163-3.254l3.274 3.254m0-3.254l-3.274 3.254m14.168-3.254l3.274 3.254m0-3.254l-3.274 3.254m14.168-3.254l3.275 3.254m0-3.254l-3.275 3.254m14.168-3.254l3.275 3.254m0-3.254l-3.275 3.254m14.163-3.254l3.274 3.254m0-3.254l-3.274 3.254m14.168-3.254l3.274 3.254m0-3.254l-3.274 3.254" opacity=".5" stroke="#32A1DF" stroke-width=".5" stroke-miterlimit="10"/><path d="M.5 27.852L28.024.5H169.5v111.625H.5V27.852z" stroke="#32A1DF"/><g clip-path="url(#clip1_213_15386)"><path d="M63.493 68.74V43.884l21.665-12.43 21.66 12.43V68.74l-21.66 12.43-21.665-12.43z" fill="#fff"/><path d="M85.154 32.193l21.016 12.059v24.117L85.154 80.427 64.138 68.373V44.256l21.016-12.063zm0-1.477L62.849 43.513v25.599l22.305 12.797 22.305-12.797V43.513L85.154 30.716z" fill="#32A1DF"/><path d="M85.154 74.777V55.99m16.375-9.394L85.154 55.99m-16.371-9.394l16.37 9.394" stroke="#32A1DF" stroke-linecap="round" stroke-linejoin="round"/></g></g><defs><clipPath id="clip0_213_15386"><path fill="#fff" d="M0 0h170v112.625H0z"/></clipPath><clipPath id="clip1_213_15386"><path fill="#fff" transform="translate(62.849 30.716)" d="M0 0h44.614v51.193H0z"/></clipPath></defs></svg>