<svg width="86" height="86" fill="none" xmlns="http://www.w3.org/2000/svg"><g clip-path="url(#clip0_314_3883)" fill="#32A1DF"><path d="M.738 18.19a.737.737 0 10.002-1.475.737.737 0 00-.002 1.474zM17.644 0a.74.74 0 00-.738.736.74.74 0 001.477 0A.74.74 0 0017.644 0zM9.192 18.19a.737.737 0 10.003-1.475.737.737 0 00-.003 1.474zm8.452-1.473a.74.74 0 00-.738.736.74.74 0 001.477 0 .74.74 0 00-.739-.736zm0-8.36a.74.74 0 00-.738.737.74.74 0 001.477 0 .74.74 0 00-.739-.737zm8.452 1.473a.737.737 0 10.002-1.475.737.737 0 00-.002 1.475zm8.451 0a.737.737 0 10.002-1.475.737.737 0 00-.002 1.475zm8.452-1.473a.739.739 0 00-.739.737.739.739 0 001.477 0 .74.74 0 00-.738-.737zM51.45 9.83a.737.737 0 10.002-1.475.737.737 0 00-.002 1.475zm8.454 0a.737.737 0 10.003-1.475.737.737 0 00-.003 1.475zm8.452-1.473a.74.74 0 00-.739.737.74.74 0 001.477 0 .74.74 0 00-.738-.737zm8.451 1.473a.737.737 0 10.002-1.475.737.737 0 00-.002 1.475zm8.452 0a.737.737 0 10.002-1.475.737.737 0 00-.002 1.475zM26.096 1.472a.737.737 0 10.002-1.474.737.737 0 00-.002 1.474zm8.451 0a.737.737 0 10.002-1.474.737.737 0 00-.002 1.474zM42.999 0a.739.739 0 00-.739.736.739.739 0 001.477 0A.74.74 0 0042.999 0zm8.451 1.472a.737.737 0 10.002-1.474.737.737 0 00-.002 1.474zm8.454 0a.737.737 0 10.003-1.474.737.737 0 00-.003 1.474zM68.356 0a.74.74 0 00-.739.736.74.74 0 001.477 0A.74.74 0 0068.356 0zm8.451 1.472a.737.737 0 10.002-1.474.737.737 0 00-.002 1.474zm8.452 0a.737.737 0 10.002-1.474.737.737 0 00-.002 1.474zM9.192 9.83a.737.737 0 10.003-1.475.737.737 0 00-.003 1.475zm16.904 8.36a.737.737 0 10.002-1.475.737.737 0 00-.002 1.474zm8.451 0a.737.737 0 10.002-1.475.737.737 0 00-.002 1.474zm8.452-1.473a.739.739 0 00-.739.736.74.74 0 001.477 0 .739.739 0 00-.738-.736zm8.451 1.473a.737.737 0 10.002-1.475.737.737 0 00-.002 1.474zm8.454 0a.737.737 0 10.002-1.475.737.737 0 00-.002 1.474zm8.452-1.473a.74.74 0 00-.739.736.74.74 0 001.477 0 .74.74 0 00-.738-.736zm8.451 1.473a.737.737 0 10.002-1.475.737.737 0 00-.002 1.474zm8.452 0a.737.737 0 10.002-1.475.737.737 0 00-.002 1.474zM.738 26.547a.737.737 0 10.003-1.475.737.737 0 00-.003 1.475zm8.454 0a.737.737 0 10.003-1.475.737.737 0 00-.003 1.475zm8.452-1.473a.74.74 0 00-.738.736.74.74 0 001.477 0 .74.74 0 00-.739-.736zm8.452 1.473a.737.737 0 10.002-1.475.737.737 0 00-.002 1.475zm8.451 0a.737.737 0 10.002-1.475.737.737 0 00-.002 1.475zm8.452-1.473a.739.739 0 00-.739.736.739.739 0 001.477 0 .74.74 0 00-.738-.736zm8.451 1.473a.737.737 0 10.002-1.475.737.737 0 00-.002 1.475zm8.454 0a.737.737 0 10.003-1.475.737.737 0 00-.003 1.475zm8.452-1.473a.74.74 0 00-.739.736.74.74 0 001.477 0 .74.74 0 00-.738-.736zm8.451 1.473a.737.737 0 10.002-1.475.737.737 0 00-.002 1.475zm8.452 0a.737.737 0 10.002-1.475.737.737 0 00-.002 1.475zM.738 34.906a.737.737 0 10.002-1.475.737.737 0 00-.002 1.475zm8.454 0a.737.737 0 10.003-1.475.737.737 0 00-.003 1.475zm8.452-1.472a.74.74 0 00-.738.736.74.74 0 001.477 0 .74.74 0 00-.739-.736zm8.452 1.472a.737.737 0 10.002-1.475.737.737 0 00-.002 1.475zm8.451 0a.737.737 0 10.002-1.475.737.737 0 00-.002 1.475zm8.452-1.472a.739.739 0 00-.739.736.74.74 0 001.477 0 .739.739 0 00-.738-.736zm8.451 1.472a.737.737 0 10.002-1.475.737.737 0 00-.002 1.475zm8.454 0a.737.737 0 10.002-1.475.737.737 0 00-.002 1.475zm8.452-1.472a.74.74 0 00-.739.736.74.74 0 001.477 0 .74.74 0 00-.738-.736zm8.451 1.472a.737.737 0 10.002-1.475.737.737 0 00-.002 1.475zm8.452 0a.737.737 0 10.002-1.475.737.737 0 00-.002 1.475zM.738 43.264a.737.737 0 10.003-1.475.737.737 0 00-.003 1.474zm8.454 0a.737.737 0 10.003-1.475.737.737 0 00-.003 1.474zm8.452-1.473a.74.74 0 00-.738.736.74.74 0 001.477 0 .74.74 0 00-.739-.736zm8.452 1.473a.737.737 0 10.002-1.475.737.737 0 00-.002 1.474zm8.451 0a.737.737 0 10.002-1.475.737.737 0 00-.002 1.474zm8.452-1.473a.739.739 0 00-.739.736.739.739 0 001.477 0 .739.739 0 00-.738-.736zm8.451 1.473a.737.737 0 10.002-1.475.737.737 0 00-.002 1.474zm8.454 0a.737.737 0 10.003-1.475.737.737 0 00-.003 1.474zm8.452-1.473a.74.74 0 00-.739.736.74.74 0 001.477 0 .74.74 0 00-.738-.736zm8.451 1.473a.737.737 0 10.002-1.475.737.737 0 00-.002 1.474zm8.452 0a.737.737 0 10.002-1.475.737.737 0 00-.002 1.474zM.738 51.623a.737.737 0 10.002-1.475.737.737 0 00-.002 1.475zm8.454 0a.737.737 0 10.003-1.475.737.737 0 00-.003 1.475zm8.452-1.473a.74.74 0 00-.738.737.74.74 0 001.477 0 .74.74 0 00-.739-.737zm8.452 1.473a.737.737 0 10.002-1.475.737.737 0 00-.002 1.475zm8.451 0a.737.737 0 10.002-1.475.737.737 0 00-.002 1.475zm8.452-1.473a.739.739 0 00-.739.737.74.74 0 001.477 0 .739.739 0 00-.738-.737zm8.451 1.473a.737.737 0 10.002-1.475.737.737 0 00-.002 1.475zm8.454 0a.737.737 0 10.002-1.475.737.737 0 00-.002 1.475zm8.452-1.473a.74.74 0 00-.739.737.74.74 0 001.477 0 .74.74 0 00-.738-.737zm8.451 1.473a.737.737 0 10.002-1.475.737.737 0 00-.002 1.475zm8.452 0a.737.737 0 10.002-1.475.737.737 0 00-.002 1.475zM.738 58.508a.74.74 0 00-.738.736.74.74 0 001.477 0 .74.74 0 00-.739-.736zm8.454 0a.74.74 0 00-.738.736.74.74 0 001.477 0 .74.74 0 00-.739-.736zm8.452 0a.74.74 0 00-.738.736.74.74 0 001.477 0 .74.74 0 00-.739-.736zm8.452 0a.74.74 0 00-.739.736.74.74 0 001.477 0 .74.74 0 00-.738-.736zm8.451 0a.74.74 0 00-.738.736.74.74 0 001.476 0 .74.74 0 00-.738-.736zm8.452 0a.739.739 0 00-.739.736.739.739 0 001.477 0 .739.739 0 00-.738-.736zm8.451 0a.74.74 0 00-.739.736.74.74 0 001.477 0 .74.74 0 00-.738-.736zm8.454 0a.74.74 0 00-.738.736.74.74 0 001.477 0 .74.74 0 00-.739-.736zm8.452 0a.74.74 0 00-.739.736.74.74 0 001.477 0 .74.74 0 00-.738-.736zm8.451 0a.74.74 0 00-.738.736.74.74 0 001.477 0 .74.74 0 00-.739-.736zm8.452 0a.74.74 0 00-.739.736.74.74 0 001.477 0 .74.74 0 00-.738-.736zM.738 68.338a.737.737 0 10.003-1.475.737.737 0 00-.003 1.475zm8.454 0a.737.737 0 10.003-1.475.737.737 0 00-.003 1.475zm8.452-1.475a.74.74 0 00-.738.737.74.74 0 001.477 0 .74.74 0 00-.739-.737zm8.452 1.475a.737.737 0 10.002-1.475.737.737 0 00-.002 1.475zm8.451 0a.737.737 0 10.002-1.475.737.737 0 00-.002 1.475zm8.452-1.475a.739.739 0 00-.739.737.739.739 0 001.477 0 .739.739 0 00-.738-.737zm8.451 1.475a.737.737 0 10.002-1.475.737.737 0 00-.002 1.475zm8.454 0a.737.737 0 10.003-1.475.737.737 0 00-.003 1.475zm8.452-1.475a.74.74 0 00-.739.737.74.74 0 001.477 0 .74.74 0 00-.738-.737zm8.451 1.475a.737.737 0 10.002-1.475.737.737 0 00-.002 1.475zm8.452 0a.737.737 0 10.002-1.475.737.737 0 00-.002 1.475zM.738 76.697a.737.737 0 10.003-1.475.737.737 0 00-.003 1.475zm8.454 0a.737.737 0 10.003-1.475.737.737 0 00-.003 1.475zm8.452-1.477a.74.74 0 00-.738.737.74.74 0 001.477 0 .74.74 0 00-.739-.736zm8.452 1.477a.737.737 0 10.002-1.475.737.737 0 00-.002 1.475zm8.451 0a.737.737 0 10.002-1.475.737.737 0 00-.002 1.475zm8.452-1.477a.739.739 0 00-.739.737.74.74 0 001.477 0 .739.739 0 00-.738-.736zm8.451 1.477a.737.737 0 10.002-1.475.737.737 0 00-.002 1.475zm8.454 0a.737.737 0 10.003-1.475.737.737 0 00-.003 1.475zm8.452-1.477a.74.74 0 00-.739.737.74.74 0 001.477 0 .74.74 0 00-.738-.736zm8.451 1.477a.737.737 0 10.002-1.475.737.737 0 00-.002 1.475zm8.452 0a.737.737 0 10.002-1.475.737.737 0 00-.002 1.475zM.738 85.055a.737.737 0 10.003-1.475.737.737 0 00-.003 1.475zm8.454 0a.737.737 0 10.003-1.475.737.737 0 00-.003 1.475zm8.452-1.475a.74.74 0 00-.738.736.74.74 0 001.477 0 .74.74 0 00-.739-.736zm8.452 1.475a.737.737 0 10.002-1.475.737.737 0 00-.002 1.475zm8.451 0a.737.737 0 10.002-1.475.737.737 0 00-.002 1.475zm8.452-1.475a.739.739 0 00-.739.736.739.739 0 001.477 0 .739.739 0 00-.738-.736zm8.451 1.475a.737.737 0 10.002-1.475.737.737 0 00-.002 1.475zm8.454 0a.737.737 0 10.003-1.475.737.737 0 00-.003 1.475zm8.452-1.475a.74.74 0 00-.739.736.74.74 0 001.477 0 .74.74 0 00-.738-.736zm8.451 1.475a.737.737 0 10.002-1.475.737.737 0 00-.002 1.475zm8.452 0a.737.737 0 10.002-1.475.737.737 0 00-.002 1.475z"/></g><defs><clipPath id="clip0_314_3883"><path fill="#fff" d="M0 0h86v85.055H0z"/></clipPath></defs></svg>