<svg width="57" height="56" fill="none" xmlns="http://www.w3.org/2000/svg"><path d="M44.17 55.5H.5V.5h55.056v43.626L44.17 55.5z" stroke="#32A1DF"/><g clip-path="url(#clip0_398_3552)"><path d="M37 25.422c0-4.823-4.026-8.742-9.006-8.742-4.979 0-8.994 3.908-8.994 8.742 0 4.833 4.026 8.742 9.006 8.742v5.516l6.907-8.654c.057-.066.114-.143.17-.22l.08-.1A8.545 8.545 0 0037 25.422zm-9.006 2.708c-1.44 0-2.608-1.134-2.608-2.532 0-1.398 1.168-2.533 2.608-2.533 1.44 0 2.609 1.134 2.609 2.533 0 1.398-1.168 2.532-2.609 2.532z" stroke="#32A1DF" stroke-width="1.25" stroke-linecap="round" stroke-linejoin="round"/></g><defs><clipPath id="clip0_398_3552"><path fill="#fff" transform="translate(16 15.68)" d="M0 0h24v24H0z"/></clipPath></defs></svg>