<svg width="808" height="18" fill="none" xmlns="http://www.w3.org/2000/svg"><g opacity=".2" clip-path="url(#clip0_342_6021)"><path d="M808.09 1.65c0-.86-.7-1.56-1.56-1.56-.07 0-.13.01-.2.02V.09c-.86 0-1.56.7-1.56 1.56 0 .86.7 1.56 1.56 1.56v-.02c.07 0 .13.02.2.02.86 0 1.56-.7 1.56-1.56zm-17.89 0c0-.86-.7-1.56-1.56-1.56-.07 0-.13.01-.2.02V.09c-.86 0-1.56.7-1.56 1.56 0 .86.7 1.56 1.56 1.56v-.02c.07 0 .13.02.2.02.86 0 1.56-.7 1.56-1.56zm-17.89 0c0-.86-.7-1.56-1.56-1.56-.07 0-.13.01-.2.02V.09c-.86 0-1.56.7-1.56 1.56 0 .86.7 1.56 1.56 1.56v-.02c.07 0 .13.02.2.02.86 0 1.56-.7 1.56-1.56zm-17.89 0c0-.86-.7-1.56-1.56-1.56-.07 0-.13.01-.2.02V.09c-.86 0-1.56.7-1.56 1.56 0 .86.7 1.56 1.56 1.56v-.02c.07 0 .13.02.2.02.86 0 1.56-.7 1.56-1.56zm-17.89 0c0-.86-.7-1.56-1.56-1.56-.07 0-.13.01-.2.02V.09c-.86 0-1.56.7-1.56 1.56 0 .86.7 1.56 1.56 1.56v-.02c.07 0 .13.02.2.02.86 0 1.56-.7 1.56-1.56zm-17.89 0c0-.86-.7-1.56-1.56-1.56-.07 0-.13.01-.2.02V.09c-.86 0-1.56.7-1.56 1.56 0 .86.7 1.56 1.56 1.56v-.02c.07 0 .13.02.2.02.86 0 1.56-.7 1.56-1.56zm-17.89 0c0-.86-.7-1.56-1.56-1.56-.07 0-.13.01-.2.02V.09c-.86 0-1.56.7-1.56 1.56 0 .86.7 1.56 1.56 1.56v-.02c.07 0 .13.02.2.02.86 0 1.56-.7 1.56-1.56zm-17.89 0c0-.86-.7-1.56-1.56-1.56-.07 0-.13.01-.2.02V.09c-.86 0-1.56.7-1.56 1.56 0 .86.7 1.56 1.56 1.56v-.02c.07 0 .13.02.2.02.86 0 1.56-.7 1.56-1.56zm-17.89 0c0-.86-.7-1.56-1.56-1.56-.07 0-.13.01-.2.02V.09c-.86 0-1.56.7-1.56 1.56 0 .86.7 1.56 1.56 1.56v-.02c.07 0 .13.02.2.02.86 0 1.56-.7 1.56-1.56zm-17.89 0c0-.86-.7-1.56-1.56-1.56-.07 0-.13.01-.2.02V.09c-.86 0-1.56.7-1.56 1.56 0 .86.7 1.56 1.56 1.56v-.02c.07 0 .13.02.2.02.86 0 1.56-.7 1.56-1.56zm-17.89 0c0-.86-.7-1.56-1.56-1.56-.07 0-.13.01-.2.02V.09c-.86 0-1.56.7-1.56 1.56 0 .86.7 1.56 1.56 1.56v-.02c.07 0 .13.02.2.02.86 0 1.56-.7 1.56-1.56zm-17.89 0c0-.86-.7-1.56-1.56-1.56-.07 0-.13.01-.2.02V.09c-.86 0-1.56.7-1.56 1.56 0 .86.7 1.56 1.56 1.56v-.02c.07 0 .13.02.2.02.86 0 1.56-.7 1.56-1.56zm-17.89 0c0-.86-.7-1.56-1.56-1.56-.07 0-.13.01-.2.02V.09c-.86 0-1.56.7-1.56 1.56 0 .86.7 1.56 1.56 1.56v-.02c.07 0 .13.02.2.02.86 0 1.56-.7 1.56-1.56zm-17.89 0c0-.86-.7-1.56-1.56-1.56-.07 0-.13.01-.2.02V.09c-.86 0-1.56.7-1.56 1.56 0 .86.7 1.56 1.56 1.56v-.02c.07 0 .13.02.2.02.86 0 1.56-.7 1.56-1.56zm-17.89 0c0-.86-.7-1.56-1.56-1.56-.07 0-.13.01-.2.02V.09c-.86 0-1.56.7-1.56 1.56 0 .86.7 1.56 1.56 1.56v-.02c.07 0 .13.02.2.02.86 0 1.56-.7 1.56-1.56zm-17.89 0c0-.86-.7-1.56-1.56-1.56-.07 0-.13.01-.2.02V.09c-.86 0-1.56.7-1.56 1.56 0 .86.7 1.56 1.56 1.56v-.02c.07 0 .13.02.2.02.86 0 1.56-.7 1.56-1.56zm-17.89 0c0-.86-.7-1.56-1.56-1.56-.07 0-.13.01-.2.02V.09c-.86 0-1.56.7-1.56 1.56 0 .86.7 1.56 1.56 1.56v-.02c.07 0 .13.02.2.02.86 0 1.56-.7 1.56-1.56zm-17.89 0c0-.86-.7-1.56-1.56-1.56-.07 0-.13.01-.2.02V.09c-.86 0-1.56.7-1.56 1.56 0 .86.7 1.56 1.56 1.56v-.02c.07 0 .13.02.2.02.86 0 1.56-.7 1.56-1.56zm-17.89 0c0-.86-.7-1.56-1.56-1.56-.07 0-.13.01-.2.02V.09c-.86 0-1.56.7-1.56 1.56 0 .86.7 1.56 1.56 1.56v-.02c.07 0 .13.02.2.02.86 0 1.56-.7 1.56-1.56zm-17.89 0c0-.86-.7-1.56-1.56-1.56-.07 0-.13.01-.2.02V.09c-.86 0-1.56.7-1.56 1.56 0 .86.7 1.56 1.56 1.56v-.02c.07 0 .13.02.2.02.86 0 1.56-.7 1.56-1.56zm-17.89 0c0-.86-.7-1.56-1.56-1.56-.07 0-.13.01-.2.02V.09c-.86 0-1.56.7-1.56 1.56 0 .86.7 1.56 1.56 1.56v-.02c.07 0 .13.02.2.02.86 0 1.56-.7 1.56-1.56zm-17.89 0c0-.86-.7-1.56-1.56-1.56-.07 0-.13.01-.2.02V.09c-.86 0-1.56.7-1.56 1.56 0 .86.7 1.56 1.56 1.56v-.02c.07 0 .13.02.2.02.86 0 1.56-.7 1.56-1.56zm-17.89 0c0-.86-.7-1.56-1.56-1.56-.07 0-.13.01-.2.02V.09c-.86 0-1.56.7-1.56 1.56 0 .86.7 1.56 1.56 1.56v-.02c.07 0 .13.02.2.02.86 0 1.56-.7 1.56-1.56zm-17.89 0c0-.86-.7-1.56-1.56-1.56-.07 0-.13.01-.2.02V.09c-.86 0-1.56.7-1.56 1.56 0 .86.7 1.56 1.56 1.56v-.02c.07 0 .13.02.2.02.86 0 1.56-.7 1.56-1.56zm-17.89 0c0-.86-.7-1.56-1.56-1.56-.07 0-.13.01-.2.02V.09c-.86 0-1.56.7-1.56 1.56 0 .86.7 1.56 1.56 1.56v-.02c.07 0 .13.02.2.02.86 0 1.56-.7 1.56-1.56zm-17.89 0c0-.86-.7-1.56-1.56-1.56-.07 0-.13.01-.2.02V.09c-.86 0-1.56.7-1.56 1.56 0 .86.7 1.56 1.56 1.56v-.02c.07 0 .13.02.2.02.86 0 1.56-.7 1.56-1.56zm-17.89 0c0-.86-.7-1.56-1.56-1.56-.07 0-.13.01-.2.02V.09c-.86 0-1.56.7-1.56 1.56 0 .86.7 1.56 1.56 1.56v-.02c.07 0 .13.02.2.02.86 0 1.56-.7 1.56-1.56zm-17.89 0c0-.86-.7-1.56-1.56-1.56-.07 0-.13.01-.2.02V.09c-.86 0-1.56.7-1.56 1.56 0 .86.7 1.56 1.56 1.56v-.02c.07 0 .13.02.2.02.86 0 1.56-.7 1.56-1.56zm-17.89 0c0-.86-.7-1.56-1.56-1.56-.07 0-.13.01-.2.02V.09c-.86 0-1.56.7-1.56 1.56 0 .86.7 1.56 1.56 1.56v-.02c.07 0 .13.02.2.02.86 0 1.56-.7 1.56-1.56zm-17.89 0c0-.86-.7-1.56-1.56-1.56-.07 0-.13.01-.2.02V.09c-.86 0-1.56.7-1.56 1.56 0 .86.7 1.56 1.56 1.56v-.02c.07 0 .13.02.2.02.86 0 1.56-.7 1.56-1.56zm-17.89 0c0-.86-.7-1.56-1.56-1.56-.07 0-.13.01-.2.02V.09c-.86 0-1.56.7-1.56 1.56 0 .86.7 1.56 1.56 1.56v-.02c.07 0 .13.02.2.02.86 0 1.56-.7 1.56-1.56zm-17.89 0c0-.86-.7-1.56-1.56-1.56-.07 0-.13.01-.2.02V.09c-.86 0-1.56.7-1.56 1.56 0 .86.7 1.56 1.56 1.56v-.02c.07 0 .13.02.2.02.86 0 1.56-.7 1.56-1.56zm-17.89 0c0-.86-.7-1.56-1.56-1.56-.07 0-.13.01-.2.02V.09c-.86 0-1.56.7-1.56 1.56 0 .86.7 1.56 1.56 1.56v-.02c.07 0 .13.02.2.02.86 0 1.56-.7 1.56-1.56zm-17.89 0c0-.86-.7-1.56-1.56-1.56-.07 0-.13.01-.2.02V.09c-.86 0-1.56.7-1.56 1.56 0 .86.7 1.56 1.56 1.56v-.02c.07 0 .13.02.2.02.86 0 1.56-.7 1.56-1.56zm-17.89 0c0-.86-.7-1.56-1.56-1.56-.07 0-.13.01-.2.02V.09c-.86 0-1.56.7-1.56 1.56 0 .86.7 1.56 1.56 1.56v-.02c.07 0 .13.02.2.02.86 0 1.56-.7 1.56-1.56zm-17.89 0c0-.86-.7-1.56-1.56-1.56-.07 0-.13.01-.2.02V.09c-.86 0-1.56.7-1.56 1.56 0 .86.7 1.56 1.56 1.56v-.02c.07 0 .13.02.2.02.86 0 1.56-.7 1.56-1.56zm-17.89 0c0-.86-.7-1.56-1.56-1.56-.07 0-.13.01-.2.02V.09c-.86 0-1.56.7-1.56 1.56 0 .86.7 1.56 1.56 1.56v-.02c.07 0 .13.02.2.02.86 0 1.56-.7 1.56-1.56zm-17.89 0c0-.86-.7-1.56-1.56-1.56-.07 0-.13.01-.2.02V.09c-.86 0-1.56.7-1.56 1.56 0 .86.7 1.56 1.56 1.56v-.02c.07 0 .13.02.2.02.86 0 1.56-.7 1.56-1.56zm-17.89 0c0-.86-.7-1.56-1.56-1.56-.07 0-.13.01-.2.02V.09c-.86 0-1.56.7-1.56 1.56 0 .86.7 1.56 1.56 1.56v-.02c.07 0 .13.02.2.02.86 0 1.56-.7 1.56-1.56zm-17.89 0c0-.86-.7-1.56-1.56-1.56-.07 0-.13.01-.2.02V.09c-.86 0-1.56.7-1.56 1.56 0 .86.7 1.56 1.56 1.56v-.02c.07 0 .13.02.2.02.86 0 1.56-.7 1.56-1.56zm-17.89 0c0-.86-.7-1.56-1.56-1.56-.07 0-.13.01-.2.02V.09c-.86 0-1.56.7-1.56 1.56 0 .86.7 1.56 1.56 1.56v-.02c.07 0 .13.02.2.02.86 0 1.56-.7 1.56-1.56zm-17.89 0c0-.86-.7-1.56-1.56-1.56-.07 0-.13.01-.2.02V.09c-.86 0-1.56.7-1.56 1.56 0 .86.7 1.56 1.56 1.56v-.02c.07 0 .13.02.2.02.86 0 1.56-.7 1.56-1.56zm-17.89 0c0-.86-.7-1.56-1.56-1.56-.07 0-.13.01-.2.02V.09c-.86 0-1.56.7-1.56 1.56 0 .86.7 1.56 1.56 1.56v-.02c.07 0 .13.02.2.02.86 0 1.56-.7 1.56-1.56zm-17.89 0c0-.86-.7-1.56-1.56-1.56-.07 0-.13.01-.2.02V.09c-.86 0-1.56.7-1.56 1.56 0 .86.7 1.56 1.56 1.56v-.02c.07 0 .13.02.2.02.86 0 1.56-.7 1.56-1.56zm-17.89 0c0-.86-.7-1.56-1.56-1.56-.07 0-.13.01-.2.02V.09c-.86 0-1.56.7-1.56 1.56 0 .86.7 1.56 1.56 1.56v-.02c.07 0 .13.02.2.02.86 0 1.56-.7 1.56-1.56zm-17.89 0c0-.86-.7-1.56-1.56-1.56-.07 0-.13.01-.2.02V.09C.42.09-.28.79-.28 1.65c0 .86.7 1.56 1.56 1.56v-.02c.07 0 .13.02.2.02.86 0 1.56-.7 1.56-1.56z" fill="url(#paint0_linear_342_6021)"/></g><defs><linearGradient id="paint0_linear_342_6021" x1="808.09" y1="404.09" x2="-.28" y2="404.09" gradientUnits="userSpaceOnUse"><stop stop-color="#32A1DF"/><stop offset="1" stop-color="#32A1DF" stop-opacity="0"/></linearGradient><clipPath id="clip0_342_6021"><path fill="#fff" transform="rotate(90 404 404)" d="M0 0h18v808H0z"/></clipPath></defs></svg>