<svg width="210" height="20" fill="none" xmlns="http://www.w3.org/2000/svg"><g clip-path="url(#clip0_229_2543)"><path d="M161.432 17.696L149.713 0h-3.877l13.244 20h4.716l13.233-20h-3.888l-11.72 17.696h.011zM134.503 0l-13.244 20h3.888l11.709-17.685L148.575 20h3.888L139.208 0h-4.705zm46.204 19.99H210v-3.196h-26.035v-5.185H210V8.413h-29.293v11.598-.022zm-92.408 0h29.304v-3.196H91.569v-5.185h26.034V8.413H88.299v11.598-.022zM19.131 0H0v3.196h19.131c3.81 0 6.904 3.043 6.904 6.793s-3.093 6.794-6.904 6.794H0v3.195h19.131c5.6 0 10.151-4.478 10.151-9.989 0-5.51-4.54-9.989-10.15-9.989zM210 0h-29.293v3.196H210V0zm-92.408 0H88.288v3.196h29.304V0zM38.063 20V0h-3.247v20h3.247zm37.434 0h-3.59L64.264 3.805 56.62 20h-3.59L43.586 0h3.59l7.644 16.196L62.463 0h3.59l7.644 16.196L81.35 0h3.59l-9.444 19.99V20z" fill="#32A1DF"/></g><defs><clipPath id="clip0_229_2543"><path fill="#fff" d="M0 0h210v20H0z"/></clipPath></defs></svg>