<svg width="180" height="18" fill="none" xmlns="http://www.w3.org/2000/svg"><g clip-path="url(#clip0_328_3085)"><path d="M138.37 15.168L128.325 0h-3.323l11.352 17.143h4.043L151.739 0h-3.333l-10.045 15.168h.009zM115.288 0l-11.352 17.143h3.333l10.036-15.159 10.045 15.159h3.333L119.321 0h-4.033zm39.604 17.134H180v-2.74h-22.315V9.95H180V7.211h-25.108v9.941-.018zm-79.207 0h25.118v-2.74H78.487V9.95h22.316V7.211H75.685v9.941-.018zM16.398 0H0v2.74h16.398c3.266 0 5.917 2.608 5.917 5.822s-2.65 5.823-5.917 5.823H0v2.74h16.398c4.8 0 8.7-3.84 8.7-8.563 0-4.723-3.89-8.562-8.7-8.562zM180 0h-25.108v2.74H180V0zm-79.207 0H75.675v2.74h25.118V0zM32.626 17.143V0h-2.784v17.143h2.784zm32.086 0h-3.077L55.083 3.26l-6.551 13.882h-3.078L37.36 0h3.077l6.551 13.882L53.54 0h3.077l6.552 13.882L69.728 0h3.078l-8.095 17.134v.009z" fill="#fff"/></g><defs><clipPath id="clip0_328_3085"><path fill="#fff" d="M0 0h180v17.143H0z"/></clipPath></defs></svg>