<svg id="_Слой_2" data-name="Слой 2" xmlns="http://www.w3.org/2000/svg" viewBox="0 0 1926.15 1074.49"><defs><style>.cls-2,.cls-3{fill:#275d7f}.cls-4{opacity:.2}.cls-5{fill:#7da0af;font-size:15px}.cls-5,.cls-6,.cls-7{font-family:Calibri-Light,Calibri;font-weight:300}.cls-3{stroke:#569dc1;stroke-miterlimit:10}.cls-9{font-family:Calibri,Calibri}.cls-6,.cls-9{font-size:17px}.cls-6,.cls-7,.cls-9{fill:#afcad8}.cls-7{font-size:14px}</style></defs><g id="_Слой_1-2" data-name="Слой 1"><path fill="#1c1920" d="M.5 1.08h1925.15v1072.91H.5z"/><g class="cls-4"><path class="cls-3" d="M590.27 102.71l8 .1c.29-23.85-.91-62.61-2.53-101.73h-8c1.61 39.1 2.82 77.84 2.53 101.63zm102.13 5.39l7.99-.48c-.76-12.65-2.73-58.47-4.72-106.55h-8.01c2 48.25 3.98 94.31 4.74 107.03zm192.51-5.12l7.99-.45-5.79-101.45h-8.01l5.81 101.9zm1040.74 929c-5.8 2.14-9.64 3.43-9.74 3.46l.95 2.85c.09-.03 3.52-1.18 8.79-3.11v-3.2z"/><path class="cls-3" d="M1752.44 916.65c56.2-23.12 137.54-57.24 173.21-72.23v-8.68c-15.86 6.67-42.85 18-73.02 30.62-18.28-12.56-18.23-16.99-18.16-22.51 0-.39.01-.79.01-1.2 0-7.25-3.07-12.08-3.17-12.23-17.84-30.08-183.87-139.83-190.93-144.49l-1.65 2.5c1.72 1.14 172.51 114.02 190.04 143.56.03.04 2.72 4.27 2.72 10.65 0 .39 0 .78-.01 1.16-.09 6.88.8 11.94 17.88 23.92-51.23 21.42-110.65 46.11-140.06 57.84-48.24 19.24-144.16 56.57-230.26 89.96-14.95-41.72-54.88-157.78-61.35-176.6l23.65-77.52c12.63-7.01 22.39-18.59 27.04-32.49l67.22-60.53c5.9-1.81 9.77-3.14 10.25-3.31l.21-.07 264.92-108.15c2.43 8.1 6.84 19.58 13.5 25.56 2.4 2.15 4.93 3.98 7.37 5.75 8.21 5.94 16.69 12.08 24.95 32.59 11.11 27.6 52.35 129.37 52.77 130.39l.05.11c.04.1 4.17 9.64 3.42 19.18-.79 9.89 2.16 21.49 8.76 34.47l.84 1.65c1.35 2.66 2.16 4.27 3.04 5.46v-17.78c-3.62-8.74-5.2-16.51-4.67-23.17.89-11.26-3.59-21.93-4.04-22.97-1.1-2.71-41.73-102.97-52.74-130.33-9.12-22.65-18.98-29.79-27.68-36.09-2.39-1.73-4.64-3.36-6.72-5.23-5.19-4.65-9.12-14.9-11.4-22.64l107.25-43.79v-18.36l-113.34 46.27c-7.76-14.92-13.35-26.44-18.02-36.86l47.37-19.57-3.05-7.39-47.54 19.64c-4.51-10.47-8.36-20.35-13-32.24-3.82-9.79-8.15-20.89-13.8-34.75-4.99-12.23-8.84-21.73-11.95-29.41l21.63-7.96-2.76-7.51-21.87 8.05c-1.79-4.45-3.3-8.2-4.65-11.53-1.6-3.98-2.98-7.39-4.33-10.73l38.95-14.46.43-.3c.55-.39 13.61-9.66 21.54-19.98l.12-.15c7.31-9.5 9.27-12.05 25.04-18.5 13.52-5.53 40.05-17.56 49.93-22.06l49.29 124.74v-21.77l-41.96-106.17 41.96-17.35V263l-44.83 18.54-66.64-177.39 111.47-47.24v-8.69l-45.05 19.09c-3.07-9.28-11.12-33.61-22.1-66.26h-8.44c11.66 34.67 20.17 60.4 23.15 69.4l-61.96 26.25-39.02-95.62h-8.64l41.74 102.37 68.11 181.3c-9.47 4.32-36.47 16.57-50.07 22.13-17.76 7.27-20.65 11.01-28.35 21.03l-.12.15c-6.45 8.39-17.19 16.41-19.41 18.03l-38.19 14.18c-1.52-3.71-3.18-7.74-5.24-12.66-4.93-11.83-9.24-23.32-16.38-42.37-4.33-11.54-9.94-26.52-17.58-46.57 6.79-1.78 20.38-5.62 28.35-9.82 11.44-6.02 10.15-19.31 10.09-19.87l-.03-.29-17.08-32.13c15.09-8.16 23.48-15.37 25.52-21.89 5.42-17.34-14.28-59.45-16.55-64.19l-7.22 3.45c5.78 12.11 19.93 46.2 16.13 58.36-3.11 9.96-36.57 25.57-59.3 34.09-.02-.04-.03-.09-.05-.13-15.93-41.15-35.74-91.57-53.01-135.34 9.73-3.4 34.94-13.02 55.7-27.97 12.77-9.2 19.56-20.49 20.17-33.57.12-2.68 0-5.44-.38-8.29h-8.18c2.27 14.68-3.07 25.86-16.28 35.37-19.91 14.34-44.88 23.82-53.97 27-9.52-24.11-18.12-45.83-24.68-62.37h-8.61c18.57 46.82 55.46 140.08 81.78 208.06 18.92 48.88 30.21 78.99 37.68 98.91 1.09 2.91 2.11 5.63 3.08 8.21l-68.94 23.98c-1.63.53-24.78 8.33-28.19 26.54-2.59 13.8-13.38 20.31-42.47 31.74-22.83 8.97-51.31 21.1-62.49 25.9a13.88 13.88 0 00-7.19 7c-1.57 3.44-5.89 9.91-17.21 14.62-17.64 7.35-59.39 23.87-62.1 24.94-2.06.66-19.44 6.62-26.41 22.22-4.4 9.84-3.67 21.19 2.17 33.71 17.72 38.06 23.86 49.38 24.11 49.84l7.02-3.83c-.06-.11-6.32-11.66-23.89-49.39-4.8-10.31-5.52-19.41-2.13-27.03 5.73-12.9 21.48-17.88 21.63-17.93l.31-.11c.44-.17 44.16-17.46 62.37-25.05 13.84-5.77 19.35-14.18 21.41-18.69a5.915 5.915 0 013.06-2.97c11.15-4.78 39.54-16.88 62.26-25.8 27.09-10.64 43.8-18.49 47.41-37.71 2.58-13.77 22.62-20.35 22.81-20.42l69.28-24.1c3.99 10.55 7.13 18.65 10.58 26.93 5.38 12.91 8.08 19.62 12.55 30.72 4 9.94 9.48 23.55 19.61 48.4 5.63 13.8 9.94 24.87 13.75 34.63 1 2.57 1.97 5.05 2.92 7.47-4.22 2.55-14.05 7.87-31.67 14.15-25.19 8.98-135.18 47.71-138.8 48.99-1.29.4-10.69 3.55-14.6 11.81-2.4 5.06-2.25 10.8.43 17.05 5.65 13.17 18.06 41.58 24.11 55.4l-72.96 29.78c-2.94 1-36.72 12.39-59.82 13.77-19.84 1.19-32.88-1.15-36.61-1.94a57.839 57.839 0 00-30.46-8.63c-.25 0-.5.02-.74.02-13.37-5.39-44.16-23.1-58.2-32.46-12.15-8.1-23.78-25.44-26.19-29.16l-32-89.05-55.91-176.03c-.42-1.34-.81-2.7-1.14-4.05l-49.56-203.35c30.31-8.34 60.72-17.01 88.75-25.44 66.07-19.88 160-54.23 251.22-91.69H1484c-77.89 30.98-154.53 58.49-210.76 75.41-28.54 8.59-59.57 17.43-90.44 25.91l-3.95-101.32h-8.01l4.04 103.49c-31.51 8.6-62.6 16.75-90.45 23.82l-3.55-127.31h-8l3.61 129.32c-13.95 3.51-26.97 6.72-38.69 9.54-15.52 3.73-32.71 7.77-50.8 11.96L982.84 1.08h-8l4.23 152.66c-28.22 6.51-58.29 13.31-87.46 19.84l1.3-18.36-7.98-.56-1.47 20.75c-25.32 5.66-49.76 11.06-71.43 15.83-3.6.79-7.15 1.58-10.67 2.35-3.72-53.48-7.41-128.28-10.27-192.5h-8.01c2.89 64.83 6.63 140.51 10.38 194.25-96.36 21.39-160.53 37.17-195.84 48.17-33.04 10.29-66.54 19.19-101.26 26.88-1.01-9.47-2.62-27.26-4.31-56.52-1.34-23.24-3.5-48.07-6.01-76.81-2.7-30.95-5.75-66.02-8.29-105.77-.64-9.95-1.43-20.09-2.31-30.19h-8.03c.9 10.27 1.71 20.58 2.35 30.7 2.55 39.83 5.61 74.96 8.31 105.95 2.5 28.69 4.66 53.46 5.99 76.58 1.75 30.46 3.41 48.45 4.42 57.78-15.23 3.28-30.7 6.33-46.47 9.17L415.95 1.08h-20.09l44.96 483.29.08.63c.09.56 8.98 56.45 25.88 128.07 5.36 22.73 11.93 48.71 19.65 75.86-5.49 7.84-11.63 12.28-18.33 13.2-6.22.86-12.09-1.42-16.52-4.02-27.53-99.71-42.84-200.78-57.78-299.56-3.65-24.15-7.11-46.95-10.76-69.88-14.41-90.49-25.96-226.95-33.23-327.6h-20.05c6.06 84.06 15.13 193.51 26.38 280.64l-68.85 8.33c-1.53-10.01-2.2-19.17.33-22.35 1.26-1.58 3.93-2.3 9.5-2.56 6.97-.32 11.97-2.26 14.89-5.74 2.63-3.15 2.58-6.47 2.5-7.41-.36-4.8-8.54-114.67-9.92-122.59-.42-2.4-1.18-5.27-2.13-8.91-2.3-8.71-6.14-23.29-9.76-48.84-3.28-23.19-3.73-31.1-4.09-37.46-.21-3.63-.39-6.77-1-11.82-.82-6.7.54-14.92 2.03-21.28h-8.21c-1.46 6.75-2.64 15.07-1.76 22.25.58 4.8.76 7.81.96 11.31.37 6.51.83 14.61 4.16 38.13 3.68 26.02 7.6 40.88 9.95 49.76.91 3.45 1.63 6.17 1.99 8.24 1.05 6.04 6.89 82.33 9.82 121.82l-.04-.06.05.22c-.03 1.51-2.11 4.04-9.79 4.4-5.5.26-11.68.92-15.39 5.57-3.8 4.77-4.44 12.31-2.02 28.3l-1.31.16 1.02 8.44-1.26-8.41c-66.58 10.01-152.85 10.36-212.04 8.98L40.02 21.18l-7.97.73L48.9 204.54c-23 11.39-39.53 38.12-48.41 55.75v19.49h.03c.19-.51 18.68-49.21 49.18-66.6l8.01 86.8c-28.48-.76-49.54-1.87-57.21-2.31v17.03c13.77.77 59.31 3.06 114.37 3.06s114.63-2.12 165.31-9.72l1.81-.22 15.87 109.26c.07 1.14.51 3.69 2.94 6.15 3.84 3.89 10.81 5.73 20.73 5.48 4.07-.11 7.55 0 10.61.1 1.67.05 3.25.1 4.76.1 9.04 0 15.06-1.77 17.41-15.43 2.1-12.2 8.12-20.21 17.9-23.94.6 3.97 1.21 7.96 1.82 12.01C395.05 540.44 418.87 697.87 480.39 843c3.33 7.86 6.75 15.89 10.26 24.05-4.15 6.69-10.69 16.49-18.31 25.24-34.1-27.8-76.23-56.22-76.66-56.51l-.36-.22c-7.53-3.99-14.9-9.6-15.47-11.77-1.73-6.64-19.56-43.35-25.62-54.74-6.35-11.95-22.07-23.21-24.58-24.95l-29.44-29.31-19.68-5.81c-2.24-1.06-13.07-5.62-40.59-9.02-35.69-4.41-71.53-7.99-83.52.73-14.9 10.84-13.49 32.64-11.13 48.09 3.14 20.61 11.84 34.06 45.43 37.42l4.71.47c27.51 2.74 41.32 4.12 59.45 8.44 19.12 4.55 50.31 13.02 50.62 13.1l2.1-7.72c-.31-.08-31.62-8.58-50.86-13.16-18.65-4.44-32.63-5.83-60.5-8.61l-4.7-.47c-28.88-2.89-35.56-12.59-38.32-30.67-3.25-21.28-.73-34.12 7.93-40.42 10.44-7.59 54.28-2.18 77.84.74 28.75 3.55 38.15 8.3 38.21 8.34l.37.2 18.46 5.45 28.52 28.4.31.21c.16.11 16.5 11.34 22.34 22.32 6.84 12.86 23.59 47.84 24.94 53 1.81 6.92 14.96 14.42 19.27 16.72 2.96 2 42.87 29.07 75.5 55.63-4.27 4.26-8.76 7.95-13.26 10.44-19.65 10.83-37.09 7.55-83.69-1.22-3.01-.57-6.14-1.16-9.4-1.76-52-9.72-110.93-20.74-172.24-29.64-52.83-7.68-121.6-6.61-144.2-6.26-2.74.04-4.87.08-6.32.09-13.45-4.87-32.42-19.76-37.26-23.66v10.18c5.78 4.43 14.75 10.93 23.63 15.88-8.47 2.47-17.82 6.31-23.63 8.83v8.75c9-4.04 28.34-11.98 36.56-11.98 1.43 0 3.87-.04 7.14-.09 22.44-.35 90.73-1.41 142.92 6.17 7.75 1.13 15.47 2.29 23.14 3.48-.13 6.05-.91 16.12-3.61 22.25-9.01 4.31-63.62 30.45-101.68 48.4-41.52 19.58-60.67 30.33-60.85 30.43l3.93 6.97c.19-.1 19.12-10.73 60.34-30.16 36.11-17.03 87.1-41.42 99.96-47.58 2.32 3.43 4.61 7.46 7 11.68 6.87 12.11 13.98 24.63 24.9 29.32 4.68 2.01 9.88 3.64 15.21 5.01-4.06 3.25-11 7.99-22.18 13.41-22.23 10.78-163.04 80.53-164.46 81.23l3.55 7.17c.37-.18 10.01-4.96 24.48-12.12l3.7 9.93 7.5-2.79-3.99-10.71c43.24-21.4 117.14-57.96 132.71-65.51 16.89-8.19 24.98-15.12 28.23-18.41 5.12 1.06 10.15 1.95 14.75 2.76 2.95.52 5.74 1.01 8.31 1.51 11.44 2.2 19.02 4.74 27.86 21.43 6.79 12.83 18.46 35.99 27.27 55.48l-23.66 11.23 3.43 7.23 23.48-11.14c1.39 3.19 2.66 6.23 3.77 9.01l7.43-2.96c-8.42-21.1-25.72-55.72-34.65-72.58-9.58-18.1-18.41-22.66-33.42-25.55-2.6-.5-5.44-1-8.43-1.53-11.87-2.09-26.64-4.7-37.73-9.45-8.44-3.62-14.87-14.95-21.09-25.91-2.71-4.78-5.29-9.33-8.04-13.25 3.01-7.4 3.78-17.61 3.96-23.54 49.94 7.88 97.77 16.82 140.82 24.87 3.25.61 6.38 1.2 9.39 1.76 26.45 4.98 43.9 8.26 57.88 8.26 11.74 0 21.04-2.32 31.16-7.9 14.73-8.12 28.66-26.82 37.01-39.63 26.26 60.74 57.4 128.76 94.5 196.1l17.52-9.65c-1.23-2.23-2.45-4.46-3.67-6.7 4.56-2.96 10.04-7.49 14.53-14.09 4.46-6.57 10.71-11.12 15.8-14.03 7.82 15.08 15.76 30.01 23.73 44.47l17.51-9.66c-32.06-58.15-63.69-124.12-89.12-177.14-8.82-18.39-17.15-35.76-24.44-50.58-63.64-129.47-98.64-343.13-100.16-352.51l-17.11-183.95c15.63-2.79 30.97-5.79 46.07-9.01.43 13.56 1.71 39.78 5.5 65.95 6.13 42.33 27.02 184.65 38.51 239.05.97 4.58 1.86 8.83 2.69 12.79 9.09 43.27 11.25 53.55 29.41 110.83 19.59 61.83 47.56 122.34 47.88 123.02l94.17 191.63h.1l16.82 31.31 7.05-3.79-15.26-28.4c10.02-1.55 32.51-6.3 68.38-20.65 43.5-17.4 130.31-53.19 149.45-61.09 1.58 3.21 3.09 6.18 4.51 8.87 10.06 19 15.05 28.27 17.53 32.81l-41.92 20.41-.6.9c-.99 1.48-2.73 6.13 2.43 17.19 4.7 10.08 17.73 38.57 17.86 38.86l7.28-3.33c-.13-.29-13.17-28.8-17.89-38.91-2.22-4.75-2.7-7.52-2.77-8.88l51.14-24.91 17.07-6.67 27 77.03 7.55-2.65-27.09-77.3 146.02-57.07-2.91-7.45-170.69 66.72-5.26 2.56c-2.3-4.19-7.23-13.34-17.66-33.05-18.07-34.13-50.96-116.54-51.29-117.37l-66.28-151.51c3.48-1.29 6.89-2.57 10.26-3.83 9.7-3.62 19.72-7.37 30.66-11.25 13.52-4.79 26.27-7.89 38.59-10.88 9.68-2.35 19.68-4.78 29.71-7.97 23.89-7.6 38.31-13.5 59.33-24.25 17-8.7 44.71-17.31 66.98-24.24 6.16-1.92 11.98-3.73 17.2-5.42 24.17-7.83 42.56-12.39 78.69-19.51 24.88-4.91 37.32-7.9 42.77-9.32l53.52 139.3-12.54 4.03c-1.97.49-17.73 4.82-25.27 18.58-4.9 8.93-5.2 19.66-.9 31.88 12.96 36.84 18.25 47.12 25.8 60.86 6.25 11.37 36.38 67.56 45.76 85.08l-135.71 59.69 3.22 7.32 168.78-74.24c8.35 21.72 32.3 89.09 42.58 118.42-6.02-2.43-10.82-6.23-18.37-17.1-7.91-11.41-18.36-9.21-18.8-9.11l-.28.06-182.39 69.28 2.84 7.48 181.74-69.04c1.12-.12 6.05-.27 10.32 5.88 10.83 15.61 17.49 18.82 28.28 22.11.53 1.54.93 2.71 1.17 3.43 2.45 7.35 6.49 15.12 9.2 19.93-21.96 8.49-40.44 15.64-53.53 20.69h22.19c10.38-4.01 22.4-8.66 35.68-13.79l10.03 13.79h9.89l-12.2-16.78c21.75-8.41 46.4-17.96 72.31-28 .23.62.45 1.21.65 1.76 6.3 16.98 12.97 32.28 17.89 43.02h18.77c-4.76-10.04-13.11-28.4-20.72-48.93-.23-.61-.48-1.29-.73-2 38.01-14.74 77.95-30.26 114.86-44.65 5.73 13.95 20.31 49.4 23.35 56.31 1.84 4.18-.39 14.52-2.02 22.07-1.22 5.66-2.28 10.54-2.28 14.23v2.95h8v-2.95c0-2.84 1.02-7.55 2.1-12.55 2.17-10.04 4.41-20.42 1.52-26.98-2.95-6.71-17.48-42.02-23.22-56 21.34-8.32 41.52-16.22 59.57-23.3l26.04 67.38 7.46-2.88-26.06-67.42c15.86-6.23 29.83-11.76 41.17-16.28 8.66-3.45 19.92-8.03 32.79-13.31l62.15 154.29h8.62l-63.38-157.33zm-71.51-702.83c5.54-2.11 16.32-6.38 27.32-11.6 3.05-1.45 5.9-2.86 8.56-4.25l16.8 31.6c.11 1.78.31 11.97-8.53 16.63-7.74 4.07-21.46 7.93-28.03 9.65-4.61-12.1-9.94-25.99-16.13-42.02zm-84.68 346.93c-1.75-4.1-1.94-7.51-.57-10.45 2.54-5.42 9.69-7.61 9.75-7.63l.22-.07c1.13-.4 113.41-39.94 138.91-49.03 16.77-5.98 26.82-11.14 31.96-14.14 7.22 18.13 14.36 34.56 28.36 61.53l-184.46 75.3c-6.02-13.75-18.51-42.32-24.17-55.53zM346.41 412.12c-1.03 6-2.38 7.41-3.45 7.97-1.87.99-5.53.88-10.59.72-3.17-.1-6.77-.21-11.07-.1-11.39.31-14.91-2.61-15.42-3.93l-15.97-109.93 68.46-8.28c1.59 11.61 3.23 22.74 4.9 33.25 2.61 16.42 5.13 32.8 7.69 49.67-13.29 4.45-21.88 15.04-24.57 30.64zm142.74 286.27c14.36 49.3 32.4 101.66 53.76 145.12 7.24 14.73 15.55 32.06 24.35 50.41 18.86 39.33 41.13 85.76 64.51 130.98-5.4 3.06-12.05 7.91-16.89 15.04-4.12 6.07-9.23 10.31-13.5 13.11-41.19-75.97-74.9-152.52-102.59-217.85-17.73-41.83-32.19-84.22-44.35-126.89 3.32 1.21 7 2.02 10.92 2.02 1.24 0 2.5-.08 3.77-.25 7.38-1 14.08-4.93 20.02-11.67zm916.01 123.28c-2.23-3.69-3.13-6.32-3.14-6.34l-.08-.25c-.06-.17-6.07-17.27-11.02-36.56-1.51-5.87-2.27-11.07-2.62-15.4a57.805 57.805 0 0024.85 5.59c2.83 0 5.62-.21 8.34-.61l-16.34 53.57zm64.11-141.47c3.7 0 7.7-.11 11.97-.36 5.99-.36 12.5-1.29 19.01-2.52l-29.3 26.39c-1-8.58-3.87-16.59-8.19-23.62 2.06.07 4.23.12 6.52.12zm-56.11-10.9c22.72 0 41.2 18.48 41.2 41.2s-18.48 41.2-41.2 41.2-41.2-18.48-41.2-41.2 18.48-41.2 41.2-41.2zm-68.37-35.3c9.9 6.6 27.07 16.8 41.91 24.69a58.659 58.659 0 00-25.53 25.7l-.51-.56a61.086 61.086 0 01-12.17-20.22c-3.62-9.97-8.51-23.5-11.21-31.29-.66-1.92-1.25-3.86-1.79-5.82 2.96 2.78 6.08 5.36 9.3 7.5zm17.91 105.45c-6.1 5.37-15.51 13.51-21.01 17.53-8.63 6.31-21.86 13.9-35.86 14.21h-.36c-11.67 0-21.04-12.73-22.54-14.89l-16.34-42.52 76.5-24.6c1.54 2.09 3.19 4.11 4.95 6.05l7.36 8.15c-.29 2.34-.45 4.71-.45 7.12 0 10.53 2.83 20.41 7.74 28.95zm-320.91-582.98c35.36-8.5 82.58-20.57 131.23-33.77l11.62 47.66-80.32 27.87-159.36 36.98c-6.86-26.65-12.26-43.54-15.46-52.73 40.05-9.05 79.81-18.2 112.3-26.01zM602.67 259.72c11.62-3.62 26.45-7.77 44.61-12.49 2.11 11.32 6.55 33.81 14.58 68.59 15.22 65.96 25.82 105.28 32.41 120.2 8.01 18.16 14.25 34.36 18.65 54.39 3.59 16.36 5.3 30.64 5.85 35.77l-71.49 18.16c-2.37-5.56-5.41-11.81-8.69-18.53-5.06-10.39-10.3-21.14-13.46-30.4-6.23-18.23-50.93-185.15-61.39-224.27 13.08-3.61 26.04-7.41 38.94-11.43zm-99.59 94.3c-3.88-26.8-5.09-53.68-5.46-66.53 19.81-4.35 39.23-9.09 58.4-14.25 4.66 17.43 15.86 59.28 27.5 102.32l-74.86 16.46c-2.35-15.9-4.29-29.15-5.57-38zm38.42 238.54c-8.65-40.98-22.7-132.28-31.68-192.61l75.77-16.66c14.21 52.49 28.53 104.7 31.95 114.71 3.32 9.73 8.67 20.71 13.84 31.32 5.92 12.16 11.52 23.64 12.54 30.29 1.31 8.51.83 15.27.41 18.64l-100.4 25.93c-.76-3.63-1.57-7.48-2.45-11.62zm4.1 19.46l99.19-25.62c2.06 10.44 7.43 38.41 9.85 57.36.24 1.84.56 3.73.95 5.65l-95.51 22.61c-6.28-21.71-9.29-35.37-14.48-60.01zm237.59 391.01l-32.31-72.65-7.31 3.25 32.17 72.34c-35.24 13.58-56.18 17.21-63.12 18.11l-91.73-186.67c-.28-.6-28.03-60.65-47.48-121.99-4.59-14.49-8.15-25.95-11.06-35.7l66.87-15.83 95.39 224.84 7.36-3.12-94.85-223.58 20.38-4.82c6.77 23.99 21.82 50.2 25.25 56.02 4.92 8.33 9.16 10.82 15.44 10.82 3.45 0 7.53-.75 12.67-1.71.99-.18 2.02-.38 3.12-.57 6.89-1.25 18.06-4.17 30.79-7.85l46.69 126.55 49.97 138.96c-21.43 8.76-42.5 17.33-58.23 23.62zm147.71-60.39c-11.79 4.87-46.63 19.23-82.07 33.74l-18.19-50.57 77.98-33.39c7.2 16.98 15.2 35.29 22.28 50.22zm-43.64-102.01c.51 1.29 8.3 20.76 18.25 44.42l-77.58 33.21-28.97-80.56-46.51-126.07c15.69-4.68 32.82-10.2 46.88-15.06 7.7-2.67 14.79-5.22 21.55-7.69l66.39 151.75zm-20.62-177.14c-11 3.9-21.06 7.66-30.79 11.29-12.05 4.51-24.52 9.17-39.14 14.23-27.98 9.69-68.12 21.95-84.17 24.87-1.1.2-2.15.39-3.15.58-14.13 2.62-14.98 2.78-19.76-5.32-3.96-6.7-23.86-41.36-27.05-66.39-2.8-21.97-9.51-55.76-10.62-61.3.48-2.72 1.67-11.42-.12-23.06-.3-1.96-.88-4.15-1.67-6.53l150.62-38.26.37-.08.39-.19c.1-.05 2.59-1.18 5.18-.07 2.41 1.04 4.44 3.87 5.88 8.2.95 2.85 1.79 5.54 2.53 7.92 3.64 11.71 6.27 20.17 15.31 21.33 6.01.78 12.49 8.62 16.12 19.51 4.99 14.96 17.26 53.16 25.82 91.31-1.9.62-3.81 1.27-5.75 1.95zm126.66-42.68c-20.58 10.53-34.7 16.3-58.11 23.75-9.76 3.11-19.19 5.4-29.18 7.82-8.4 2.04-17.01 4.14-25.96 6.79-8.64-38.31-20.9-76.47-25.9-91.47-4.72-14.17-13.42-23.72-22.69-24.92-3.63-.47-5.18-4.47-8.69-15.77-.75-2.42-1.6-5.16-2.58-8.08-2.25-6.73-5.77-11.14-10.49-13.09-5.1-2.11-9.71-.55-11.22.1L726.6 524.2c-.67-6.05-2.4-19.68-5.87-35.49-4.54-20.68-10.94-37.31-19.14-55.91-6.38-14.46-16.83-53.31-31.93-118.77-8.14-35.28-12.58-57.79-14.61-68.79 23.78-6.07 52.74-13.03 87.15-20.93l51.92 230.9 7.8-1.76-51.93-230.93c20.11-4.59 41.98-9.48 65.68-14.7 31.41-6.91 68.61-15.16 105.95-23.57 3.37 9.6 9.62 29 17.54 60.66 4.17 16.69 9.32 35.62 14.3 53.92 9.77 35.94 19.01 69.89 20.32 84.37 1.98 21.82.01 38.93-1.99 49.44-1.86 9.78 1.72 22.97 5.52 36.93.75 2.75 1.49 5.5 2.2 8.22 3.65 14.15 29.91 113.8 35.18 133.82-7.94 2.99-15.29 6.08-21.39 9.2zm188.86-54.82l-36.09-146.83-7.77 1.91 36.03 146.59c-4.67.97-9.99 2.06-16.07 3.26-23.82 4.7-40.02 8.29-55.22 12.44l-37.17-140.26-7.73 2.05 37.2 140.38a554.14 554.14 0 00-16.69 5.15c-5.17 1.68-10.97 3.48-17.11 5.39-12.33 3.83-26.3 8.18-39.31 12.8-5.68-21.57-31.38-119.09-34.98-133.06-.71-2.76-1.47-5.54-2.22-8.32-3.39-12.47-6.9-25.37-5.38-33.33 2.1-11.01 4.16-28.92 2.1-51.66-1.38-15.18-10.7-49.46-20.57-85.75-4.97-18.26-10.1-37.15-14.26-53.76v-.02l158.01-36.66 95.18 355.52c-3.24.84-8.89 2.21-17.94 4.17zm-69.62-362.16l73.99-25.67 35.93 147.42c.42 1.73.91 3.47 1.45 5.17l55.96 176.18 11.01 30.66-83.06 22.13-95.28-355.9zm97.78 363.51l83.28-22.19 18.75 52.19c1.66 4.63 2.77 9.46 3.28 14.35l.22 2.11c.86 8.19 2.66 16.28 5.35 24.06 2.73 7.9 7.65 21.52 11.3 31.55 1.63 4.48 3.66 8.76 6.03 12.82l-74.82 24.05-53.4-138.95zm112.1 327.1l-26.13 11.49c-9.03-16.86-39.76-74.18-46.1-85.7-7.58-13.78-12.49-23.34-25.26-59.66-3.5-9.96-3.39-18.48.34-25.33 6.12-11.23 20.16-14.7 20.29-14.73l.16-.04 13.26-4.26 16.81 43.76.23.35c.5.78 12.4 18.85 29.46 18.85h.54c11.13-.25 23.21-4.45 35.24-12.2l28.6 72.67 2.79-1.1-28.83-73.27c.87-.6 1.74-1.21 2.6-1.84 5.56-4.06 14.59-11.84 20.79-17.28 1.28 1.64 2.64 3.22 4.08 4.71-.48 6.05-.55 17.37 3.17 31.88 5.04 19.64 10.95 36.57 11.43 37.93.55 1.64 4.63 12.84 15.51 23.22.22.63.48 1.39.79 2.29-4.89 1.71-12.63 3.03-24.18 1.53l-1.01-.13-.95.37c-16.54 6.42-46.44 18.98-46.74 19.11l-.45.22c-.55.32-12.64 7.57-6.43 27.18zm66.65 155.93c-2.51-4.41-6.75-12.34-9.15-19.54-3.57-10.7-40.92-116.27-48.77-135.72-5.93-14.7.53-20.08 1.56-20.82 3.2-1.34 29.62-12.42 45.28-18.52 12.23 1.46 20.9.02 26.78-2.04 11.65 33.84 45.06 130.79 58.39 167.96-26.62 10.32-51.91 20.11-74.09 28.69z"/></g><path d="M143.62 281.78l-67.09 5.45-1.62-19.98L142 261.8l1.62 19.98zM320.29 74.21l2.26 27.82 13.65-1.11-2.26-27.82-13.65 1.11zm-2.51-30.87l.87 10.68 6.65-.54-.87-10.68-6.65.54zm-14.07 289.2l7.4-.77.51 8.48h19.66l-1.74-21.5h-24.56l-1.27 13.79zm18.12-210.48l1.49 18.31 13.65-1.11-1.49-18.31-13.65 1.11zM215.65 638.71l113.85-8.98-6.38-51.37-110.56 6.94 3.1 53.41zm24.47-578.87l-62.44 5.07 4.69 57.68 62.44-5.07-4.69-57.68zm-98.17 733.11l-7.7 17.7 16.04 6.98 7.7-17.7-16.04-6.98zm9.97 32.31l-16.94-4.34-8.73 34.04 16.94 4.34 8.73-34.04zm94.36-625.86l-8.33-70.61-84.54 9.98 8.33 70.61 84.54-9.98zm187.2-155.78l-10.05.82 1.3 15.99 10.05-.82-1.3-15.99zm-32.03 930.7c-5.45-11.22-18.96-15.9-30.18-10.45l-14.86 7.21-2.47-5.08-26.12 12.68 2.47 5.08-6.11 2.96 9.86 20.31 67.4-32.72zm11.18-170.11l5.39-1.81-6.83-20.36-5.39 1.81-6.63-19.78-18.91 6.34 7.57 22.56 5.9 17.58 2.62 7.8 18.91-6.34-2.62-7.8zM276.96 667.14l28.58-1.33-.6-12.97-28.58 1.33.6 12.96zm-127.78 23.92l-31.54-63.4-19.1 9.5 31.54 63.4 19.1-9.5zm255.95 32.09l16.08 47.94 10.26-3.44-16.08-47.94-10.26 3.44zm-79.59 213.4l24.79 4.38 3.51-19.85-24.79-4.38-3.51 19.85zM194.96 282.2l.98 12.08 46.87-3.81-.98-12.08-46.87 3.81zm-12.71 67.22l-1.06-22.83-22.83 1.06 1.07 22.83 22.83-1.07zm197.96 167.9l-.99-21.21-12.66.59.99 21.21 12.66-.59zm76.6 328.23l-8.07-6.45-8.01-20.74-26.46 6.95-6.38 13.79 35.64 28.06 13.28-21.62zm-139.06-93.66l-38.67-8.13-1.5-5.11-90.21-13.96-8.17 44.26 138.55 32v-49.06zm21.96 98.43c5.62 3.06-3.57 23.49-3.57 23.49s4.43 4.08 20.85 16.4c19.15-31.26 5.36-47.44 5.36-47.44s-3.06-1.3-35.26-19.34c-32.2-18.04-64.49-3.06-64.49-3.06s8.17 9.87 14.64 18.75c36.43-10.87 56.85 8.15 62.47 11.21zm1222.57-462.27l30.25-12.56 2.26 5.43 8.8-3.66-1.18-2.85 7.54-3.13-12.72-30.63-10.19 4.23 7.99 19.25-36.4 15.12 3.66 8.8zm191.99-63.25l3.23-.68 4.94 8.34 9.7-4.09-2.55-4.94 1.83-1.53 4.12 3.23 14.3-8.51-4.6-11.23-4.77 1.53-9.06-22.13-11.02 4.09 1.7 6.47-2.55 1.19-2.21-5.11-13.79 7.15 5.11 12.77 4.6-1.36 2.89 7.49-2.89 1.21 1.02 6.11zm19.33 57.52l44.69-18.56-7.94-19.13-42.51 17.65 2.03 4.89-2.18.9 5.91 14.24zm-145.7 300.29l-86.05 32.66 73.81 194.45 84.05-37.93-71.81-189.18zm-32.03 342.92l6.45 15.43 15.43-6.45-6.45-15.43-15.43 6.45zm201.61-324.69l29.48-11.19-14.29-37.66-2.44.93-2.22-5.84-24.6 9.34 2.22 5.84-2.44.93 14.29 37.66zm59.26 65.21l-2.14.81-5.47 2.08-.65-1.72-10.8 4.1.65 1.72-7.61 2.89-1.68.64 3.92 10.32 1.68-.64 1.04 2.73-2.58.98 7.41 19.52 2.58-.98 1.51 3.98 4.35 11.46 23.88-9.06 3.49-1.32-4.35-11.46-1.53.58-1.51-3.98 2.42-.92-6.33-16.68-5.46-1.18-1.04-2.73 2.14-.81-3.92-10.32zM560.77 1039.81l6.52-3.37-12.69-24.55-6.52 3.37 12.69 24.55zM211.59 926.48l-200.3 96.74L.5 1000.89v73.1h5.55l224.44-108.41-18.89-39.11zm1712.19-465l-64.61-155.99-18.32 7.59 64.61 155.99 18.32-7.59zm-99.1-39.59l-13.72 5.68 7.29 17.59-7.42 3.07 12.68 30.6 31.91-13.22-12.68-30.6-10.77 4.46-7.29-17.59zm-59.2 195.78l-2.56 1.12 5.23 11.95 2.56-1.12 8.98 20.54 6.92-3.03 1.08 2.47 10.27-4.49-1.08-2.47 6.92-3.03-5.61-12.83 2.71-1.19-14.21-32.49-25.3 11.07L1767 617l-1.53.67zm-227.26 349.05l-3.78-11.74-7.4 2.38 3.78 11.74 7.4-2.38zm-218.74 47.07l-13.01-2.12-21.23 8.37-1.78 7.64-12.97-1.82-21.23 8.37-1.54 7.85-3.08 1.21-12.53-2.3-21.23 8.37-1.57 7.86-4.33 1.71-6.6-4.64-19.41 7.65h71.24l-1.25-3.17 11.85-4.67 1.42 3.59 21.23-8.37-1.41-3.59 14.3-5.63 1.42 3.59 21.23-8.37-1.41-3.59 7.75-3.05-5.86-14.86zm304.47-808.44l-21.44 9.31 5.28 12.16 4.18-1.81 6.41 14.76-5.56 2.41 14.29 32.91 21.56-9.36-14.29-32.91-2.35 1.02-6.41-14.76 3.62-1.57-5.28-12.16zM655.02 984.52l8.08-4.67-6.07-10.52-8.08 4.67 6.07 10.52zm-95.2-674.59l-19.41 4.78 13.77 55.9 19.41-4.78-13.77-55.9zm166.24 687.99l14.86-5.86-58.56-148.6 4.81-1.89-60.41-153.29-14.86 5.86L669 839.03l-4.81 1.89 61.88 157.01zm799.33-534.12l-121.16 50.32 7.94 19.13 121.16-50.32-7.94-19.13zm149.18-321.14l4.61-1.91 2.98 7.19-4.61 1.91 2.98 7.19 4.61-1.91.76 1.84 25.44-10.55-.76-1.84-2.98-7.19-2.98-7.19-3.82-9.22-2.61-6.3-25.44 10.55 2.61 6.3-4.61 1.91 3.82 9.22zm-60.38 448.63l32.8-14.35-15.24-34.83-32.8 14.35 15.24 34.83zm79.43 411.37l5.61 13.41 21.71-9.07-5.61-13.41-4.08 1.7-8.08-19.34 4.08-1.7-6.14-14.7-21.71 9.07 6.14 14.7 8.08 19.34zm-312.87-409.31l4.02 9.68 9.27-3.85 19.13-7.94-4.02-9.68 3.81-1.58-2.29-5.51-3.81 1.58-11.01-26.51-19.13 7.94 11.01 26.51 4.93-2.05 2.29 5.51-4.93 2.05-9.27 3.85zM308.06 354.6v34.88l-3.07 5.11 1.53 20.68 32.68-1.53-1.79-20.94-5.75-5.09-2.12-34.23-21.49 1.12zm1023.37 458.44l-49.7 20.1 12.79 31.63 49.7-20.1-12.79-31.63zm-110.02 40.14l-2.65 1.07-4.68-11.57-18.92 7.66 6.11 15.1 3.04 7.5 4.57 11.31 2.38 5.89 4.89 12.08 18.92-7.66-4.89-12.08 2.65-1.07-4.47-11.06-2.65 1.07-2.48-6.14 2.65-1.07-4.46-11.03zM944.09 16.96l18.88-.61-.49-15.16-8.6.28v-.38h-10.3l.51 15.88zM531.3 1.08h-23.81L494.5 39.37l4.3 82.94 20.63-1.68-3.84-74.11.26.09 15.44-45.53zm581.09 111.79l-.27-8.45-11.47.37-.26-8.05-10.23.33.53 16.5 10.23-.33 11.47-.37zm-51.51 869.83l.62-.24 72.18-28.45-5.86-14.86-1.37-3.49-14.86 5.86 1.37 3.49-9.93 3.91-1.37-3.49-20.38 8.03 1.37 3.49-8.19 3.23-1.37-3.49-19.44 7.66 1.37 3.49-11.26 4.44-1.37-3.49-20.44 8.05 1.37 3.49-8.01 3.16-1.37-3.49-13.81 5.44 7.23 18.34 53.51-21.09zm3.38-112.78l-6.64-17.25-63.54 25.8 6.68 17.24 63.5-25.78zm188.03-115.42l-2.4.94-4.93-12.52-18.57 7.32 4.93 12.52 3.67 9.32 3.78 9.6 2.42 6.14 6.43 16.32 18.57-7.32-5.18-13.13 2.4-.94-3.67-9.32-2.4.94-3.78-9.6 2.4-.94-3.67-9.32zM.5 101.66v35.3l4.99 3.45 8.47-.26 5.29-4.16-.96-28.54h-4.72v-6.04l-13.07.24zm1192.81-20.8l-10.23.33.45 13.81 10.23-.33-.45-13.81zm46.26 462.81l-90.87-330.74-16.56 4.55 90.87 330.74 16.56-4.55zm-1209-269.51l9.04-9.73-17.95-16.68-9.04 9.73 17.95 16.68zm1884.21 446.21l10.87 26.05v-75.51l-3.21-6.54h-2.72l-6.13-8 1.53-2.38-3.06-4.6 3.74-3.4-3.23-5.79 5.45-3.4-3.57-8.85-6.98 1.02-2.21-6.47-4.6-.87-2.38-7.64 3.91-1.7-7.32-22.81 2.04-8 28.74-9.79v-28.46l-16.48 8.12-.68-4.26-8 4.26-1.19 4.6-4.26.51-.34 5.45-3.4 1.53.85 6.64-16.17 9.53-12.6 12.6 7.66 21.96 7.66-.17 7.32 17.7-4.26 3.06 11.4 28.43 5.62-2.21 6.3 12.97-10.21 3.37 10.72 22.81 2.55-.68 2.04 2.89 3.57-.51 4.94 11.06-.51 5.28-3.4 2.21zm-95.59 292.67l-11.67-27.93-7.16-17.13-15-35.9-16.94 7.08 15 35.9 3.01-1.26 4.27 10.22-3.01 1.26 14.56 34.84 3.01-1.26 23.03 55.12h16.36l-25.47-60.94zm-242.86 57.2l-8.96 3.74h10.52l-1.56-3.74zM1925.65 6.95l-2.36-5.88h-20.17l16.8 41.81 5.73-2.3V6.95zm0 55.19l-86.95 36.02 56.68 153.7 30.27-12.02V62.14zm-493.13 1000.01l-14.29 5.97 2.45 5.87h16.78l-4.95-11.84zM53.71 901.6l-5.93-13.82-28.39 12.17 5.93 13.82-20.37 8.73 10.04 23.42 8.28 19.32 13.74-5.89-2.52-5.87 10.97-4.7-4.05-9.46 13.45-5.76-1.71-3.99 10.6-4.54-10.04-23.42zM2.1 230.87l-1.6-.2v13.05l1.6-12.85zm5.22 495.75c9.89 19.08 20.38 51.74 14.2 98.9l19.83 2.6c10.01-76.46-18.9-120.31-35.05-138.27l39.46-25.09 4.88 8.45 16.72-9.65-10.57-18.31-3.37 1.95-7.32-12.69-16.72 9.65 3.09 5.36L.5 669.84v45.22c2.26 3.38 4.58 7.23 6.82 11.56zm174.24 335.91l-5.61-11.56 111.12-53.94-9.15-18.84-137.68 66.84 9.15 18.84 4.91 10.11h3.67l23.6-11.45zm359.37-3.57l-8.5-17.52-44.36 21.53 5.34 11.01h16.57l30.95-15.03zM952.57 80.77v15.1h13.96v-15.1h-13.96zM520.82 1009.6l-5.48-11.3-44.34 21.52 5.48 11.3 44.34-21.52zm27.11-14.36l-4.16-8.04-8.04 4.16 4.16 8.04 8.04-4.16zm-56.33 63.68l44.48-21.59-3.13-6.45 2.23-1.08-4.65-9.57-44.34 21.52 2.38 4.9-2.38 1.15 5.4 11.12zm-23.46-879.14l-4.25-52.3-11.08.9 4.25 52.3 11.08-.9zm140 174.82l-15.99 3.94 6.96 28.25 15.99-3.94-6.96-28.25zm21.59 218.36l-44.05-178.87-17.66 4.35 44.05 178.87 17.66-4.35zM518.46 955.54l7.54-3.9-5.98-11.56-7.54 3.9 5.98 11.56zm-5.74 39.13l-8.69-17.9-44.34 21.52 8.69 17.9 44.34-21.52zm-10.91-59.26l-5.98-11.56-58.75 30.36 5.98 11.56 58.75-30.36zm8.96-733.07l2.73 33.62 19.08-1.55-2.8-34.52 40.13-124.14-16.3-5.27-42.83 131.87zm64.8-185.72h-15.94v33.73h15.94V16.62zm116.31 460.97l-46.93-190.55-15.99 3.94 46.93 190.55 15.99-3.94zm301.11 128.33l-39.14-142.47-20.68 5.68 39.14 142.47 20.68-5.68zm-27.08 456.85l-21.57-53.34-17.93 7.25 21.57 53.34 17.93-7.25zm15.16-806.15l-4.84 1.2-1.35-5.48-3.88.96-.71-2.87-13.88 3.42 8.21 33.26 22.6-5.57-6.14-24.9zm153.01-92.86l-188.39 51.76 3.74 13.62 188.39-51.76-3.74-13.62zM795.2 710.68l71.79 182.17 14.86-5.86-71.79-182.17-14.86 5.86zM906.15 110.1l-15.64 5.04 10.29 31.94 15.64-5.04-10.29-31.94zm24.95 867.74l-5.99-14.81-181.53 73.39 5.99 14.81 181.53-73.39zm-82.44-562.79l18.92-5.04 42.62-11.34 31.49-8.38 6.1-1.62-7.19-27.01-60.46 16.09-7.81-28.62-20.08 5.34 7.81 28.62.5 1.83h.01l1.8 6.45-18.7 4.98 4.98 18.71zm86.17-303.38l-12.87.42 1.31 40.49 12.87-.42-1.31-40.49zM770.67 921.88l-9.19-23.32-3.68-9.33-4.4-11.18-27.99 11.03 4.4 11.18-6.02 2.37 4.4 11.18 6.02-2.37 8.46 21.47 27.99-11.03zM815 151.84l3.95 14.39 26.23-7.21-3.95-14.38-26.23 7.21z" fill="#275d7f" opacity=".4"/><g class="cls-4"><path class="cls-2" transform="rotate(-1.86 809.547 64.901)" d="M801.89 61.98h18.33v6.1h-18.33z"/><path class="cls-2" d="M832.46 18.19l.25 7.68 4.98-.16-.13-3.74 4.86-.16-.13-3.94-9.83.32zm-4.35 54.66h9.33v12.32h-9.33z"/><path class="cls-2" transform="rotate(-1.86 711.414 112.604)" d="M701.59 102.86h22.24v19.81h-22.24z"/><path class="cls-2" transform="rotate(-1.86 810.459 84.634)" d="M802.53 77.2h18.91v14.89h-18.91z"/><path class="cls-2" transform="rotate(-21.51 768.79 731.88)" d="M762.52 726.48h12.58v10.8h-12.58z"/><path class="cls-2" d="M799.16 6.62h15.36v13.73h-15.36z"/><path class="cls-2" transform="rotate(-2.39 788.647 554.564)" d="M784.93 545.21h8.3v19.23h-8.3z"/><path class="cls-2" d="M799.16 40.37v7.92h-4.38v4.85h8.59v-4.85h16.94v-7.92h-7.32v-9.95h-13.83v9.95z"/><path class="cls-2" transform="rotate(-1.86 844.543 53.762)" d="M840.59 47.89h11.92v11.92h-11.92z"/><path class="cls-2" transform="rotate(-1.86 827.84 57.804)" d="M826.18 54.78h6.18v6.18h-6.18z"/><path class="cls-2" d="M873.48 47.8l-17.9.58.45 13.67 11.83-.38.28 8.66 6.07-.2-.28-8.66-.45-13.67zm-6.02 48.21h8.17v5.07h-8.17zm28.26-24.83h4.93v4.94h-4.93v20.47h8.68v4.65h9.36V89.39h-3.75V71.18h12.09V50.71h-26.38v20.47z"/><path class="cls-2" transform="rotate(-1.86 859.89 38.298)" d="M853.91 31.11h14.64v14.64h-14.64z"/><path class="cls-2" d="M857.74 79.61h13.5v13.5h-13.5zm-31.84 12.1h14.32v9.36H825.9z"/><path class="cls-2" transform="rotate(-1.86 829.202 49.816)" d="M825.92 44.89h9.78v9.78h-9.78z"/><path class="cls-2" transform="rotate(-1.86 835.321 14.484)" d="M832.02 12.05h9.83v4.65h-9.83z"/><path class="cls-2" transform="rotate(-1.86 829.159 33.486)" d="M825.4 28.66h9.78v9.78h-9.78z"/><path class="cls-2" d="M741.03 83.35h10.13v10.13h-10.13zm-3.59 109.19v-6.03h-11.87v16.51h7.42v-10.48h4.45zm-6.15-149.78V64.2h11.74V52.46h-2.04v-9.7h-9.7zm-1.02 34.89h10.72v13.28h-10.72zm-22.41 107.6h8.32v7.29h-8.32zm17.56-117.47h14.21v6.98h-14.21z"/><path class="cls-2" transform="rotate(-17.62 762.299 567.2)" d="M758.27 564.49h8.3v5.52h-8.3z"/><path class="cls-2" d="M757.57 182.87h8.32v7.29h-8.32zM702.83 66.63l4.39-.15.32 9.81 11.46-.37-.49-14.91.91-.03-.21-6.57-5.49.18-.08-2.42-6.16.2.29 8.99-5.11.16.17 5.11z"/><path class="cls-2" transform="rotate(-13.84 740.9 365.744)" d="M732.89 265.6h16.47v200.45h-16.47z"/><path class="cls-2" d="M733.89 97.1H741v7.96h-7.11z"/><path class="cls-2" transform="rotate(-17.62 759.205 555.192)" d="M755.16 552.48h8.3V558h-8.3z"/><path class="cls-2" transform="rotate(-1.86 741.665 14.196)" d="M738.55 4.22h8.81v19.82h-8.81z"/><path class="cls-2" d="M723.29 33.22h10.55v7.15h5.11V24.46h-15.66v8.76z"/><path class="cls-2" transform="rotate(-1.86 712.137 87.044)" d="M706.16 78.56h14.56v17.21h-14.56z"/><path class="cls-2" d="M703.53 48.22l3.93-.13-.08-2.39 10.63-.35-.51-15.54-14.55.47.58 17.94zm213.63-34.73h11.45v14.12h-11.45zM743.03 114.37h9.06v6.56h-9.06zm-11.91 13.66h7.38v4.43h-7.38zm7.38-6.56h4.53v6.56h-4.53zm3.34-53.69h6.3v9.87h-6.3z"/><path class="cls-2" transform="rotate(-14.91 920.855 309.264)" d="M908.92 296.15h24.5v26.34h-24.5z"/><path class="cls-2" d="M1062.18 82.08h8.85v6.98h-8.85zm-14.12-34.3h11.91v10.38h-11.91zm-20.43 15.23h-7.15v11.24h7.15v4.93h11.91V63.01h-4.76v-9.7h-7.15v9.7zm28.09-40.34h-10.92l-1 4.94h-4.26v10.94h20.43V27.61h-4.25v-4.94z"/><path class="cls-2" transform="rotate(-1.86 1045.194 10.805)" d="M1034.53 6h24.64v9.76h-24.64z"/><path class="cls-2" d="M1052.31 62.16h12.43v6.47h-12.43zm10.89 38.72h-18.04v7.16h3.41v7.15h14.63v-14.31z"/><path class="cls-2" transform="rotate(-13.86 1035.174 323.315)" d="M1024.35 316.34h21.88v13.99h-21.88z"/><path class="cls-2" d="M1059.97 86.5V71.1h-16.85v6.73h3.73v8.67h13.12z"/><path class="cls-2" transform="rotate(-13.86 1051.114 257.083)" d="M1048 252.06h6.46v10.06H1048z"/><path class="cls-2" d="M1024.75 392.58l16.96-4.19-6.08-24.65 22.79-5.63 6.08 24.66 16.96-4.19-13.21-53.54-16.96 4.18 4.25 17.25-22.79 5.62-4.25-17.24-16.96 4.18 13.21 53.55zm62.22-354.59v16h25.42v-5.26h19.58v-7.16h-8.51v-2.73h-4.85v-8.22h-6.22v10.95h-7.89v-3.58h-17.53z"/><path class="cls-2" transform="rotate(-15.36 1044.977 516.062)" d="M1036.21 444.57h17.17v142.87h-17.17z"/><path class="cls-2" d="M1111.92 24.57l9.62-.31-.15-4.79.09 2.7 8.83-.29-.29-8.84-8.83.29.04 1.31-9.62.31.31 9.62z"/><path class="cls-2" transform="rotate(-21.51 1106.26 876.49)" d="M1101.31 873.54h10.19v6.03h-10.19z"/><path class="cls-2" d="M894.52 30.42h10.89v13.92h-10.89z"/><path class="cls-2" transform="rotate(-13.86 1033.042 260.146)" d="M1025.52 254.35h15.4v11.68h-15.4z"/><path class="cls-2" transform="rotate(-1.86 1016.712 19.277)" d="M1012.72 10.8h10.93v16.77h-10.93z"/><path class="cls-2" d="M1018.1 30.62h6.3v10.94h-6.3z"/><path class="cls-2" transform="rotate(-13.86 1079.155 289.462)" d="M1073.87 284.52h10.91v9.89h-10.91z"/><path class="cls-2" transform="rotate(-21.51 1070.173 1005.455)" d="M1060.18 998.83h20.26v13.46h-20.26z"/><path class="cls-2" d="M1027.63 94.84h5.96v12.09h-5.96zm-62.81-74.29h-11.79v7.74h-11.78V40.7h30.55v-8.84h-6.98V20.55zm24.34 50.29h21.79v14.72h-21.79zm-22.64 73.7V99.3h-13.95v31.29H938.1v13.95h28.42zm23.83-105.26h20.6v20.6h-20.6zM890.27 20.36h8.17v7.25h-8.17zM760.23 155.44h-5.45v9.53h16.7v-22.41h5.6v-7.29h-11.19v7.29h-5.66v12.88zm169.36-61.28h9.87v6.91h-9.87zm.85-70.3h7.15v10.61h-7.15zm58.72-8.07h20.6v15.73h-20.6zm28.26 83.51h8.34v10.35h-8.34zm-3.24-53.31h10.21v3.59h-10.21zm-60.76 9.02h20.43v14.3h-20.43zm74.21 65.87h5.96v7.71h-5.96z"/><path class="cls-2" transform="rotate(-13.86 996.944 278.26)" d="M989.55 274.22h15.02v8.13h-15.02z"/><path class="cls-2" transform="rotate(-21.51 994.308 649.615)" d="M986.16 644.31h16.43v10.68h-16.43z"/><path class="cls-2" transform="rotate(-13.86 979.306 298.7)" d="M967.82 292.78h23.28v11.9h-23.28z"/><path class="cls-2" d="M994.61 108.46h16.34v13.46h-16.34z"/><path class="cls-2" transform="rotate(-13.86 993.335 269.138)" d="M986.97 266.04h13.14v6.29h-13.14z"/><path class="cls-2" d="M1842.24 77.33l17.36-6.97-27.83-69.28h-20.17l30.64 76.25zm-343.27 515.95l-4.02-9.68 3.8-1.58-2.28-5.51-3.81 1.58-11.01-26.51-19.13 7.94 11.01 26.51 4.93-2.05 2.29 5.51-4.93 2.05-9.27 3.85 4.02 9.68 9.27-3.85 19.13-7.94zm41.75 229.54h-24.09l-1.95 1.96-6.98 3.57h-8.17v7.49l12.25 2.04v5.11h28.94v-20.17zm-71.23 15.29h7.94v8.49h-7.94zm-9.2-523.7l-9.77-24.33-56.04 22.5 9.78 24.33-64.55 25.93-12.43-30.94-23.88 9.59 12.43 30.94 19.39 48.27 10.23 25.47 23.87-9.59-10.23-25.47 120.59-48.44-19.39-48.26z"/><path class="cls-2" transform="rotate(-23.92 1521.224 969.796)" d="M1513.28 963.53h15.33v12.33h-15.33z"/><path class="cls-2" transform="rotate(-22.68 1720.086 980.408)" d="M1712.88 960.79h14.32v39.23h-14.32z"/><path class="cls-2" d="M1674.5 1022.25l3.83 9.15 6.69-2.8 6.84-2.86-3.82-9.15-6.85 2.86-6.69 2.8z"/><path class="cls-2" transform="rotate(-22.55 1448.945 456.541)" d="M1444.11 453.45h9.25v6.14h-9.25z"/><path class="cls-2" d="M1618.88 496.91l15.87-6.5-20.2-49.3-15.87 6.5 5.93 14.48-22.59 9.25-5.93-14.48-15.87 6.5 20.2 49.31 15.87-6.5-9.69-23.67 22.58-9.25 9.7 23.66zm-83.27 358.5l-23.15 1.2v3.57l-9.19.51 1.19 13.96 7.75 7.74 23.4-1.78v-25.2z"/><path class="cls-2" transform="rotate(-24.8 873.392 1046.857)" d="M867.92 1029.3H879v35.23h-11.08z"/><path class="cls-2" d="M1031.4 863.31l15.01-6.09-7.5-19.51 27.36-10.78-16.76-42.52-38.62 15.22 3.1 7.86-49.04 19.33-7.43-18.84-18.73 7.38 37.66 97.14 18.74-7.38-23.52-61.25 49.04-19.32 5 12.67-3.84 1.51 9.53 24.58zm724.38-361.07l-119.77 49.61 7.17 16.4 119.44-49.48-6.84-16.53z"/><path class="cls-2" transform="rotate(-21.51 861.837 745.708)" d="M857.06 730.31h9.66v30.87h-9.66z"/><path class="cls-2" transform="rotate(-21.51 1037.127 1048.487)" d="M1024.74 1043.48h24.82v10.05h-24.82z"/><path class="cls-2" d="M1334.41 953.12l-25.16 9.91 1.16 2.94-14.76 5.82 7.14 18.12 33.76-13.3-2.28-5.79 6.16-2.43-6.02-15.27zm-278.78 114.11l9.35-3.68.9 2.26 11.62-4.57-6.61-16.77-11.62 4.58 2.03 5.14-9.36 3.69 3.69 9.35zm318.98-58.24l2.96-1 1.25 3.68 16.11-5.47-1.25-3.68-.27-.82-5.49-16.16-2.59-7.64-4.83-14.24-.86-2.52-4.55-13.42-.38-1.1-7.99-23.57-.44-1.3-14.9-43.88-16.11 5.47 1.27 3.73-2.96 1.01 2.68 7.9 2.96-1 2 5.89-2.96 1.01 3.46 10.19 2.96-1.01 2.35 6.92-2.96 1.01 3.58 10.53 2.95-1 1.93 5.67-2.96 1 3.96 11.68 2.96-1 2.11 6.21-2.96 1.01 3.11 9.16 2.96-1.01 1.82 5.37-2.96 1 3.4 10.01 2.95-1 2.3 6.75-2.96 1.01 2.59 7.63 2.96-1.01 2.26 6.67-2.96 1 3.5 10.32z"/><path class="cls-2" transform="rotate(-22.55 1410.567 455.07)" d="M1400.52 445.17h19.77v19.77h-19.77z"/><path class="cls-2" transform="rotate(-21.51 879.92 733.351)" d="M875.78 726.83h8.3v13.05h-8.3z"/><path class="cls-2" d="M1101.47 1027.01l-13.9 5.47 5.12 13.01 5.21-2.06 5.43 13.78 48.71-19.19-5.6-14.19 2.87-1.13-14-35.51-4.95 1.95-2.4-6.07-32.72 12.89 3.66 9.29-10.12 3.99-1.27-3.23-29.46 11.61 2.08 5.29-12.51 4.93-6.06-15.37-19.09 7.53 6.05 15.37-5.48 2.16 3.8 9.64 37.09-14.62-2.45-6.23 29.46-11.61 1.83 4.65 10.12-3.99 10.28-4.05 5.99 15.19-15.48 6.1-2.21-5.6z"/><path class="cls-2" transform="rotate(-21.88 1904.436 297.435)" d="M1897.86 293.01h12.3v8.9h-12.3z"/><path class="cls-2" transform="rotate(-22.5 1788.91 419.126)" d="M1785.38 409.03h7.16v20.21h-7.16z"/><path class="cls-2" transform="rotate(-21.88 1893.289 49.832)" d="M1886.06 46.17h13.63v7.45h-13.63z"/><path class="cls-2" transform="rotate(-22.68 1895.593 947.915)" d="M1887.23 938.42h16.6v18.98h-16.6z"/><path class="cls-2" transform="rotate(-22.68 1883.522 914.606)" d="M1874.42 895.62h18.15v37.96h-18.15z"/><path class="cls-2" transform="rotate(-21.88 1894.165 301.568)" d="M1890.93 297.14h5.61v8.9h-5.61z"/><path class="cls-2" d="M1016.23 4.1l6.93-.23.32 9.98 11.13-.36-.32-9.98-5.91.19-.08-2.62h-22.45l.11 3.35 10.27-.33zM824.27 1.08h7.68v5.54h-7.68zm1101.38 292.26v-15.25l-5.28 2.12 5.28 13.13z"/><path class="cls-2" transform="rotate(-22.68 1911.336 968.734)" d="M1902.03 958.69h18.52v20.05h-18.52z"/><path class="cls-2" transform="rotate(-22.68 1893.117 1057.252)" d="M1879.8 1049.1h26.51v16.29h-26.51z"/><path class="cls-2" transform="rotate(-23.46 1832.647 126.749)" d="M1825.41 112.29h13.79v29.01h-13.79z"/><path class="cls-2" transform="rotate(-21.89 1805.916 67.657)" d="M1801.77 65.29h8.91v4.62h-8.91z"/><path class="cls-2" transform="rotate(-21.89 1816.088 76.222)" d="M1813.33 72.46h6.03v7.45h-6.03z"/><path class="cls-2" d="M1825.41 266.24l15.93-6.4L1737.4 1.08h-18.51l106.52 265.16z"/><path class="cls-2" transform="rotate(-22.68 1832.333 931.39)" d="M1827.58 926.34h9.26v10.02h-9.26z"/><path class="cls-2" transform="rotate(-22.5 1840.02 493.628)" d="M1828.21 487.56h23.84v12.14h-23.84z"/><path class="cls-2" d="M1925.65 1030.67v-33.25l-7.52-17.99-14.27 5.96 19.35 46.3 2.44-1.02z"/><path class="cls-2" transform="rotate(-21.51 1097.275 851.574)" d="M1093.87 847.23h6.98V856h-6.98z"/><path class="cls-2" transform="rotate(-10.21 1826.469 505.61)" d="M1824.44 500.92h4.8v9.57h-4.8z"/><path class="cls-2" transform="rotate(-3.2 678.618 63.204)" d="M667.46 56.03h20.77v14.3h-20.77z"/><path class="cls-2" d="M636.27 74.76h10.55v7.15h-10.55zm1.06 27.4h13.11v11.4h-13.11zm6.56 39.32v-12.43h-8.69v6.22h-6.55v6.21h15.24zm4.51-62.47h15.66v15.66H648.4zm-3.24 38.64h8.68v12.43h-8.68zm-3.17-85.79h8.45v7.15h-8.45zm-26.45 90.45h10.55v7.26h-10.55zm13.11-6.22h5.96v10.75h-5.96zm-28.93-34.18h32.43v15.83h-32.43zm10.17-23.66h21.74v14.3h-21.74zm-11.24 4.93h7.15v7.15h-7.15zm166.11 44.68h10.72v12.32h-10.72zm7.85-33.65h9.06v6.56h-9.06zm111.53 524.24l-4.04 1.12-17.57-63.95-14.31 3.93 17.82 64.85 4.04-1.12 14.74 53.65 14.31-3.93-14.99-54.55zM762.4 29.02h15.36v13.73H762.4zM598.65 6.34h15.02v7.15h-15.02zm12.04 98.35h17.96v11.4h-17.96zm152.47-17.74h13.92v12.32h-13.92zm-129-85.55h12.66v25.35h-12.66zm21.04 103.65h20.26v11.4H655.2zm116.05-50.91h9.4v5.47h-9.4z"/><path class="cls-2" transform="rotate(-21.51 744.945 970.843)" d="M736.42 943.98h17.11v53.8h-17.11z"/><path class="cls-2" d="M720.31 682.23l21.96-6.55.76-.23 29.92-8.92-4.4-14.75-25.44 7.59-4.46-14.99 34.5-10.28-5-16.74-34.5 10.28-4.71-15.81 25.79-7.69-4.4-14.75-52.64 15.7 4.4 14.75 21.6-6.44 4.72 15.81-18.27 5.44 4.99 16.75 18.27-5.45 4.47 14.98-21.96 6.55 4.4 14.75zm-76.51-74.2l-29.14 8.26 1.81 5.22-4.54 1.33-6.44-16.34-10.06 3.96 11.68 29.63 10.06-3.97-2.48-6.28 4.25-1.25 1.56 4.5 27.39-4.8-4.09-20.26z"/><path class="cls-2" transform="rotate(-24.8 733.553 1048.654)" d="M728.99 1031.11h9.28v35.23h-9.28z"/><path class="cls-2" d="M684.89 1007.23l-9.32 4.31 4 8.65 8.32-3.84 1 2.17 5.74-2.65-4-8.66-4.73 2.19-1.01-2.17zm-19.13-869.66h74.04v17.87h-74.04z"/><path class="cls-2" transform="rotate(-21.51 761.13 830.789)" d="M753.18 733.21h15.97v195.2h-15.97z"/><path class="cls-2" d="M903.53 320.51l-38.65 10.28-10.33-38.78 38.65-10.29-5.05-18.97-96.26 25.62 5.04 18.97 38.65-10.28 10.33 38.78-38.65 10.29 5.05 18.97 96.27-25.62-5.05-18.97z"/><path class="cls-2" transform="rotate(-24.8 751.102 1060.356)" d="M746.55 1054.4h9.28v12.08h-9.28z"/><path class="cls-2" transform="rotate(-22.01 780.214 1058.022)" d="M765.79 1054.43h28.55v6.88h-28.55z"/><path class="cls-2" d="M666.33 79.01h16.94v15.66h-16.94zm12.2-55.74l-.69-12.34-8.97.5-.28-5.09-12.26.69.29 5.08.69 12.35 21.22-1.19z"/><path class="cls-2" transform="rotate(-3.2 668.19 38.907)" d="M655.2 29.14h24.68v19.4H655.2z"/><path class="cls-2" transform="rotate(-21.51 614.512 679.01)" d="M606.53 671.02h15.97v15.97h-15.97z"/><path class="cls-2" d="M650.44 64.2h13.62v7.15h-13.62zm111.96-2.73h12.46v11.07H762.4zm-96.64 96.69h-56.68v-8h-10.56v12.6h7.15v13.27h60.09v-17.87zm-31.15-105.7h10.55v14.3h-10.55zM616.86 2.93h6.34v9.87h-6.34zm-11.8 35.06h29.55v14.47h-29.55z"/><path class="cls-2" transform="rotate(-13.86 1131.431 366.991)" d="M1126.2 362.09h10.91v9.89h-10.91z"/><path class="cls-2" d="M207.67 452.05h14.75v16.61h-14.75z"/><path class="cls-2" transform="rotate(-7.55 241.421 543.21)" d="M175.69 533.74h131.18v18.44H175.69z"/><path class="cls-2" d="M263.62 430.45l-.81-17.47-13.37.63-.46-9.68-47.92 2.24 1.27 27.14 47.92-2.24 13.37-.62zM227.7 824.51h20.14v10.48H227.7zm-20.03-352.24h14.75v45.86h-14.75z"/><path class="cls-2" transform="rotate(-87.76 186.9 804.31)" d="M181.03 800.55h11.72v7.52h-11.72z"/><path class="cls-2" transform="rotate(-2.67 235.318 329.848)" d="M216.78 324.07h36.8v11.36h-36.8z"/><path class="cls-2" transform="rotate(-26.45 175.612 914.812)" d="M155.09 906.87h40.96v15.68h-40.96z"/><path class="cls-2" transform="rotate(-25.89 206.188 1055.33)" d="M196.7 1043.14h18.86v24.09H196.7z"/><path class="cls-2" transform="rotate(-72.27 216.097 807.64)" d="M210.28 795.57H222v24.22h-11.72z"/><path class="cls-2" transform="rotate(-14.43 356.863 694.543)" d="M349.99 680.81h13.98v27.89h-13.98z"/><path class="cls-2" transform="rotate(-7.55 366.156 585.993)" d="M353.72 581.53h24.71v8.57h-24.71z"/><path class="cls-2" d="M300.42 492.38l-11.68 1.55 1.55 11.67 1.44-.19 1.2 9.01 57.3-7.59.52-.07-2.4-18.08-11.67 1.55 1.04 7.84-35.92 4.77-1.38-10.46z"/><path class="cls-2" transform="rotate(-2.67 363.853 461)" d="M358.51 453.6h10.56v14.79h-10.56z"/><path class="cls-2" transform="rotate(-2.67 355.212 444.914)" d="M343.29 439.75h23.66v9.91h-23.66z"/><path class="cls-2" transform="rotate(-12.31 370.802 618.69)" d="M350.81 613.3h40.13v10.96h-40.13z"/><path class="cls-2" transform="rotate(-12.31 385.475 698.79)" d="M374.51 685.14h22.03v27.43h-22.03z"/><path class="cls-2" transform="rotate(-4.64 173.91 268.99)" d="M167.67 259.45h12.12v18.48h-12.12z"/><path class="cls-2" transform="rotate(-12.31 393.37 651.237)" d="M379.65 643.72h27.57v15.17h-27.57z"/><path class="cls-2" transform="rotate(-4.64 199.75 37.02)" d="M181.61 23.76h35.8v26.51h-35.8z"/><path class="cls-2" d="M902.01 14.67l-.44-13.59h-12.46l.45 14 12.45-.41zm-48.63-4.95l-.28-8.64h-18.18l.3 9.23 18.16-.59zM756.2 1.08h19.28v15.47H756.2zM724.24 19.3l11.65-.37-.58-17.85h-11.66l.59 18.22zm133.97-3.34l17.42-.56-.46-14.32h-17.45l.49 14.88zm-141.08 2.5l-.56-17.38H702l.58 17.85 14.55-.47z"/><path class="cls-2" transform="rotate(-4.64 342.405 220.066)" d="M337.32 206h9.49v27.6h-9.49z"/><path class="cls-2" d="M548.2 1054.97l1.59-.82 9.59-4.96-11.85-22.91-9.58 4.95 3.59 6.96-1.58.82 8.24 15.96zM1044.79 1.08h15.18v1.75h-15.18zm66.93 3.02l-.1-3.02h-21.13l.12 3.7 21.11-.68zM904.2 1.08l.33 10.25 12.45-.4L930 10.5l-.3-9.42h-25.5z"/><path class="cls-2" transform="rotate(-27.33 500.866 905.325)" d="M496.78 896.57h8.2v17.54h-8.2z"/><path class="cls-2" transform="rotate(-27.33 506.427 921.423)" d="M502.97 915.76h6.94v11.32h-6.94z"/><path class="cls-2" transform="rotate(-12.31 313.534 656.51)" d="M307.18 649.35h12.76v14.47h-12.76z"/><path class="cls-2" d="M332.82 688.2v-42.72h-11.49v42.72h11.49z"/><path class="cls-2" transform="rotate(-87.76 168.543 761.447)" d="M160.23 756.32h16.6v10.23h-16.6z"/><path class="cls-2" transform="rotate(-25.89 433.713 998.959)" d="M421.21 993.52h24.81v10.59h-24.81z"/><path class="cls-2" transform="rotate(-25.89 442.374 1016.775)" d="M429.85 1007.99h24.81v17.24h-24.81z"/><path class="cls-2" transform="rotate(-25.89 429.99 964.14)" d="M426.45 958.7h6.86v10.59h-6.86z"/><path class="cls-2" transform="rotate(-25.89 476.333 979.234)" d="M451.18 973.8h50.08v10.59h-50.08z"/><path class="cls-2" transform="rotate(-4.64 472.855 252.794)" d="M464.11 248.37h16.51v8.43h-16.51z"/><path class="cls-2" d="M1673.05 1048.58l-27.25 9.98 5.65 15.43h30.9l-9.3-25.41zM2.42 330.8h22.13v15.48H2.42zM.5 363.16h12.99v-8.43H8.34v-4.49H.5v12.92zm0 10.35h7.33v18.76H.5zm27.37 36.63v-21.92H13.49v12.22H7.83v9.7h20.04zm-13.19-41.36h14.38v14.38H14.68zm89.74-29.4h28.25v51.6h-28.25z"/><path class="cls-2" transform="rotate(-7.55 78.482 598.444)" d="M66.39 567.27h24.07v61.91H66.39z"/><path class="cls-2" transform="rotate(-87.76 94.025 751.885)" d="M84.37 743.14h19.31v17.49H84.37z"/><path class="cls-2" d="M94.42 557.8h19.74v52.85H94.42z"/><path class="cls-2" transform="rotate(-87.76 91.621 813.432)" d="M82.09 794.98h19.05v36.9H82.09z"/><path class="cls-2" d="M15.09 184.99L.5 183.17v28.99l11.04 1.37 3.55-28.54zM1111.62 1.08l.19 6.02 11.11-.36 13.7-.44-.17-5.22h-24.83zM.5 43.1l22.92-16.55-12.71-17.6L.5 16.32V43.1zm1761.23 1029.41l-2.93-7.01-7 2.93 2.32 5.56h4.08l3.53-1.48zm163.92-1.4l-6.89 2.88h6.89v-2.88zm-788.04-301.22l.74-.29 29.05-11.45-5.65-14.31-24.69 9.73-5.73-14.55 33.49-13.2-6.4-16.25-33.5 13.2-6.05-15.35 25.04-9.87-5.64-14.32-51.11 20.14 5.65 14.32 20.97-8.27 6.05 15.35-17.74 6.99 6.41 16.26 17.74-6.99 5.73 14.54-21.32 8.41 5.64 14.31 21.32-8.4zM39.57 356.24h28.76v30.92H39.57zM7.85 917.97L3.21 909 .5 910.4v11.37l7.35-3.8zm855.14 144.72l-12.57-31.08-32.63 13.19 11.8 29.19h5.45l27.95-11.3z"/><path class="cls-2" d="M818.94 1047.65l-50.2 20.3 2.44 6.04h58.41l-10.65-26.34z"/><path class="cls-2" transform="rotate(-25.89 406.363 1012.23)" d="M393.87 1006.79h24.81v10.59h-24.81z"/><path class="cls-2" d="M354.67 731.08l15.61-3.41-3.83-17.53-15.6 3.41 1.81 8.3-10.95 2.39 2.02 9.23 10.94-2.39z"/><path class="cls-2" transform="rotate(-60 356.452 831.068)" d="M350.31 825.46h12.28v11.22h-12.28z"/><path class="cls-2" transform="rotate(-7.55 334.048 533.947)" d="M320.01 519.88h27.74v27.74h-27.74z"/><path class="cls-2" transform="rotate(-18.54 387.11 817.791)" d="M381.44 813.07h11.22v9.23h-11.22z"/><path class="cls-2" d="M34.34 330.96h32.59v15.48H34.34z"/><path class="cls-2" transform="rotate(-4.64 325.651 63.011)" d="M319.4 57.07h11.81v11.81H319.4z"/><path class="cls-2" transform="rotate(-79.97 305.63 921.382)" d="M299.79 914.93h11.59v12.85h-11.59z"/><path class="cls-2" d="M280.43 462.75h17.68v-9.99l31.44-2.41-.69-8.99-48.43 3.71v17.68z"/><path class="cls-2" transform="rotate(-4.64 337.347 167.942)" d="M332.22 156.11h9.49v23.43h-9.49z"/><path class="cls-2" transform="rotate(-2.67 286.447 420.342)" d="M280.43 407.86h11.8v24.77h-11.8z"/><path class="cls-2" transform="rotate(-25.89 375.868 1028.03)" d="M359.72 1022.57h32.07v10.59h-32.07z"/><path class="cls-2" transform="rotate(-4.64 113.002 228.45)" d="M91.59 218.72h42.64v19.06H91.59z"/><path class="cls-2" d="M92.85 340.92H77.23v79.56l15.62-5.24v-74.32z"/><path class="cls-2" transform="rotate(-4.64 77.427 87.444)" d="M66.63 49.74h21.51v75.21H66.63z"/><path class="cls-2" transform="rotate(-4.64 109.95 87.154)" d="M88.22 47.11h43.28v79.83H88.22z"/><path class="cls-2" transform="rotate(-7.55 132.12 531.811)" d="M122.06 522.69h19.92v17.81h-19.92z"/><path class="cls-2" transform="rotate(-69.78 131.416 787.902)" d="M123.11 782.79h16.6v10.23h-16.6z"/><path class="cls-2" d="M74.8 167.07h36.3v21.71H74.8z"/><path class="cls-2" transform="rotate(-4.64 75.356 236.195)" d="M69.84 225.28h10.94v21.33H69.84z"/><path class="cls-2" transform="rotate(-4.64 98.33 142.064)" d="M77.82 138.08h40.81v7.79H77.82z"/><path class="cls-2" d="M1726.06 1051.2l18.72-7.82-6.78-16.22-18.72 7.82 6.5 15.55-7.54-18.03-18.03 7.54 14.19 33.95h21.18l-9.52-22.79zm-483.82-838.88l9.78-2.69-1.8-6.54 3.34-.92-1.56-5.68-10.18 2.79 1.57 5.69-2.95.81 1.8 6.54z"/><path class="cls-2" transform="rotate(-13.86 1296.764 253.46)" d="M1279.84 227.58h34.23v51.75h-34.23z"/><path class="cls-2" d="M1438.9 187.27l9.4 23.42 33.06-13.28-9.41-23.41 9.1-3.66 46.24-18.57 2.94 7.33 19.86-7.98 19.21-7.72-21.53-53.59-19.21 7.71 4.18 10.4-13.26 5.32-3.15-7.85-15.67 6.29 3.15 7.85-28.24 11.35-6.53-16.23-18.02 7.24 6.52 16.23-33.05 13.28 14.41 35.87z"/><path class="cls-2" transform="rotate(-21.89 1490.233 76.32)" d="M1482.1 67.16h16.92v18.21h-16.92z"/><path class="cls-2" d="M1145.07 7.29l-5.39.18.17 5.16 16.49-.53-.07-2.18 4.3-.14-.14-4.26-4.3.14-.15-4.58h-11.12l.21 6.21z"/><path class="cls-2" transform="rotate(-21.89 1378.24 179.707)" d="M1372.32 175.62h12.37v8.12h-12.37z"/><path class="cls-2" d="M1284.39 679.91l2.9-1.16-11.49-28.92-2.91 1.15-3.76-9.46-17.97 7.15 3.76 9.46 11.5 28.92 4.87 12.27 17.97-7.14-4.87-12.27z"/><path class="cls-2" transform="rotate(-30 1291.284 193.379)" d="M1286.43 189.29h9.69v8.19h-9.69z"/><path class="cls-2" transform="rotate(-11.26 1261.733 200.638)" d="M1258.1 195.17h7.72v10.98h-7.72z"/><path class="cls-2" transform="rotate(-21.89 1291.867 173.49)" d="M1288.07 165.15h8.19v16.66h-8.19z"/><path class="cls-2" transform="rotate(-22.55 1631.369 403.077)" d="M1623.39 399.43h15.67v7.26h-15.67z"/><path class="cls-2" transform="rotate(-22.55 1659.478 351.027)" d="M1649.55 346.6h19.55v8.86h-19.55z"/><path class="cls-2" transform="rotate(-28.28 1634.298 361.613)" d="M1626.94 357.39h15.07v8.44h-15.07z"/><path class="cls-2" transform="rotate(-22.55 1645.875 356.346)" d="M1642.92 352.12h5.51v8.44h-5.51z"/><path class="cls-2" transform="rotate(-23.46 1634.572 224.076)" d="M1628.32 216.05h11.87v16.09h-11.87z"/><path class="cls-2" transform="rotate(-21.89 1516.07 71.016)" d="M1507.26 56.75h18.23v28.44h-18.23z"/><path class="cls-2" transform="rotate(-19.32 1596.275 183.3)" d="M1592.53 179.68h7.25v7.25h-7.25z"/><path class="cls-2" transform="rotate(-22.55 1646.547 398.359)" d="M1642.81 394.72h7.26v7.26h-7.26z"/><path class="cls-2" d="M1575.69 212.95l-10.07 4.05 3.77 9.38-3.68 1.48-1.79-4.46-10.08 4.04 1.79 4.46-24.43 9.82 29.6 73.69 48.26-19.39-10.51-26.17 3.87-1.56-7.05-17.54-3.87 1.56-8.9-22.18-6.91-17.18z"/><path class="cls-2" transform="rotate(-22.55 1646.252 366.878)" d="M1639.34 363.25h13.5v7.26h-13.5z"/><path class="cls-2" transform="rotate(-21.89 1368.481 227.95)" d="M1356.85 201.8h23.85v52.31h-23.85z"/><path class="cls-2" transform="rotate(-6.02 1161.213 91.954)" d="M1155.46 88.46h10.09v6.89h-10.09z"/><path class="cls-2" transform="rotate(-21.51 1160.964 618.651)" d="M1148.46 611.63h25.03v14.08h-25.03z"/><path class="cls-2" d="M1160.57 67.95l-1-7.92h-13.81v7.92h-1.02v15.49h14.29V72.88h-3.06v-4.93h4.6z"/><path class="cls-2" transform="rotate(-13.71 1103.95 556.834)" d="M1096.28 541.24h15.81v31.32h-15.81z"/><path class="cls-2" transform="rotate(-1.86 1150.626 44.866)" d="M1141.9 36.51h21.12v16.98h-21.12z"/><path class="cls-2" d="M1088.06 67.95h26.04v9.87h-26.04z"/><path class="cls-2" transform="rotate(-13.12 1127.664 105.36)" d="M1125.16 100.3h5.22v10.09h-5.22z"/><path class="cls-2" transform="rotate(-13.86 1126.181 340.805)" d="M1120.87 335.89h10.91v9.89h-10.91z"/><path class="cls-2" transform="rotate(-13.86 1111.119 305.37)" d="M1103.57 300.44h15.31v9.89h-15.31z"/><path class="cls-2" transform="rotate(-1.86 1146.684 22.003)" d="M1139.29 14.47h19.33V29.8h-19.33z"/><path class="cls-2" transform="rotate(-21.51 1187.055 723.945)" d="M1178.71 719.58h16.75v8.77h-16.75z"/><path class="cls-2" transform="rotate(-1.86 1211.761 55.718)" d="M1204.46 48.19h19.04v15.37h-19.04z"/><path class="cls-2" transform="rotate(-19.37 1203.205 608.91)" d="M1194.04 584.85h18.51V633h-18.51z"/><path class="cls-2" transform="rotate(-1.86 1205.252 20.181)" d="M1192.91 13.6h29.21v13.47h-29.21z"/><path class="cls-2" transform="rotate(-1.86 1191.094 57.23)" d="M1185.17 47.66h15.78V66.7h-15.78z"/><path class="cls-2" transform="rotate(-15.36 1126.604 493.62)" d="M1117.83 422.14H1135v142.87h-17.17z"/><path class="cls-2" transform="rotate(-1.86 1211.501 71.734)" d="M1207.11 66.27h13.2v10.92h-13.2z"/><path class="cls-2" d="M1129.93 63.86v-3.83h-4.18V56.2h-10.25v7.66h1.67v13.97h8.58v-2.56h8.47l-1-11.41h-3.29zm-43.92-43.4h14.3v14.3h-14.3zm71.01 986.2l.79-.33 15.76-6.58 7.44-3.1 13.87-5.8 2.46-1.02 13.08-5.46 1.08-.45 22.96-9.58 1.27-.53 42.76-17.85-6.55-15.71-3.64 1.52-1.2-2.88-7.71 3.21 1.21 2.89-5.75 2.4-1.2-2.89-9.93 4.15 1.2 2.88-6.74 2.81-1.21-2.88-10.27 4.29 1.21 2.88-5.53 2.31-1.2-2.89-11.38 4.75 1.2 2.89-6.06 2.52-1.2-2.88-8.92 3.73 1.2 2.88-5.23 2.18-1.21-2.88-9.75 4.07 1.21 2.88-6.59 2.75-1.2-2.88-7.44 3.1 1.2 2.89-6.49 2.71-1.2-2.89-10.06 4.2 1.2 2.88-3.59 1.5 6.56 15.71 3.59-1.5z"/><path class="cls-2" transform="rotate(-21.89 1281.806 148.264)" d="M1272.39 135.33h19.38v25.84h-19.38z"/><path class="cls-2" transform="rotate(-22.68 1634.766 987.624)" d="M1623.85 980.65h21.67v13.9h-21.67z"/><path class="cls-2" d="M1670.1 1001.17l-3.69-8.84-2.48-5.94-9.35 3.9 2.49 5.95-37.4 15.63 3.69 8.83 46.74-19.53z"/><path class="cls-2" transform="rotate(-23.46 1742.524 195.324)" d="M1733.78 186.89h16.92v16.92h-16.92z"/><path class="cls-2" transform="rotate(-22.5 1708.504 414.395)" d="M1698.72 349.44h19.74v129.95h-19.74z"/><path class="cls-2" d="M1579.07 583.6l3.8-1.58-2.28-5.51-3.81 1.58-11.01-26.51-19.13 7.94 11.01 26.51 4.93-2.05 2.29 5.51-4.93 2.05-9.27 3.85 4.02 9.68 9.27-3.85 19.13-7.94-4.02-9.68z"/><path class="cls-2" transform="rotate(-23.46 1757.759 191.755)" d="M1754.06 186.1h6.75v11.36h-6.75z"/><path class="cls-2" transform="rotate(-22.55 1576.7 432.57)" d="M1571.65 429.13h9.59v6.85h-9.59z"/><path class="cls-2" transform="rotate(-22.55 1565.325 414.813)" d="M1561.38 411.93h7.67v5.75h-7.67z"/><path class="cls-2" transform="rotate(-22.55 1537.323 429.049)" d="M1512.45 423.79h49.35v10.51h-49.35z"/><path class="cls-2" transform="rotate(-22.68 1553.89 1040.962)" d="M1547.21 1009.59h13.25v62.72h-13.25z"/><path class="cls-2" d="M1204.29 3.16l14.98-.48-.06-1.6h-14.98l.06 2.08z"/><path class="cls-2" transform="rotate(-22.55 1542.243 404.5)" d="M1487.31 399.21h109.5v10.56h-109.5z"/><path class="cls-2" d="M1392.31 1.08h-17.23l.03.65 17.2-.65zm-161.02 59.55h26.3l31.66-14.55-2.3-45h-56.9l1.24 59.55zm-34.66-52.41l-.23-7.14h-14.99l.25 7.62 14.97-.48zm427.6 6.2l12.25 12 17.87-3.58 15.58-9.45.81-9.86-.9-2.45h-49.65l4.04 13.34z"/><path class="cls-2" transform="rotate(-40.47 1763.518 1061.92)" d="M1759.64 1058.11h7.59v7.59h-7.59z"/><path class="cls-2" transform="rotate(-19.32 1676.842 55.889)" d="M1671.84 50.98h9.81v9.81h-9.81z"/><path class="cls-2" d="M1398.5 7.9l9.88-.37-.25-6.45h-9.89l.26 6.82zm307.91 162.71l-5.83-13.43-19.61 8.52 6.73 15.52 4.29 5.82 6.53 8.31 20.44-12.52-6.74-15.52-5.81 3.3z"/><path class="cls-2" transform="rotate(-22.55 1384.503 464.033)" d="M1379.96 459.65h8.73v8.73h-8.73z"/><path class="cls-2" d="M1502.85 253.26l-3.54-7.36-15.19 7.32 3.55 7.36 3.22 6.68 15.18-7.32-3.22-6.68z"/><path class="cls-2" transform="rotate(-21.89 1554.946 32.4)" d="M1541.92 18.25h26.69v28.2h-26.69z"/><path class="cls-2" d="M1472.83 305.69l2.86-1.15-5.88-14.65-2.86 1.15-1.34-3.32-11.78 4.73 1.34 3.33 4.72 11.75 21.82 54.32 11.78-4.73-20.66-51.43z"/><path class="cls-2" transform="rotate(-22.55 1484.273 440.48)" d="M1478.11 436.17h12v8.63h-12z"/><path class="cls-2" transform="rotate(-19.32 1543.735 202.345)" d="M1535.73 197.33h15.79v10.07h-15.79z"/><path class="cls-2" d="M1561.45 317.03l5.28 13.15 33.79-13.58 2.08 5.18 7.72-3.1-2.08-5.18 6.76-2.71-5.28-13.15-48.27 19.39z"/><path class="cls-2" transform="rotate(-22.55 1601.04 408.191)" d="M1598.14 403.12h5.38v10.14h-5.38z"/><path class="cls-2" transform="rotate(-19.32 1607.467 179.34)" d="M1603.89 175.7h7.25v7.25h-7.25z"/><path class="cls-2" transform="rotate(-22.55 1590.289 337.858)" d="M1580.86 334.06h18.44v7.62h-18.44z"/><path class="cls-2" transform="rotate(-22.55 1368.438 470.583)" d="M1362.39 464.64h11.87v11.87h-11.87z"/><path class="cls-2" transform="rotate(-21.89 1428.398 87.884)" d="M1418.72 70.27h19.93v35.17h-19.93z"/><path class="cls-2" transform="rotate(-21.89 1320.715 167.456)" d="M1317.28 163.2h7.46v8.48h-7.46z"/><path class="cls-2" transform="rotate(-21.89 1322.184 156.394)" d="M1316.95 150.85h11.01v11.01h-11.01z"/><path class="cls-2" transform="rotate(-19.32 1620.041 145.421)" d="M1616.35 139.9h7.25v11.02h-7.25z"/><path class="cls-2" transform="rotate(-21.89 1334.174 328.792)" d="M1330.2 323.35h8.5v10.93h-8.5z"/><path class="cls-2" transform="rotate(-21.89 1404.862 214.306)" d="M1395.98 189.95h18.38v48.71h-18.38z"/><path class="cls-2" transform="rotate(-21.89 1371.392 333.844)" d="M1356.18 327.52h31.01v12.67h-31.01z"/><path class="cls-2" transform="rotate(-25.72 1376.196 291.068)" d="M1371 285.59h10.54v10.93H1371z"/><path class="cls-2" d="M1339.36 310.03l2.93-1.18 2.71 6.74 25.91-10.41-5.71-14.21-28.84 11.59 3 7.47z"/></g><text class="cls-5" transform="translate(1183.08 393.6)"><tspan x="0" y="0">15</tspan></text><text class="cls-5" transform="translate(1026.28 816.59)"><tspan x="0" y="0">6А</tspan></text><text class="cls-5" transform="translate(737.88 807.69)"><tspan x="0" y="0">62А</tspan></text><text class="cls-5" transform="translate(607.54 629.29)"><tspan x="0" y="0">64</tspan></text><text class="cls-5" transform="translate(350.11 733.74)"><tspan x="0" y="0">2</tspan></text><text class="cls-5" transform="translate(1459.36 158.98)"><tspan x="0" y="0">14</tspan></text><text class="cls-5" transform="translate(1519.96 411.14)"><tspan x="0" y="0">1А</tspan></text><text class="cls-5" transform="translate(1465.62 586.7)"><tspan x="0" y="0">1А</tspan></text><text class="cls-5" transform="translate(1727.95 525.92)"><tspan x="0" y="0">31</tspan></text><text class="cls-5" transform="translate(1800.65 365.41)"><tspan x="0" y="0">3</tspan></text><text class="cls-5" transform="translate(1696.16 188.78)"><tspan x="0" y="0">5</tspan></text><text class="cls-5" transform="translate(1815.24 13.87)"><tspan x="0" y="0">18</tspan></text><text class="cls-5" transform="translate(1838.18 790.95)"><tspan x="0" y="0">2В</tspan></text><text class="cls-5" transform="translate(1845.18 816.95)"><tspan x="0" y="0">2G</tspan></text><text class="cls-5" transform="translate(1286.09 264.16)"><tspan x="0" y="0">18</tspan></text><text class="cls-5" transform="translate(1263.05 155.37)"><tspan x="0" y="0">20</tspan></text><text class="cls-5" transform="translate(1194.88 29.43)"><tspan x="0" y="0">45</tspan></text><text class="cls-5" transform="translate(1038.59 40.93)"><tspan x="0" y="0">46</tspan></text><text class="cls-5" transform="translate(1041.63 61.72)"><tspan x="0" y="0">48</tspan></text><text class="cls-5" transform="translate(1039.85 87)"><tspan x="0" y="0">50</tspan></text><text class="cls-5" transform="translate(1044.9 118.75)"><tspan x="0" y="0">52</tspan></text><text class="cls-5" transform="translate(989.83 121.21)"><tspan x="0" y="0">51</tspan></text><text class="cls-5" transform="translate(990.69 84.42)"><tspan x="0" y="0">49</tspan></text><text class="cls-5" transform="translate(991.71 57.55)"><tspan x="0" y="0">47</tspan></text><text class="cls-5" transform="translate(989.03 27.22)"><tspan x="0" y="0">43</tspan></text><text class="cls-5" transform="translate(944.64 138.83)"><tspan x="0" y="0">52</tspan></text><text class="cls-5" transform="translate(852.43 13.29)"><tspan x="0" y="0">44</tspan></text><text class="cls-5" transform="translate(850.51 63.98)"><tspan x="0" y="0">46</tspan></text><text class="cls-5" transform="translate(796 22.37)"><tspan x="0" y="0">43</tspan></text><text class="cls-5" transform="translate(751.62 16.6)"><tspan x="0" y="0">44</tspan></text><text class="cls-5" transform="translate(698.12 46.45)"><tspan x="0" y="0">45</tspan></text><text class="cls-5" transform="translate(698.84 95.95)"><tspan x="0" y="0">49</tspan></text><text class="cls-5" transform="translate(754.41 77.77)"><tspan x="0" y="0">48</tspan></text><text class="cls-5" transform="translate(596.56 19.35)"><tspan x="0" y="0">43</tspan></text><text class="cls-5" transform="translate(631.45 23.89)"><tspan x="0" y="0">44</tspan></text><text class="cls-5" transform="translate(657.26 46.45)"><tspan x="0" y="0">46</tspan></text><text class="cls-5" transform="translate(588.99 74.83)"><tspan x="0" y="0">47</tspan></text><text class="cls-5" transform="translate(645.4 96.67)"><tspan x="0" y="0">50</tspan></text><text class="cls-5" transform="translate(654.26 119.65)"><tspan x="0" y="0">52</tspan></text><text class="cls-5" transform="translate(693.41 155.64)"><tspan x="0" y="0">3</tspan></text><text class="cls-5" transform="translate(794.3 46.32)"><tspan x="0" y="0">45</tspan></text><text class="cls-5" transform="translate(799.13 74.4)"><tspan x="0" y="0">47</tspan></text><text class="cls-5" transform="translate(798.64 100.29)"><tspan x="0" y="0">49</tspan></text><text class="cls-5" transform="translate(1141.58 12.24)"><tspan x="0" y="0">44</tspan></text><text class="cls-5" transform="translate(1138.47 32.73)"><tspan x="0" y="0">46</tspan></text><text class="cls-5" transform="translate(1086.94 53.34)"><tspan x="0" y="0">47</tspan></text><path d="M986.11 493.1c0-12.73-10.32-23.04-23.04-23.04s-23.04 10.32-23.04 23.04 10.32 23.04 23.04 23.04v21.39l19.28-31.82a22.89 22.89 0 003.76-12.61zm-23.04 9.88c-5.45 0-9.88-4.42-9.88-9.88s4.42-9.88 9.88-9.88 9.88 4.42 9.88 9.88-4.42 9.88-9.88 9.88z" fill="#32a1df"/><text class="cls-6" transform="rotate(-14.11 1370.696 -2062.747)"><tspan x="0" y="0">в</tspan></text><text class="cls-6" transform="rotate(-14.49 1337.833 -2035.623)"><tspan x="0" y="0">у</tspan></text><text class="cls-6" transform="rotate(-14.91 1304.292 -2000.556)"><tspan x="0" y="0">л</tspan></text><text class="cls-6" transform="rotate(-15.44 1264.761 -1957.767)"><tspan x="0" y="0">и</tspan></text><text class="cls-6" transform="rotate(-16.09 1220.478 -1904.191)"><tspan x="0" y="0">ц</tspan></text><text class="cls-6" transform="rotate(-16.8 1176.41 -1847.445)"><tspan x="0" y="0">я</tspan></text><text class="cls-6" transform="rotate(-17.68 1126.29 -1784.892)"><tspan x="0" y="0">Ж</tspan></text><text class="cls-6" transform="rotate(-16.44 1182.23 -1977.189)"><tspan x="0" y="0">м</tspan></text><text class="cls-6" transform="rotate(-15.82 1211.153 -2100.738)"><tspan x="0" y="0">е</tspan></text><text class="cls-6" transform="rotate(-15.42 1230.422 -2190.163)"><tspan x="0" y="0">р</tspan></text><text class="cls-6" transform="rotate(-15.08 1246.726 -2276.292)"><tspan x="0" y="0">и</tspan></text><text class="cls-6" transform="rotate(-14.8 1259.882 -2356.827)"><tspan x="0" y="0">н</tspan></text><text class="cls-6" transform="rotate(-14.58 1269.543 -2429.72)"><tspan x="0" y="0">с</tspan></text><text class="cls-6" transform="rotate(-14.4 1277.758 -2490.56)"><tspan x="0" y="0">ь</tspan></text><text class="cls-6" transform="rotate(-14.23 1285.262 -2553.075)"><tspan x="0" y="0">к</tspan></text><text class="cls-6" transform="rotate(-14.07 1292.361 -2614.026)"><tspan x="0" y="0">а</tspan></text><text class="cls-6" transform="rotate(-12.92 1279.005 -3757.316)"><tspan x="0" y="0">в</tspan></text><text class="cls-6" transform="rotate(-12.92 1275.044 -3792.247)"><tspan x="0" y="0">у</tspan></text><text class="cls-6" transform="rotate(-12.92 1271.531 -3823.237)"><tspan x="0" y="0">л</tspan></text><text class="cls-6" transform="rotate(-12.92 1267.281 -3860.75)"><tspan x="0" y="0">и</tspan></text><text class="cls-6" transform="rotate(-12.92 1262.776 -3900.752)"><tspan x="0" y="0">ц</tspan></text><text class="cls-6" transform="rotate(-12.92 1258.241 -3940.49)"><tspan x="0" y="0">я</tspan></text><text class="cls-6" transform="rotate(-12.92 1252.416 -3992.135)"><tspan x="0" y="0">Ж</tspan></text><text class="cls-6" transform="rotate(-12.92 1245.741 -4050.898)"><tspan x="0" y="0">м</tspan></text><text class="cls-6" transform="rotate(-12.92 1240.186 -4100.188)"><tspan x="0" y="0">е</tspan></text><text class="cls-6" transform="rotate(-12.92 1235.984 -4137.338)"><tspan x="0" y="0">р</tspan></text><text class="cls-6" transform="rotate(-12.92 1231.585 -4176.3)"><tspan x="0" y="0">и</tspan></text><text class="cls-6" transform="rotate(-12.92 1227.026 -4216.218)"><tspan x="0" y="0">н</tspan></text><text class="cls-6" transform="rotate(-12.92 1222.545 -4256.038)"><tspan x="0" y="0">с</tspan></text><text class="cls-6" transform="rotate(-12.92 1218.95 -4287.887)"><tspan x="0" y="0">ь</tspan></text><text class="cls-6" transform="rotate(-12.92 1215.047 -4322.14)"><tspan x="0" y="0">к</tspan></text><text class="cls-6" transform="rotate(-12.92 1211.317 -4355.167)"><tspan x="0" y="0">а</tspan></text><text class="cls-6" transform="rotate(76.52 483.108 843.166)"><tspan x="0" y="0">б</tspan></text><text class="cls-6" transform="rotate(76.52 478.63 848.846)"><tspan x="0" y="0">у</tspan></text><text class="cls-6" transform="rotate(76.52 475.128 853.284)"><tspan x="0" y="0">л</tspan></text><text class="cls-6" transform="rotate(76.52 470.86 858.696)"><tspan x="0" y="0">ь</tspan></text><text class="cls-6" transform="rotate(76.52 466.979 863.618)"><tspan x="0" y="0">в</tspan></text><text class="cls-6" transform="rotate(76.52 462.982 868.683)"><tspan x="0" y="0">а</tspan></text><text class="cls-6" transform="rotate(76.52 458.985 873.758)"><tspan x="0" y="0">р</tspan></text><text class="cls-6" transform="rotate(76.52 452.642 881.794)"><tspan x="0" y="0">Р</tspan></text><text class="cls-6" transform="rotate(76.52 448.516 887.032)"><tspan x="0" y="0">о</tspan></text><text class="cls-6" transform="rotate(76.52 444.073 892.665)"><tspan x="0" y="0">м</tspan></text><text class="cls-6" transform="rotate(76.52 438.494 899.738)"><tspan x="0" y="0">е</tspan></text><text class="cls-6" transform="rotate(76.52 434.289 905.06)"><tspan x="0" y="0">н</tspan></text><text class="cls-6" transform="rotate(76.52 429.785 910.771)"><tspan x="0" y="0">а</tspan></text><text class="cls-6" transform="rotate(76.52 423.874 918.27)"><tspan x="0" y="0">Р</tspan></text><text class="cls-6" transform="rotate(76.52 419.741 923.515)"><tspan x="0" y="0">о</tspan></text><text class="cls-6" transform="rotate(76.52 415.495 928.889)"><tspan x="0" y="0">л</tspan></text><text class="cls-6" transform="rotate(76.52 411.228 934.3)"><tspan x="0" y="0">л</tspan></text><text class="cls-6" transform="rotate(72.18 389.938 1003.772)"><tspan x="0" y="0">а</tspan></text><text class="cls-6" transform="rotate(72.18 385.931 1009.256)"><tspan x="0" y="0">н</tspan></text><text class="cls-6" transform="rotate(72.18 381.426 1015.439)"><tspan x="0" y="0">а</tspan></text><text class="cls-6" transform="rotate(-22.15 2405.61 -3896.389)"><tspan x="0" y="0">в</tspan></text><text class="cls-6" transform="rotate(-22.15 2401.648 -3916.659)"><tspan x="0" y="0">у</tspan></text><text class="cls-6" transform="rotate(-22.15 2398.17 -3934.526)"><tspan x="0" y="0">л</tspan></text><text class="cls-6" transform="rotate(-22.15 2393.89 -3956.29)"><tspan x="0" y="0">и</tspan></text><text class="cls-6" transform="rotate(-22.15 2389.374 -3979.427)"><tspan x="0" y="0">ц</tspan></text><text class="cls-6" transform="rotate(-22.15 2384.859 -4002.431)"><tspan x="0" y="0">я</tspan></text><text class="cls-6" transform="rotate(-22.15 2379.024 -4032.245)"><tspan x="0" y="0">Я</tspan></text><text class="cls-6" transform="rotate(-22.15 2374.404 -4055.932)"><tspan x="0" y="0">к</tspan></text><text class="cls-6" transform="rotate(-22.15 2370.598 -4075.376)"><tspan x="0" y="0">у</tspan></text><text class="cls-6" transform="rotate(-22.15 2366.844 -4094.544)"><tspan x="0" y="0">б</tspan></text><text class="cls-6" transform="rotate(-22.15 2362.303 -4117.686)"><tspan x="0" y="0">а</tspan></text><text class="cls-6" transform="rotate(-22.15 2356.39 -4147.912)"><tspan x="0" y="0">К</tspan></text><text class="cls-6" transform="rotate(-22.15 2352.01 -4170.253)"><tspan x="0" y="0">о</tspan></text><text class="cls-6" transform="rotate(-22.15 2347.766 -4191.93)"><tspan x="0" y="0">л</tspan></text><text class="cls-6" transform="rotate(-22.15 2343.522 -4213.741)"><tspan x="0" y="0">а</tspan></text><text class="cls-6" transform="rotate(-22.15 2339.528 -4234.123)"><tspan x="0" y="0">с</tspan></text><text class="cls-6" transform="rotate(-22.15 2335.978 -4252.164)"><tspan x="0" y="0">а</tspan></text><text class="cls-7" transform="rotate(68.31 749.167 1239.332)"><tspan x="0" y="0">в</tspan></text><text class="cls-7" transform="rotate(68.31 745.913 1244.133)"><tspan x="0" y="0">у</tspan></text><text class="cls-7" transform="rotate(68.31 743.03 1248.37)"><tspan x="0" y="0">л</tspan></text><text class="cls-7" transform="rotate(68.31 739.518 1253.551)"><tspan x="0" y="0">и</tspan></text><text class="cls-7" transform="rotate(68.31 735.798 1259.045)"><tspan x="0" y="0">ц</tspan></text><text class="cls-7" transform="rotate(68.31 732.076 1264.52)"><tspan x="0" y="0">я</tspan></text><text class="cls-7" transform="rotate(68.31 727.277 1271.596)"><tspan x="0" y="0">П</tspan></text><text class="cls-7" transform="rotate(68.31 722.96 1277.97)"><tspan x="0" y="0">е</tspan></text><text class="cls-7" transform="rotate(68.31 719.53 1283.019)"><tspan x="0" y="0">т</tspan></text><text class="cls-7" transform="rotate(68.31 716.82 1287.02)"><tspan x="0" y="0">р</tspan></text><text class="cls-7" transform="rotate(68.31 713.178 1292.375)"><tspan x="0" y="0">а</tspan></text><text class="cls-7" transform="rotate(68.31 708.306 1299.566)"><tspan x="0" y="0">Ч</tspan></text><text class="cls-7" transform="rotate(68.31 704.464 1305.229)"><tspan x="0" y="0">а</tspan></text><text class="cls-7" transform="rotate(68.31 701.177 1310.075)"><tspan x="0" y="0">а</tspan></text><text class="cls-7" transform="rotate(68.31 697.872 1314.943)"><tspan x="0" y="0">д</tspan></text><text class="cls-7" transform="rotate(68.31 694.064 1320.561)"><tspan x="0" y="0">а</tspan></text><text class="cls-7" transform="rotate(68.31 690.761 1325.417)"><tspan x="0" y="0">є</tspan></text><text class="cls-7" transform="rotate(68.31 687.622 1330.054)"><tspan x="0" y="0">в</tspan></text><text class="cls-7" transform="rotate(68.31 684.342 1334.895)"><tspan x="0" y="0">а</tspan></text><text class="cls-7" transform="rotate(85.42 196.765 294.808)"><tspan x="0" y="0">в</tspan></text><text class="cls-7" transform="rotate(85.42 193.51 298.334)"><tspan x="0" y="0">у</tspan></text><text class="cls-7" transform="rotate(85.42 190.631 301.454)"><tspan x="0" y="0">л</tspan></text><text class="cls-7" transform="rotate(85.42 187.12 305.257)"><tspan x="0" y="0">и</tspan></text><text class="cls-7" transform="rotate(85.42 183.395 309.297)"><tspan x="0" y="0">ц</tspan></text><text class="cls-7" transform="rotate(85.42 179.676 313.322)"><tspan x="0" y="0">я</tspan></text><text class="cls-7" transform="rotate(85.42 174.878 318.524)"><tspan x="0" y="0">З</tspan></text><text class="cls-7" transform="rotate(85.42 171.584 322.085)"><tspan x="0" y="0">о</tspan></text><text class="cls-7" transform="rotate(85.42 168.018 325.949)"><tspan x="0" y="0">д</tspan></text><text class="cls-7" transform="rotate(85.42 164.234 330.044)"><tspan x="0" y="0">ч</tspan></text><text class="cls-7" transform="rotate(85.42 161.028 333.526)"><tspan x="0" y="0">и</tspan></text><text class="cls-7" transform="rotate(85.42 157.298 337.56)"><tspan x="0" y="0">х</tspan></text><text class="cls-7" transform="rotate(80.98 9.527 502.703)"><tspan x="0" y="0">в</tspan></text><text class="cls-7" transform="rotate(80.98 6.272 506.515)"><tspan x="0" y="0">у</tspan></text><text class="cls-7" transform="rotate(80.98 3.39 509.887)"><tspan x="0" y="0">л</tspan><tspan x="7.02" y="0">и</tspan></text><text class="cls-7" transform="rotate(80.98 -3.85 518.367)"><tspan x="0" y="0">ц</tspan></text><text class="cls-7" transform="rotate(80.98 -7.564 522.722)"><tspan x="0" y="0">я</tspan></text><text class="cls-7" transform="rotate(80.98 -12.365 528.34)"><tspan x="0" y="0">З</tspan></text><text class="cls-7" transform="rotate(80.98 -15.652 532.2)"><tspan x="0" y="0">о</tspan></text><text class="cls-7" transform="rotate(80.98 -19.22 536.38)"><tspan x="0" y="0">д</tspan></text><text class="cls-7" transform="rotate(80.98 -23.005 540.806)"><tspan x="0" y="0">ч</tspan></text><text class="cls-7" transform="rotate(80.98 -26.213 544.568)"><tspan x="0" y="0">и</tspan></text><text class="cls-7" transform="rotate(80.98 -29.933 548.928)"><tspan x="0" y="0">х</tspan></text><text class="cls-9" transform="rotate(84.44 131.35 222.201)"><tspan x="0" y="0">М</tspan></text><text class="cls-9" transform="rotate(84.44 124.076 230.218)"><tspan x="0" y="0">І</tspan></text><text class="cls-9" transform="rotate(84.44 121.945 232.564)"><tspan x="0" y="0">С</tspan></text><text class="cls-9" transform="rotate(84.44 117.404 237.569)"><tspan x="0" y="0">Т</tspan></text><text class="cls-9" transform="rotate(84.44 113.447 241.923)"><tspan x="0" y="0">О</tspan></text><text class="cls-9" transform="rotate(84.44 105.917 250.233)"><tspan x="0" y="0">К</tspan></text><text class="cls-9" transform="rotate(84.44 101.286 255.328)"><tspan x="0" y="0">И</tspan></text><text class="cls-9" transform="rotate(84.44 95.838 261.337)"><tspan x="0" y="0">Ї</tspan></text><text class="cls-9" transform="rotate(84.44 93.69 263.698)"><tspan x="0" y="0">В</tspan></text><text class="cls-9" transform="rotate(84.44 121.92 203.349)"><tspan x="0" y="0">К</tspan></text><text class="cls-9" transform="rotate(84.44 117.301 208.434)"><tspan x="0" y="0">И</tspan></text><text class="cls-9" transform="rotate(84.44 111.842 214.453)"><tspan x="0" y="0">Ї</tspan></text><text class="cls-9" transform="rotate(84.44 109.71 216.8)"><tspan x="0" y="0">В</tspan></text><text class="cls-9" transform="rotate(84.44 105.113 221.865)"><tspan x="0" y="0">С</tspan></text><text class="cls-9" transform="rotate(84.44 100.572 226.87)"><tspan x="0" y="0">Ь</tspan></text><text class="cls-9" transform="rotate(84.44 96.064 231.845)"><tspan x="0" y="0">К</tspan></text><text class="cls-9" transform="rotate(84.44 91.439 236.935)"><tspan x="0" y="0">А</tspan></text><text class="cls-9" transform="rotate(84.44 84.593 244.483)"><tspan x="0" y="0">О</tspan></text><text class="cls-9" transform="rotate(84.44 78.978 250.674)"><tspan x="0" y="0">Б</tspan></text><text class="cls-9" transform="rotate(84.44 74.403 255.708)"><tspan x="0" y="0">Л</tspan></text><text class="cls-9" transform="rotate(84.44 69.21 261.435)"><tspan x="0" y="0">.</tspan></text><text class="cls-9" transform="rotate(80.12 -93.113 476.016)"><tspan x="0" y="0">М</tspan></text><text class="cls-9" transform="rotate(80.12 -100.383 484.667)"><tspan x="0" y="0">І</tspan></text><text class="cls-9" transform="rotate(80.12 -102.51 487.196)"><tspan x="0" y="0">С</tspan></text><text class="cls-9" transform="rotate(80.12 -107.058 492.604)"><tspan x="0" y="0">Т</tspan></text><text class="cls-9" transform="rotate(80.12 -111.009 497.296)"><tspan x="0" y="0">О</tspan></text><text class="cls-9" transform="rotate(80.12 -118.544 506.261)"><tspan x="0" y="0">К</tspan></text><text class="cls-9" transform="rotate(80.12 -123.171 511.767)"><tspan x="0" y="0">И</tspan></text><text class="cls-9" transform="rotate(80.12 -128.623 518.249)"><tspan x="0" y="0">Ї</tspan></text><text class="cls-9" transform="rotate(80.12 -130.762 520.799)"><tspan x="0" y="0">В</tspan></text><text class="cls-9" transform="rotate(80.12 -103.69 456.712)"><tspan x="0" y="0">К</tspan></text><text class="cls-9" transform="rotate(80.12 -108.307 462.208)"><tspan x="0" y="0">И</tspan></text><text class="cls-9" transform="rotate(80.12 -113.77 468.7)"><tspan x="0" y="0">Ї</tspan></text><text class="cls-9" transform="rotate(80.12 -115.902 471.234)"><tspan x="0" y="0">В</tspan></text><text class="cls-9" transform="rotate(80.12 -120.5 476.703)"><tspan x="0" y="0">С</tspan></text><text class="cls-9" transform="rotate(80.12 -125.029 482.096)"><tspan x="0" y="0">Ь</tspan></text><text class="cls-9" transform="rotate(80.12 -129.546 487.467)"><tspan x="0" y="0">К</tspan></text><text class="cls-9" transform="rotate(80.12 -134.168 492.968)"><tspan x="0" y="0">А</tspan></text><text class="cls-9" transform="rotate(80.12 -141.007 501.094)"><tspan x="0" y="0">О</tspan></text><text class="cls-9" transform="rotate(80.12 -146.626 507.788)"><tspan x="0" y="0">Б</tspan></text><text class="cls-9" transform="rotate(80.12 -151.203 513.22)"><tspan x="0" y="0">Л</tspan></text><text class="cls-9" transform="rotate(80.12 -156.397 519.405)"><tspan x="0" y="0">.</tspan></text><text class="cls-7" transform="rotate(71.62 -189.628 717.729)"><tspan x="0" y="0">в</tspan></text><text class="cls-7" transform="rotate(71.62 -192.887 722.251)"><tspan x="0" y="0">у</tspan></text><text class="cls-7" transform="rotate(71.61 -195.855 726.318)"><tspan x="0" y="0">л</tspan></text><text class="cls-7" transform="rotate(71.62 -199.28 731.121)"><tspan x="0" y="0">и</tspan></text><text class="cls-7" transform="rotate(71.62 -203.005 736.285)"><tspan x="0" y="0">ц</tspan></text><text class="cls-7" transform="rotate(71.62 -206.72 741.431)"><tspan x="0" y="0">я</tspan></text><text class="cls-7" transform="rotate(71.62 -211.517 748.074)"><tspan x="0" y="0">З</tspan></text><text class="cls-7" transform="rotate(71.62 -214.815 752.646)"><tspan x="0" y="0">о</tspan></text><text class="cls-7" transform="rotate(71.62 -218.382 757.59)"><tspan x="0" y="0">д</tspan></text><text class="cls-7" transform="rotate(71.62 -222.156 762.831)"><tspan x="0" y="0">ч</tspan></text><text class="cls-7" transform="rotate(71.62 -225.366 767.276)"><tspan x="0" y="0">и</tspan></text><text class="cls-7" transform="rotate(71.62 -229.084 772.435)"><tspan x="0" y="0">х</tspan></text><text class="cls-6" transform="rotate(69.83 283.373 1168.304)"><tspan x="0" y="0">б</tspan></text><text class="cls-6" transform="rotate(69.91 279.425 1173.371)"><tspan x="0" y="0">у</tspan></text><text class="cls-6" transform="rotate(69.98 276.395 1177.193)"><tspan x="0" y="0">л</tspan></text><text class="cls-6" transform="rotate(70.07 272.765 1181.727)"><tspan x="0" y="0">ь</tspan></text><text class="cls-6" transform="rotate(70.15 269.438 1185.903)"><tspan x="0" y="0">в</tspan></text><text class="cls-6" transform="rotate(70.24 266.09 1190.043)"><tspan x="0" y="0">а</tspan></text><text class="cls-6" transform="rotate(70.36 262.948 1193.676)"><tspan x="0" y="0">р</tspan></text><text class="cls-6" transform="rotate(70.56 258.069 1199.25)"><tspan x="0" y="0">Р</tspan></text><text class="cls-6" transform="rotate(70.72 255.118 1202.361)"><tspan x="0" y="0">о</tspan></text><text class="cls-6" transform="rotate(70.97 252.561 1204.34)"><tspan x="0" y="0">м</tspan></text><text class="cls-6" transform="rotate(71.31 249.533 1206.418)"><tspan x="0" y="0">е</tspan></text><text class="cls-6" transform="rotate(71.74 248.609 1205.017)"><tspan x="0" y="0">н</tspan></text><text class="cls-6" transform="rotate(72.42 249.273 1199.907)"><tspan x="0" y="0">а</tspan></text><text class="cls-6" transform="rotate(83.24 316.845 1048.944)"><tspan x="0" y="0">Р</tspan></text><text class="cls-6" transform="rotate(78.72 283.442 1115.814)"><tspan x="0" y="0">о</tspan></text><text class="cls-6" transform="rotate(75.5 256.275 1169.141)"><tspan x="0" y="0">л</tspan></text><text class="cls-6" transform="rotate(72.96 232.486 1215.23)"><tspan x="0" y="0">л</tspan></text><text class="cls-6" transform="rotate(70.93 211.526 1255.305)"><tspan x="0" y="0">а</tspan></text><text class="cls-6" transform="rotate(69.18 192.335 1291.853)"><tspan x="0" y="0">н</tspan></text><text class="cls-6" transform="rotate(67.61 173.544 1327.27)"><tspan x="0" y="0">а</tspan></text><text class="cls-6" transform="rotate(-15.26 1006.812 -4469.616)"><tspan x="0" y="0">в</tspan></text><text class="cls-6" transform="rotate(-15.35 1000.53 -4472.128)"><tspan x="0" y="0">у</tspan></text><text class="cls-6" transform="rotate(-15.44 994.75 -4471.334)"><tspan x="0" y="0">л</tspan></text><text class="cls-6" transform="rotate(-15.56 987.61 -4467.236)"><tspan x="0" y="0">и</tspan></text><text class="cls-6" transform="rotate(-15.7 979.8 -4459.177)"><tspan x="0" y="0">ц</tspan></text><text class="cls-6" transform="rotate(-15.86 971.752 -4445.453)"><tspan x="0" y="0">я</tspan></text><text class="cls-6" transform="rotate(-16.2 958.778 -4391.002)"><tspan x="0" y="0">Ж</tspan></text><text class="cls-6" transform="rotate(-16.67 943.208 -4309.538)"><tspan x="0" y="0">м</tspan></text><text class="cls-6" transform="rotate(-17.16 929.067 -4220.403)"><tspan x="0" y="0">е</tspan></text><text class="cls-6" transform="rotate(-17.48 919.717 -4168.383)"><tspan x="0" y="0">р</tspan></text><text class="cls-6" transform="rotate(-17.76 911.057 -4129.264)"><tspan x="0" y="0">и</tspan></text><text class="cls-6" transform="rotate(-17.99 903.293 -4103.592)"><tspan x="0" y="0">н</tspan></text><text class="cls-6" transform="rotate(-18.17 896.413 -4089.986)"><tspan x="0" y="0">с</tspan></text><text class="cls-6" transform="rotate(-18.32 890.867 -4078.014)"><tspan x="0" y="0">ь</tspan></text><text class="cls-6" transform="rotate(-18.47 885.19 -4067.837)"><tspan x="0" y="0">к</tspan></text><text class="cls-6" transform="rotate(-18.61 879.844 -4059.307)"><tspan x="0" y="0">а</tspan></text><text class="cls-6" transform="rotate(70.68 103.231 1418.26)"><tspan x="0" y="0">б</tspan></text><text class="cls-6" transform="rotate(70.68 98.744 1424.59)"><tspan x="0" y="0">у</tspan></text><text class="cls-6" transform="rotate(70.68 95.25 1429.526)"><tspan x="0" y="0">л</tspan></text><text class="cls-6" transform="rotate(70.68 90.993 1435.522)"><tspan x="0" y="0">ь</tspan></text><text class="cls-6" transform="rotate(70.68 87.1 1441.017)"><tspan x="0" y="0">в</tspan></text><text class="cls-6" transform="rotate(70.68 83.094 1446.665)"><tspan x="0" y="0">а</tspan></text><text class="cls-6" transform="rotate(70.68 79.096 1452.309)"><tspan x="0" y="0">р</tspan></text><text class="cls-6" transform="rotate(70.68 74.677 1458.526)"><tspan x="3.85" y="0">Р</tspan></text><text class="cls-6" transform="rotate(70.68 68.615 1467.073)"><tspan x="0" y="0">о</tspan></text><text class="cls-6" transform="rotate(70.68 64.19 1473.326)"><tspan x="0" y="0">м</tspan></text><text class="cls-6" transform="rotate(70.68 58.62 1481.176)"><tspan x="0" y="0">е</tspan></text><text class="cls-6" transform="rotate(70.68 54.409 1487.119)"><tspan x="0" y="0">н</tspan></text><text class="cls-6" transform="rotate(70.68 49.921 1493.448)"><tspan x="0" y="0">а</tspan></text><text class="cls-6" transform="rotate(70.68 43.982 1501.824)"><tspan x="0" y="0">Р</tspan></text><text class="cls-6" transform="rotate(70.68 39.856 1507.632)"><tspan x="0" y="0">о</tspan></text><text class="cls-6" transform="rotate(70.68 35.62 1513.613)"><tspan x="0" y="0">л</tspan><tspan x="8.55" y="0">л</tspan></text><text class="cls-6" transform="rotate(70.68 27.085 1525.652)"><tspan x="0" y="0">а</tspan></text><text class="cls-6" transform="rotate(70.68 23.088 1531.284)"><tspan x="0" y="0">н</tspan></text><text class="cls-6" transform="rotate(70.68 18.585 1537.635)"><tspan x="0" y="0">а</tspan></text></g></svg>