<svg width="87" height="86" fill="none" xmlns="http://www.w3.org/2000/svg"><g clip-path="url(#clip0_274_3380)" fill="#fff"><path d="M.747 18.391a.746.746 0 00.747-.744.746.746 0 00-.747-.745.746.746 0 00-.747.745c0 .41.334.744.747.744zM17.85 0a.748.748 0 00-.748.744.748.748 0 001.494 0A.748.748 0 0017.85 0zM9.3 18.391a.746.746 0 00.747-.744.746.746 0 00-.747-.745.746.746 0 00-.747.745c0 .41.334.744.747.744zm8.55-1.489a.748.748 0 00-.748.745.748.748 0 001.494 0 .748.748 0 00-.747-.745zm0-8.451a.748.748 0 00-.748.745.748.748 0 001.494 0 .748.748 0 00-.747-.745zM26.4 9.94a.746.746 0 00.746-.744.746.746 0 00-.747-.745.746.746 0 00-.747.745c0 .41.335.744.747.744zm8.549 0a.746.746 0 00.747-.744.746.746 0 00-.747-.745.746.746 0 100 1.489zm8.549-1.489a.747.747 0 00-.746.745.747.747 0 001.493 0 .747.747 0 00-.747-.745zm8.55 1.489a.746.746 0 100-1.489.746.746 0 00-.747.745c0 .41.335.744.747.744zm8.553 0a.746.746 0 00.747-.744.746.746 0 00-.747-.745.746.746 0 00-.747.745c0 .41.334.744.747.744zm8.549-1.489a.748.748 0 00-.746.745.748.748 0 001.494 0 .748.748 0 00-.747-.745zM77.7 9.94a.746.746 0 00.748-.744.746.746 0 00-.747-.745.746.746 0 00-.747.745c0 .41.334.744.747.744zm8.55 0a.746.746 0 00.747-.744.746.746 0 00-.747-.745.746.746 0 00-.747.745c0 .41.334.744.747.744zM26.4 1.489a.746.746 0 00.746-.745A.746.746 0 0026.4 0a.746.746 0 00-.747.744c0 .412.335.745.747.745zm8.549 0a.746.746 0 00.747-.745.746.746 0 00-.747-.744.746.746 0 100 1.489zM43.498 0a.747.747 0 00-.746.744.747.747 0 001.493 0A.747.747 0 0043.498 0zm8.55 1.489a.746.746 0 100-1.489.746.746 0 00-.747.744c0 .412.335.745.747.745zm8.553 0a.746.746 0 00.747-.745.746.746 0 00-.747-.744.746.746 0 00-.747.744c0 .412.334.745.747.745zM69.15 0a.748.748 0 00-.746.744.748.748 0 001.494 0A.748.748 0 0069.15 0zm8.55 1.489a.746.746 0 00.748-.745A.746.746 0 0077.7 0a.746.746 0 00-.747.744c0 .412.334.745.747.745zm8.55 0a.746.746 0 00.747-.745A.746.746 0 0086.25 0a.746.746 0 00-.747.744c0 .412.334.745.747.745zM9.3 9.94a.746.746 0 00.747-.744.746.746 0 00-.747-.745.746.746 0 00-.747.745c0 .41.334.744.747.744zm17.1 8.451a.746.746 0 100-1.489.746.746 0 00-.748.745c0 .41.335.744.747.744zm8.549 0a.746.746 0 100-1.489.746.746 0 100 1.49zm8.549-1.489a.747.747 0 00-.746.745.747.747 0 001.493 0 .748.748 0 00-.747-.745zm8.55 1.489a.746.746 0 100-1.489.746.746 0 100 1.489zm8.553 0a.746.746 0 00.747-.744.746.746 0 00-.747-.745.746.746 0 100 1.489zm8.549-1.489a.748.748 0 00-.746.745.748.748 0 001.494 0 .748.748 0 00-.747-.745zm8.55 1.489a.746.746 0 00.748-.744.746.746 0 00-.747-.745.746.746 0 100 1.489zm8.55 0a.746.746 0 100-1.489.746.746 0 00-.747.745c0 .41.334.744.747.744zM.747 26.842a.746.746 0 100-1.488.746.746 0 100 1.489zm8.553 0a.746.746 0 100-1.488.746.746 0 100 1.489zm8.55-1.488a.748.748 0 00-.748.744.748.748 0 001.494 0 .748.748 0 00-.747-.744zm8.55 1.488a.746.746 0 100-1.488.746.746 0 00-.748.744c0 .411.335.744.747.744zm8.549 0a.746.746 0 100-1.488.746.746 0 100 1.489zm8.549-1.488a.747.747 0 00-.746.744.747.747 0 001.493 0 .747.747 0 00-.747-.744zm8.55 1.488a.746.746 0 100-1.488.746.746 0 100 1.489zm8.553 0a.746.746 0 00.747-.744.746.746 0 00-.747-.744.746.746 0 100 1.489zm8.549-1.488a.748.748 0 00-.746.744.748.748 0 001.494 0 .748.748 0 00-.747-.744zm8.55 1.488a.746.746 0 00.748-.744.746.746 0 00-.747-.744.746.746 0 100 1.489zm8.55 0a.746.746 0 100-1.488.746.746 0 00-.747.744c0 .411.334.744.747.744zM.747 35.294a.746.746 0 00.747-.745.746.746 0 00-.747-.744.746.746 0 00-.747.744c0 .411.334.745.747.745zm8.553 0a.746.746 0 00.747-.745.746.746 0 00-.747-.744.746.746 0 00-.747.744c0 .411.334.745.747.745zm8.55-1.489a.748.748 0 00-.748.744.748.748 0 001.494 0 .748.748 0 00-.747-.744zm8.55 1.489a.746.746 0 00.746-.745.746.746 0 00-.747-.744.746.746 0 00-.747.744c0 .411.335.745.747.745zm8.549 0a.746.746 0 00.747-.745.746.746 0 00-.747-.744.746.746 0 00-.747.744c0 .411.334.745.747.745zm8.549-1.489a.747.747 0 00-.746.744.747.747 0 001.493 0 .747.747 0 00-.747-.744zm8.55 1.489a.746.746 0 00.747-.745.746.746 0 00-.747-.744.746.746 0 00-.747.744c0 .411.335.745.747.745zm8.553 0a.746.746 0 00.747-.745.746.746 0 00-.747-.744.746.746 0 00-.747.744c0 .411.334.745.747.745zm8.549-1.489a.748.748 0 00-.746.744.748.748 0 001.494 0 .748.748 0 00-.747-.744zm8.55 1.489a.746.746 0 00.748-.745.746.746 0 00-.747-.744.746.746 0 00-.747.744c0 .411.334.745.747.745zm8.55 0a.746.746 0 00.747-.745.746.746 0 00-.747-.744.746.746 0 00-.747.744c0 .411.334.745.747.745zM.747 43.745a.746.746 0 100-1.489.746.746 0 100 1.489zm8.553 0a.746.746 0 100-1.489.746.746 0 100 1.489zm8.55-1.489a.748.748 0 00-.748.744.748.748 0 001.494 0 .748.748 0 00-.747-.744zm8.55 1.489a.746.746 0 100-1.489.746.746 0 00-.748.744c0 .411.335.745.747.745zm8.549 0a.746.746 0 100-1.489.746.746 0 100 1.489zm8.549-1.489a.747.747 0 00-.746.744.747.747 0 001.493 0 .747.747 0 00-.747-.744zm8.55 1.489a.746.746 0 100-1.489.746.746 0 100 1.489zm8.553 0a.746.746 0 00.747-.745.746.746 0 00-.747-.744.746.746 0 100 1.489zm8.549-1.489a.748.748 0 00-.746.744.748.748 0 001.494 0 .748.748 0 00-.747-.744zm8.55 1.489a.746.746 0 00.748-.745.746.746 0 00-.747-.744.746.746 0 100 1.489zm8.55 0a.746.746 0 100-1.489.746.746 0 00-.747.744c0 .411.334.745.747.745zM.747 52.196a.746.746 0 00.747-.745.746.746 0 00-.747-.744.746.746 0 00-.747.744c0 .412.334.745.747.745zm8.553 0a.746.746 0 00.747-.745.746.746 0 00-.747-.744.746.746 0 00-.747.744c0 .412.334.745.747.745zm8.55-1.489a.748.748 0 00-.748.744.748.748 0 001.494 0 .748.748 0 00-.747-.744zm8.55 1.489a.746.746 0 100-1.489.746.746 0 00-.748.744c0 .412.335.745.747.745zm8.549 0a.746.746 0 100-1.489.746.746 0 100 1.489zm8.549-1.489a.747.747 0 00-.746.744.747.747 0 001.493 0 .747.747 0 00-.747-.744zm8.55 1.489a.746.746 0 100-1.489.746.746 0 100 1.489zm8.553 0a.746.746 0 00.747-.745.746.746 0 00-.747-.744.746.746 0 100 1.489zm8.549-1.489a.748.748 0 00-.746.744.748.748 0 001.494 0 .748.748 0 00-.747-.744zm8.55 1.489a.746.746 0 00.748-.745.746.746 0 00-.747-.744.746.746 0 100 1.489zm8.55 0a.746.746 0 100-1.489.746.746 0 00-.747.744c0 .412.334.745.747.745zM.747 59.158a.748.748 0 00-.747.745.748.748 0 001.494 0 .748.748 0 00-.747-.745zm8.553 0a.748.748 0 00-.747.745.748.748 0 001.494 0 .748.748 0 00-.747-.745zm8.55 0a.748.748 0 00-.748.745.748.748 0 001.494 0 .748.748 0 00-.747-.745zm8.55 0a.748.748 0 00-.748.745.748.748 0 001.494 0 .747.747 0 00-.747-.745zm8.549 0a.747.747 0 00-.747.745.747.747 0 001.494 0 .747.747 0 00-.747-.745zm8.549 0a.747.747 0 00-.746.745.747.747 0 001.493 0 .747.747 0 00-.747-.745zm8.55 0a.747.747 0 00-.747.745.747.747 0 001.494 0 .747.747 0 00-.747-.745zm8.553 0a.748.748 0 00-.747.745.748.748 0 001.494 0 .748.748 0 00-.747-.745zm8.549 0a.748.748 0 00-.746.745.748.748 0 001.494 0 .748.748 0 00-.747-.745zm8.55 0a.748.748 0 00-.746.745.748.748 0 001.494 0 .748.748 0 00-.747-.745zm8.55 0a.748.748 0 00-.747.745.748.748 0 001.494 0 .748.748 0 00-.747-.745zM.747 69.098a.746.746 0 00.747-.744.746.746 0 00-.747-.745.746.746 0 00-.747.745c0 .41.334.744.747.744zm8.553 0a.746.746 0 00.747-.744.746.746 0 00-.747-.745.746.746 0 00-.747.745c0 .41.334.744.747.744zm8.55-1.492a.748.748 0 00-.748.744.748.748 0 001.494 0 .748.748 0 00-.747-.744zm8.55 1.492a.746.746 0 00.746-.744.746.746 0 00-.747-.745.746.746 0 00-.747.745c0 .41.335.744.747.744zm8.55 0a.746.746 0 00.746-.744.746.746 0 00-.747-.745.746.746 0 00-.747.745c0 .41.335.744.747.744zm8.548-1.492a.747.747 0 00-.746.744.747.747 0 001.493 0 .747.747 0 00-.747-.744zm8.55 1.492a.746.746 0 00.747-.744.746.746 0 00-.747-.745.746.746 0 00-.747.745c0 .41.335.744.747.744zm8.553 0a.746.746 0 00.747-.744.746.746 0 00-.747-.745.746.746 0 00-.747.745c0 .41.334.744.747.744zm8.549-1.492a.748.748 0 00-.746.744.748.748 0 001.494 0 .748.748 0 00-.747-.744zm8.55 1.492a.746.746 0 00.747-.744.746.746 0 00-.747-.745.746.746 0 00-.747.745c0 .41.335.744.747.744zm8.55 0a.746.746 0 00.747-.744.746.746 0 00-.747-.745.746.746 0 00-.747.745c0 .41.334.744.747.744zM.747 77.55a.746.746 0 00.747-.745.746.746 0 00-.747-.745.746.746 0 00-.747.745c0 .411.334.744.747.744zm8.553 0a.746.746 0 00.747-.745.746.746 0 00-.747-.745.746.746 0 00-.747.745c0 .411.334.744.747.744zm8.55-1.493a.748.748 0 00-.748.744.748.748 0 001.494 0 .748.748 0 00-.747-.744zm8.55 1.493a.746.746 0 100-1.49.746.746 0 00-.748.745c0 .411.335.744.747.744zm8.549 0a.746.746 0 100-1.49.746.746 0 100 1.49zm8.549-1.493a.747.747 0 00-.746.744.747.747 0 001.493 0 .748.748 0 00-.747-.744zm8.55 1.493a.746.746 0 100-1.49.746.746 0 100 1.489zm8.553 0a.746.746 0 00.747-.745.746.746 0 00-.747-.745.746.746 0 100 1.489zm8.549-1.493a.748.748 0 00-.746.744.748.748 0 001.494 0 .748.748 0 00-.747-.744zm8.55 1.493a.746.746 0 00.748-.745.746.746 0 00-.747-.745.746.746 0 100 1.489zm8.55 0a.746.746 0 100-1.49.746.746 0 00-.747.745c0 .411.334.744.747.744zM.747 86a.746.746 0 100-1.488.746.746 0 100 1.489zM9.3 86a.746.746 0 100-1.488.746.746 0 100 1.489zm8.55-1.492a.748.748 0 00-.748.744.748.748 0 001.494 0 .748.748 0 00-.747-.744zM26.4 86a.746.746 0 100-1.488.746.746 0 00-.748.744c0 .411.335.745.747.745zm8.549 0a.746.746 0 100-1.488.746.746 0 100 1.489zm8.549-1.492a.747.747 0 00-.746.744.747.747 0 001.493 0 .747.747 0 00-.747-.744zM52.048 86a.746.746 0 100-1.488.746.746 0 100 1.489zm8.553 0a.746.746 0 00.747-.744.746.746 0 00-.747-.744.746.746 0 100 1.489zm8.549-1.492a.748.748 0 00-.746.744.748.748 0 001.494 0 .748.748 0 00-.747-.744zM77.7 86a.746.746 0 00.748-.744.746.746 0 00-.747-.744.746.746 0 100 1.489zm8.55 0a.746.746 0 100-1.488.746.746 0 00-.747.744c0 .411.334.745.747.745z"/></g><defs><clipPath id="clip0_274_3380"><path fill="#fff" d="M0 0h87v86H0z"/></clipPath></defs></svg>