<svg width="144" height="144" fill="none" xmlns="http://www.w3.org/2000/svg"><path d="M72.277 27c29.407 0 38.641 23.495 40.183 28.13a5.415 5.415 0 00-2.513.534c-1.999-3.256-14.48-21.867-37.67-21.867s-35.652 18.611-37.65 21.858a5.47 5.47 0 00-2.495-.534C33.702 50.381 42.937 27 72.277 27zM37.444 81.5a4.478 4.478 0 012.39-2.455l4.064-1.752a4.443 4.443 0 011.771-.371 4.35 4.35 0 011.657.323 4.477 4.477 0 012.456 2.39l12.147 28.245c.98 2.266-.076 4.912-2.342 5.893l-4.074 1.751a4.478 4.478 0 01-5.883-2.341L37.481 84.937a4.456 4.456 0 01-.047-3.427l.009-.01zm8.749 26.685c-2.828-5.017-5.627-11.32-7.445-17.326l7.445 17.326zm-9.044-40.44c-.8 1.437-2.875 6.302-1.257 16.297 1.838 11.291 9.253 26.523 14.47 32.339a7.769 7.769 0 01-1.39.609c-1.209-1.408-6.635-8.053-10.671-18.059-3.551-8.777-5.426-16.469-6.036-19.2l1.838.732v-.78l2.275-12.643.761.705h.01zm35.128-30.597c-1.066-.038-23.314-.543-35.061 20.963a5.513 5.513 0 00-1.571-1.838c1.913-3.113 14.041-21.276 36.622-21.276s34.729 18.163 36.652 21.276a5.472 5.472 0 00-1.562 1.828c-11.747-21.495-34.004-21-35.08-20.953zm16.764 78.386l-4.065-1.752a4.502 4.502 0 01-2.351-5.892l12.147-28.246a4.416 4.416 0 012.456-2.39 4.54 4.54 0 011.657-.323c.6 0 1.199.124 1.77.371l4.075 1.752a4.416 4.416 0 012.389 2.456 4.41 4.41 0 01-.047 3.427l-12.148 28.246a4.417 4.417 0 01-2.456 2.389 4.455 4.455 0 01-3.427-.048v.01zm16.822-24.742c-1.828 6.045-4.646 12.414-7.502 17.45l7.502-17.45zm.419 8.159c-4.037 10.014-9.473 16.659-10.672 18.059a8.18 8.18 0 01-1.39-.61c5.226-5.826 12.642-21.067 14.47-32.338 1.618-9.996-.447-14.87-1.257-16.298l.772-.714 2.265 12.594v.838l1.838-.733c-.61 2.732-2.485 10.424-6.036 19.202h.01zM34.236 56.778c-1.047-.524-1.952-.505-2.428-.438L29 72.704l2.904 5.58 1.151.456 3.466-19.22a4.375 4.375 0 00-2.285-2.742zM31.685 71.98a1 1 0 01-1-1c0-.552.447-1.009 1-1.009.552 0 1 .448 1 1.01a.994.994 0 01-1 .999zm81.08-15.641c-.476-.067-1.381-.086-2.428.438a4.33 4.33 0 00-2.285 2.742l3.465 19.22 1.162-.466 2.903-5.57-2.817-16.364zm.123 15.65a1.008 1.008 0 01-1.009-1 1.01 1.01 0 011.009-1.008c.562 0 1 .447 1 1.009 0 .562-.448 1-1 1z" fill="#fff"/></svg>