<svg width="144" height="144" fill="none" xmlns="http://www.w3.org/2000/svg"><path d="M103.47 42.38c-8.16 0-14.8 6.64-14.8 14.8s6.64 14.8 14.8 14.8 14.81-6.64 14.81-14.8-6.65-14.8-14.81-14.8zm0 28.34c-7.47 0-13.55-6.08-13.55-13.55 0-7.47 6.08-13.55 13.55-13.55 7.47 0 13.56 6.08 13.56 13.55 0 7.47-6.09 13.55-13.56 13.55zm0-24.62c-6.11 0-11.08 4.97-11.08 11.08s4.97 11.08 11.08 11.08 11.08-4.97 11.08-11.08-4.97-11.08-11.08-11.08zm0 20.91c-5.42 0-9.83-4.41-9.83-9.83s4.41-9.83 9.83-9.83 9.83 4.41 9.83 9.83-4.41 9.83-9.83 9.83zm14.05 16.84v.02H89.41c-6.96 0-12.62-5.66-12.62-12.62V43.12c0-5.02 2.95-9.35 7.2-11.38H59.28l-.18-.16c-.41-.37-.95-.58-1.5-.58H40.09c-.54 0-1.08.21-1.51.58l-.18.16H26.01C19.94 31.74 15 36.68 15 42.75V98.7c0 7.35 5.98 13.33 13.33 13.33h86.84c7.35 0 13.33-5.98 13.33-13.33l.02-21.3c-2.17 3.85-6.28 6.45-11 6.45zm-43.18-4.21c0 5.87-4.77 10.63-10.62 10.63H33.96c-5.86 0-10.62-4.77-10.62-10.62V49.88c0-5.86 4.77-10.62 10.62-10.62h29.76c5.86 0 10.62 4.77 10.62 10.62v29.76zm25.89 18.78c-.54 0-.97-.43-.97-.97s.43-.97.97-.97.97.43.97.97-.43.97-.97.97zm0-3.27c-.54 0-.97-.43-.97-.97s.43-.97.97-.97.97.43.97.97-.43.97-.97.97zm0-3.27c-.54 0-.97-.43-.97-.97s.43-.97.97-.97.97.43.97.97-.43.97-.97.97zm3.23 6.54c-.54 0-.97-.43-.97-.97s.43-.97.97-.97.97.43.97.97-.43.97-.97.97zm0-3.27c-.54 0-.97-.43-.97-.97s.43-.97.97-.97.97.43.97.97-.43.97-.97.97zm0-3.27c-.54 0-.97-.43-.97-.97s.43-.97.97-.97.97.43.97.97-.43.97-.97.97zm3.23 6.54c-.54 0-.97-.43-.97-.97s.43-.97.97-.97.97.43.97.97-.43.97-.97.97zm0-3.27c-.54 0-.97-.43-.97-.97s.43-.97.97-.97.97.43.97.97-.43.97-.97.97zm0-3.27c-.54 0-.97-.43-.97-.97s.43-.97.97-.97.97.43.97.97-.43.97-.97.97zM63.86 44.13H33.83c-3.1 0-5.62 2.52-5.62 5.62v30.03c0 3.1 2.52 5.62 5.62 5.62h30.03c3.1 0 5.62-2.52 5.62-5.62V49.75c0-3.1-2.52-5.62-5.62-5.62zm4.37 5.62v30.03c0 2.41-1.96 4.38-4.38 4.38H33.83c-2.41 0-4.38-1.96-4.38-4.38V49.75c0-2.41 1.96-4.38 4.38-4.38h30.03c2.41 0 4.38 1.96 4.38 4.38h-.01zm49.29-18.01l-28.11.01c-6.27 0-11.38 5.1-11.38 11.38v28.11c0 6.27 5.1 11.38 11.38 11.38h28.11c6.27 0 11.38-5.1 11.38-11.38V43.12c0-6.27-5.1-11.38-11.38-11.38zm7.43 38.54c0 4.62-3.76 8.38-8.38 8.38h-26.2c-4.62 0-8.38-3.76-8.38-8.38v-26.2c0-4.62 3.76-8.38 8.38-8.38h26.2c4.62 0 8.38 3.76 8.38 8.38v26.2zm-21.48-17.1a3.999 3.999 0 100 8 3.999 3.999 0 100-8zm0 6.75c-1.52 0-2.75-1.23-2.75-2.75s1.23-2.75 2.75-2.75 2.75 1.23 2.75 2.75-1.23 2.75-2.75 2.75z" fill="#fff"/></svg>