<svg width="144" height="144" fill="none" xmlns="http://www.w3.org/2000/svg"><mask id="mask0_142_1142" style="mask-type:luminance" maskUnits="userSpaceOnUse" x="8" y="30" width="129" height="84"><path d="M137 30H8v83.4h129V30z" fill="#fff"/></mask><g mask="url(#mask0_142_1142)"><path d="M72.5 32.58c29.27 0 60.07-2.24 64.5-2.58v58.58c-.41-.03-.91-.06-1.48-.1V31.89l-.54.04c-.31.02-31.05 2.43-62.48 2.43-31.43 0-62.17-2.4-62.48-2.43l-.54-.04v56.59c-.57.04-1.07.07-1.48.1V30c4.43.33 35.23 2.58 64.5 2.58zm4.74 78.14h-9.47l-.44-4.6h10.35l-.44 4.6zm-48.61 2.68l.29-1.47 37.41-5.73.44 4.56-38.13 2.65h-.01v-.01zm87.74-.01l-38.13-2.65.44-4.56 37.41 5.73.29 1.47-.01.01zm-38.64-8.27H67.28l.06-13.38h.14c3.35-.03 6.69-.03 10.04 0h.14l.06 13.38h.01zm58.37-11.93l-16.79.92-5.81-2.26-.16-.03c-12.47-.61-24.1-.96-34.69-1.06h-.68a510.264 510.264 0 00-10.96 0h-.68c-10.59.11-22.22.46-34.69 1.07l-5.96 2.29L8.9 93.2l-.9-.55V89.6c1.13-.08 2.9-.2 5.2-.35h.03c.43-.03.87-.06 1.33-.08h.07c.44-.03.89-.06 1.36-.08h.21c.42-.03.85-.05 1.29-.08.13 0 .27-.02.4-.02.42-.02.84-.05 1.28-.07.14 0 .28-.02.41-.02.44-.03.89-.05 1.34-.08.15 0 .31-.02.46-.03.44-.02.9-.05 1.36-.08l.58-.03c.44-.02.89-.05 1.35-.07.2 0 .41-.02.61-.03.45-.02.91-.05 1.38-.07.24 0 .47-.02.71-.04.44-.02.89-.04 1.34-.07.27 0 .54-.03.81-.04l1.31-.06c.3-.01.6-.03.9-.04l1.31-.06c.31 0 .63-.03.95-.04l1.32-.06c.34 0 .68-.03 1.02-.04.42-.02.85-.04 1.28-.05.36-.02.73-.03 1.1-.05.42-.02.85-.03 1.28-.05.38-.02.76-.03 1.15-.05.44-.02.88-.03 1.32-.05.38 0 .75-.03 1.13-.04.45-.02.91-.03 1.36-.05.38 0 .77-.03 1.15-.04.47-.02.94-.03 1.41-.05.38 0 .75-.02 1.13-.04.48-.01.96-.03 1.44-.04l1.14-.03c.49 0 .97-.03 1.46-.04l1.15-.03c.48 0 .96-.02 1.44-.03.4 0 .8-.02 1.2-.03l1.38-.03c.43 0 .86-.02 1.29-.03.46 0 .92-.02 1.37-.02.45 0 .85-.02 1.28-.02.49 0 .99 0 1.48-.02.4 0 .79 0 1.19-.02.54 0 1.08-.01 1.63-.02.35 0 .7 0 1.05-.01h10.72c.35 0 .7 0 1.05.01.54 0 1.09 0 1.63.02.4 0 .79 0 1.19.02.49 0 .99.01 1.48.02.43 0 .85.01 1.28.02.46 0 .92.02 1.37.02.45 0 .86.02 1.29.03.46 0 .92.02 1.38.03.4 0 .8.02 1.19.03.48 0 .97.02 1.45.03.38 0 .77.02 1.15.03.49 0 .98.03 1.46.04l1.14.03c.48 0 .97.03 1.44.04.38 0 .75.02 1.13.04.47.02.94.03 1.41.05.38.01.77.03 1.15.04.46.02.91.03 1.36.05.38.01.75.03 1.13.04.44.02.88.03 1.32.05.39.01.77.03 1.15.05.43.02.86.03 1.28.05.37.02.73.03 1.1.05.43.02.86.04 1.28.05.34.01.68.03 1.02.04l1.32.06c.32 0 .63.03.95.04l1.31.06c.3 0 .61.03.91.04l1.31.06c.27.01.54.03.81.04.45.02.9.04 1.34.07.24.01.48.02.71.04.46.02.92.05 1.38.07l.62.03c.45.02.9.05 1.34.07l.59.03c.46.03.9.05 1.34.07.16 0 .32.02.47.03.45.03.9.05 1.33.08.14 0 .28.02.42.02.43.03.85.05 1.26.07.14 0 .28.02.42.02.43.03.85.05 1.26.08.08 0 .16 0 .24.01.46.03.91.06 1.34.08h.09c.45.03.89.06 1.31.08h.05c2.3.15 4.06.27 5.19.35v3.05l-.9.55v-.01z" fill="#fff"/></g></svg>