<svg width="144" height="144" fill="none" xmlns="http://www.w3.org/2000/svg"><path d="M100.748 55.48c.29 2.28 2.52 23.08-9.98 34.59 3.75-21.14 4.88-32.78 4.31-41.84 2.44 4.13 4.97 6.6 5.67 7.25zm-53.3 26.03c2.14-1.48 16.6-10.99 46.13-20.03-.43 5.24-1.24 11.47-2.48 19.22-26.08 10.42-38.6 17.91-41.36 19.64-.92-4.82-1.68-11.07-2.29-18.83zm-2.59-11.11h.61c.22 4.1.47 7.89.74 11.38l-.66-.08-1.01-9.39.31-1.9.01-.01zm19.98-14.73l8.56-3.75-.12 6.61c0 .49-.3.93-.75 1.12l-7.77 3.38c.02-2.16.04-4.64.07-7.36h.01zM75.148 20l16.91 9.4c.17 1.42.88 7.55 1.52 15.95l-.01.01c.46 4.2.53 8.85.11 14.78-12.05 3.67-21.65 7.43-28.95 10.71 0-1.18 0-3.43.02-6.45l8.27-3.6a2.52 2.52 0 001.51-2.25l.62-35.12V20zm-10.95.89v3.6l-.44 20.77c-.28 13.32-.28 24.03-.28 26.15-8.9 4.08-14.16 7.35-16.14 8.66-.43-5.79-.79-12.37-1.08-19.81-.75-19.52.6-29.28.63-29.47l.38-2.46 16.93-7.44zm-23.06 30.94c-1.64-1.22-2.03-1.5-1.95-4.79.08-3.13 1.1-10.79 1.32-12.43l5-2.77c-.3 2.84-.94 10.64-.65 23.45-1.05-1.09-2.62-2.64-3.72-3.46zm3.78 5.71l.09 2.78c.11 2.77.22 5.43.35 7.97h-.6c-.55-1.07-.69-2.1-.72-2.38v-.08c-.33-3.97-.37-7.04-.36-8.29h1.24zm4.46 56.3c-1.32-2.38-2.68-4.84-4.87-7.04a75.776 75.776 0 00-2.71-2.57c-2.67-2.46-3.47-3.2-3.61-6.8-.06-1.52-.26-3.9-.48-6.41-.41-4.7-1.08-12.57-.45-13.51.14-.2.33-.45.54-.75 1.23-1.68 3.62-4.95 5.44-8.85.14.4.33.82.57 1.25h-.01l-.51 3.12 1.13 10.55 1.9.24c.85 10.14 1.96 17.63 3.36 22.62 1.58 5.67 3.58 11.87 4.57 14.87-2.16-1.82-3.48-4.2-4.86-6.7l-.01-.02zm27.99 10.73c-6.78.99-16.1.31-21.42-2.83-.47-1.4-3.1-9.32-5.08-16.4-.31-1.1-.6-2.33-.88-3.68 1.51-.98 13.6-8.58 40.86-19.52-1.7 10.35-4.16 23.33-7.55 40.13-1.96 1.22-3.95 2.01-5.94 2.3h.01zm19.21-18.52c-3.56 6.93-7.6 12.1-11.79 15.22 1.45-7.2 2.72-13.69 3.84-19.57 7.29-2.76 11.77-8.84 14.39-14.06-1.74 6.86-3.91 13.49-6.44 18.41zm8.5-27.56h-.02c-.03.16-3.44 16.39-16.16 21.75.54-2.88 1.05-5.62 1.52-8.21 10.27-8.4 11.91-22.45 11.9-30.59.97 2.96 2.39 6.26 4.31 8.16-.41 2.78-.93 5.79-1.55 8.89zm-39.64-53.45l-.43 20.25c-.07 3.17-.12 6.2-.16 9l8.57-3.75.47-26.47c-3.27.14-7.1.75-8.45.98v-.01zm7.97 19.26c-.01.73-.31 1.41-.84 1.92-.51.5-1.19.77-1.9.77h-.05l-2.83-.05a2.749 2.749 0 01-2.69-2.78l.17-9.32c.01-.73.31-1.41.84-1.92s1.18-.76 1.95-.77l2.83.05c1.51.03 2.71 1.28 2.69 2.78l-.17 9.32zm-6.88-9.45c0-.4.17-.77.45-1.04s.64-.42 1.03-.42h.03l2.83.05c.82.01 1.47.69 1.46 1.51l-.17 9.32c-.01.81-.68 1.46-1.48 1.46h-.03l-2.83-.05c-.82-.01-1.47-.69-1.46-1.51l.17-9.32z" fill="#fff"/></svg>