<svg width="144" height="144" fill="none" xmlns="http://www.w3.org/2000/svg"><g clip-path="url(#clip0_414_3534)" fill="#fff"><path d="M117.37 107.47c-.45.35-2.96 1.94-4.47 2.48-.42.15-.88.27-1.34.36.13-.3.26-.67.4-1.17.83-1.71 2.17-2.77 3.49-2.77.75 0 1.47.38 2.01 1.03-.03.03-.06.05-.09.08v-.01zm-.56 8.04c-.73.8-1.61 1.29-2.52 1.29-.43 0-.84-.12-1.21-.34 1.48-.13 2.76-.4 3.73-.96v.01zm.38-9.78c.43.27.79.64 1.1 1.08-.73-.92-1.75-1.45-2.83-1.45-.43 0-.86.08-1.27.23.21-.16.43-.32.66-.45.17-.08.33-.17.48-.25 1.18.26 1.77.76 1.79.78l.07.05v.01z"/><path d="M106.95 102.18c1.68-1.46 3.47-2.04 5.49-1.77 1.42.19 4.05.92 5.18 1.24v.01c.07.44-.15.92-.53 1.15-.37.21-.69.37-1.08.55-.43.21-.93.45-1.65.84-1.7.99-2.95 2.64-3.35 4.43-.21.92-.54 1.54-.74 1.84-.64.05-1.25.04-1.73-.06-.86-.16-4.02-1.03-5.51-1.44.05-.07.11-.15.16-.24.29-.4.41-.62.47-.77 0 0 .01-.02.02-.03.14-.28.29-.67.46-1.11.5-1.32 1.26-3.32 2.8-4.66l.01.02z"/><path d="M80.88 110.3c4.4-.81 7.61-1.21 12.96-1.16 3.77.04 6.76-.38 8.31-.66-.22.27-.33.37-.33.37l-.82.61.06.02-.06.04.98.27c.21.06 5.2 1.45 6.37 1.68.3.06.67.09 1.09.1l-.09.1.86-.06v.03l.3-.05h.03c.8-.06 1.77-.26 2.75-.59 1.6-.57 4.21-2.21 4.75-2.63.1-.08.2-.17.3-.25 0 0 .02-.02.03-.02-.03.78-.37 2.25-2.36 3.52-.53.35-1.05.62-1.57.84-1.44.59-2.92.78-4.76.93-.31.02-.62.05-.95.07l-1.04.08c-3.31.25-6.97.88-12.62 2.18-1.43.31-2.73.63-3.97.93-3.14.76-5.86 1.42-9.18 1.62h-.26c-4.19.19-6.33-.84-8.84-2.33-1.47-.87-2.68-1.91-3.77-2.95l.08-.02c.08-.02 7.59-1.89 11.75-2.66v-.01zm-9.09 9.79c.7 1.99.72 4.4.06 6.77-.66 2.38-1.93 4.42-3.56 5.76-1.58 1.3-3.31 1.77-4.88 1.34-1.57-.44-2.81-1.74-3.48-3.67-.7-1.99-.72-4.4-.06-6.77 1.19-4.28 4.29-7.26 7.27-7.26.39 0 .78.05 1.17.16 1.57.44 2.81 1.74 3.48 3.67zM56.23 86.08l1.45-57.11c.64.07 1.59.12 2.71.14.25 0 .72.01 1.24.01s1.11-.01 1.58-.04l-1.44 57.06-.06-.03v.72c-.11.16-1.04.53-2.67.47-1.61-.05-2.53-.44-2.63-.56V86l-.18.07v.01zm4.38-63.78c1.93.16 3.04.25 3.67.3-.23.9-.4 1.75-.5 2.53-.13 1.01-.3 2.26-.39 2.94-.47.05-1.49.08-3 .04-1.29-.03-2.4-.1-2.95-.18 0-.83-.05-2.46-.3-3.8-.13-.69-.33-1.48-.53-2.17.82.07 2.4.2 3.98.33l.02.01zm20.75-9.38l.39-.03c.46-.02 1.31-.04 2.27.04.9.07 1.74.25 2.21.38l.43.12c2.08.55 3.48 2.98 3.25 5.65-.23 2.74-2.07 4.91-4.27 5.03l-.38.03h-.12v-.03c-2.37-.2-4.09-2.78-3.84-5.76l-1-.08c-.2 2.38.71 4.55 2.22 5.78-.72-.09-1.36-.23-1.75-.33l-.43-.12c-.63-.17-1.19-.53-1.68-1l-.42-.59c-.8-1.11-1.17-2.56-1.05-4.06.13-1.51.74-2.87 1.71-3.83l.49-.49c.59-.41 1.25-.68 1.96-.72l.01.01zm-5.26 4.95c-.12 1.42.17 2.78.75 3.91-2.71-.09-5.48-.36-8.4-.79l-.17-.02-2.73-.5c-1.36-.28-2.31-1.9-2.16-3.68.15-1.78 1.35-3.22 2.7-3.28h2.54c2.93.02 5.9.23 8.86.62a7.287 7.287 0 00-1.4 3.74h.01z"/><path d="M56.67 11.44c.08 0 .17 0 .25.01.11 0 8.39.72 9.45.82v.03l.12-.01c.32.03.62.11.92.23h-1.34c-1.9.09-3.48 1.89-3.68 4.2-.2 2.31 1.07 4.35 2.96 4.74l.95.19.29.06c-.3.07-.6.09-.9.06-.04 0-.09-.01-.14-.02v-.03l-.36-.03s-.1 0-.21-.02l-8.92-.74c-.82-.09-1.56-.52-2.15-1.22-.15-.18-.29-.37-.41-.57-.06-.09-.11-.19-.16-.29-.1-.19-.18-.39-.25-.59-.04-.11-.08-.22-.11-.33-.06-.22-.1-.45-.13-.68-.02-.11-.04-.21-.05-.32-.03-.34-.04-.69 0-1.04.03-.35.1-.7.19-1.03.02-.08.05-.15.07-.22.08-.26.18-.51.29-.75.03-.07.07-.13.1-.2.13-.25.28-.49.45-.7l.08-.11c.21-.25.44-.49.69-.68l.04-.03c.58-.44 1.25-.7 1.96-.7v-.03zm-13.34 8.27c-.44.25-.9.4-1.38.44l-.22.02c-.37.02-1.17.04-2.09-.03-.88-.07-1.7-.28-2.07-.38l-.22-.07c-1.91-.62-3.15-2.99-2.94-5.62.21-2.7 1.91-4.86 3.95-5.03l.2-.02c.36-.02 1.18-.05 2.11.03.87.07 1.67.27 2.05.38l.23.07c.52.17 1 .47 1.42.89h-2.84v.05c-1.64.31-2.93 1.99-3.11 4.15-.18 2.2.92 4.14 2.54 4.67v.04l2.35.42h.01l.01-.01z"/><path d="M45.61 19.04l-1.42-.22h-.05c-.22-.04-.44-.06-.66-.1l-1.47-.26v-.03l-.45-.07c-1.35-.21-2.3-1.83-2.15-3.71.15-1.82 1.3-3.26 2.62-3.28h1.99c.33 0 .66 0 .99.02l1.34.04c2.31.08 4.63.31 6.95.66-.02.02-.03.04-.04.06-.16.19-.31.4-.45.62-.04.07-.09.14-.13.21-.13.22-.24.45-.34.69-.03.07-.06.15-.09.22-.1.26-.19.52-.25.79l-.03.15a6.491 6.491 0 00-.15 2.02c0 .12.03.24.05.36.03.23.06.46.11.68.03.14.08.28.12.42.06.19.11.38.19.55.06.15.14.29.21.43.06.11.1.23.16.33a64.11 64.11 0 01-7.02-.59l-.03.01zm9.4 76.5c.67-1.27.62-2.08.5-3.93-.04-.63-.09-1.12-.14-1.57-.08-.76-.14-1.33-.09-2.2.16-.17.31-.3.44-.4.79.74 2.8.85 3.27.87 1.22.03 2.75-.13 3.38-.73.52.38.46 1.06.21 2.43l-.07.39c-.32 1.84-.45 3.74-.45 6.36 0 2.32.18 3.6.31 4.53.03.21.06.4.08.55v.27a.304.304 0 00-.08-.08c-.14-.16-.29-.32-.46-.5-.07-.08-.15-.15-.22-.23-.15-.16-.31-.32-.48-.48-.1-.09-.19-.18-.29-.28l-.59-.53c-.1-.09-.2-.17-.3-.26-.32-.26-.65-.53-1.01-.78-.3-.21-.58-.39-.86-.55-.08-.05-.16-.09-.24-.13-.2-.11-.4-.21-.59-.3-.07-.03-.14-.07-.21-.1-.24-.1-.47-.19-.69-.26-.06-.02-.12-.03-.18-.05-.16-.05-.31-.09-.45-.12-.08-.02-.15-.03-.22-.05-.12-.02-.23-.04-.33-.05-.06 0-.12-.02-.17-.02l-.33-.03c-.06-.42-.08-1.13.25-1.76l.01-.01zm-12.46 7.67c.59-.26 1.18-.52 1.78-.79 3.17-1.43 5.41-1.83 6.75-2.06.61-.11 1.05-.18 1.4-.32.85-.35 1.75-1.33 2.1-1.74h.16c.07 0 .17.01.26.02.03 0 .06 0 .09.01.14.02.29.04.45.08.02 0 .05.01.08.02.14.03.29.08.46.13.06.02.13.05.2.07.14.05.28.1.42.16.08.03.16.07.24.11.15.07.31.15.48.24a8.825 8.825 0 011.01.62c.28.2.55.41.81.61.1.08.18.15.27.23.16.13.31.26.45.39.1.09.19.18.29.26.12.12.25.23.36.34l.26.26c.11.11.21.21.3.31.07.08.15.16.21.23l.25.28c.05.06.11.13.16.18.08.1.15.18.21.26.03.04.07.08.09.11.08.1.14.18.19.24.02.28.06.95.1 1.74.05.94.5 1.43 1.26 2.25.05.05.11.11.16.17-1.21-1.08-2.53-1.95-3.81-1.95h-.06c-2.6 0-3.97 3.48-4.07 3.76-.07.17-1.13 2.59-2.4 4.01-1.75 1.87-3.86 3.17-5.88 4.29-2.52 1.4-7.66 3.23-11.13 1.28-.03-.02-.07-.03-.1-.05-.31-.19-.58-.4-.84-.62l-.25-.22c-.11-.1-.2-.22-.3-.33a7 7 0 01-.67-.92c-.43-.76-.68-1.64-.73-2.65 0-.1-.01-.21-.01-.31 0-.36.01-.74.05-1.13.02-.17.05-.36.08-.54.04-.24.08-.49.13-.74.05-.23.1-.47.16-.71.03-.14.08-.29.12-.43.07-.25.13-.49.22-.75l.11-.35c.24-.69.6-1.3 1.06-1.85.04-.05.08-.09.12-.14.14-.15.29-.29.44-.44.68-.62 1.54-1.2 2.63-1.78l1.13-.59-.07-.02c.88-.42 1.81-.83 2.79-1.26l.03.03z"/><path d="M32.71 115.57c.03.17.07.33.11.45.06.2.12.4.2.6.09.25.2.5.32.73.11.24.24.5.38.77l.06.12c.41.78.93 1.66 1.59 2.68 1.04 1.62 1.9 2.71 2.75 3.44-2.28.79-4.33.22-5.76-1.42-1.38-1.59-1.98-3.95-1.63-6.49.26-1.87.99-3.64 2.08-5.1-.27 1.35-.39 2.83-.1 4.23v-.01z"/><path d="M27.73 123.02c-1.91-2.01-2.87-4.73-2.71-7.63.32-5.87 5.16-10.64 10.78-10.64.4 0 .8.03 1.23.1-.69.44-1.31.92-1.85 1.46-.88.85-1.46 1.78-1.79 2.85-.01.04-.02.08-.03.11-1.91 1.77-3.22 4.31-3.6 7.02-.39 2.82.29 5.48 1.86 7.28 1.19 1.37 2.81 2.12 4.57 2.12.39 0 .79-.05 1.19-.13-.89.26-1.81.4-2.75.4-2.65 0-5.1-1.05-6.9-2.95v.01z"/><path d="M48.42 122.92l-.13.09c-1.51 1.02-3.75 1.64-6 1.64-2.43 0-3.57-.6-6.03-4.33-.08-.12-.16-.25-.25-.37 3.06 1.74 6.93.83 9.48-.12.05-.02.09-.04.14-.05.22-.08.42-.16.61-.25.21-.09.41-.17.6-.26.11-.05.21-.1.31-.14.11-.05.22-.11.33-.16.29-.15.51-.26.61-.32 2.09-1.17 4.28-2.51 6.12-4.49l.01-.01c1.42-1.55 2.58-4.18 2.64-4.32.01-.03 1.12-3.07 3.1-3.11 1.64.02 3.73 2.25 5.26 3.89.42.45.81.86 1.14 1.18l.6.6.65.65c-.53-.26-1.08-.48-1.65-.64l-1.43-.38c-.68-.2-1.27-.3-1.85-.3-1.82-.06-3.62.46-5.24 1.43-1.47.86-2.78 2.11-3.84 3.63-.89 1.26-1.61 2.71-2.08 4.3l-.02.13c-.06.21-.1.42-.14.64-.13.51-.22 1.01-.26 1.49v.01l-.27-.41h-2.42l.01-.02z"/><path d="M61.39 135.64c-.66-.05-1.33-.18-2.11-.42l-.75-.23c-3.71-.92-6.22-4.48-6.51-8.89v-1.24c0-.21.01-.41.03-.61.01-.19.02-.37.02-.53v-.05c0-.09.03-.19.04-.28.07-.49.16-.98.27-1.45.04-.16.07-.32.12-.49l.02-.13c1.52-5.13 5.79-8.71 10.12-8.57.64.06 1.13.11 1.64.26l1.44.39c1.74.5 3.24 1.48 4.42 2.79-.48-.32-1-.58-1.56-.73-3.84-1.07-8.18 2.43-9.67 7.8-.72 2.57-.69 5.19.08 7.38.79 2.25 2.27 3.78 4.16 4.3.47.13.95.2 1.44.2.28 0 .56-.04.84-.08-1.27.47-2.63.69-4.03.6l-.01-.02zm15.72-14.53c-.34.13-.63.24-.88.33-.88.32-1.85.5-2.39.58-.1-.74-.28-1.44-.49-2.13a.487.487 0 00-.04-.11c-.2-.62-.44-1.21-.73-1.77 0 0 0-.02-.01-.03-.15-.28-.3-.56-.47-.83-.02-.04-.05-.07-.07-.11-.15-.24-.29-.49-.46-.72.23.15.44.31.69.46 2.22 1.31 4.74 2.8 9.68 2.46h.1c.4-.02.79-.05 1.18-.09-2.58.6-4.75 1.43-6.11 1.95v.01zm24.28-5.26l-2.94.19c-1.21.28-2.79.62-4.5.97.45-.11.92-.22 1.39-.33 5.61-1.28 9.22-1.9 12.48-2.16l.78-.06c.35-.03.69-.05 1.02-.08 1.98-.15 3.63-.35 5.26-1.04.57-.24 1.14-.52 1.72-.9.71-.45 1.25-.94 1.65-1.44v.06c-.11.7-.28 1.32-.51 1.83v.02c-.11.26-.24.49-.39.7 0 0 0 .01-.01.02-.15.21-.31.4-.49.56-.15.13-.33.24-.51.35-.08.05-.16.09-.25.14-.08.04-.17.07-.25.11-.96.4-2.3.63-4.06.67l-.96.02.03.04h-1.38c-2.43-.04-4.56.09-8.07.32l-.01.01zm12.72 2.12c-3.58.1-5.04-.75-5.09-.78-.3-.15-.58-.35-.84-.61h1.28c.76 0 1.49 0 2.19-.03.7.79 1.64 1.26 2.65 1.26.71 0 1.4-.21 2.03-.59-.69.48-1.44.76-2.21.76l-.01-.01z"/></g><defs><clipPath id="clip0_414_3534"><path fill="#fff" transform="translate(25 9)" d="M0 0h93.37v126.66H0z"/></clipPath></defs></svg>