<svg version="1.1" id="Слой_1" xmlns="http://www.w3.org/2000/svg" xmlns:xlink="http://www.w3.org/1999/xlink" x="0" y="0" viewBox="0 0 144 144" xml:space="preserve"><style>.st1{fill:none;stroke-width:.5;stroke-miterlimit:10}.st1,.st3{stroke:#bf2626}.st3,.st5,.st8{fill:none;stroke-width:.5}.st3{stroke-miterlimit:9.9997}.st5,.st8{stroke:#fff;stroke-miterlimit:10}.st8{stroke-miterlimit:9.9997}</style><path d="M469.8-28.8c29.3 0 60.1-2.2 64.5-2.6v58.6c-.4 0-.9-.1-1.5-.1v-56.6h-.5c-.3 0-31.1 2.4-62.5 2.4s-62.2-2.4-62.5-2.4h-.5v56.6c-.6 0-1.1.1-1.5.1v-58.6c4.4.3 35.2 2.6 64.5 2.6zm4.7 78.1H465l-.4-4.6H475l-.5 4.6zM425.9 52l.3-1.5 37.4-5.7.4 4.6-38.1 2.6zm87.8 0l-38.1-2.7.4-4.6 37.4 5.7.3 1.6zM475 43.7h-10.5l.1-13.4h10.2l.2 13.4zm58.4-11.9l-16.8.9-5.8-2.3h-.2c-12.5-.6-24.1-1-34.7-1.1h-12.4c-10.6.1-22.2.5-34.7 1.1l-6 2.3-16.8-.9-.9-.5v-3.1c1.1-.1 2.9-.2 5.2-.3.4 0 .9-.1 1.3-.1h.1c.4 0 .9-.1 1.4-.1h.2c.4 0 .8 0 1.3-.1h.4c.4 0 .8 0 1.3-.1h.4c.4 0 .9-.1 1.3-.1h.5c.4 0 .9-.1 1.4-.1h.6c.4 0 .9-.1 1.4-.1h.6c.5 0 .9-.1 1.4-.1h.7c.4 0 .9 0 1.3-.1h.8c.4 0 .9 0 1.3-.1h.9c.4 0 .9 0 1.3-.1h.9c.4 0 .9 0 1.3-.1h2.3c.4 0 .7 0 1.1-.1h1.3c.4 0 .8 0 1.1-.1.4 0 .9 0 1.3-.1h3.6c.5 0 .9 0 1.4-.1h49.8c.5 0 .9 0 1.4.1h3.7c.4 0 .9 0 1.3.1.4 0 .8 0 1.1.1h1.3c.4 0 .7 0 1.1.1h2.3c.4 0 .9 0 1.3.1h.9c.4 0 .9 0 1.3.1h.9c.4 0 .9 0 1.3.1h.8c.5 0 .9 0 1.3.1h.7c.5 0 .9 0 1.4.1h.6c.5 0 .9.1 1.3.1h.6c.5 0 .9.1 1.3.1h.5c.5 0 .9.1 1.3.1h.4c.4 0 .8 0 1.3.1h.4c.4 0 .9.1 1.3.1h.2c.5 0 .9.1 1.3.1h.1c.5 0 .9.1 1.3.1 2.3.2 4.1.3 5.2.3v3.1l-.1.5zM323.5 58.4c-8.2 0-14.8 6.6-14.8 14.8S315.3 88 323.5 88c8.2 0 14.8-6.6 14.8-14.8s-6.6-14.8-14.8-14.8zm0 28.3c-7.5 0-13.6-6.1-13.6-13.6s6.1-13.5 13.6-13.5 13.6 6.1 13.6 13.5c0 7.5-6.1 13.6-13.6 13.6zm0-24.6c-6.1 0-11.1 5-11.1 11.1s5 11.1 11.1 11.1 11.1-5 11.1-11.1-5-11.1-11.1-11.1zm0 20.9c-5.4 0-9.8-4.4-9.8-9.8s4.4-9.8 9.8-9.8 9.8 4.4 9.8 9.8c.1 5.4-4.4 9.8-9.8 9.8zm14.1 16.9h-28.1c-7 0-12.6-5.7-12.6-12.6V59.1c0-5 3-9.3 7.2-11.4h-24.7l-.2-.2c-.4-.4-.9-.6-1.5-.6h-17.5c-.5 0-1.1.2-1.5.6l-.2.2h-12.4c-6.1 0-11 4.9-11 11v55.9c0 7.4 6 13.3 13.3 13.3h86.8c7.4 0 13.3-6 13.3-13.3V93.3c-2.1 3.9-6.2 6.6-10.9 6.6zm-43.2-4.3c0 5.9-4.8 10.6-10.6 10.6H254c-5.9 0-10.6-4.8-10.6-10.6V65.9c0-5.9 4.8-10.6 10.6-10.6h29.8c5.9 0 10.6 4.8 10.6 10.6v29.7zm25.9 18.8c-.5 0-1-.4-1-1 0-.5.4-1 1-1s1 .4 1 1c-.1.6-.5 1-1 1zm0-3.2c-.5 0-1-.4-1-1 0-.5.4-1 1-1s1 .4 1 1c-.1.5-.5 1-1 1zm0-3.3c-.5 0-1-.4-1-1s.4-1 1-1 1 .4 1 1-.5 1-1 1zm3.2 6.5c-.5 0-1-.4-1-1 0-.5.4-1 1-1 .5 0 1 .4 1 1s-.5 1-1 1zm0-3.2c-.5 0-1-.4-1-1 0-.5.4-1 1-1 .5 0 1 .4 1 1 0 .5-.5 1-1 1zm0-3.3c-.5 0-1-.4-1-1s.4-1 1-1c.5 0 1 .4 1 1s-.5 1-1 1zm3.2 6.5c-.5 0-1-.4-1-1 0-.5.4-1 1-1 .5 0 1 .4 1 1s-.4 1-1 1zm0-3.2c-.5 0-1-.4-1-1 0-.5.4-1 1-1 .5 0 1 .4 1 1 0 .5-.4 1-1 1zm0-3.3c-.5 0-1-.4-1-1s.4-1 1-1c.5 0 1 .4 1 1s-.4 1-1 1zm-42.8-47.8h-30c-3.1 0-5.6 2.5-5.6 5.6v30c0 3.1 2.5 5.6 5.6 5.6h30c3.1 0 5.6-2.5 5.6-5.6v-30c0-3-2.5-5.6-5.6-5.6zm4.4 5.7v30c0 2.4-2 4.4-4.4 4.4h-30c-2.4 0-4.4-2-4.4-4.4v-30c0-2.4 2-4.4 4.4-4.4h30c2.4 0 4.4 1.9 4.4 4.4zm49.3-18.1h-28.1c-6.3 0-11.4 5.1-11.4 11.4v28.1c0 6.3 5.1 11.4 11.4 11.4h28.1c6.3 0 11.4-5.1 11.4-11.4V59.1c0-6.2-5.1-11.4-11.4-11.4zm7.4 38.6c0 4.6-3.8 8.4-8.4 8.4h-26.2c-4.6 0-8.4-3.8-8.4-8.4V60.1c0-4.6 3.8-8.4 8.4-8.4h26.2c4.6 0 8.4 3.8 8.4 8.4v26.2zm-21.5-17.1c-2.2 0-4 1.8-4 4s1.8 4 4 4 4-1.8 4-4-1.8-4-4-4zm0 6.7c-1.5 0-2.8-1.2-2.8-2.8 0-1.5 1.2-2.8 2.8-2.8 1.5 0 2.8 1.2 2.8 2.8 0 1.6-1.3 2.8-2.8 2.8zm92.1 103v8.7l-10.7-1v-95c0-.3.2-.6.6-.6l7-.2h3.1v88.1zm-.3-89.3h-.8c-.7 0-1.4 0-2.1.1h-.5l29.3-6.4h.1l2.5-.1c-4.6 1-11.2 2.5-16.9 3.7-7.4 1.6-9.7 2.3-10.5 2.7h-1.1zM444 189.7l-26.6-2.6c-.1 0-.2 0-.3.1l-.3.1V180l26.3 2.2h.1c.2 0 .3-.1.5-.1l.3-.1v7.7zm.4-99.4l-.7.3c-2.2-.1-4.4-.3-6.7-.3-.5 0-.9 0-1.4-.1-1.8-.1-3.6-.1-5.4-.2h-2.4c-1.5 0-2.9-.1-4.4-.1h-4.1c1.5-.4 3.9-1 7.8-1.8 9.4-2 21.1-4.7 22.8-5 6.2-.1 12.4 0 18.5.3-2.6.7-6.5 1.8-11.8 3.2-9.2 2.4-11.8 3.6-12.2 3.7zm13.3 101.4l-12.4-1.2V91.6c.4 0 .7.1 1.1.1l.8.1h.2l9.5.8h.1c.3 0 .6.3.6.7l.1 98.4zm24.5-25.6l-19.5 19.5v-2.8l20.2-20.2-.7 3.5zm2.9-2c0 .3-.1.6-.3.8v-4.5c0-.3-.2-.6-.6-.6-.2 0-.4.1-.5.2l-22.1 22.1v6l-2.6 2.6V93.2c0-1-.7-1.8-1.7-1.9h-.1l-9.5-.8c1.8-.6 4.8-1.5 9.4-2.8 9.6-2.6 14.6-4 15.5-4.2 2.1.1 4.3.3 6.4.4l5.8.5c.2 0 .4.2.4.5l-.1 79.2zm-55-62.9c-1.4 0-2.6-1.2-2.6-2.6s1.2-2.6 2.6-2.6 2.6 1.2 2.6 2.6-1.2 2.6-2.6 2.6zm-.3 6.7c-.4 0-.7-.3-.7-.7s.3-.7.7-.7.6.3.6.7-.2.7-.6.7zM444 91.8h-.2c-.6 0-1.1-.1-1.7-.1l-5.1-.3c-.5 0-1.1 0-1.6-.1-1.7-.1-3.5-.1-5.2-.2h-1.6c-1.7 0-3.5-.1-5.2-.1H417v87.6l26.4 2.2.8-.4-.2-88.6zm-14.2 22.7c-1 0-1.9-.8-1.9-1.9 0-1 .9-1.9 1.9-1.9s1.9.8 1.9 1.9c0 1.1-.8 1.9-1.9 1.9zm0-5.3c-1 0-1.9-.8-1.9-1.9s.9-1.9 1.9-1.9 1.9.8 1.9 1.9c0 1-.8 1.9-1.9 1.9zm0-6.1c-2.5 0-4.5-2-4.5-4.5s2-4.5 4.5-4.5 4.5 2 4.5 4.5-2 4.5-4.5 4.5zm0 10.2c-.4 0-.7-.3-.7-.7s.3-.7.7-.7.6.3.6.7-.2.7-.6.7z" fill="#fff"/><image width="1318" height="1396" xlink:href="37C5FDC6.jpg" transform="translate(669.407 -19.497) scale(.1816)" overflow="visible"/><path class="st1" d="M760.6 180.9s2.3-6.2 6.5-6.2 9.3 6.6 12.2 9.4c2.9 2.9 6 6.3 10.4 8.9s8.6 4.9 17 4.3c8.4-.5 14.6-2.6 23.8-4.6 9.2-2.1 16.1-3.4 22.6-3.9s10.7-.5 15.4-3.6c4.7-3 4.8-6.8 4.6-8.1-.2-1.2-1.2-.1-2.1.6s-5.5 3.6-8.3 4.6-6.2 1.3-8.3.9-11.4-3-11.4-3 .4-.3 1.2-1.4c.8-1.1.8-1.3.8-1.3s-6.9 1.7-16.9 1.6c-10-.1-15.9.7-23.5 2.1-7.6 1.4-21.2 4.8-21.2 4.8s-4.5-4.4-7.1-7.5-3.8-3.7-3.9-5.6c-.1-1.9-.2-3.4-.2-3.4s-2.8-3.9-7.3-7.1-7.9-2.8-7.9-2.8-2 2.5-3.7 3.2c-1.8.7-6.5.6-14.7 4.3s-16.2 6.3-18.4 13.1-2.8 14.2 4 18.3c6.8 4 16.8.2 21.1-2.2s7.8-4.7 10.8-7.9c2.5-2.8 4.5-7.5 4.5-7.5z"/><path class="st1" d="M843 180.3s9.3 2.6 11.4 3c1 .2 2.3.2 3.7.1 0 0 1.2-1.4 1.8-4.1.6-2.7 2.5-5.6 5.6-7.4 2.4-1.3 3.5-1.7 4.9-2.5 1-.6 1.6-1.8 1.4-3-.1-.4-.2-.6-.5-.7-.7-.2-6.6-1.9-9.6-2.3-3-.4-6.7 0-10.6 3.4-3.9 3.4-5.1 8.8-6.1 10.7 0 0 0 .1-.8 1.3s-1.2 1.5-1.2 1.5z"/><path class="st1" d="M854.8 183.4s1.1-1.1 2.7-5.9 4.4-6.9 7.8-8.7c1-.5 3.3-1.3 4-1.6"/><ellipse transform="rotate(-74.413 777.722 208.91)" cx="777.7" cy="208.9" rx="17.3" ry="12.1" fill="none" stroke="#bf2626" stroke-width=".5" stroke-miterlimit="10"/><path class="st1" d="M772 227c-6.4-1.7-10.4-9.4-9.3-18.5 1.3-10.3 8.8-18.6 16.7-18.5"/><path class="st1" d="M777.7 186.8l-2.6-.7c-1-.3-2-.4-3.1-.5-8.5-.3-16.4 6.6-19.2 16.2v.1c-.4 1.3-.7 2.7-.8 4.2-1.2 10.4 4.2 19.3 12.3 21.3l1.3.4c1.3.4 2.6.7 4 .8 10.8.7 20.5-8.3 21.6-20 1.1-10.4-4.8-19.3-13.5-21.8zm95.4-9.9zm-154.2 14.2s0 .3.2 1c-.1-.3-.2-.6-.2-1z"/><path class="st1" d="M873.2 178.1c-.1 1.7-.8 4.7-4.6 7.1-4.7 3-8.9 3.1-15.4 3.6s-13.4 1.8-22.6 3.9c-9.2 2.1-15.4 4.1-23.8 4.6s-12.6-1.7-17-4.3-7.6-6-10.4-8.9c-2.9-2.9-7.9-9.4-12.2-9.4s-6.5 6.2-6.5 6.2-2.1 4.8-4.6 7.5c-3 3.2-6.5 5.5-10.8 7.9s-14.3 6.3-21.1 2.2c-1.9-1.1-3.2-2.6-4.1-4.2.7 1.5 1.8 3.6 3.6 6.3 4.6 7 6.9 8.2 11.6 8.2 4.7 0 8.8-1.4 11.3-3.1h3.6l1.7 2.6c0-.8.1-1.5.1-2.3.2-1.4.4-2.8.8-4.2v-.1c2.8-9.5 10.7-16.5 19.2-16.2 1.1 0 2.1.2 3.1.5l2.6.7c7.5 2.2 12.8 9.1 13.6 17.5h.1s2.8-.3 5.3-1.2 7.8-3.2 14.4-4.5 19-3.7 25.5-5.2c9.7-.6 14.2-1 19.6-.9s11-.1 13.9-2.6c3.2-2.9 3.2-9.1 3.1-11.7z"/><path class="st1" d="M723.6 200.7c-1.8-2.8-2.9-4.8-3.6-6.3-2.1-4-1.4-9.1.1-13.8-3.3 2.9-5.8 7.3-6.5 12.4-1.2 8.7 3.6 15.9 10.7 15.9 1.8 0 3.6-.5 5.3-1.3-1.9-1.2-3.7-3.3-6-6.9z"/><path class="st1" d="M723.6 200.7c-1.8-2.8-2.9-4.8-3.6-6.3-2.2-4-1.4-9.2.1-14.1 1.2-3.8 4.3-6.3 8.3-8.4-1.5-.4-3.1-.7-4.8-.7-10.6 0-19.7 9-20.3 20s7.5 20 18.2 20c3.6 0 6.9-1 9.9-2.8-2.6-.8-4.6-2.9-7.8-7.7zm147-27.6s-1.3-1.2-4-1.7c-.3.2-.7.4-1.1.6-3.1 1.8-5 4.7-5.6 7.4s-1.8 4.1-1.8 4.1c1.5-.1 3.2-.5 4.7-1 2.8-1 7.4-3.9 8.3-4.6.9-.7 1.9-1.9 2.1-.6 0 .2.1.6 0 .9.2 2.6.2 8.9-3.1 11.7-2.8 2.5-8.4 2.6-13.9 2.6H852c.8 1.2 1.8 2.2 3 2.8 0 0 2.7 1.7 9.6 1.5 4.9 0 9.5-5.5 10.2-12.3.5-5.2-1.2-9.5-4.2-11.4z"/><path class="st1" d="M862.7 182.4c2.8-1 7.4-3.9 8.3-4.6.3-.2.6-.5.9-.7-1.1-1.8-2.9-3-4.9-3-2.8 0-5.5 2.2-7.1 5.5-.3 1-.6 1.9-.9 2.5-.1.4-.2.8-.3 1.3 1.3-.2 2.7-.5 4-1zm10.5-1.7c-.1 3-.7 7-3.1 9.1-2.1 1.8-5.7 2.4-9.7 2.5 1.1 1.5 2.7 2.4 4.5 2.4 4.1 0 7.9-4.6 8.5-10.3.1-1.3 0-2.6-.2-3.7zM771.1 140c0 1-2.6 1.7-5.7 1.6-3.1-.1-5.6-.9-5.6-1.9 0 0-1 .4-2 1.6-.2 2.8.2 4 .4 7.2s.3 4.5-.8 6.6-.4 4.5-.4 4.5 3.4-.4 7.9 2.8 7.3 7.1 7.3 7.1.4-1 .3-2.7c-.2-1.7-.7-4-.7-9.1s.3-8.4.8-11.3 1.2-5.4-1.5-6.4zm2.8-111.5c0-.4-2.5-.8-5.6-.8-3.1-.1-5.6.2-5.7.6 0 0-1.7 6.3-2 18s1 18.1 1 18.1c0 .4 2.5.8 5.6.8 3.1.1 5.7-.2 5.7-.6 0 0 1.7-6.3 2-18 .4-11.7-.9-18-1-18.1z"/><path class="st1" d="M767.4 65.2c-3.1-.1-5.6-.4-5.6-.8l-1.9 75.4c0 1 2.5 1.8 5.6 1.9 3.1.1 5.7-.7 5.7-1.6l1.9-75.4c-.1.3-2.6.6-5.7.5z"/><ellipse transform="matrix(.08438 -.9964 .9964 .08438 818.299 819.87)" class="st3" cx="855.3" cy="-35.3" rx="8.1" ry="6.6"/><ellipse transform="matrix(.08438 -.9964 .9964 .08438 818.299 819.87)" class="st3" cx="855.3" cy="-35.3" rx="2.5" ry="2"/><ellipse transform="matrix(.08438 -.9964 .9964 .08438 813.457 813.709)" class="st3" cx="849.5" cy="-35.8" rx="8.1" ry="6.6"/><ellipse transform="matrix(.08438 -.9964 .9964 .08438 795.907 791.039)" class="st3" cx="828.4" cy="-37.6" rx="5.5" ry="4.4"/><ellipse transform="matrix(.08438 -.9964 .9964 .08438 813.457 813.709)" class="st3" cx="849.5" cy="-35.8" rx="5.5" ry="4.4"/><path class="st1" d="M818.7-38.4l36.6 3.1m-5.3-6l-1.7-.3c-5.5-1-11.1-1.5-16.8-1.5h-2.7M849-30.3h-1.7c-5.6.1-11.2-.4-16.8-1.3l-2.6-.5m29.6-11l-1.2-.4c-2.1-.6-4.2-.8-6.3-.5l-1.4.2m7.2 16.5l-1.3.1c-1.9.2-3.9 0-5.7-.5l-1.2-.3"/><ellipse transform="matrix(.08438 -.9964 .9964 .08438 737.38 797.81)" class="st3" cx="802.8" cy="-2.3" rx="8.1" ry="6.6"/><ellipse transform="matrix(.08438 -.9964 .9964 .08438 732.646 791.565)" class="st3" cx="797" cy="-2.9" rx="8.1" ry="6.6"/><ellipse transform="rotate(-86.197 742.736 -7.761)" class="st3" cx="742.7" cy="-7.8" rx="8.1" ry="6.2"/><ellipse transform="rotate(-86.197 738.068 -8.204)" class="st3" cx="738.1" cy="-8.2" rx="8.1" ry="6.2"/><ellipse transform="rotate(-85.159 775.933 -4.66) scale(.99997)" class="st3" cx="775.9" cy="-4.7" rx="5.5" ry="4.4"/><ellipse transform="matrix(.08438 -.9964 .9964 .08438 704.223 754.788)" class="st3" cx="762.8" cy="-5.8" rx="5.5" ry="4.4"/><ellipse transform="rotate(-85.159 775.933 -4.66) scale(.99997)" class="st3" cx="775.9" cy="-4.7" rx="7.2" ry="5.8"/><ellipse transform="matrix(.08438 -.9964 .9964 .08438 704.223 754.788)" class="st3" cx="762.8" cy="-5.8" rx="7.2" ry="5.8"/><ellipse transform="matrix(.08438 -.9964 .9964 .08438 732.646 791.565)" class="st3" cx="797" cy="-2.9" rx="5.5" ry="4.4"/><ellipse transform="matrix(.08438 -.9964 .9964 .08438 724.2 780.746)" class="st3" cx="786.9" cy="-3.7" rx="6.5" ry="5.2"/><path class="st1" d="M797.4-8.3l-1.7-.3c-5.5-1-11.1-1.5-16.8-1.5h-2.7m20.3 12.7h-1.7c-5.6.1-11.2-.4-16.8-1.3l-2.6-.5"/><ellipse transform="rotate(-86.131 742.856 -7.576) scale(.99998)" class="st3" cx="742.9" cy="-7.6" rx="5.5" ry="4.2"/><ellipse transform="rotate(-86.131 753.269 -6.604) scale(.99998)" class="st3" cx="753.3" cy="-6.6" rx="6.5" ry="4.9"/><path class="st1" d="M763.2-11.3l-1.6-.3c-5.2-1-10.5-1.5-15.9-1.5h-2.6M762.4-.4h-1.6c-5.3.1-10.6-.4-15.9-1.3l-2.5-.5m34.1-9.6l-13.1-1.1m11.9 15.4l-13.2-1.1"/><path d="M762 1.4c.3 1 .8 2.6 1 3.9.4 2.4.4 5.3.4 5.6.1.2 2.1.4 4.7.4 2.6.1 4.7 0 4.7-.2 0 0 .3-2.5.6-4.5.2-1.5.6-3 .9-4.2l-12.3-1zm1.4 9.4z" stroke-miterlimit="10" fill="none" stroke="#bf2626" stroke-width=".5"/><path class="st1" d="M728-8.7l74.7 6.4"/><path class="st5" d="M1040.8 180.9s2.3-6.2 6.5-6.2 9.3 6.6 12.2 9.4c2.9 2.9 6 6.3 10.4 8.9s8.6 4.9 17 4.3c8.4-.5 14.6-2.6 23.8-4.6 9.2-2.1 16.1-3.4 22.6-3.9s10.7-.5 15.4-3.6c4.7-3 4.8-6.8 4.6-8.1-.2-1.2-1.2-.1-2.1.6-.9.7-5.5 3.6-8.3 4.6-2.8 1-6.2 1.3-8.3.9s-11.4-3-11.4-3 .4-.3 1.2-1.4c.8-1.1.8-1.3.8-1.3s-6.9 1.7-16.9 1.6c-10-.1-15.9.7-23.5 2.1-7.6 1.4-21.2 4.8-21.2 4.8s-4.5-4.4-7.1-7.5-3.8-3.7-3.9-5.6c-.1-1.9-.2-3.4-.2-3.4s-2.8-3.9-7.3-7.1-7.9-2.8-7.9-2.8-2 2.5-3.7 3.2c-1.8.7-6.5.6-14.7 4.3-8.2 3.7-16.2 6.3-18.4 13.1s-2.8 14.2 4 18.3c6.8 4 16.8.2 21.1-2.2 4.3-2.4 7.8-4.7 10.8-7.9 2.5-2.8 4.5-7.5 4.5-7.5z"/><path class="st5" d="M1123.2 180.3s9.3 2.6 11.4 3c1 .2 2.3.2 3.7.1 0 0 1.2-1.4 1.8-4.1.6-2.7 2.5-5.6 5.6-7.4 2.4-1.3 3.5-1.7 4.9-2.5 1-.6 1.6-1.8 1.4-3-.1-.4-.2-.6-.5-.7-.7-.2-6.6-1.9-9.6-2.3-3-.4-6.7 0-10.6 3.4-3.9 3.4-5.1 8.8-6.1 10.7 0 0 0 .1-.8 1.3s-1.2 1.5-1.2 1.5z"/><ellipse transform="rotate(-74.413 1057.895 208.914)" cx="1057.9" cy="208.9" rx="17.3" ry="12.1" fill="none" stroke="#fff" stroke-width=".5" stroke-miterlimit="10"/><path class="st5" d="M1057.9 186.8l-2.6-.7c-1-.3-2-.4-3.1-.5-8.5-.3-16.4 6.6-19.2 16.2v.1c-.4 1.3-.7 2.7-.8 4.2-1.2 10.4 4.2 19.3 12.3 21.3l1.3.4c1.3.4 2.6.7 4 .8 10.8.7 20.5-8.3 21.6-20 1.1-10.4-4.8-19.3-13.5-21.8zm95.4-9.9zm-154.2 14.2s0 .3.2 1c-.1-.3-.2-.6-.2-1z"/><path class="st5" d="M1153.4 178.1c-.1 1.7-.8 4.7-4.6 7.1-4.7 3-8.9 3.1-15.4 3.6s-13.4 1.8-22.6 3.9c-9.2 2.1-15.4 4.1-23.8 4.6s-12.6-1.7-17-4.3-7.6-6-10.4-8.9c-2.9-2.9-7.9-9.4-12.2-9.4-4.3 0-6.5 6.2-6.5 6.2s-2.1 4.8-4.6 7.5c-3 3.2-6.5 5.5-10.8 7.9-4.3 2.4-14.3 6.3-21.1 2.2-1.9-1.1-3.2-2.6-4.1-4.2.7 1.5 1.8 3.6 3.6 6.3 4.6 7 6.9 8.2 11.6 8.2 4.7 0 8.8-1.4 11.3-3.1h3.6l1.7 2.6c0-.8.1-1.5.1-2.3.2-1.4.4-2.8.8-4.2v-.1c2.8-9.5 10.7-16.5 19.2-16.2 1.1 0 2.1.2 3.1.5l2.6.7c7.5 2.2 12.8 9.1 13.6 17.5h.1s2.8-.3 5.3-1.2 7.8-3.2 14.4-4.5c6.6-1.3 19-3.7 25.5-5.2 9.7-.6 14.2-1 19.6-.9 5.4.1 11-.1 13.9-2.6 3.2-2.9 3.2-9.1 3.1-11.7z"/><path class="st5" d="M1003.8 200.7c-1.8-2.8-2.9-4.8-3.6-6.3-2.1-4-1.4-9.1.1-13.8-3.3 2.9-5.8 7.3-6.5 12.4-1.2 8.7 3.6 15.9 10.7 15.9 1.8 0 3.6-.5 5.3-1.3-1.9-1.2-3.7-3.3-6-6.9z"/><path class="st5" d="M1003.8 200.7c-1.8-2.8-2.9-4.8-3.6-6.3-2.2-4-1.4-9.2.1-14.1 1.2-3.8 4.3-6.3 8.3-8.4-1.5-.4-3.1-.7-4.8-.7-10.6 0-19.7 9-20.3 20s7.5 20 18.2 20c3.6 0 6.9-1 9.9-2.8-2.6-.8-4.6-2.9-7.8-7.7zm147-27.6s-1.3-1.2-4-1.7c-.3.2-.7.4-1.1.6-3.1 1.8-5 4.7-5.6 7.4s-1.8 4.1-1.8 4.1c1.5-.1 3.2-.5 4.7-1 2.8-1 7.4-3.9 8.3-4.6.9-.7 1.9-1.9 2.1-.6 0 .2.1.6 0 .9.2 2.6.2 8.9-3.1 11.7-2.8 2.5-8.4 2.6-13.9 2.6h-4.2c.8 1.2 1.8 2.2 3 2.8 0 0 2.7 1.7 9.6 1.5 4.9 0 9.5-5.5 10.2-12.3.5-5.2-1.2-9.5-4.2-11.4z"/><path class="st5" d="M1142.9 182.4c2.8-1 7.4-3.9 8.3-4.6.3-.2.6-.5.9-.7-1.1-1.8-2.9-3-4.9-3-2.8 0-5.5 2.2-7.1 5.5-.3 1-.6 1.9-.9 2.5-.1.4-.2.8-.3 1.3 1.3-.2 2.7-.5 4-1zm10.5-1.7c-.1 3-.7 7-3.1 9.1-2.1 1.8-5.7 2.4-9.7 2.5 1.1 1.5 2.7 2.4 4.5 2.4 4.1 0 7.9-4.6 8.5-10.3.1-1.3 0-2.6-.2-3.7zM1051.3 140c0 1-2.6 1.7-5.7 1.6-3.1-.1-5.6-.9-5.6-1.9 0 0-1 .4-2 1.6-.2 2.8.2 4 .4 7.2s.3 4.5-.8 6.6-.4 4.5-.4 4.5 3.4-.4 7.9 2.8 7.3 7.1 7.3 7.1.4-1 .3-2.7c-.2-1.7-.7-4-.7-9.1s.3-8.4.8-11.3 1.2-5.4-1.5-6.4z"/><path d="M1040 22.1c.4 1.3 1 3.4 1.3 5.1.5 2.7.5 6 .5 7 0 .2.1.4.4.5.9.2 3.1.3 5.8.4 2.9.1 5.3 0 6-.2.1 0 .2-.1.2-.3.1-.7.5-3.5.8-5.7.3-2 .7-4 1.2-5.5l-16.2-1.3z" fill="none" stroke="#fff" stroke-width=".5" stroke-miterlimit="10"/><path class="st5" d="M1077.4 15.8c.3-3 1.5-5.7 3.3-7.5-6.2-.9-12.4-1.4-18.8-1.4h-3.7c-2.9.1-5.4 3-5.8 6.7-.3 3.7 1.7 7 4.6 7.6l3.6.7c6.3 1 12.5 1.6 18.8 1.7-1.4-2-2.2-4.8-2-7.8z"/><path class="st8" d="M1095.6 6.9s-2.3-.7-4.9-.9c-2.7-.2-4.9 0-4.9 0-4.3.2-8.1 4.4-8.5 9.9-.5 5.3 2.4 10 6.5 11.1 0 0 2.3.7 4.9.9 2.7.2 4.9 0 4.9 0 4.3-.3 8.1-4.4 8.5-9.9.4-5.4-2.4-10.1-6.5-11.1z"/><path class="st5" d="M1033.5 12c.3-3.1 1.7-5.7 3.7-7.3-6.1-1-12.3-1.6-18.6-1.6h-3.6c-2.8 0-5.3 2.9-5.6 6.7-.3 3.9 1.7 7.2 4.6 7.6l3.4.6c6.1 1 12.3 1.6 18.4 1.7-1.6-1.8-2.6-4.6-2.3-7.7z"/><path class="st5" d="M1057.2 21.3c-2.9-.6-4.9-3.8-4.6-7.6.3-3.7 2.8-6.6 5.8-6.7h5.2c-1.2-1.3-2.7-2.1-4.4-2.2 0 0-17-1.5-17.2-1.5-4.2-.4-8 3.6-8.4 8.8-.4 5.2 2.6 9.7 6.8 10.1.1 0 16.3 1.3 16.3 1.3.3.1.6.1.9.1 1.7.1 3.3-.4 4.6-1.4-.5-.1-.9-.1-1.4-.2l-3.6-.7z"/><path class="st8" d="M1017.4 18.1l-3.4-.6c-2.9-.4-4.9-3.8-4.6-7.6.3-3.8 2.8-6.7 5.6-6.7h3.6c.9 0 1.7 0 2.5.1-1-1.6-2.5-2.9-4.2-3.4 0 0-2-.7-4.3-.8-2.4-.2-4.3 0-4.3 0-4.1.3-7.5 4.5-7.9 9.9-.4 5.2 2.1 9.8 5.9 11 0 0 2 .7 4.3.9 2.4.2 4.3 0 4.3 0 1.7-.1 3.3-1 4.6-2.3-.7-.3-1.4-.4-2.1-.5zm75.1 9.7c-4.8-.4-8.2-5.5-7.7-11.3"/><path class="st5" d="M1042.3 34.7l-2.7 105.1m11.8.3l2.7-105.2"/></svg>