<svg width="144" height="144" fill="none" xmlns="http://www.w3.org/2000/svg"><path d="M42.71 113.844v8.74L32 121.544v-94.91c0-.33.25-.58.65-.59l6.99-.17c.68-.02 1.35-.04 2.03-.04h.75c.09-.01.19-.02.28-.02v88.03h.01zm-.3-89.29h-.75l-2.05.06h-.51l29.29-6.37c.07-.03.11-.03.15-.03l2.46-.06c-4.64 1.04-11.19 2.5-16.86 3.7-7.44 1.58-9.72 2.31-10.46 2.69-.42 0-.85 0-1.27.02v-.01zm28.77 100.13l-26.57-2.58c-.11-.01-.22 0-.32.05l-.32.15v-7.28l26.3 2.15h.11c.17 0 .34-.05.49-.12l.3-.14v7.76l.01.01zm.39-99.37l-.73.26c-2.22-.14-4.44-.26-6.68-.35-.46-.02-.91-.03-1.37-.05-1.79-.07-3.59-.14-5.39-.18-.79-.02-1.59-.02-2.38-.04-1.46-.03-2.92-.06-4.39-.06h-4.06c1.49-.4 3.91-.98 7.83-1.82 9.37-1.98 21.13-4.66 22.75-5.04 6.17-.09 12.35 0 18.5.28-2.58.7-6.48 1.76-11.79 3.18-9.35 2.51-11.95 3.65-12.3 3.81l.01.01zm13.25 101.36l-12.36-1.2v-.1c0-.05-.02-.1-.03-.16v-98.65c.37.02.73.05 1.1.07l.81.05c.09.02.18.02.22.02l9.54.77s.07.01.1.01c.34.03.61.31.61.66v98.53h.01zm24.57-25.6l-19.46 19.46v-2.85l20.24-20.23-.79 3.62h.01zm2.85-1.95c0 .32-.12.61-.34.83l-.04.04v-4.49a.62.62 0 00-.56-.62.59.59 0 00-.5.19l-22.11 22.1v6.02l-2.61 2.61v-97.66c0-.97-.74-1.79-1.69-1.9-.03 0-.07-.01-.1-.02l-9.51-.76c1.83-.61 4.78-1.51 9.43-2.76 9.61-2.58 14.63-3.96 15.46-4.18 2.14.13 4.27.26 6.39.43l5.78.47c.24.02.42.22.42.46v79.25l-.02-.01zm-55.01-62.89c-1.44 0-2.61-1.17-2.61-2.61s1.17-2.6 2.61-2.6 2.6 1.17 2.6 2.6c0 1.43-1.17 2.61-2.6 2.61zm-.28 6.67a.66.66 0 01-.66-.66c0-.37.29-.66.66-.66.37 0 .65.29.65.66 0 .37-.29.66-.65.66zm14.19-16.11c-.08.03-.16.04-.25.03-.57-.04-1.14-.06-1.71-.09-1.68-.1-3.37-.2-5.06-.27l-1.64-.06c-1.74-.07-3.48-.13-5.22-.18-.54-.01-1.07-.01-1.61-.03-1.74-.03-3.49-.07-5.23-.08H48.1c-1.38 0-2.75 0-4.12.02v87.64l26.4 2.15.81-.37v-88.77h-.04l-.01.01zm-14.19 22.73c-1.05 0-1.91-.85-1.91-1.9 0-1.05.85-1.91 1.91-1.91s1.9.85 1.9 1.91-.85 1.9-1.9 1.9zm0-5.36a1.91 1.91 0 01-1.91-1.91c0-1.06.85-1.91 1.91-1.91s1.9.85 1.9 1.91-.85 1.91-1.9 1.91zm0-6.05a4.475 4.475 0 010-8.95c2.46 0 4.47 2.01 4.47 4.47s-2.01 4.48-4.47 4.48zm0 10.16c-.36 0-.66-.29-.66-.65 0-.36.29-.66.66-.66.37 0 .65.29.65.66 0 .37-.29.65-.65.65z" fill="#fff"/></svg>