<svg width="270" height="180" viewBox="0 0 270 180" fill="none" xmlns="http://www.w3.org/2000/svg">
<g clip-path="url(#clip0_675_12552)">
<g opacity="0.5">
<path d="M19.8999 154.9L25.0999 160.1" stroke="#32A1DF" stroke-width="0.5" stroke-miterlimit="10"/>
<path d="M25.0999 154.9L19.8999 160.1" stroke="#32A1DF" stroke-width="0.5" stroke-miterlimit="10"/>
<path d="M42.3999 154.9L47.5999 160.1" stroke="#32A1DF" stroke-width="0.5" stroke-miterlimit="10"/>
<path d="M47.5999 154.9L42.3999 160.1" stroke="#32A1DF" stroke-width="0.5" stroke-miterlimit="10"/>
<path d="M64.8999 154.9L70.0999 160.1" stroke="#32A1DF" stroke-width="0.5" stroke-miterlimit="10"/>
<path d="M70.0999 154.9L64.8999 160.1" stroke="#32A1DF" stroke-width="0.5" stroke-miterlimit="10"/>
<path d="M87.3999 154.9L92.5999 160.1" stroke="#32A1DF" stroke-width="0.5" stroke-miterlimit="10"/>
<path d="M92.5999 154.9L87.3999 160.1" stroke="#32A1DF" stroke-width="0.5" stroke-miterlimit="10"/>
<path d="M109.9 154.9L115.1 160.1" stroke="#32A1DF" stroke-width="0.5" stroke-miterlimit="10"/>
<path d="M115.1 154.9L109.9 160.1" stroke="#32A1DF" stroke-width="0.5" stroke-miterlimit="10"/>
<path d="M132.4 154.9L137.6 160.1" stroke="#32A1DF" stroke-width="0.5" stroke-miterlimit="10"/>
<path d="M137.6 154.9L132.4 160.1" stroke="#32A1DF" stroke-width="0.5" stroke-miterlimit="10"/>
<path d="M154.9 154.9L160.1 160.1" stroke="#32A1DF" stroke-width="0.5" stroke-miterlimit="10"/>
<path d="M160.1 154.9L154.9 160.1" stroke="#32A1DF" stroke-width="0.5" stroke-miterlimit="10"/>
<path d="M177.4 154.9L182.6 160.1" stroke="#32A1DF" stroke-width="0.5" stroke-miterlimit="10"/>
<path d="M182.6 154.9L177.4 160.1" stroke="#32A1DF" stroke-width="0.5" stroke-miterlimit="10"/>
<path d="M199.9 154.9L205.1 160.1" stroke="#32A1DF" stroke-width="0.5" stroke-miterlimit="10"/>
<path d="M205.1 154.9L199.9 160.1" stroke="#32A1DF" stroke-width="0.5" stroke-miterlimit="10"/>
<path d="M222.4 154.9L227.6 160.1" stroke="#32A1DF" stroke-width="0.5" stroke-miterlimit="10"/>
<path d="M227.6 154.9L222.4 160.1" stroke="#32A1DF" stroke-width="0.5" stroke-miterlimit="10"/>
<path d="M244.9 154.9L250.1 160.1" stroke="#32A1DF" stroke-width="0.5" stroke-miterlimit="10"/>
<path d="M250.1 154.9L244.9 160.1" stroke="#32A1DF" stroke-width="0.5" stroke-miterlimit="10"/>
<path d="M19.8999 132.4L25.0999 137.6" stroke="#32A1DF" stroke-width="0.5" stroke-miterlimit="10"/>
<path d="M25.0999 132.4L19.8999 137.6" stroke="#32A1DF" stroke-width="0.5" stroke-miterlimit="10"/>
<path d="M42.3999 132.4L47.5999 137.6" stroke="#32A1DF" stroke-width="0.5" stroke-miterlimit="10"/>
<path d="M47.5999 132.4L42.3999 137.6" stroke="#32A1DF" stroke-width="0.5" stroke-miterlimit="10"/>
<path d="M64.8999 132.4L70.0999 137.6" stroke="#32A1DF" stroke-width="0.5" stroke-miterlimit="10"/>
<path d="M70.0999 132.4L64.8999 137.6" stroke="#32A1DF" stroke-width="0.5" stroke-miterlimit="10"/>
<path d="M87.3999 132.4L92.5999 137.6" stroke="#32A1DF" stroke-width="0.5" stroke-miterlimit="10"/>
<path d="M92.5999 132.4L87.3999 137.6" stroke="#32A1DF" stroke-width="0.5" stroke-miterlimit="10"/>
<path d="M109.9 132.4L115.1 137.6" stroke="#32A1DF" stroke-width="0.5" stroke-miterlimit="10"/>
<path d="M115.1 132.4L109.9 137.6" stroke="#32A1DF" stroke-width="0.5" stroke-miterlimit="10"/>
<path d="M132.4 132.4L137.6 137.6" stroke="#32A1DF" stroke-width="0.5" stroke-miterlimit="10"/>
<path d="M137.6 132.4L132.4 137.6" stroke="#32A1DF" stroke-width="0.5" stroke-miterlimit="10"/>
<path d="M154.9 132.4L160.1 137.6" stroke="#32A1DF" stroke-width="0.5" stroke-miterlimit="10"/>
<path d="M160.1 132.4L154.9 137.6" stroke="#32A1DF" stroke-width="0.5" stroke-miterlimit="10"/>
<path d="M177.4 132.4L182.6 137.6" stroke="#32A1DF" stroke-width="0.5" stroke-miterlimit="10"/>
<path d="M182.6 132.4L177.4 137.6" stroke="#32A1DF" stroke-width="0.5" stroke-miterlimit="10"/>
<path d="M199.9 132.4L205.1 137.6" stroke="#32A1DF" stroke-width="0.5" stroke-miterlimit="10"/>
<path d="M205.1 132.4L199.9 137.6" stroke="#32A1DF" stroke-width="0.5" stroke-miterlimit="10"/>
<path d="M222.4 132.4L227.6 137.6" stroke="#32A1DF" stroke-width="0.5" stroke-miterlimit="10"/>
<path d="M227.6 132.4L222.4 137.6" stroke="#32A1DF" stroke-width="0.5" stroke-miterlimit="10"/>
<path d="M244.9 132.4L250.1 137.6" stroke="#32A1DF" stroke-width="0.5" stroke-miterlimit="10"/>
<path d="M250.1 132.4L244.9 137.6" stroke="#32A1DF" stroke-width="0.5" stroke-miterlimit="10"/>
<path d="M19.8999 109.9L25.0999 115.1" stroke="#32A1DF" stroke-width="0.5" stroke-miterlimit="10"/>
<path d="M25.0999 109.9L19.8999 115.1" stroke="#32A1DF" stroke-width="0.5" stroke-miterlimit="10"/>
<path d="M42.3999 109.9L47.5999 115.1" stroke="#32A1DF" stroke-width="0.5" stroke-miterlimit="10"/>
<path d="M47.5999 109.9L42.3999 115.1" stroke="#32A1DF" stroke-width="0.5" stroke-miterlimit="10"/>
<path d="M64.8999 109.9L70.0999 115.1" stroke="#32A1DF" stroke-width="0.5" stroke-miterlimit="10"/>
<path d="M70.0999 109.9L64.8999 115.1" stroke="#32A1DF" stroke-width="0.5" stroke-miterlimit="10"/>
<path d="M87.3999 109.9L92.5999 115.1" stroke="#32A1DF" stroke-width="0.5" stroke-miterlimit="10"/>
<path d="M92.5999 109.9L87.3999 115.1" stroke="#32A1DF" stroke-width="0.5" stroke-miterlimit="10"/>
<path d="M109.9 109.9L115.1 115.1" stroke="#32A1DF" stroke-width="0.5" stroke-miterlimit="10"/>
<path d="M115.1 109.9L109.9 115.1" stroke="#32A1DF" stroke-width="0.5" stroke-miterlimit="10"/>
<path d="M132.4 109.9L137.6 115.1" stroke="#32A1DF" stroke-width="0.5" stroke-miterlimit="10"/>
<path d="M137.6 109.9L132.4 115.1" stroke="#32A1DF" stroke-width="0.5" stroke-miterlimit="10"/>
<path d="M154.9 109.9L160.1 115.1" stroke="#32A1DF" stroke-width="0.5" stroke-miterlimit="10"/>
<path d="M160.1 109.9L154.9 115.1" stroke="#32A1DF" stroke-width="0.5" stroke-miterlimit="10"/>
<path d="M177.4 109.9L182.6 115.1" stroke="#32A1DF" stroke-width="0.5" stroke-miterlimit="10"/>
<path d="M182.6 109.9L177.4 115.1" stroke="#32A1DF" stroke-width="0.5" stroke-miterlimit="10"/>
<path d="M199.9 109.9L205.1 115.1" stroke="#32A1DF" stroke-width="0.5" stroke-miterlimit="10"/>
<path d="M205.1 109.9L199.9 115.1" stroke="#32A1DF" stroke-width="0.5" stroke-miterlimit="10"/>
<path d="M222.4 109.9L227.6 115.1" stroke="#32A1DF" stroke-width="0.5" stroke-miterlimit="10"/>
<path d="M227.6 109.9L222.4 115.1" stroke="#32A1DF" stroke-width="0.5" stroke-miterlimit="10"/>
<path d="M244.9 109.9L250.1 115.1" stroke="#32A1DF" stroke-width="0.5" stroke-miterlimit="10"/>
<path d="M250.1 109.9L244.9 115.1" stroke="#32A1DF" stroke-width="0.5" stroke-miterlimit="10"/>
<path d="M19.8999 87.4L25.0999 92.6" stroke="#32A1DF" stroke-width="0.5" stroke-miterlimit="10"/>
<path d="M25.0999 87.4L19.8999 92.6" stroke="#32A1DF" stroke-width="0.5" stroke-miterlimit="10"/>
<path d="M42.3999 87.4L47.5999 92.6" stroke="#32A1DF" stroke-width="0.5" stroke-miterlimit="10"/>
<path d="M47.5999 87.4L42.3999 92.6" stroke="#32A1DF" stroke-width="0.5" stroke-miterlimit="10"/>
<path d="M64.8999 87.4L70.0999 92.6" stroke="#32A1DF" stroke-width="0.5" stroke-miterlimit="10"/>
<path d="M70.0999 87.4L64.8999 92.6" stroke="#32A1DF" stroke-width="0.5" stroke-miterlimit="10"/>
<path d="M87.3999 87.4L92.5999 92.6" stroke="#32A1DF" stroke-width="0.5" stroke-miterlimit="10"/>
<path d="M92.5999 87.4L87.3999 92.6" stroke="#32A1DF" stroke-width="0.5" stroke-miterlimit="10"/>
<path d="M109.9 87.4L115.1 92.6" stroke="#32A1DF" stroke-width="0.5" stroke-miterlimit="10"/>
<path d="M115.1 87.4L109.9 92.6" stroke="#32A1DF" stroke-width="0.5" stroke-miterlimit="10"/>
<path d="M132.4 87.4L137.6 92.6" stroke="#32A1DF" stroke-width="0.5" stroke-miterlimit="10"/>
<path d="M137.6 87.4L132.4 92.6" stroke="#32A1DF" stroke-width="0.5" stroke-miterlimit="10"/>
<path d="M154.9 87.4L160.1 92.6" stroke="#32A1DF" stroke-width="0.5" stroke-miterlimit="10"/>
<path d="M160.1 87.4L154.9 92.6" stroke="#32A1DF" stroke-width="0.5" stroke-miterlimit="10"/>
<path d="M177.4 87.4L182.6 92.6" stroke="#32A1DF" stroke-width="0.5" stroke-miterlimit="10"/>
<path d="M182.6 87.4L177.4 92.6" stroke="#32A1DF" stroke-width="0.5" stroke-miterlimit="10"/>
<path d="M199.9 87.4L205.1 92.6" stroke="#32A1DF" stroke-width="0.5" stroke-miterlimit="10"/>
<path d="M205.1 87.4L199.9 92.6" stroke="#32A1DF" stroke-width="0.5" stroke-miterlimit="10"/>
<path d="M222.4 87.4L227.6 92.6" stroke="#32A1DF" stroke-width="0.5" stroke-miterlimit="10"/>
<path d="M227.6 87.4L222.4 92.6" stroke="#32A1DF" stroke-width="0.5" stroke-miterlimit="10"/>
<path d="M244.9 87.4L250.1 92.6" stroke="#32A1DF" stroke-width="0.5" stroke-miterlimit="10"/>
<path d="M250.1 87.4L244.9 92.6" stroke="#32A1DF" stroke-width="0.5" stroke-miterlimit="10"/>
<path d="M19.8999 64.9L25.0999 70.1" stroke="#32A1DF" stroke-width="0.5" stroke-miterlimit="10"/>
<path d="M25.0999 64.9L19.8999 70.1" stroke="#32A1DF" stroke-width="0.5" stroke-miterlimit="10"/>
<path d="M42.3999 64.9L47.5999 70.1" stroke="#32A1DF" stroke-width="0.5" stroke-miterlimit="10"/>
<path d="M47.5999 64.9L42.3999 70.1" stroke="#32A1DF" stroke-width="0.5" stroke-miterlimit="10"/>
<path d="M64.8999 64.9L70.0999 70.1" stroke="#32A1DF" stroke-width="0.5" stroke-miterlimit="10"/>
<path d="M70.0999 64.9L64.8999 70.1" stroke="#32A1DF" stroke-width="0.5" stroke-miterlimit="10"/>
<path d="M87.3999 64.9L92.5999 70.1" stroke="#32A1DF" stroke-width="0.5" stroke-miterlimit="10"/>
<path d="M92.5999 64.9L87.3999 70.1" stroke="#32A1DF" stroke-width="0.5" stroke-miterlimit="10"/>
<path d="M109.9 64.9L115.1 70.1" stroke="#32A1DF" stroke-width="0.5" stroke-miterlimit="10"/>
<path d="M115.1 64.9L109.9 70.1" stroke="#32A1DF" stroke-width="0.5" stroke-miterlimit="10"/>
<path d="M132.4 64.9L137.6 70.1" stroke="#32A1DF" stroke-width="0.5" stroke-miterlimit="10"/>
<path d="M137.6 64.9L132.4 70.1" stroke="#32A1DF" stroke-width="0.5" stroke-miterlimit="10"/>
<path d="M154.9 64.9L160.1 70.1" stroke="#32A1DF" stroke-width="0.5" stroke-miterlimit="10"/>
<path d="M160.1 64.9L154.9 70.1" stroke="#32A1DF" stroke-width="0.5" stroke-miterlimit="10"/>
<path d="M177.4 64.9L182.6 70.1" stroke="#32A1DF" stroke-width="0.5" stroke-miterlimit="10"/>
<path d="M182.6 64.9L177.4 70.1" stroke="#32A1DF" stroke-width="0.5" stroke-miterlimit="10"/>
<path d="M199.9 64.9L205.1 70.1" stroke="#32A1DF" stroke-width="0.5" stroke-miterlimit="10"/>
<path d="M205.1 64.9L199.9 70.1" stroke="#32A1DF" stroke-width="0.5" stroke-miterlimit="10"/>
<path d="M222.4 64.9L227.6 70.1" stroke="#32A1DF" stroke-width="0.5" stroke-miterlimit="10"/>
<path d="M227.6 64.9L222.4 70.1" stroke="#32A1DF" stroke-width="0.5" stroke-miterlimit="10"/>
<path d="M244.9 64.9L250.1 70.1" stroke="#32A1DF" stroke-width="0.5" stroke-miterlimit="10"/>
<path d="M250.1 64.9L244.9 70.1" stroke="#32A1DF" stroke-width="0.5" stroke-miterlimit="10"/>
<path d="M19.8999 42.4L25.0999 47.6" stroke="#32A1DF" stroke-width="0.5" stroke-miterlimit="10"/>
<path d="M25.0999 42.4L19.8999 47.6" stroke="#32A1DF" stroke-width="0.5" stroke-miterlimit="10"/>
<path d="M42.3999 42.4L47.5999 47.6" stroke="#32A1DF" stroke-width="0.5" stroke-miterlimit="10"/>
<path d="M47.5999 42.4L42.3999 47.6" stroke="#32A1DF" stroke-width="0.5" stroke-miterlimit="10"/>
<path d="M64.8999 42.4L70.0999 47.6" stroke="#32A1DF" stroke-width="0.5" stroke-miterlimit="10"/>
<path d="M70.0999 42.4L64.8999 47.6" stroke="#32A1DF" stroke-width="0.5" stroke-miterlimit="10"/>
<path d="M87.3999 42.4L92.5999 47.6" stroke="#32A1DF" stroke-width="0.5" stroke-miterlimit="10"/>
<path d="M92.5999 42.4L87.3999 47.6" stroke="#32A1DF" stroke-width="0.5" stroke-miterlimit="10"/>
<path d="M109.9 42.4L115.1 47.6" stroke="#32A1DF" stroke-width="0.5" stroke-miterlimit="10"/>
<path d="M115.1 42.4L109.9 47.6" stroke="#32A1DF" stroke-width="0.5" stroke-miterlimit="10"/>
<path d="M132.4 42.4L137.6 47.6" stroke="#32A1DF" stroke-width="0.5" stroke-miterlimit="10"/>
<path d="M137.6 42.4L132.4 47.6" stroke="#32A1DF" stroke-width="0.5" stroke-miterlimit="10"/>
<path d="M154.9 42.4L160.1 47.6" stroke="#32A1DF" stroke-width="0.5" stroke-miterlimit="10"/>
<path d="M160.1 42.4L154.9 47.6" stroke="#32A1DF" stroke-width="0.5" stroke-miterlimit="10"/>
<path d="M177.4 42.4L182.6 47.6" stroke="#32A1DF" stroke-width="0.5" stroke-miterlimit="10"/>
<path d="M182.6 42.4L177.4 47.6" stroke="#32A1DF" stroke-width="0.5" stroke-miterlimit="10"/>
<path d="M199.9 42.4L205.1 47.6" stroke="#32A1DF" stroke-width="0.5" stroke-miterlimit="10"/>
<path d="M205.1 42.4L199.9 47.6" stroke="#32A1DF" stroke-width="0.5" stroke-miterlimit="10"/>
<path d="M222.4 42.4L227.6 47.6" stroke="#32A1DF" stroke-width="0.5" stroke-miterlimit="10"/>
<path d="M227.6 42.4L222.4 47.6" stroke="#32A1DF" stroke-width="0.5" stroke-miterlimit="10"/>
<path d="M244.9 42.4L250.1 47.6" stroke="#32A1DF" stroke-width="0.5" stroke-miterlimit="10"/>
<path d="M250.1 42.4L244.9 47.6" stroke="#32A1DF" stroke-width="0.5" stroke-miterlimit="10"/>
<path d="M42.3999 19.9L47.5999 25.1" stroke="#32A1DF" stroke-width="0.5" stroke-miterlimit="10"/>
<path d="M47.5999 19.9L42.3999 25.1" stroke="#32A1DF" stroke-width="0.5" stroke-miterlimit="10"/>
<path d="M64.8999 19.9L70.0999 25.1" stroke="#32A1DF" stroke-width="0.5" stroke-miterlimit="10"/>
<path d="M70.0999 19.9L64.8999 25.1" stroke="#32A1DF" stroke-width="0.5" stroke-miterlimit="10"/>
<path d="M87.3999 19.9L92.5999 25.1" stroke="#32A1DF" stroke-width="0.5" stroke-miterlimit="10"/>
<path d="M92.5999 19.9L87.3999 25.1" stroke="#32A1DF" stroke-width="0.5" stroke-miterlimit="10"/>
<path d="M109.9 19.9L115.1 25.1" stroke="#32A1DF" stroke-width="0.5" stroke-miterlimit="10"/>
<path d="M115.1 19.9L109.9 25.1" stroke="#32A1DF" stroke-width="0.5" stroke-miterlimit="10"/>
<path d="M132.4 19.9L137.6 25.1" stroke="#32A1DF" stroke-width="0.5" stroke-miterlimit="10"/>
<path d="M137.6 19.9L132.4 25.1" stroke="#32A1DF" stroke-width="0.5" stroke-miterlimit="10"/>
<path d="M154.9 19.9L160.1 25.1" stroke="#32A1DF" stroke-width="0.5" stroke-miterlimit="10"/>
<path d="M160.1 19.9L154.9 25.1" stroke="#32A1DF" stroke-width="0.5" stroke-miterlimit="10"/>
<path d="M177.4 19.9L182.6 25.1" stroke="#32A1DF" stroke-width="0.5" stroke-miterlimit="10"/>
<path d="M182.6 19.9L177.4 25.1" stroke="#32A1DF" stroke-width="0.5" stroke-miterlimit="10"/>
<path d="M199.9 19.9L205.1 25.1" stroke="#32A1DF" stroke-width="0.5" stroke-miterlimit="10"/>
<path d="M205.1 19.9L199.9 25.1" stroke="#32A1DF" stroke-width="0.5" stroke-miterlimit="10"/>
<path d="M222.4 19.9L227.6 25.1" stroke="#32A1DF" stroke-width="0.5" stroke-miterlimit="10"/>
<path d="M227.6 19.9L222.4 25.1" stroke="#32A1DF" stroke-width="0.5" stroke-miterlimit="10"/>
<path d="M244.9 19.9L250.1 25.1" stroke="#32A1DF" stroke-width="0.5" stroke-miterlimit="10"/>
<path d="M250.1 19.9L244.9 25.1" stroke="#32A1DF" stroke-width="0.5" stroke-miterlimit="10"/>
</g>
<path d="M0.5 44.39L44.39 0.5H269.5V179.5H0.5V44.39Z" stroke="#32A1DF"/>
<path d="M142.1 88.82C139.92 85.95 137.93 84.89 137.28 84.59C136.72 83.21 133.26 74.78 129.99 68.22C128.61 65.44 126.97 62.66 125.14 59.91C125.13 59.89 125.12 59.87 125.1 59.85C124.02 58.24 122.88 56.64 121.67 55.07C121.67 55.07 121.67 55.06 121.66 55.05C119.76 52.59 117.7 50.18 115.51 47.86C109.95 41.99 103.79 38.06 100.1 35.7L99.62 35.39C95.96 33.05 88.94 29.95 82.94 28.02C77.25 26.19 68 25.87 59.09 30.45C50.9 34.66 45.24 39.91 38.91 49.18C34.09 56.24 32 64.21 32.53 73.54C32.71 76.74 33.26 79.75 34.14 82.99C34.14 83.01 34.14 83.03 34.16 83.05C34.7 85.03 35.36 87.1 36.13 89.35C36.13 89.37 36.14 89.38 36.15 89.4C36.76 91.16 37.43 93.03 38.17 95.07C41.02 102.86 43.99 107.43 46.87 111.86L47.67 113.1C51.4 118.88 54.32 123.68 55.49 125.95C56.83 128.55 59.24 136.59 59.27 136.69L59.33 136.86C60.7 140.64 63.14 144.39 66.22 147.43C71.74 152.89 79.18 155.86 85.69 155.86C88.67 155.86 91.46 155.24 93.78 153.95C93.78 153.95 93.79 153.95 93.8 153.95C93.85 153.93 94.13 153.81 94.56 153.6C94.61 153.59 94.67 153.57 94.77 153.54C95.07 153.56 95.99 153.63 97.28 153.63C100.26 153.63 105.2 153.29 109.02 151.32C114.84 148.33 116.01 143.79 116.18 143.01C116.89 142.03 117.47 140.94 117.93 139.77C118.51 139.89 119.61 140.08 121.1 140.08C123.41 140.08 126.64 139.63 130.18 137.81C132.19 136.78 133.75 135.68 135.01 134.51C135.01 134.51 135.02 134.51 135.03 134.51C135.08 134.47 137.92 132.13 140.93 128.11C141.21 127.9 147.69 122.75 149.22 114.3C150.7 106.13 148.59 100.88 146.55 97.22C145.28 93.49 143.52 90.66 142.12 88.82H142.1Z" fill="white"/>
<path d="M235.44 128.75C234.35 122.75 233.86 119.89 233.86 119.89L233.61 118.69C232.7 113.74 227.64 106.3 226.16 104.62C224.41 102.63 222.24 101.99 220.92 102.04C219.52 102.1 217.95 102.27 212.87 103.89C210.15 104.76 207.37 106.12 204.56 107.94C204.51 107.96 204.46 107.99 204.42 108.03C201.26 110.09 198.05 112.72 194.81 115.94C187.07 119.53 180.92 125.36 176.01 133.78C174.9 135.68 174.1 137.53 173.59 139.36C173.57 139.41 173.56 139.45 173.55 139.5C172.55 143.19 172.74 146.78 174.14 150.34C176.36 156 182.96 160.38 190.2 160.99C191.28 161.08 192.34 161.13 193.38 161.13C199.2 161.13 204.25 159.7 208.12 156.93C212.32 153.92 215.42 150.69 215.97 150.1C216.81 149.79 221.62 147.91 227.25 143.08C233.35 137.84 235.63 130.85 235.72 130.56C235.75 130.48 235.75 130.4 235.73 130.31L235.44 128.78V128.75Z" fill="white"/>
<path d="M192.18 95.75C192.29 95.75 192.4 95.75 192.51 95.74C193.64 95.66 194.67 95.13 195.41 94.27L196.75 92.71C197.48 93.24 198.32 93.61 199.21 93.76L208.72 95.57C208.72 95.57 208.74 95.57 208.75 95.57C209.37 95.72 210.01 95.8 210.65 95.8C212.89 95.8 215.12 94.86 216.69 93.03L216.73 92.98C216.81 92.95 216.88 92.91 216.93 92.85L228.5 79.4C228.56 79.34 228.59 79.26 228.6 79.18L228.64 79.13C230.65 76.79 231.06 73.61 229.97 70.93V70.91L226.75 61.75C226.46 60.88 225.97 60.11 225.34 59.46L226.68 57.9C228.21 56.12 228.01 53.43 226.23 51.9L189.86 20.61C189 19.87 187.91 19.51 186.77 19.59C185.64 19.67 184.61 20.2 183.87 21.06L152.58 57.43C151.05 59.21 151.25 61.9 153.03 63.43L189.4 94.72C190.18 95.39 191.15 95.75 192.17 95.75H192.18Z" fill="white"/>
<path d="M92.326 149.195C96.0612 143.902 92.556 135.001 84.4968 129.314C76.4376 123.627 66.8764 123.307 63.1412 128.6C59.4059 133.893 62.9112 142.794 70.9703 148.482C79.0295 154.169 88.5908 154.488 92.326 149.195Z" stroke="#32A1DF" stroke-linecap="round" stroke-linejoin="round"/>
<path d="M93.23 153.42C93.23 153.42 98.69 151.27 100.42 145.81C102.15 140.35 100.75 136.19 98.3 132.46C95.85 128.73 92.58 124.53 87.59 121.59C82.6 118.65 78.49 117.4 75.75 116.16C73.01 114.92 68.47 111.74 65.28 108.29C62.09 104.83 57.9 99.09 55.18 93.45C52.46 87.81 49.92 80.69 49.01 77.15C48.1 73.61 46.2 65.37 46.78 59.92C47.36 54.47 48.34 48.81 54.44 44.97C60.54 41.13 67.18 41.1 74.77 42.97C82.36 44.84 88.51 47.75 93.75 51.3C98.99 54.85 104.09 59.15 107.14 62.86C110.19 66.56 111.88 68.35 114.21 72.37C116.54 76.39 118.19 79.71 118.19 79.71" stroke="#32A1DF" stroke-linecap="round" stroke-linejoin="round"/>
<path d="M59.5298 100.9C59.5298 100.9 60.6498 99.5 63.6498 97.96C66.6498 96.42 70.9898 94.78 76.4898 95.09C81.9898 95.4 84.8298 96.22 89.0898 97.82C93.3498 99.42 96.4498 101.05 100.06 103.64C103.67 106.23 108.37 109.98 111.71 113.88C115.05 117.78 117.97 123.5 118.43 127.61C118.89 131.72 118.54 138.44 115.33 142.74C115.33 142.74 118.15 132.93 106.49 120.21C93.2798 105.79 74.9598 98.58 61.3298 103.42" stroke="#32A1DF" stroke-linecap="round" stroke-linejoin="round"/>
<path d="M119.99 89.73C115.28 87.82 110.42 94.28 109.13 104.14C108.83 106.44 108.75 108.73 108.86 110.9C109.87 111.88 110.83 112.88 111.7 113.9C114.53 117.21 117.06 121.83 118.05 125.66C121.77 124.72 125.13 118.99 126.17 111.05C127.46 101.18 124.7 91.64 119.99 89.74V89.73Z" stroke="#32A1DF" stroke-linecap="round" stroke-linejoin="round"/>
<path d="M123.45 80.28C115.14 76.79 105.57 86.15 102.06 101.2C101.79 102.34 101.57 103.48 101.39 104.62C104.76 107.14 108.76 110.45 111.7 113.89C115.04 117.79 117.96 123.51 118.42 127.62C118.64 129.56 118.67 132.08 118.31 134.66C124.21 132.18 129.67 124.42 132.13 113.85C135.64 98.8 131.75 83.77 123.44 80.28H123.45Z" stroke="#32A1DF" stroke-linecap="round" stroke-linejoin="round"/>
<path d="M122.68 91.88C119.16 93.18 116.05 98.75 115.05 106.34C114.37 111.52 114.81 116.61 116.07 120.55C116.65 121.71 117.15 122.88 117.54 124.01C117.85 124.56 118.18 125.06 118.53 125.5C122.05 124.2 125.16 118.63 126.16 111.04C127.18 103.26 125.67 95.67 122.68 91.88Z" stroke="#32A1DF" stroke-linecap="round" stroke-linejoin="round"/>
<path d="M93.9899 153.07C93.9899 153.07 98.4899 151.97 101.23 148.76C103.97 145.55 106.19 139.73 103.64 132.7C101.09 125.67 94.4499 119.73 90.1599 117.42C85.8699 115.11 79.2399 111.65 70.1299 112.63" stroke="#32A1DF" stroke-linecap="round" stroke-linejoin="round"/>
<path d="M94.3296 152.97C94.3296 152.97 102.73 153.73 108.4 150.81C114.5 147.67 115.31 142.75 115.31 142.75" stroke="#32A1DF" stroke-linecap="round" stroke-linejoin="round"/>
<path d="M117.23 139.13C117.23 139.13 122.84 140.77 129.56 137.31C135.76 134.12 137.54 130.42 139.5 125.62C141.45 120.82 143.28 115.77 143.58 109.73C143.89 103.68 143.31 98.13 140.98 92.68C138.65 87.23 136.12 84.3 135.27 83.56C132.06 81.52 126.92 79.06 121.13 79.66" stroke="#32A1DF" stroke-linecap="round" stroke-linejoin="round"/>
<path d="M134.33 134.06C134.33 134.06 144.42 125.89 146.72 113.4C149.02 100.91 143.89 92.41 141.34 89.06C138.79 85.71 136.53 84.91 136.53 84.91C136.53 84.91 132.76 75.58 129.18 68.38C125.6 61.18 120.52 54.21 114.77 48.14C109.02 42.06 102.72 38.15 98.9798 35.75C95.2398 33.35 88.0798 30.25 82.4198 28.44C76.7598 26.63 67.5898 26.4 58.9498 30.84C50.3098 35.28 44.8298 40.81 38.9598 49.4C33.0898 57.99 32.2798 66.58 32.6698 73.45C33.0598 80.32 35.1898 86.37 38.2798 94.84C41.3698 103.3 44.6398 107.99 47.7298 112.76C50.8198 117.53 54.1998 122.98 55.5798 125.66C56.9598 128.34 59.3898 136.46 59.3898 136.46L59.4498 136.63C60.7898 140.32 63.1598 143.99 66.2198 147.02C75.0398 155.75 88.6298 157.87 95.2898 151.97C103.23 144.95 100.66 134.86 91.4198 126.56C88.4898 123.93 85.1398 121.92 81.7198 120.59C81.7198 120.59 77.4898 118.99 74.3198 117.32C71.1498 115.65 67.6698 114.02 63.1498 108.8C58.6198 103.59 56.0998 100.13 52.5198 93.17C48.9398 86.21 45.8998 76.93 45.0898 70.99C44.2698 65.05 43.4298 56.84 45.0598 49.99C46.4098 44.31 49.5798 37.84 55.7298 32.63" stroke="#32A1DF" stroke-linecap="round" stroke-linejoin="round"/>
<path d="M140.23 127.65C140.23 127.65 146.82 122.5 148.34 114.14C149.86 105.78 147.49 100.54 145.68 97.31" stroke="#32A1DF" stroke-linecap="round" stroke-linejoin="round"/>
<path d="M47.8896 53.73C47.8896 53.73 51.5296 41.9 62.2496 36.39C72.9696 30.88 83.2896 34.12 89.7696 37.56C96.2496 41 101.09 44.35 108.7 52.04C116.31 59.74 124.02 70.42 127.3 80.07" stroke="#32A1DF" stroke-linecap="round" stroke-linejoin="round"/>
<path d="M36.23 89.17L47.13 79.8L49.75 79.66" stroke="#32A1DF" stroke-linecap="round" stroke-linejoin="round"/>
<path d="M48.0897 73.2L45.3197 72.62L34.2397 82.81" stroke="#32A1DF" stroke-linecap="round" stroke-linejoin="round"/>
<path d="M109.04 65.12L115.75 60.05L120.92 55.33" stroke="#32A1DF" stroke-linecap="round" stroke-linejoin="round"/>
<path d="M112.66 69.84L119.27 64.8L124.37 60.13" stroke="#32A1DF" stroke-linecap="round" stroke-linejoin="round"/>
<path d="M200.649 138.75C202.939 140.2 209.789 144.98 214.929 147.2" stroke="#32A1DF" stroke-linecap="round" stroke-linejoin="round"/>
<path d="M216.679 148.6C216.679 148.6 208.109 152.66 202.899 153.46" stroke="#32A1DF" stroke-linecap="round" stroke-linejoin="round"/>
<path d="M196.09 115.29C196.09 115.29 190.09 121.91 184.53 129.19C178.97 136.47 176.88 138.07 175.04 138.48" stroke="#32A1DF" stroke-linecap="round" stroke-linejoin="round"/>
<path d="M226.77 103.89C226.77 103.89 216.989 104.38 204.389 112.89C196.259 118.38 189.479 128.47 189.479 128.47C189.479 128.47 190.829 130.65 193.809 133.37C195.899 135.28 198.999 137.56 200.649 138.75C201.329 139.24 202.249 139.25 202.939 138.78L234.1 117.72" stroke="#32A1DF" stroke-linecap="round" stroke-linejoin="round"/>
<path d="M189.48 128.47C189.48 128.47 183.62 136.47 180.88 142.11C180.38 143.14 180.52 144.38 181.23 145.28C183.78 148.51 186.75 151.2 190.36 152.48C194.74 154.03 196.33 153.45 203.92 151.05C203.92 151.05 215.61 148.04 223.88 142.45C232.16 136.86 235.93 127.82 235.93 127.82L236.22 129.35C236.22 129.35 233.96 136.44 227.9 141.65C221.84 146.86 216.66 148.62 216.66 148.62C216.66 148.62 213.43 152.16 208.8 155.47C204.17 158.78 197.96 160.01 191.21 159.44C184.46 158.87 177.8 154.78 175.58 149.11C173.36 143.44 174.38 138.18 177.41 132.98C180.44 127.78 185.98 119.96 196.07 115.31C202.79 108.61 208.8 104.98 213.99 103.32C219.18 101.66 220.64 101.55 221.9 101.5C223.16 101.45 225.14 102.09 226.74 103.91C228.34 105.73 233.22 113.08 234.08 117.74" stroke="#32A1DF" stroke-linecap="round" stroke-linejoin="round"/>
<path d="M217.14 102.36C217.14 102.36 219.54 102.6 221.79 104.79" stroke="#32A1DF" stroke-linecap="round" stroke-linejoin="round"/>
<path d="M211.669 104.16L214.089 107.49" stroke="#32A1DF" stroke-linecap="round" stroke-linejoin="round"/>
<path d="M205.729 107.33C205.729 107.33 205.879 109.16 206.539 111.5" stroke="#32A1DF" stroke-linecap="round" stroke-linejoin="round"/>
<path d="M196.54 119.76L207.36 126.41C208.02 126.82 208.86 126.81 209.52 126.38L231.79 111.69" stroke="#32A1DF" stroke-linecap="round" stroke-linejoin="round"/>
<path d="M229.192 118.926L227.619 116.597C227.31 116.14 226.688 116.019 226.23 116.328L217.828 122.004C217.37 122.314 217.25 122.935 217.559 123.393L219.132 125.721C219.441 126.179 220.063 126.299 220.52 125.99L228.923 120.314C229.381 120.005 229.501 119.383 229.192 118.926Z" stroke="#32A1DF" stroke-linecap="round" stroke-linejoin="round"/>
<path d="M189.27 65.43C193.589 65.43 197.09 61.9289 197.09 57.61C197.09 53.2911 193.589 49.79 189.27 49.79C184.951 49.79 181.45 53.2911 181.45 57.61C181.45 61.9289 184.951 65.43 189.27 65.43Z" stroke="#32A1DF" stroke-linecap="round" stroke-linejoin="round"/>
<path d="M189.27 83.38C203.502 83.38 215.04 71.8424 215.04 57.61C215.04 43.3776 203.502 31.84 189.27 31.84C175.037 31.84 163.5 43.3776 163.5 57.61C163.5 71.8424 175.037 83.38 189.27 83.38Z" stroke="#32A1DF" stroke-linecap="round" stroke-linejoin="round"/>
<path d="M186.59 49.39C186.59 49.39 183.64 41.14 182.58 36.23C182.55 36.07 182.39 35.97 182.23 36C178.85 36.66 172.9 39.15 169.01 45.6C168.93 45.73 168.97 45.91 169.09 46C170.31 46.86 176.28 51.03 182.27 54.11C183.54 51.27 186.58 49.38 186.58 49.38L186.59 49.39Z" stroke="#32A1DF" stroke-linecap="round" stroke-linejoin="round"/>
<path d="M194.07 50.41C194.07 50.41 198.72 42.99 201.93 39.12C202.03 38.99 202.02 38.81 201.9 38.7C199.29 36.45 193.66 33.32 186.18 34.25C186.02 34.27 185.91 34.41 185.92 34.56C186 36.05 186.42 43.32 187.7 49.94C190.71 49.18 194.08 50.4 194.08 50.4L194.07 50.41Z" stroke="#32A1DF" stroke-linecap="round" stroke-linejoin="round"/>
<path d="M205.29 40.72C204.16 41.7 198.71 46.53 194.31 51.63C196.77 53.53 197.89 56.93 197.89 56.93C197.89 56.93 206.6 55.99 211.62 56.12C211.78 56.12 211.92 56 211.93 55.83C212.08 52.39 211.06 46.03 205.7 40.73C205.59 40.62 205.41 40.62 205.29 40.72Z" stroke="#32A1DF" stroke-linecap="round" stroke-linejoin="round"/>
<path d="M197.08 57.86C197.11 60.97 195.13 63.96 195.13 63.96C195.13 63.96 201.25 70.22 204.26 74.25C204.36 74.38 204.54 74.41 204.67 74.31C207.47 72.3 211.84 67.56 212.68 60.07C212.7 59.91 212.59 59.77 212.44 59.74C210.97 59.46 203.81 58.17 197.07 57.86H197.08Z" stroke="#32A1DF" stroke-linecap="round" stroke-linejoin="round"/>
<path d="M187.91 66.14C187.91 66.14 186.78 74.82 185.47 79.68C185.43 79.84 185.52 80 185.68 80.05C188.99 81.01 195.41 81.51 201.83 77.54C201.96 77.46 202.01 77.29 201.94 77.15C201.25 75.83 197.84 69.39 193.91 63.91C191.49 65.85 187.92 66.15 187.92 66.15L187.91 66.14Z" stroke="#32A1DF" stroke-linecap="round" stroke-linejoin="round"/>
<path d="M181.72 61.81C181.72 61.81 174.19 66.29 169.58 68.27C169.43 68.33 169.36 68.51 169.42 68.66C170.72 71.85 174.3 77.21 181.38 79.79C181.53 79.84 181.69 79.77 181.76 79.63C182.37 78.27 185.32 71.61 187.19 65.14C184.16 64.44 181.72 61.82 181.72 61.82V61.81Z" stroke="#32A1DF" stroke-linecap="round" stroke-linejoin="round"/>
<path d="M167.31 65.32C168.76 64.96 175.81 63.15 182.06 60.62C180.74 57.81 181.29 54.27 181.29 54.27C181.29 54.27 173.11 51.13 168.7 48.72C168.56 48.64 168.38 48.69 168.3 48.83C166.59 51.82 164.6 57.95 166.95 65.11C167 65.26 167.15 65.34 167.31 65.31V65.32Z" stroke="#32A1DF" stroke-linecap="round" stroke-linejoin="round"/>
<path d="M194.24 50.15C194.13 50.32 194.08 50.41 194.08 50.41C194.08 50.41 190.71 49.19 187.7 49.95C187.63 49.58 187.56 49.21 187.49 48.83C187.15 48.9 186.82 48.99 186.49 49.09C186.56 49.28 186.59 49.38 186.59 49.38C186.59 49.38 183.55 51.27 182.28 54.11C181.94 53.94 181.61 53.76 181.27 53.58C181.17 53.77 181.09 53.96 181 54.16C181.19 54.23 181.29 54.27 181.29 54.27C181.29 54.27 180.74 57.81 182.06 60.62C181.71 60.76 181.36 60.9 181 61.04C181.13 61.36 181.28 61.67 181.45 61.97C181.62 61.87 181.72 61.81 181.72 61.81C181.72 61.81 184.16 64.43 187.19 65.13C187.08 65.49 186.98 65.86 186.86 66.22C187.19 66.31 187.53 66.39 187.87 66.44C187.9 66.24 187.91 66.13 187.91 66.13C187.91 66.13 191.48 65.83 193.9 63.89C194.12 64.2 194.34 64.51 194.56 64.82C194.83 64.62 195.1 64.4 195.35 64.16C195.21 64.02 195.13 63.94 195.13 63.94C195.13 63.94 197.11 60.95 197.08 57.84C197.46 57.86 197.84 57.88 198.22 57.9C198.23 57.56 198.22 57.21 198.2 56.87C198 56.89 197.89 56.9 197.89 56.9C197.89 56.9 196.76 53.5 194.31 51.6C194.56 51.31 194.81 51.03 195.06 50.74C194.79 50.52 194.52 50.31 194.24 50.12V50.15Z" stroke="#32A1DF" stroke-linecap="round" stroke-linejoin="round"/>
<path d="M183.896 21.3467L152.609 57.7089C151.258 59.2788 151.436 61.6465 153.006 62.9974L189.368 94.2849C190.938 95.6357 193.306 95.4581 194.656 93.8882L225.944 57.5259C227.295 55.956 227.117 53.5883 225.547 52.2375L189.185 20.95C187.615 19.5991 185.247 19.7768 183.896 21.3467Z" stroke="#32A1DF" stroke-linecap="round" stroke-linejoin="round"/>
<path d="M155.29 61.34C155.942 61.34 156.47 60.8117 156.47 60.16C156.47 59.5083 155.942 58.98 155.29 58.98C154.638 58.98 154.11 59.5083 154.11 60.16C154.11 60.8117 154.638 61.34 155.29 61.34Z" stroke="#32A1DF" stroke-linecap="round" stroke-linejoin="round"/>
<path d="M186.72 24.8C187.371 24.8 187.9 24.2717 187.9 23.62C187.9 22.9683 187.371 22.44 186.72 22.44C186.068 22.44 185.54 22.9683 185.54 23.62C185.54 24.2717 186.068 24.8 186.72 24.8Z" stroke="#32A1DF" stroke-linecap="round" stroke-linejoin="round"/>
<path d="M223.26 56.23C223.911 56.23 224.44 55.7017 224.44 55.05C224.44 54.3983 223.911 53.87 223.26 53.87C222.608 53.87 222.08 54.3983 222.08 55.05C222.08 55.7017 222.608 56.23 223.26 56.23Z" stroke="#32A1DF" stroke-linecap="round" stroke-linejoin="round"/>
<path d="M191.82 92.77C192.471 92.77 193 92.2417 193 91.59C193 90.9383 192.471 90.41 191.82 90.41C191.168 90.41 190.64 90.9383 190.64 91.59C190.64 92.2417 191.168 92.77 191.82 92.77Z" stroke="#32A1DF" stroke-linecap="round" stroke-linejoin="round"/>
<path d="M225.023 76.6691L213.453 90.1164L216.197 92.4775L227.767 79.0302L225.023 76.6691Z" stroke="#32A1DF" stroke-linecap="round" stroke-linejoin="round"/>
<path d="M212.31 88.14L213.45 90.1L225.01 76.65L222.9 75.83L212.31 88.14Z" stroke="#32A1DF" stroke-linecap="round" stroke-linejoin="round"/>
<path d="M222.39 61.64C222.74 61.94 223 62.33 223.14 62.77L224.16 65.68L227.11 68.22C228.02 69.01 228.7 69.97 229.13 71.01L225.91 61.84C225.6 60.9 225.04 60.07 224.29 59.42L222.38 61.64H222.39Z" stroke="#32A1DF" stroke-linecap="round" stroke-linejoin="round"/>
<path d="M227.9 78.74L227.7 78.97L225.48 77.06L225.68 76.83C227.31 74.93 227.1 72.06 225.2 70.43L219.24 65.3L221.15 63.08L227.11 68.21C230.23 70.89 230.58 75.62 227.9 78.74Z" stroke="#32A1DF" stroke-linecap="round" stroke-linejoin="round"/>
<path d="M205.42 93.44L202.47 90.9L199.48 90.33H199.45C199 90.25 198.57 90.05 198.22 89.75L196.31 91.97C197.06 92.61 197.97 93.04 198.94 93.21L208.45 95.02C207.36 94.75 206.32 94.22 205.42 93.44Z" stroke="#32A1DF" stroke-linecap="round" stroke-linejoin="round"/>
<path d="M216.14 92.42L215.94 92.65C213.26 95.77 208.53 96.12 205.41 93.44L199.45 88.31L201.36 86.09L207.32 91.22C209.22 92.85 212.09 92.64 213.72 90.74L213.92 90.51L216.14 92.42Z" stroke="#32A1DF" stroke-linecap="round" stroke-linejoin="round"/>
<path d="M141.73 88.75C139.55 85.88 137.56 84.82 136.91 84.52C136.35 83.14 132.89 74.71 129.62 68.15C128.24 65.37 126.6 62.59 124.77 59.84C124.76 59.82 124.75 59.8 124.73 59.78C123.65 58.17 122.51 56.57 121.3 55C121.3 55 121.3 54.99 121.29 54.98C119.39 52.52 117.33 50.11 115.14 47.79C109.58 41.92 103.42 37.99 99.7299 35.63L99.2499 35.32C95.5899 32.98 88.5699 29.88 82.5699 27.95C76.8799 26.12 67.6299 25.8 58.7199 30.38C50.5299 34.59 44.8699 39.84 38.5399 49.11C33.7199 56.17 31.6299 64.14 32.1599 73.47C32.3399 76.67 32.8899 79.68 33.7699 82.92C33.7699 82.94 33.7699 82.96 33.7899 82.98C34.3299 84.96 34.9899 87.03 35.7599 89.28C35.7599 89.3 35.7699 89.31 35.7799 89.33C36.3899 91.09 37.0599 92.96 37.7999 95C40.6499 102.79 43.6199 107.36 46.4999 111.79L47.2999 113.03C51.0299 118.81 53.9499 123.61 55.1199 125.88C56.4599 128.48 58.8699 136.52 58.8999 136.62L58.9599 136.79C60.3299 140.57 62.7699 144.32 65.8499 147.36C71.3699 152.82 78.8099 155.79 85.3199 155.79C88.2999 155.79 91.0899 155.17 93.4099 153.88C93.4099 153.88 93.4199 153.88 93.4299 153.88C93.4799 153.86 93.7599 153.74 94.1899 153.53C94.2399 153.52 94.2999 153.5 94.3999 153.47C94.6999 153.49 95.6199 153.56 96.9099 153.56C99.8899 153.56 104.83 153.22 108.65 151.25C114.47 148.26 115.64 143.72 115.81 142.94C116.52 141.96 117.1 140.87 117.56 139.7C118.14 139.82 119.24 140.01 120.73 140.01C123.04 140.01 126.27 139.56 129.81 137.74C131.82 136.71 133.38 135.61 134.64 134.44C134.64 134.44 134.65 134.44 134.66 134.44C134.71 134.4 137.55 132.06 140.56 128.04C140.84 127.83 147.32 122.68 148.85 114.23C150.33 106.06 148.22 100.81 146.18 97.15C144.91 93.42 143.15 90.59 141.75 88.75H141.73Z" stroke="#32A1DF" stroke-width="1.5" stroke-miterlimit="10"/>
<path d="M236.43 127.71C235.34 121.71 234.85 118.85 234.85 118.85L234.6 117.65C233.69 112.7 228.63 105.26 227.15 103.58C225.4 101.59 223.23 100.95 221.91 101C220.51 101.06 218.94 101.23 213.86 102.85C211.14 103.72 208.36 105.08 205.55 106.9C205.5 106.92 205.45 106.95 205.41 106.99C202.25 109.05 199.04 111.68 195.8 114.9C188.06 118.49 181.91 124.32 177 132.74C175.89 134.64 175.09 136.49 174.58 138.32C174.56 138.37 174.55 138.41 174.54 138.46C173.54 142.15 173.73 145.74 175.13 149.3C177.35 154.96 183.95 159.34 191.19 159.95C192.27 160.04 193.33 160.09 194.37 160.09C200.19 160.09 205.24 158.66 209.11 155.89C213.31 152.88 216.41 149.65 216.96 149.06C217.8 148.75 222.61 146.87 228.24 142.04C234.34 136.8 236.62 129.81 236.71 129.52C236.74 129.44 236.74 129.36 236.72 129.27L236.43 127.74V127.71Z" stroke="#32A1DF" stroke-width="1.5" stroke-miterlimit="10"/>
<path d="M191.8 95.68C191.91 95.68 192.02 95.68 192.13 95.67C193.26 95.59 194.29 95.06 195.03 94.2L196.37 92.64C197.1 93.17 197.94 93.54 198.83 93.69L208.34 95.5C208.34 95.5 208.36 95.5 208.37 95.5C208.99 95.65 209.63 95.73 210.27 95.73C212.51 95.73 214.74 94.79 216.31 92.96L216.35 92.91C216.43 92.88 216.5 92.84 216.55 92.78L228.12 79.33C228.18 79.27 228.21 79.19 228.22 79.11L228.26 79.06C230.27 76.72 230.68 73.54 229.59 70.86V70.84L226.37 61.68C226.08 60.81 225.59 60.04 224.96 59.39L226.3 57.83C227.83 56.05 227.63 53.36 225.85 51.83L189.48 20.54C188.62 19.8 187.53 19.44 186.39 19.52C185.26 19.6 184.23 20.13 183.49 20.99L152.2 57.36C150.67 59.14 150.87 61.83 152.65 63.36L189.02 94.65C189.8 95.32 190.77 95.68 191.79 95.68H191.8Z" stroke="#32A1DF" stroke-width="1.5" stroke-miterlimit="10"/>
</g>
<defs>
<clipPath id="clip0_675_12552">
<rect width="270" height="180" fill="white"/>
</clipPath>
</defs>
</svg>
