<svg width="270" height="180" viewBox="0 0 270 180" fill="none" xmlns="http://www.w3.org/2000/svg">
<g clip-path="url(#clip0_675_12857)">
<g opacity="0.5">
<path d="M19.8999 154.9L25.0999 160.1" stroke="#32A1DF" stroke-width="0.5" stroke-miterlimit="10"/>
<path d="M25.0999 154.9L19.8999 160.1" stroke="#32A1DF" stroke-width="0.5" stroke-miterlimit="10"/>
<path d="M42.3999 154.9L47.5999 160.1" stroke="#32A1DF" stroke-width="0.5" stroke-miterlimit="10"/>
<path d="M47.5999 154.9L42.3999 160.1" stroke="#32A1DF" stroke-width="0.5" stroke-miterlimit="10"/>
<path d="M64.8999 154.9L70.0999 160.1" stroke="#32A1DF" stroke-width="0.5" stroke-miterlimit="10"/>
<path d="M70.0999 154.9L64.8999 160.1" stroke="#32A1DF" stroke-width="0.5" stroke-miterlimit="10"/>
<path d="M87.3999 154.9L92.5999 160.1" stroke="#32A1DF" stroke-width="0.5" stroke-miterlimit="10"/>
<path d="M92.5999 154.9L87.3999 160.1" stroke="#32A1DF" stroke-width="0.5" stroke-miterlimit="10"/>
<path d="M109.9 154.9L115.1 160.1" stroke="#32A1DF" stroke-width="0.5" stroke-miterlimit="10"/>
<path d="M115.1 154.9L109.9 160.1" stroke="#32A1DF" stroke-width="0.5" stroke-miterlimit="10"/>
<path d="M132.4 154.9L137.6 160.1" stroke="#32A1DF" stroke-width="0.5" stroke-miterlimit="10"/>
<path d="M137.6 154.9L132.4 160.1" stroke="#32A1DF" stroke-width="0.5" stroke-miterlimit="10"/>
<path d="M154.9 154.9L160.1 160.1" stroke="#32A1DF" stroke-width="0.5" stroke-miterlimit="10"/>
<path d="M160.1 154.9L154.9 160.1" stroke="#32A1DF" stroke-width="0.5" stroke-miterlimit="10"/>
<path d="M177.4 154.9L182.6 160.1" stroke="#32A1DF" stroke-width="0.5" stroke-miterlimit="10"/>
<path d="M182.6 154.9L177.4 160.1" stroke="#32A1DF" stroke-width="0.5" stroke-miterlimit="10"/>
<path d="M199.9 154.9L205.1 160.1" stroke="#32A1DF" stroke-width="0.5" stroke-miterlimit="10"/>
<path d="M205.1 154.9L199.9 160.1" stroke="#32A1DF" stroke-width="0.5" stroke-miterlimit="10"/>
<path d="M222.4 154.9L227.6 160.1" stroke="#32A1DF" stroke-width="0.5" stroke-miterlimit="10"/>
<path d="M227.6 154.9L222.4 160.1" stroke="#32A1DF" stroke-width="0.5" stroke-miterlimit="10"/>
<path d="M244.9 154.9L250.1 160.1" stroke="#32A1DF" stroke-width="0.5" stroke-miterlimit="10"/>
<path d="M250.1 154.9L244.9 160.1" stroke="#32A1DF" stroke-width="0.5" stroke-miterlimit="10"/>
<path d="M19.8999 132.4L25.0999 137.6" stroke="#32A1DF" stroke-width="0.5" stroke-miterlimit="10"/>
<path d="M25.0999 132.4L19.8999 137.6" stroke="#32A1DF" stroke-width="0.5" stroke-miterlimit="10"/>
<path d="M42.3999 132.4L47.5999 137.6" stroke="#32A1DF" stroke-width="0.5" stroke-miterlimit="10"/>
<path d="M47.5999 132.4L42.3999 137.6" stroke="#32A1DF" stroke-width="0.5" stroke-miterlimit="10"/>
<path d="M64.8999 132.4L70.0999 137.6" stroke="#32A1DF" stroke-width="0.5" stroke-miterlimit="10"/>
<path d="M70.0999 132.4L64.8999 137.6" stroke="#32A1DF" stroke-width="0.5" stroke-miterlimit="10"/>
<path d="M87.3999 132.4L92.5999 137.6" stroke="#32A1DF" stroke-width="0.5" stroke-miterlimit="10"/>
<path d="M92.5999 132.4L87.3999 137.6" stroke="#32A1DF" stroke-width="0.5" stroke-miterlimit="10"/>
<path d="M109.9 132.4L115.1 137.6" stroke="#32A1DF" stroke-width="0.5" stroke-miterlimit="10"/>
<path d="M115.1 132.4L109.9 137.6" stroke="#32A1DF" stroke-width="0.5" stroke-miterlimit="10"/>
<path d="M132.4 132.4L137.6 137.6" stroke="#32A1DF" stroke-width="0.5" stroke-miterlimit="10"/>
<path d="M137.6 132.4L132.4 137.6" stroke="#32A1DF" stroke-width="0.5" stroke-miterlimit="10"/>
<path d="M154.9 132.4L160.1 137.6" stroke="#32A1DF" stroke-width="0.5" stroke-miterlimit="10"/>
<path d="M160.1 132.4L154.9 137.6" stroke="#32A1DF" stroke-width="0.5" stroke-miterlimit="10"/>
<path d="M177.4 132.4L182.6 137.6" stroke="#32A1DF" stroke-width="0.5" stroke-miterlimit="10"/>
<path d="M182.6 132.4L177.4 137.6" stroke="#32A1DF" stroke-width="0.5" stroke-miterlimit="10"/>
<path d="M199.9 132.4L205.1 137.6" stroke="#32A1DF" stroke-width="0.5" stroke-miterlimit="10"/>
<path d="M205.1 132.4L199.9 137.6" stroke="#32A1DF" stroke-width="0.5" stroke-miterlimit="10"/>
<path d="M222.4 132.4L227.6 137.6" stroke="#32A1DF" stroke-width="0.5" stroke-miterlimit="10"/>
<path d="M227.6 132.4L222.4 137.6" stroke="#32A1DF" stroke-width="0.5" stroke-miterlimit="10"/>
<path d="M244.9 132.4L250.1 137.6" stroke="#32A1DF" stroke-width="0.5" stroke-miterlimit="10"/>
<path d="M250.1 132.4L244.9 137.6" stroke="#32A1DF" stroke-width="0.5" stroke-miterlimit="10"/>
<path d="M19.8999 109.9L25.0999 115.1" stroke="#32A1DF" stroke-width="0.5" stroke-miterlimit="10"/>
<path d="M25.0999 109.9L19.8999 115.1" stroke="#32A1DF" stroke-width="0.5" stroke-miterlimit="10"/>
<path d="M42.3999 109.9L47.5999 115.1" stroke="#32A1DF" stroke-width="0.5" stroke-miterlimit="10"/>
<path d="M47.5999 109.9L42.3999 115.1" stroke="#32A1DF" stroke-width="0.5" stroke-miterlimit="10"/>
<path d="M64.8999 109.9L70.0999 115.1" stroke="#32A1DF" stroke-width="0.5" stroke-miterlimit="10"/>
<path d="M70.0999 109.9L64.8999 115.1" stroke="#32A1DF" stroke-width="0.5" stroke-miterlimit="10"/>
<path d="M87.3999 109.9L92.5999 115.1" stroke="#32A1DF" stroke-width="0.5" stroke-miterlimit="10"/>
<path d="M92.5999 109.9L87.3999 115.1" stroke="#32A1DF" stroke-width="0.5" stroke-miterlimit="10"/>
<path d="M109.9 109.9L115.1 115.1" stroke="#32A1DF" stroke-width="0.5" stroke-miterlimit="10"/>
<path d="M115.1 109.9L109.9 115.1" stroke="#32A1DF" stroke-width="0.5" stroke-miterlimit="10"/>
<path d="M132.4 109.9L137.6 115.1" stroke="#32A1DF" stroke-width="0.5" stroke-miterlimit="10"/>
<path d="M137.6 109.9L132.4 115.1" stroke="#32A1DF" stroke-width="0.5" stroke-miterlimit="10"/>
<path d="M154.9 109.9L160.1 115.1" stroke="#32A1DF" stroke-width="0.5" stroke-miterlimit="10"/>
<path d="M160.1 109.9L154.9 115.1" stroke="#32A1DF" stroke-width="0.5" stroke-miterlimit="10"/>
<path d="M177.4 109.9L182.6 115.1" stroke="#32A1DF" stroke-width="0.5" stroke-miterlimit="10"/>
<path d="M182.6 109.9L177.4 115.1" stroke="#32A1DF" stroke-width="0.5" stroke-miterlimit="10"/>
<path d="M199.9 109.9L205.1 115.1" stroke="#32A1DF" stroke-width="0.5" stroke-miterlimit="10"/>
<path d="M205.1 109.9L199.9 115.1" stroke="#32A1DF" stroke-width="0.5" stroke-miterlimit="10"/>
<path d="M222.4 109.9L227.6 115.1" stroke="#32A1DF" stroke-width="0.5" stroke-miterlimit="10"/>
<path d="M227.6 109.9L222.4 115.1" stroke="#32A1DF" stroke-width="0.5" stroke-miterlimit="10"/>
<path d="M244.9 109.9L250.1 115.1" stroke="#32A1DF" stroke-width="0.5" stroke-miterlimit="10"/>
<path d="M250.1 109.9L244.9 115.1" stroke="#32A1DF" stroke-width="0.5" stroke-miterlimit="10"/>
<path d="M19.8999 87.4L25.0999 92.6" stroke="#32A1DF" stroke-width="0.5" stroke-miterlimit="10"/>
<path d="M25.0999 87.4L19.8999 92.6" stroke="#32A1DF" stroke-width="0.5" stroke-miterlimit="10"/>
<path d="M42.3999 87.4L47.5999 92.6" stroke="#32A1DF" stroke-width="0.5" stroke-miterlimit="10"/>
<path d="M47.5999 87.4L42.3999 92.6" stroke="#32A1DF" stroke-width="0.5" stroke-miterlimit="10"/>
<path d="M64.8999 87.4L70.0999 92.6" stroke="#32A1DF" stroke-width="0.5" stroke-miterlimit="10"/>
<path d="M70.0999 87.4L64.8999 92.6" stroke="#32A1DF" stroke-width="0.5" stroke-miterlimit="10"/>
<path d="M87.3999 87.4L92.5999 92.6" stroke="#32A1DF" stroke-width="0.5" stroke-miterlimit="10"/>
<path d="M92.5999 87.4L87.3999 92.6" stroke="#32A1DF" stroke-width="0.5" stroke-miterlimit="10"/>
<path d="M109.9 87.4L115.1 92.6" stroke="#32A1DF" stroke-width="0.5" stroke-miterlimit="10"/>
<path d="M115.1 87.4L109.9 92.6" stroke="#32A1DF" stroke-width="0.5" stroke-miterlimit="10"/>
<path d="M132.4 87.4L137.6 92.6" stroke="#32A1DF" stroke-width="0.5" stroke-miterlimit="10"/>
<path d="M137.6 87.4L132.4 92.6" stroke="#32A1DF" stroke-width="0.5" stroke-miterlimit="10"/>
<path d="M154.9 87.4L160.1 92.6" stroke="#32A1DF" stroke-width="0.5" stroke-miterlimit="10"/>
<path d="M160.1 87.4L154.9 92.6" stroke="#32A1DF" stroke-width="0.5" stroke-miterlimit="10"/>
<path d="M177.4 87.4L182.6 92.6" stroke="#32A1DF" stroke-width="0.5" stroke-miterlimit="10"/>
<path d="M182.6 87.4L177.4 92.6" stroke="#32A1DF" stroke-width="0.5" stroke-miterlimit="10"/>
<path d="M199.9 87.4L205.1 92.6" stroke="#32A1DF" stroke-width="0.5" stroke-miterlimit="10"/>
<path d="M205.1 87.4L199.9 92.6" stroke="#32A1DF" stroke-width="0.5" stroke-miterlimit="10"/>
<path d="M222.4 87.4L227.6 92.6" stroke="#32A1DF" stroke-width="0.5" stroke-miterlimit="10"/>
<path d="M227.6 87.4L222.4 92.6" stroke="#32A1DF" stroke-width="0.5" stroke-miterlimit="10"/>
<path d="M244.9 87.4L250.1 92.6" stroke="#32A1DF" stroke-width="0.5" stroke-miterlimit="10"/>
<path d="M250.1 87.4L244.9 92.6" stroke="#32A1DF" stroke-width="0.5" stroke-miterlimit="10"/>
<path d="M19.8999 64.9L25.0999 70.1" stroke="#32A1DF" stroke-width="0.5" stroke-miterlimit="10"/>
<path d="M25.0999 64.9L19.8999 70.1" stroke="#32A1DF" stroke-width="0.5" stroke-miterlimit="10"/>
<path d="M42.3999 64.9L47.5999 70.1" stroke="#32A1DF" stroke-width="0.5" stroke-miterlimit="10"/>
<path d="M47.5999 64.9L42.3999 70.1" stroke="#32A1DF" stroke-width="0.5" stroke-miterlimit="10"/>
<path d="M64.8999 64.9L70.0999 70.1" stroke="#32A1DF" stroke-width="0.5" stroke-miterlimit="10"/>
<path d="M70.0999 64.9L64.8999 70.1" stroke="#32A1DF" stroke-width="0.5" stroke-miterlimit="10"/>
<path d="M87.3999 64.9L92.5999 70.1" stroke="#32A1DF" stroke-width="0.5" stroke-miterlimit="10"/>
<path d="M92.5999 64.9L87.3999 70.1" stroke="#32A1DF" stroke-width="0.5" stroke-miterlimit="10"/>
<path d="M109.9 64.9L115.1 70.1" stroke="#32A1DF" stroke-width="0.5" stroke-miterlimit="10"/>
<path d="M115.1 64.9L109.9 70.1" stroke="#32A1DF" stroke-width="0.5" stroke-miterlimit="10"/>
<path d="M132.4 64.9L137.6 70.1" stroke="#32A1DF" stroke-width="0.5" stroke-miterlimit="10"/>
<path d="M137.6 64.9L132.4 70.1" stroke="#32A1DF" stroke-width="0.5" stroke-miterlimit="10"/>
<path d="M154.9 64.9L160.1 70.1" stroke="#32A1DF" stroke-width="0.5" stroke-miterlimit="10"/>
<path d="M160.1 64.9L154.9 70.1" stroke="#32A1DF" stroke-width="0.5" stroke-miterlimit="10"/>
<path d="M177.4 64.9L182.6 70.1" stroke="#32A1DF" stroke-width="0.5" stroke-miterlimit="10"/>
<path d="M182.6 64.9L177.4 70.1" stroke="#32A1DF" stroke-width="0.5" stroke-miterlimit="10"/>
<path d="M199.9 64.9L205.1 70.1" stroke="#32A1DF" stroke-width="0.5" stroke-miterlimit="10"/>
<path d="M205.1 64.9L199.9 70.1" stroke="#32A1DF" stroke-width="0.5" stroke-miterlimit="10"/>
<path d="M222.4 64.9L227.6 70.1" stroke="#32A1DF" stroke-width="0.5" stroke-miterlimit="10"/>
<path d="M227.6 64.9L222.4 70.1" stroke="#32A1DF" stroke-width="0.5" stroke-miterlimit="10"/>
<path d="M244.9 64.9L250.1 70.1" stroke="#32A1DF" stroke-width="0.5" stroke-miterlimit="10"/>
<path d="M250.1 64.9L244.9 70.1" stroke="#32A1DF" stroke-width="0.5" stroke-miterlimit="10"/>
<path d="M19.8999 42.4L25.0999 47.6" stroke="#32A1DF" stroke-width="0.5" stroke-miterlimit="10"/>
<path d="M25.0999 42.4L19.8999 47.6" stroke="#32A1DF" stroke-width="0.5" stroke-miterlimit="10"/>
<path d="M42.3999 42.4L47.5999 47.6" stroke="#32A1DF" stroke-width="0.5" stroke-miterlimit="10"/>
<path d="M47.5999 42.4L42.3999 47.6" stroke="#32A1DF" stroke-width="0.5" stroke-miterlimit="10"/>
<path d="M64.8999 42.4L70.0999 47.6" stroke="#32A1DF" stroke-width="0.5" stroke-miterlimit="10"/>
<path d="M70.0999 42.4L64.8999 47.6" stroke="#32A1DF" stroke-width="0.5" stroke-miterlimit="10"/>
<path d="M87.3999 42.4L92.5999 47.6" stroke="#32A1DF" stroke-width="0.5" stroke-miterlimit="10"/>
<path d="M92.5999 42.4L87.3999 47.6" stroke="#32A1DF" stroke-width="0.5" stroke-miterlimit="10"/>
<path d="M109.9 42.4L115.1 47.6" stroke="#32A1DF" stroke-width="0.5" stroke-miterlimit="10"/>
<path d="M115.1 42.4L109.9 47.6" stroke="#32A1DF" stroke-width="0.5" stroke-miterlimit="10"/>
<path d="M132.4 42.4L137.6 47.6" stroke="#32A1DF" stroke-width="0.5" stroke-miterlimit="10"/>
<path d="M137.6 42.4L132.4 47.6" stroke="#32A1DF" stroke-width="0.5" stroke-miterlimit="10"/>
<path d="M154.9 42.4L160.1 47.6" stroke="#32A1DF" stroke-width="0.5" stroke-miterlimit="10"/>
<path d="M160.1 42.4L154.9 47.6" stroke="#32A1DF" stroke-width="0.5" stroke-miterlimit="10"/>
<path d="M177.4 42.4L182.6 47.6" stroke="#32A1DF" stroke-width="0.5" stroke-miterlimit="10"/>
<path d="M182.6 42.4L177.4 47.6" stroke="#32A1DF" stroke-width="0.5" stroke-miterlimit="10"/>
<path d="M199.9 42.4L205.1 47.6" stroke="#32A1DF" stroke-width="0.5" stroke-miterlimit="10"/>
<path d="M205.1 42.4L199.9 47.6" stroke="#32A1DF" stroke-width="0.5" stroke-miterlimit="10"/>
<path d="M222.4 42.4L227.6 47.6" stroke="#32A1DF" stroke-width="0.5" stroke-miterlimit="10"/>
<path d="M227.6 42.4L222.4 47.6" stroke="#32A1DF" stroke-width="0.5" stroke-miterlimit="10"/>
<path d="M244.9 42.4L250.1 47.6" stroke="#32A1DF" stroke-width="0.5" stroke-miterlimit="10"/>
<path d="M250.1 42.4L244.9 47.6" stroke="#32A1DF" stroke-width="0.5" stroke-miterlimit="10"/>
<path d="M42.3999 19.9L47.5999 25.1" stroke="#32A1DF" stroke-width="0.5" stroke-miterlimit="10"/>
<path d="M47.5999 19.9L42.3999 25.1" stroke="#32A1DF" stroke-width="0.5" stroke-miterlimit="10"/>
<path d="M64.8999 19.9L70.0999 25.1" stroke="#32A1DF" stroke-width="0.5" stroke-miterlimit="10"/>
<path d="M70.0999 19.9L64.8999 25.1" stroke="#32A1DF" stroke-width="0.5" stroke-miterlimit="10"/>
<path d="M87.3999 19.9L92.5999 25.1" stroke="#32A1DF" stroke-width="0.5" stroke-miterlimit="10"/>
<path d="M92.5999 19.9L87.3999 25.1" stroke="#32A1DF" stroke-width="0.5" stroke-miterlimit="10"/>
<path d="M109.9 19.9L115.1 25.1" stroke="#32A1DF" stroke-width="0.5" stroke-miterlimit="10"/>
<path d="M115.1 19.9L109.9 25.1" stroke="#32A1DF" stroke-width="0.5" stroke-miterlimit="10"/>
<path d="M132.4 19.9L137.6 25.1" stroke="#32A1DF" stroke-width="0.5" stroke-miterlimit="10"/>
<path d="M137.6 19.9L132.4 25.1" stroke="#32A1DF" stroke-width="0.5" stroke-miterlimit="10"/>
<path d="M154.9 19.9L160.1 25.1" stroke="#32A1DF" stroke-width="0.5" stroke-miterlimit="10"/>
<path d="M160.1 19.9L154.9 25.1" stroke="#32A1DF" stroke-width="0.5" stroke-miterlimit="10"/>
<path d="M177.4 19.9L182.6 25.1" stroke="#32A1DF" stroke-width="0.5" stroke-miterlimit="10"/>
<path d="M182.6 19.9L177.4 25.1" stroke="#32A1DF" stroke-width="0.5" stroke-miterlimit="10"/>
<path d="M199.9 19.9L205.1 25.1" stroke="#32A1DF" stroke-width="0.5" stroke-miterlimit="10"/>
<path d="M205.1 19.9L199.9 25.1" stroke="#32A1DF" stroke-width="0.5" stroke-miterlimit="10"/>
<path d="M222.4 19.9L227.6 25.1" stroke="#32A1DF" stroke-width="0.5" stroke-miterlimit="10"/>
<path d="M227.6 19.9L222.4 25.1" stroke="#32A1DF" stroke-width="0.5" stroke-miterlimit="10"/>
<path d="M244.9 19.9L250.1 25.1" stroke="#32A1DF" stroke-width="0.5" stroke-miterlimit="10"/>
<path d="M250.1 19.9L244.9 25.1" stroke="#32A1DF" stroke-width="0.5" stroke-miterlimit="10"/>
</g>
<mask id="mask0_675_12857" style="mask-type:luminance" maskUnits="userSpaceOnUse" x="0" y="0" width="270" height="180">
<path d="M0.5 44.39L44.39 0.5H269.5V179.5H0.5V44.39Z" fill="white"/>
</mask>
<g mask="url(#mask0_675_12857)">
<path d="M271.01 122.54C271.01 122.54 271.01 122.51 271.01 122.49V119.55C271.01 119.55 271.01 119.52 271.01 119.51C271.01 119.49 271.01 119.48 271.01 119.46V44.66C271.01 44.41 270.82 44.2 270.57 44.16L150.77 28.58V25.7C150.77 25.29 150.59 25.06 150.43 24.95C149.97 24.6 149.28 24.76 148.11 25.09C145.67 25.76 133.03 28.28 115.86 28.28C96.1199 28.28 89.2299 27.01 88.0499 26.76C87.0699 26.55 86.3499 26.61 85.9099 26.95C85.6199 27.17 85.5099 27.47 85.4999 27.69V30.66H79.3299C78.8099 30.66 74.1599 30.62 72.9899 31C72.1099 31.28 71.2899 32.56 70.3399 34.05C69.8999 34.74 69.4499 35.45 69.0099 36C67.4699 36.23 66.6399 37.17 65.8899 38.5C65.2499 39.64 64.7899 42.08 64.0299 46.12C63.8299 47.2 63.6099 48.38 63.3599 49.67C62.9099 51.98 62.3499 55.05 61.7699 58.31C61.6899 58.15 61.5899 58.01 61.4599 57.91C61.2299 57.74 60.9699 57.7 60.7799 57.73H55.9199C55.3399 57.73 54.8399 57.92 54.4899 58.28C53.8999 58.89 53.9099 59.74 53.9099 59.82V76.87C53.9099 76.94 53.6499 78.49 55.4199 79.61C55.7299 79.81 56.0199 79.99 56.2799 80.17C57.1399 80.74 57.8099 81.17 58.4899 81.33C58.2699 83.43 58.0899 85.16 57.9999 86.06L57.4999 85.85C57.3499 85.78 57.1699 85.8 57.0299 85.89C56.8899 85.98 56.8099 86.14 56.8099 86.31V104.54C56.8199 104.6 57.0099 105.95 57.8699 107.39C58.4499 108.35 59.3399 108.74 59.9799 108.89C59.8799 109.08 59.7299 109.34 59.5399 109.66C59.0699 110.45 58.9599 110.48 58.3099 110.65C58.1899 110.68 58.0499 110.72 57.8899 110.76C56.7199 111.1 56.2599 111.64 56.2099 111.71C56.1699 111.76 56.1399 111.82 56.1199 111.89C56.1199 111.92 56.1199 111.94 56.1199 111.97C56.1199 111.98 56.1099 111.99 56.1099 112C56.1099 112.04 55.9699 116.2 56.1099 121.27C56.2399 125.77 56.5399 129.43 56.6099 130.23C55.7799 131.67 55.7999 133.38 55.8299 135.04C55.8299 135.34 55.8399 135.64 55.8399 135.93C55.8399 137.71 56.0999 143.03 56.5799 144.79C57.0399 146.49 58.4099 148.45 58.4699 148.53C58.4799 148.55 58.4899 148.56 58.5099 148.57C58.5999 148.68 58.7299 148.74 58.8799 148.75C58.9399 148.75 60.8499 148.8 64.1099 148.86C64.4599 150.47 65.9599 156.29 69.4599 156.29H77.1899C77.1899 156.29 77.2399 156.29 77.2699 156.29C77.8399 156.29 80.3999 155.88 82.2399 149.12C88.3299 149.18 95.1999 149.23 102.32 149.23C116.43 149.23 128.19 149.12 135.18 149.03C135.37 150.17 135.95 153.18 136.99 154.82C138.11 156.59 139.43 156.77 139.89 156.77C140 156.77 140.07 156.76 140.06 156.76C140.12 156.76 145.5 156.76 148.28 156.63C148.28 156.63 148.29 156.63 148.3 156.63C151.13 156.49 152.24 150.24 152.5 148.42C153.05 148.39 154.15 148.33 155.83 148.26C156.99 152.79 158.64 152.97 158.98 152.96H165.36C166.21 152.96 166.6 152.63 166.96 152.13C167.69 152.94 168.41 152.95 168.5 152.95H175.08C177.76 152.95 178.45 146.59 178.61 144.4H179.94C179.94 144.4 179.97 144.41 179.98 144.41H180C180.27 144.41 180.49 144.2 180.5 143.93C180.5 143.77 180.56 142.47 180.61 140.59L206.44 140.89C206.69 141.74 207.18 142.86 207.18 142.86C207.18 142.86 207.44 143.36 207.55 143.61C207.78 144.12 209.88 148.57 212.41 148.57H218.48C218.48 148.57 218.49 148.57 218.5 148.57H226.6C226.73 148.54 229.9 147.99 231.38 145.61C231.57 145.3 231.73 145.04 231.87 144.82C232.58 145.83 234.03 147.51 235.82 147.51H242.27C242.39 147.5 245.34 147.19 247 143.63C247.81 141.88 248.04 140.63 248.11 139.97H249.46C250.69 147.86 255.4 149.21 255.6 149.27C255.64 149.27 255.68 149.29 255.72 149.29C255.84 149.29 267.4 149.47 269.18 149.47C269.42 149.47 269.65 149.44 269.86 149.41C269.9 149.41 269.94 149.4 269.98 149.39C270.3 149.32 270.54 149.24 270.64 149.21C270.65 149.21 270.66 149.21 270.68 149.21C270.87 149.14 271 148.95 271 148.74V123.96C271 123.96 271 123.94 271 123.93V122.6C271 122.6 271 122.58 271 122.56L271.01 122.54Z" fill="white"/>
<path d="M270.5 122.54V44.66L150.29 29.03V29.02H150.27V25.7C150.27 25.04 149.56 25.21 148.24 25.57C146.93 25.93 134.4 28.78 115.86 28.78C97.3198 28.78 89.8498 27.66 87.9398 27.25C86.0398 26.84 85.9998 27.7 85.9998 27.7V31.17H79.3198C79.3198 31.17 74.2698 31.12 73.1398 31.48C72.0098 31.84 70.5998 34.89 69.2798 36.48C67.8698 36.62 67.0998 37.39 66.3298 38.75C65.5598 40.11 65.0198 43.77 63.8598 49.77C63.2698 52.83 62.4598 57.27 61.7098 61.7C61.6898 61.6 61.4898 60.55 61.4898 59.33C61.4898 58.11 60.8498 58.24 60.8498 58.24H55.9398C54.3898 58.24 54.4398 59.83 54.4398 59.83V76.97C54.4398 76.97 54.2098 78.25 55.7198 79.2C57.2198 80.15 58.1498 80.92 59.0698 80.92V80.88C58.7098 84.25 58.4598 86.8 58.4598 86.8L57.3398 86.32V104.48C57.3398 104.48 57.5098 105.77 58.3298 107.14C59.1498 108.5 60.7498 108.5 60.7498 108.5C60.7498 108.5 60.6698 108.79 59.9998 109.93C59.3198 111.06 59.1198 110.96 58.0598 111.26C56.9998 111.56 56.6298 112.04 56.6298 112.04C56.6298 112.04 56.4898 116.17 56.6298 121.28C56.7698 126.39 57.1398 130.37 57.1398 130.37H57.1298C56.1298 131.96 56.3598 134.05 56.3598 135.96C56.3598 137.87 56.6398 143.05 57.0798 144.68C57.5298 146.32 58.8998 148.27 58.8998 148.27C58.8998 148.27 60.9698 148.33 64.5198 148.39C64.5198 148.39 65.8498 155.81 69.4598 155.81H77.2298C77.2298 155.81 79.9498 156.05 81.8598 148.65C81.8598 148.65 94.2798 148.75 102.32 148.75C116.79 148.75 128.7 148.63 135.61 148.54C135.63 148.65 136.21 152.66 137.42 154.57C138.65 156.51 140.08 156.27 140.08 156.27C140.08 156.27 145.49 156.27 148.29 156.14C151.08 155.98 152.07 147.96 152.07 147.96C152.07 147.96 152.09 147.96 152.12 147.96C152.39 147.94 153.72 147.86 156.22 147.76C157.34 152.54 158.98 152.47 158.98 152.47H165.36C166.22 152.47 166.4 152.09 166.94 151.27C167.67 152.48 168.5 152.46 168.5 152.46H175.08C177.67 152.46 178.14 143.91 178.14 143.91H178.16H179.98V143.84L180.01 143.92C180.01 143.92 180.08 142.36 180.13 140.1L206.86 140.4C207.24 141.97 208.01 143.42 208.01 143.42C208.01 143.42 210.13 148.08 212.41 148.08H226.52C226.52 148.08 229.58 147.57 230.95 145.35C231.49 144.47 231.74 144.06 231.85 143.87C231.99 144.12 233.68 147 235.81 147H242.21C242.21 147 244.98 146.75 246.53 143.41C247.67 140.94 247.63 139.51 247.62 139.46H249.88C250.97 147.5 255.72 148.78 255.72 148.78C255.72 148.78 267.38 148.96 269.17 148.96C269.18 148.96 269.2 148.96 269.21 148.96C269.41 148.96 269.59 148.94 269.75 148.91C269.82 148.9 269.88 148.88 269.95 148.87C270.23 148.81 270.41 148.75 270.45 148.73C270.46 148.73 270.48 148.73 270.49 148.72V123.95V123.94V122.55L270.5 122.54Z" fill="white"/>
<path d="M134.36 29.55C134.36 29.55 128.02 30.87 115.41 31.15C107.91 31.31 94.4899 31.15 85.9199 31.15" stroke="#32A1DF" stroke-linecap="round" stroke-linejoin="round"/>
<path d="M144.28 131.64C143.97 134.32 143.28 139.32 143.28 144C143.28 148.68 142.09 148.44 142.09 148.44C142.09 148.44 125.49 148.74 102.31 148.74C79.1302 148.74 58.8802 148.26 58.8802 148.26C58.8802 148.26 57.5102 146.31 57.0602 144.67C56.6102 143.03 56.3402 137.85 56.3402 135.95C56.3402 134.05 56.1102 131.95 57.1102 130.36M115.47 127.86C115.47 127.86 97.1502 130.13 94.2902 130.13C91.4302 130.13 73.3902 127.86 73.3902 127.86" stroke="#32A1DF" stroke-linecap="round" stroke-linejoin="round"/>
<path d="M120.52 144.05H130.65C130.65 144.05 132.11 144.18 131.65 142.55C131.19 140.91 130.06 137.05 130.06 137.05C130.06 137.05 129.56 135.32 127.06 135.64C124.57 135.96 118.15 136.96 118.15 136.96L120.51 144.05H120.52Z" stroke="#32A1DF" stroke-linecap="round" stroke-linejoin="round"/>
<path d="M69.6602 143.84L70.9902 136.85L63.3902 135.56C63.3902 135.56 61.4802 135.32 60.8702 136.68C60.2602 138.04 59.8102 142.78 59.8102 142.78C59.8102 142.78 59.5702 143.84 61.4502 143.84H69.6602Z" stroke="#32A1DF" stroke-linecap="round" stroke-linejoin="round"/>
<path d="M72.98 143.84L74.21 136.82C74.21 136.82 74.57 132.96 79.4 132.96H109.76C109.76 132.96 113.26 132.96 114.76 137.14C116.25 141.32 116.94 143.85 116.94 143.85H72.99L72.98 143.84Z" stroke="#32A1DF" stroke-linecap="round" stroke-linejoin="round"/>
<path d="M116 129.37C116 129.37 119.89 128.57 121.19 126.26C122.48 123.95 123.65 118.89 123.65 118.89C123.65 118.89 124.06 116.84 126.51 116.37C128.97 115.89 133.4 115.08 133.4 115.08C133.4 115.08 133.4 123.35 132.11 126.54C131.05 129.13 129.59 130.67 124.44 131.79C119.74 132.81 116.93 133.03 116.93 133.03L115.93 129.38H116.01L116 129.37Z" stroke="#32A1DF" stroke-linecap="round" stroke-linejoin="round"/>
<path d="M122.82 122C122.82 122 131.31 120.08 133.2 120.09" stroke="#32A1DF" stroke-linecap="round" stroke-linejoin="round"/>
<path d="M58.5198 115.05C58.5198 115.05 62.1998 115.69 63.6598 116.33C65.1198 116.97 66.0698 117.28 66.5698 120.15C67.0698 123.01 67.6598 125.52 68.8898 126.93C70.1198 128.34 72.9798 129.31 72.9798 129.31L72.0598 132.97C72.0598 132.97 64.6298 131.38 62.3998 130.56C60.1698 129.74 59.3098 127.11 59.0798 124.01C58.9898 122.86 58.9098 121.43 58.8198 120.06C58.6598 117.46 58.5298 115.05 58.5298 115.05H58.5098H58.5198Z" stroke="#32A1DF" stroke-linecap="round" stroke-linejoin="round"/>
<path d="M58.8101 120.05L66.8301 121.57" stroke="#32A1DF" stroke-linecap="round" stroke-linejoin="round"/>
<path d="M57.1201 130.37C57.1201 130.37 56.7501 126.39 56.6101 121.28C56.4701 116.17 56.6101 112.04 56.6101 112.04C56.6101 112.04 56.9801 111.56 58.0401 111.26C59.1001 110.95 59.3101 111.06 59.9801 109.93C60.6601 108.8 60.7301 108.5 60.7301 108.5C60.7301 108.5 59.1301 108.5 58.3101 107.14C57.4901 105.78 57.3201 104.49 57.3201 104.49V86.33L58.4401 86.81C58.4401 86.81 59.1501 79.54 59.9201 73.31C60.6901 67.09 62.6901 55.79 63.8501 49.79C65.0101 43.8 65.5501 40.13 66.3201 38.77C67.0901 37.41 67.8601 36.64 69.2701 36.5C70.5901 34.91 72.0001 31.87 73.1301 31.5C74.2601 31.14 79.3101 31.19 79.3101 31.19H85.9901V27.72C85.9901 27.72 86.0301 26.86 87.9301 27.27C89.8301 27.68 97.3001 28.8 115.85 28.8C134.4 28.8 146.92 25.96 148.23 25.59C149.54 25.23 150.26 25.07 150.26 25.72V29.04L270.49 44.67V148.72C270.49 148.72 269.89 148.97 269.17 148.97C267.37 148.97 255.72 148.79 255.72 148.79C255.72 148.79 250.97 147.51 249.88 139.47H246.82C246.82 139.47 246.54 139.66 246.54 138.49C245.12 138.49 223.02 139.15 223.02 139.15L222.92 131.11L216.24 131.07L216.17 140.51L179.99 140.1L179.96 143.92H178.12C178.12 143.92 177.64 152.47 175.06 152.47H168.49C168.49 152.47 167.66 152.49 166.93 151.28C166.39 152.1 166.21 152.48 165.35 152.48H158.97C158.97 152.48 157.33 152.55 156.21 147.77C153.38 147.87 152.05 147.97 152.05 147.97C152.05 147.97 151.06 156.01 148.26 156.15C145.46 156.29 140.05 156.28 140.05 156.28C140.05 156.28 138.62 156.52 137.4 154.58C136.17 152.64 135.59 148.54 135.59 148.54" stroke="#32A1DF" stroke-linecap="round" stroke-linejoin="round"/>
<path d="M64.5103 148.39C64.5103 148.39 65.8402 155.81 69.4502 155.81H77.2203C77.2203 155.81 79.9403 156.05 81.8503 148.64" stroke="#32A1DF" stroke-linecap="round" stroke-linejoin="round"/>
<path d="M73.1899 148.54C73.1899 148.54 73.4999 150.91 74.4399 152.95" stroke="#32A1DF" stroke-linecap="round" stroke-linejoin="round"/>
<path d="M94.2602 110.85C98.0202 110.85 101.07 107.68 101.07 103.76C101.07 99.84 98.0202 96.67 94.2602 96.67C90.5002 96.67 87.4502 99.84 87.4502 103.76C87.4502 107.68 90.5002 110.85 94.2602 110.85Z" stroke="#32A1DF" stroke-linecap="round" stroke-linejoin="round"/>
<path d="M70.79 122.32L91.98 124.82C94 125.06 96.04 125.06 98.07 124.84L118.77 122.52" stroke="#32A1DF" stroke-linecap="round" stroke-linejoin="round"/>
<path d="M98.0698 124.84L108.79 123.64L109.26 121.25L97.4498 122.57C95.4198 122.8 93.3898 122.79 91.3598 122.55L80.3198 121.26L80.7298 123.5L91.9898 124.82C94.0098 125.06 96.0498 125.06 98.0798 124.84H98.0698Z" stroke="#32A1DF" stroke-linecap="round" stroke-linejoin="round"/>
<path d="M99.43 118.71L109.89 118.01L110.45 115.14L99.57 115.87C95.95 116.12 92.32 116.1 88.71 115.83L79.21 115.14L79.73 118.03L88.56 118.68C92.18 118.95 95.8 118.96 99.42 118.72L99.43 118.71Z" stroke="#32A1DF" stroke-linecap="round" stroke-linejoin="round"/>
<path d="M68.6802 111.24L89.1102 112.66C92.6802 112.91 96.2702 112.92 99.8402 112.69L122.09 111.24" stroke="#32A1DF" stroke-linecap="round" stroke-linejoin="round"/>
<path d="M69.8198 117.3L88.5598 118.68C92.1798 118.95 95.7998 118.96 99.4198 118.72L120.46 117.3" stroke="#32A1DF" stroke-linecap="round" stroke-linejoin="round"/>
<path d="M67.2798 99.74L88.7598 99.61C87.9398 100.77 87.4698 102.21 87.4698 103.76C87.4698 107.67 90.5198 110.85 94.2798 110.85C98.0398 110.85 101.09 107.68 101.09 103.76C101.09 102.18 100.59 100.73 99.7498 99.55L123.86 99.41" stroke="#32A1DF" stroke-linecap="round" stroke-linejoin="round"/>
<path d="M98.1302 109.61C97.0402 110.4 95.7002 110.86 94.2702 110.86C92.8402 110.86 91.5102 110.4 90.4102 109.61H78.2002L78.6202 111.94L89.1102 112.66C92.6802 112.91 96.2702 112.92 99.8402 112.69L111.06 111.97L111.52 109.62H98.1402L98.1302 109.61Z" stroke="#32A1DF" stroke-linecap="round" stroke-linejoin="round"/>
<path d="M100.72 106.03L123.18 105.88" stroke="#32A1DF" stroke-linecap="round" stroke-linejoin="round"/>
<path d="M67.96 106.25L87.83 106.12" stroke="#32A1DF" stroke-linecap="round" stroke-linejoin="round"/>
<path d="M56.6001 112.04C56.6001 112.04 62.2901 113.55 66.4801 114.37" stroke="#32A1DF" stroke-linecap="round" stroke-linejoin="round"/>
<path d="M157.64 105.37C149 105.65 140.32 110.85 140.32 110.85C140.32 110.85 139.6 111.19 137 111.69C134.4 112.18 131.41 112.74 128 113.1C124.59 113.46 123.17 114.19 123.17 114.19" stroke="#32A1DF" stroke-linecap="round" stroke-linejoin="round"/>
<path d="M58.5198 115.05L56.5498 114.67" stroke="#32A1DF" stroke-linecap="round" stroke-linejoin="round"/>
<path d="M133.4 115.08C133.4 115.08 137.15 114.09 139.64 113.68" stroke="#32A1DF" stroke-linecap="round" stroke-linejoin="round"/>
<path d="M58.4399 86.79C58.4399 86.79 60.3799 88.29 60.6099 90.15C60.8399 92.01 62.1099 106.12 62.1099 106.12M58.5799 85.43C60.9799 85.15 63.8299 86.01 64.8499 87.91C66.0599 90.17 66.7199 94.44 67.2699 99.74" stroke="#32A1DF" stroke-linecap="round" stroke-linejoin="round"/>
<path d="M62.1101 106.11C62.1101 106.11 58.5201 106.11 57.3101 104.47" stroke="#32A1DF" stroke-linecap="round" stroke-linejoin="round"/>
<path d="M66.48 114.37C66.48 114.37 68.79 113.47 68.79 111.56" stroke="#32A1DF" stroke-linecap="round" stroke-linejoin="round"/>
<path d="M123.18 114.19C123.18 114.19 122.38 112.97 122.08 111.56" stroke="#32A1DF" stroke-linecap="round" stroke-linejoin="round"/>
<path d="M139.63 113.68C139.63 113.68 142.28 111.8 144.14 111.08" stroke="#32A1DF" stroke-linecap="round" stroke-linejoin="round"/>
<path d="M127.2 105.87L129.56 91.01C129.56 91.01 129.79 87.78 133.01 86.74C136.24 85.69 138 85.69 138 85.69" stroke="#32A1DF" stroke-linecap="round" stroke-linejoin="round"/>
<path d="M123.85 99.4C123.85 99.4 124.69 92.24 125.6 89.69C126.51 87.14 128.07 84.24 138 84.65L137.85 58.23C137.85 58.23 137.5 54.21 139.95 54.35C142.4 54.49 145.47 54.63 148.48 55.3C151.49 55.98 152.64 56.59 156.45 56.59" stroke="#32A1DF" stroke-linecap="round" stroke-linejoin="round"/>
<path d="M65.3 52.01V52.03C65.3 52.03 67.23 51.4 72.27 51.25C77.3 51.1 110.72 50.5 117.03 50.33C123.34 50.16 129.13 50.33 134.35 50.98M61.71 81.25C61.71 81.25 65.03 80.94 75.71 80.94C86.39 80.94 112.8 80.4 120.34 80.4H133.47" stroke="#32A1DF" stroke-linecap="round" stroke-linejoin="round"/>
<path d="M63.8599 49.76C63.8599 49.76 65.0699 48.51 66.7399 47.88C69.7399 46.74 70.1699 50.37 71.1599 51.14M121.59 50.19C122.23 50.06 123.96 47.71 124.55 47.23C125.14 46.75 126.46 46.39 129 46.84C131.54 47.29 132.93 47.53 134.5 48.13C136.07 48.74 135.93 49.08 135.93 49.9C135.93 50.72 135.36 54.6 135.27 62.78C135.18 70.96 135.17 84.6 135.17 84.6" stroke="#32A1DF" stroke-linecap="round" stroke-linejoin="round"/>
<path d="M134.35 50.96H135.86" stroke="#32A1DF" stroke-linecap="round" stroke-linejoin="round"/>
<path d="M133.47 80.37H135.2" stroke="#32A1DF" stroke-linecap="round" stroke-linejoin="round"/>
<path d="M61.7 81.24L59 81.42" stroke="#32A1DF" stroke-linecap="round" stroke-linejoin="round"/>
<path d="M63.23 53.11C63.94 52.25 65.3 52.02 65.3 52.02" stroke="#32A1DF" stroke-linecap="round" stroke-linejoin="round"/>
<path d="M64.8501 87.91L126.84 87.36" stroke="#32A1DF" stroke-linecap="round" stroke-linejoin="round"/>
<path d="M70.67 44.8C70.67 44.8 70.43 36.37 71.92 32.61" stroke="#32A1DF" stroke-linecap="round" stroke-linejoin="round"/>
<path d="M125.35 43.9C125.35 43.9 127.19 35.45 129.31 32.11C131.42 28.77 137.97 29.05 142.4 30.41C146.83 31.77 148.06 32.11 150.31 32.11C150.38 30.27 150.29 29.02 150.29 29.02" stroke="#32A1DF" stroke-linecap="round" stroke-linejoin="round"/>
<path d="M134.73 108.05C135.68 109.99 137.12 110.94 139.64 111.08V129.34L139.88 132.12C139.88 132.12 139.54 142.85 139.23 145.96C138.72 147.42 138 148.51 138 148.51" stroke="#32A1DF" stroke-linecap="round" stroke-linejoin="round"/>
<path d="M135.95 49.42C135.95 49.42 136.3 41.95 137.02 39.36C137.85 36.36 139.48 34.69 143.36 34.75C147.24 34.81 155.02 36.11 155.02 36.11L157.41 54.25L156.46 56.57L157.28 103.34L156.19 103.75" stroke="#32A1DF" stroke-linecap="round" stroke-linejoin="round"/>
<path d="M150.31 32.11L153.1 35.83" stroke="#32A1DF" stroke-linecap="round" stroke-linejoin="round"/>
<path d="M152.61 56.28V75.33C152.61 75.33 153.51 81.7 153.51 89.24V104.04" stroke="#32A1DF" stroke-linecap="round" stroke-linejoin="round"/>
<path d="M153.86 118.59H157.65V105.37L156.17 103.75C156.17 103.75 153.99 103.68 147.24 105.32C140.48 106.96 134.73 108.04 134.73 108.04" stroke="#32A1DF" stroke-linecap="round" stroke-linejoin="round"/>
<path d="M137.99 85.69C137.99 85.69 138.27 86.17 138.27 87.91V103.76C138.27 103.76 138.44 103.85 137.01 104.31C135.57 104.78 127.19 105.87 127.19 105.87" stroke="#32A1DF" stroke-linecap="round" stroke-linejoin="round"/>
<path d="M136.52 104.44C136.52 104.44 136.45 106.66 137.4 107.52" stroke="#32A1DF" stroke-linecap="round" stroke-linejoin="round"/>
<path d="M141.91 58.65V78.42C141.91 78.42 141.81 80.16 143.41 80.16C145.01 80.16 145.68 80.2 147 79.51C148.31 78.82 150.04 77.71 150.04 76.86V58.19C150.04 58.19 150.09 56.69 148.13 56.69H143.17C143.17 56.69 141.9 56.97 141.9 58.64L141.91 58.65Z" stroke="#32A1DF" stroke-linecap="round" stroke-linejoin="round"/>
<path d="M143.49 80.58C143.49 80.58 141.02 81.84 139.34 82.05C137.66 82.27 137.78 79.68 137.78 79.68V57.84C137.78 57.84 137.73 57.32 138.68 57.32C139.63 57.32 141.85 57.7 141.85 57.7" stroke="#32A1DF" stroke-linecap="round" stroke-linejoin="round"/>
<path d="M141.28 84.61C142.88 83.97 152.53 81.12 152.53 75.41" stroke="#32A1DF" stroke-linecap="round" stroke-linejoin="round"/>
<path d="M153 118.88C153 118.88 151.84 110.5 148.3 111.08C143.89 111.8 142.68 123.66 142.68 123.66C142.68 123.66 142.68 124.12 142 124.51C141.31 124.9 140.43 125.28 140.43 125.28" stroke="#32A1DF" stroke-linecap="round" stroke-linejoin="round"/>
<path d="M152.14 119.54C151.39 120.4 151.25 120.46 151.25 120.46C151.25 120.46 150.48 118.72 149.16 118.71C147.65 118.69 146.14 120.84 145.73 123.43C145.32 126.02 144.9 128.69 144.9 128.69" stroke="#32A1DF" stroke-linecap="round" stroke-linejoin="round"/>
<path d="M152.11 147.97C152.5 145.46 152.73 142.53 152.73 139.4C152.73 130.11 150.75 122.6 148.3 122.6C146.4 122.6 144.78 127.11 144.15 133.46M148.28 156.15C146.93 156.15 145.72 153.86 144.91 150.25" stroke="#32A1DF" stroke-linecap="round" stroke-linejoin="round"/>
<path d="M148.31 122.59H145.91" stroke="#32A1DF" stroke-linecap="round" stroke-linejoin="round"/>
<path d="M149.33 123.05H151.46C151.46 123.05 152 123.1 152.37 124.21C152.74 125.32 153.05 135.57 152.73 140.59" stroke="#32A1DF" stroke-linecap="round" stroke-linejoin="round"/>
<path d="M152.14 119.54C152.14 119.54 152.82 118.59 153.85 118.59" stroke="#32A1DF" stroke-linecap="round" stroke-linejoin="round"/>
<path d="M152.56 125.64H170.1M169.14 144.73C166.1 145.04 152.32 146.54 152.32 146.54" stroke="#32A1DF" stroke-linecap="round" stroke-linejoin="round"/>
<path d="M152.7 127.86H169.14C169.14 127.86 168.73 131.73 167.78 135.6C166.83 139.46 166.46 141.82 164.64 141.96C162.82 142.09 153.85 142.92 153.85 142.92" stroke="#32A1DF" stroke-linecap="round" stroke-linejoin="round"/>
<path d="M180.01 140.09C180.01 140.09 180.12 134.64 179.78 129.86C179.44 125.08 177.97 122.24 176.61 122.24C174.7 122.24 173.72 125.57 173.2 130.89C172.69 136.21 172.83 143.26 172.83 143.91C172.83 144.56 172.38 144.56 172.38 144.56L169.13 144.73" stroke="#32A1DF" stroke-linecap="round" stroke-linejoin="round"/>
<path d="M166.95 151.27C166.95 151.27 166.56 150.47 166.16 149.15C165.84 148.09 165.52 146.7 165.4 145.13" stroke="#32A1DF" stroke-linecap="round" stroke-linejoin="round"/>
<path d="M172.64 124.51C173.41 121.01 175.17 119.88 176.17 119.88C177.17 119.88 179.14 121.29 179.78 126.11C180.51 131.7 180 143.92 180 143.92" stroke="#32A1DF" stroke-linecap="round" stroke-linejoin="round"/>
<path d="M174.97 123.35C174.97 123.35 175.89 123.23 176.88 125.96C177.87 128.69 178.76 139.38 178.14 143.93" stroke="#32A1DF" stroke-linecap="round" stroke-linejoin="round"/>
<path d="M59.05 80.92C58.13 80.92 57.2 80.15 55.7 79.2C54.2 78.25 54.42 76.97 54.42 76.97V59.83C54.42 59.83 54.37 58.24 55.92 58.24H60.83C60.83 58.24 61.47 58.06 61.47 59.33C61.47 60.6 61.7 61.72 61.7 61.72" stroke="#32A1DF" stroke-linecap="round" stroke-linejoin="round"/>
<path d="M157.05 125.64C157.05 125.64 157.41 121.7 158.33 120.21C159.24 118.72 159.16 118.71 160.61 118.71" stroke="#32A1DF" stroke-linecap="round" stroke-linejoin="round"/>
<path d="M157.64 118.59L270.51 119.51" stroke="#32A1DF" stroke-linecap="round" stroke-linejoin="round"/>
<path d="M222.94 131.1V120.33L252.7 120.66V138.32L246.56 138.48" stroke="#32A1DF" stroke-linecap="round" stroke-linejoin="round"/>
<path d="M222.96 132.74L252.7 132.26" stroke="#32A1DF" stroke-linecap="round" stroke-linejoin="round"/>
<path d="M216.26 131.06V119.06" stroke="#32A1DF" stroke-linecap="round" stroke-linejoin="round"/>
<path d="M212.99 119.04V140.47" stroke="#32A1DF" stroke-linecap="round" stroke-linejoin="round"/>
<path d="M208 140.41V119.06" stroke="#32A1DF" stroke-linecap="round" stroke-linejoin="round"/>
<path d="M202.64 130.07V119.03" stroke="#32A1DF" stroke-linecap="round" stroke-linejoin="round"/>
<path d="M182.41 122L200.68 130.07" stroke="#32A1DF" stroke-linecap="round" stroke-linejoin="round"/>
<path d="M182.41 118.81V122.01" stroke="#32A1DF" stroke-linecap="round" stroke-linejoin="round"/>
<path d="M208 130.07H180.08" stroke="#32A1DF" stroke-linecap="round" stroke-linejoin="round"/>
<path d="M208 143.41C208 143.41 210.12 148.07 212.4 148.07H226.51C226.51 148.07 229.57 147.56 230.94 145.34C232.31 143.12 231.83 143.84 231.83 143.84C231.83 143.84 233.58 147 235.81 147H242.21C242.21 147 244.98 146.75 246.53 143.41C247.69 140.9 247.62 139.45 247.62 139.45" stroke="#32A1DF" stroke-linecap="round" stroke-linejoin="round"/>
<path d="M214.86 143.41C214.86 143.41 216.77 147.5 218.5 148.07" stroke="#32A1DF" stroke-linecap="round" stroke-linejoin="round"/>
<path d="M249.9 139.45H259L260.6 139.27C260.6 139.27 261.01 139.03 261.01 137.91C261.01 136.79 260.97 132.25 261.93 128.78C262.88 125.31 264.04 122.61 265.14 122.54C266.23 122.46 270.52 122.54 270.52 122.54" stroke="#32A1DF" stroke-linecap="round" stroke-linejoin="round"/>
<path d="M270.51 123.93C270.08 123.77 269.64 123.68 269.19 123.68C265.54 123.68 262.58 129.33 262.58 136.32C262.58 143.31 265.54 148.96 269.19 148.96C269.64 148.96 270.08 148.87 270.51 148.71V123.94V123.93Z" stroke="#32A1DF" stroke-linecap="round" stroke-linejoin="round"/>
<path d="M271.01 122.54C271.01 122.54 271.01 122.51 271.01 122.49V119.55C271.01 119.55 271.01 119.52 271.01 119.51C271.01 119.49 271.01 119.48 271.01 119.46V44.66C271.01 44.41 270.82 44.2 270.57 44.16L150.77 28.58V25.7C150.77 25.29 150.59 25.06 150.43 24.95C149.97 24.6 149.28 24.76 148.11 25.09C145.67 25.76 133.03 28.28 115.86 28.28C96.1199 28.28 89.2299 27.01 88.0499 26.76C87.0699 26.55 86.3499 26.61 85.9099 26.95C85.6199 27.17 85.5099 27.47 85.4999 27.69V30.66H79.3299C78.8099 30.66 74.1599 30.62 72.9899 31C72.1099 31.28 71.2899 32.56 70.3399 34.05C69.8999 34.74 69.4499 35.45 69.0099 36C67.4699 36.23 66.6399 37.17 65.8899 38.5C65.2499 39.64 64.7899 42.08 64.0299 46.12C63.8299 47.2 63.6099 48.38 63.3599 49.67C62.9099 51.98 62.3499 55.05 61.7699 58.31C61.6899 58.15 61.5899 58.01 61.4599 57.91C61.2299 57.74 60.9699 57.7 60.7799 57.73H55.9199C55.3399 57.73 54.8399 57.92 54.4899 58.28C53.8999 58.89 53.9099 59.74 53.9099 59.82V76.87C53.9099 76.94 53.6499 78.49 55.4199 79.61C55.7299 79.81 56.0199 79.99 56.2799 80.17C57.1399 80.74 57.8099 81.17 58.4899 81.33C58.2699 83.43 58.0899 85.16 57.9999 86.06L57.4999 85.85C57.3499 85.78 57.1699 85.8 57.0299 85.89C56.8899 85.98 56.8099 86.14 56.8099 86.31V104.54C56.8199 104.6 57.0099 105.95 57.8699 107.39C58.4499 108.35 59.3399 108.74 59.9799 108.89C59.8799 109.08 59.7299 109.34 59.5399 109.66C59.0699 110.45 58.9599 110.48 58.3099 110.65C58.1899 110.68 58.0499 110.72 57.8899 110.76C56.7199 111.1 56.2599 111.64 56.2099 111.71C56.1699 111.76 56.1399 111.82 56.1199 111.89C56.1199 111.92 56.1199 111.94 56.1199 111.97C56.1199 111.98 56.1099 111.99 56.1099 112C56.1099 112.04 55.9699 116.2 56.1099 121.27C56.2399 125.77 56.5399 129.43 56.6099 130.23C55.7799 131.67 55.7999 133.38 55.8299 135.04C55.8299 135.34 55.8399 135.64 55.8399 135.93C55.8399 137.71 56.0999 143.03 56.5799 144.79C57.0399 146.49 58.4099 148.45 58.4699 148.53C58.4799 148.55 58.4899 148.56 58.5099 148.57C58.5999 148.68 58.7299 148.74 58.8799 148.75C58.9399 148.75 60.8499 148.8 64.1099 148.86C64.4599 150.47 65.9599 156.29 69.4599 156.29H77.1899C77.1899 156.29 77.2399 156.29 77.2699 156.29C77.8399 156.29 80.3999 155.88 82.2399 149.12C88.3299 149.18 95.1999 149.23 102.32 149.23C116.43 149.23 128.19 149.12 135.18 149.03C135.37 150.17 135.95 153.18 136.99 154.82C138.11 156.59 139.43 156.77 139.89 156.77C140 156.77 140.07 156.76 140.06 156.76C140.12 156.76 145.5 156.76 148.28 156.63C148.28 156.63 148.29 156.63 148.3 156.63C151.13 156.49 152.24 150.24 152.5 148.42C153.05 148.39 154.15 148.33 155.83 148.26C156.99 152.79 158.64 152.97 158.98 152.96H165.36C166.21 152.96 166.6 152.63 166.96 152.13C167.69 152.94 168.41 152.95 168.5 152.95H175.08C177.76 152.95 178.45 146.59 178.61 144.4H179.94C179.94 144.4 179.97 144.41 179.98 144.41H180C180.27 144.41 180.49 144.2 180.5 143.93C180.5 143.77 180.56 142.47 180.61 140.59L206.44 140.89C206.69 141.74 207.18 142.86 207.18 142.86C207.18 142.86 207.44 143.36 207.55 143.61C207.78 144.12 209.88 148.57 212.41 148.57H218.48C218.48 148.57 218.49 148.57 218.5 148.57H226.6C226.73 148.54 229.9 147.99 231.38 145.61C231.57 145.3 231.73 145.04 231.87 144.82C232.58 145.83 234.03 147.51 235.82 147.51H242.27C242.39 147.5 245.34 147.19 247 143.63C247.81 141.88 248.04 140.63 248.11 139.97H249.46C250.69 147.86 255.4 149.21 255.6 149.27C255.64 149.27 255.68 149.29 255.72 149.29C255.84 149.29 267.4 149.47 269.18 149.47C269.42 149.47 269.65 149.44 269.86 149.41C269.9 149.41 269.94 149.4 269.98 149.39C270.3 149.32 270.54 149.24 270.64 149.21C270.65 149.21 270.66 149.21 270.68 149.21C270.87 149.14 271 148.95 271 148.74V123.96C271 123.96 271 123.94 271 123.93V122.6C271 122.6 271 122.58 271 122.56L271.01 122.54Z" stroke="#32A1DF" stroke-width="1.5" stroke-miterlimit="10"/>
</g>
<path d="M0.5 44.39L44.39 0.5H269.5V179.5H0.5V44.39Z" stroke="#32A1DF"/>
</g>
<defs>
<clipPath id="clip0_675_12857">
<rect width="270" height="180" fill="white"/>
</clipPath>
</defs>
</svg>
