<svg width="270" height="180" viewBox="0 0 270 180" fill="none" xmlns="http://www.w3.org/2000/svg">
<g clip-path="url(#clip0_684_4419)">
<g opacity="0.5">
<path d="M19.8999 154.9L25.0999 160.1" stroke="#32A1DF" stroke-width="0.5" stroke-miterlimit="10"/>
<path d="M25.0999 154.9L19.8999 160.1" stroke="#32A1DF" stroke-width="0.5" stroke-miterlimit="10"/>
<path d="M42.3999 154.9L47.5999 160.1" stroke="#32A1DF" stroke-width="0.5" stroke-miterlimit="10"/>
<path d="M47.5999 154.9L42.3999 160.1" stroke="#32A1DF" stroke-width="0.5" stroke-miterlimit="10"/>
<path d="M64.8999 154.9L70.0999 160.1" stroke="#32A1DF" stroke-width="0.5" stroke-miterlimit="10"/>
<path d="M70.0999 154.9L64.8999 160.1" stroke="#32A1DF" stroke-width="0.5" stroke-miterlimit="10"/>
<path d="M87.3999 154.9L92.5999 160.1" stroke="#32A1DF" stroke-width="0.5" stroke-miterlimit="10"/>
<path d="M92.5999 154.9L87.3999 160.1" stroke="#32A1DF" stroke-width="0.5" stroke-miterlimit="10"/>
<path d="M109.9 154.9L115.1 160.1" stroke="#32A1DF" stroke-width="0.5" stroke-miterlimit="10"/>
<path d="M115.1 154.9L109.9 160.1" stroke="#32A1DF" stroke-width="0.5" stroke-miterlimit="10"/>
<path d="M132.4 154.9L137.6 160.1" stroke="#32A1DF" stroke-width="0.5" stroke-miterlimit="10"/>
<path d="M137.6 154.9L132.4 160.1" stroke="#32A1DF" stroke-width="0.5" stroke-miterlimit="10"/>
<path d="M154.9 154.9L160.1 160.1" stroke="#32A1DF" stroke-width="0.5" stroke-miterlimit="10"/>
<path d="M160.1 154.9L154.9 160.1" stroke="#32A1DF" stroke-width="0.5" stroke-miterlimit="10"/>
<path d="M177.4 154.9L182.6 160.1" stroke="#32A1DF" stroke-width="0.5" stroke-miterlimit="10"/>
<path d="M182.6 154.9L177.4 160.1" stroke="#32A1DF" stroke-width="0.5" stroke-miterlimit="10"/>
<path d="M199.9 154.9L205.1 160.1" stroke="#32A1DF" stroke-width="0.5" stroke-miterlimit="10"/>
<path d="M205.1 154.9L199.9 160.1" stroke="#32A1DF" stroke-width="0.5" stroke-miterlimit="10"/>
<path d="M222.4 154.9L227.6 160.1" stroke="#32A1DF" stroke-width="0.5" stroke-miterlimit="10"/>
<path d="M227.6 154.9L222.4 160.1" stroke="#32A1DF" stroke-width="0.5" stroke-miterlimit="10"/>
<path d="M244.9 154.9L250.1 160.1" stroke="#32A1DF" stroke-width="0.5" stroke-miterlimit="10"/>
<path d="M250.1 154.9L244.9 160.1" stroke="#32A1DF" stroke-width="0.5" stroke-miterlimit="10"/>
<path d="M19.8999 132.4L25.0999 137.6" stroke="#32A1DF" stroke-width="0.5" stroke-miterlimit="10"/>
<path d="M25.0999 132.4L19.8999 137.6" stroke="#32A1DF" stroke-width="0.5" stroke-miterlimit="10"/>
<path d="M42.3999 132.4L47.5999 137.6" stroke="#32A1DF" stroke-width="0.5" stroke-miterlimit="10"/>
<path d="M47.5999 132.4L42.3999 137.6" stroke="#32A1DF" stroke-width="0.5" stroke-miterlimit="10"/>
<path d="M64.8999 132.4L70.0999 137.6" stroke="#32A1DF" stroke-width="0.5" stroke-miterlimit="10"/>
<path d="M70.0999 132.4L64.8999 137.6" stroke="#32A1DF" stroke-width="0.5" stroke-miterlimit="10"/>
<path d="M87.3999 132.4L92.5999 137.6" stroke="#32A1DF" stroke-width="0.5" stroke-miterlimit="10"/>
<path d="M92.5999 132.4L87.3999 137.6" stroke="#32A1DF" stroke-width="0.5" stroke-miterlimit="10"/>
<path d="M109.9 132.4L115.1 137.6" stroke="#32A1DF" stroke-width="0.5" stroke-miterlimit="10"/>
<path d="M115.1 132.4L109.9 137.6" stroke="#32A1DF" stroke-width="0.5" stroke-miterlimit="10"/>
<path d="M132.4 132.4L137.6 137.6" stroke="#32A1DF" stroke-width="0.5" stroke-miterlimit="10"/>
<path d="M137.6 132.4L132.4 137.6" stroke="#32A1DF" stroke-width="0.5" stroke-miterlimit="10"/>
<path d="M154.9 132.4L160.1 137.6" stroke="#32A1DF" stroke-width="0.5" stroke-miterlimit="10"/>
<path d="M160.1 132.4L154.9 137.6" stroke="#32A1DF" stroke-width="0.5" stroke-miterlimit="10"/>
<path d="M177.4 132.4L182.6 137.6" stroke="#32A1DF" stroke-width="0.5" stroke-miterlimit="10"/>
<path d="M182.6 132.4L177.4 137.6" stroke="#32A1DF" stroke-width="0.5" stroke-miterlimit="10"/>
<path d="M199.9 132.4L205.1 137.6" stroke="#32A1DF" stroke-width="0.5" stroke-miterlimit="10"/>
<path d="M205.1 132.4L199.9 137.6" stroke="#32A1DF" stroke-width="0.5" stroke-miterlimit="10"/>
<path d="M222.4 132.4L227.6 137.6" stroke="#32A1DF" stroke-width="0.5" stroke-miterlimit="10"/>
<path d="M227.6 132.4L222.4 137.6" stroke="#32A1DF" stroke-width="0.5" stroke-miterlimit="10"/>
<path d="M244.9 132.4L250.1 137.6" stroke="#32A1DF" stroke-width="0.5" stroke-miterlimit="10"/>
<path d="M250.1 132.4L244.9 137.6" stroke="#32A1DF" stroke-width="0.5" stroke-miterlimit="10"/>
<path d="M19.8999 109.9L25.0999 115.1" stroke="#32A1DF" stroke-width="0.5" stroke-miterlimit="10"/>
<path d="M25.0999 109.9L19.8999 115.1" stroke="#32A1DF" stroke-width="0.5" stroke-miterlimit="10"/>
<path d="M42.3999 109.9L47.5999 115.1" stroke="#32A1DF" stroke-width="0.5" stroke-miterlimit="10"/>
<path d="M47.5999 109.9L42.3999 115.1" stroke="#32A1DF" stroke-width="0.5" stroke-miterlimit="10"/>
<path d="M64.8999 109.9L70.0999 115.1" stroke="#32A1DF" stroke-width="0.5" stroke-miterlimit="10"/>
<path d="M70.0999 109.9L64.8999 115.1" stroke="#32A1DF" stroke-width="0.5" stroke-miterlimit="10"/>
<path d="M87.3999 109.9L92.5999 115.1" stroke="#32A1DF" stroke-width="0.5" stroke-miterlimit="10"/>
<path d="M92.5999 109.9L87.3999 115.1" stroke="#32A1DF" stroke-width="0.5" stroke-miterlimit="10"/>
<path d="M109.9 109.9L115.1 115.1" stroke="#32A1DF" stroke-width="0.5" stroke-miterlimit="10"/>
<path d="M115.1 109.9L109.9 115.1" stroke="#32A1DF" stroke-width="0.5" stroke-miterlimit="10"/>
<path d="M132.4 109.9L137.6 115.1" stroke="#32A1DF" stroke-width="0.5" stroke-miterlimit="10"/>
<path d="M137.6 109.9L132.4 115.1" stroke="#32A1DF" stroke-width="0.5" stroke-miterlimit="10"/>
<path d="M154.9 109.9L160.1 115.1" stroke="#32A1DF" stroke-width="0.5" stroke-miterlimit="10"/>
<path d="M160.1 109.9L154.9 115.1" stroke="#32A1DF" stroke-width="0.5" stroke-miterlimit="10"/>
<path d="M177.4 109.9L182.6 115.1" stroke="#32A1DF" stroke-width="0.5" stroke-miterlimit="10"/>
<path d="M182.6 109.9L177.4 115.1" stroke="#32A1DF" stroke-width="0.5" stroke-miterlimit="10"/>
<path d="M199.9 109.9L205.1 115.1" stroke="#32A1DF" stroke-width="0.5" stroke-miterlimit="10"/>
<path d="M205.1 109.9L199.9 115.1" stroke="#32A1DF" stroke-width="0.5" stroke-miterlimit="10"/>
<path d="M222.4 109.9L227.6 115.1" stroke="#32A1DF" stroke-width="0.5" stroke-miterlimit="10"/>
<path d="M227.6 109.9L222.4 115.1" stroke="#32A1DF" stroke-width="0.5" stroke-miterlimit="10"/>
<path d="M244.9 109.9L250.1 115.1" stroke="#32A1DF" stroke-width="0.5" stroke-miterlimit="10"/>
<path d="M250.1 109.9L244.9 115.1" stroke="#32A1DF" stroke-width="0.5" stroke-miterlimit="10"/>
<path d="M19.8999 87.4L25.0999 92.6" stroke="#32A1DF" stroke-width="0.5" stroke-miterlimit="10"/>
<path d="M25.0999 87.4L19.8999 92.6" stroke="#32A1DF" stroke-width="0.5" stroke-miterlimit="10"/>
<path d="M42.3999 87.4L47.5999 92.6" stroke="#32A1DF" stroke-width="0.5" stroke-miterlimit="10"/>
<path d="M47.5999 87.4L42.3999 92.6" stroke="#32A1DF" stroke-width="0.5" stroke-miterlimit="10"/>
<path d="M64.8999 87.4L70.0999 92.6" stroke="#32A1DF" stroke-width="0.5" stroke-miterlimit="10"/>
<path d="M70.0999 87.4L64.8999 92.6" stroke="#32A1DF" stroke-width="0.5" stroke-miterlimit="10"/>
<path d="M87.3999 87.4L92.5999 92.6" stroke="#32A1DF" stroke-width="0.5" stroke-miterlimit="10"/>
<path d="M92.5999 87.4L87.3999 92.6" stroke="#32A1DF" stroke-width="0.5" stroke-miterlimit="10"/>
<path d="M109.9 87.4L115.1 92.6" stroke="#32A1DF" stroke-width="0.5" stroke-miterlimit="10"/>
<path d="M115.1 87.4L109.9 92.6" stroke="#32A1DF" stroke-width="0.5" stroke-miterlimit="10"/>
<path d="M132.4 87.4L137.6 92.6" stroke="#32A1DF" stroke-width="0.5" stroke-miterlimit="10"/>
<path d="M137.6 87.4L132.4 92.6" stroke="#32A1DF" stroke-width="0.5" stroke-miterlimit="10"/>
<path d="M154.9 87.4L160.1 92.6" stroke="#32A1DF" stroke-width="0.5" stroke-miterlimit="10"/>
<path d="M160.1 87.4L154.9 92.6" stroke="#32A1DF" stroke-width="0.5" stroke-miterlimit="10"/>
<path d="M177.4 87.4L182.6 92.6" stroke="#32A1DF" stroke-width="0.5" stroke-miterlimit="10"/>
<path d="M182.6 87.4L177.4 92.6" stroke="#32A1DF" stroke-width="0.5" stroke-miterlimit="10"/>
<path d="M199.9 87.4L205.1 92.6" stroke="#32A1DF" stroke-width="0.5" stroke-miterlimit="10"/>
<path d="M205.1 87.4L199.9 92.6" stroke="#32A1DF" stroke-width="0.5" stroke-miterlimit="10"/>
<path d="M222.4 87.4L227.6 92.6" stroke="#32A1DF" stroke-width="0.5" stroke-miterlimit="10"/>
<path d="M227.6 87.4L222.4 92.6" stroke="#32A1DF" stroke-width="0.5" stroke-miterlimit="10"/>
<path d="M244.9 87.4L250.1 92.6" stroke="#32A1DF" stroke-width="0.5" stroke-miterlimit="10"/>
<path d="M250.1 87.4L244.9 92.6" stroke="#32A1DF" stroke-width="0.5" stroke-miterlimit="10"/>
<path d="M19.8999 64.9L25.0999 70.1" stroke="#32A1DF" stroke-width="0.5" stroke-miterlimit="10"/>
<path d="M25.0999 64.9L19.8999 70.1" stroke="#32A1DF" stroke-width="0.5" stroke-miterlimit="10"/>
<path d="M42.3999 64.9L47.5999 70.1" stroke="#32A1DF" stroke-width="0.5" stroke-miterlimit="10"/>
<path d="M47.5999 64.9L42.3999 70.1" stroke="#32A1DF" stroke-width="0.5" stroke-miterlimit="10"/>
<path d="M64.8999 64.9L70.0999 70.1" stroke="#32A1DF" stroke-width="0.5" stroke-miterlimit="10"/>
<path d="M70.0999 64.9L64.8999 70.1" stroke="#32A1DF" stroke-width="0.5" stroke-miterlimit="10"/>
<path d="M87.3999 64.9L92.5999 70.1" stroke="#32A1DF" stroke-width="0.5" stroke-miterlimit="10"/>
<path d="M92.5999 64.9L87.3999 70.1" stroke="#32A1DF" stroke-width="0.5" stroke-miterlimit="10"/>
<path d="M109.9 64.9L115.1 70.1" stroke="#32A1DF" stroke-width="0.5" stroke-miterlimit="10"/>
<path d="M115.1 64.9L109.9 70.1" stroke="#32A1DF" stroke-width="0.5" stroke-miterlimit="10"/>
<path d="M132.4 64.9L137.6 70.1" stroke="#32A1DF" stroke-width="0.5" stroke-miterlimit="10"/>
<path d="M137.6 64.9L132.4 70.1" stroke="#32A1DF" stroke-width="0.5" stroke-miterlimit="10"/>
<path d="M154.9 64.9L160.1 70.1" stroke="#32A1DF" stroke-width="0.5" stroke-miterlimit="10"/>
<path d="M160.1 64.9L154.9 70.1" stroke="#32A1DF" stroke-width="0.5" stroke-miterlimit="10"/>
<path d="M177.4 64.9L182.6 70.1" stroke="#32A1DF" stroke-width="0.5" stroke-miterlimit="10"/>
<path d="M182.6 64.9L177.4 70.1" stroke="#32A1DF" stroke-width="0.5" stroke-miterlimit="10"/>
<path d="M199.9 64.9L205.1 70.1" stroke="#32A1DF" stroke-width="0.5" stroke-miterlimit="10"/>
<path d="M205.1 64.9L199.9 70.1" stroke="#32A1DF" stroke-width="0.5" stroke-miterlimit="10"/>
<path d="M222.4 64.9L227.6 70.1" stroke="#32A1DF" stroke-width="0.5" stroke-miterlimit="10"/>
<path d="M227.6 64.9L222.4 70.1" stroke="#32A1DF" stroke-width="0.5" stroke-miterlimit="10"/>
<path d="M244.9 64.9L250.1 70.1" stroke="#32A1DF" stroke-width="0.5" stroke-miterlimit="10"/>
<path d="M250.1 64.9L244.9 70.1" stroke="#32A1DF" stroke-width="0.5" stroke-miterlimit="10"/>
<path d="M19.8999 42.4L25.0999 47.6" stroke="#32A1DF" stroke-width="0.5" stroke-miterlimit="10"/>
<path d="M25.0999 42.4L19.8999 47.6" stroke="#32A1DF" stroke-width="0.5" stroke-miterlimit="10"/>
<path d="M42.3999 42.4L47.5999 47.6" stroke="#32A1DF" stroke-width="0.5" stroke-miterlimit="10"/>
<path d="M47.5999 42.4L42.3999 47.6" stroke="#32A1DF" stroke-width="0.5" stroke-miterlimit="10"/>
<path d="M64.8999 42.4L70.0999 47.6" stroke="#32A1DF" stroke-width="0.5" stroke-miterlimit="10"/>
<path d="M70.0999 42.4L64.8999 47.6" stroke="#32A1DF" stroke-width="0.5" stroke-miterlimit="10"/>
<path d="M87.3999 42.4L92.5999 47.6" stroke="#32A1DF" stroke-width="0.5" stroke-miterlimit="10"/>
<path d="M92.5999 42.4L87.3999 47.6" stroke="#32A1DF" stroke-width="0.5" stroke-miterlimit="10"/>
<path d="M109.9 42.4L115.1 47.6" stroke="#32A1DF" stroke-width="0.5" stroke-miterlimit="10"/>
<path d="M115.1 42.4L109.9 47.6" stroke="#32A1DF" stroke-width="0.5" stroke-miterlimit="10"/>
<path d="M132.4 42.4L137.6 47.6" stroke="#32A1DF" stroke-width="0.5" stroke-miterlimit="10"/>
<path d="M137.6 42.4L132.4 47.6" stroke="#32A1DF" stroke-width="0.5" stroke-miterlimit="10"/>
<path d="M154.9 42.4L160.1 47.6" stroke="#32A1DF" stroke-width="0.5" stroke-miterlimit="10"/>
<path d="M160.1 42.4L154.9 47.6" stroke="#32A1DF" stroke-width="0.5" stroke-miterlimit="10"/>
<path d="M177.4 42.4L182.6 47.6" stroke="#32A1DF" stroke-width="0.5" stroke-miterlimit="10"/>
<path d="M182.6 42.4L177.4 47.6" stroke="#32A1DF" stroke-width="0.5" stroke-miterlimit="10"/>
<path d="M199.9 42.4L205.1 47.6" stroke="#32A1DF" stroke-width="0.5" stroke-miterlimit="10"/>
<path d="M205.1 42.4L199.9 47.6" stroke="#32A1DF" stroke-width="0.5" stroke-miterlimit="10"/>
<path d="M222.4 42.4L227.6 47.6" stroke="#32A1DF" stroke-width="0.5" stroke-miterlimit="10"/>
<path d="M227.6 42.4L222.4 47.6" stroke="#32A1DF" stroke-width="0.5" stroke-miterlimit="10"/>
<path d="M244.9 42.4L250.1 47.6" stroke="#32A1DF" stroke-width="0.5" stroke-miterlimit="10"/>
<path d="M250.1 42.4L244.9 47.6" stroke="#32A1DF" stroke-width="0.5" stroke-miterlimit="10"/>
<path d="M42.3999 19.9L47.5999 25.1" stroke="#32A1DF" stroke-width="0.5" stroke-miterlimit="10"/>
<path d="M47.5999 19.9L42.3999 25.1" stroke="#32A1DF" stroke-width="0.5" stroke-miterlimit="10"/>
<path d="M64.8999 19.9L70.0999 25.1" stroke="#32A1DF" stroke-width="0.5" stroke-miterlimit="10"/>
<path d="M70.0999 19.9L64.8999 25.1" stroke="#32A1DF" stroke-width="0.5" stroke-miterlimit="10"/>
<path d="M87.3999 19.9L92.5999 25.1" stroke="#32A1DF" stroke-width="0.5" stroke-miterlimit="10"/>
<path d="M92.5999 19.9L87.3999 25.1" stroke="#32A1DF" stroke-width="0.5" stroke-miterlimit="10"/>
<path d="M109.9 19.9L115.1 25.1" stroke="#32A1DF" stroke-width="0.5" stroke-miterlimit="10"/>
<path d="M115.1 19.9L109.9 25.1" stroke="#32A1DF" stroke-width="0.5" stroke-miterlimit="10"/>
<path d="M132.4 19.9L137.6 25.1" stroke="#32A1DF" stroke-width="0.5" stroke-miterlimit="10"/>
<path d="M137.6 19.9L132.4 25.1" stroke="#32A1DF" stroke-width="0.5" stroke-miterlimit="10"/>
<path d="M154.9 19.9L160.1 25.1" stroke="#32A1DF" stroke-width="0.5" stroke-miterlimit="10"/>
<path d="M160.1 19.9L154.9 25.1" stroke="#32A1DF" stroke-width="0.5" stroke-miterlimit="10"/>
<path d="M177.4 19.9L182.6 25.1" stroke="#32A1DF" stroke-width="0.5" stroke-miterlimit="10"/>
<path d="M182.6 19.9L177.4 25.1" stroke="#32A1DF" stroke-width="0.5" stroke-miterlimit="10"/>
<path d="M199.9 19.9L205.1 25.1" stroke="#32A1DF" stroke-width="0.5" stroke-miterlimit="10"/>
<path d="M205.1 19.9L199.9 25.1" stroke="#32A1DF" stroke-width="0.5" stroke-miterlimit="10"/>
<path d="M222.4 19.9L227.6 25.1" stroke="#32A1DF" stroke-width="0.5" stroke-miterlimit="10"/>
<path d="M227.6 19.9L222.4 25.1" stroke="#32A1DF" stroke-width="0.5" stroke-miterlimit="10"/>
<path d="M244.9 19.9L250.1 25.1" stroke="#32A1DF" stroke-width="0.5" stroke-miterlimit="10"/>
<path d="M250.1 19.9L244.9 25.1" stroke="#32A1DF" stroke-width="0.5" stroke-miterlimit="10"/>
</g>
<path d="M0.5 44.39L44.39 0.5H269.5V179.5H0.5V44.39Z" stroke="#32A1DF"/>
<path d="M232.61 53.49C232.52 53.21 232.21 53.05 231.92 53.14C231.47 53.29 227.52 54.62 226.48 56.25C226.13 56.79 226.04 57.26 226.18 57.65C225.73 57.81 225.2 58.05 224.59 58.4C207.38 58.66 177.64 69.85 177.34 69.96C177.2 70.01 177.08 70.12 177.03 70.27C176.97 70.41 176.98 70.57 177.04 70.71L177.26 71.18C176.69 71.25 175.79 71.37 174.49 71.59C172.71 71.89 171.63 72.29 171.36 72.75C171.28 72.89 171.27 73.07 171.33 73.22L171.66 74.04L165.73 75.81C164.8 75.56 159.75 74.24 152.9 73.43C148.62 72.93 146.26 73.09 144.36 73.23C142.86 73.33 141.57 73.43 139.74 73.16C135.89 72.6 133.64 73.46 133.09 73.7C132.89 73.68 132.17 73.53 130.45 72.6C128.19 71.38 125.12 70.21 121.37 72.04C118.88 73.26 115.03 74.17 111.94 74.91C110.93 75.15 110.01 75.37 109.25 75.57C106.83 76.22 105.81 77.05 105.42 77.48C104.67 77.48 103.74 77.36 103.24 77.28C103 75.78 102.71 74.89 102.7 74.86C102.63 74.66 102.46 74.52 102.25 74.5C102.18 74.5 95.35 73.57 80.73 65.4C75.58 62.53 71.94 60 69.01 57.97C63.47 54.13 60.37 51.98 54.41 52.34C53.14 48.49 51.06 45.52 50.97 45.39C50.8 45.14 50.46 45.09 50.21 45.26C50.07 45.36 49.99 45.52 49.99 45.69L37.39 112.23C37.33 112.41 37.36 112.61 37.49 112.76C37.64 112.93 41.14 116.86 48.28 120.57C53.72 123.39 55.68 124.59 58.65 126.41C59.56 126.97 60.56 127.58 61.77 128.31C66.94 131.41 69.46 131.93 69.56 131.95C69.59 131.95 69.63 131.95 69.66 131.95C69.78 131.95 69.9 131.91 69.99 131.84L73.87 128.83C74.95 129.32 75.62 129.58 75.64 129.59C75.7 129.61 75.77 129.63 75.84 129.63C76.02 129.63 76.2 129.54 76.3 129.38C76.34 129.32 77.53 127.44 79.43 124.53C80.29 124.58 82.89 124.84 84.57 126.1C85.73 126.97 86.72 127.2 87.46 127.2C88.29 127.2 88.79 126.9 88.82 126.88C88.89 126.84 88.95 126.78 88.99 126.72C89.03 126.66 91.7 122.53 95.32 115.78C96.18 116.07 98.26 116.77 100.72 117.62C100.58 118.68 100.59 121.14 103.26 122.87C103.96 123.32 104.65 123.51 105.32 123.51C107.15 123.51 108.79 122.12 109.74 120.94C109.44 122.02 109.17 124.25 110.65 127.31C111.32 128.7 112.5 129.54 114.08 129.75C114.35 129.79 114.62 129.8 114.89 129.8C116.38 129.8 117.95 129.3 119.23 128.64C119.66 130.14 120.92 130.98 123.3 131.38C123.88 131.48 124.43 131.52 124.93 131.52C126.19 131.52 127.17 131.27 127.77 131.06C127.84 131.35 127.94 131.65 128.08 131.94C128.5 132.8 129.42 133.95 131.43 134.55C132.15 134.76 132.82 134.85 133.42 134.85C134.62 134.85 135.57 134.5 136.23 134.13C137.2 133.6 137.96 132.78 138.35 131.93C138.91 131.97 139.47 131.99 140.03 131.99C140.73 131.99 141.42 131.95 142.1 131.9C142.1 131.9 142.11 131.9 142.12 131.9C142.13 131.9 142.15 131.9 142.16 131.89C142.59 131.86 143.01 131.81 143.42 131.76C143.42 131.76 143.43 131.76 143.44 131.76C143.47 131.76 143.5 131.76 143.52 131.76C143.52 131.76 143.56 131.76 143.62 131.74C145.71 131.45 147.51 130.93 148.72 130.32C150.75 129.29 151.19 128.01 151.27 127.33C152.03 127.02 153.85 126.2 155.2 124.87C156.13 123.96 156.38 123.14 156.39 122.52C156.98 122.66 157.81 122.74 158.8 122.54C160.5 122.19 161.52 120.31 162.34 118.79C162.55 118.4 162.76 118.02 162.96 117.69C163.62 116.63 163.65 115.36 163.56 114.52C165 114.89 167.92 115.27 170.35 113.3C172.9 111.23 173.38 108.68 171.75 105.89L173.83 104.2C174.22 104.14 175.33 103.96 177.26 103.44C180.28 110.79 182.11 112.53 182.75 112.93L186.66 119.46C186.77 119.64 186.98 119.74 187.19 119.72L188.36 119.58C189.14 119.49 190.77 119.89 191.56 120.11C192.16 121.24 195.14 126.68 199.01 130.86C199.15 131.01 199.35 131.07 199.54 131.02C208.57 128.76 230.91 116 231.86 115.46C232.12 115.31 232.21 114.98 232.06 114.72L232.58 53.79C232.61 53.69 232.62 53.58 232.58 53.47L232.61 53.49Z" fill="white"/>
<path d="M44.5601 110.14C44.5601 110.14 52.4901 113.43 59.9001 119.61C67.3101 125.79 75.8501 129.08 75.8501 129.08C75.8501 129.08 87.4801 110.66 96.8501 98.72C106.22 86.78 102.2 75.05 102.2 75.05C102.2 75.05 95.4101 74.23 80.4801 65.89C65.5601 57.55 63.2901 52.2 54.0301 52.92C52.7901 48.91 50.5301 45.72 50.5301 45.72" stroke="#32A1DF" stroke-linecap="round" stroke-linejoin="round"/>
<path d="M58.5601 60.01C58.5601 60.01 59.8001 57.85 59.3801 56.51" stroke="#32A1DF" stroke-linecap="round" stroke-linejoin="round"/>
<path d="M57.3303 53.94C57.3303 53.94 57.2303 56.72 57.8403 58.98C59.1803 63.89 54.0303 52.91 54.0303 52.91" stroke="#32A1DF" stroke-linecap="round" stroke-linejoin="round"/>
<path d="M37.9102 112.4C37.9102 112.4 41.4102 116.38 48.5502 120.08C55.6902 123.78 56.9202 124.75 62.0702 127.83C67.2202 130.91 69.6902 131.4 69.6902 131.4L73.8202 128.19" stroke="#32A1DF" stroke-linecap="round" stroke-linejoin="round"/>
<path d="M79.1504 123.95C79.1504 123.95 82.7104 123.99 84.9104 125.64C87.1104 127.29 88.5504 126.39 88.5504 126.39C88.5504 126.39 93.5604 118.71 99.2504 106.83C104.94 94.95 106.8 86.73 105.7 78.01C104.53 78.08 102.79 77.74 102.79 77.74" stroke="#32A1DF" stroke-linecap="round" stroke-linejoin="round"/>
<path d="M105.7 78.02C105.7 78.02 106.32 76.92 109.41 76.1C112.5 75.28 118.26 74.18 121.62 72.53C124.98 70.88 127.8 71.78 130.2 73.08C132.6 74.38 133.22 74.25 133.22 74.25C133.22 74.25 135.42 73.08 139.67 73.7C143.92 74.32 145.23 73.08 152.84 73.97C160.45 74.86 165.74 76.37 165.74 76.37L172.4 74.38L171.85 73.01C171.85 73.01 172.12 72.53 174.59 72.12C177.06 71.71 178.09 71.64 178.09 71.64L177.54 70.48C177.54 70.48 207.46 59.16 224.75 58.95C226.74 57.78 227.84 57.85 227.84 57.85C227.84 57.85 225.99 58.06 226.95 56.55C227.91 55.04 232.1 53.67 232.1 53.67" stroke="#32A1DF" stroke-linecap="round" stroke-linejoin="round"/>
<path d="M95.0801 115.09C95.0801 115.09 106.62 118.97 111.7 120.89C111.7 120.89 114.25 117.55 118.23 118.17C122.21 118.79 122.42 121.77 122.42 121.77C122.42 121.77 123.45 118.96 126.81 118.96C130.17 118.96 132.47 121.64 131.41 124.28C133.23 123.49 137.45 124.59 136.18 131.14C140.95 131.93 145.99 131.11 148.5 129.84C151.01 128.57 150.76 126.96 150.76 126.96C150.76 126.96 153.2 126.1 154.84 124.49C156.48 122.88 155.66 121.68 155.66 121.68C155.66 121.68 156.86 122.4 158.71 122.02C160.56 121.64 161.56 118.97 162.52 117.42C163.48 115.87 162.9 113.75 162.9 113.75C162.9 113.75 166.95 115.4 170.04 112.89C173.13 110.38 172.35 107.74 171.07 105.79L173.64 103.7C173.64 103.7 174.88 103.56 177.62 102.81C181.26 111.8 183.18 112.55 183.18 112.55L187.16 119.21L188.33 119.07C189.5 118.93 191.97 119.69 191.97 119.69C191.97 119.69 195.13 125.87 199.45 130.53C208.51 128.27 231.63 115.02 231.63 115.02" stroke="#32A1DF" stroke-linecap="round" stroke-linejoin="round"/>
<path d="M172.4 74.39C172.4 74.39 173.84 73.43 178.51 90.17C183.18 106.91 183.72 111.24 183.18 112.54C183.18 112.54 185.48 112.27 188.46 112.54C191.44 112.81 193.6 110.66 193.6 110.66" stroke="#32A1DF" stroke-linecap="round" stroke-linejoin="round"/>
<path d="M178.09 71.64C178.09 71.64 188.8 80 196.91 127.49" stroke="#32A1DF" stroke-linecap="round" stroke-linejoin="round"/>
<path d="M191.95 119.67C191.95 119.67 193.8 120.24 195.3 118.69" stroke="#32A1DF" stroke-linecap="round" stroke-linejoin="round"/>
<path d="M131.4 124.27C131.4 124.27 130.44 124.48 129.72 126.16C129 127.84 128.93 127.36 128.42 128.66C127.91 129.96 128.04 132.95 131.61 134.01C135.18 135.07 137.58 132.85 138.03 131.36" stroke="#32A1DF" stroke-linecap="round" stroke-linejoin="round"/>
<path d="M110.5 120.44C110.5 120.44 109.16 122.93 111.15 127.05C113.14 131.17 119.42 128.56 121.1 126.64C122.78 124.72 122.4 121.77 122.4 121.77" stroke="#32A1DF" stroke-linecap="round" stroke-linejoin="round"/>
<path d="M128.21 130.29C128.21 130.29 126.29 131.31 123.41 130.83C120.53 130.35 119.79 129.28 119.65 127.81" stroke="#32A1DF" stroke-linecap="round" stroke-linejoin="round"/>
<path d="M101.36 117.23C101.36 117.23 100.42 120.33 103.57 122.39C106.73 124.45 109.65 120.14 109.65 120.14" stroke="#32A1DF" stroke-linecap="round" stroke-linejoin="round"/>
<path d="M171.06 105.78C171.06 105.78 165.26 101.76 160.39 99.57C155.52 97.38 153.39 95.47 150.37 93.47C147.35 91.47 146.46 91.27 143.3 89.83C140.14 88.39 137.33 86.88 134.65 83.86" stroke="#32A1DF" stroke-linecap="round" stroke-linejoin="round"/>
<path d="M152.62 95.03C152.62 95.03 154.83 95.94 159.97 93.95" stroke="#32A1DF" stroke-linecap="round" stroke-linejoin="round"/>
<path d="M171.85 92.23C171.85 92.23 174.32 99.59 172.4 104.69" stroke="#32A1DF" stroke-linecap="round" stroke-linejoin="round"/>
<path d="M174.45 97.37C174.45 97.37 175.07 98.67 174.45 101.76" stroke="#32A1DF" stroke-linecap="round" stroke-linejoin="round"/>
<path d="M165.74 76.38C165.74 76.38 167.39 77.41 167.66 79.81" stroke="#32A1DF" stroke-linecap="round" stroke-linejoin="round"/>
<path d="M167.01 76C167.01 76 167.92 76.88 168.05 77.5" stroke="#32A1DF" stroke-linecap="round" stroke-linejoin="round"/>
<path d="M80.8403 121.38C80.8403 121.38 81.6203 122.96 83.2703 123.27C84.9203 123.58 85.8103 123.65 86.3903 124.26" stroke="#32A1DF" stroke-linecap="round" stroke-linejoin="round"/>
<path d="M133.22 74.25C133.22 74.25 128.55 76.99 124.85 78.09C121.14 79.19 119.02 78.84 117.78 82.62C116.54 86.4 116.13 89.62 114.56 92.64C112.99 95.66 112.91 97.56 113.6 98.46C114.29 99.36 115.59 100.19 119.64 98.82C123.69 97.45 125.4 96.69 126.71 92.99C128.02 89.29 127.6 88.8 127.6 88.8C127.6 88.8 129.38 88.75 130.96 88.11C132.54 87.47 134.46 87.97 136.15 88C137.84 88.03 138.98 87.55 138.98 87.55" stroke="#32A1DF" stroke-linecap="round" stroke-linejoin="round"/>
<path d="M126.07 85.16C126.07 85.16 127.71 87.13 127.59 88.8" stroke="#32A1DF" stroke-linecap="round" stroke-linejoin="round"/>
<path d="M116.31 90.56C116.31 90.56 118.19 90.38 118.87 91.93C119.55 93.48 118.32 95.54 117.59 96.18C116.86 96.82 115.62 96.77 113.98 96.18" stroke="#32A1DF" stroke-linecap="round" stroke-linejoin="round"/>
<path d="M150.75 126.95C150.75 126.95 148.93 127.43 145.71 126.33C142.49 125.23 141.85 123.88 138.98 122.94C136.11 122.01 133.12 120.44 133.12 120.44" stroke="#32A1DF" stroke-linecap="round" stroke-linejoin="round"/>
<path d="M155.65 121.66C155.65 121.66 153.25 119.88 147.14 117.54C141.03 115.21 138.63 114.32 138.63 114.32" stroke="#32A1DF" stroke-linecap="round" stroke-linejoin="round"/>
<path d="M162.89 113.74C162.89 113.74 158.1 111.3 152.62 108.83C147.14 106.36 145.91 104.69 145.91 104.69C145.91 104.69 144.81 103.69 144.33 102.79" stroke="#32A1DF" stroke-linecap="round" stroke-linejoin="round"/>
<path d="M144.33 104.69C144.33 104.69 145.05 105.01 146.44 105.22" stroke="#32A1DF" stroke-linecap="round" stroke-linejoin="round"/>
<path d="M132.6 109.48C132.6 109.48 135.17 112.53 138.78 112.53" stroke="#32A1DF" stroke-linecap="round" stroke-linejoin="round"/>
<path d="M138.47 110.69C138.47 110.69 139.46 111.48 139.46 111.96" stroke="#32A1DF" stroke-linecap="round" stroke-linejoin="round"/>
<path d="M139.94 111.01L140.52 111.96" stroke="#32A1DF" stroke-linecap="round" stroke-linejoin="round"/>
<path d="M159.22 118.95C159.22 118.95 159.87 118.4 160.21 116.82" stroke="#32A1DF" stroke-linecap="round" stroke-linejoin="round"/>
<path d="M160.22 118.95C160.22 118.95 160.43 118.5 160.43 117.99" stroke="#32A1DF" stroke-linecap="round" stroke-linejoin="round"/>
<path d="M163.82 104.96C163.82 104.96 163.51 108.01 161.21 109.49" stroke="#32A1DF" stroke-linecap="round" stroke-linejoin="round"/>
<path d="M164.64 107.01C164.64 107.01 163.47 109.31 161.93 109.48" stroke="#32A1DF" stroke-linecap="round" stroke-linejoin="round"/>
<path d="M142.12 131.36C142.12 131.36 143.57 130.59 144.33 128.16" stroke="#32A1DF" stroke-linecap="round" stroke-linejoin="round"/>
<path d="M143.44 131.22C143.44 131.22 144.58 131.04 145.38 129.58" stroke="#32A1DF" stroke-linecap="round" stroke-linejoin="round"/>
<path d="M131.78 124.73C131.78 124.73 131.92 126.33 134.02 126.86C134.11 128.96 132.26 129.44 131.05 128.62C129.84 127.8 129.84 127.43 129.84 127.43" stroke="#32A1DF" stroke-linecap="round" stroke-linejoin="round"/>
<path d="M126.22 121.39C126.22 121.39 123.91 123.33 123.68 124.09C123.45 124.85 125.58 127.2 128.05 126.29" stroke="#32A1DF" stroke-linecap="round" stroke-linejoin="round"/>
<path d="M126.95 121.09C126.95 121.09 129.97 122.83 130.22 123.58C130.47 124.33 128.8 126.03 128.8 126.03" stroke="#32A1DF" stroke-linecap="round" stroke-linejoin="round"/>
<path d="M114.6 123.38C114.6 123.38 116.2 125.99 118.56 126.03C120.09 126.08 121.67 123.74 121.67 123.74C121.67 123.74 119.82 122.69 118.14 120.95C116.66 121.45 115.06 122.94 115.06 122.94" stroke="#32A1DF" stroke-linecap="round" stroke-linejoin="round"/>
<path d="M136.17 131.13C136.17 131.13 135.92 132.62 135.12 133.3" stroke="#32A1DF" stroke-linecap="round" stroke-linejoin="round"/>
<path d="M37.3998 112.23C37.3398 112.41 37.3698 112.61 37.4998 112.76C37.6498 112.93 41.1498 116.86 48.2898 120.57C53.7298 123.39 55.6898 124.59 58.6598 126.41C59.5698 126.97 60.5698 127.58 61.7798 128.31C66.9498 131.41 69.4698 131.93 69.5698 131.95C69.5998 131.95 69.6398 131.95 69.6698 131.95C69.7898 131.95 69.9098 131.91 69.9998 131.84L73.8798 128.83C74.9598 129.32 75.6298 129.58 75.6498 129.59C75.7098 129.61 75.7798 129.63 75.8498 129.63C76.0298 129.63 76.2098 129.54 76.3098 129.38C76.3498 129.32 77.5398 127.44 79.4398 124.53C80.2998 124.58 82.8998 124.84 84.5798 126.1C85.7398 126.97 86.7298 127.2 87.4698 127.2C88.2998 127.2 88.7998 126.9 88.8298 126.88C88.8998 126.84 88.9598 126.78 88.9998 126.72C89.0398 126.66 91.7098 122.53 95.3298 115.78C96.1898 116.07 98.2698 116.77 100.73 117.62C100.59 118.68 100.6 121.14 103.27 122.87C103.97 123.32 104.66 123.51 105.33 123.51C107.16 123.51 108.8 122.12 109.75 120.94C109.45 122.02 109.18 124.25 110.66 127.31C111.33 128.7 112.51 129.54 114.09 129.75C114.36 129.79 114.63 129.8 114.9 129.8C116.39 129.8 117.96 129.3 119.24 128.64C119.67 130.14 120.93 130.98 123.31 131.38C123.89 131.48 124.44 131.52 124.94 131.52C126.2 131.52 127.18 131.27 127.78 131.06C127.85 131.35 127.95 131.65 128.09 131.94C128.51 132.8 129.43 133.95 131.44 134.55C132.16 134.76 132.83 134.85 133.43 134.85C134.63 134.85 135.58 134.5 136.24 134.13C137.21 133.6 137.97 132.78 138.36 131.93C138.92 131.97 139.48 131.99 140.04 131.99C140.74 131.99 141.43 131.95 142.11 131.9C142.11 131.9 142.12 131.9 142.13 131.9C142.14 131.9 142.16 131.9 142.17 131.89C142.6 131.86 143.02 131.81 143.43 131.76C143.43 131.76 143.44 131.76 143.45 131.76C143.48 131.76 143.51 131.76 143.53 131.76C143.53 131.76 143.57 131.76 143.63 131.74C145.72 131.45 147.52 130.93 148.73 130.32C150.76 129.29 151.2 128.01 151.28 127.33C152.04 127.02 153.86 126.2 155.21 124.87C156.14 123.96 156.39 123.14 156.4 122.52C156.99 122.66 157.82 122.74 158.81 122.54C160.51 122.19 161.53 120.31 162.35 118.79C162.56 118.4 162.77 118.02 162.97 117.69C163.63 116.63 163.66 115.36 163.57 114.52C165.01 114.89 167.93 115.27 170.36 113.3C172.91 111.23 173.39 108.68 171.76 105.89L173.84 104.2C174.23 104.14 175.34 103.96 177.27 103.44C180.29 110.79 182.12 112.53 182.76 112.93L186.67 119.46C186.78 119.64 186.99 119.74 187.2 119.72L188.37 119.58C189.15 119.49 190.78 119.89 191.57 120.11C192.17 121.24 195.15 126.68 199.02 130.86C199.16 131.01 199.36 131.07 199.55 131.02C208.58 128.76 230.92 116 231.87 115.46C232.13 115.31 232.22 114.98 232.07 114.72" stroke="#32A1DF" stroke-width="1.5" stroke-miterlimit="10"/>
<path d="M232.6 53.81C232.63 53.71 232.64 53.6 232.6 53.49C232.51 53.21 232.2 53.05 231.91 53.14C231.46 53.29 227.51 54.62 226.47 56.25C226.12 56.79 226.03 57.26 226.17 57.65C225.72 57.81 225.19 58.05 224.58 58.4C207.37 58.66 177.63 69.85 177.33 69.96C177.19 70.01 177.07 70.12 177.02 70.27C176.96 70.41 176.97 70.57 177.03 70.71L177.25 71.18C176.68 71.25 175.78 71.37 174.48 71.59C172.7 71.89 171.62 72.29 171.35 72.75C171.27 72.89 171.26 73.07 171.32 73.22L171.65 74.04L165.72 75.81C164.79 75.56 159.74 74.24 152.89 73.43C148.61 72.93 146.25 73.09 144.35 73.23C142.85 73.33 141.56 73.43 139.73 73.16C135.88 72.6 133.63 73.46 133.08 73.7C132.88 73.68 132.16 73.53 130.44 72.6C128.18 71.38 125.11 70.21 121.36 72.04C118.87 73.26 115.02 74.17 111.93 74.91C110.92 75.15 110 75.37 109.24 75.57C106.82 76.22 105.8 77.05 105.41 77.48C104.66 77.48 103.73 77.36 103.23 77.28C102.99 75.78 102.7 74.89 102.69 74.86C102.62 74.66 102.45 74.52 102.24 74.5C102.17 74.5 95.34 73.57 80.72 65.4C75.57 62.53 71.93 60 69 57.97C63.46 54.13 60.36 51.98 54.4 52.34C53.13 48.49 51.05 45.52 50.96 45.39C50.79 45.14 50.45 45.09 50.2 45.26C50.06 45.36 49.98 45.52 49.98 45.69" stroke="#32A1DF" stroke-width="1.5" stroke-miterlimit="10"/>
</g>
<defs>
<clipPath id="clip0_684_4419">
<rect width="270" height="180" fill="white"/>
</clipPath>
</defs>
</svg>
