<svg width="270" height="181" viewBox="0 0 270 181" fill="none" xmlns="http://www.w3.org/2000/svg">
<g opacity="0.5">
<path d="M19.8999 154.9L25.0999 160.1" stroke="#32A1DF" stroke-width="0.5" stroke-miterlimit="10"/>
<path d="M25.0999 154.9L19.8999 160.1" stroke="#32A1DF" stroke-width="0.5" stroke-miterlimit="10"/>
<path d="M42.3999 154.9L47.5999 160.1" stroke="#32A1DF" stroke-width="0.5" stroke-miterlimit="10"/>
<path d="M47.5999 154.9L42.3999 160.1" stroke="#32A1DF" stroke-width="0.5" stroke-miterlimit="10"/>
<path d="M64.8999 154.9L70.0999 160.1" stroke="#32A1DF" stroke-width="0.5" stroke-miterlimit="10"/>
<path d="M70.0999 154.9L64.8999 160.1" stroke="#32A1DF" stroke-width="0.5" stroke-miterlimit="10"/>
<path d="M87.3999 154.9L92.5999 160.1" stroke="#32A1DF" stroke-width="0.5" stroke-miterlimit="10"/>
<path d="M92.5999 154.9L87.3999 160.1" stroke="#32A1DF" stroke-width="0.5" stroke-miterlimit="10"/>
<path d="M109.9 154.9L115.1 160.1" stroke="#32A1DF" stroke-width="0.5" stroke-miterlimit="10"/>
<path d="M115.1 154.9L109.9 160.1" stroke="#32A1DF" stroke-width="0.5" stroke-miterlimit="10"/>
<path d="M132.4 154.9L137.6 160.1" stroke="#32A1DF" stroke-width="0.5" stroke-miterlimit="10"/>
<path d="M137.6 154.9L132.4 160.1" stroke="#32A1DF" stroke-width="0.5" stroke-miterlimit="10"/>
<path d="M154.9 154.9L160.1 160.1" stroke="#32A1DF" stroke-width="0.5" stroke-miterlimit="10"/>
<path d="M160.1 154.9L154.9 160.1" stroke="#32A1DF" stroke-width="0.5" stroke-miterlimit="10"/>
<path d="M177.4 154.9L182.6 160.1" stroke="#32A1DF" stroke-width="0.5" stroke-miterlimit="10"/>
<path d="M182.6 154.9L177.4 160.1" stroke="#32A1DF" stroke-width="0.5" stroke-miterlimit="10"/>
<path d="M199.9 154.9L205.1 160.1" stroke="#32A1DF" stroke-width="0.5" stroke-miterlimit="10"/>
<path d="M205.1 154.9L199.9 160.1" stroke="#32A1DF" stroke-width="0.5" stroke-miterlimit="10"/>
<path d="M222.4 154.9L227.6 160.1" stroke="#32A1DF" stroke-width="0.5" stroke-miterlimit="10"/>
<path d="M227.6 154.9L222.4 160.1" stroke="#32A1DF" stroke-width="0.5" stroke-miterlimit="10"/>
<path d="M244.9 154.9L250.1 160.1" stroke="#32A1DF" stroke-width="0.5" stroke-miterlimit="10"/>
<path d="M250.1 154.9L244.9 160.1" stroke="#32A1DF" stroke-width="0.5" stroke-miterlimit="10"/>
<path d="M19.8999 132.4L25.0999 137.6" stroke="#32A1DF" stroke-width="0.5" stroke-miterlimit="10"/>
<path d="M25.0999 132.4L19.8999 137.6" stroke="#32A1DF" stroke-width="0.5" stroke-miterlimit="10"/>
<path d="M42.3999 132.4L47.5999 137.6" stroke="#32A1DF" stroke-width="0.5" stroke-miterlimit="10"/>
<path d="M47.5999 132.4L42.3999 137.6" stroke="#32A1DF" stroke-width="0.5" stroke-miterlimit="10"/>
<path d="M64.8999 132.4L70.0999 137.6" stroke="#32A1DF" stroke-width="0.5" stroke-miterlimit="10"/>
<path d="M70.0999 132.4L64.8999 137.6" stroke="#32A1DF" stroke-width="0.5" stroke-miterlimit="10"/>
<path d="M87.3999 132.4L92.5999 137.6" stroke="#32A1DF" stroke-width="0.5" stroke-miterlimit="10"/>
<path d="M92.5999 132.4L87.3999 137.6" stroke="#32A1DF" stroke-width="0.5" stroke-miterlimit="10"/>
<path d="M109.9 132.4L115.1 137.6" stroke="#32A1DF" stroke-width="0.5" stroke-miterlimit="10"/>
<path d="M115.1 132.4L109.9 137.6" stroke="#32A1DF" stroke-width="0.5" stroke-miterlimit="10"/>
<path d="M132.4 132.4L137.6 137.6" stroke="#32A1DF" stroke-width="0.5" stroke-miterlimit="10"/>
<path d="M137.6 132.4L132.4 137.6" stroke="#32A1DF" stroke-width="0.5" stroke-miterlimit="10"/>
<path d="M154.9 132.4L160.1 137.6" stroke="#32A1DF" stroke-width="0.5" stroke-miterlimit="10"/>
<path d="M160.1 132.4L154.9 137.6" stroke="#32A1DF" stroke-width="0.5" stroke-miterlimit="10"/>
<path d="M177.4 132.4L182.6 137.6" stroke="#32A1DF" stroke-width="0.5" stroke-miterlimit="10"/>
<path d="M182.6 132.4L177.4 137.6" stroke="#32A1DF" stroke-width="0.5" stroke-miterlimit="10"/>
<path d="M199.9 132.4L205.1 137.6" stroke="#32A1DF" stroke-width="0.5" stroke-miterlimit="10"/>
<path d="M205.1 132.4L199.9 137.6" stroke="#32A1DF" stroke-width="0.5" stroke-miterlimit="10"/>
<path d="M222.4 132.4L227.6 137.6" stroke="#32A1DF" stroke-width="0.5" stroke-miterlimit="10"/>
<path d="M227.6 132.4L222.4 137.6" stroke="#32A1DF" stroke-width="0.5" stroke-miterlimit="10"/>
<path d="M244.9 132.4L250.1 137.6" stroke="#32A1DF" stroke-width="0.5" stroke-miterlimit="10"/>
<path d="M250.1 132.4L244.9 137.6" stroke="#32A1DF" stroke-width="0.5" stroke-miterlimit="10"/>
<path d="M19.8999 109.9L25.0999 115.1" stroke="#32A1DF" stroke-width="0.5" stroke-miterlimit="10"/>
<path d="M25.0999 109.9L19.8999 115.1" stroke="#32A1DF" stroke-width="0.5" stroke-miterlimit="10"/>
<path d="M42.3999 109.9L47.5999 115.1" stroke="#32A1DF" stroke-width="0.5" stroke-miterlimit="10"/>
<path d="M47.5999 109.9L42.3999 115.1" stroke="#32A1DF" stroke-width="0.5" stroke-miterlimit="10"/>
<path d="M64.8999 109.9L70.0999 115.1" stroke="#32A1DF" stroke-width="0.5" stroke-miterlimit="10"/>
<path d="M70.0999 109.9L64.8999 115.1" stroke="#32A1DF" stroke-width="0.5" stroke-miterlimit="10"/>
<path d="M87.3999 109.9L92.5999 115.1" stroke="#32A1DF" stroke-width="0.5" stroke-miterlimit="10"/>
<path d="M92.5999 109.9L87.3999 115.1" stroke="#32A1DF" stroke-width="0.5" stroke-miterlimit="10"/>
<path d="M109.9 109.9L115.1 115.1" stroke="#32A1DF" stroke-width="0.5" stroke-miterlimit="10"/>
<path d="M115.1 109.9L109.9 115.1" stroke="#32A1DF" stroke-width="0.5" stroke-miterlimit="10"/>
<path d="M132.4 109.9L137.6 115.1" stroke="#32A1DF" stroke-width="0.5" stroke-miterlimit="10"/>
<path d="M137.6 109.9L132.4 115.1" stroke="#32A1DF" stroke-width="0.5" stroke-miterlimit="10"/>
<path d="M154.9 109.9L160.1 115.1" stroke="#32A1DF" stroke-width="0.5" stroke-miterlimit="10"/>
<path d="M160.1 109.9L154.9 115.1" stroke="#32A1DF" stroke-width="0.5" stroke-miterlimit="10"/>
<path d="M177.4 109.9L182.6 115.1" stroke="#32A1DF" stroke-width="0.5" stroke-miterlimit="10"/>
<path d="M182.6 109.9L177.4 115.1" stroke="#32A1DF" stroke-width="0.5" stroke-miterlimit="10"/>
<path d="M199.9 109.9L205.1 115.1" stroke="#32A1DF" stroke-width="0.5" stroke-miterlimit="10"/>
<path d="M205.1 109.9L199.9 115.1" stroke="#32A1DF" stroke-width="0.5" stroke-miterlimit="10"/>
<path d="M222.4 109.9L227.6 115.1" stroke="#32A1DF" stroke-width="0.5" stroke-miterlimit="10"/>
<path d="M227.6 109.9L222.4 115.1" stroke="#32A1DF" stroke-width="0.5" stroke-miterlimit="10"/>
<path d="M244.9 109.9L250.1 115.1" stroke="#32A1DF" stroke-width="0.5" stroke-miterlimit="10"/>
<path d="M250.1 109.9L244.9 115.1" stroke="#32A1DF" stroke-width="0.5" stroke-miterlimit="10"/>
<path d="M19.8999 87.4L25.0999 92.6" stroke="#32A1DF" stroke-width="0.5" stroke-miterlimit="10"/>
<path d="M25.0999 87.4L19.8999 92.6" stroke="#32A1DF" stroke-width="0.5" stroke-miterlimit="10"/>
<path d="M42.3999 87.4L47.5999 92.6" stroke="#32A1DF" stroke-width="0.5" stroke-miterlimit="10"/>
<path d="M47.5999 87.4L42.3999 92.6" stroke="#32A1DF" stroke-width="0.5" stroke-miterlimit="10"/>
<path d="M64.8999 87.4L70.0999 92.6" stroke="#32A1DF" stroke-width="0.5" stroke-miterlimit="10"/>
<path d="M70.0999 87.4L64.8999 92.6" stroke="#32A1DF" stroke-width="0.5" stroke-miterlimit="10"/>
<path d="M87.3999 87.4L92.5999 92.6" stroke="#32A1DF" stroke-width="0.5" stroke-miterlimit="10"/>
<path d="M92.5999 87.4L87.3999 92.6" stroke="#32A1DF" stroke-width="0.5" stroke-miterlimit="10"/>
<path d="M109.9 87.4L115.1 92.6" stroke="#32A1DF" stroke-width="0.5" stroke-miterlimit="10"/>
<path d="M115.1 87.4L109.9 92.6" stroke="#32A1DF" stroke-width="0.5" stroke-miterlimit="10"/>
<path d="M132.4 87.4L137.6 92.6" stroke="#32A1DF" stroke-width="0.5" stroke-miterlimit="10"/>
<path d="M137.6 87.4L132.4 92.6" stroke="#32A1DF" stroke-width="0.5" stroke-miterlimit="10"/>
<path d="M154.9 87.4L160.1 92.6" stroke="#32A1DF" stroke-width="0.5" stroke-miterlimit="10"/>
<path d="M160.1 87.4L154.9 92.6" stroke="#32A1DF" stroke-width="0.5" stroke-miterlimit="10"/>
<path d="M177.4 87.4L182.6 92.6" stroke="#32A1DF" stroke-width="0.5" stroke-miterlimit="10"/>
<path d="M182.6 87.4L177.4 92.6" stroke="#32A1DF" stroke-width="0.5" stroke-miterlimit="10"/>
<path d="M199.9 87.4L205.1 92.6" stroke="#32A1DF" stroke-width="0.5" stroke-miterlimit="10"/>
<path d="M205.1 87.4L199.9 92.6" stroke="#32A1DF" stroke-width="0.5" stroke-miterlimit="10"/>
<path d="M222.4 87.4L227.6 92.6" stroke="#32A1DF" stroke-width="0.5" stroke-miterlimit="10"/>
<path d="M227.6 87.4L222.4 92.6" stroke="#32A1DF" stroke-width="0.5" stroke-miterlimit="10"/>
<path d="M244.9 87.4L250.1 92.6" stroke="#32A1DF" stroke-width="0.5" stroke-miterlimit="10"/>
<path d="M250.1 87.4L244.9 92.6" stroke="#32A1DF" stroke-width="0.5" stroke-miterlimit="10"/>
<path d="M19.8999 64.9L25.0999 70.1" stroke="#32A1DF" stroke-width="0.5" stroke-miterlimit="10"/>
<path d="M25.0999 64.9L19.8999 70.1" stroke="#32A1DF" stroke-width="0.5" stroke-miterlimit="10"/>
<path d="M42.3999 64.9L47.5999 70.1" stroke="#32A1DF" stroke-width="0.5" stroke-miterlimit="10"/>
<path d="M47.5999 64.9L42.3999 70.1" stroke="#32A1DF" stroke-width="0.5" stroke-miterlimit="10"/>
<path d="M64.8999 64.9L70.0999 70.1" stroke="#32A1DF" stroke-width="0.5" stroke-miterlimit="10"/>
<path d="M70.0999 64.9L64.8999 70.1" stroke="#32A1DF" stroke-width="0.5" stroke-miterlimit="10"/>
<path d="M87.3999 64.9L92.5999 70.1" stroke="#32A1DF" stroke-width="0.5" stroke-miterlimit="10"/>
<path d="M92.5999 64.9L87.3999 70.1" stroke="#32A1DF" stroke-width="0.5" stroke-miterlimit="10"/>
<path d="M109.9 64.9L115.1 70.1" stroke="#32A1DF" stroke-width="0.5" stroke-miterlimit="10"/>
<path d="M115.1 64.9L109.9 70.1" stroke="#32A1DF" stroke-width="0.5" stroke-miterlimit="10"/>
<path d="M132.4 64.9L137.6 70.1" stroke="#32A1DF" stroke-width="0.5" stroke-miterlimit="10"/>
<path d="M137.6 64.9L132.4 70.1" stroke="#32A1DF" stroke-width="0.5" stroke-miterlimit="10"/>
<path d="M154.9 64.9L160.1 70.1" stroke="#32A1DF" stroke-width="0.5" stroke-miterlimit="10"/>
<path d="M160.1 64.9L154.9 70.1" stroke="#32A1DF" stroke-width="0.5" stroke-miterlimit="10"/>
<path d="M177.4 64.9L182.6 70.1" stroke="#32A1DF" stroke-width="0.5" stroke-miterlimit="10"/>
<path d="M182.6 64.9L177.4 70.1" stroke="#32A1DF" stroke-width="0.5" stroke-miterlimit="10"/>
<path d="M199.9 64.9L205.1 70.1" stroke="#32A1DF" stroke-width="0.5" stroke-miterlimit="10"/>
<path d="M205.1 64.9L199.9 70.1" stroke="#32A1DF" stroke-width="0.5" stroke-miterlimit="10"/>
<path d="M222.4 64.9L227.6 70.1" stroke="#32A1DF" stroke-width="0.5" stroke-miterlimit="10"/>
<path d="M227.6 64.9L222.4 70.1" stroke="#32A1DF" stroke-width="0.5" stroke-miterlimit="10"/>
<path d="M244.9 64.9L250.1 70.1" stroke="#32A1DF" stroke-width="0.5" stroke-miterlimit="10"/>
<path d="M250.1 64.9L244.9 70.1" stroke="#32A1DF" stroke-width="0.5" stroke-miterlimit="10"/>
<path d="M19.8999 42.4L25.0999 47.6" stroke="#32A1DF" stroke-width="0.5" stroke-miterlimit="10"/>
<path d="M25.0999 42.4L19.8999 47.6" stroke="#32A1DF" stroke-width="0.5" stroke-miterlimit="10"/>
<path d="M42.3999 42.4L47.5999 47.6" stroke="#32A1DF" stroke-width="0.5" stroke-miterlimit="10"/>
<path d="M47.5999 42.4L42.3999 47.6" stroke="#32A1DF" stroke-width="0.5" stroke-miterlimit="10"/>
<path d="M64.8999 42.4L70.0999 47.6" stroke="#32A1DF" stroke-width="0.5" stroke-miterlimit="10"/>
<path d="M70.0999 42.4L64.8999 47.6" stroke="#32A1DF" stroke-width="0.5" stroke-miterlimit="10"/>
<path d="M87.3999 42.4L92.5999 47.6" stroke="#32A1DF" stroke-width="0.5" stroke-miterlimit="10"/>
<path d="M92.5999 42.4L87.3999 47.6" stroke="#32A1DF" stroke-width="0.5" stroke-miterlimit="10"/>
<path d="M109.9 42.4L115.1 47.6" stroke="#32A1DF" stroke-width="0.5" stroke-miterlimit="10"/>
<path d="M115.1 42.4L109.9 47.6" stroke="#32A1DF" stroke-width="0.5" stroke-miterlimit="10"/>
<path d="M132.4 42.4L137.6 47.6" stroke="#32A1DF" stroke-width="0.5" stroke-miterlimit="10"/>
<path d="M137.6 42.4L132.4 47.6" stroke="#32A1DF" stroke-width="0.5" stroke-miterlimit="10"/>
<path d="M154.9 42.4L160.1 47.6" stroke="#32A1DF" stroke-width="0.5" stroke-miterlimit="10"/>
<path d="M160.1 42.4L154.9 47.6" stroke="#32A1DF" stroke-width="0.5" stroke-miterlimit="10"/>
<path d="M177.4 42.4L182.6 47.6" stroke="#32A1DF" stroke-width="0.5" stroke-miterlimit="10"/>
<path d="M182.6 42.4L177.4 47.6" stroke="#32A1DF" stroke-width="0.5" stroke-miterlimit="10"/>
<path d="M199.9 42.4L205.1 47.6" stroke="#32A1DF" stroke-width="0.5" stroke-miterlimit="10"/>
<path d="M205.1 42.4L199.9 47.6" stroke="#32A1DF" stroke-width="0.5" stroke-miterlimit="10"/>
<path d="M222.4 42.4L227.6 47.6" stroke="#32A1DF" stroke-width="0.5" stroke-miterlimit="10"/>
<path d="M227.6 42.4L222.4 47.6" stroke="#32A1DF" stroke-width="0.5" stroke-miterlimit="10"/>
<path d="M244.9 42.4L250.1 47.6" stroke="#32A1DF" stroke-width="0.5" stroke-miterlimit="10"/>
<path d="M250.1 42.4L244.9 47.6" stroke="#32A1DF" stroke-width="0.5" stroke-miterlimit="10"/>
<path d="M42.3999 19.9L47.5999 25.1" stroke="#32A1DF" stroke-width="0.5" stroke-miterlimit="10"/>
<path d="M47.5999 19.9L42.3999 25.1" stroke="#32A1DF" stroke-width="0.5" stroke-miterlimit="10"/>
<path d="M64.8999 19.9L70.0999 25.1" stroke="#32A1DF" stroke-width="0.5" stroke-miterlimit="10"/>
<path d="M70.0999 19.9L64.8999 25.1" stroke="#32A1DF" stroke-width="0.5" stroke-miterlimit="10"/>
<path d="M87.3999 19.9L92.5999 25.1" stroke="#32A1DF" stroke-width="0.5" stroke-miterlimit="10"/>
<path d="M92.5999 19.9L87.3999 25.1" stroke="#32A1DF" stroke-width="0.5" stroke-miterlimit="10"/>
<path d="M109.9 19.9L115.1 25.1" stroke="#32A1DF" stroke-width="0.5" stroke-miterlimit="10"/>
<path d="M115.1 19.9L109.9 25.1" stroke="#32A1DF" stroke-width="0.5" stroke-miterlimit="10"/>
<path d="M132.4 19.9L137.6 25.1" stroke="#32A1DF" stroke-width="0.5" stroke-miterlimit="10"/>
<path d="M137.6 19.9L132.4 25.1" stroke="#32A1DF" stroke-width="0.5" stroke-miterlimit="10"/>
<path d="M154.9 19.9L160.1 25.1" stroke="#32A1DF" stroke-width="0.5" stroke-miterlimit="10"/>
<path d="M160.1 19.9L154.9 25.1" stroke="#32A1DF" stroke-width="0.5" stroke-miterlimit="10"/>
<path d="M177.4 19.9L182.6 25.1" stroke="#32A1DF" stroke-width="0.5" stroke-miterlimit="10"/>
<path d="M182.6 19.9L177.4 25.1" stroke="#32A1DF" stroke-width="0.5" stroke-miterlimit="10"/>
<path d="M199.9 19.9L205.1 25.1" stroke="#32A1DF" stroke-width="0.5" stroke-miterlimit="10"/>
<path d="M205.1 19.9L199.9 25.1" stroke="#32A1DF" stroke-width="0.5" stroke-miterlimit="10"/>
<path d="M222.4 19.9L227.6 25.1" stroke="#32A1DF" stroke-width="0.5" stroke-miterlimit="10"/>
<path d="M227.6 19.9L222.4 25.1" stroke="#32A1DF" stroke-width="0.5" stroke-miterlimit="10"/>
<path d="M244.9 19.9L250.1 25.1" stroke="#32A1DF" stroke-width="0.5" stroke-miterlimit="10"/>
<path d="M250.1 19.9L244.9 25.1" stroke="#32A1DF" stroke-width="0.5" stroke-miterlimit="10"/>
</g>
<path d="M0.5 44.39L44.39 0.5H269.5V179.5H0.5V44.39Z" stroke="#32A1DF"/>
<mask id="mask0_684_4192" style="mask-type:luminance" maskUnits="userSpaceOnUse" x="0" y="0" width="270" height="180">
<path d="M0.5 44.39L44.39 0.5H269.5V179.5H0.5V44.39Z" fill="white"/>
</mask>
<g mask="url(#mask0_684_4192)">
<path d="M197.97 26.51C197.01 22.86 195.36 18.79 194.76 17.74C194.18 16.73 193.1 14.84 190.49 15.9C188.98 16.43 187.49 17.92 187.16 19.14C186.54 19.23 185.96 19.56 185.53 20.07C185.09 20.6 184.85 21.26 184.87 21.9L184.79 21.94C183.94 22.33 183.26 22.64 182.67 23.34C181.92 24.22 181.96 25.38 182.32 25.82C182.35 25.86 182.43 25.95 182.54 26.08C183.12 26.75 184.9 28.8 185.8 30.21C186.9 31.95 187.93 34.65 188.35 36.93C188.76 39.18 189.08 42.89 188.62 46.03C188.57 46.12 188.49 46.19 188.41 46.25C187.89 45.84 186.95 45.13 186.46 45.03C185.82 44.89 184.53 45.09 183.56 46.15C182.85 46.94 182.77 47.49 182.71 47.97C182.69 48.11 182.67 48.25 182.63 48.4C182.61 48.47 182.59 48.52 182.58 48.57C181.92 48 180.37 46.86 178.34 46.64C178.38 44.59 178.04 42.43 177.41 40.91C176.72 39.25 175.59 37.03 172.87 34.59C170.27 32.26 167.74 30.75 162.84 28.6C161.9 28.19 160.92 27.8 159.92 27.43C159.82 27.38 159.74 27.36 159.7 27.35C156.03 26.02 152.01 24.99 147.66 24.29C144.08 23.71 141.84 23.35 137.31 23.47C135.27 23.52 132.78 23.67 129.48 23.93C119.27 24.76 112.42 28.02 109.25 29.89C106.52 31.5 103.97 34.05 102.57 36.55C101.33 38.78 101.21 40.24 101.13 41.3L101.1 41.69C101.03 42.41 101.04 44.08 101.05 46.02C101.05 46.8 101.05 47.61 101.05 48.41C101 48.38 100.96 48.35 100.92 48.33C100.87 47.93 100.64 47.5 100.06 47.35C99.8201 47.29 99.6501 47.24 99.5301 47.2C99.4401 46.9 99.2301 46.46 98.7901 46.3C98.5301 46.21 98.1801 46.07 97.9701 45.98C97.8901 45.85 97.7901 45.72 97.6701 45.57C97.5001 45.36 96.9801 44.84 96.2901 44.41C95.7301 44.06 95.0601 43.76 94.3701 43.76C92.7601 43.76 91.1601 45.22 90.3701 47.41L90.1801 47.94C89.2701 50.42 87.1401 56.23 86.0601 64.74C84.8701 74.1 86.7001 81.23 87.9001 84.65C88.9501 87.66 90.2101 90.86 92.3001 93.99C91.8001 95.38 91.0901 97.11 90.9701 97.4C90.9101 97.51 90.8301 97.71 90.8601 97.98C90.9101 98.42 91.2001 98.86 91.7501 99.34C91.6801 99.5 91.6001 99.66 91.5301 99.82C90.7701 101.45 89.9901 103.14 91.1401 103.84C92.1001 104.42 104.66 112.12 105.94 113.01C107.14 113.85 108.01 115.83 107.85 116.8C107.8 117.08 107.71 117.29 107.6 117.34C107.51 117.39 107.36 117.35 107.26 117.31C105.71 116.61 105.01 117.39 104.78 117.76C104.47 118.26 103.62 120.03 105.83 121.6C107.24 122.6 110.41 124.48 111.15 124.91C111.73 126.35 116.13 136.95 123.94 147.36L123.84 147.48C123.04 148.42 122.35 149.24 122.35 150.01C122.35 150.78 123.43 152.62 124.72 154.02C124.94 154.25 125.15 154.48 125.38 154.67C125.86 157.66 124.83 161.32 124.26 162.31C123.17 163.25 121.92 164.96 120.6 166.77L119.92 167.7C118.34 169.83 114.59 173.09 112.58 174.84C111.02 176.19 109.74 177.65 108.76 179.17C108.61 179.4 108.68 179.71 108.91 179.86C108.97 179.9 109.04 179.92 109.12 179.93L135.58 179.94H161.09C161.19 179.94 161.29 179.91 161.38 179.85C161.61 179.69 161.66 179.38 161.51 179.15C160.41 177.56 158.82 176.04 157.28 174.56C155.84 173.18 154.36 171.75 153.3 170.3C151.03 167.18 148.2 162.87 147.84 162.32C147.72 161.91 147.05 159.63 147.03 157.59C147 155.46 147.1 155.37 148.22 154.3L148.6 153.94C149.65 152.96 150.55 152.12 150.52 150.95C150.49 150.02 149.7 148.71 149.3 148.1C150.08 147.13 152.66 143.84 155.14 139.61C158.04 134.68 158.31 134.17 158.32 134.14C158.39 134.01 165.14 121.44 168.97 112.23C171.24 110 171.93 109.27 171.93 109.27C172 109.21 173.55 107.87 173.11 106.08C172.63 104.15 171.06 103.62 170.76 103.53C170.65 103.5 170.53 103.48 170.41 103.47C171.13 102.26 172.48 100.04 172.95 99.35C173.53 98.51 175.73 96.07 179.17 92.67C182.17 89.71 189.52 82.99 190.19 82.38C190.67 82.11 191.33 81.33 190.79 80.02C190.41 79.09 190.05 78.19 189.88 77.74C190.2 77.35 190.7 76.56 190.42 75.72C190.17 74.98 189.34 73.3 189.02 72.65C189.67 71.62 192.26 67.46 193.75 63.99C195.4 60.15 197.37 54.19 198.13 50.7C198.9 47.19 199.43 42.8 199.49 39.5C199.55 36.07 199.02 30.1 198.06 26.44L197.97 26.51Z" fill="white" stroke="#32A1DF" stroke-width="1.5" stroke-miterlimit="10"/>
<path d="M161.03 179.5C158.94 176.48 155.05 173.71 152.83 170.66C150.37 167.29 147.32 162.6 147.32 162.6C147.32 162.6 146.49 160 146.46 157.66C146.43 155.32 146.63 155.12 147.8 154C148.97 152.88 149.97 152.09 149.94 151.03C149.91 149.97 148.6 148.14 148.6 148.14C148.6 148.14 151.66 144.48 154.63 139.43C157.6 134.38 157.8 133.97 157.8 133.97C157.8 133.97 164.61 121.31 168.47 112.01C170.83 109.7 171.53 108.95 171.53 108.95C171.53 108.95 172.92 107.77 172.54 106.26C172.16 104.75 171 104.2 170.54 104.07C170.08 103.94 169.41 104.07 169.41 104.07C169.41 104.07 171.77 100.11 172.45 99.12C173.13 98.13 175.56 95.5 178.73 92.37C181.9 89.24 189.81 82.02 189.81 82.02C189.81 82.02 190.77 81.57 190.24 80.26C189.7 78.95 189.21 77.69 189.21 77.69C189.21 77.69 190.15 76.81 189.85 75.93C189.55 75.05 188.35 72.67 188.35 72.67C188.35 72.67 191.48 67.83 193.19 63.84C194.9 59.85 196.83 53.88 197.54 50.64C198.25 47.4 198.83 43.05 198.89 39.54C198.95 36.03 198.4 30.11 197.48 26.62C196.56 23.13 194.93 19.03 194.35 18.03C193.77 17.02 192.91 15.44 190.64 16.36C189.1 16.9 187.58 18.57 187.58 19.6C186.21 19.56 185.14 20.93 185.39 22.19C184.34 22.68 183.63 22.94 183.03 23.65C182.43 24.36 182.49 25.26 182.69 25.49C182.88 25.73 185.13 28.23 186.2 29.93C187.27 31.62 188.36 34.39 188.81 36.83C189.26 39.27 189.54 43.07 189.07 46.17C188.86 46.64 188.32 46.83 188.32 46.83C188.32 46.83 186.84 45.61 186.33 45.5C185.82 45.39 184.72 45.56 183.91 46.46C183.1 47.36 183.27 47.81 183.1 48.5C182.93 49.19 182.54 49.21 182.54 49.21C182.54 49.21 180.55 47.15 177.8 47.09C177.91 45.08 177.6 42.71 176.93 41.08C176.26 39.45 175.14 37.29 172.52 34.94C169.89 32.58 167.29 31.08 162.62 29.04C157.95 27 152.86 25.63 147.62 24.78C142.38 23.94 140.09 23.56 129.48 24.42C118.87 25.28 112.08 28.77 109.46 30.31C106.85 31.85 104.32 34.36 102.97 36.78C101.62 39.2 101.66 40.64 101.56 41.73C101.45 42.82 101.54 46.39 101.52 49.43C100.71 48.68 100.38 48.65 100.38 48.65C100.38 48.65 100.53 47.99 99.9103 47.84C99.2903 47.69 99.0703 47.58 99.0703 47.58C99.0703 47.58 98.9803 46.92 98.5803 46.78C98.1803 46.64 97.5503 46.38 97.5503 46.38C97.5503 46.38 97.5803 46.32 97.2403 45.89C96.9003 45.46 95.5803 44.26 94.3303 44.26C93.0803 44.26 91.5703 45.43 90.8003 47.57C90.0303 49.71 87.6703 55.67 86.5103 64.8C85.3503 73.93 87.1003 80.97 88.3203 84.49C89.5503 88 90.8303 91.03 92.8103 93.93C92.2503 95.49 91.3703 97.64 91.3703 97.64C91.3703 97.64 90.9403 98.15 92.3103 99.2C91.6003 100.83 90.4203 102.86 91.3503 103.42C92.2703 103.98 104.86 111.69 106.18 112.61C107.49 113.52 108.49 115.7 108.29 116.9C108.09 118.1 107.32 117.93 107 117.79C106.68 117.65 105.66 117.22 105.14 118.05C104.63 118.88 104.48 120.11 106.05 121.22C107.62 122.33 111.48 124.59 111.48 124.59C111.48 124.59 115.94 136.09 124.51 147.41C123.65 148.44 122.77 149.36 122.77 150.05C122.77 150.74 124.21 153.14 125.77 154.46C126.37 157.76 125.17 161.75 124.57 162.69C123.33 163.74 121.76 165.99 120.24 168.05C118.72 170.11 115.29 173.13 112.83 175.27C111.67 176.28 110.27 177.69 109.11 179.49M174.77 74.73C174.71 68.53 174.26 63.56 174.17 62.1C174.08 60.64 174.94 57.81 176.37 55.99C176.37 55.99 178.53 55.05 180.33 55.39C182 56.93 183.37 59.42 183.72 62.93C184.07 66.44 183.59 70.77 182.16 74.05C180.72 77.33 178.97 79.75 177.53 82.32C176.09 84.89 173.97 88.02 173.97 88.02C173.97 88.02 174.83 80.93 174.77 74.73ZM94.6603 69.68C95.3203 59.32 101.07 50.67 101.07 50.67L101.5 50.37C101.5 50.37 101.63 51.76 101.95 52.06C102.27 52.36 102.57 52.7 103.43 54.44C101.5 59.54 102.04 63.44 102.97 66.64C100.07 67.83 98.6103 70.63 98.6103 70.63C98.6103 70.63 98.4203 70.07 98.0703 69.82C97.7103 69.56 97.0603 69.15 96.2803 69.16C95.5103 69.17 94.6603 69.68 94.6603 69.68ZM102.17 100.85C100.46 98.25 98.2803 95.31 97.9103 91.79C97.5403 88.28 97.6803 85.25 99.1703 81.7C100.66 78.16 101.63 76.33 102.48 75.81C102.31 78.64 102.28 82.32 102.91 90.38C103.54 98.44 105.27 105.7 105.27 105.7C105.27 105.7 103.88 103.44 102.17 100.84V100.85Z" stroke="#32A1DF" stroke-linecap="round" stroke-linejoin="round"/>
<path d="M176.4 55.99L174.69 56.76C174.69 56.76 174.29 56.96 173.43 56.37C172.57 55.78 171.12 54.73 171.12 54.73C171.12 54.73 169.92 54.36 170.12 52.02C170.32 49.68 170.29 48.59 172.15 47.82C174.01 47.05 175.89 47.1 177.82 47.1" stroke="#32A1DF" stroke-linecap="round" stroke-linejoin="round"/>
<path d="M102.51 75.82C102.51 75.82 102.62 69.08 103 66.65" stroke="#32A1DF" stroke-linecap="round" stroke-linejoin="round"/>
<path d="M101.53 50.38V49.45" stroke="#32A1DF" stroke-linecap="round" stroke-linejoin="round"/>
<path d="M168.47 112.01L162.74 117.45C162.74 117.45 161.91 117.94 161.08 117.68C160.25 117.42 159.02 116.82 159.42 115.31C159.82 113.8 161.76 108.28 161.76 108.28C161.76 108.28 161.96 107.62 162.86 107.15C163.76 106.68 164.16 106.45 164.16 106.45C164.16 106.45 163.73 104.65 164.65 102.79C165.56 100.93 168.36 96.73 170.51 93.5C172.65 90.27 174 88.02 174 88.02" stroke="#32A1DF" stroke-linecap="round" stroke-linejoin="round"/>
<path d="M105.3 105.71C105.3 105.71 108.93 118.87 111.51 124.6" stroke="#32A1DF" stroke-linecap="round" stroke-linejoin="round"/>
<path d="M101.521 45.82C101.521 45.82 101.741 38.68 116.431 34.11C131.121 29.54 148.881 30.49 162.831 36.11C175.461 41.2 176.721 47.1 176.721 47.1" stroke="#32A1DF" stroke-linecap="round" stroke-linejoin="round"/>
<path d="M130.894 65.0133C136.663 55.9649 135.767 45.0772 128.894 40.6949C122.02 36.3126 111.771 40.0952 106.003 49.1435C100.234 58.1918 101.129 69.0795 108.003 73.4618C114.876 77.8441 125.125 74.0616 130.894 65.0133Z" stroke="#32A1DF" stroke-linecap="round" stroke-linejoin="round"/>
<path d="M126.07 39.4C126.07 39.4 136.54 42.22 137.86 51.65C139.17 61.08 131.88 68.64 121.47 73.6" stroke="#32A1DF" stroke-linecap="round" stroke-linejoin="round"/>
<path d="M128.364 63.4005C133.106 55.9634 132.51 47.104 127.034 43.6124C121.557 40.1208 113.274 43.3192 108.532 50.7563C103.791 58.1933 104.386 67.0527 109.863 70.5443C115.339 74.0359 123.623 70.8375 128.364 63.4005Z" stroke="#32A1DF" stroke-linecap="round" stroke-linejoin="round"/>
<path d="M123.997 60.6157C126.651 56.4525 126.319 51.4938 123.255 49.5401C120.19 47.5865 115.555 49.3778 112.9 53.541C110.246 57.7043 110.578 62.663 113.643 64.6166C116.707 66.5703 121.343 64.779 123.997 60.6157Z" stroke="#32A1DF" stroke-linecap="round" stroke-linejoin="round"/>
<path d="M189.22 77.7L188.09 76.45C188.09 76.45 187.69 75.96 186.83 76.91C186.5 77.27 184 80.39 180.83 84.39" stroke="#32A1DF" stroke-linecap="round" stroke-linejoin="round"/>
<path d="M188.36 72.69C188.36 72.69 186.72 71.7 185.75 72.69C185.14 73.32 180.93 80.48 176.72 87.05" stroke="#32A1DF" stroke-linecap="round" stroke-linejoin="round"/>
<path d="M187.59 19.61C187.59 19.61 194.46 25.2 194.75 36.97" stroke="#32A1DF" stroke-linecap="round" stroke-linejoin="round"/>
<path d="M185.4 22.2C185.4 22.2 193.8 29.82 191.91 44.97" stroke="#32A1DF" stroke-linecap="round" stroke-linejoin="round"/>
<path d="M184.89 66.54C184.89 66.54 187.59 59.68 187.72 53.3C187.85 46.91 185.68 47.34 185.21 47.62" stroke="#32A1DF" stroke-linecap="round" stroke-linejoin="round"/>
<path d="M184.6 60.05C184.6 60.05 184.8 52.67 180.86 50.04C176.92 47.41 172.6 48.96 172.03 49.7" stroke="#32A1DF" stroke-linecap="round" stroke-linejoin="round"/>
<path d="M180.37 55.39C180.37 55.39 178.36 52.91 175.01 53.9" stroke="#32A1DF" stroke-linecap="round" stroke-linejoin="round"/>
<path d="M186.83 76.91C186.83 76.91 187.76 75.82 188.1 75.47C188.44 75.12 188.36 74.68 188.1 73.99C187.84 73.3 187.72 72.98 187.72 72.98" stroke="#32A1DF" stroke-linecap="round" stroke-linejoin="round"/>
<path d="M188.51 77.64L189.22 79.55C189.22 79.55 189.58 80.33 189.09 80.82C188.8 81.11 183.01 86.22 177.69 91.59" stroke="#32A1DF" stroke-linecap="round" stroke-linejoin="round"/>
<path d="M159.36 115.69C159.36 115.69 159.71 116.55 160.59 115.78C161.47 115.01 169.72 107.29 169.72 107.29C169.72 107.29 170.75 106.5 170.79 105.47" stroke="#32A1DF" stroke-linecap="round" stroke-linejoin="round"/>
<path d="M164.17 106.45C164.17 106.45 165.26 105.96 166.22 105.79C167.18 105.62 167.46 105.66 168.04 105.23" stroke="#32A1DF" stroke-linecap="round" stroke-linejoin="round"/>
<path d="M192.19 62.43C194.71 56.64 197.45 48.81 197.87 41.38C198.68 27.11 193.93 18.36 193.46 17.59C192.99 16.82 192.56 16.05 190.65 16.37" stroke="#32A1DF" stroke-linecap="round" stroke-linejoin="round"/>
<path d="M140.14 134.26C140.14 134.26 141.85 129.12 143.48 113.09C145.11 97.06 146.57 69.03 146.57 69.03" stroke="#32A1DF" stroke-linecap="round" stroke-linejoin="round"/>
<path d="M140.14 134.26C140.14 134.26 143.94 128.66 146.05 122.06C148.16 115.46 148.88 110.43 149.19 104.34C149.5 98.25 149.79 94.63 149.28 87.62C148.77 80.62 147.33 72.22 147.07 70.91C146.81 69.6 146.57 69.02 146.57 69.02C146.57 69.02 145.2 72.79 144 77.05C142.8 81.31 140.49 89.48 139.77 94.17C139.05 98.86 137.43 106.31 137.31 111.66C137.2 117 137.22 120.26 137.88 124.6C138.54 128.94 139.37 131.94 139.59 132.74C139.81 133.54 140.14 134.26 140.14 134.26Z" stroke="#32A1DF" stroke-linecap="round" stroke-linejoin="round"/>
<path d="M154.55 91.54C155.06 90 158.06 74.25 157.89 64.48C157.72 54.71 157.12 50.62 157.55 49.45C157.98 48.28 158.41 44.68 158.84 40.65C159.27 36.62 158.15 34.44 158.15 34.44" stroke="#32A1DF" stroke-linecap="round" stroke-linejoin="round"/>
<path d="M148.5 62.55C148.5 62.55 151.63 72.05 152.31 85.14C153 98.23 152.82 112.63 149.8 122.34" stroke="#32A1DF" stroke-linecap="round" stroke-linejoin="round"/>
<path d="M139.46 141.37C139.46 141.37 131.23 124.6 136.76 95.04C140.37 75.68 144.35 64.56 146.05 60.35C146.2 59.99 146.74 60.12 146.69 60.51" stroke="#32A1DF" stroke-linecap="round" stroke-linejoin="round"/>
<path d="M135.84 61.7C135.84 61.7 137.29 62.74 137 67.14C136.71 71.54 136.3 89.8 136.27 97.8" stroke="#32A1DF" stroke-linecap="round" stroke-linejoin="round"/>
<path d="M136.93 48.31C136.93 48.31 138.09 44.85 138.26 39.92C138.43 34.99 140.57 31.32 140.57 31.32" stroke="#32A1DF" stroke-linecap="round" stroke-linejoin="round"/>
<path d="M159.59 27.83C159.59 27.83 160.51 28 160.55 30.15C160.59 32.29 160.55 35.24 160.55 35.24" stroke="#32A1DF" stroke-linecap="round" stroke-linejoin="round"/>
<path d="M138.201 31.23C138.201 31.23 137.291 31.23 137.291 29.77V23.97" stroke="#32A1DF" stroke-linecap="round" stroke-linejoin="round"/>
<path d="M117.97 79.54C117.97 79.54 107.14 118.6 129.74 144.29C129.74 139.72 129.87 139.32 128.52 137.49C127.17 135.66 122.66 128.43 119.23 114.03C115.8 99.63 119.4 86.86 119.1 84.89C118.8 82.92 117.97 79.55 117.97 79.55V79.54Z" stroke="#32A1DF" stroke-linecap="round" stroke-linejoin="round"/>
<path d="M129.74 144.29C129.74 144.29 131.29 139.6 131.35 131.95C131.41 124.29 128.95 112.86 126.55 103.32C124.15 93.78 120.49 82.75 117.98 79.55" stroke="#32A1DF" stroke-linecap="round" stroke-linejoin="round"/>
<path d="M119.86 88.91C119.86 88.91 118.27 110.11 128.52 137.48" stroke="#32A1DF" stroke-linecap="round" stroke-linejoin="round"/>
<path d="M108.75 73.9C108.75 73.9 107.8 106.91 116.94 127.14" stroke="#32A1DF" stroke-linecap="round" stroke-linejoin="round"/>
<path d="M108.881 45.44C108.881 45.44 108.851 42.67 106.561 38.77" stroke="#32A1DF" stroke-linecap="round" stroke-linejoin="round"/>
<path d="M108.55 30.91V36.28C108.55 36.28 108.6 37.41 107.95 37.84" stroke="#32A1DF" stroke-linecap="round" stroke-linejoin="round"/>
<path d="M124.541 147.41C124.541 147.41 128.041 144.28 135.801 144.28C143.561 144.28 146.541 145.88 148.601 148.14" stroke="#32A1DF" stroke-linecap="round" stroke-linejoin="round"/>
<path d="M146.23 146.21C146.23 146.21 151.38 138.37 155.41 129.79C159.44 121.22 159.37 120.02 159.37 120.02" stroke="#32A1DF" stroke-linecap="round" stroke-linejoin="round"/>
<path d="M103.89 80.94C103.89 80.94 107.08 99.69 111.05 110.98C115.02 122.27 121.35 137.25 122.95 143.65" stroke="#32A1DF" stroke-linecap="round" stroke-linejoin="round"/>
<path d="M92.3301 99.22C92.3301 99.22 96.9901 102.38 101.52 106.25" stroke="#32A1DF" stroke-linecap="round" stroke-linejoin="round"/>
<path d="M105.99 108.13C105.99 108.13 99.1204 98.68 96.8304 94.74C94.5404 90.8 94.6904 85.99 96.3704 80.94C98.0504 75.89 100.56 73.36 102.61 72.39" stroke="#32A1DF" stroke-linecap="round" stroke-linejoin="round"/>
<path d="M97.5705 46.39C97.5705 46.39 96.3306 47.02 95.4806 49.02C94.7506 50.73 91.3205 58.28 90.8105 64.91" stroke="#32A1DF" stroke-linecap="round" stroke-linejoin="round"/>
<path d="M95.9502 44.81C95.9502 44.81 95.1302 45.22 94.4302 46.39C93.8502 47.37 89.5702 55.95 88.8402 64.22C88.5902 67.1 88.5202 70.42 88.7202 73.9" stroke="#32A1DF" stroke-linecap="round" stroke-linejoin="round"/>
<path d="M92.8301 71.72C93.5601 71.33 93.8501 70.06 94.6901 69.68" stroke="#32A1DF" stroke-linecap="round" stroke-linejoin="round"/>
<path d="M99.0902 47.59C99.1802 48.15 98.7902 48.93 98.1902 49.91C97.5902 50.89 94.9902 56.65 94.1802 60.29" stroke="#32A1DF" stroke-linecap="round" stroke-linejoin="round"/>
<path d="M94.2404 88.91C94.2404 88.91 92.4404 81.8 92.6104 77.21C92.7804 72.62 94.2704 71.45 95.7404 70.95" stroke="#32A1DF" stroke-linecap="round" stroke-linejoin="round"/>
<path d="M102.82 68.39C102.82 68.39 97.2902 71.11 95.7402 78.96" stroke="#32A1DF" stroke-linecap="round" stroke-linejoin="round"/>
<path d="M169.29 59.42C169.29 59.42 167.83 59.86 167.32 61.7C166.81 63.54 167.15 68.85 168.05 76.91C168.95 84.97 167.08 96.2 167.08 96.2" stroke="#32A1DF" stroke-linecap="round" stroke-linejoin="round"/>
<path d="M162.95 90.77C162.95 90.77 163.02 99.6 156.69 113.2C153.38 120.3 147.95 131.34 144.78 136.5C141.61 141.65 141.36 144.66 141.36 144.66" stroke="#32A1DF" stroke-linecap="round" stroke-linejoin="round"/>
<path d="M147.32 162.6C146.75 162.29 146.86 162.17 146.32 162.46C145.49 161.6 145.03 161.66 144.49 162.03C142.98 160.97 142.6 160.94 141.98 161.23C140.75 160.26 140.38 160.4 139.69 160.72C138.23 159.86 136.92 160.05 136.15 160.48C134.72 159.83 134 160.29 133.49 160.59C132.74 160.18 131.88 160.61 131.41 160.93C130.27 160.18 129.46 160.97 129.46 160.97C129.46 160.97 128.88 160.26 127.51 161.18C126.33 160.99 124.62 162.68 124.62 162.68" stroke="#32A1DF" stroke-linecap="round" stroke-linejoin="round"/>
<path d="M135.541 179.5L135.961 162.06" stroke="#32A1DF" stroke-linecap="round" stroke-linejoin="round"/>
<path d="M144.91 179.5C144.59 178.16 143.94 176.07 142.67 173.04C140.1 166.91 139.58 162.41 139.58 162.41" stroke="#32A1DF" stroke-linecap="round" stroke-linejoin="round"/>
<path d="M141.97 161.23C141.97 161.23 142.67 164.64 144.26 167.99C145.85 171.34 149.19 174.46 150.26 177.68" stroke="#32A1DF" stroke-linecap="round" stroke-linejoin="round"/>
<path d="M154.9 179.5C154.77 179.14 154.61 178.76 154.41 178.36C152.57 174.5 149.48 172.02 147.55 168.8C145.62 165.59 144.98 163.83 144.98 163.83" stroke="#32A1DF" stroke-linecap="round" stroke-linejoin="round"/>
<path d="M133.48 160.59C133.48 160.59 132.72 163.03 132.32 166.68C131.92 170.33 131.12 172.28 129.75 175.08C128.92 176.77 128.55 178.44 128.39 179.49" stroke="#32A1DF" stroke-linecap="round" stroke-linejoin="round"/>
<path d="M123.7 179.5C124.02 178.48 124.45 177.33 125.06 176.06C127.63 170.69 129.8 166.15 130.6 163.55" stroke="#32A1DF" stroke-linecap="round" stroke-linejoin="round"/>
<path d="M129.45 160.98C129.45 160.98 128.57 164.13 125.66 168.67C122.75 173.21 121.67 174.63 121.67 174.63" stroke="#32A1DF" stroke-linecap="round" stroke-linejoin="round"/>
<path d="M125.041 153.72C125.041 153.72 127.491 151.31 135.961 151.31C144.431 151.31 146.311 153.02 146.311 153.02" stroke="#32A1DF" stroke-linecap="round" stroke-linejoin="round"/>
<path d="M135.96 159.84C135.96 159.84 135.2 159.11 135.68 156.67C136.16 154.23 135.98 153.63 135.96 152.86C135.94 152.09 135.02 152.13 137.26 151.87" stroke="#32A1DF" stroke-linecap="round" stroke-linejoin="round"/>
<path d="M141.04 151.57C141.04 151.57 141.16 151.5 141.04 153.72C140.92 155.94 140.95 156.24 141.04 157.83C141.13 159.42 140.771 160.52 140.771 160.52" stroke="#32A1DF" stroke-linecap="round" stroke-linejoin="round"/>
<path d="M127.03 159.84C127.03 159.84 127.8 156.77 127.8 155.11C127.8 153.45 127.94 153.71 128.03 154.31C128.12 154.91 128.26 158.92 127.86 160.97" stroke="#32A1DF" stroke-linecap="round" stroke-linejoin="round"/>
<path d="M144.88 155.49C144.88 155.49 144.96 160.12 145.79 161.99" stroke="#32A1DF" stroke-linecap="round" stroke-linejoin="round"/>
<path d="M107.03 117.8L109.32 118.83" stroke="#32A1DF" stroke-linecap="round" stroke-linejoin="round"/>
</g>
</svg>
