<svg width="269" height="179" viewBox="0 0 269 179" fill="none" xmlns="http://www.w3.org/2000/svg">
<g clip-path="url(#clip0_675_12491)">
<path d="M0 179V43.98L43.89 0H269V179H0Z" fill="#DAE9F1"/>
<path d="M0 179V120.816L269 84.5V179H0Z" fill="#9CBED1"/>
<path opacity="0.2" d="M121.57 101.81L60.5298 179H128.65L121.57 101.81Z" fill="white"/>
<path opacity="0.2" d="M121.57 101.81L230.06 179H269L121.57 101.81Z" fill="white"/>
<path opacity="0.5" d="M82.1201 0H177.94L121.57 101.81L82.1201 0Z" fill="white"/>
<path opacity="0.5" d="M269 3.27V28.92L121.57 101.81L269 3.27Z" fill="white"/>
<path opacity="0.7" d="M269 42.49V84.74L121.57 101.81L269 42.49Z" fill="white"/>
<path opacity="0.5" d="M73.57 0L121.57 101.81L55.48 0H73.57Z" fill="white"/>
<path opacity="0.5" d="M0 120.79V43.98L121.57 101.81L0 120.79Z" fill="#EDF4F8"/>
<path d="M163.616 73.5274C162.024 60.8758 141.04 53.8658 113.26 55.1505C85.183 56.4538 67.9045 69.422 67.9045 69.422C49.8441 68.9937 35.5634 83.6934 36.0102 102.247C36.4571 120.801 51.464 136.18 69.5244 136.609C75.7618 136.758 81.5523 135.1 86.4305 132.103L87.65 139.215L102.443 142.064L114.927 136.432L124.683 126.945L128.081 123.436L136.627 123.873L139.588 122.989L141.496 119.321L151.802 107.703L161.391 90.7779L164.072 78.2753L163.578 73.5274H163.616ZM147.054 86.1884C147.054 86.1884 143.19 88.7578 140.118 89.1302C139.392 90.1542 139.029 94.4552 139.029 94.4552L138.461 89.6236C138.461 89.6236 138.871 85.4064 131.423 85.4064C123.976 85.4064 125.8 91.6903 125.8 91.6903L126.675 98.0114L108.14 87.8175L99.6034 93.4591C95.5817 81.4405 85.3133 72.1869 72.941 69.9433L73.9837 70.0457L91.8207 69.3009L117.096 66.4522L147.706 76.1341L147.035 86.1791L147.054 86.1884Z" fill="white"/>
<path d="M73.9185 69.7385C76.7392 68.3793 79.5414 66.9736 82.3994 65.6795C92.0906 61.2855 102.34 59.4701 112.907 59.1443C120.773 58.9022 128.547 59.5539 136.125 61.8161C140.435 63.1008 144.531 64.8696 147.882 67.9883C149.763 69.7385 151.262 71.7586 152.109 74.2257C152.863 76.432 152.751 78.5918 151.783 80.6958C150.75 82.958 149.102 84.6988 147.054 86.1884C144.717 83.3583 141.934 81.2171 138.74 79.5972C133.211 76.7858 127.281 75.6873 121.146 75.4731C111.222 75.1194 101.54 76.4134 92.1744 79.8393C91.8672 79.951 91.29 79.8765 91.0852 79.6624C86.3839 74.6911 80.6865 71.4794 73.9929 70.055C73.965 69.9526 73.9464 69.8502 73.9185 69.7478V69.7385Z" fill="#40748F"/>
<path d="M63.38 122.598C56.249 121.071 49.7975 113.726 48.6152 105.831C47.2746 96.8664 51.4546 88.162 59.0884 83.9261C66.3684 79.8858 75.1566 81.0774 80.3606 85.1178C67.4576 94.3062 62.7935 107.219 63.38 122.598Z" fill="#40748F"/>
<path d="M67.998 136.422C57.0221 135.64 48.7087 130.744 42.7227 121.788C42.8064 121.853 42.8902 121.909 42.9647 121.983C48.7738 128.863 56.119 132.82 65.1306 133.536C66.2385 133.62 66.8994 134.011 67.2532 135.035C67.3928 135.436 67.6535 135.789 67.998 136.432V136.422Z" fill="#40748F"/>
<path d="M53.9777 68.7982C52.8978 69.3195 53.0188 70.1295 53.3819 71.0604C53.9405 72.4755 53.9125 72.4755 52.5627 73.2109C51.9669 73.5367 51.3897 73.8812 50.8032 74.2257C50.6449 74.3187 50.4959 74.4956 50.347 74.4956C49.4905 74.477 48.4479 74.7004 47.8334 74.2908C47.0514 73.7788 47.759 72.8851 48.1779 72.3358C49.2299 70.9487 50.3563 69.6081 51.5386 68.3234C52.2834 67.5135 52.9257 67.6811 53.987 68.7982H53.9777Z" fill="#40748F"/>
<path d="M132.791 86.7469C133.48 86.9145 134.207 86.989 134.84 87.2683C135.836 87.7058 135.975 88.6368 135.249 89.4467C134.067 90.7779 130.483 91.3644 128.928 90.48C127.904 89.8935 127.792 88.6926 128.872 88.0782C130.045 87.4079 131.386 87.0448 132.661 86.5514C132.708 86.6166 132.754 86.6818 132.801 86.7376L132.791 86.7469Z" fill="#40748F"/>
<path d="M54.6109 72.0938C54.3595 71.3676 54.1454 70.7253 53.894 69.9712C56.0725 69.2358 58.1671 68.882 60.4479 70.1202C58.4185 70.8091 56.5566 71.4421 54.6202 72.0938H54.6109Z" fill="#40748F"/>
<path d="M75.8452 128.575C77.3347 127.699 78.6288 126.88 79.9879 126.182C80.4162 125.968 81.0399 125.977 81.5426 126.08C83.3394 126.452 84.9034 128.36 84.8382 130.204C84.8196 130.837 84.6055 131.647 84.1772 132.047C83.0415 133.099 81.7474 133.974 80.3882 135.017C80.3603 131.749 78.8987 129.701 75.8452 128.584V128.575Z" fill="#40748F"/>
<path d="M141.524 118.66C141.133 119.33 140.863 120.103 140.342 120.643C138.322 122.71 133.257 123.64 130.595 122.486C130.334 122.374 130.185 122.011 130.102 121.648C132.708 122.505 135.185 122.328 137.614 121.397C138.918 120.894 140.174 120.27 140.603 118.725C140.649 118.567 140.938 118.464 141.115 118.343C141.254 118.446 141.394 118.557 141.524 118.66Z" fill="#40748F"/>
<path d="M95.4795 123.212C95.8333 115.774 97.9093 108.578 103.29 102.657C104.37 101.465 105.739 100.432 107.163 99.6592C110.998 97.5739 114.862 98.7003 117.171 102.396C118.669 104.789 119.358 107.461 119.517 110.225C120.001 118.595 117.897 126.229 112.656 132.866C111.268 134.626 109.574 136.05 107.517 136.981C104.063 138.545 100.739 137.716 98.4678 134.682C96.6339 132.224 95.9357 129.357 95.6471 126.368C95.554 125.447 95.554 124.516 95.4888 123.203L95.4795 123.212Z" fill="#40748F"/>
<path d="M163.867 74.7284C163.82 74.3281 163.699 73.9278 163.615 73.5274C164.137 77.996 162.694 81.7943 159.873 85.1457C157.257 88.2551 153.924 90.359 150.182 91.8485C147.92 92.7423 145.667 93.6453 143.395 94.5111C142.883 94.7066 142.595 94.93 142.567 95.563C142.408 99.3892 142.194 103.206 141.999 107.032C141.822 110.412 141.654 113.782 141.487 117.161C141.422 117.161 141.366 117.161 141.301 117.17C140.649 110.849 139.997 104.528 139.346 98.1883C138.871 98.7562 138.536 99.3334 138.042 99.7151C135.575 101.642 132.736 102.061 129.72 101.651C129.45 101.614 129.226 101.223 128.947 100.972C129.152 100.842 129.189 100.804 129.217 100.804C129.496 100.842 129.785 100.879 130.064 100.916C132.401 101.214 134.709 100.963 136.664 99.6499C137.688 98.961 138.973 97.7787 139.057 96.736C139.234 94.4552 138.722 92.1185 138.48 89.6236C136.003 93.4684 129.701 94.4552 125.81 91.6903C125.921 93.0029 126.024 94.2318 126.135 95.4979C124.497 93.7384 123.082 91.9696 121.415 90.4707C113.102 82.9859 103.253 80.0627 92.2116 80.9844C90.6383 81.1147 89.0464 81.5895 87.5755 82.1853C85.8625 82.8742 85.7042 84.1403 86.9796 85.4715C87.2403 85.7508 87.5755 85.9556 87.9292 86.2349C72.0286 94.5204 65.9122 119.395 72.1496 133.658C72.1496 133.658 72.2613 134.886 73.8905 137.307C78.4056 145.164 86.9424 148.581 95.8702 144.233C96.3357 144.01 96.8663 143.842 97.3784 143.805C98.9144 143.693 100.46 143.777 101.977 143.591C114.005 142.111 123.054 136.246 128.668 125.363C128.77 125.177 128.9 125 129.142 124.618C129.235 125.493 129.338 126.126 129.366 126.759C129.431 128.332 130.306 129.319 131.712 129.766C134.998 130.799 138.079 130.315 140.835 128.211C141.878 127.42 142.287 126.331 142.12 124.99C141.906 123.361 141.738 121.723 141.626 120.084C141.608 119.758 141.85 119.237 142.12 119.088C149.698 114.908 155.358 108.755 160.264 101.763C162.536 98.5328 163.941 95.1069 164.146 91.1689C164.193 90.2473 164.379 89.335 164.5 88.4133V80.4723C164.295 78.5639 164.1 76.6554 163.876 74.747L163.867 74.7284ZM121.239 128.798C116.649 133.192 111.464 136.692 105.142 138.228C104.016 138.508 103.001 139.197 101.893 139.597C98.6445 140.779 95.833 139.886 93.4311 137.595C90.9176 135.203 89.698 132.084 89.2046 128.751C87.6406 118.027 90.238 108.41 97.2015 100.041C97.9276 99.1658 98.7934 98.3931 99.6964 97.7042C103.206 95.0045 106.976 93.7756 111.231 96.0285C111.296 95.9633 111.352 95.8982 111.417 95.833C110.458 94.1852 109.509 92.5374 108.485 90.7873C111.305 91.802 113.847 93.1332 116.156 94.8927C120.391 98.1138 123.64 102.154 125.782 107.032C129.17 114.759 127.56 122.747 121.229 128.798H121.239Z" fill="#40748F"/>
<path d="M122.088 146.834C122.088 146.834 122.051 147.588 123.596 148.1C125.142 148.612 129.778 150.065 134.107 150.949C138.436 151.833 144.254 153.481 149.281 153.565C154.308 153.649 156.189 153.975 161.365 148.724C163.804 146.248 165.768 140.392 170.451 139.256C175.134 138.121 178.885 138.577 182.46 138.726C186.035 138.875 190.336 138.996 190.243 135.337C190.15 131.678 183.065 125.19 171.987 121.894C160.909 118.599 148.509 119.706 140.437 124.417C132.366 129.128 129.48 132.674 127.311 135.151C125.142 137.627 121.343 143.827 122.098 146.825L122.088 146.834Z" fill="white"/>
<path d="M144.478 132.051C144.45 132.684 144.161 133.196 143.873 133.671C142.318 136.268 140.317 138.484 137.952 140.373C137.663 140.606 137.337 140.783 137.002 140.951C136.528 141.183 136.332 141.128 135.988 140.699C135.392 139.964 135.317 139.089 135.448 138.214C135.755 136.175 136.63 134.406 138.138 132.991C139.497 131.716 141.108 131.185 142.96 131.539C143.463 131.641 143.947 131.865 144.478 132.051Z" fill="#40748F"/>
<path d="M190.225 135.951H190.206C189.824 138.977 185.821 138.865 182.451 138.726C178.867 138.586 174.557 137.497 176.986 137.283C179.844 137.022 182.693 137.18 185.533 137.18C186.687 137.143 187.488 136.38 186.789 136.37C185.663 136.333 184.546 136.203 183.41 136.119C178.839 135.672 173.979 135.747 169.381 137.236C167.305 131.846 158.321 129.528 153.303 128.299C147.475 126.996 141.415 127.005 135.503 127.582C140.391 127.266 145.334 127.424 150.166 128.29C151.767 128.578 153.35 129.007 154.895 129.472C159.01 130.747 164.726 132.656 167.333 136.212C167.668 136.678 167.919 137.171 168.096 137.692C167.938 137.748 167.779 137.813 167.64 137.869C166.951 138.139 162.957 139.861 156.552 148.435C155.035 150.465 152.223 151.024 150.296 150.958C147.652 150.819 145.036 150.511 142.43 150.204C140.009 149.906 137.57 149.627 135.178 149.199C131.696 148.538 128.298 147.635 124.993 146.546L124.918 146.685C128.167 147.905 131.537 148.929 135.001 149.702L135.55 149.813L136.099 149.925L136.658 150.027L137.216 150.13C141.48 150.837 147.433 151.755 151.79 152.118C150.859 153.109 149.938 153.049 148.997 153.049C143.998 152.546 138.427 151.833 134.107 150.94C129.787 150.055 125.142 148.594 123.596 148.091C122.349 147.681 122.135 147.114 122.098 146.909C122.172 147.663 122.889 153.63 125.868 154.552C129.043 155.539 138.017 158.22 144.804 159.132C151.59 160.044 157.288 161.404 169.232 156.842C169.232 156.842 179.491 152.811 183.866 149.869C188.242 146.927 190.178 145.224 190.364 141.183C190.55 137.143 190.225 135.942 190.225 135.942V135.951Z" fill="#40748F"/>
<path d="M134.712 137.041C134.591 138 134.46 138.958 134.405 139.927C134.377 140.532 134.311 141.137 134.488 141.714C134.647 142.226 135.01 142.794 135.522 142.943C135.661 142.98 135.754 142.961 135.931 142.915C136.164 142.85 136.425 142.729 136.676 142.589C137.998 141.826 139.143 140.746 140.186 139.638C141.973 137.664 143.947 135.709 145.408 133.494C145.799 132.889 146.19 132.228 146.349 131.529C146.46 130.989 146.321 130.552 145.846 130.254C144.962 129.658 143.453 129.835 142.467 130.152C142.159 130.245 141.871 130.375 141.573 130.515C142.057 130.086 142.643 129.742 143.277 129.528C144.021 129.267 144.896 129.118 145.716 129.314C146.116 129.425 146.498 129.602 146.805 129.882C149.169 132.097 144.152 137.525 142.578 139.247C141.685 140.197 140.782 141.202 139.776 142.031C138.761 142.868 137.039 144.134 135.671 144.116C134.535 144.041 133.781 142.943 133.623 141.919C133.492 141.23 133.651 140.522 133.799 139.852C134.023 138.893 134.33 137.962 134.693 137.05L134.712 137.041Z" fill="#40748F"/>
<path d="M132.087 150.521L131.584 150.363C131.649 150.167 133.139 145.615 134.684 143.092L135.131 143.371C133.613 145.838 132.096 150.484 132.077 150.53L132.087 150.521Z" fill="#40748F"/>
<path d="M146.032 129.891L145.585 129.612C145.623 129.556 146.433 128.308 147.755 127.48L148.034 127.927C146.814 128.69 146.032 129.891 146.023 129.9L146.032 129.891Z" fill="#40748F"/>
</g>
<defs>
<clipPath id="clip0_675_12491">
<rect width="269" height="179" fill="white"/>
</clipPath>
</defs>
</svg>
