<svg width="269" height="179" viewBox="0 0 269 179" fill="none" xmlns="http://www.w3.org/2000/svg">
<g clip-path="url(#clip0_671_11998)">
<path d="M0 179V43.98L43.89 0H269V179H0Z" fill="#DAE9F1"/>
<path d="M269 143.24L0 142.96V179H269V143.24Z" fill="#9CBED1"/>
<path opacity="0.2" d="M26.4199 142.99L60.5299 179H128.65L26.4199 142.99Z" fill="white"/>
<path opacity="0.2" d="M75.6201 150.29L230.06 179H269L75.6201 150.29Z" fill="white"/>
<path opacity="0.1" d="M82.1199 0H177.94L26.4199 142.99L82.1199 0Z" fill="#465E75"/>
<path opacity="0.5" d="M269 3.27V28.92L26.4199 142.99L269 3.27Z" fill="white"/>
<path opacity="0.7" d="M269 42.49V84.74L26.4199 142.99L269 42.49Z" fill="white"/>
<path opacity="0.5" d="M73.5699 0L26.4199 142.99L55.4799 0H73.5699Z" fill="white"/>
<path opacity="0.5" d="M0 120.79V43.98L26.42 142.99L0 120.79Z" fill="white"/>
<path d="M60.6098 94.01V131.95L65.5698 129.22L67.4198 132.5L65.4398 136.27V140.24L67.1598 143.25H74.5598L77.5498 139.26H90.0898L91.8598 143.25H100.03L103.84 138.44H109.22L113.19 143.41H118.92L124.4 137.93H195.83L201.06 133.72C201.06 133.72 201.64 130.66 201.83 130.34C202.02 130.02 202.35 119.07 202.35 119.07V105.25L201.83 90.7L201 74.61L198.83 66.82L196.72 62.67L194.01 57.55L193.37 53.27L184.68 40.9L175.15 35.54L159.75 32.14L148.66 31.2L142.69 30.72L137.67 30.55L134.16 30.42C134.16 30.42 124.38 29.39 116.57 33.23C107.49 34.77 102.81 36.65 102.81 36.65L60.5898 94.01H60.6098Z" fill="white"/>
<path d="M192.15 85.92C192.57 84.83 192.81 84.19 192.86 83.28C189.78 83.28 164.03 83.17 136.17 81.71C136.79 83.19 137.6 84.67 137.85 85.12C140.63 85.27 177.22 87.25 191.47 87.77C191.72 87.02 191.95 86.43 192.15 85.92Z" fill="#40748F"/>
<path d="M190.95 90.33H190.96C171.03 90.33 143.33 89.67 139.33 89.57L141.12 93.36C147.75 94.14 186.27 95.09 189.41 95.17C189.65 94.6 190.42 92.73 190.95 90.33Z" fill="#40748F"/>
<path d="M188.57 97.56H187.06C177.96 97.56 147.27 97.3 142.92 97.26C143.34 98.03 144.21 99.63 144.86 100.89C148.16 101.35 183.85 102.37 186.83 102.46C187.05 101.99 187.68 100.51 188.57 97.56Z" fill="#40748F"/>
<path d="M149.21 107.51C152.51 107.73 181.97 108.06 184.58 108.09C184.78 107.7 185.35 106.55 186.16 104.44C183.55 104.49 178.95 104.51 172.47 104.51C162.09 104.51 149.93 104.45 147.26 104.43C147.65 105.08 148.41 106.32 149.21 107.51Z" fill="#40748F"/>
<path d="M199.84 115.18C200.11 115.14 202.91 114.71 203.07 111.66C203.23 108.55 203.37 91.66 202.58 82.06L202.56 81.79L202.82 81.74C204.68 81.38 206.93 79.87 207.17 76.8C207.42 73.52 207.47 67.66 206.79 64.87C206.18 62.37 205.77 61.84 202.8 61.84C202.53 61.84 202.23 61.84 201.92 61.85C202.48 63.08 203.95 66.55 203.95 69.5V70.61C203.99 74.69 203.92 78.13 202.65 78.91L202.22 79.18L202.2 78.67C202.06 75.79 201.43 70.81 200.08 66.21C198.91 62.23 197.25 58.38 193.03 57.2C189.12 56.11 178.97 54.81 170.96 54.09C166.75 53.71 162.12 53.38 157.64 53.07C154.21 52.83 150.79 52.59 147.51 52.32C144.31 52.06 140.7 51.92 137.35 51.92C133.42 51.92 130.35 52.12 129.35 52.44C127.84 52.92 127.16 53.97 127.18 55.73C127.2 57.24 128.17 68.64 128.64 71.57C129.05 74.13 130.92 75.75 133.76 76.03C136.43 76.29 156.63 77.31 168.07 77.76C179.22 78.2 196.85 78.73 197.03 78.74H197.36L197.31 79.08C197.17 80.08 193.75 103.65 186.48 111.23L186.39 111.32H180.93C166.34 111.32 133.2 111.26 125.35 110.66C128.36 112.34 135.31 114.17 151.12 114.56C170.01 115.02 198.96 115.18 199.84 115.18ZM197.45 97.79V97.81C197.45 97.81 197.94 94.15 198.62 91.78C199.22 89.69 199.52 88.84 200.06 88.84C200.49 88.84 200.8 89.28 201.1 91.52C201.63 95.55 201.59 97.73 199.88 98.44C199.07 98.78 198.56 98.98 198.16 98.98C197.92 98.98 197.74 98.9 197.61 98.75C197.44 98.55 197.39 98.24 197.45 97.79ZM194.68 108.45H194.69C194.69 108.45 195.47 106.34 196 105.14C196.54 103.91 196.81 103.39 198.21 102.66C198.45 102.53 198.73 102.36 199.01 102.18C199.71 101.74 200.43 101.29 200.99 101.29C201.3 101.29 201.49 101.43 201.59 101.55C201.83 101.82 201.9 102.27 201.81 102.97C201.51 105.38 201 107.76 199.3 108.82C198.44 109.35 196.68 110.19 195.59 110.19C195.15 110.19 194.84 110.06 194.66 109.79C194.45 109.48 194.45 109.04 194.68 108.45Z" fill="#40748F"/>
<path d="M127.7 100.07C129.24 104.74 132.51 105.72 134.98 105.72C135.36 105.72 135.74 105.7 136.13 105.65C132.51 104.41 129.91 102 129.66 99.53L129.62 99.14L130.01 99.21C131.05 99.39 132.49 99.48 133.44 99.52C132.34 98.69 130.4 97.14 129.54 95.94C128.3 94.21 128.7 89.77 128.71 89.58L128.79 88.75L129.26 89.44C129.32 89.53 134.6 97.23 138.14 101.38L127.6 82.9C127.23 85.85 126.19 95.47 127.7 100.07Z" fill="#40748F"/>
<path d="M123.59 73.94L123.63 73.91L123.67 73.86L125.27 72.98L123.73 59.49C123.06 62.06 122.73 66.24 122.93 70.34C123.08 73.47 123.51 73.88 123.59 73.94Z" fill="#40748F"/>
<path d="M141.21 45.35H141.2C140.56 45.35 140.01 45.35 139.56 45.37C134.68 45.49 128 45.66 127.59 46.31C127.59 47.07 127.8 47.5 128.18 47.5H128.8C131.5 47.49 145.71 47.54 160.54 48.44C175.23 49.34 185.5 51.56 191.63 52.89C192.26 53.03 192.84 53.15 193.39 53.27C192.98 50.56 191.52 44.64 186.26 39.71C182.22 35.92 173.83 33.37 159.06 31.44C152.53 30.59 143.5 30.41 137.08 30.41C136.08 30.41 135.11 30.41 134.18 30.42C141.77 30.85 152.6 31.71 161.97 33.37C178.61 36.32 182.34 40.14 184.53 43.48L184.92 44.07L184.23 43.94C173.35 41.87 161.17 40.82 148.04 40.82C142.48 40.82 137.81 41.02 134.58 41.21C141.3 41.55 153.56 42.21 161.74 42.87C173.45 43.81 184.58 46.56 186.36 47.97L186.1 48.5C179.01 46.57 151.09 45.35 141.21 45.35Z" fill="#40748F"/>
<path d="M140.34 125.28H140.35C140.48 125.73 140.55 126.18 140.62 126.61C140.81 127.75 140.95 128.39 141.59 128.44C142 128.47 142.33 128.48 142.59 128.48C143.08 128.48 143.33 128.45 143.34 128.44H143.42L143.5 128.46C143.5 128.46 143.6 128.5 143.7 128.5C143.8 128.5 143.84 128.46 143.85 128.44C143.89 128.38 144.02 128.13 143.81 127.3C143.36 125.56 142.47 122.78 142.23 122.04C140.74 121.9 131.27 121.01 128.04 120.79C128.5 124.68 129.53 126.69 130.36 127.29C131.19 127.88 133.65 128.38 135.45 128.5L136.85 128.59C136.81 127.79 136.65 125.67 136.21 123.6L136.13 123.24H138.89C138.99 123.28 139.87 123.57 140.34 125.28Z" fill="#40748F"/>
<path d="M188.15 143.71V143.69H186.75L187.33 143.17C189.24 141.43 189.66 139.27 189.67 139.25L189.72 139H193.64C195.36 139 197.94 138.72 200.43 137.38C202.34 136.35 203.47 132.07 203.47 125.92C203.47 121.5 202.62 118.62 202.37 117.87H148.86C149.61 121.75 152.4 126.95 154.13 128.29C155.23 129.14 158.23 129.55 163.3 129.55C165.01 129.55 166.99 129.5 169.34 129.41C176.6 129.11 177.35 128.2 178.6 126.68C179.93 125.06 182.57 120.55 182.6 120.5L182.69 120.35H187.91L187.7 120.78C187.57 121.05 184.41 127.4 182.82 129.76C181.22 132.13 179.85 132.76 177.71 133.14C175.53 133.54 162.66 133.68 152.31 133.68C140.51 133.68 129.22 133.22 124.51 132.91C119.93 132.61 118.91 128.51 118.36 126.31L118.31 126.11C117.97 124.73 117.84 121.76 117.7 118.31C117.62 116.36 117.54 114.35 117.41 112.49C117.07 107.61 115.66 105.13 113.21 105.13C110.76 105.13 109.21 107.35 109.19 107.37L108.65 108.14V74.97H112.57V75.27C112.57 78.37 115.87 78.52 116 78.52H118.96V81.6C118.96 82.16 119.45 82.3 119.43 82.31H120.67C121.01 82.31 121.25 82.23 121.4 82.08C121.57 81.91 121.56 81.68 121.56 81.66V77.99C121.56 76.59 119.91 76.52 119.85 76.51H117.13C115.72 76.51 114.64 76.39 114.64 74.85V74.54L115.15 74.56C117.1 74.56 117.41 73.06 117.42 73.04C117.42 72.89 117.95 57.96 117.95 56.91C117.95 55.93 117.14 55.37 116.45 55.19C116.23 55.13 116.04 55.1 115.87 55.07C115.35 54.98 114.81 54.9 114.81 54.07C114.81 53.07 116.67 52.9 117.06 52.88H121.14V51.35H116.64C113.35 51.35 113.09 52.43 113.09 53.95V54.25H112.79C110.59 54.25 109.68 54.81 109.3 55.29C108.88 55.81 108.99 56.35 109.01 56.46C109.01 56.46 108.54 66 108.3 71.21L107.72 71.31C106.17 67.71 106.2 59.98 106.21 56.26V55.43C106.21 52.65 108.77 51.62 109.58 51.36C109.54 50.01 109.41 43.23 110.85 38.64C112 34.98 114.91 32.95 116.59 32.04H103.59L61.47 91.95L60.6 94.01L103 37.93V110.81L102.83 110.89C102.46 111.07 65.44 129.21 64.51 129.76C64.32 129.87 60.63 131.94 60.6 131.95C60.63 131.98 63.33 131.84 63.46 131.9L65.74 131.84C65.47 132.26 64.96 133.44 64.96 136.47C64.96 142.33 67.38 143.96 67.4 143.98L68.2 144.5L67.25 144.54C63.82 144.67 60.08 144.96 59 145.27C60.51 145.77 67.59 146.18 73.9 146.55C82.62 147.05 99.82 147.3 133.28 147.39C139.62 147.41 144.92 147.42 149.48 147.42C166.66 147.42 173.35 147.29 185.5 147.06L186.66 147.04C205.43 146.68 215.29 145.91 217.09 145.28C214.28 144.47 194.96 143.71 188.15 143.71ZM177.7 122.4C177.15 123.41 175.67 124.98 175.61 125.05L175.52 125.14H175.39C174.76 125.14 159.97 125.05 157.54 124.69L157.51 124.1C157.59 124.08 165.68 122.05 177.44 121.96H177.95L177.71 122.4H177.7ZM188.99 130.24C189 130.13 189.28 127.63 190.52 126.36C191.57 125.28 192.97 124.9 193.94 124.9C194.13 124.9 194.31 124.91 194.46 124.94L194.8 125L194.55 125.77C194.35 126.36 193.88 127.74 193.97 127.99C194.04 128.04 194.42 128.15 195.35 128.15C195.65 128.15 195.87 128.14 195.87 128.14L195.9 128.12L195.97 128.15C195.97 128.15 196.23 127.98 196.39 127.24L196.43 127.08C196.75 125.62 197.07 124.1 198.17 124.1H200.6L200.57 124.43C200.55 124.61 200.16 128.91 198.45 130.74L198.36 130.84H198.23C194.83 130.81 189.33 130.57 189.28 130.57H188.96L188.99 130.24ZM69.49 139.76C69.49 141.31 68.75 141.64 68.12 141.64C67.04 141.64 66.13 139.9 66 137.58C65.84 134.72 66.97 133.28 67.02 133.22L67.71 132.37L67.55 133.45C67.55 133.45 67.27 135.43 67.55 137.25C67.84 139.17 68.45 139.38 69.22 139.46L69.49 139.49V139.76ZM73.16 141.14C72.95 141.38 72.66 141.52 72.34 141.52C72.06 141.52 71.62 141.41 71.14 140.86C69.97 139.55 69.64 134.25 71.31 132.74L71.91 132.2L71.81 133C71.65 134.27 71.43 137.81 72.37 138.87C72.54 139.06 72.73 139.15 72.96 139.15C73.03 139.15 73.1 139.15 73.17 139.13L73.48 139.07L73.53 139.38C73.64 140.09 73.51 140.73 73.16 141.14ZM114.44 112.15C115.07 112.15 115.49 112.27 115.51 112.27L115.73 112.33V115.98L115.35 115.87C114.87 115.73 114.39 115.66 113.93 115.66C111.15 115.66 109.64 118.19 109.62 118.22L109.07 118.02C109.93 112.92 112.8 112.15 114.44 112.15ZM75.62 128.89L88.61 124V128.88L75.62 132.79V128.89ZM75.62 134.11L88.61 130.71V133.92L75.62 136.71V134.11ZM78.73 143.85H78.72L79.53 143.27C79.53 143.27 80.8 142.35 81.6 139.96L81.67 139.75H89.53V140.06C89.53 140.06 89.47 141.79 90.63 143L91.1 143.49L78.73 143.85ZM95.14 137.06C94.7 139.22 93.66 140.68 92.54 140.68C91.42 140.68 90.28 137.96 90.03 134.48C89.78 130.89 91.09 128.17 91.14 128.06L91.31 127.72L91.6 127.96C91.68 128.02 91.93 128.29 91.92 129.13C91.92 129.15 91.68 131.5 91.92 133.82C92.21 136.67 92.77 136.7 92.8 136.7C93.04 136.7 93.81 135.95 94.11 134.77L94.62 132.76L94.98 133.49C94.98 133.49 95.6 134.78 95.14 137.06ZM96.05 123.45L95.91 124.22L95.5 123.55C95.5 123.55 94.66 122.2 93.4 122.2C91.96 122.2 90.67 124.17 90.65 124.2L90.1 123.98C90.93 119.79 93.06 119.46 93.69 119.46C94.44 119.46 95.12 119.82 95.49 120.39C96.34 121.74 96.05 123.39 96.04 123.45H96.05ZM97.11 128.19H97.12C97.12 128.05 97.18 124.69 97.36 123.56C97.54 122.4 97.72 121.67 98.7 121.28C99.53 120.95 106.55 118.32 106.55 118.32L106.96 118.17V126.18L97.11 128.58V128.19ZM97.12 131.09L106.96 129.17V132.91L97.12 134.06V131.09ZM102.78 143.12L103.32 142.61C103.32 142.61 104.55 141.43 104.78 139.31L104.81 139.04H108.65L108.7 139.27C108.7 139.27 109.13 141.1 110.99 142.59L111.66 143.12H102.78ZM114.4 138.75H114.38C113.91 139.37 113.36 139.68 112.76 139.68C111.8 139.68 110.97 138.87 110.56 138.17C109.92 137.1 109.23 134.66 109.23 131.02C109.23 127.38 109.7 124.56 109.7 124.54C109.77 124.07 109.99 123.97 110.17 123.97C110.48 123.97 110.73 124.34 110.89 124.65L110.93 124.72V124.8C110.93 124.8 110.84 126.73 110.97 129.53C111.13 132.9 112.03 135.52 112.71 135.52C113.76 135.5 114.15 134.29 114.93 131.56L115.13 130.88L115.72 130.94C116 134.74 115.58 137.22 114.4 138.75ZM126.62 143.13L126.96 142.66C126.96 142.66 128.06 141.11 128.42 139.12L128.46 138.87H168.64V139.18C168.64 139.26 168.62 141.11 170.69 142.59L171.45 143.13H126.62Z" fill="#40748F"/>
</g>
<defs>
<clipPath id="clip0_671_11998">
<rect width="269" height="179" fill="white"/>
</clipPath>
</defs>
</svg>
