<svg width="270" height="179" viewBox="0 0 270 179" fill="none" xmlns="http://www.w3.org/2000/svg">
<g clip-path="url(#clip0_675_12520)">
<mask id="mask0_675_12520" style="mask-type:luminance" maskUnits="userSpaceOnUse" x="0" y="0" width="270" height="179">
<path d="M269.59 0H0V179H269.59V0Z" fill="white"/>
</mask>
<g mask="url(#mask0_675_12520)">
<path d="M0 179V43.98L43.89 0H269V179H0Z" fill="#DAE9F1"/>
<path d="M269 92.68L0 92V179H269V92.68Z" fill="#9CBED1"/>
<path opacity="0.4" d="M141.89 98.98L64.1699 179H138.77L141.89 98.98Z" fill="#E9F6FE"/>
<path opacity="0.4" d="M141.89 98.98L29.8301 179H55.1801L141.89 98.98Z" fill="#E9F6FE"/>
<path opacity="0.5" d="M106.09 0H177.94L141.89 98.98L106.09 0Z" fill="white"/>
<path opacity="0.5" d="M269 3.27V28.92L141.89 98.98L269 3.27Z" fill="white"/>
<path opacity="0.7" d="M269 42.49V84.74L141.89 98.98L269 42.49Z" fill="white"/>
<path opacity="0.5" d="M91.41 0L141.88 98.98L55.48 0H91.41Z" fill="white"/>
<path opacity="0.4" d="M141.89 98.98L207.51 179H269L141.89 98.98Z" fill="#E9F6FE"/>
<path opacity="0.4" d="M141.89 98.98L269 84.74V141.07L141.89 98.98Z" fill="#E9F6FE"/>
<path opacity="0.4" d="M0 135.16V80.62L141.89 98.98L0 135.16Z" fill="#E9F6FE"/>
<path d="M72.4998 63.61L59.3198 96.86L64.0398 99.78L82.3598 113.44L82.0998 119.81L84.4598 124.41L87.5298 125.5H89.2498L89.7398 130.8L95.0598 135.17L100.48 134.11V138.33L105.46 142.1L110.25 141.78L112.8 146.32L115.72 147.14L119.42 146.82L124.97 144.46L134.93 147.25L138.42 144.76L144.72 144.71L151.19 140.08L156.55 140.12L162.19 132.84L169.85 127.29L170.06 118.63L202.82 98.3L190.62 66.3L168.65 73.03L164.22 73.38L135.21 63.3L122.12 68.79L83.0198 64.69L72.8498 62.6L72.4998 63.61Z" fill="white"/>
<path d="M131 108.97C131.08 108.72 131.08 108.59 131.08 108.59L131 108.97Z" fill="#41748F"/>
<path d="M83.7202 116.63C83.7202 116.63 83.8202 118.3 84.5502 119.82C85.2802 121.34 86.8202 121.9 86.8202 121.9L89.7402 121.88C89.7402 121.88 85.8102 120.23 83.7202 116.63Z" fill="#41748F"/>
<path d="M96.6998 124.03C97.1398 122.12 98.2698 121 98.2698 121C98.2698 121 100.47 121.48 103.23 123.91C102.32 120.69 98.2998 119.26 98.2998 119.26C98.2998 119.26 95.5298 121.34 95.5898 124.25C96.9898 126.84 100.28 127.73 100.28 127.73C100.28 127.73 97.4198 125.66 96.6998 124.03Z" fill="#41748F"/>
<path d="M107.3 131C107.79 129.19 109.01 128.27 109.01 128.27C109.01 128.27 111.54 128.97 112.91 129.83C111.45 127.56 108.72 126.61 108.72 126.61C108.72 126.61 107.12 127.28 106.37 131.08C107.44 133.64 109.32 134.01 109.32 134.01C109.32 134.01 107.47 132.25 107.29 131H107.3Z" fill="#41748F"/>
<path d="M188.16 61.16L196.08 57.17L207.5 53.22L224.63 94.49L206.76 103.51L188.16 61.16Z" fill="white"/>
<path d="M73.9899 59.17L64.6299 56.96L54.6299 54.49L39.4399 96.36L56.7199 104.92L73.9899 59.17Z" fill="white"/>
<path d="M158.49 71.39L169.39 75.19L190.08 64.87L167.79 72.88" fill="#41748F"/>
<path d="M202.29 96.93L178.25 110.75L171.19 115.22L156.95 103.99L160.77 104.33C160.77 104.33 156.62 102.72 154.15 101.09C159.11 100.81 165.65 99.94 165.65 99.94C165.65 99.94 154.49 99.08 149.68 96.62C147.1 94.33 137.36 86.53 137.36 86.53C137.36 86.53 133.99 84.57 131.12 82.87C130.14 84.02 129.58 84.92 129.58 84.92L126.19 85.77C126.19 85.77 125.82 84.7 122.74 83.7C123.41 86.21 123.44 87.3 123.44 87.3C123.44 87.3 120.19 93.87 116.04 96.75C112.42 96.84 110.64 96.62 107.31 93.84C108.18 92.2 108.99 89.07 109.65 86.54C109.65 86.54 112.77 85.81 115.02 86.02C114.89 88.32 114.19 90.42 111.76 92.72C115.21 91.57 116.74 88.25 116.93 84.23C112.14 83.34 109.81 84.28 109.81 84.28C109.81 84.28 111.34 76.46 111.51 73.39C121.43 70.1 135.19 63.3 135.19 63.3L109.1 72.31C107.86 86.96 104.11 93.49 104.11 93.49C104.11 93.49 108.28 101.16 116.6 99.2C122.02 96.56 125.37 88.66 125.37 88.66L128.72 88.51L130.79 87.66L132.69 88.36L136.77 88.86L166.16 120.77C166.74 124.04 164.86 127.25 161.73 128.35L160.24 128.87C160.24 128.87 151.25 122.87 138.29 110.17C143.34 117.28 145.17 120.78 158.11 132.42C156.44 135.01 154.65 136.79 154.65 136.79L151.97 138.23L148.86 136.36C148.86 136.36 131.86 123.37 128.22 120.73C132.65 126.91 137.69 131.41 145.5 137.79C145.5 137.79 142.67 141.22 140.27 142.53C136.99 141.93 125.29 136.79 119.14 128.72C120.15 132.14 128.15 140.07 132.12 142.53C130.44 144.05 128.89 143.14 128.89 143.14L122.32 140.41L122.52 135.76C122.52 135.76 120.95 134.57 119.64 133.68C118.33 132.79 116.99 133.3 116.99 133.3L117.3 129.32C117.3 129.32 116.26 126.19 113.64 122.91C111.35 122.53 107.88 123.34 107.88 123.34L107.1 120.22C107.1 120.22 104.38 115.66 99.3698 115.22C95.7998 116.6 95.0398 117.13 95.0398 117.13L78.8998 107.87L66.7098 98.4L59.3098 96.77L58.0898 99.11L65.0798 102.37L81.6198 114.91L80.9798 120.65C80.9798 120.65 81.6898 124.22 85.0698 126.34C87.6498 126.84 88.7298 126.56 88.7298 126.56C88.7298 126.56 88.2298 129.97 88.5198 131.63C90.4598 133.83 91.9698 135.02 93.0298 135.66C93.9098 136.2 94.9698 136.37 95.9798 136.14L99.7398 135.3C99.7398 135.3 99.6498 137.36 99.7398 138.5C100.55 140.17 102.59 141.63 104.06 142.51C105.03 143.09 106.2 143.22 107.28 142.88C107.92 142.68 108.78 142.43 109.85 142.15C109.79 143.62 110.26 145.54 110.26 145.54C110.26 145.54 113.49 148.24 117.49 148.72C122.85 147.06 124.48 145.69 124.48 145.69C124.48 145.69 128.12 147.27 132.94 147.8C135.01 148.03 137.08 147.3 138.54 145.82L138.62 145.74C138.62 145.74 140.54 145.85 142.96 145.72C145.13 145.61 147.22 144.77 148.87 143.35C150.1 142.3 150.73 141.47 150.73 141.47C150.73 141.47 151.25 141.57 152.27 141.63C154.98 141.79 157.64 140.82 159.65 138.98C161.09 137.66 161.86 136.62 161.86 136.62L162.04 133.66C162.04 133.66 163.9 133.48 166.1 132.77C168.7 130.95 171.56 127.48 171.56 127.48C171.56 127.48 171.61 124.68 171.04 121.89C172.85 121.17 178.1 117.88 180.84 114.32C186.66 110.28 203.66 100.61 203.66 100.61L202.24 96.91L202.29 96.93ZM89.7198 123.29C88.3998 124.25 87.8298 123.49 87.8298 123.49L85.7998 123.11C85.7998 123.11 84.1298 122.28 83.0598 119.48C83.0298 115.31 83.2998 115.68 83.2998 115.68C83.2998 115.68 83.9098 115.01 86.3598 115.27C89.6998 117.02 91.4098 119.7 91.4098 119.7C91.4098 119.7 91.0398 122.33 89.7198 123.28V123.29ZM101.26 129.86C99.8798 132.35 98.1598 131.87 98.1598 131.87C98.1598 131.87 93.9798 131.86 92.6098 130.79C91.2398 129.72 91.4098 126.12 91.4098 126.12C91.4098 126.12 91.4998 125.48 93.5598 122.89C95.6198 120.3 98.1898 118.54 98.1898 118.54C98.1898 118.54 100.62 118.25 102.06 119.51C103.5 120.77 104.37 123.29 104.37 123.29C104.37 123.29 103.62 125.59 101.25 129.87H101.26V129.86ZM109.91 137.35C107.59 139.97 105.81 137.78 105.81 137.78C104.01 136.57 102.54 134.01 102.54 134.01C102.54 134.01 102.29 133.58 104.02 131.21C105.75 128.84 107.82 125.41 111.23 125.11C112.85 126.52 113.5 127.29 114.51 130.44C113.91 131.99 113.77 133.92 109.91 137.34V137.35ZM117.75 143.87C115.61 144.14 113.67 142.85 113.67 142.85C113.67 142.85 112.56 141.89 112.02 140.52C113.01 137.14 113.94 136.96 113.94 136.96C113.94 136.96 114.29 139.73 117.09 140.5C114.94 137.77 115.04 136.61 115.68 135.18C118.58 135.41 119.73 137.35 119.73 137.35L118.53 141.29C118.53 141.29 119.31 142.43 117.75 143.86V143.87Z" fill="#41748F"/>
<path d="M208.89 52.11L196.08 57.17L207.7 54.41L223.69 93.05L207.35 100.64L188.16 61.16L190.08 64.87L191.14 67.64L202.82 98.3L203.71 100.63L206.08 106.83L226.85 97.59L208.89 52.11Z" fill="#41748F"/>
<path d="M55.9301 101.04L41.2001 94.88L55.4301 55.38L64.6301 56.97L53.8501 53.1L36.8701 97.6L57.6401 106.84L60.0001 100.64L60.9001 98.31L73.9901 59.18L55.9301 101.05V101.04Z" fill="#41748F"/>
<path d="M205.53 48.19C209.52 46.45 226.5 39.27 240.37 36.36C257.22 28.45 269.59 21.81 269.59 21.81V94.58L230.78 109.3C229.23 109.89 227.49 109.11 226.91 107.55L205 49.46C204.81 48.96 205.05 48.4 205.54 48.19H205.53Z" fill="#41748F"/>
<path d="M59.05 48.58L23.34 36.37L12.55 31.4L0 43.98V96.91L35.83 109.78L59.06 48.58H59.05Z" fill="#41748F"/>
<path d="M269.59 89.12L230.03 104.41L205 49.46L227.85 110.7L269.59 94.58V89.12Z" fill="#41748F"/>
<path d="M59.06 48.58L35.83 109.78L0 96.91V93.55L33.87 104.92L59.06 48.58Z" fill="#41748F"/>
</g>
</g>
<defs>
<clipPath id="clip0_675_12520">
<rect width="269.59" height="179" fill="white"/>
</clipPath>
</defs>
</svg>
