<svg width="269" height="179" viewBox="0 0 269 179" fill="none" xmlns="http://www.w3.org/2000/svg">
<g clip-path="url(#clip0_664_7992)">
<path d="M0 179V43.98L43.89 0H269V179H0Z" fill="#DAE9F1"/>
<path opacity="0.7" d="M134.5 80.62L0 87.71V129.58L134.5 80.62Z" fill="white"/>
<path opacity="0.7" d="M134.5 80.62L269 120.79V71.88L134.5 80.63V80.62Z" fill="white"/>
<path opacity="0.5" d="M129 0L193.5 0L134.5 80.62L129 0Z" fill="white"/>
<path opacity="0.5" d="M269 3.27V28.92L134.5 80.62L269 3.27Z" fill="white"/>
<path opacity="0.5" d="M106.85 0L134.5 80.62L55.48 0H106.85Z" fill="white"/>
<path opacity="0.7" d="M0 60.13V43.98L19.03 24.91L134.5 80.62L0 60.13Z" fill="white"/>
<path d="M31.96 93.83L35.37 97.43L44.56 95.54L54.77 104.05L70.09 97.24L77.24 104.05L92.56 106.09L107.88 113.24L130.04 97.58L152.13 109.49L160 101.04L168.64 107.79L177.66 105.75L188.56 111.08H202.85L216.81 103.54L232.13 107.45L247.11 103.54L250.17 101.04L260.73 106.77L269 108.81V179H0V107.11L31.96 93.83Z" fill="#9CBED1"/>
<path d="M170.19 144.28L197.24 126.51L212.56 135.4L218.17 124.47L239.11 127.54L255.96 104.56L269 93.83V179H168.64L170.19 144.28Z" fill="#8AB4CC"/>
<path d="M0 107.11L17.49 91.79C30.5 102 44.5 112 57.83 122.94L64.47 119.37L78.77 124.73L92.5 119.37L166.6 153.84L191 142.5L231.45 166.36H238.09L269 179.02H0V107.11Z" fill="#71A2BD"/>
<path d="M214 220C211.033 219.036 205.087 217.133 201.519 216.117C200.683 207.739 187.783 198.93 187.783 198.93C184.377 192.016 182.281 182.502 183.144 174.76C182.895 174.551 171.512 164.948 169.565 161.222C161.018 160.661 144.485 159.827 144.485 159.827C144.485 159.827 143.231 158.746 143.466 157.56C143.701 156.374 143.152 155.254 143.152 155.254C143.152 155.254 144.407 152.257 144.59 150.511C144.76 148.765 145.374 145.169 146.027 135.292C146.681 125.415 147.609 115.173 147.609 115.173L150.04 115.265C150.04 115.265 149.87 116.685 149.778 117.454C149.687 118.222 149.517 118.874 149.844 118.926C150.17 118.978 150.641 118.835 150.758 117.831C150.876 116.828 151.948 118.014 151.151 119.46C150.353 120.907 149.674 121.48 149.674 121.48C149.674 121.48 149.765 122.079 151.033 121.897C152.301 121.714 153.608 118.965 153.608 118.965C153.608 118.965 153.987 117.219 153.66 115.356C153.333 113.492 153.307 108.841 152.954 104.997L152.601 101.153C152.601 101.153 150.288 86.9764 148.262 79.015C143.008 78.3896 139.467 76.9432 138.238 75.1712V73.3079C138.238 73.3079 138.643 72.07 139.179 71.3273C139.715 70.5846 139.898 70.324 140.107 69.881C140.316 69.4379 140.133 68.9298 139.597 68.8777C139.859 67.275 139.741 66.3889 139.859 65.3856C139.976 64.3823 139.807 61.216 136.265 60.7078C132.723 60.1996 130.75 62.9229 130.266 64.4083C129.769 65.8938 130.501 69.2295 130.501 69.2295C130.501 69.2295 130.005 69.3728 130.331 70.2979C130.658 71.2231 130.567 71.5097 130.985 72.07C131.403 72.6303 131.495 72.6694 131.691 73.1385C131.874 73.6076 131.834 75.6793 131.834 75.6793C131.834 75.6793 130.462 76.7478 130.083 77.0084C128.24 77.0735 123.666 77.0605 123.666 77.0605C123.666 77.0605 120.438 80.6438 118.922 81.4125C117.406 82.1813 112.427 83.6276 112.427 83.6276C112.427 83.6276 110.479 80.5917 109.63 78.1811L108.793 75.7705L107.983 74.6891C107.983 74.6891 108.088 73.4642 108.022 72.6303H117.354V69.1252H115.367V64.7992L110.179 60.9814V58.9097C111.041 58.7403 111.46 58.3233 111.46 58.3233H110.179V57.8673C112.949 56.7206 113.655 54.1016 113.812 51.5347C116.204 51.4174 116.439 49.6193 116.517 49.072C116.583 48.5117 116.779 48.1599 117.445 48.0426C118.112 47.9254 118.634 47.0914 118.242 46.896C117.85 46.7136 117.079 46.5702 116.87 47.0784C116.661 47.5866 116.452 47.4563 115.981 47.4563C115.511 47.4563 115.067 48.0817 115.772 48.6681C115.772 50.805 114.034 50.818 113.838 50.805C113.864 49.6714 113.825 48.5638 113.825 47.6257C114.805 46.4399 114.518 45.2803 114.518 45.2803C114.518 45.0718 112.597 44.8894 110.126 44.8633L109.63 43H109.329L108.833 44.8633C106.349 44.8894 104.441 45.0718 104.441 45.2803C104.441 45.2803 104.154 46.4269 105.134 47.6257C105.134 48.5638 105.082 49.6584 105.121 50.805C104.925 50.805 103.187 50.805 103.187 48.6681C103.893 48.0817 103.448 47.4563 102.978 47.4563C102.507 47.4563 102.298 47.5996 102.089 47.0784C101.88 46.5702 101.109 46.7005 100.717 46.896C100.325 47.0784 100.834 47.9254 101.514 48.0426C102.194 48.1599 102.376 48.5117 102.442 49.072C102.507 49.6323 102.755 51.4174 105.147 51.5347C105.304 54.1016 106.023 56.7206 108.78 57.8673V58.3233H107.5C107.5 58.3233 107.918 58.7403 108.78 58.9097V60.9814L103.592 64.7992V69.1252H101.605V72.6303H103.03C103.03 72.6303 103.187 74.5978 105.043 76.1614C103.853 77.3472 103.801 77.9726 103.801 77.9726C103.801 77.9726 105.814 81.5559 107.042 84.631C108.284 87.7061 109.708 89.2175 109.708 89.2175C109.708 89.2175 119.628 89.426 121.849 88.6312C122.006 94.8465 123 99.2507 120.922 104.528C118.844 109.818 118.517 112.724 118.517 112.724C118.517 112.724 120.922 113.675 123.98 113.675V136.491C123.98 136.491 123.98 140.869 124.633 144.869C125.287 148.869 124.79 152.452 124.633 153.325C125.679 154.55 125.783 155.423 125.783 155.423C125.783 155.423 125.352 156.335 124.882 156.609C124.411 156.883 124.516 157.69 124.516 157.69C124.516 157.69 125.561 158.316 125.77 158.733C125.979 159.15 125.352 159.567 125.352 159.567C125.352 159.567 124.411 160.44 124.202 161.065C121.575 160.296 112.962 161.808 109.133 161.065C105.304 160.322 100.259 161.899 100.259 161.899C96.4698 175.079 86.9373 183.573 74.5654 193.927L73.8204 201.002L69.8082 201.471C65.2403 207.197 63.7331 214.569 59 219.974H213.987L214 220ZM130.75 135.344C131.155 131.891 132.592 127.734 133.847 124.347C135.102 120.959 136.095 118.405 136.095 118.405C136.095 118.405 138.055 129.65 138.552 134.054C139.048 138.458 138.421 145.781 137.715 149.703C137.153 152.804 138.264 154.733 138.264 154.733C138.264 154.733 137.925 155.957 137.885 156.935C137.846 157.912 139.571 160.427 139.571 160.427C139.571 160.427 131.965 160.674 131.233 160.427C131.168 159.098 130.776 158.824 130.776 158.824C130.776 158.824 131.377 158.329 131.024 156.935C130.671 155.54 130.776 154.042 130.776 154.042C130.776 154.042 131.651 152.231 131.651 148.635C131.651 145.038 130.358 138.823 130.763 135.37L130.75 135.344Z" fill="#41748F"/>
</g>
<defs>
<clipPath id="clip0_664_7992">
<rect width="269" height="179" fill="white"/>
</clipPath>
</defs>
</svg>
