<svg width="144" height="144" viewBox="0 0 144 144" fill="none" xmlns="http://www.w3.org/2000/svg">
<path d="M72.2769 27C101.684 27 110.918 50.4948 112.46 55.1309C111.813 55.1119 110.927 55.1976 109.947 55.6641C107.948 52.4083 95.4671 33.7971 72.2769 33.7971C49.0867 33.7971 36.6253 52.4083 34.6262 55.6545C33.6552 55.1976 32.7698 55.1024 32.132 55.1214C33.7028 50.3806 42.937 27 72.2769 27ZM37.444 81.5007C37.8915 80.3869 38.7387 79.5206 39.8335 79.0446L43.8985 77.293C44.4696 77.0455 45.0694 76.9217 45.6691 76.9217C46.2308 76.9217 46.7925 77.0264 47.3256 77.2454C48.4394 77.6928 49.3057 78.5401 49.7817 79.6349L61.9289 107.88C62.9095 110.146 61.8528 112.792 59.5871 113.773L55.5126 115.524C54.4083 116 53.1993 116.01 52.0855 115.572C50.9717 115.125 50.1054 114.277 49.6294 113.183L37.4821 84.9374C37.0061 83.8331 36.9966 82.6241 37.4345 81.5103L37.444 81.5007ZM46.1927 108.185C43.3653 103.168 40.5665 96.8657 38.7483 90.8587L46.1927 108.185ZM37.1489 67.7447C36.3493 69.1821 34.274 74.0467 35.8923 84.0425C37.7296 95.333 45.1455 110.565 50.3624 116.381C49.8007 116.695 49.2962 116.886 48.9725 116.99C47.7635 115.582 42.3372 108.937 38.3008 98.9314C34.7499 90.1542 32.8746 82.4622 32.2653 79.7301L34.1026 80.4631V79.6825L36.3778 67.0402L37.1394 67.7447H37.1489ZM72.2769 37.1481C71.2107 37.11 48.963 36.6055 37.2156 58.1106C36.9109 57.5299 36.4159 56.854 35.6448 56.2733C37.5583 53.1604 49.6865 34.9966 72.2674 34.9966C94.8483 34.9966 106.996 53.1604 108.919 56.2733C108.157 56.8445 107.662 57.5204 107.357 58.1011C95.6099 36.6055 73.3527 37.1005 72.2769 37.1481ZM89.0413 115.534L84.9763 113.782C82.7106 112.802 81.6539 110.165 82.6249 107.89L94.7722 79.6444C95.2481 78.5401 96.1144 77.6928 97.2283 77.2549C97.7614 77.0455 98.323 76.9312 98.8847 76.9312C99.4845 76.9312 100.084 77.055 100.655 77.3025L104.73 79.0542C105.834 79.5301 106.681 80.3964 107.119 81.5103C107.567 82.6241 107.548 83.8426 107.072 84.9374L94.9245 113.183C94.4485 114.287 93.5822 115.134 92.4684 115.572C91.3546 116.01 90.136 116 89.0413 115.524V115.534ZM105.863 90.792C104.035 96.8371 101.217 103.206 98.3611 108.242L105.863 90.792ZM106.282 98.9505C102.245 108.965 96.8094 115.61 95.6099 117.01C95.2958 116.905 94.7817 116.714 94.22 116.4C99.4464 110.574 106.862 95.333 108.69 84.0616C110.308 74.0658 108.243 69.1917 107.433 67.7637L108.205 67.0497L110.47 79.6444V80.4821L112.308 79.7491C111.698 82.4813 109.823 90.1733 106.272 98.9505H106.282ZM34.2359 56.7779C33.1887 56.2543 32.2843 56.2733 31.8083 56.34L29 72.7045L31.9035 78.2831L33.0554 78.74L36.5206 59.5196C36.4159 59.1293 35.9304 57.6156 34.2359 56.7779ZM31.6846 71.981C31.1324 71.981 30.685 71.5335 30.685 70.9814C30.685 70.4292 31.1324 69.9723 31.6846 69.9723C32.2367 69.9723 32.6842 70.4197 32.6842 70.9814C32.6842 71.543 32.2367 71.981 31.6846 71.981ZM112.765 56.34C112.289 56.2733 111.384 56.2543 110.337 56.7779C108.642 57.6156 108.157 59.1102 108.052 59.5196L111.517 78.74L112.679 78.2735L115.582 72.7045L112.765 56.34ZM112.888 71.9905C112.336 71.9905 111.879 71.543 111.879 70.9909C111.879 70.4388 112.327 69.9818 112.888 69.9818C113.45 69.9818 113.888 70.4292 113.888 70.9909C113.888 71.5526 113.44 71.9905 112.888 71.9905Z" fill="white"/>
</svg>
