<svg width="144" height="144" viewBox="0 0 144 144" fill="none" xmlns="http://www.w3.org/2000/svg">
<path d="M103.47 42.38C95.31 42.38 88.67 49.02 88.67 57.18C88.67 65.34 95.31 71.98 103.47 71.98C111.63 71.98 118.28 65.34 118.28 57.18C118.28 49.02 111.63 42.38 103.47 42.38ZM103.47 70.72C96 70.72 89.92 64.64 89.92 57.17C89.92 49.7 96 43.62 103.47 43.62C110.94 43.62 117.03 49.7 117.03 57.17C117.03 64.64 110.94 70.72 103.47 70.72ZM103.47 46.1C97.36 46.1 92.39 51.07 92.39 57.18C92.39 63.29 97.36 68.26 103.47 68.26C109.58 68.26 114.55 63.29 114.55 57.18C114.55 51.07 109.58 46.1 103.47 46.1ZM103.47 67.01C98.05 67.01 93.64 62.6 93.64 57.18C93.64 51.76 98.05 47.35 103.47 47.35C108.89 47.35 113.3 51.76 113.3 57.18C113.3 62.6 108.89 67.01 103.47 67.01ZM117.52 83.85V83.87H89.41C82.45 83.87 76.79 78.21 76.79 71.25V43.12C76.79 38.1 79.74 33.77 83.99 31.74H59.28L59.1 31.58C58.69 31.21 58.15 31 57.6 31H40.09C39.55 31 39.01 31.21 38.58 31.58L38.4 31.74H26.01C19.94 31.74 15 36.68 15 42.75V98.7C15 106.05 20.98 112.03 28.33 112.03H115.17C122.52 112.03 128.5 106.05 128.5 98.7L128.52 77.4C126.35 81.25 122.24 83.85 117.52 83.85ZM74.34 79.64C74.34 85.51 69.57 90.27 63.72 90.27H33.96C28.1 90.27 23.34 85.5 23.34 79.65V49.88C23.34 44.02 28.11 39.26 33.96 39.26H63.72C69.58 39.26 74.34 44.03 74.34 49.88V79.64ZM100.23 98.42C99.69 98.42 99.26 97.99 99.26 97.45C99.26 96.91 99.69 96.48 100.23 96.48C100.77 96.48 101.2 96.91 101.2 97.45C101.2 97.99 100.77 98.42 100.23 98.42ZM100.23 95.15C99.69 95.15 99.26 94.72 99.26 94.18C99.26 93.64 99.69 93.21 100.23 93.21C100.77 93.21 101.2 93.64 101.2 94.18C101.2 94.72 100.77 95.15 100.23 95.15ZM100.23 91.88C99.69 91.88 99.26 91.45 99.26 90.91C99.26 90.37 99.69 89.94 100.23 89.94C100.77 89.94 101.2 90.37 101.2 90.91C101.2 91.45 100.77 91.88 100.23 91.88ZM103.46 98.42C102.92 98.42 102.49 97.99 102.49 97.45C102.49 96.91 102.92 96.48 103.46 96.48C104 96.48 104.43 96.91 104.43 97.45C104.43 97.99 104 98.42 103.46 98.42ZM103.46 95.15C102.92 95.15 102.49 94.72 102.49 94.18C102.49 93.64 102.92 93.21 103.46 93.21C104 93.21 104.43 93.64 104.43 94.18C104.43 94.72 104 95.15 103.46 95.15ZM103.46 91.88C102.92 91.88 102.49 91.45 102.49 90.91C102.49 90.37 102.92 89.94 103.46 89.94C104 89.94 104.43 90.37 104.43 90.91C104.43 91.45 104 91.88 103.46 91.88ZM106.69 98.42C106.15 98.42 105.72 97.99 105.72 97.45C105.72 96.91 106.15 96.48 106.69 96.48C107.23 96.48 107.66 96.91 107.66 97.45C107.66 97.99 107.23 98.42 106.69 98.42ZM106.69 95.15C106.15 95.15 105.72 94.72 105.72 94.18C105.72 93.64 106.15 93.21 106.69 93.21C107.23 93.21 107.66 93.64 107.66 94.18C107.66 94.72 107.23 95.15 106.69 95.15ZM106.69 91.88C106.15 91.88 105.72 91.45 105.72 90.91C105.72 90.37 106.15 89.94 106.69 89.94C107.23 89.94 107.66 90.37 107.66 90.91C107.66 91.45 107.23 91.88 106.69 91.88ZM63.86 44.13H33.83C30.73 44.13 28.21 46.65 28.21 49.75V79.78C28.21 82.88 30.73 85.4 33.83 85.4H63.86C66.96 85.4 69.48 82.88 69.48 79.78V49.75C69.48 46.65 66.96 44.13 63.86 44.13ZM68.23 49.75V79.78C68.23 82.19 66.27 84.16 63.85 84.16H33.83C31.42 84.16 29.45 82.2 29.45 79.78V49.75C29.45 47.34 31.41 45.37 33.83 45.37H63.86C66.27 45.37 68.24 47.33 68.24 49.75H68.23ZM117.52 31.74L89.41 31.75C83.14 31.75 78.03 36.85 78.03 43.13V71.24C78.03 77.51 83.13 82.62 89.41 82.62H117.52C123.79 82.62 128.9 77.52 128.9 71.24V43.12C128.9 36.85 123.8 31.74 117.52 31.74ZM124.95 70.28C124.95 74.9 121.19 78.66 116.57 78.66H90.37C85.75 78.66 81.99 74.9 81.99 70.28V44.08C81.99 39.46 85.75 35.7 90.37 35.7H116.57C121.19 35.7 124.95 39.46 124.95 44.08V70.28ZM103.47 53.18C101.26 53.18 99.47 54.97 99.47 57.18C99.47 59.39 101.27 61.18 103.47 61.18C105.67 61.18 107.47 59.39 107.47 57.18C107.47 54.97 105.68 53.18 103.47 53.18ZM103.47 59.93C101.95 59.93 100.72 58.7 100.72 57.18C100.72 55.66 101.95 54.43 103.47 54.43C104.99 54.43 106.22 55.66 106.22 57.18C106.22 58.7 104.99 59.93 103.47 59.93Z" fill="white"/>
</svg>
