<svg width="144" height="144" viewBox="0 0 144 144" fill="none" xmlns="http://www.w3.org/2000/svg">
<mask id="mask0_142_1142" style="mask-type:luminance" maskUnits="userSpaceOnUse" x="8" y="30" width="129" height="84">
<path d="M137 30H8V113.4H137V30Z" fill="white"/>
</mask>
<g mask="url(#mask0_142_1142)">
<path d="M72.5 32.58C101.77 32.58 132.57 30.34 137 30V88.58C136.59 88.55 136.09 88.52 135.52 88.48V31.89L134.98 31.93C134.67 31.95 103.93 34.36 72.5 34.36C41.07 34.36 10.33 31.96 10.02 31.93L9.48 31.89V88.48C8.91 88.52 8.41 88.55 8 88.58V30C12.43 30.33 43.23 32.58 72.5 32.58ZM77.24 110.72H67.77L67.33 106.12H77.68L77.24 110.72ZM28.63 113.4L28.92 111.93L66.33 106.2L66.77 110.76L28.64 113.41H28.63V113.4ZM116.37 113.39L78.24 110.74L78.68 106.18L116.09 111.91L116.38 113.38L116.37 113.39ZM77.73 105.12H67.28L67.34 91.74H67.48C70.83 91.71 74.17 91.71 77.52 91.74H77.66L77.72 105.12H77.73ZM136.1 93.19L119.31 94.11L113.5 91.85L113.34 91.82C100.87 91.21 89.24 90.86 78.65 90.76H77.97C76.11 90.74 74.28 90.73 72.49 90.73C70.7 90.73 68.87 90.74 67.01 90.76H66.33C55.74 90.87 44.11 91.22 31.64 91.83L25.68 94.12L8.9 93.2L8 92.65V89.6C9.13 89.52 10.9 89.4 13.2 89.25H13.23C13.66 89.22 14.1 89.19 14.56 89.17H14.63C15.07 89.14 15.52 89.11 15.99 89.09C16.06 89.09 16.13 89.09 16.2 89.09C16.62 89.06 17.05 89.04 17.49 89.01C17.62 89.01 17.76 88.99 17.89 88.99C18.31 88.97 18.73 88.94 19.17 88.92C19.31 88.92 19.45 88.9 19.58 88.9C20.02 88.87 20.47 88.85 20.92 88.82C21.07 88.82 21.23 88.8 21.38 88.79C21.82 88.77 22.28 88.74 22.74 88.71C22.93 88.7 23.12 88.69 23.32 88.68C23.76 88.66 24.21 88.63 24.67 88.61C24.87 88.61 25.08 88.59 25.28 88.58C25.73 88.56 26.19 88.53 26.66 88.51C26.9 88.51 27.13 88.49 27.37 88.47C27.81 88.45 28.26 88.43 28.71 88.4C28.98 88.4 29.25 88.37 29.52 88.36C29.95 88.34 30.39 88.32 30.83 88.3C31.13 88.29 31.43 88.27 31.73 88.26C32.16 88.24 32.6 88.22 33.04 88.2C33.35 88.2 33.67 88.17 33.99 88.16C34.43 88.14 34.87 88.12 35.31 88.1C35.65 88.1 35.99 88.07 36.33 88.06C36.75 88.04 37.18 88.02 37.61 88.01C37.97 87.99 38.34 87.98 38.71 87.96C39.13 87.94 39.56 87.93 39.99 87.91C40.37 87.89 40.75 87.88 41.14 87.86C41.58 87.84 42.02 87.83 42.46 87.81C42.84 87.81 43.21 87.78 43.59 87.77C44.04 87.75 44.5 87.74 44.95 87.72C45.33 87.72 45.72 87.69 46.1 87.68C46.57 87.66 47.04 87.65 47.51 87.63C47.89 87.63 48.26 87.61 48.64 87.59C49.12 87.58 49.6 87.56 50.08 87.55C50.46 87.54 50.84 87.53 51.22 87.52C51.71 87.52 52.19 87.49 52.68 87.48C53.06 87.47 53.45 87.46 53.83 87.45C54.31 87.45 54.79 87.43 55.27 87.42C55.67 87.42 56.07 87.4 56.47 87.39C56.93 87.38 57.39 87.37 57.85 87.36C58.28 87.36 58.71 87.34 59.14 87.33C59.6 87.33 60.06 87.31 60.51 87.31C60.96 87.31 61.36 87.29 61.79 87.29C62.28 87.29 62.78 87.29 63.27 87.27C63.67 87.27 64.06 87.27 64.46 87.25C65 87.25 65.54 87.24 66.09 87.23C66.44 87.23 66.79 87.23 67.14 87.22C67.78 87.22 68.41 87.22 69.05 87.22H75.95C76.59 87.22 77.22 87.22 77.86 87.22C78.21 87.22 78.56 87.22 78.91 87.23C79.45 87.23 80 87.23 80.54 87.25C80.94 87.25 81.33 87.25 81.73 87.27C82.22 87.27 82.72 87.28 83.21 87.29C83.64 87.29 84.06 87.3 84.49 87.31C84.95 87.31 85.41 87.33 85.86 87.33C86.31 87.33 86.72 87.35 87.15 87.36C87.61 87.36 88.07 87.38 88.53 87.39C88.93 87.39 89.33 87.41 89.72 87.42C90.2 87.42 90.69 87.44 91.17 87.45C91.55 87.45 91.94 87.47 92.32 87.48C92.81 87.48 93.3 87.51 93.78 87.52C94.16 87.53 94.54 87.54 94.92 87.55C95.4 87.55 95.89 87.58 96.36 87.59C96.74 87.59 97.11 87.61 97.49 87.63C97.96 87.65 98.43 87.66 98.9 87.68C99.28 87.69 99.67 87.71 100.05 87.72C100.51 87.74 100.96 87.75 101.41 87.77C101.79 87.78 102.16 87.8 102.54 87.81C102.98 87.83 103.42 87.84 103.86 87.86C104.25 87.87 104.63 87.89 105.01 87.91C105.44 87.93 105.87 87.94 106.29 87.96C106.66 87.98 107.02 87.99 107.39 88.01C107.82 88.03 108.25 88.05 108.67 88.06C109.01 88.07 109.35 88.09 109.69 88.1C110.13 88.12 110.57 88.14 111.01 88.16C111.33 88.16 111.64 88.19 111.96 88.2C112.4 88.22 112.84 88.24 113.27 88.26C113.57 88.26 113.88 88.29 114.18 88.3C114.62 88.32 115.06 88.34 115.49 88.36C115.76 88.37 116.03 88.39 116.3 88.4C116.75 88.42 117.2 88.44 117.64 88.47C117.88 88.48 118.12 88.49 118.35 88.51C118.81 88.53 119.27 88.56 119.73 88.58C119.94 88.59 120.14 88.6 120.35 88.61C120.8 88.63 121.25 88.66 121.69 88.68C121.89 88.69 122.08 88.7 122.28 88.71C122.74 88.74 123.18 88.76 123.62 88.78C123.78 88.78 123.94 88.8 124.09 88.81C124.54 88.84 124.99 88.86 125.42 88.89C125.56 88.89 125.7 88.91 125.84 88.91C126.27 88.94 126.69 88.96 127.1 88.98C127.24 88.98 127.38 89 127.52 89C127.95 89.03 128.37 89.05 128.78 89.08C128.86 89.08 128.94 89.08 129.02 89.09C129.48 89.12 129.93 89.15 130.36 89.17H130.45C130.9 89.2 131.34 89.23 131.76 89.25H131.81C134.11 89.4 135.87 89.52 137 89.6V92.65L136.1 93.2V93.19Z" fill="white"/>
</g>
</svg>
