<svg width="144" height="144" viewBox="0 0 144 144" fill="none" xmlns="http://www.w3.org/2000/svg">
<path d="M100.748 55.48C101.038 57.76 103.268 78.56 90.7682 90.07C94.5182 68.93 95.6482 57.29 95.0782 48.23C97.5182 52.36 100.048 54.83 100.748 55.48ZM47.4482 81.51C49.5882 80.03 64.0482 70.52 93.5782 61.48C93.1482 66.72 92.3382 72.95 91.0982 80.7C65.0182 91.12 52.4982 98.61 49.7382 100.34C48.8182 95.52 48.0582 89.27 47.4482 81.51ZM44.8582 70.4H45.4682C45.6882 74.5 45.9382 78.29 46.2082 81.78L45.5482 81.7L44.5382 72.31L44.8482 70.41L44.8582 70.4ZM64.8382 55.67L73.3982 51.92L73.2782 58.53C73.2782 59.02 72.9782 59.46 72.5282 59.65L64.7582 63.03C64.7782 60.87 64.7982 58.39 64.8282 55.67H64.8382ZM75.1482 20L92.0582 29.4C92.2282 30.82 92.9382 36.95 93.5782 45.35L93.5682 45.36C94.0282 49.56 94.0982 54.21 93.6782 60.14C81.6282 63.81 72.0282 67.57 64.7282 70.85C64.7282 69.67 64.7282 67.42 64.7482 64.4L73.0182 60.8C73.9182 60.41 74.5082 59.52 74.5282 58.55L75.1482 23.43V20ZM64.1982 20.89V24.49L63.7582 45.26C63.4782 58.58 63.4782 69.29 63.4782 71.41C54.5782 75.49 49.3182 78.76 47.3382 80.07C46.9082 74.28 46.5482 67.7 46.2582 60.26C45.5082 40.74 46.8582 30.98 46.8882 30.79L47.2682 28.33L64.1982 20.89ZM41.1382 51.83C39.4982 50.61 39.1082 50.33 39.1882 47.04C39.2682 43.91 40.2882 36.25 40.5082 34.61L45.5082 31.84C45.2082 34.68 44.5682 42.48 44.8582 55.29C43.8082 54.2 42.2382 52.65 41.1382 51.83ZM44.9182 57.54C44.9482 58.45 44.9782 59.37 45.0082 60.32C45.1182 63.09 45.2282 65.75 45.3582 68.29H44.7582C44.2082 67.22 44.0682 66.19 44.0382 65.91V65.83C43.7082 61.86 43.6682 58.79 43.6782 57.54H44.9182ZM49.3782 113.84C48.0582 111.46 46.6982 109 44.5082 106.8C43.4582 105.75 42.5782 104.94 41.7982 104.23C39.1282 101.77 38.3282 101.03 38.1882 97.43C38.1282 95.91 37.9282 93.53 37.7082 91.02C37.2982 86.32 36.6282 78.45 37.2582 77.51C37.3982 77.31 37.5882 77.06 37.7982 76.76C39.0282 75.08 41.4182 71.81 43.2382 67.91C43.3782 68.31 43.5682 68.73 43.8082 69.16H43.7982L43.2882 72.28L44.4182 82.83L46.3182 83.07C47.1682 93.21 48.2782 100.7 49.6782 105.69C51.2582 111.36 53.2582 117.56 54.2482 120.56C52.0882 118.74 50.7682 116.36 49.3882 113.86L49.3782 113.84ZM77.3682 124.57C70.5882 125.56 61.2682 124.88 55.9482 121.74C55.4782 120.34 52.8482 112.42 50.8682 105.34C50.5582 104.24 50.2682 103.01 49.9882 101.66C51.4982 100.68 63.5882 93.08 90.8482 82.14C89.1482 92.49 86.6882 105.47 83.2982 122.27C81.3382 123.49 79.3482 124.28 77.3582 124.57H77.3682ZM96.5782 106.05C93.0182 112.98 88.9782 118.15 84.7882 121.27C86.2382 114.07 87.5082 107.58 88.6282 101.7C95.9182 98.94 100.398 92.86 103.018 87.64C101.278 94.5 99.1082 101.13 96.5782 106.05ZM105.078 78.49H105.058C105.028 78.65 101.618 94.88 88.8982 100.24C89.4382 97.36 89.9482 94.62 90.4182 92.03C100.688 83.63 102.328 69.58 102.318 61.44C103.288 64.4 104.708 67.7 106.628 69.6C106.218 72.38 105.698 75.39 105.078 78.49ZM65.4382 25.04L65.0082 45.29C64.9382 48.46 64.8882 51.49 64.8482 54.29L73.4182 50.54L73.8882 24.07C70.6182 24.21 66.7882 24.82 65.4382 25.05V25.04ZM73.4082 44.3C73.3982 45.03 73.0982 45.71 72.5682 46.22C72.0582 46.72 71.3782 46.99 70.6682 46.99H70.6182L67.7882 46.94C66.2782 46.91 65.0782 45.66 65.0982 44.16L65.2682 34.84C65.2782 34.11 65.5782 33.43 66.1082 32.92C66.6382 32.41 67.2882 32.16 68.0582 32.15L70.8882 32.2C72.3982 32.23 73.5982 33.48 73.5782 34.98L73.4082 44.3ZM66.5282 34.85C66.5282 34.45 66.6982 34.08 66.9782 33.81C67.2582 33.54 67.6182 33.39 68.0082 33.39H68.0382L70.8682 33.44C71.6882 33.45 72.3382 34.13 72.3282 34.95L72.1582 44.27C72.1482 45.08 71.4782 45.73 70.6782 45.73H70.6482L67.8182 45.68C66.9982 45.67 66.3482 44.99 66.3582 44.17L66.5282 34.85Z" fill="white"/>
</svg>
