<svg width="144" height="144" viewBox="0 0 144 144" fill="none" xmlns="http://www.w3.org/2000/svg">
<g clip-path="url(#clip0_414_3534)">
<path d="M117.37 107.47C116.92 107.82 114.41 109.41 112.9 109.95C112.48 110.1 112.02 110.22 111.56 110.31C111.69 110.01 111.82 109.64 111.96 109.14C112.79 107.43 114.13 106.37 115.45 106.37C116.2 106.37 116.92 106.75 117.46 107.4C117.43 107.43 117.4 107.45 117.37 107.48V107.47Z" fill="white"/>
<path d="M116.81 115.51C116.08 116.31 115.2 116.8 114.29 116.8C113.86 116.8 113.45 116.68 113.08 116.46C114.56 116.33 115.84 116.06 116.81 115.5V115.51Z" fill="white"/>
<path d="M117.19 105.73C117.62 106 117.98 106.37 118.29 106.81C117.56 105.89 116.54 105.36 115.46 105.36C115.03 105.36 114.6 105.44 114.19 105.59C114.4 105.43 114.62 105.27 114.85 105.14C115.02 105.06 115.18 104.97 115.33 104.89C116.51 105.15 117.1 105.65 117.12 105.67L117.19 105.72V105.73Z" fill="white"/>
<path d="M106.95 102.18C108.63 100.72 110.42 100.14 112.44 100.41C113.86 100.6 116.49 101.33 117.62 101.65C117.62 101.65 117.62 101.65 117.62 101.66C117.69 102.1 117.47 102.58 117.09 102.81C116.72 103.02 116.4 103.18 116.01 103.36C115.58 103.57 115.08 103.81 114.36 104.2C112.66 105.19 111.41 106.84 111.01 108.63C110.8 109.55 110.47 110.17 110.27 110.47C109.63 110.52 109.02 110.51 108.54 110.41C107.68 110.25 104.52 109.38 103.03 108.97C103.08 108.9 103.14 108.82 103.19 108.73C103.48 108.33 103.6 108.11 103.66 107.96C103.66 107.96 103.67 107.94 103.68 107.93C103.82 107.65 103.97 107.26 104.14 106.82C104.64 105.5 105.4 103.5 106.94 102.16L106.95 102.18Z" fill="white"/>
<path d="M80.8798 110.3C85.2798 109.49 88.4898 109.09 93.8398 109.14C97.6098 109.18 100.6 108.76 102.15 108.48C101.93 108.75 101.82 108.85 101.82 108.85L101 109.46L101.06 109.48L101 109.52L101.98 109.79C102.19 109.85 107.18 111.24 108.35 111.47C108.65 111.53 109.02 111.56 109.44 111.57L109.35 111.67L110.21 111.61V111.64L110.51 111.59H110.54C111.34 111.53 112.31 111.33 113.29 111C114.89 110.43 117.5 108.79 118.04 108.37C118.14 108.29 118.24 108.2 118.34 108.12C118.34 108.12 118.36 108.1 118.37 108.1C118.34 108.88 118 110.35 116.01 111.62C115.48 111.97 114.96 112.24 114.44 112.46C113 113.05 111.52 113.24 109.68 113.39C109.37 113.41 109.06 113.44 108.73 113.46L107.69 113.54C104.38 113.79 100.72 114.42 95.0698 115.72C93.6398 116.03 92.3398 116.35 91.0998 116.65C87.9598 117.41 85.2398 118.07 81.9198 118.27C81.8298 118.27 81.7498 118.27 81.6598 118.27C77.4698 118.46 75.3298 117.43 72.8198 115.94C71.3498 115.07 70.1398 114.03 69.0498 112.99L69.1298 112.97C69.2098 112.95 76.7198 111.08 80.8798 110.31V110.3Z" fill="white"/>
<path d="M71.7901 120.09C72.4901 122.08 72.5101 124.49 71.8501 126.86C71.1901 129.24 69.9201 131.28 68.2901 132.62C66.7101 133.92 64.9801 134.39 63.4101 133.96C61.8401 133.52 60.6001 132.22 59.9301 130.29C59.2301 128.3 59.2101 125.89 59.8701 123.52C61.0601 119.24 64.1601 116.26 67.1401 116.26C67.5301 116.26 67.9201 116.31 68.3101 116.42C69.8801 116.86 71.1201 118.16 71.7901 120.09Z" fill="white"/>
<path d="M56.2305 86.08L57.6805 28.97C58.3205 29.04 59.2705 29.09 60.3905 29.11C60.6405 29.11 61.1105 29.12 61.6305 29.12C62.1505 29.12 62.7405 29.11 63.2105 29.08L61.7705 86.14L61.7105 86.11V86.83C61.6005 86.99 60.6705 87.36 59.0405 87.3C57.4305 87.25 56.5105 86.86 56.4105 86.74V86L56.2305 86.07V86.08Z" fill="white"/>
<path d="M60.6104 22.3C62.5404 22.46 63.6503 22.55 64.2803 22.6C64.0503 23.5 63.8803 24.35 63.7803 25.13C63.6503 26.14 63.4804 27.39 63.3904 28.07C62.9204 28.12 61.9004 28.15 60.3904 28.11C59.1004 28.08 57.9903 28.01 57.4403 27.93C57.4403 27.1 57.3904 25.47 57.1404 24.13C57.0104 23.44 56.8104 22.65 56.6104 21.96C57.4304 22.03 59.0104 22.16 60.5904 22.29L60.6104 22.3Z" fill="white"/>
<path d="M81.3601 12.92L81.7501 12.89C82.2101 12.87 83.0601 12.85 84.0201 12.93C84.9201 13 85.7601 13.18 86.2301 13.31L86.6601 13.43C88.7401 13.98 90.1401 16.41 89.9101 19.08C89.6801 21.82 87.8401 23.99 85.6401 24.11L85.2601 24.14C85.2601 24.14 85.1801 24.14 85.1401 24.14V24.11C82.7701 23.91 81.0501 21.33 81.3001 18.35L80.3001 18.27C80.1001 20.65 81.0101 22.82 82.5201 24.05C81.8001 23.96 81.1601 23.82 80.7701 23.72L80.3401 23.6C79.7101 23.43 79.1501 23.07 78.6601 22.6L78.2401 22.01C77.4401 20.9 77.0701 19.45 77.1901 17.95C77.3201 16.44 77.9301 15.08 78.9001 14.12L79.3901 13.63C79.9801 13.22 80.6401 12.95 81.3501 12.91L81.3601 12.92Z" fill="white"/>
<path d="M76.0996 17.87C75.9796 19.29 76.2696 20.65 76.8496 21.78C74.1396 21.69 71.3696 21.42 68.4496 20.99L68.2796 20.97L65.5496 20.47C64.1896 20.19 63.2396 18.57 63.3896 16.79C63.5396 15.01 64.7396 13.57 66.0896 13.51H68.1296C68.2796 13.51 68.4296 13.51 68.5796 13.51H68.6296C71.5596 13.53 74.5296 13.74 77.4896 14.13C76.7296 15.15 76.2096 16.44 76.0896 17.87H76.0996Z" fill="white"/>
<path d="M56.6698 11.4399C56.7498 11.4399 56.8398 11.4399 56.9198 11.4499C57.0298 11.4499 65.3098 12.1699 66.3698 12.2699V12.2999L66.4898 12.2899C66.8098 12.3199 67.1098 12.3999 67.4098 12.5199H66.0698C64.1698 12.6099 62.5898 14.4099 62.3898 16.7199C62.1898 19.0299 63.4598 21.0699 65.3498 21.4599L66.2998 21.6499L66.5898 21.7099C66.2898 21.7799 65.9898 21.7999 65.6898 21.7699C65.6498 21.7699 65.5998 21.7599 65.5498 21.7499V21.7199L65.1898 21.6899C65.1898 21.6899 65.0898 21.6899 64.9798 21.6699L56.0598 20.9299C55.2398 20.8399 54.4998 20.4099 53.9098 19.7099C53.7598 19.5299 53.6198 19.3399 53.4998 19.1399C53.4398 19.0499 53.3898 18.9499 53.3398 18.8499C53.2398 18.6599 53.1598 18.4599 53.0898 18.2599C53.0498 18.1499 53.0098 18.0399 52.9798 17.9299C52.9198 17.7099 52.8798 17.4799 52.8498 17.2499C52.8298 17.1399 52.8098 17.0399 52.7998 16.9299C52.7698 16.5899 52.7598 16.2399 52.7998 15.8899C52.8298 15.5399 52.8998 15.1899 52.9898 14.8599C53.0098 14.7799 53.0398 14.7099 53.0598 14.6399C53.1398 14.3799 53.2398 14.1299 53.3498 13.8899C53.3798 13.8199 53.4198 13.7599 53.4498 13.6899C53.5798 13.4399 53.7298 13.1999 53.8998 12.9899C53.9298 12.9499 53.9498 12.9199 53.9798 12.8799C54.1898 12.6299 54.4198 12.3899 54.6698 12.1999L54.7098 12.1699C55.2898 11.7299 55.9598 11.4699 56.6698 11.4699V11.4399Z" fill="white"/>
<path d="M43.3298 19.7101C42.8898 19.9601 42.4298 20.1101 41.9498 20.1501L41.7298 20.1701C41.3598 20.1901 40.5598 20.2101 39.6398 20.1401C38.7598 20.0701 37.9398 19.8601 37.5698 19.7601L37.3498 19.6901C35.4398 19.0701 34.1998 16.7001 34.4098 14.0701C34.6198 11.3701 36.3198 9.21006 38.3598 9.04006L38.5598 9.02006C38.9198 9.00006 39.7398 8.97006 40.6698 9.05006C41.5398 9.12006 42.3398 9.32006 42.7198 9.43006L42.9498 9.50006C43.4698 9.67006 43.9498 9.97006 44.3698 10.3901C44.2498 10.3901 44.1298 10.3901 44.0198 10.3901H42.0298H41.5298V10.4401C39.8898 10.7501 38.5998 12.4301 38.4198 14.5901C38.2398 16.7901 39.3398 18.7301 40.9598 19.2601V19.3001L43.3098 19.7201C43.3098 19.7201 43.3098 19.7201 43.3198 19.7201L43.3298 19.7101Z" fill="white"/>
<path d="M45.6101 19.04L44.1901 18.82C44.1701 18.82 44.1501 18.82 44.1401 18.82C43.9201 18.78 43.7001 18.76 43.4801 18.72L42.0101 18.46V18.43L41.5601 18.36C40.2101 18.15 39.2601 16.53 39.4101 14.65C39.5601 12.83 40.7101 11.39 42.0301 11.37H42.1701H44.0201C44.3501 11.37 44.6801 11.37 45.0101 11.39L46.3501 11.43C48.6601 11.51 50.9801 11.74 53.3001 12.09C53.2801 12.11 53.2701 12.13 53.2601 12.15C53.1001 12.34 52.9501 12.55 52.8101 12.77C52.7701 12.84 52.7201 12.91 52.6801 12.98C52.5501 13.2 52.4401 13.43 52.3401 13.67C52.3101 13.74 52.2801 13.82 52.2501 13.89C52.1501 14.15 52.0601 14.41 52.0001 14.68C51.9901 14.73 51.9801 14.78 51.9701 14.83C51.9001 15.13 51.8501 15.44 51.8201 15.77C51.7901 16.13 51.7901 16.49 51.8201 16.85C51.8201 16.97 51.8501 17.09 51.8701 17.21C51.9001 17.44 51.9301 17.67 51.9801 17.89C52.0101 18.03 52.0601 18.17 52.1001 18.31C52.1601 18.5 52.2101 18.69 52.2901 18.86C52.3501 19.01 52.4301 19.15 52.5001 19.29C52.5601 19.4 52.6001 19.52 52.6601 19.62C50.3901 19.56 48.0401 19.36 45.6401 19.03L45.6101 19.04Z" fill="white"/>
<path d="M55.01 95.5399C55.68 94.2699 55.63 93.4599 55.51 91.6099C55.47 90.9799 55.42 90.4899 55.37 90.0399C55.29 89.2799 55.23 88.7099 55.28 87.8399C55.44 87.6699 55.59 87.5399 55.72 87.4399C56.51 88.1799 58.52 88.2899 58.99 88.3099C60.21 88.3399 61.74 88.1799 62.37 87.5799C62.89 87.9599 62.83 88.6399 62.58 90.0099L62.51 90.3999C62.19 92.2399 62.06 94.1399 62.06 96.7599C62.06 99.0799 62.24 100.36 62.37 101.29C62.4 101.5 62.43 101.69 62.45 101.84C62.45 101.93 62.45 102.02 62.45 102.11C62.43 102.08 62.4 102.05 62.37 102.03C62.23 101.87 62.08 101.71 61.91 101.53C61.84 101.45 61.76 101.38 61.69 101.3C61.54 101.14 61.38 100.98 61.21 100.82C61.11 100.73 61.02 100.64 60.92 100.54C60.73 100.37 60.53 100.19 60.33 100.01C60.23 99.9199 60.13 99.8399 60.03 99.7499C59.71 99.4899 59.38 99.2199 59.02 98.9699C58.72 98.7599 58.44 98.5799 58.16 98.4199C58.08 98.3699 58 98.3299 57.92 98.2899C57.72 98.1799 57.52 98.0799 57.33 97.9899C57.26 97.9599 57.19 97.9199 57.12 97.8899C56.88 97.7899 56.65 97.6999 56.43 97.6299C56.37 97.6099 56.31 97.5999 56.25 97.5799C56.09 97.5299 55.94 97.4899 55.8 97.4599C55.72 97.4399 55.65 97.4299 55.58 97.4099C55.46 97.3899 55.35 97.3699 55.25 97.3599C55.19 97.3599 55.13 97.3399 55.08 97.3399C54.96 97.3299 54.85 97.3199 54.75 97.3099C54.69 96.8899 54.67 96.1799 55 95.5499L55.01 95.5399Z" fill="white"/>
<path d="M42.5498 103.21C43.1398 102.95 43.7298 102.69 44.3298 102.42C47.4998 100.99 49.7398 100.59 51.0798 100.36C51.6898 100.25 52.1298 100.18 52.4798 100.04C53.3298 99.69 54.2298 98.71 54.5798 98.3C54.6098 98.3 54.6298 98.3 54.6598 98.3C54.6898 98.3 54.7098 98.3 54.7398 98.3C54.8098 98.3 54.9098 98.31 54.9998 98.32C55.0298 98.32 55.0598 98.32 55.0898 98.33C55.2298 98.35 55.3798 98.37 55.5398 98.41C55.5598 98.41 55.5898 98.42 55.6198 98.43C55.7598 98.46 55.9098 98.51 56.0798 98.56C56.1398 98.58 56.2098 98.61 56.2798 98.63C56.4198 98.68 56.5598 98.73 56.6998 98.79C56.7798 98.82 56.8598 98.86 56.9398 98.9C57.0898 98.97 57.2498 99.05 57.4198 99.14C57.4998 99.18 57.5798 99.22 57.6598 99.27C57.9098 99.41 58.1598 99.57 58.4298 99.76C58.7098 99.96 58.9798 100.17 59.2398 100.37C59.3398 100.45 59.4198 100.52 59.5098 100.6C59.6698 100.73 59.8198 100.86 59.9598 100.99C60.0598 101.08 60.1498 101.17 60.2498 101.25C60.3698 101.37 60.4998 101.48 60.6098 101.59C60.6998 101.68 60.7798 101.76 60.8698 101.85C60.9798 101.96 61.0798 102.06 61.1698 102.16C61.2398 102.24 61.3198 102.32 61.3798 102.39C61.4698 102.49 61.5498 102.58 61.6298 102.67C61.6798 102.73 61.7398 102.8 61.7898 102.85C61.8698 102.95 61.9398 103.03 61.9998 103.11C62.0298 103.15 62.0698 103.19 62.0898 103.22C62.1698 103.32 62.2298 103.4 62.2798 103.46C62.2998 103.74 62.3398 104.41 62.3798 105.2C62.4298 106.14 62.8798 106.63 63.6398 107.45C63.6898 107.5 63.7498 107.56 63.7998 107.62C62.5898 106.54 61.2698 105.67 59.9898 105.67C59.9798 105.67 59.9698 105.67 59.9598 105.67C59.9598 105.67 59.9398 105.67 59.9298 105.67C57.3298 105.67 55.9598 109.15 55.8598 109.43C55.7898 109.6 54.7298 112.02 53.4598 113.44C51.7098 115.31 49.5998 116.61 47.5798 117.73C45.0598 119.13 39.9198 120.96 36.4498 119.01C36.4198 118.99 36.3798 118.98 36.3498 118.96C36.0398 118.77 35.7698 118.56 35.5098 118.34C35.4298 118.27 35.3398 118.19 35.2598 118.12C35.1498 118.02 35.0598 117.9 34.9598 117.79C34.7198 117.51 34.4898 117.2 34.2898 116.87C33.8598 116.11 33.6098 115.23 33.5598 114.22C33.5598 114.12 33.5498 114.01 33.5498 113.91C33.5498 113.55 33.5598 113.17 33.5998 112.78C33.6198 112.61 33.6498 112.42 33.6798 112.24C33.7198 112 33.7598 111.75 33.8098 111.5C33.8598 111.27 33.9098 111.03 33.9698 110.79C33.9998 110.65 34.0498 110.5 34.0898 110.36C34.1598 110.11 34.2198 109.87 34.3098 109.61L34.4198 109.26C34.6598 108.57 35.0198 107.96 35.4798 107.41C35.5198 107.36 35.5598 107.32 35.5998 107.27C35.7398 107.12 35.8898 106.98 36.0398 106.83C36.7198 106.21 37.5798 105.63 38.6698 105.05L39.7998 104.46L39.7298 104.44C40.6098 104.02 41.5398 103.61 42.5198 103.18L42.5498 103.21Z" fill="white"/>
<path d="M32.7096 115.57C32.7396 115.74 32.7796 115.9 32.8196 116.02C32.8796 116.22 32.9396 116.42 33.0196 116.62C33.1096 116.87 33.2196 117.12 33.3396 117.35C33.4496 117.59 33.5796 117.85 33.7196 118.12C33.7396 118.16 33.7596 118.2 33.7796 118.24C34.1896 119.02 34.7096 119.9 35.3696 120.92C36.4096 122.54 37.2696 123.63 38.1196 124.36C35.8396 125.15 33.7896 124.58 32.3596 122.94C30.9796 121.35 30.3796 118.99 30.7296 116.45C30.9896 114.58 31.7196 112.81 32.8096 111.35C32.5396 112.7 32.4196 114.18 32.7096 115.58V115.57Z" fill="white"/>
<path d="M27.7301 123.02C25.8201 121.01 24.8601 118.29 25.0201 115.39C25.3401 109.52 30.1801 104.75 35.8001 104.75C36.2001 104.75 36.6001 104.78 37.0301 104.85C36.3401 105.29 35.7201 105.77 35.1801 106.31C34.3001 107.16 33.7201 108.09 33.3901 109.16C33.3801 109.2 33.3701 109.24 33.3601 109.27C31.4501 111.04 30.1401 113.58 29.7601 116.29C29.3701 119.11 30.0501 121.77 31.6201 123.57C32.8101 124.94 34.4301 125.69 36.1901 125.69C36.5801 125.69 36.9801 125.64 37.3801 125.56C36.4901 125.82 35.5701 125.96 34.6301 125.96C31.9801 125.96 29.5301 124.91 27.7301 123.01V123.02Z" fill="white"/>
<path d="M48.4198 122.92L48.2898 123.01C46.7798 124.03 44.5398 124.65 42.2898 124.65C39.8598 124.65 38.7198 124.05 36.2598 120.32C36.1798 120.2 36.0998 120.07 36.0098 119.95C39.0698 121.69 42.9398 120.78 45.4898 119.83C45.5398 119.81 45.5798 119.79 45.6298 119.78C45.8498 119.7 46.0498 119.62 46.2398 119.53C46.4498 119.44 46.6498 119.36 46.8398 119.27C46.9498 119.22 47.0498 119.17 47.1498 119.13C47.2598 119.08 47.3698 119.02 47.4798 118.97C47.7698 118.82 47.9898 118.71 48.0898 118.65C50.1798 117.48 52.3698 116.14 54.2098 114.16C54.2098 114.16 54.2098 114.16 54.2198 114.15C55.6398 112.6 56.7998 109.97 56.8598 109.83C56.8698 109.8 57.9798 106.76 59.9598 106.72C61.5998 106.74 63.6898 108.97 65.2198 110.61C65.6398 111.06 66.0298 111.47 66.3598 111.79L66.9598 112.39C67.1698 112.6 67.3898 112.82 67.6098 113.04C67.0798 112.78 66.5298 112.56 65.9598 112.4L64.5298 112.02C63.8498 111.82 63.2598 111.72 62.6798 111.72C60.8598 111.66 59.0598 112.18 57.4398 113.15C55.9698 114.01 54.6598 115.26 53.5998 116.78C52.7098 118.04 51.9898 119.49 51.5198 121.08L51.4998 121.21C51.4398 121.42 51.3998 121.63 51.3598 121.85C51.2298 122.36 51.1398 122.86 51.0998 123.34C51.0998 123.34 51.0998 123.34 51.0998 123.35L50.8298 122.94H48.4098L48.4198 122.92Z" fill="white"/>
<path d="M61.3895 135.64C60.7295 135.59 60.0595 135.46 59.2795 135.22L58.5295 134.99C54.8195 134.07 52.3095 130.51 52.0195 126.1V124.86C52.0195 124.65 52.0295 124.45 52.0495 124.25C52.0595 124.06 52.0695 123.88 52.0695 123.72C52.0695 123.7 52.0695 123.68 52.0695 123.67C52.0695 123.58 52.0995 123.48 52.1095 123.39C52.1795 122.9 52.2695 122.41 52.3795 121.94C52.4195 121.78 52.4495 121.62 52.4995 121.45L52.5195 121.32C54.0395 116.19 58.3095 112.61 62.6395 112.75C63.2795 112.81 63.7695 112.86 64.2795 113.01L65.7195 113.4C67.4595 113.9 68.9595 114.88 70.1395 116.19C69.6595 115.87 69.1395 115.61 68.5795 115.46C64.7395 114.39 60.3995 117.89 58.9095 123.26C58.1895 125.83 58.2195 128.45 58.9895 130.64C59.7795 132.89 61.2595 134.42 63.1495 134.94C63.6195 135.07 64.0995 135.14 64.5895 135.14C64.8695 135.14 65.1495 135.1 65.4295 135.06C64.1595 135.53 62.7995 135.75 61.3995 135.66L61.3895 135.64Z" fill="white"/>
<path d="M77.1103 121.11C76.7703 121.24 76.4803 121.35 76.2303 121.44C75.3503 121.76 74.3803 121.94 73.8403 122.02C73.7403 121.28 73.5603 120.58 73.3503 119.89C73.3403 119.85 73.3303 119.82 73.3103 119.78C73.1103 119.16 72.8703 118.57 72.5803 118.01C72.5803 118.01 72.5803 117.99 72.5703 117.98C72.4203 117.7 72.2703 117.42 72.1003 117.15C72.0803 117.11 72.0503 117.08 72.0303 117.04C71.8803 116.8 71.7403 116.55 71.5703 116.32C71.8003 116.47 72.0103 116.63 72.2603 116.78C74.4803 118.09 77.0003 119.58 81.9403 119.24C81.9803 119.24 82.0103 119.24 82.0403 119.24C82.4403 119.22 82.8303 119.19 83.2203 119.15C80.6403 119.75 78.4703 120.58 77.1103 121.1V121.11Z" fill="white"/>
<path d="M101.39 115.85L98.4502 116.04C97.2402 116.32 95.6602 116.66 93.9502 117.01C94.4002 116.9 94.8702 116.79 95.3402 116.68C100.95 115.4 104.56 114.78 107.82 114.52L108.6 114.46C108.95 114.43 109.29 114.41 109.62 114.38C111.6 114.23 113.25 114.03 114.88 113.34C115.45 113.1 116.02 112.82 116.6 112.44C117.31 111.99 117.85 111.5 118.25 111C118.25 111.02 118.25 111.04 118.25 111.06C118.14 111.76 117.97 112.38 117.74 112.89C117.74 112.89 117.74 112.9 117.74 112.91C117.63 113.17 117.5 113.4 117.35 113.61C117.35 113.61 117.35 113.62 117.34 113.63C117.19 113.84 117.03 114.03 116.85 114.19C116.7 114.32 116.52 114.43 116.34 114.54C116.26 114.59 116.18 114.63 116.09 114.68C116.01 114.72 115.92 114.75 115.84 114.79C114.88 115.19 113.54 115.42 111.78 115.46L110.82 115.48L110.85 115.52C110.39 115.52 109.93 115.52 109.47 115.52C107.04 115.48 104.91 115.61 101.4 115.84L101.39 115.85Z" fill="white"/>
<path d="M114.11 117.97C110.53 118.07 109.07 117.22 109.02 117.19C108.72 117.04 108.44 116.84 108.18 116.58H109.46C110.22 116.58 110.95 116.58 111.65 116.55C112.35 117.34 113.29 117.81 114.3 117.81C115.01 117.81 115.7 117.6 116.33 117.22C115.64 117.7 114.89 117.98 114.12 117.98L114.11 117.97Z" fill="white"/>
</g>
<defs>
<clipPath id="clip0_414_3534">
<rect width="93.37" height="126.66" fill="white" transform="translate(25 9)"/>
</clipPath>
</defs>
</svg>
