<?xml version="1.0" encoding="utf-8"?>
<!-- Generator: Adobe Illustrator 27.0.1, SVG Export Plug-In . SVG Version: 6.00 Build 0)  -->
<svg version="1.1" id="Слой_1" xmlns="http://www.w3.org/2000/svg" xmlns:xlink="http://www.w3.org/1999/xlink" x="0px" y="0px"
	 viewBox="0 0 144 144" style="enable-background:new 0 0 144 144;" xml:space="preserve">
<style type="text/css">
	.st0{fill:#FFFFFF;}
	.st1{fill:none;stroke:#BF2626;stroke-width:0.5;stroke-miterlimit:10;}
	.st2{fill:none;stroke:#BF2626;stroke-width:0.5;stroke-miterlimit:9.9998;}
	.st3{fill:none;stroke:#BF2626;stroke-width:0.5;stroke-miterlimit:9.9997;}
	.st4{fill:none;stroke:#BF2626;stroke-width:0.5;stroke-miterlimit:10.0001;}
	.st5{fill:none;stroke:#FFFFFF;stroke-width:0.5;stroke-miterlimit:10;}
	.st6{fill:none;stroke:#FFFFFF;stroke-width:0.5;stroke-miterlimit:9.9998;}
	.st7{fill:none;stroke:#FFFFFF;stroke-width:0.5;stroke-miterlimit:10.0001;}
	.st8{fill:none;stroke:#FFFFFF;stroke-width:0.5;stroke-miterlimit:9.9997;}
</style>
<g>
	<path class="st0" d="M469.8-28.8c29.3,0,60.1-2.2,64.5-2.6v58.6c-0.4,0-0.9-0.1-1.5-0.1v-56.6h-0.5c-0.3,0-31.1,2.4-62.5,2.4
		s-62.2-2.4-62.5-2.4h-0.5v56.6c-0.6,0-1.1,0.1-1.5,0.1v-58.6C409.7-31.1,440.5-28.8,469.8-28.8z M474.5,49.3H465l-0.4-4.6H475
		L474.5,49.3z M425.9,52l0.3-1.5l37.4-5.7l0.4,4.6L425.9,52L425.9,52L425.9,52z M513.7,52l-38.1-2.7l0.4-4.6l37.4,5.7L513.7,52
		L513.7,52z M475,43.7h-10.5l0.1-13.4h0.1c3.3,0,6.7,0,10,0h0.1L475,43.7L475,43.7z M533.4,31.8l-16.8,0.9l-5.8-2.3h-0.2
		c-12.5-0.6-24.1-1-34.7-1.1h-0.7c-1.9,0-3.7,0-5.5,0s-3.6,0-5.5,0h-0.7c-10.6,0.1-22.2,0.5-34.7,1.1l-6,2.3L406,31.8l-0.9-0.5v-3.1
		c1.1-0.1,2.9-0.2,5.2-0.3l0,0c0.4,0,0.9-0.1,1.3-0.1h0.1c0.4,0,0.9-0.1,1.4-0.1c0.1,0,0.1,0,0.2,0c0.4,0,0.8,0,1.3-0.1
		c0.1,0,0.3,0,0.4,0c0.4,0,0.8,0,1.3-0.1c0.1,0,0.3,0,0.4,0c0.4,0,0.9-0.1,1.3-0.1c0.1,0,0.3,0,0.5,0c0.4,0,0.9-0.1,1.4-0.1
		c0.2,0,0.4,0,0.6,0c0.4,0,0.9-0.1,1.4-0.1c0.2,0,0.4,0,0.6,0c0.5,0,0.9-0.1,1.4-0.1c0.2,0,0.5,0,0.7,0c0.4,0,0.9,0,1.3-0.1
		c0.3,0,0.5,0,0.8,0c0.4,0,0.9,0,1.3-0.1c0.3,0,0.6,0,0.9,0c0.4,0,0.9,0,1.3-0.1c0.3,0,0.6,0,0.9,0c0.4,0,0.9,0,1.3-0.1
		c0.3,0,0.7,0,1,0c0.4,0,0.9,0,1.3,0s0.7,0,1.1-0.1c0.4,0,0.9,0,1.3,0s0.8,0,1.1-0.1c0.4,0,0.9,0,1.3-0.1c0.4,0,0.8,0,1.1,0
		c0.5,0,0.9,0,1.4,0c0.4,0,0.8,0,1.1,0c0.5,0,0.9,0,1.4-0.1c0.4,0,0.8,0,1.1,0c0.5,0,1,0,1.4,0s0.8,0,1.1,0c0.5,0,1,0,1.5,0
		c0.4,0,0.8,0,1.1,0c0.5,0,1,0,1.4,0s0.8,0,1.2,0c0.5,0,0.9,0,1.4,0c0.4,0,0.9,0,1.3,0c0.5,0,0.9,0,1.4,0c0.4,0,0.9,0,1.3,0
		c0.5,0,1,0,1.5,0c0.4,0,0.8,0,1.2,0c0.5,0,1.1,0,1.6,0c0.4,0,0.7,0,1,0c0.6,0,1.3,0,1.9,0h6.9c0.6,0,1.3,0,1.9,0c0.3,0,0.7,0,1,0
		c0.5,0,1.1,0,1.6,0c0.4,0,0.8,0,1.2,0c0.5,0,1,0,1.5,0c0.4,0,0.9,0,1.3,0c0.5,0,0.9,0,1.4,0c0.4,0,0.9,0,1.3,0c0.5,0,0.9,0,1.4,0
		c0.4,0,0.8,0,1.2,0c0.5,0,1,0,1.5,0c0.4,0,0.8,0,1.1,0c0.5,0,1,0,1.5,0c0.4,0,0.8,0,1.1,0c0.5,0,1,0,1.4,0s0.8,0,1.1,0
		c0.5,0,0.9,0,1.4,0.1c0.4,0,0.8,0,1.2,0c0.5,0,0.9,0,1.4,0c0.4,0,0.8,0,1.1,0c0.4,0,0.9,0,1.3,0.1c0.4,0,0.8,0,1.1,0.1
		c0.4,0,0.9,0,1.3,0s0.7,0,1.1,0.1c0.4,0,0.9,0,1.3,0c0.3,0,0.7,0,1,0c0.4,0,0.9,0,1.3,0.1c0.3,0,0.6,0,0.9,0c0.4,0,0.9,0,1.3,0.1
		c0.3,0,0.6,0,0.9,0c0.4,0,0.9,0,1.3,0.1c0.3,0,0.5,0,0.8,0c0.5,0,0.9,0,1.3,0.1c0.2,0,0.5,0,0.7,0c0.5,0,0.9,0,1.4,0.1
		c0.2,0,0.4,0,0.6,0c0.5,0,0.9,0.1,1.3,0.1c0.2,0,0.4,0,0.6,0c0.5,0,0.9,0.1,1.3,0.1c0.2,0,0.3,0,0.5,0c0.5,0,0.9,0.1,1.3,0.1
		c0.1,0,0.3,0,0.4,0c0.4,0,0.8,0,1.3,0.1c0.1,0,0.3,0,0.4,0c0.4,0,0.9,0.1,1.3,0.1c0.1,0,0.2,0,0.2,0c0.5,0,0.9,0.1,1.3,0.1h0.1
		c0.5,0,0.9,0.1,1.3,0.1l0,0c2.3,0.2,4.1,0.3,5.2,0.3v3.1L533.4,31.8L533.4,31.8z"/>
</g>
<path class="st0" d="M323.5,58.4c-8.2,0-14.8,6.6-14.8,14.8S315.3,88,323.5,88c8.2,0,14.8-6.6,14.8-14.8S331.7,58.4,323.5,58.4z
	 M323.5,86.7c-7.5,0-13.6-6.1-13.6-13.6s6.1-13.5,13.6-13.5s13.6,6.1,13.6,13.5C337.1,80.6,331,86.7,323.5,86.7z M323.5,62.1
	c-6.1,0-11.1,5-11.1,11.1s5,11.1,11.1,11.1s11.1-5,11.1-11.1S329.6,62.1,323.5,62.1z M323.5,83c-5.4,0-9.8-4.4-9.8-9.8
	s4.4-9.8,9.8-9.8s9.8,4.4,9.8,9.8C333.4,78.6,328.9,83,323.5,83z M337.6,99.9L337.6,99.9h-28.1c-7,0-12.6-5.7-12.6-12.6V59.1
	c0-5,3-9.3,7.2-11.4h-24.7l-0.2-0.2c-0.4-0.4-0.9-0.6-1.5-0.6h-17.5c-0.5,0-1.1,0.2-1.5,0.6l-0.2,0.2h-12.4c-6.1,0-11,4.9-11,11
	v55.9c0,7.4,6,13.3,13.3,13.3h86.8c7.4,0,13.3-6,13.3-13.3V93.3C346.4,97.2,342.3,99.9,337.6,99.9z M294.4,95.6
	c0,5.9-4.8,10.6-10.6,10.6H254c-5.9,0-10.6-4.8-10.6-10.6V65.9c0-5.9,4.8-10.6,10.6-10.6h29.8c5.9,0,10.6,4.8,10.6,10.6V95.6z
	 M320.3,114.4c-0.5,0-1-0.4-1-1c0-0.5,0.4-1,1-1s1,0.4,1,1C321.2,114,320.8,114.4,320.3,114.4z M320.3,111.2c-0.5,0-1-0.4-1-1
	c0-0.5,0.4-1,1-1s1,0.4,1,1C321.2,110.7,320.8,111.2,320.3,111.2z M320.3,107.9c-0.5,0-1-0.4-1-1s0.4-1,1-1s1,0.4,1,1
	S320.8,107.9,320.3,107.9z M323.5,114.4c-0.5,0-1-0.4-1-1c0-0.5,0.4-1,1-1c0.5,0,1,0.4,1,1S324,114.4,323.5,114.4z M323.5,111.2
	c-0.5,0-1-0.4-1-1c0-0.5,0.4-1,1-1c0.5,0,1,0.4,1,1C324.5,110.7,324,111.2,323.5,111.2z M323.5,107.9c-0.5,0-1-0.4-1-1s0.4-1,1-1
	c0.5,0,1,0.4,1,1S324,107.9,323.5,107.9z M326.7,114.4c-0.5,0-1-0.4-1-1c0-0.5,0.4-1,1-1c0.5,0,1,0.4,1,1S327.3,114.4,326.7,114.4z
	 M326.7,111.2c-0.5,0-1-0.4-1-1c0-0.5,0.4-1,1-1c0.5,0,1,0.4,1,1C327.7,110.7,327.3,111.2,326.7,111.2z M326.7,107.9
	c-0.5,0-1-0.4-1-1s0.4-1,1-1c0.5,0,1,0.4,1,1S327.3,107.9,326.7,107.9z M283.9,60.1h-30c-3.1,0-5.6,2.5-5.6,5.6v30
	c0,3.1,2.5,5.6,5.6,5.6h30c3.1,0,5.6-2.5,5.6-5.6v-30C289.5,62.7,287,60.1,283.9,60.1z M288.3,65.8v30c0,2.4-2,4.4-4.4,4.4h-30
	c-2.4,0-4.4-2-4.4-4.4v-30c0-2.4,2-4.4,4.4-4.4h30C286.3,61.4,288.3,63.3,288.3,65.8L288.3,65.8z M337.6,47.7h-28.1
	c-6.3,0-11.4,5.1-11.4,11.4v28.1c0,6.3,5.1,11.4,11.4,11.4h28.1c6.3,0,11.4-5.1,11.4-11.4V59.1C349,52.9,343.9,47.7,337.6,47.7z
	 M345,86.3c0,4.6-3.8,8.4-8.4,8.4h-26.2c-4.6,0-8.4-3.8-8.4-8.4V60.1c0-4.6,3.8-8.4,8.4-8.4h26.2c4.6,0,8.4,3.8,8.4,8.4V86.3z
	 M323.5,69.2c-2.2,0-4,1.8-4,4s1.8,4,4,4s4-1.8,4-4S325.7,69.2,323.5,69.2z M323.5,75.9c-1.5,0-2.8-1.2-2.8-2.8
	c0-1.5,1.2-2.8,2.8-2.8c1.5,0,2.8,1.2,2.8,2.8C326.3,74.7,325,75.9,323.5,75.9z"/>
<path class="st0" d="M415.6,178.9v8.7l-10.7-1v-95c0-0.3,0.2-0.6,0.6-0.6l7-0.2c0.7,0,1.4,0,2,0h0.8c0.1,0,0.2,0,0.3,0L415.6,178.9
	L415.6,178.9z M415.3,89.6h-0.8c-0.7,0-1.4,0-2.1,0.1h-0.5l29.3-6.4c0.1,0,0.1,0,0.1,0l2.5-0.1c-4.6,1-11.2,2.5-16.9,3.7
	c-7.4,1.6-9.7,2.3-10.5,2.7C416.1,89.6,415.7,89.6,415.3,89.6L415.3,89.6z M444,189.7l-26.6-2.6c-0.1,0-0.2,0-0.3,0.1l-0.3,0.1V180
	l26.3,2.2h0.1c0.2,0,0.3-0.1,0.5-0.1l0.3-0.1V189.7L444,189.7z M444.4,90.3l-0.7,0.3c-2.2-0.1-4.4-0.3-6.7-0.3c-0.5,0-0.9,0-1.4-0.1
	c-1.8-0.1-3.6-0.1-5.4-0.2c-0.8,0-1.6,0-2.4,0c-1.5,0-2.9-0.1-4.4-0.1c-0.9,0-1.9,0-2.8,0c-0.4,0-0.8,0-1.3,0c1.5-0.4,3.9-1,7.8-1.8
	c9.4-2,21.1-4.7,22.8-5c6.2-0.1,12.4,0,18.5,0.3c-2.6,0.7-6.5,1.8-11.8,3.2C447.4,89,444.8,90.2,444.4,90.3L444.4,90.3z
	 M457.7,191.7l-12.4-1.2v-0.1c0-0.1,0-0.1,0-0.2V91.6c0.4,0,0.7,0.1,1.1,0.1l0.8,0.1c0.1,0,0.2,0,0.2,0l9.5,0.8h0.1
	c0.3,0,0.6,0.3,0.6,0.7L457.7,191.7L457.7,191.7z M482.2,166.1l-19.5,19.5v-2.8l20.2-20.2L482.2,166.1L482.2,166.1z M485.1,164.1
	c0,0.3-0.1,0.6-0.3,0.8l0,0v-4.5c0-0.3-0.2-0.6-0.6-0.6c-0.2,0-0.4,0.1-0.5,0.2l-22.1,22.1v6l-2.6,2.6V93.2c0-1-0.7-1.8-1.7-1.9
	h-0.1l-9.5-0.8c1.8-0.6,4.8-1.5,9.4-2.8c9.6-2.6,14.6-4,15.5-4.2c2.1,0.1,4.3,0.3,6.4,0.4l5.8,0.5c0.2,0,0.4,0.2,0.4,0.5
	L485.1,164.1L485.1,164.1z M430.1,101.2c-1.4,0-2.6-1.2-2.6-2.6s1.2-2.6,2.6-2.6s2.6,1.2,2.6,2.6S431.5,101.2,430.1,101.2z
	 M429.8,107.9c-0.4,0-0.7-0.3-0.7-0.7s0.3-0.7,0.7-0.7s0.6,0.3,0.6,0.7S430.2,107.9,429.8,107.9z M444,91.8c-0.1,0-0.2,0-0.2,0
	c-0.6,0-1.1-0.1-1.7-0.1c-1.7-0.1-3.4-0.2-5.1-0.3c-0.5,0-1.1,0-1.6-0.1c-1.7-0.1-3.5-0.1-5.2-0.2c-0.5,0-1.1,0-1.6,0
	c-1.7,0-3.5-0.1-5.2-0.1c-0.8,0-1.5,0-2.3,0c-1.4,0-2.8,0-4.1,0v87.6l26.4,2.2l0.8-0.4L444,91.8L444,91.8L444,91.8z M429.8,114.5
	c-1,0-1.9-0.8-1.9-1.9c0-1,0.9-1.9,1.9-1.9s1.9,0.8,1.9,1.9C431.7,113.7,430.9,114.5,429.8,114.5z M429.8,109.2
	c-1,0-1.9-0.8-1.9-1.9s0.9-1.9,1.9-1.9s1.9,0.8,1.9,1.9C431.7,108.3,430.9,109.2,429.8,109.2z M429.8,103.1c-2.5,0-4.5-2-4.5-4.5
	s2-4.5,4.5-4.5s4.5,2,4.5,4.5S432.3,103.1,429.8,103.1z M429.8,113.3c-0.4,0-0.7-0.3-0.7-0.7s0.3-0.7,0.7-0.7s0.6,0.3,0.6,0.7
	S430.2,113.3,429.8,113.3z"/>
<image style="overflow:visible;enable-background:new    ;" width="1318" height="1396" xlink:href="37C5FDC6.jpg"  transform="matrix(0.1816 0 0 0.1816 669.4072 -19.4969)">
</image>
<path class="st1" d="M760.6,180.9c0,0,2.3-6.2,6.5-6.2s9.3,6.6,12.2,9.4c2.9,2.9,6,6.3,10.4,8.9s8.6,4.9,17,4.3
	c8.4-0.5,14.6-2.6,23.8-4.6c9.2-2.1,16.1-3.4,22.6-3.9s10.7-0.5,15.4-3.6c4.7-3,4.8-6.8,4.6-8.1c-0.2-1.2-1.2-0.1-2.1,0.6
	s-5.5,3.6-8.3,4.6s-6.2,1.3-8.3,0.9s-11.4-3-11.4-3s0.4-0.3,1.2-1.4c0.8-1.1,0.8-1.3,0.8-1.3s-6.9,1.7-16.9,1.6
	c-10-0.1-15.9,0.7-23.5,2.1c-7.6,1.4-21.2,4.8-21.2,4.8s-4.5-4.4-7.1-7.5s-3.8-3.7-3.9-5.6c-0.1-1.9-0.2-3.4-0.2-3.4
	s-2.8-3.9-7.3-7.1s-7.9-2.8-7.9-2.8s-2,2.5-3.7,3.2c-1.8,0.7-6.5,0.6-14.7,4.3s-16.2,6.3-18.4,13.1s-2.8,14.2,4,18.3
	c6.8,4,16.8,0.2,21.1-2.2s7.8-4.7,10.8-7.9C758.6,185.6,760.6,180.9,760.6,180.9z"/>
<path class="st1" d="M843,180.3c0,0,9.3,2.6,11.4,3c1,0.2,2.3,0.2,3.7,0.1c0,0,1.2-1.4,1.8-4.1c0.6-2.7,2.5-5.6,5.6-7.4
	c2.4-1.3,3.5-1.7,4.9-2.5c1-0.6,1.6-1.8,1.4-3c-0.1-0.4-0.2-0.6-0.5-0.7c-0.7-0.2-6.6-1.9-9.6-2.3c-3-0.4-6.7,0-10.6,3.4
	c-3.9,3.4-5.1,8.8-6.1,10.7c0,0,0,0.1-0.8,1.3S843,180.3,843,180.3z"/>
<path class="st1" d="M854.8,183.4c0,0,1.1-1.1,2.7-5.9s4.4-6.9,7.8-8.7c1-0.5,3.3-1.3,4-1.6"/>
<ellipse transform="matrix(0.2687 -0.9632 0.9632 0.2687 367.5265 901.878)" class="st2" cx="777.7" cy="208.9" rx="17.3" ry="12.1"/>
<path class="st1" d="M772,227c-6.4-1.7-10.4-9.4-9.3-18.5c1.3-10.3,8.8-18.6,16.7-18.5"/>
<path class="st1" d="M777.7,186.8l-2.6-0.7c-1-0.3-2-0.4-3.1-0.5c-8.5-0.3-16.4,6.6-19.2,16.2v0.1c-0.4,1.3-0.7,2.7-0.8,4.2
	c-1.2,10.4,4.2,19.3,12.3,21.3l1.3,0.4c1.3,0.4,2.6,0.7,4,0.8c10.8,0.7,20.5-8.3,21.6-20C792.3,198.2,786.4,189.3,777.7,186.8z"/>
<path class="st1" d="M873.1,176.9L873.1,176.9L873.1,176.9L873.1,176.9z"/>
<path class="st1" d="M718.9,191.1L718.9,191.1c0,0,0,0.3,0.2,1C719,191.8,718.9,191.5,718.9,191.1z"/>
<path class="st1" d="M873.2,178.1c-0.1,1.7-0.8,4.7-4.6,7.1c-4.7,3-8.9,3.1-15.4,3.6s-13.4,1.8-22.6,3.9c-9.2,2.1-15.4,4.1-23.8,4.6
	c-8.4,0.5-12.6-1.7-17-4.3s-7.6-6-10.4-8.9c-2.9-2.9-7.9-9.4-12.2-9.4s-6.5,6.2-6.5,6.2s-2.1,4.8-4.6,7.5c-3,3.2-6.5,5.5-10.8,7.9
	s-14.3,6.3-21.1,2.2c-1.9-1.1-3.2-2.6-4.1-4.2c0.7,1.5,1.8,3.6,3.6,6.3c4.6,7,6.9,8.2,11.6,8.2c4.7,0,8.8-1.4,11.3-3.1
	c2.6,0,3.6,0,3.6,0l1.7,2.6l0,0c0-0.8,0.1-1.5,0.1-2.3c0.2-1.4,0.4-2.8,0.8-4.2v-0.1c2.8-9.5,10.7-16.5,19.2-16.2
	c1.1,0,2.1,0.2,3.1,0.5l2.6,0.7c7.5,2.2,12.8,9.1,13.6,17.5h0.1c0,0,2.8-0.3,5.3-1.2s7.8-3.2,14.4-4.5s19-3.7,25.5-5.2
	c9.7-0.6,14.2-1,19.6-0.9s11-0.1,13.9-2.6C873.3,186.9,873.3,180.7,873.2,178.1z"/>
<path class="st1" d="M723.6,200.7c-1.8-2.8-2.9-4.8-3.6-6.3l0,0c-2.1-4-1.4-9.1,0.1-13.8c-3.3,2.9-5.8,7.3-6.5,12.4
	c-1.2,8.7,3.6,15.9,10.7,15.9c1.8,0,3.6-0.5,5.3-1.3C727.7,206.4,725.9,204.3,723.6,200.7z"/>
<path class="st1" d="M723.6,200.7c-1.8-2.8-2.9-4.8-3.6-6.3l0,0c-2.2-4-1.4-9.2,0.1-14.1c1.2-3.8,4.3-6.3,8.3-8.4
	c-1.5-0.4-3.1-0.7-4.8-0.7c-10.6,0-19.7,9-20.3,20s7.5,20,18.2,20c3.6,0,6.9-1,9.9-2.8C728.8,207.6,726.8,205.5,723.6,200.7z"/>
<path class="st1" d="M870.6,173.1L870.6,173.1c0,0-1.3-1.2-4-1.7c-0.3,0.2-0.7,0.4-1.1,0.6c-3.1,1.8-5,4.7-5.6,7.4s-1.8,4.1-1.8,4.1
	c1.5-0.1,3.2-0.5,4.7-1c2.8-1,7.4-3.9,8.3-4.6c0.9-0.7,1.9-1.9,2.1-0.6c0,0.2,0.1,0.6,0,0.9c0.2,2.6,0.2,8.9-3.1,11.7
	c-2.8,2.5-8.4,2.6-13.9,2.6c-1.4,0-2.8,0-4.2,0c0.8,1.2,1.8,2.2,3,2.8l0,0c0,0,2.7,1.7,9.6,1.5c4.9,0,9.5-5.5,10.2-12.3
	C875.3,179.3,873.6,175,870.6,173.1z"/>
<g>
	<path class="st1" d="M862.7,182.4c2.8-1,7.4-3.9,8.3-4.6c0.3-0.2,0.6-0.5,0.9-0.7c-1.1-1.8-2.9-3-4.9-3c-2.8,0-5.5,2.2-7.1,5.5
		c-0.3,1-0.6,1.9-0.9,2.5c-0.1,0.4-0.2,0.8-0.3,1.3C860,183.2,861.4,182.9,862.7,182.4z"/>
	<path class="st1" d="M873.2,180.7c-0.1,3-0.7,7-3.1,9.1c-2.1,1.8-5.7,2.4-9.7,2.5c1.1,1.5,2.7,2.4,4.5,2.4c4.1,0,7.9-4.6,8.5-10.3
		C873.5,183.1,873.4,181.8,873.2,180.7z"/>
</g>
<path class="st1" d="M773,64.6"/>
<path class="st1" d="M771.1,140c0,1-2.6,1.7-5.7,1.6c-3.1-0.1-5.6-0.9-5.6-1.9c0,0-1,0.4-2,1.6c-0.2,2.8,0.2,4,0.4,7.2
	s0.3,4.5-0.8,6.6s-0.4,4.5-0.4,4.5s3.4-0.4,7.9,2.8s7.3,7.1,7.3,7.1s0.4-1,0.3-2.7c-0.2-1.7-0.7-4-0.7-9.1s0.3-8.4,0.8-11.3
	S773.8,141,771.1,140z"/>
<path class="st1" d="M773.9,28.5L773.9,28.5c0-0.4-2.5-0.8-5.6-0.8c-3.1-0.1-5.6,0.2-5.7,0.6l0,0c0,0-1.7,6.3-2,18s1,18.1,1,18.1
	l0,0l0,0c0,0.4,2.5,0.8,5.6,0.8c3.1,0.1,5.7-0.2,5.7-0.6l0,0l0,0c0,0,1.7-6.3,2-18C775.3,34.9,774,28.6,773.9,28.5z"/>
<path class="st1" d="M767.4,65.2c-3.1-0.1-5.6-0.4-5.6-0.8l-1.9,75.4c0,1,2.5,1.8,5.6,1.9c3.1,0.1,5.7-0.7,5.7-1.6l1.9-75.4
	C773,65,770.5,65.3,767.4,65.2z"/>
<ellipse transform="matrix(8.438486e-02 -0.9964 0.9964 8.438486e-02 818.2986 819.8701)" class="st3" cx="855.3" cy="-35.3" rx="8.1" ry="6.6"/>
<ellipse transform="matrix(8.438486e-02 -0.9964 0.9964 8.438486e-02 818.2986 819.8701)" class="st3" cx="855.3" cy="-35.3" rx="2.5" ry="2"/>
<ellipse transform="matrix(8.438486e-02 -0.9964 0.9964 8.438486e-02 813.4572 813.7087)" class="st3" cx="849.5" cy="-35.8" rx="8.1" ry="6.6"/>
<ellipse transform="matrix(8.438486e-02 -0.9964 0.9964 8.438486e-02 795.9072 791.039)" class="st3" cx="828.4" cy="-37.6" rx="5.5" ry="4.4"/>
<ellipse transform="matrix(8.438486e-02 -0.9964 0.9964 8.438486e-02 813.4572 813.7087)" class="st3" cx="849.5" cy="-35.8" rx="5.5" ry="4.4"/>
<line class="st1" x1="818.7" y1="-38.4" x2="855.3" y2="-35.3"/>
<path class="st1" d="M850-41.3l-1.7-0.3c-5.5-1-11.1-1.5-16.8-1.5h-2.7"/>
<path class="st1" d="M849-30.3h-1.7c-5.6,0.1-11.2-0.4-16.8-1.3l-2.6-0.5"/>
<path class="st1" d="M857.5-43.1l-1.2-0.4c-2.1-0.6-4.2-0.8-6.3-0.5l-1.4,0.2"/>
<path class="st1" d="M855.8-27.3l-1.3,0.1c-1.9,0.2-3.9,0-5.7-0.5l-1.2-0.3"/>
<ellipse transform="matrix(8.438486e-02 -0.9964 0.9964 8.438486e-02 737.38 797.8093)" class="st3" cx="802.8" cy="-2.3" rx="8.1" ry="6.6"/>
<ellipse transform="matrix(8.438486e-02 -0.9964 0.9964 8.438486e-02 732.6456 791.5653)" class="st3" cx="797" cy="-2.9" rx="8.1" ry="6.6"/>
<ellipse transform="matrix(6.632896e-02 -0.9978 0.9978 6.632896e-02 701.2154 733.8553)" class="st3" cx="742.7" cy="-7.8" rx="8.1" ry="6.2"/>
<ellipse transform="matrix(6.632896e-02 -0.9978 0.9978 6.632896e-02 697.298 728.7844)" class="st3" cx="738.1" cy="-8.2" rx="8.1" ry="6.2"/>
<ellipse transform="matrix(8.438486e-02 -0.9964 0.9964 8.438486e-02 715.0955 768.8954)" class="st3" cx="775.9" cy="-4.7" rx="5.5" ry="4.4"/>
<ellipse transform="matrix(8.438486e-02 -0.9964 0.9964 8.438486e-02 704.2226 754.7885)" class="st3" cx="762.8" cy="-5.8" rx="5.5" ry="4.4"/>
<ellipse transform="matrix(8.438486e-02 -0.9964 0.9964 8.438486e-02 715.0955 768.8954)" class="st3" cx="775.9" cy="-4.7" rx="7.2" ry="5.8"/>
<ellipse transform="matrix(8.438486e-02 -0.9964 0.9964 8.438486e-02 704.2226 754.7885)" class="st3" cx="762.8" cy="-5.8" rx="7.2" ry="5.8"/>
<ellipse transform="matrix(8.438486e-02 -0.9964 0.9964 8.438486e-02 732.6456 791.5653)" class="st3" cx="797" cy="-2.9" rx="5.5" ry="4.4"/>
<ellipse transform="matrix(8.438486e-02 -0.9964 0.9964 8.438486e-02 724.2004 780.7463)" class="st3" cx="786.9" cy="-3.7" rx="6.5" ry="5.2"/>
<path class="st1" d="M797.4-8.3l-1.7-0.3c-5.5-1-11.1-1.5-16.8-1.5h-2.7"/>
<path class="st1" d="M796.5,2.6h-1.7c-5.6,0.1-11.2-0.4-16.8-1.3l-2.6-0.5"/>
<ellipse transform="matrix(6.747805e-02 -0.9977 0.9977 6.747805e-02 700.2868 734.0977)" class="st3" cx="742.9" cy="-7.6" rx="5.5" ry="4.2"/>
<ellipse transform="matrix(6.747806e-02 -0.9977 0.9977 6.747806e-02 709.0283 745.3927)" class="st3" cx="753.3" cy="-6.6" rx="6.5" ry="4.9"/>
<path class="st1" d="M763.2-11.3l-1.6-0.3c-5.2-1-10.5-1.5-15.9-1.5h-2.6"/>
<path class="st1" d="M762.4-0.4h-1.6c-5.3,0.1-10.6-0.4-15.9-1.3l-2.5-0.5"/>
<line class="st1" x1="776.5" y1="-11.8" x2="763.4" y2="-12.9"/>
<line class="st1" x1="775.3" y1="2.5" x2="762.1" y2="1.4"/>
<path class="st4" d="M762,1.4c0.3,1,0.8,2.6,1,3.9c0.4,2.4,0.4,5.3,0.4,5.6c0.1,0.2,2.1,0.4,4.7,0.4c2.6,0.1,4.7,0,4.7-0.2
	c0,0,0.3-2.5,0.6-4.5c0.2-1.5,0.6-3,0.9-4.2L762,1.4z"/>
<path class="st4" d="M763.4,10.8C763.4,10.8,763.4,10.8,763.4,10.8C763.4,10.8,763.4,10.8,763.4,10.8z"/>
<line class="st1" x1="728" y1="-8.7" x2="802.7" y2="-2.3"/>
<path class="st5" d="M1040.8,180.9c0,0,2.3-6.2,6.5-6.2c4.2,0,9.3,6.6,12.2,9.4c2.9,2.9,6,6.3,10.4,8.9s8.6,4.9,17,4.3
	c8.4-0.5,14.6-2.6,23.8-4.6c9.2-2.1,16.1-3.4,22.6-3.9s10.7-0.5,15.4-3.6c4.7-3,4.8-6.8,4.6-8.1c-0.2-1.2-1.2-0.1-2.1,0.6
	c-0.9,0.7-5.5,3.6-8.3,4.6c-2.8,1-6.2,1.3-8.3,0.9s-11.4-3-11.4-3s0.4-0.3,1.2-1.4c0.8-1.1,0.8-1.3,0.8-1.3s-6.9,1.7-16.9,1.6
	c-10-0.1-15.9,0.7-23.5,2.1c-7.6,1.4-21.2,4.8-21.2,4.8s-4.5-4.4-7.1-7.5s-3.8-3.7-3.9-5.6c-0.1-1.9-0.2-3.4-0.2-3.4
	s-2.8-3.9-7.3-7.1s-7.9-2.8-7.9-2.8s-2,2.5-3.7,3.2c-1.8,0.7-6.5,0.6-14.7,4.3c-8.2,3.7-16.2,6.3-18.4,13.1s-2.8,14.2,4,18.3
	c6.8,4,16.8,0.2,21.1-2.2c4.3-2.4,7.8-4.7,10.8-7.9C1038.8,185.6,1040.8,180.9,1040.8,180.9z"/>
<path class="st5" d="M1123.2,180.3c0,0,9.3,2.6,11.4,3c1,0.2,2.3,0.2,3.7,0.1c0,0,1.2-1.4,1.8-4.1c0.6-2.7,2.5-5.6,5.6-7.4
	c2.4-1.3,3.5-1.7,4.9-2.5c1-0.6,1.6-1.8,1.4-3c-0.1-0.4-0.2-0.6-0.5-0.7c-0.7-0.2-6.6-1.9-9.6-2.3c-3-0.4-6.7,0-10.6,3.4
	c-3.9,3.4-5.1,8.8-6.1,10.7c0,0,0,0.1-0.8,1.3C1123.6,180,1123.2,180.3,1123.2,180.3z"/>
<ellipse transform="matrix(0.2687 -0.9632 0.9632 0.2687 572.4128 1171.7435)" class="st6" cx="1057.9" cy="208.9" rx="17.3" ry="12.1"/>
<path class="st5" d="M1057.9,186.8l-2.6-0.7c-1-0.3-2-0.4-3.1-0.5c-8.5-0.3-16.4,6.6-19.2,16.2v0.1c-0.4,1.3-0.7,2.7-0.8,4.2
	c-1.2,10.4,4.2,19.3,12.3,21.3l1.3,0.4c1.3,0.4,2.6,0.7,4,0.8c10.8,0.7,20.5-8.3,21.6-20C1072.5,198.2,1066.6,189.3,1057.9,186.8z"
	/>
<path class="st5" d="M1153.3,176.9L1153.3,176.9L1153.3,176.9L1153.3,176.9z"/>
<path class="st5" d="M999.1,191.1L999.1,191.1c0,0,0,0.3,0.2,1C999.2,191.8,999.1,191.5,999.1,191.1z"/>
<path class="st5" d="M1153.4,178.1c-0.1,1.7-0.8,4.7-4.6,7.1c-4.7,3-8.9,3.1-15.4,3.6s-13.4,1.8-22.6,3.9
	c-9.2,2.1-15.4,4.1-23.8,4.6c-8.4,0.5-12.6-1.7-17-4.3s-7.6-6-10.4-8.9c-2.9-2.9-7.9-9.4-12.2-9.4c-4.3,0-6.5,6.2-6.5,6.2
	s-2.1,4.8-4.6,7.5c-3,3.2-6.5,5.5-10.8,7.9c-4.3,2.4-14.3,6.3-21.1,2.2c-1.9-1.1-3.2-2.6-4.1-4.2c0.7,1.5,1.8,3.6,3.6,6.3
	c4.6,7,6.9,8.2,11.6,8.2c4.7,0,8.8-1.4,11.3-3.1c2.6,0,3.6,0,3.6,0l1.7,2.6l0,0c0-0.8,0.1-1.5,0.1-2.3c0.2-1.4,0.4-2.8,0.8-4.2v-0.1
	c2.8-9.5,10.7-16.5,19.2-16.2c1.1,0,2.1,0.2,3.1,0.5l2.6,0.7c7.5,2.2,12.8,9.1,13.6,17.5h0.1c0,0,2.8-0.3,5.3-1.2s7.8-3.2,14.4-4.5
	c6.6-1.3,19-3.7,25.5-5.2c9.7-0.6,14.2-1,19.6-0.9c5.4,0.1,11-0.1,13.9-2.6C1153.5,186.9,1153.5,180.7,1153.4,178.1z"/>
<path class="st5" d="M1003.8,200.7c-1.8-2.8-2.9-4.8-3.6-6.3l0,0c-2.1-4-1.4-9.1,0.1-13.8c-3.3,2.9-5.8,7.3-6.5,12.4
	c-1.2,8.7,3.6,15.9,10.7,15.9c1.8,0,3.6-0.5,5.3-1.3C1007.9,206.4,1006.1,204.3,1003.8,200.7z"/>
<path class="st5" d="M1003.8,200.7c-1.8-2.8-2.9-4.8-3.6-6.3l0,0c-2.2-4-1.4-9.2,0.1-14.1c1.2-3.8,4.3-6.3,8.3-8.4
	c-1.5-0.4-3.1-0.7-4.8-0.7c-10.6,0-19.7,9-20.3,20s7.5,20,18.2,20c3.6,0,6.9-1,9.9-2.8C1009,207.6,1007,205.5,1003.8,200.7z"/>
<path class="st5" d="M1150.8,173.1L1150.8,173.1c0,0-1.3-1.2-4-1.7c-0.3,0.2-0.7,0.4-1.1,0.6c-3.1,1.8-5,4.7-5.6,7.4
	s-1.8,4.1-1.8,4.1c1.5-0.1,3.2-0.5,4.7-1c2.8-1,7.4-3.9,8.3-4.6c0.9-0.7,1.9-1.9,2.1-0.6c0,0.2,0.1,0.6,0,0.9
	c0.2,2.6,0.2,8.9-3.1,11.7c-2.8,2.5-8.4,2.6-13.9,2.6c-1.4,0-2.8,0-4.2,0c0.8,1.2,1.8,2.2,3,2.8l0,0c0,0,2.7,1.7,9.6,1.5
	c4.9,0,9.5-5.5,10.2-12.3C1155.5,179.3,1153.8,175,1150.8,173.1z"/>
<g>
	<path class="st5" d="M1142.9,182.4c2.8-1,7.4-3.9,8.3-4.6c0.3-0.2,0.6-0.5,0.9-0.7c-1.1-1.8-2.9-3-4.9-3c-2.8,0-5.5,2.2-7.1,5.5
		c-0.3,1-0.6,1.9-0.9,2.5c-0.1,0.4-0.2,0.8-0.3,1.3C1140.2,183.2,1141.6,182.9,1142.9,182.4z"/>
	<path class="st5" d="M1153.4,180.7c-0.1,3-0.7,7-3.1,9.1c-2.1,1.8-5.7,2.4-9.7,2.5c1.1,1.5,2.7,2.4,4.5,2.4c4.1,0,7.9-4.6,8.5-10.3
		C1153.7,183.1,1153.6,181.8,1153.4,180.7z"/>
</g>
<path class="st5" d="M1051.3,140c0,1-2.6,1.7-5.7,1.6c-3.1-0.1-5.6-0.9-5.6-1.9c0,0-1,0.4-2,1.6c-0.2,2.8,0.2,4,0.4,7.2
	c0.2,3.2,0.3,4.5-0.8,6.6s-0.4,4.5-0.4,4.5s3.4-0.4,7.9,2.8s7.3,7.1,7.3,7.1s0.4-1,0.3-2.7c-0.2-1.7-0.7-4-0.7-9.1s0.3-8.4,0.8-11.3
	S1054,141,1051.3,140z"/>
<path class="st7" d="M1040,22.1c0.4,1.3,1,3.4,1.3,5.1c0.5,2.7,0.5,6,0.5,7c0,0.2,0.1,0.4,0.4,0.5c0.9,0.2,3.1,0.3,5.8,0.4
	c2.9,0.1,5.3,0,6-0.2c0.1,0,0.2-0.1,0.2-0.3c0.1-0.7,0.5-3.5,0.8-5.7c0.3-2,0.7-4,1.2-5.5L1040,22.1z"/>
<path class="st5" d="M1077.4,15.8c0.3-3,1.5-5.7,3.3-7.5c-6.2-0.9-12.4-1.4-18.8-1.4l-3.7,0c-2.9,0.1-5.4,3-5.8,6.7
	c-0.3,3.7,1.7,7,4.6,7.6l3.6,0.7c6.3,1,12.5,1.6,18.8,1.7C1078,21.6,1077.2,18.8,1077.4,15.8z"/>
<path class="st8" d="M1095.6,6.9L1095.6,6.9c0,0-2.3-0.7-4.9-0.9c-2.7-0.2-4.9,0-4.9,0l0,0c-4.3,0.2-8.1,4.4-8.5,9.9
	c-0.5,5.3,2.4,10,6.5,11.1l0,0c0,0,2.3,0.7,4.9,0.9c2.7,0.2,4.9,0,4.9,0l0,0c4.3-0.3,8.1-4.4,8.5-9.9
	C1102.5,12.6,1099.7,7.9,1095.6,6.9z"/>
<path class="st5" d="M1033.5,12c0.3-3.1,1.7-5.7,3.7-7.3c-6.1-1-12.3-1.6-18.6-1.6l-3.6,0l0,0c-2.8,0-5.3,2.9-5.6,6.7
	c-0.3,3.9,1.7,7.2,4.6,7.6l0,0l3.4,0.6c6.1,1,12.3,1.6,18.4,1.7C1034.2,17.9,1033.2,15.1,1033.5,12z"/>
<path class="st5" d="M1057.2,21.3c-2.9-0.6-4.9-3.8-4.6-7.6c0.3-3.7,2.8-6.6,5.8-6.7l3.7,0c0.5,0,1,0,1.5,0
	c-1.2-1.3-2.7-2.1-4.4-2.2c0,0,0,0,0,0l0,0c0,0-17-1.5-17.2-1.5c-4.2-0.4-8,3.6-8.4,8.8c-0.4,5.2,2.6,9.7,6.8,10.1
	c0.1,0,16.3,1.3,16.3,1.3c0.3,0.1,0.6,0.1,0.9,0.1c1.7,0.1,3.3-0.4,4.6-1.4c-0.5-0.1-0.9-0.1-1.4-0.2L1057.2,21.3z"/>
<path class="st8" d="M1017.4,18.1l-3.4-0.6l0,0c-2.9-0.4-4.9-3.8-4.6-7.6c0.3-3.8,2.8-6.7,5.6-6.7l0,0l3.6,0c0.9,0,1.7,0,2.5,0.1
	c-1-1.6-2.5-2.9-4.2-3.4l0,0c0,0-2-0.7-4.3-0.8c-2.4-0.2-4.3,0-4.3,0l0,0c-4.1,0.3-7.5,4.5-7.9,9.9c-0.4,5.2,2.1,9.8,5.9,11l0,0
	c0,0,2,0.7,4.3,0.9c2.4,0.2,4.3,0,4.3,0l0,0c1.7-0.1,3.3-1,4.6-2.3C1018.8,18.3,1018.1,18.2,1017.4,18.1z"/>
<path class="st8" d="M1092.5,27.8c-4.8-0.4-8.2-5.5-7.7-11.3"/>
<path class="st5" d="M1042.3,34.7l-2.7,105.1"/>
<path class="st5" d="M1051.4,140.1l2.7-105.2"/>
</svg>
