<svg width="144" height="144" viewBox="0 0 144 144" fill="none" xmlns="http://www.w3.org/2000/svg">
<path d="M42.71 113.844V122.584L32 121.544V26.6336C32 26.3036 32.25 26.0536 32.65 26.0436L39.64 25.8736C40.32 25.8536 40.99 25.8336 41.67 25.8336H42.42C42.51 25.8236 42.61 25.8136 42.7 25.8136V113.844H42.71ZM42.41 24.5536H41.66C40.98 24.5736 40.29 24.5936 39.61 24.6136H39.1L68.39 18.2436C68.46 18.2136 68.5 18.2136 68.54 18.2136L71 18.1536C66.36 19.1936 59.81 20.6536 54.14 21.8536C46.7 23.4336 44.42 24.1636 43.68 24.5436C43.26 24.5436 42.83 24.5436 42.41 24.5636V24.5536ZM71.18 124.684L44.61 122.104C44.5 122.094 44.39 122.104 44.29 122.154L43.97 122.304V115.024L70.27 117.174C70.27 117.174 70.34 117.174 70.38 117.174C70.55 117.174 70.72 117.124 70.87 117.054L71.17 116.914V124.674L71.18 124.684ZM71.57 25.3136L70.84 25.5736C68.62 25.4336 66.4 25.3136 64.16 25.2236C63.7 25.2036 63.25 25.1936 62.79 25.1736C61 25.1036 59.2 25.0336 57.4 24.9936C56.61 24.9736 55.81 24.9736 55.02 24.9536C53.56 24.9236 52.1 24.8936 50.63 24.8936C49.7 24.8936 48.77 24.8936 47.83 24.8936C47.41 24.8936 46.99 24.8936 46.57 24.8936C48.06 24.4936 50.48 23.9136 54.4 23.0736C63.77 21.0936 75.53 18.4136 77.15 18.0336C83.32 17.9436 89.5 18.0336 95.65 18.3136C93.07 19.0136 89.17 20.0736 83.86 21.4936C74.51 24.0036 71.91 25.1436 71.56 25.3036L71.57 25.3136ZM84.82 126.674L72.46 125.474V125.374C72.46 125.324 72.44 125.274 72.43 125.214V26.5636C72.8 26.5836 73.16 26.6136 73.53 26.6336L74.34 26.6836C74.43 26.7036 74.52 26.7036 74.56 26.7036L84.1 27.4736C84.1 27.4736 84.17 27.4836 84.2 27.4836C84.54 27.5136 84.81 27.7936 84.81 28.1436V126.674H84.82ZM109.39 101.074L89.93 120.534V117.684L110.17 97.4536L109.38 101.074H109.39ZM112.24 99.1236C112.24 99.4436 112.12 99.7336 111.9 99.9536L111.86 99.9936V95.5036C111.86 95.1836 111.62 94.9136 111.3 94.8836C111.11 94.8636 110.93 94.9336 110.8 95.0736L88.69 117.174V123.194L86.08 125.804V28.1436C86.08 27.1736 85.34 26.3536 84.39 26.2436C84.36 26.2436 84.32 26.2336 84.29 26.2236L74.78 25.4636C76.61 24.8536 79.56 23.9536 84.21 22.7036C93.82 20.1236 98.84 18.7436 99.67 18.5236C101.81 18.6536 103.94 18.7836 106.06 18.9536L111.84 19.4236C112.08 19.4436 112.26 19.6436 112.26 19.8836V99.1336L112.24 99.1236ZM57.23 36.2336C55.79 36.2336 54.62 35.0636 54.62 33.6236C54.62 32.1836 55.79 31.0236 57.23 31.0236C58.67 31.0236 59.83 32.1936 59.83 33.6236C59.83 35.0536 58.66 36.2336 57.23 36.2336ZM56.95 42.9036C56.59 42.9036 56.29 42.6136 56.29 42.2436C56.29 41.8736 56.58 41.5836 56.95 41.5836C57.32 41.5836 57.6 41.8736 57.6 42.2436C57.6 42.6136 57.31 42.9036 56.95 42.9036ZM71.14 26.7936C71.06 26.8236 70.98 26.8336 70.89 26.8236C70.32 26.7836 69.75 26.7636 69.18 26.7336C67.5 26.6336 65.81 26.5336 64.12 26.4636C63.58 26.4436 63.03 26.4236 62.48 26.4036C60.74 26.3336 59 26.2736 57.26 26.2236C56.72 26.2136 56.19 26.2136 55.65 26.1936C53.91 26.1636 52.16 26.1236 50.42 26.1136C49.65 26.1136 48.87 26.1136 48.1 26.1136C46.72 26.1136 45.35 26.1136 43.98 26.1336V113.774L70.38 115.924L71.19 115.554V26.7836H71.15L71.14 26.7936ZM56.95 49.5236C55.9 49.5236 55.04 48.6736 55.04 47.6236C55.04 46.5736 55.89 45.7136 56.95 45.7136C58.01 45.7136 58.85 46.5636 58.85 47.6236C58.85 48.6836 58 49.5236 56.95 49.5236ZM56.95 44.1636C55.9 44.1636 55.04 43.3136 55.04 42.2536C55.04 41.1936 55.89 40.3436 56.95 40.3436C58.01 40.3436 58.85 41.1936 58.85 42.2536C58.85 43.3136 58 44.1636 56.95 44.1636ZM56.95 38.1136C54.48 38.1136 52.48 36.1036 52.48 33.6336C52.48 31.1636 54.49 29.1636 56.95 29.1636C59.41 29.1636 61.42 31.1736 61.42 33.6336C61.42 36.0936 59.41 38.1136 56.95 38.1136ZM56.95 48.2736C56.59 48.2736 56.29 47.9836 56.29 47.6236C56.29 47.2636 56.58 46.9636 56.95 46.9636C57.32 46.9636 57.6 47.2536 57.6 47.6236C57.6 47.9936 57.31 48.2736 56.95 48.2736Z" fill="white"/>
</svg>
